<?xml version="1.0" encoding="utf-8"?>
<!-- Generator: Adobe Illustrator 27.5.0, SVG Export Plug-In . SVG Version: 6.00 Build 0)  -->
<svg version="1.1" xmlns="http://www.w3.org/2000/svg" xmlns:xlink="http://www.w3.org/1999/xlink" x="0px" y="0px"
	 viewBox="0 0 500 500" style="enable-background:new 0 0 500 500;" xml:space="preserve">
<g id="BACKGROUND">
	<rect style="fill:#FFE9B1;" width="500" height="500"/>
</g>
<g id="OBJECTS">
	<path style="opacity:0.4;fill:#FFE9B1;" d="M463.832,220.144c-2.154-18.113-11.374-36.258-27.344-44.828
		c-19.464-10.444-43.074-4.667-64.844-1.154c-21.77,3.513-47.968,2.67-60.773-15.429c-13.111-18.532-5.085-45.585-15.686-65.684
		c-7.858-14.899-24.836-23.078-41.494-24.687c-16.658-1.609-33.298,2.321-49.579,6.222c-23.821,5.709-47.868,11.498-69.864,22.344
		c-21.996,10.846-42.079,27.334-52.765,49.55c-10.686,22.215-10.443,50.621,4.485,70.191c4.936,6.471,11.37,11.997,14.475,19.536
		c6.309,15.324-3.114,32.143-11.209,46.588C59.782,335.353,44.194,395.73,44.489,456.1l331.281-2.823
		c36.852-54.565,64.556-115.397,81.586-179.143C462.063,256.519,465.986,238.257,463.832,220.144z"/>
	<g>
		<g>
			<g>
				<g>
					<path style="fill:#FFFEF0;" d="M324.745,434.287c0,0-13.846,12.195-27.726,13.52c-1.945,0.186-3.333,2.432-2.615,4.29
						l1.228,3.177h60.437l-1.965-19.27L324.745,434.287z"/>
					<g>
						
							<path style="fill:none;stroke:#000000;stroke-width:0.5;stroke-linecap:round;stroke-linejoin:round;stroke-miterlimit:10;" d="
							M299.641,447.431c0,0-0.044,2.902,3.384,3.516c3.433,0.615,52.379,0,52.379,0"/>
						
							<path style="fill:none;stroke:#000000;stroke-width:0.5;stroke-linecap:round;stroke-linejoin:round;stroke-miterlimit:10;" d="
							M310.816,443.486c0,0,5.106,4.039,11.352,2.947c6.225-1.089,15.71-8.984,15.71-8.984"/>
						
							<path style="fill:none;stroke:#000000;stroke-width:0.5;stroke-linecap:round;stroke-linejoin:round;stroke-miterlimit:10;" d="
							M333.488,441.316c0,0,6.117,4.438,7.943,9.777"/>
					</g>
				</g>
				<g>
					<path style="fill:#FFFEF0;" d="M421.859,433.224c0,0,13.847,12.195,27.726,13.52c1.945,0.186,3.333,2.432,2.615,4.29
						l-1.228,3.177h-60.437l1.965-19.27L421.859,433.224z"/>
					<g>
						
							<path style="fill:none;stroke:#000000;stroke-width:0.5;stroke-linecap:round;stroke-linejoin:round;stroke-miterlimit:10;" d="
							M446.965,446.369c0,0-2.981,1.923-8.555,2.412c-5.581,0.49-47.322,0-47.322,0"/>
						
							<path style="fill:none;stroke:#000000;stroke-width:0.5;stroke-linecap:round;stroke-linejoin:round;stroke-miterlimit:10;" d="
							M434.938,441.99c0,0-10.059,2.412-16.181,0.725c-6.092-1.679-8.118-6.328-8.118-6.328"/>
						
							<path style="fill:none;stroke:#000000;stroke-width:0.5;stroke-linecap:round;stroke-linejoin:round;stroke-miterlimit:10;" d="
							M414.336,440.615c0,0-4.397,4.114-4.766,8.331"/>
					</g>
				</g>
				<g>
					<g>
						<path d="M319.176,437.65l36.446-0.679l-3.408-195.747c6.135,30.267,25.123,139.659,38.873,196.225l35.84-0.327
							c-9.987-57.69-24.553-218.87-46.766-242.713l-66.581-0.969C300.025,263.97,312.697,352.873,319.176,437.65z"/>
					</g>
					<g>
						
							<path style="fill:none;stroke:#FFE9B1;stroke-width:0.5;stroke-linecap:round;stroke-linejoin:round;stroke-miterlimit:10;" d="
							M359.888,238.861c0,0-8.246,3.376-19.876,2.107"/>
					</g>
				</g>
			</g>
			<g>
				<g>
					<path style="fill:#FFD371;" d="M387.503,116.555l1.158,87.21c-34.533,12.343-58.703,14.736-81.746,2.065l2.362-80.879
						l25.809-5.797L387.503,116.555z"/>
					
						<path style="fill:none;stroke:#000000;stroke-width:0.5;stroke-linecap:round;stroke-linejoin:round;stroke-miterlimit:10;" d="
						M363.096,119.155c0,0-5.831,11.394-17.026,12.21c-11.195,0.816-17.143-9.796-17.143-9.796"/>
				</g>
				<g>
					<path style="fill:#FF9676;" d="M333.967,86.673l15.369,0.855l6.705,33.214c-8.527,7.921-15.713,7.018-22.119,0.978l1.979-8.879
						c0,0-6.415,1.935-8.349-0.713C324.015,107.288,333.967,86.673,333.967,86.673z"/>
					<g>
						
							<path style="fill:none;stroke:#000000;stroke-width:0.5;stroke-linecap:round;stroke-linejoin:round;stroke-miterlimit:10;" d="
							M334.243,94.77c-0.669,0.818-1.423,1.565-2.246,2.228c0.458,0.268,0.916,0.535,1.375,0.803"/>
						<g>
							
								<path style="fill:none;stroke:#000000;stroke-width:0.5;stroke-linecap:round;stroke-linejoin:round;stroke-miterlimit:10;" d="
								M330.636,94.378c0,0,1.261-0.531,1.991,0.097"/>
							
								<path style="fill:none;stroke:#000000;stroke-width:0.5;stroke-linecap:round;stroke-linejoin:round;stroke-miterlimit:10;" d="
								M336.394,94.912c0,0,2.155-0.836,3.903,0.343"/>
						</g>
						<path style="fill:#FFFEF0;" d="M334.161,98.753c0.138-0.01,0.28-0.02,0.411,0.022c0.255,0.08,0.42,0.347,0.438,0.614
							c0.017,0.266-0.091,0.528-0.243,0.748c-0.316,0.458-0.833,0.772-1.385,0.841c-0.552,0.069-1.131-0.108-1.55-0.474
							c-0.252-0.22-0.453-0.523-0.47-0.858c-0.031-0.606,0.399-0.725,0.877-0.752C332.88,98.857,333.52,98.8,334.161,98.753z"/>
					</g>
					
						<path style="fill:none;stroke:#000000;stroke-width:0.5;stroke-linecap:round;stroke-linejoin:round;stroke-miterlimit:10;" d="
						M336.807,111.434c0,0,3.896-1.417,5.047-3.453"/>
					<path d="M347.254,88.318c-4.087,0.594-8.272,0.506-12.329-0.261c-2.135-0.403-4.309-1.031-5.963-2.439
						c-1.654-1.409-2.659-3.769-1.928-5.815c0.387-1.083,1.317-2.03,2.46-2.162c0.841-0.097,1.684,0.249,2.353,0.767
						c0.669,0.518,1.192,1.198,1.706,1.869c-0.577-0.628-0.048-1.763,0.774-1.988c0.823-0.225,1.694,0.211,2.312,0.799
						c0.618,0.588,1.075,1.327,1.688,1.92c1.601,1.55,4.018,1.889,6.245,1.805c2.227-0.085,4.467-0.51,6.668-0.165
						c0.753,0.118,1.526,0.344,2.073,0.876c0.547,0.531,0.788,1.436,0.375,2.077c1.028-0.036,2.08-0.069,3.058,0.249
						c0.978,0.318,1.882,1.062,2.096,2.067c0.279,1.313-0.645,2.548-1.511,3.573c-2.151,2.545-4.303,5.088-6.452,7.634
						c-0.454,0.538-0.824,1.133-1.407,0.407c-0.43-0.535-0.655-1.389-0.889-2.026c-0.502-1.365-0.87-2.78-1.099-4.216
						C347.223,91.648,347.143,89.977,347.254,88.318z"/>
					<g>
						<g>
							
								<path style="fill:none;stroke:#FFFEF0;stroke-width:0.5;stroke-linecap:round;stroke-linejoin:round;stroke-miterlimit:10;" d="
								M335.769,96.677l5.805,1.002c0.858,0.148,1.673-0.427,1.821-1.285l0.582-3.37c0.148-0.858-0.427-1.673-1.285-1.821
								l-5.805-1.002c-0.858-0.148-1.673,0.427-1.821,1.285l-0.582,3.37C334.336,95.713,334.911,96.529,335.769,96.677z"/>
							
								<path style="fill:none;stroke:#FFFEF0;stroke-width:0.5;stroke-linecap:round;stroke-linejoin:round;stroke-miterlimit:10;" d="
								M328.624,95.443l3.269,0.564c0.695,0.12,1.355-0.346,1.475-1.041l0.683-3.959c0.12-0.695-0.346-1.355-1.041-1.475
								l-3.269-0.564c-0.695-0.12-1.355,0.346-1.475,1.041l-0.683,3.96C327.464,94.663,327.93,95.323,328.624,95.443z"/>
						</g>
						
							<line style="fill:none;stroke:#FFFEF0;stroke-width:0.5;stroke-linecap:round;stroke-linejoin:round;stroke-miterlimit:10;" x1="343.528" y1="95.623" x2="351.264" y2="97.307"/>
					</g>
					<g>
						<path style="fill:#FF9676;" d="M354.814,99.362c0,1.619-1.313,2.932-2.932,2.932s-2.932-1.313-2.932-2.932
							c0-1.619,1.313-2.932,2.932-2.932S354.814,97.743,354.814,99.362z"/>
						
							<path style="fill:none;stroke:#000000;stroke-width:0.5;stroke-linecap:round;stroke-linejoin:round;stroke-miterlimit:10;" d="
							M349.974,99.483c0,0,0.41-2.302,2.755-1.522"/>
					</g>
				</g>
			</g>
			<g>
				<g>
					<g>
						<g>
							<path style="fill:#FF9676;" d="M248.261,147.769c0.382,0.124,0.721,0.355,0.977,0.665l6.683,8.115
								c1.09,1.249,2.573,2.089,4.204,2.382l4.562,0.82l-3.087-6.973c-0.309-0.697-0.314-1.492-0.016-2.193l0.129-0.304
								c0.266-0.624,1.107-0.727,1.515-0.186l5.112,6.777l3.666,4.861c1.048,1.389,1.693,3.04,1.864,4.771l1.248,1.263
								l13.445,11.794l-11.67,12.92l-12.532-13.418l-11.247-10.845l0.202-7.257l-6.132-11.927
								C246.816,148.321,247.498,147.52,248.261,147.769z"/>
							
								<line style="fill:none;stroke:#000000;stroke-width:0.5;stroke-linecap:round;stroke-linejoin:round;stroke-miterlimit:10;" x1="264.686" y1="159.751" x2="266.919" y2="160.196"/>
						</g>
						<g>
							<path style="fill:#FF9676;" d="M249.99,146.982l-1.239,7.357c-0.159,0.941-0.005,1.908,0.438,2.753l1.789,3.413l2.207-2.997
								l-1.229-2.433l0.396-6.824c0.036-0.623-0.155-1.238-0.539-1.73l0,0C251.264,145.816,250.138,146.1,249.99,146.982z"/>
							
								<line style="fill:none;stroke:#000000;stroke-width:0.5;stroke-linecap:round;stroke-linejoin:round;stroke-miterlimit:10;" x1="249.656" y1="148.962" x2="249.037" y2="152.64"/>
						</g>
						<g>
							<path style="fill:#FF9676;" d="M253.739,149.757l-4.784,5.842c-0.546,0.666-0.65,1.591-0.266,2.362l4.447,8.937l1.992-3.368
								l-3.05-6.243l2.871-5.28c0.304-0.527,0.372-1.158,0.189-1.738l-0.083-0.261C254.873,149.433,254.123,149.288,253.739,149.757
								z"/>
							
								<path style="fill:none;stroke:#000000;stroke-width:0.5;stroke-linecap:round;stroke-linejoin:round;stroke-miterlimit:10;" d="
								M252.152,151.695l-3.198,3.905c-0.068,0.083-0.13,0.171-0.184,0.261"/>
							
								<line style="fill:none;stroke:#000000;stroke-width:0.5;stroke-linecap:round;stroke-linejoin:round;stroke-miterlimit:10;" x1="252.078" y1="157.288" x2="253.849" y2="154.033"/>
						</g>
						<g>
							<path style="fill:#FF9676;" d="M254.78,153.999c0.38-0.36,1.008-0.147,1.092,0.37l0.008,0.053
								c0.102,0.632-0.037,1.278-0.387,1.813l-2.466,4.24l2.744,5.019l-0.181,4.899l-0.951-0.607
								c-0.622-0.397-1.144-0.933-1.525-1.566l-3.13-5.206c-0.657-1.093-0.556-2.48,0.252-3.467L254.78,153.999z"/>
							
								<path style="fill:none;stroke:#000000;stroke-width:0.5;stroke-linecap:round;stroke-linejoin:round;stroke-miterlimit:10;" d="
								M249.815,160.227c0.108-0.241,0.248-0.469,0.421-0.68l4.544-5.548c0.38-0.36,1.008-0.147,1.092,0.37l0.008,0.053
								c0.102,0.632-0.037,1.278-0.387,1.813l-2.466,4.24l0.863,1.578"/>
						</g>
					</g>
					<g>
						<path style="fill:#FFFEF0;" d="M309.277,124.951c0,0-11.02,2.974-14.344,8.396c-3.324,5.423-3.493,45.972-3.493,45.972
							l-13.417-12.776l-21.277,25.28c0,0,31.628,37.501,50.17,35.576C325.457,225.476,309.277,124.951,309.277,124.951z"/>
						
							<line style="fill:none;stroke:#000000;stroke-width:0.5;stroke-linecap:round;stroke-linejoin:round;stroke-miterlimit:10;" x1="291.44" y1="179.32" x2="298.57" y2="185.569"/>
					</g>
				</g>
				<g>
					<path style="fill:#FFFEF0;" d="M334.243,119.155l-7.021,161.053c-8.557,1.788-17.245,2.027-26.045,0.915
						c-2.906-82.127-3.086-119.162,8.101-156.172L334.243,119.155z"/>
					<g>
						
							<path style="fill:none;stroke:#000000;stroke-width:0.5;stroke-linecap:round;stroke-linejoin:round;stroke-miterlimit:10;" d="
							M299.605,224.826c-0.439-30.968,0.389-53.514,3.587-73.388"/>
					</g>
				</g>
			</g>
			<g>
				<g>
					<path style="fill:#FFFEF0;" d="M355.622,117.961c4.471,61.443,6.43,81.981,21.261,153.974
						c10.748,0.391,22.076-2.555,33.676-7.067c-18.57-68.595-21.071-85.98-23.056-148.313L355.622,117.961z"/>
				</g>
				<g>
					<g>
						<path style="fill:#FFFEF0;" d="M387.503,116.555c0,0,24.217-0.301,27.688,11.398c4.41,14.866,28.751,73.305,25.777,87.114
							c-2.974,13.809-47.954,33.514-47.954,33.514l-14.603-34.328l22.368-13.777l-14.588-38.398L387.503,116.555z"/>
						
							<path style="fill:none;stroke:#000000;stroke-width:0.5;stroke-linecap:round;stroke-linejoin:round;stroke-miterlimit:10;" d="
							M400.779,200.475c0,0,3.258-1.62,7.719,0.272"/>
						
							<path style="fill:none;stroke:#000000;stroke-width:0.5;stroke-linecap:round;stroke-linejoin:round;stroke-miterlimit:10;" d="
							M395.4,203.08c-4.827-24.678-5.231-29.233-6.739-57.694"/>
						
							<polyline style="fill:none;stroke:#000000;stroke-width:0.5;stroke-linecap:round;stroke-linejoin:round;stroke-miterlimit:10;" points="
							385.003,229.75 393.013,248.581 404.739,242.983 						"/>
					</g>
					<g>
						<g>
							<path style="fill:#FFE9B1;" d="M370.345,199.786c9.922,4.068,19.436,7.549,28.305,10.104c1.125,0.324,1.666,1.605,1.101,2.63
								c-9.496,17.227-19.767,33.534-30.926,48.786c-0.471,0.643-1.308,0.915-2.061,0.654c-9.016-3.114-18.237-8.194-27.623-14.85
								c-0.827-0.587-1.005-1.749-0.404-2.565c11.296-15.34,21.324-30.115,29.353-43.998
								C368.544,199.761,369.505,199.441,370.345,199.786z"/>
							<g>
								
									<path style="fill:none;stroke:#000000;stroke-width:0.5;stroke-linecap:round;stroke-linejoin:round;stroke-miterlimit:10;" d="
									M365.317,208.738c7.717,4.033,15.623,7.68,23.679,10.922"/>
								
									<path style="fill:none;stroke:#000000;stroke-width:0.5;stroke-linecap:round;stroke-linejoin:round;stroke-miterlimit:10;" d="
									M361.917,214.859c7.717,4.033,15.623,7.68,23.679,10.922"/>
								
									<path style="fill:none;stroke:#000000;stroke-width:0.5;stroke-linecap:round;stroke-linejoin:round;stroke-miterlimit:10;" d="
									M358.516,220.979c7.717,4.033,15.623,7.68,23.679,10.922"/>
								
									<path style="fill:none;stroke:#000000;stroke-width:0.5;stroke-linecap:round;stroke-linejoin:round;stroke-miterlimit:10;" d="
									M355.116,227.1c7.717,4.033,15.623,7.68,23.679,10.922"/>
								
									<path style="fill:none;stroke:#000000;stroke-width:0.5;stroke-linecap:round;stroke-linejoin:round;stroke-miterlimit:10;" d="
									M351.715,233.22c7.717,4.033,15.623,7.68,23.679,10.922"/>
							</g>
						</g>
						<g>
							<g>
								<path style="fill:#FF9676;" d="M382.397,203.409c-1.508,1.722-3.477,2.465-4.398,1.659
									c-0.921-0.806-0.445-2.856,1.063-4.578c1.508-1.723,3.477-2.465,4.398-1.659
									C384.381,199.637,383.905,201.687,382.397,203.409z"/>
								
									<path style="fill:none;stroke:#000000;stroke-width:0.5;stroke-linecap:round;stroke-linejoin:round;stroke-miterlimit:10;" d="
									M380.892,204.721c-1.133,0.724-2.26,0.901-2.893,0.347c-0.921-0.806-0.445-2.856,1.063-4.578"/>
							</g>
							<g>
								<path style="fill:#FF9676;" d="M385.868,205.026c-1.776,2.028-3.962,3.019-4.883,2.213
									c-0.921-0.806-0.228-3.104,1.548-5.132c1.776-2.028,3.962-3.019,4.883-2.213C388.337,200.7,387.644,202.998,385.868,205.026
									z"/>
								
									<path style="fill:none;stroke:#000000;stroke-width:0.5;stroke-linecap:round;stroke-linejoin:round;stroke-miterlimit:10;" d="
									M383.157,207.172c-0.905,0.422-1.702,0.478-2.172,0.067c-0.921-0.806-0.228-3.104,1.548-5.132
									c0.38-0.434,0.779-0.82,1.18-1.152"/>
							</g>
							<g>
								<path style="fill:#FF9676;" d="M388.772,206.872c-1.803,2.059-4.078,3.016-5.082,2.137c-1.004-0.879-0.357-3.261,1.446-5.32
									c1.803-2.059,4.337-2.377,5.341-1.497S390.575,204.813,388.772,206.872z"/>
								
									<path style="fill:none;stroke:#000000;stroke-width:0.5;stroke-linecap:round;stroke-linejoin:round;stroke-miterlimit:10;" d="
									M387.603,208.005c-1.524,1.244-3.118,1.7-3.914,1.003c-1.004-0.879-0.357-3.261,1.446-5.32
									c0.647-0.739,1.388-1.253,2.118-1.569"/>
							</g>
							<g>
								<path style="fill:#FF9676;" d="M392.247,209.092c-1.87,2.135-4.132,3.213-5.052,2.407c-0.921-0.806-0.152-3.191,1.718-5.326
									c1.87-2.135,3.659-3.434,5.214-2.224C395.355,204.904,394.116,206.957,392.247,209.092z"/>
								
									<path style="fill:none;stroke:#000000;stroke-width:0.5;stroke-linecap:round;stroke-linejoin:round;stroke-miterlimit:10;" d="
									M389.108,211.512c-0.805,0.33-1.497,0.351-1.914-0.014c-0.921-0.806-0.152-3.191,1.718-5.326
									c0.449-0.513,0.893-0.977,1.331-1.371"/>
							</g>
						</g>
					</g>
				</g>
			</g>
			<g>
				<g>
					
						<path style="fill:none;stroke:#000000;stroke-width:0.5;stroke-linecap:round;stroke-linejoin:round;stroke-miterlimit:10;" d="
						M325.198,121.255c0,0-2.203,10.161-2.836,22.208"/>
					<g>
						
							<path style="fill:none;stroke:#000000;stroke-width:0.5;stroke-linecap:round;stroke-linejoin:round;stroke-miterlimit:10;" d="
							M317.907,179.875c0,0-7.681-33.947,5.021-36.555c12.702-2.607,10.819,30.618,12.617,35.513"/>
						<g>
							<path d="M319.976,180.605c0,1.143-0.926,2.069-2.069,2.069c-1.143,0-2.069-0.926-2.069-2.069
								c0-1.143,0.926-2.069,2.069-2.069C319.05,178.536,319.976,179.462,319.976,180.605z"/>
							<path d="M337.613,179.702c0,1.143-0.926,2.069-2.069,2.069c-1.143,0-2.069-0.926-2.069-2.069
								c0-1.143,0.926-2.069,2.069-2.069C336.687,177.633,337.613,178.559,337.613,179.702z"/>
						</g>
					</g>
				</g>
				<g>
					
						<path style="fill:none;stroke:#000000;stroke-width:0.5;stroke-linecap:round;stroke-linejoin:round;stroke-miterlimit:10;" d="
						M367.245,117.56c0,0,5.835,24.543,5.141,36.208"/>
					<ellipse transform="matrix(0.7071 -0.7071 0.7071 0.7071 -2.9036 308.9962)" cx="371.54" cy="158.003" rx="8.193" ry="8.193"/>
				</g>
			</g>
		</g>
		<g>
			<path style="fill:#FFFEF0;" d="M439.408,55.728c-17.354-1.219-35.571-0.065-54.447,2.896c-1.951,0.306-3.316,2.107-3.105,4.071
				c0.963,8.968,2.842,17.125,5.836,24.297c0.496,1.189,1.56,2.049,2.831,2.261c8.447,1.409,16.641,2.599,24.208,3.25
				c-2.963,2.909-7.786,6.097-15.354,7.492c26.006,0.291,36.972-8.515,37.394-9.947c2.923-9.915,5.06-19.971,6.1-30.226
				C443.083,57.724,441.511,55.876,439.408,55.728z"/>
			<g>
				<path d="M404.411,72.987c0,1.407-1.141,2.548-2.547,2.548c-1.407,0-2.548-1.141-2.548-2.548c0-1.407,1.141-2.547,2.548-2.547
					C403.271,70.439,404.411,71.58,404.411,72.987z"/>
				<path d="M414.909,72.987c0,1.407-1.141,2.548-2.548,2.548s-2.547-1.141-2.547-2.548c0-1.407,1.141-2.547,2.547-2.547
					S414.909,71.58,414.909,72.987z"/>
				<path d="M425.407,72.987c0,1.407-1.141,2.548-2.548,2.548c-1.407,0-2.547-1.141-2.547-2.548c0-1.407,1.141-2.547,2.547-2.547
					C424.267,70.439,425.407,71.58,425.407,72.987z"/>
			</g>
		</g>
	</g>
	<g>
		<g>
			<g>
				<path style="fill:none;stroke:#000000;stroke-width:0.5;stroke-linecap:round;stroke-linejoin:round;stroke-miterlimit:10;" d="
					M164.196,355.96l-4.494,93.524c-0.102,2.134-3.256,2.134-3.358,0l-4.494-93.524H164.196z"/>
				<path style="fill:none;stroke:#000000;stroke-width:0.5;stroke-linecap:round;stroke-linejoin:round;stroke-miterlimit:10;" d="
					M56.43,355.96l-4.494,93.524c-0.103,2.134-3.256,2.134-3.358,0l-4.494-93.524H56.43z"/>
			</g>
			<g>
				<path style="fill:#FFD371;" d="M40.597,362.594h127.086c1.371,0,2.483-1.112,2.483-2.483v-6.83c0-1.371-1.112-2.483-2.483-2.483
					H40.597c-1.371,0-2.483,1.112-2.483,2.483v6.83C38.114,361.483,39.226,362.594,40.597,362.594z"/>
				
					<line style="fill:none;stroke:#000000;stroke-width:0.5;stroke-linecap:round;stroke-linejoin:round;stroke-miterlimit:10;" x1="170.167" y1="355.96" x2="38.114" y2="355.96"/>
			</g>
		</g>
		<g>
			<path d="M35.158,308.241h54.306c1.016,0,2.026,0.642,2.519,1.601l19.414,37.772c0.8,1.556-0.089,3.185-1.738,3.185H55.353
				c-1.016,0-2.026-0.642-2.519-1.601L33.42,311.426C32.62,309.87,33.509,308.241,35.158,308.241z"/>
			<path style="fill:#7743DB;" d="M39.188,308.241h54.306c1.016,0,2.026,0.642,2.519,1.601l19.414,37.772
				c0.8,1.556-0.089,3.185-1.738,3.185H59.382c-1.016,0-2.026-0.642-2.519-1.601l-19.414-37.772
				C36.65,309.87,37.539,308.241,39.188,308.241z"/>
			<g>
				<path style="fill:#3B3486;" d="M42.556,310.166h49.394c0.924,0,1.843,0.584,2.291,1.456l17.658,34.355
					c0.727,1.415-0.081,2.897-1.581,2.897H60.925c-0.924,0-1.843-0.584-2.291-1.456l-17.658-34.355
					C40.248,311.647,41.057,310.166,42.556,310.166z"/>
				<g>
					<g>
						<g>
							<path style="fill:#7743DB;" d="M91.902,328.625h2.548c0.509,0,1.132,0.413,1.392,0.921l4.743,9.285h-4.391l-4.743-9.285
								C91.191,329.037,91.393,328.625,91.902,328.625z"/>
							<path style="fill:#FFD371;" d="M87.074,332.944h2.548c0.509,0,1.132,0.412,1.392,0.921l2.537,4.966h-4.391l-2.537-4.966
								C86.364,333.356,86.565,332.944,87.074,332.944z"/>
							<path style="fill:#7743DB;" d="M79.103,331.108h2.548c0.509,0,1.132,0.412,1.392,0.921l3.475,6.802h-4.391l-3.475-6.802
								C78.392,331.521,78.594,331.108,79.103,331.108z"/>
							<path style="fill:#FFFEF0;" d="M71.566,330.123h2.548c0.509,0,1.132,0.413,1.392,0.921l3.978,7.787h-4.391l-3.978-7.787
								C70.856,330.536,71.058,330.123,71.566,330.123z"/>
							<path style="fill:#FFD371;" d="M67.824,336.567h2.548c0.509,0,1.132,0.412,1.392,0.921l0.686,1.343H68.06l-0.686-1.343
								C67.114,336.979,67.315,336.567,67.824,336.567z"/>
						</g>
						<g>
							
								<polyline style="fill:none;stroke:#000000;stroke-width:0.5;stroke-linecap:round;stroke-linejoin:round;stroke-miterlimit:10;" points="
								97.258,328.625 102.472,338.831 68.06,338.831 							"/>
							
								<line style="fill:none;stroke:#000000;stroke-width:0.5;stroke-linecap:round;stroke-linejoin:round;stroke-miterlimit:10;" x1="100.734" y1="335.429" x2="66.322" y2="335.429"/>
							
								<line style="fill:none;stroke:#000000;stroke-width:0.5;stroke-linecap:round;stroke-linejoin:round;stroke-miterlimit:10;" x1="98.996" y1="332.027" x2="64.584" y2="332.027"/>
						</g>
					</g>
					<g>
						<path style="fill:none;stroke:#FFD371;stroke-width:2;stroke-linecap:round;stroke-linejoin:round;stroke-miterlimit:10;" d="
							M53.405,320.196c1.486,2.908,5.047,5.265,7.955,5.265c2.908,0,4.061-2.357,2.576-5.265c-1.485-2.908-5.047-5.265-7.955-5.265
							C53.073,314.931,51.92,317.288,53.405,320.196z"/>
						<path style="fill:#FFD371;" d="M55.516,318.964h1.293l-0.66-1.293c-0.165-0.323-0.037-0.586,0.287-0.586h1.292
							c0.324,0,0.72,0.262,0.885,0.586l0.66,1.293h1.293c0.323,0,0.72,0.262,0.885,0.586l0.66,1.293
							c0.165,0.323,0.037,0.586-0.287,0.586h-1.293l0.66,1.293c0.165,0.323,0.037,0.586-0.287,0.586h-1.292
							c-0.324,0-0.72-0.262-0.885-0.586l-0.66-1.293h-1.293c-0.323,0-0.72-0.262-0.885-0.586l-0.66-1.293
							C55.065,319.226,55.193,318.964,55.516,318.964z"/>
						<path style="fill:none;stroke:#7743DB;stroke-width:2;stroke-linecap:round;stroke-linejoin:round;stroke-miterlimit:10;" d="
							M61.36,325.461c2.908,0,4.061-2.357,2.576-5.265c-1.485-2.908-5.047-5.265-7.955-5.265"/>
						<path style="fill:none;stroke:#000000;stroke-width:2;stroke-linecap:round;stroke-linejoin:round;stroke-miterlimit:10;" d="
							M61.36,325.461c2.908,0,4.061-2.357,2.576-5.265"/>
					</g>
				</g>
			</g>
			<g>
				<path style="fill:#7743DB;" d="M63.521,345.006h83.265c0.865,0,1.566,0.701,1.566,1.566v2.661c0,0.865-0.701,1.565-1.566,1.565
					H63.521c-0.865,0-1.565-0.701-1.565-1.565v-2.661C61.956,345.707,62.657,345.006,63.521,345.006z"/>
				<path d="M55.704,345.006h34.353c0.832,0,1.506,0.674,1.506,1.506v2.779c0,0.832-0.674,1.506-1.506,1.506H55.704
					c-0.832,0-1.506-0.674-1.506-1.506v-2.779C54.198,345.681,54.872,345.006,55.704,345.006z"/>
			</g>
		</g>
	</g>
	<g>
		<g>
			<g>
				<path style="fill:none;stroke:#000000;stroke-width:0.5;stroke-linecap:round;stroke-linejoin:round;stroke-miterlimit:10;" d="
					M286.177,82.131l-56.084,56.084c-3.959,3.959-9.329,6.183-14.928,6.183h-25.249"/>
				<g>
					<path style="fill:#FFFEF0;" d="M298.605,85.51h-74.238c-2.095,0-3.794-1.699-3.794-3.794V47.694
						c0-2.095,1.699-3.794,3.794-3.794h74.238c2.095,0,3.794,1.699,3.794,3.794v34.022C302.399,83.811,300.7,85.51,298.605,85.51z"
						/>
					<g>
						<g>
							<path style="fill:#7743DB;" d="M239.013,55.027h-4.833c-0.965,0-1.747,0.782-1.747,1.747v17.609h8.327V56.774
								C240.76,55.809,239.978,55.027,239.013,55.027z"/>
							<path style="fill:#FFD371;" d="M252.352,63.217h-4.833c-0.965,0-1.747,0.782-1.747,1.747v9.419h8.327v-9.419
								C254.1,63.999,253.317,63.217,252.352,63.217z"/>
							<path style="fill:#7743DB;" d="M265.692,59.736h-4.833c-0.965,0-1.747,0.782-1.747,1.747v12.899h8.328V61.483
								C267.439,60.518,266.657,59.736,265.692,59.736z"/>
							<path style="fill:#3B3486;" d="M279.031,57.868h-4.833c-0.965,0-1.747,0.782-1.747,1.747v14.767h8.327V59.616
								C280.778,58.651,279.996,57.868,279.031,57.868z"/>
							<path style="fill:#FFD371;" d="M292.37,70.088h-4.833c-0.965,0-1.747,0.782-1.747,1.747v2.548h8.327v-2.548
								C294.117,70.87,293.335,70.088,292.37,70.088z"/>
						</g>
						<g>
							
								<polyline style="fill:none;stroke:#000000;stroke-width:0.5;stroke-linecap:round;stroke-linejoin:round;stroke-miterlimit:10;" points="
								228.855,55.027 228.855,74.383 294.117,74.383 							"/>
							
								<line style="fill:none;stroke:#000000;stroke-width:0.5;stroke-linecap:round;stroke-linejoin:round;stroke-miterlimit:10;" x1="228.855" y1="67.931" x2="294.117" y2="67.931"/>
							
								<line style="fill:none;stroke:#000000;stroke-width:0.5;stroke-linecap:round;stroke-linejoin:round;stroke-miterlimit:10;" x1="228.855" y1="61.479" x2="294.117" y2="61.479"/>
						</g>
					</g>
				</g>
			</g>
			<g>
				<g>
					<path style="fill:#FFFEF0;" d="M135.083,124.012H33.817c-3.413,0-6.18-2.767-6.18-6.18V50.678c0-3.413,2.767-6.18,6.18-6.18
						h101.265c3.413,0,6.18,2.767,6.18,6.18v67.154C141.263,121.245,138.496,124.012,135.083,124.012z"/>
					<g>
						<path style="fill:#FFD371;" d="M41.54,101.092c0,0,5.518-32.425,13.4-33.197c7.882-0.772,6.193,24.815,11.148,24.705
							c4.955-0.11,1.126-30.44,13.85-32.425c12.724-1.985,7.544,20.845,14.526,20.955c6.982,0.11,1.802-16.544,11.824-17.977
							c10.022-1.434,6.306,27.903,12.386,27.903c6.081,0,3.797-10.6,8.768-10.484c4.97,0.116,4.632,20.52,4.632,20.52H41.54z"/>
						<g>
							<g>
								
									<line style="fill:none;stroke:#000000;stroke-width:0.5;stroke-linecap:round;stroke-linejoin:round;stroke-miterlimit:10;" x1="41.54" y1="101.092" x2="132.078" y2="101.092"/>
								
									<line style="fill:none;stroke:#000000;stroke-width:0.5;stroke-linecap:round;stroke-linejoin:round;stroke-miterlimit:10;" x1="41.54" y1="57.858" x2="41.54" y2="101.092"/>
								
									<line style="fill:none;stroke:#000000;stroke-width:0.5;stroke-linecap:round;stroke-linejoin:round;stroke-miterlimit:10;" x1="71.719" y1="57.858" x2="71.719" y2="101.092"/>
								
									<line style="fill:none;stroke:#000000;stroke-width:0.5;stroke-linecap:round;stroke-linejoin:round;stroke-miterlimit:10;" x1="101.899" y1="57.858" x2="101.899" y2="101.092"/>
								
									<line style="fill:none;stroke:#000000;stroke-width:0.5;stroke-linecap:round;stroke-linejoin:round;stroke-miterlimit:10;" x1="132.078" y1="57.858" x2="132.078" y2="101.092"/>
							</g>
							<g>
								
									<line style="fill:none;stroke:#000000;stroke-width:0.5;stroke-linecap:round;stroke-linejoin:round;stroke-miterlimit:10;" x1="38.645" y1="57.858" x2="41.54" y2="57.858"/>
								
									<line style="fill:none;stroke:#000000;stroke-width:0.5;stroke-linecap:round;stroke-linejoin:round;stroke-miterlimit:10;" x1="38.645" y1="67.529" x2="41.54" y2="67.529"/>
								
									<line style="fill:none;stroke:#000000;stroke-width:0.5;stroke-linecap:round;stroke-linejoin:round;stroke-miterlimit:10;" x1="38.645" y1="77.2" x2="41.54" y2="77.2"/>
								
									<line style="fill:none;stroke:#000000;stroke-width:0.5;stroke-linecap:round;stroke-linejoin:round;stroke-miterlimit:10;" x1="38.645" y1="86.871" x2="41.54" y2="86.871"/>
								
									<line style="fill:none;stroke:#000000;stroke-width:0.5;stroke-linecap:round;stroke-linejoin:round;stroke-miterlimit:10;" x1="38.645" y1="96.542" x2="41.54" y2="96.542"/>
							</g>
						</g>
					</g>
					<path style="fill:#7743DB;" d="M50.101,110.235c-1.73-2.481-4.012,0.579-4.012,0.579s-2.281-3.061-4.012-0.579
						c-2.767,3.968,4.012,7.031,4.012,7.031S52.868,114.203,50.101,110.235z"/>
					<g>
						
							<line style="fill:none;stroke:#000000;stroke-width:0.5;stroke-linecap:round;stroke-linejoin:round;stroke-miterlimit:10;" x1="56.87" y1="110.29" x2="71.719" y2="110.29"/>
						
							<line style="fill:none;stroke:#000000;stroke-width:0.5;stroke-linecap:round;stroke-linejoin:round;stroke-miterlimit:10;" x1="56.87" y1="113.029" x2="71.719" y2="113.029"/>
						
							<line style="fill:none;stroke:#000000;stroke-width:0.5;stroke-linecap:round;stroke-linejoin:round;stroke-miterlimit:10;" x1="56.87" y1="115.769" x2="71.719" y2="115.769"/>
					</g>
					<g>
						
							<path style="fill:#FFFEF0;stroke:#000000;stroke-width:0.5;stroke-linecap:round;stroke-linejoin:round;stroke-miterlimit:10;" d="
							M126.692,117.92h-6.364c-0.813,0-1.473-0.659-1.473-1.473v-6.364c0-0.813,0.659-1.473,1.473-1.473h6.364
							c0.813,0,1.473,0.659,1.473,1.473v6.364C128.165,117.26,127.505,117.92,126.692,117.92z"/>
						<path style="fill:#FFD371;" d="M118.408,110.272l4.635,5.788c0.055,0.068,0.157,0.072,0.216,0.007l7.092-7.691
							c0.11-0.12-0.034-0.301-0.176-0.22l-7.128,4.08c-0.041,0.024-0.092,0.025-0.135,0.004l-4.33-2.184
							C118.446,109.987,118.312,110.153,118.408,110.272z"/>
					</g>
				</g>
				<path style="fill:none;stroke:#000000;stroke-width:0.5;stroke-linecap:round;stroke-linejoin:round;stroke-miterlimit:10;" d="
					M137.232,123.628l4.91,7.168c1.787,2.609,4.745,4.168,7.907,4.168h16.124"/>
			</g>
			<g>
				<g>
					<path style="fill:#FFFEF0;" d="M37.338,237.335h51.497c2.126,0,3.849-1.723,3.849-3.849V181.99
						c0-2.126-1.723-3.849-3.849-3.849H37.338c-2.126,0-3.849,1.723-3.849,3.849v51.497
						C33.489,235.612,35.212,237.335,37.338,237.335z"/>
					<g>
						
							<circle style="fill:none;stroke:#FFD371;stroke-width:2;stroke-linecap:round;stroke-linejoin:round;stroke-miterlimit:10;" cx="63.086" cy="201.797" r="15.115"/>
						<path style="fill:#FFD371;" d="M55.839,198.26h3.711v-3.711c0-0.929,0.752-1.681,1.681-1.681h3.71
							c0.929,0,1.681,0.753,1.681,1.681v3.711h3.711c0.929,0,1.681,0.753,1.681,1.681v3.711c0,0.929-0.753,1.681-1.681,1.681h-3.711
							v3.711c0,0.928-0.753,1.681-1.681,1.681h-3.71c-0.929,0-1.681-0.753-1.681-1.681v-3.711h-3.711
							c-0.929,0-1.681-0.753-1.681-1.681v-3.711C54.157,199.013,54.91,198.26,55.839,198.26z"/>
						<path style="fill:none;stroke:#7743DB;stroke-width:2;stroke-linecap:round;stroke-linejoin:round;stroke-miterlimit:10;" d="
							M63.086,216.911c8.348,0,15.115-6.767,15.115-15.115s-6.767-15.115-15.115-15.115"/>
						<path style="fill:none;stroke:#000000;stroke-width:2;stroke-linecap:round;stroke-linejoin:round;stroke-miterlimit:10;" d="
							M63.086,216.911c8.348,0,15.115-6.767,15.115-15.115"/>
					</g>
					<g>
						<g>
							
								<line style="fill:none;stroke:#000000;stroke-width:0.5;stroke-linecap:round;stroke-linejoin:round;stroke-miterlimit:10;" x1="76.468" y1="223.56" x2="40.582" y2="223.56"/>
							
								<line style="fill:none;stroke:#000000;stroke-width:0.5;stroke-linecap:round;stroke-linejoin:round;stroke-miterlimit:10;" x1="76.468" y1="227.4" x2="40.582" y2="227.4"/>
							
								<line style="fill:none;stroke:#000000;stroke-width:0.5;stroke-linecap:round;stroke-linejoin:round;stroke-miterlimit:10;" x1="76.468" y1="231.241" x2="40.582" y2="231.241"/>
						</g>
						<g>
							
								<path style="fill:none;stroke:#000000;stroke-width:0.5;stroke-linecap:round;stroke-linejoin:round;stroke-miterlimit:10;" d="
								M81.906,224.45c0,1.017,0.825,1.842,1.842,1.842c1.017,0,1.842-0.825,1.842-1.842c0-1.017-0.825-1.842-1.842-1.842
								C82.731,222.608,81.906,223.432,81.906,224.45z"/>
							
								<path style="fill:none;stroke:#000000;stroke-width:0.5;stroke-linecap:round;stroke-linejoin:round;stroke-miterlimit:10;" d="
								M81.906,230.351c0,1.018,0.825,1.842,1.842,1.842c1.017,0,1.842-0.825,1.842-1.842c0-1.017-0.825-1.842-1.842-1.842
								C82.731,228.509,81.906,229.334,81.906,230.351z"/>
						</g>
					</g>
				</g>
				<path style="fill:none;stroke:#000000;stroke-width:0.5;stroke-linecap:round;stroke-linejoin:round;stroke-miterlimit:10;" d="
					M42.291,237.335l40.312,40.312c1.931,1.931,4.55,3.016,7.28,3.016h20.066"/>
			</g>
		</g>
		<g>
			<g>
				<g>
					<path style="fill:#FF9676;" d="M222.552,142.084c0,0,7.995,6.831,11.017,12.315c7.317,13.279,8.237,47.28,8.237,47.28
						l40.471-9.009l4.443,15.011c0,0-40.708,33.087-65.003,25.869c-14.505-4.309-19.655-46.961-15.996-71.937
						C208.191,144.758,222.552,142.084,222.552,142.084z"/>
					
						<line style="fill:none;stroke:#000000;stroke-width:0.5;stroke-linecap:round;stroke-linejoin:round;stroke-miterlimit:10;" x1="241.806" y1="201.68" x2="232.497" y2="204.116"/>
				</g>
				<g>
					<path style="fill:#FF9676;" d="M292.558,189.394c0,0,3.483,8.362,1.689,13.398c-1.795,5.036-6.153,6.134-9.616,4.903
						l-5.984-12.819L292.558,189.394z"/>
					<g>
						<g>
							<g>
								<path style="fill:#FF9676;" d="M291.996,198.596c-0.31,0.927,0.855,1.959,2.773,2.601c1.919,0.642,3.363,0.598,3.673-0.328
									c0.31-0.927,0.17-2.075-1.749-2.717C294.775,197.51,292.306,197.669,291.996,198.596z"/>
								
									<path style="fill:none;stroke:#000000;stroke-width:0.5;stroke-linecap:round;stroke-linejoin:round;stroke-miterlimit:10;" d="
									M291.996,198.596c-0.31,0.927,0.855,1.959,2.773,2.601c1.266,0.423,2.326,0.549,2.989,0.318"/>
							</g>
							<g>
								<path style="fill:#FF9676;" d="M291.969,196.697c0.043,1.25,1.9,1.967,4.488,1.879c2.587-0.088,4.3-0.786,4.257-2.035
									c-0.043-1.25-0.724-2.564-3.311-2.476C294.816,194.153,291.927,195.447,291.969,196.697z"/>
								
									<path style="fill:none;stroke:#000000;stroke-width:0.5;stroke-linecap:round;stroke-linejoin:round;stroke-miterlimit:10;" d="
									M291.969,196.697c0.043,1.25,1.9,1.967,4.488,1.879c1.707-0.058,3.034-0.382,3.726-0.954"/>
							</g>
							<g>
								<path style="fill:#FF9676;" d="M291.947,193.303c0.04,1.164,1.821,1.83,4.303,1.746c2.482-0.085,4.125-0.736,4.086-1.9
									c-0.04-1.164-0.692-2.388-3.174-2.303C294.68,190.931,291.908,192.139,291.947,193.303z"/>
								
									<path style="fill:none;stroke:#000000;stroke-width:0.5;stroke-linecap:round;stroke-linejoin:round;stroke-miterlimit:10;" d="
									M291.947,193.303c0.04,1.164,1.821,1.83,4.303,1.746c1.638-0.056,2.91-0.358,3.575-0.892"/>
							</g>
							<g>
								<path style="fill:#FF9676;" d="M291.456,189.864c0.036,1.05,1.697,1.65,4.013,1.571c2.315-0.079,3.849-0.668,3.813-1.719
									c-0.036-1.05-0.643-2.154-2.958-2.075C294.008,187.72,291.421,188.814,291.456,189.864z"/>
								
									<path style="fill:none;stroke:#000000;stroke-width:0.5;stroke-linecap:round;stroke-linejoin:round;stroke-miterlimit:10;" d="
									M291.456,189.864c0.036,1.05,1.697,1.65,4.013,1.571c1.528-0.052,2.715-0.326,3.336-0.809"/>
							</g>
						</g>
						<g>
							<path style="fill:#FF9676;" d="M278.646,194.875c0,0,6.799-10.732,12.31-10.364c5.511,0.368,4.197,9.213,4.197,9.213
								s-0.666,1.525-2.75-0.277c0,0-0.089,11.169-9.102,9.996L278.646,194.875z"/>
							<g>
								
									<path style="fill:none;stroke:#000000;stroke-width:0.5;stroke-linecap:round;stroke-linejoin:round;stroke-miterlimit:10;" d="
									M294.881,188.143c0.718,2.579,0.272,5.582,0.272,5.582s-0.666,1.525-2.75-0.277c0,0-0.074,9.353-6.993,10.042"/>
								
									<path style="fill:none;stroke:#000000;stroke-width:0.5;stroke-linecap:round;stroke-linejoin:round;stroke-miterlimit:10;" d="
									M292.404,193.447c-1.221-1.251-1.863-2.832-1.927-4.741"/>
							</g>
						</g>
					</g>
				</g>
			</g>
			<g>
				<g>
					<path style="fill:#FF9676;" d="M213.718,204.744c0,0-0.887,102.916-19.015,117.806
						C175.638,338.209,89.02,302.044,89.02,302.044l-0.99-22.835l75.063,9.263l9.999-80.432L213.718,204.744z"/>
					<g>
						
							<line style="fill:none;stroke:#000000;stroke-width:0.5;stroke-linecap:round;stroke-linejoin:round;stroke-miterlimit:10;" x1="163.092" y1="288.472" x2="161.838" y2="295.839"/>
						
							<path style="fill:none;stroke:#000000;stroke-width:0.5;stroke-linecap:round;stroke-linejoin:round;stroke-miterlimit:10;" d="
							M184.472,320.916c0,0-5.896,2.141-6.488,0.522c-0.592-1.619,3.399-3.76,3.399-3.76"/>
					</g>
					<g>
						<path style="fill:#7743DB;" d="M126.268,316.276c-20.066-6.462-37.249-14.232-37.249-14.232l-0.99-22.835l41.454,4.789
							L126.268,316.276z"/>
						<g>
							
								<line style="fill:none;stroke:#000000;stroke-width:0.5;stroke-linecap:round;stroke-linejoin:round;stroke-miterlimit:10;" x1="120.395" y1="282.948" x2="117.526" y2="313.327"/>
							<g>
								
									<line style="fill:none;stroke:#000000;stroke-width:0.5;stroke-linecap:round;stroke-linejoin:round;stroke-miterlimit:10;" x1="128.945" y1="289.351" x2="119.885" y2="288.312"/>
								
									<line style="fill:none;stroke:#000000;stroke-width:0.5;stroke-linecap:round;stroke-linejoin:round;stroke-miterlimit:10;" x1="128.287" y1="295.991" x2="119.31" y2="294.433"/>
								
									<line style="fill:none;stroke:#000000;stroke-width:0.5;stroke-linecap:round;stroke-linejoin:round;stroke-miterlimit:10;" x1="127.573" y1="303.159" x2="118.689" y2="301.054"/>
								
									<line style="fill:none;stroke:#000000;stroke-width:0.5;stroke-linecap:round;stroke-linejoin:round;stroke-miterlimit:10;" x1="126.794" y1="310.94" x2="118.012" y2="308.241"/>
							</g>
						</g>
					</g>
				</g>
				<g>
					<path style="fill:#FFFEF0;" d="M95.291,308.457c-7.813,3.877-14.956,8.611-20.632,15.224c-1.395,1.626-3.947,1.521-5.264-0.168
						c-0.084-0.108-0.165-0.217-0.244-0.327c-1.329-1.86-1.504-4.311-0.635-6.426l15.306-37.251
						c0.231-0.562,0.655-1.022,1.196-1.299l1.655-0.846c1.353-0.691,1.803-2.407,0.962-3.673l-0.459-0.692
						c-0.467-0.704-0.555-1.593-0.234-2.375l1.725-4.199c0.763-1.858,3.008-2.603,4.728-1.566
						c8.491,5.119,16.003,10.431,20.991,16.24c0.887,1.032,0.965,2.533,0.217,3.67l-0.48,0.73c-0.748,1.137-2.155,1.645-3.456,1.248
						l0,0c-2.27-0.692-4.781-0.102-6.393,1.64c-1.378,1.488-2.431,3.459-3.245,5.786c-1.111,3.177-0.3,6.659,1.892,9.213
						c1.201,1.399,2.08,2.998,2.617,4.811c0.168,0.567,0.104,1.189-0.174,1.711c-1.087,2.039-2.632,3.773-4.569,5.246
						c-1.492,1.135-3.628,0.151-3.873-1.707C96.667,311.505,96.187,309.78,95.291,308.457z"/>
					<g>
						
							<path style="fill:none;stroke:#000000;stroke-width:0.5;stroke-linecap:round;stroke-linejoin:round;stroke-miterlimit:10;" d="
							M74.075,324.218c0,0-1.58-2.833,0.416-9.304c1.996-6.471,14.559-35.432,14.559-35.432s3.434-1.583,3.586-3.243
							c0.152-1.661-1.015-3.731-1.015-3.731l2.869-6.982"/>
						
							<path style="fill:none;stroke:#000000;stroke-width:0.5;stroke-linecap:round;stroke-linejoin:round;stroke-miterlimit:10;" d="
							M92.637,276.238c0,0,6.94,1.86,11.873-4.035"/>
						
							<path style="fill:none;stroke:#000000;stroke-width:0.5;stroke-linecap:round;stroke-linejoin:round;stroke-miterlimit:10;" d="
							M83.523,315.517c0,0-0.844-4.398,3.335-8.116c4.179-3.718,13.824-8.7,13.824-8.7s-3.777,4.827-5.39,9.755"/>
						
							<path style="fill:none;stroke:#000000;stroke-width:0.5;stroke-linecap:round;stroke-linejoin:round;stroke-miterlimit:10;" d="
							M98.153,300.061c0,0-0.614-12.364,5.771-15.805c6.385-3.441,9.683,1.833,9.683,1.833"/>
						
							<polyline style="fill:none;stroke:#000000;stroke-width:0.5;stroke-linecap:round;stroke-linejoin:round;stroke-miterlimit:10;" points="
							86.684,313.327 87.148,307.15 91.018,310.71 91.496,304.005 94.641,308.783 						"/>
						
							<path style="fill:none;stroke:#000000;stroke-width:0.5;stroke-linecap:round;stroke-linejoin:round;stroke-miterlimit:10;" d="
							M77.197,307.675c0,0,18.045-7.236,22.302-31.899"/>
					</g>
					<g>
						
							<path style="fill:none;stroke:#000000;stroke-width:0.5;stroke-linecap:round;stroke-linejoin:round;stroke-miterlimit:10;" d="
							M91.018,310.71c0,0,6.867,4.536,3.953,6.223C92.058,318.619,91.018,310.71,91.018,310.71z"/>
						
							<path style="fill:none;stroke:#000000;stroke-width:0.5;stroke-linecap:round;stroke-linejoin:round;stroke-miterlimit:10;" d="
							M91.018,310.71c0,0-0.659,8.172-3.074,7.113C85.529,316.765,88.791,312.223,91.018,310.71z"/>
					</g>
				</g>
				<path style="fill:#3B3486;" d="M220.968,216.845c0,0-4.606,49.799-10.318,62.9c-21.553-4.84-37.359-7.609-52.449-14.303
					l-0.477-55.613L220.968,216.845z"/>
			</g>
			<path d="M218.809,104.312c0,0-1.936-5.335-8.145-6.504c-12.206-2.298-15.937,7.921-14.543,17.924
				c1.365,9.796-28.548,12.245-28.548,12.245s7.632,22.658,25.427,27.957L218.809,104.312z"/>
			<g>
				<g>
					<path style="fill:#FF9676;" d="M195.653,209.371c0,0,53.954,56.338,60.484,88.85c3.842,19.129-11.766,122.974-11.766,122.974
						l-26.206-0.342l-4.366-113.391l-56.688-79.832L195.653,209.371z"/>
					
						<path style="fill:none;stroke:#000000;stroke-width:0.5;stroke-linecap:round;stroke-linejoin:round;stroke-miterlimit:10;" d="
						M252.5,293.705c0,0,1.837,5.349-0.041,6.186s-4.372-3.203-4.372-3.203"/>
					<g>
						<path style="fill:#7743DB;" d="M249.009,388.069c-2.499,18.894-4.638,33.128-4.638,33.128l-26.206-0.342l-1.288-33.442
							L249.009,388.069z"/>
						<g>
							
								<line style="fill:none;stroke:#000000;stroke-width:0.5;stroke-linecap:round;stroke-linejoin:round;stroke-miterlimit:10;" x1="247.912" y1="396.247" x2="217.199" y2="395.757"/>
							<g>
								
									<line style="fill:none;stroke:#000000;stroke-width:0.5;stroke-linecap:round;stroke-linejoin:round;stroke-miterlimit:10;" x1="221.98" y1="387.412" x2="221.98" y2="395.823"/>
								
									<line style="fill:none;stroke:#000000;stroke-width:0.5;stroke-linecap:round;stroke-linejoin:round;stroke-miterlimit:10;" x1="229.148" y1="387.588" x2="228.898" y2="395.943"/>
								
									<line style="fill:none;stroke:#000000;stroke-width:0.5;stroke-linecap:round;stroke-linejoin:round;stroke-miterlimit:10;" x1="236.308" y1="387.764" x2="235.825" y2="396.055"/>
								
									<line style="fill:none;stroke:#000000;stroke-width:0.5;stroke-linecap:round;stroke-linejoin:round;stroke-miterlimit:10;" x1="243.458" y1="387.931" x2="242.725" y2="396.166"/>
							</g>
						</g>
					</g>
				</g>
				<g>
					<path style="fill:#3B3486;" d="M159.098,192.949c0,0-13.355,28.125-2.873,46.814c7.228,12.885,43.649,47.604,43.649,47.604
						c13.738-7.718,28.036-16.355,38.047-30.882l-34.326-48.097L159.098,192.949z"/>
					<g>
						
							<path style="fill:none;stroke:#000000;stroke-width:0.5;stroke-linecap:round;stroke-linejoin:round;stroke-miterlimit:10;" d="
							M161.371,244.482c4.051,5.279,16.542,19.404,26.567,30.23"/>
						
							<line style="fill:none;stroke:#000000;stroke-width:0.5;stroke-linecap:round;stroke-linejoin:round;stroke-miterlimit:10;" x1="216.332" y1="226.236" x2="211.267" y2="219.138"/>
					</g>
				</g>
				<g>
					<path style="fill:#FFFEF0;" d="M247.27,415.539c6.555,5.753,13.649,10.561,21.923,13.298c2.034,0.673,2.907,3.072,1.845,4.933
						c-0.068,0.119-0.138,0.235-0.21,0.35c-1.215,1.936-3.416,3.03-5.702,3.03l-40.273,0c-0.607,0-1.195-0.217-1.656-0.613
						l-1.411-1.21c-1.154-0.989-2.912-0.753-3.763,0.506l-0.465,0.688c-0.473,0.7-1.263,1.119-2.107,1.119h-4.54
						c-2.008,0-3.551-1.793-3.245-3.778c1.508-9.799,3.566-18.766,7.043-25.589c0.618-1.213,1.976-1.855,3.312-1.596l0.858,0.167
						c1.335,0.26,2.34,1.368,2.468,2.722l0,0c0.223,2.363,1.723,4.461,3.946,5.29c1.9,0.709,4.124,0.934,6.585,0.802
						c3.361-0.18,6.273-2.254,7.803-5.252c0.838-1.642,1.982-3.063,3.455-4.249c0.461-0.371,1.06-0.548,1.649-0.489
						c2.299,0.23,4.49,1.001,6.589,2.232c1.617,0.949,1.519,3.299-0.107,4.232C249.566,413.109,248.153,414.208,247.27,415.539z"/>
					<g>
						
							<path style="fill:none;stroke:#000000;stroke-width:0.5;stroke-linecap:round;stroke-linejoin:round;stroke-miterlimit:10;" d="
							M269.911,429.173c0,0-2.02,2.538-8.764,3.151c-6.744,0.613-38.307,0-38.307,0s-2.769-2.575-4.363-2.084
							c-1.594,0.49-3.065,2.357-3.065,2.357h-7.548"/>
						
							<path style="fill:none;stroke:#000000;stroke-width:0.5;stroke-linecap:round;stroke-linejoin:round;stroke-miterlimit:10;" d="
							M218.477,430.24c0,0-0.917-7.127-8.245-9.449"/>
						
							<path style="fill:none;stroke:#000000;stroke-width:0.5;stroke-linecap:round;stroke-linejoin:round;stroke-miterlimit:10;" d="
							M258.273,423.741c0,0-3.747,2.452-8.774,0c-5.027-2.452-13.301-9.48-13.301-9.48s5.9,1.659,11.072,1.278"/>
						
							<path style="fill:none;stroke:#000000;stroke-width:0.5;stroke-linecap:round;stroke-linejoin:round;stroke-miterlimit:10;" d="
							M238.416,416.084c0,0-11.203,5.267-16.813,0.669c-5.61-4.598-1.984-9.653-1.984-9.653"/>
						
							<polyline style="fill:none;stroke:#000000;stroke-width:0.5;stroke-linecap:round;stroke-linejoin:round;stroke-miterlimit:10;" points="
							255.045,421.65 249.155,423.568 250.978,418.636 244.594,420.741 247.818,416.017 						"/>
						
							<path style="fill:none;stroke:#000000;stroke-width:0.5;stroke-linecap:round;stroke-linejoin:round;stroke-miterlimit:10;" d="
							M253.423,432.573c0,0-13.551-13.94-37.982-8.505"/>
					</g>
					<g>
						
							<path style="fill:none;stroke:#000000;stroke-width:0.5;stroke-linecap:round;stroke-linejoin:round;stroke-miterlimit:10;" d="
							M250.978,418.636c0,0,1.586-8.076,4.253-6.022C257.898,414.668,250.978,418.636,250.978,418.636z"/>
						
							<path style="fill:none;stroke:#000000;stroke-width:0.5;stroke-linecap:round;stroke-linejoin:round;stroke-miterlimit:10;" d="
							M250.978,418.636c0,0,7.809-2.497,7.747,0.14C258.664,421.412,253.223,420.121,250.978,418.636z"/>
					</g>
				</g>
			</g>
			<g>
				<g>
					<path style="fill:#FF9676;" d="M108.171,150.158c1.249-7.773,23.501-14.7,36.618-17.458l5.915,36.564l-9.45-1.23l6.501,47.719
						l-16.469,7.439C131.287,223.193,105.562,166.396,108.171,150.158z"/>
					
						<line style="fill:none;stroke:#000000;stroke-width:0.5;stroke-linecap:round;stroke-linejoin:round;stroke-miterlimit:10;" x1="141.254" y1="168.035" x2="140.619" y2="161.4"/>
				</g>
				<g>
					<path style="fill:#FF9676;" d="M154.48,224.622c-0.187,1.427-0.584,2.526-2.299,3.077c0.105,0.508,0.172,1.835,0.19,2.347
						c0.079,2.316-1.818,3.224-2.869,3.26c-0.518,0.018-0.922-0.349-1.21-0.999c-0.272,1.553-1.262,2.02-2.223,2.053
						c-0.53,0.018-0.948-0.327-1.26-0.927c-0.458,0.954-1.305,1.276-2.132,1.304c-1.077,0.037-1.741-1.234-1.961-3.24
						c-0.659,1.157-1.589,1.229-2.367,0.969c-0.927-0.31-0.97-1.754-0.328-3.673c0.017-0.049,0.036-0.092,0.053-0.14
						c-0.574-0.082-1.131-0.199-1.648-0.383c-5.036-1.795-6.134-6.153-4.902-9.616l12.819-5.984
						C144.343,212.67,155.05,220.269,154.48,224.622z"/>
					<g>
						
							<path style="fill:none;stroke:#000000;stroke-width:0.5;stroke-linecap:round;stroke-linejoin:round;stroke-miterlimit:10;" d="
							M152.181,227.699c0,0,0.072-2.517-0.105-2.992"/>
						
							<path style="fill:none;stroke:#000000;stroke-width:0.5;stroke-linecap:round;stroke-linejoin:round;stroke-miterlimit:10;" d="
							M148.292,232.307c0,0,0.837-3.68,0.362-5.018"/>
						
							<path style="fill:none;stroke:#000000;stroke-width:0.5;stroke-linecap:round;stroke-linejoin:round;stroke-miterlimit:10;" d="
							M144.809,233.434c0,0,1.3-4.486,0.831-5.647"/>
						
							<path style="fill:none;stroke:#000000;stroke-width:0.5;stroke-linecap:round;stroke-linejoin:round;stroke-miterlimit:10;" d="
							M140.717,231.498c0,0,0.706-2.956,0.342-4.191"/>
					</g>
				</g>
			</g>
			<g>
				<g>
					<path style="fill:#FFFEF0;" d="M222.552,142.084c0,0,13.584,7.312,16.061,13.778c2.71,7.073,4.345,15.255,4.713,26.703
						c0,0-24.085,7.721-43.452,3.41l6.76-37.094L222.552,142.084z"/>
					<path style="fill:#FFFEF0;" d="M168.104,129.339c25.806-2.714,36.185,4.558,54.449,12.744
						c13.261,31.494,10.42,38.905-1.041,41.707l2.846,32.348c-14.53,7.164-60.077,8.027-71.875-7.623L168.104,129.339z"/>
					<path style="fill:#FFFEF0;" d="M168.103,129.339l-0.331,39.237l-17.97,3.443c-5.797-12.566-9.886-26.616-9.613-40.296
						C154.473,128.721,168.103,129.339,168.103,129.339z"/>
				</g>
				<g>
					
						<path style="fill:none;stroke:#000000;stroke-width:0.5;stroke-linecap:round;stroke-linejoin:round;stroke-miterlimit:10;" d="
						M223.424,153.9c8.435,18.022,8.141,27.432-1.913,29.89l0.291,4.175"/>
					
						<path style="fill:none;stroke:#000000;stroke-width:0.5;stroke-linecap:round;stroke-linejoin:round;stroke-miterlimit:10;" d="
						M174.875,160.745c0,0-0.882,18.372,18.104,17.364"/>
					
						<line style="fill:none;stroke:#000000;stroke-width:0.5;stroke-linecap:round;stroke-linejoin:round;stroke-miterlimit:10;" x1="159.967" y1="170.072" x2="168.982" y2="168.534"/>
					
						<path style="fill:none;stroke:#000000;stroke-width:0.5;stroke-linecap:round;stroke-linejoin:round;stroke-miterlimit:10;" d="
						M223.886,210.778c-24.559,7.277-48.189,6.241-70.44-7.148"/>
					
						<path style="fill:none;stroke:#000000;stroke-width:0.5;stroke-linecap:round;stroke-linejoin:round;stroke-miterlimit:10;" d="
						M218.547,140.252c0,0,3.338,13.774-9.989,14.457c-13.327,0.683-24.533-18.63-26.443-25.863"/>
				</g>
			</g>
			<g>
				<g>
					<path d="M206.979,98.987c4.259-5.792-1.71-8.906-1.71-8.906c0.811,1.047,0.928,2.583,0.759,4.091
						c-0.655-1.163-1.611-2.177-2.847-2.9c-3.716-2.173-8.49-0.922-10.663,2.794s-0.922,8.49,2.794,10.663
						c3.716,2.173,8.49,0.922,10.663-2.794C206.522,101.001,206.851,99.998,206.979,98.987z"/>
				</g>
				<path style="fill:#FF9676;" d="M211.137,136.089l-0.14-3.859c0,0,6.017,2.679,8.186,0.282c4.144-4.595,0.25-25.317,0.25-25.317
					l-12.331-3.297l-4.457,11.351l-10.921,15.25C201.186,141.278,208.121,144.527,211.137,136.089z"/>
				<path style="fill:none;stroke:#000000;stroke-width:0.5;stroke-linecap:round;stroke-linejoin:round;stroke-miterlimit:10;" d="
					M211.001,132.23c0,0-4.018-2.542-5.235-5.201"/>
				<g>
					<path d="M213.063,105.492c0,0,7.655-5.437,10.986,0.04c2.191,3.603-0.012,8.11-3.616,8.343c0,0-0.156-2.165-0.37-2.783
						c-0.488,1.471-3.05,1.426-3.05,1.426c0.34-0.493,0.654-1.09,0.615-1.538c-0.416,0.892-1.115,1.086-2.081,1.071
						C217.297,108.713,215.632,106.514,213.063,105.492z"/>
					<path d="M212.657,104.629l-7.116-2.437l-3.507,11.782c1.966,0.301,3.862-0.767,5.495-2.277
						c-0.869,3.007-1.614,4.547-1.614,4.547C210.587,114.721,212.657,104.629,212.657,104.629z"/>
				</g>
				<g>
					<path style="fill:#FF9676;" d="M199.223,113.23c-0.329,1.413,0.549,2.826,1.962,3.155c1.413,0.329,2.826-0.549,3.155-1.962
						c0.329-1.413-0.549-2.826-1.962-3.155C200.965,110.939,199.552,111.817,199.223,113.23z"/>
					
						<path style="fill:none;stroke:#000000;stroke-width:0.5;stroke-linecap:round;stroke-linejoin:round;stroke-miterlimit:10;" d="
						M203.32,115.05c0,0,0.113-2.534-2.248-2.709"/>
				</g>
				<g>
					<g>
						
							<path style="fill:none;stroke:#000000;stroke-width:0.5;stroke-linecap:round;stroke-linejoin:round;stroke-miterlimit:10;" d="
							M216.746,116.221c0.505,1.028,1.117,2.003,1.823,2.904c-0.55,0.17-1.099,0.34-1.649,0.509"/>
					</g>
					<g>
						
							<path style="fill:none;stroke:#000000;stroke-width:0.5;stroke-linecap:round;stroke-linejoin:round;stroke-miterlimit:10;" d="
							M220.594,115.452c0,0-1.297-0.943-2.275-0.123"/>
						
							<path style="fill:none;stroke:#000000;stroke-width:0.5;stroke-linecap:round;stroke-linejoin:round;stroke-miterlimit:10;" d="
							M215.162,114.711c0,0-1.665-2.294-4.003-1.48"/>
					</g>
					<path style="fill:#FFFEF0;" d="M215.779,120.674c-0.32-0.137-0.689-0.314-0.993-0.145c-0.291,0.161-0.349,0.559-0.297,0.887
						c0.099,0.625,0.491,1.205,1.051,1.5c0.56,0.295,1.276,0.287,1.813-0.048c0.462-0.289,1.031-1.065,0.536-1.566
						c-0.209-0.212-0.513-0.272-0.796-0.306C216.637,120.941,216.203,120.855,215.779,120.674z"/>
				</g>
			</g>
			<path style="fill:#FF9676;" d="M216.489,139.291c-0.127,4.923-1.686,12.872-10.626,11.41c-9.639-1.577-17.578-15.09-20.91-21.664
				C197.338,130.126,205.875,134.314,216.489,139.291z"/>
		</g>
		<g>
			<g>
				<path d="M36.935,453.722h322.307c2.038,0,3.69-1.652,3.69-3.69v-9.22c0-2.038-1.652-3.69-3.69-3.69H43.257
					c-1.217,0-2.355,0.6-3.043,1.603l-6.322,9.22C32.212,450.394,33.966,453.722,36.935,453.722z"/>
				<path style="fill:#3B3486;" d="M265.224,453.722H398.99c1.317,0,2.526-0.728,3.144-1.891l5.03-9.483
					c1.257-2.37-0.461-5.226-3.144-5.226H268.822c-1.478,0-2.803,0.914-3.327,2.296l-3.598,9.483
					C261.013,451.23,262.733,453.722,265.224,453.722z"/>
				
					<line style="fill:none;stroke:#000000;stroke-width:0.5;stroke-linecap:round;stroke-linejoin:round;stroke-miterlimit:10;" x1="402.133" y1="449.539" x2="33.238" y2="449.539"/>
			</g>
			<g>
				<g>
					<path style="fill:#7743DB;" d="M283.195,262.357h86.053c2.507,0,4.842-1.275,6.197-3.384l32.554-50.666
						c3.15-4.902-0.37-11.348-6.197-11.348h-86.053c-2.507,0-4.842,1.275-6.198,3.384l-32.554,50.666
						C273.847,255.911,277.367,262.357,283.195,262.357z"/>
					<g>
						<path style="fill:#3B3486;" d="M292.134,262.357h86.053c2.507,0,4.842-1.275,6.197-3.384l32.554-50.666
							c3.15-4.902-0.37-11.348-6.197-11.348h-86.053c-2.507,0-4.842,1.275-6.197,3.384l-32.554,50.666
							C282.787,255.911,286.307,262.357,292.134,262.357z"/>
						
							<line style="fill:none;stroke:#000000;stroke-width:0.5;stroke-linecap:round;stroke-linejoin:round;stroke-miterlimit:10;" x1="417.971" y1="202.898" x2="316.849" y2="202.898"/>
						
							<path style="fill:none;stroke:#000000;stroke-width:0.5;stroke-linecap:round;stroke-linejoin:round;stroke-miterlimit:10;" d="
							M327.258,249.428h37.527c1.093,0,2.112-0.556,2.703-1.476l14.197-22.095c1.374-2.138-0.161-4.949-2.703-4.949h-37.527
							c-1.093,0-2.112,0.556-2.703,1.476l-14.197,22.095C323.182,246.617,324.717,249.428,327.258,249.428z"/>
					</g>
				</g>
				<g>
					<polygon style="fill:#3B3486;" points="354.204,445.422 373.916,445.422 359.242,239.286 339.529,239.286 					"/>
					
						<line style="fill:none;stroke:#000000;stroke-width:0.5;stroke-linecap:round;stroke-linejoin:round;stroke-miterlimit:10;" x1="359.964" y1="249.428" x2="360.884" y2="262.357"/>
					
						<line style="fill:none;stroke:#000000;stroke-width:0.5;stroke-linecap:round;stroke-linejoin:round;stroke-miterlimit:10;" x1="340.251" y1="249.428" x2="341.171" y2="262.357"/>
					
						<line style="fill:none;stroke:#000000;stroke-width:0.5;stroke-linecap:round;stroke-linejoin:round;stroke-miterlimit:10;" x1="373.362" y1="437.643" x2="353.65" y2="437.643"/>
				</g>
			</g>
		</g>
	</g>
	<g>
		<g>
			<g>
				<path style="fill:none;stroke:#000000;stroke-width:0.5;stroke-linecap:round;stroke-linejoin:round;stroke-miterlimit:10;" d="
					M287.788,315.427l6.578,136.912c0.15,3.124,4.766,3.124,4.916,0l6.578-136.912H287.788z"/>
				<path style="fill:none;stroke:#000000;stroke-width:0.5;stroke-linecap:round;stroke-linejoin:round;stroke-miterlimit:10;" d="
					M445.549,315.427l6.579,136.912c0.15,3.124,4.766,3.124,4.916,0l6.578-136.912H445.549z"/>
			</g>
			<g>
				<path style="fill:#FFD371;" d="M468.728,325.139H282.683c-2.008,0-3.635-1.627-3.635-3.635v-9.999
					c0-2.007,1.627-3.635,3.635-3.635h186.045c2.007,0,3.635,1.627,3.635,3.635v9.999
					C472.362,323.512,470.735,325.139,468.728,325.139z"/>
				
					<line style="fill:none;stroke:#000000;stroke-width:0.5;stroke-linecap:round;stroke-linejoin:round;stroke-miterlimit:10;" x1="279.048" y1="315.427" x2="472.362" y2="315.427"/>
			</g>
			<g>
				<g>
					
						<path style="fill:none;stroke:#000000;stroke-width:0.5;stroke-linecap:round;stroke-linejoin:round;stroke-miterlimit:10;" d="
						M305.884,274.8c0,0-1.855,30.303,3.479,29.762c5.334-0.541,3.401-29.762,3.401-29.762H305.884z"/>
					<path style="fill:#7743DB;" d="M306.977,279.509c0,0-1.268,22.95,2.378,22.58c3.647-0.37,2.325-22.58,2.325-22.58H306.977z"/>
				</g>
				<g>
					
						<path style="fill:none;stroke:#000000;stroke-width:0.5;stroke-linecap:round;stroke-linejoin:round;stroke-miterlimit:10;" d="
						M316.668,274.8c0,0-1.855,30.303,3.479,29.762c5.334-0.541,3.401-29.762,3.401-29.762H316.668z"/>
					<path style="fill:#7743DB;" d="M317.761,279.509c0,0-1.268,22.95,2.378,22.58c3.647-0.37,2.325-22.58,2.325-22.58H317.761z"/>
				</g>
				<g>
					
						<path style="fill:none;stroke:#000000;stroke-width:0.5;stroke-linecap:round;stroke-linejoin:round;stroke-miterlimit:10;" d="
						M327.452,274.8c0,0-1.855,30.303,3.479,29.762c5.334-0.541,3.401-29.762,3.401-29.762H327.452z"/>
					<path style="fill:#7743DB;" d="M328.545,279.509c0,0-1.268,22.95,2.378,22.58c3.647-0.37,2.325-22.58,2.325-22.58H328.545z"/>
				</g>
				<g>
					<path style="fill:#FFFEF0;" d="M349.52,274.8h-1.387c-1.09,0-1.973,0.884-1.973,1.973v5.448h-52.073v-5.448
						c0-1.09-0.883-1.973-1.973-1.973h-1.387c-1.09,0-1.973,0.884-1.973,1.973v28.289c0,1.09,0.883,1.973,1.973,1.973h1.387
						c1.09,0,1.973-0.883,1.973-1.973v-20.058h52.073v20.058c0,1.09,0.883,1.973,1.973,1.973h1.387c1.09,0,1.973-0.883,1.973-1.973
						v-28.289C351.493,275.684,350.61,274.8,349.52,274.8z"/>
					<path style="fill:#FFFEF0;" d="M353.972,303.094h-67.699c-0.635,0-1.15,0.515-1.15,1.15v2.477c0,0.635,0.515,1.15,1.15,1.15
						h67.699c0.635,0,1.15-0.515,1.15-1.15v-2.477C355.122,303.608,354.607,303.094,353.972,303.094z"/>
				</g>
			</g>
			<g>
				<g>
					
						<path style="fill:none;stroke:#000000;stroke-width:0.5;stroke-linecap:round;stroke-linejoin:round;stroke-miterlimit:10;" d="
						M408.55,274.8c0,0-1.855,30.303,3.479,29.762c5.334-0.541,3.401-29.762,3.401-29.762H408.55z"/>
					<path style="fill:#7743DB;" d="M409.643,279.509c0,0-1.268,22.95,2.378,22.58c3.647-0.37,2.325-22.58,2.325-22.58H409.643z"/>
				</g>
				<g>
					
						<path style="fill:none;stroke:#000000;stroke-width:0.5;stroke-linecap:round;stroke-linejoin:round;stroke-miterlimit:10;" d="
						M419.334,274.8c0,0-1.855,30.303,3.479,29.762c5.334-0.541,3.401-29.762,3.401-29.762H419.334z"/>
					<path style="fill:#7743DB;" d="M420.427,279.509c0,0-1.268,22.95,2.378,22.58c3.647-0.37,2.325-22.58,2.325-22.58H420.427z"/>
				</g>
				<g>
					
						<path style="fill:none;stroke:#000000;stroke-width:0.5;stroke-linecap:round;stroke-linejoin:round;stroke-miterlimit:10;" d="
						M430.118,274.8c0,0-1.855,30.303,3.479,29.762c5.334-0.541,3.401-29.762,3.401-29.762H430.118z"/>
					<path style="fill:#7743DB;" d="M431.211,279.509c0,0-1.268,22.95,2.378,22.58c3.647-0.37,2.326-22.58,2.326-22.58H431.211z"/>
				</g>
				<g>
					<path style="fill:#FFFEF0;" d="M452.186,274.8h-1.387c-1.09,0-1.973,0.884-1.973,1.973v5.448h-52.073v-5.448
						c0-1.09-0.883-1.973-1.973-1.973h-1.387c-1.09,0-1.973,0.884-1.973,1.973v28.289c0,1.09,0.883,1.973,1.973,1.973h1.387
						c1.09,0,1.973-0.883,1.973-1.973v-20.058h52.073v20.058c0,1.09,0.883,1.973,1.973,1.973h1.387c1.09,0,1.973-0.883,1.973-1.973
						v-28.289C454.159,275.684,453.276,274.8,452.186,274.8z"/>
					<path style="fill:#FFFEF0;" d="M456.638,303.094h-67.699c-0.635,0-1.15,0.515-1.15,1.15v2.477c0,0.635,0.515,1.15,1.15,1.15
						h67.699c0.635,0,1.15-0.515,1.15-1.15v-2.477C457.788,303.608,457.273,303.094,456.638,303.094z"/>
				</g>
			</g>
		</g>
	</g>
</g>
</svg>
