<?xml version="1.0" encoding="utf-8"?>
<!-- Generator: Adobe Illustrator 27.5.0, SVG Export Plug-In . SVG Version: 6.00 Build 0)  -->
<svg version="1.1" xmlns="http://www.w3.org/2000/svg" xmlns:xlink="http://www.w3.org/1999/xlink" x="0px" y="0px"
	 viewBox="0 0 500 500" style="enable-background:new 0 0 500 500;" xml:space="preserve">
<g id="Background_Complete">
	<g>
		<rect x="416.779" y="398.494" style="fill:#EBEBEB;" width="33.122" height="0.25"/>
		<rect x="322.527" y="401.208" style="fill:#EBEBEB;" width="8.693" height="0.25"/>
		<rect x="396.586" y="389.208" style="fill:#EBEBEB;" width="19.192" height="0.25"/>
		<rect x="52.459" y="390.888" style="fill:#EBEBEB;" width="43.193" height="0.25"/>
		<rect x="104.556" y="390.888" style="fill:#EBEBEB;" width="6.333" height="0.25"/>
		<rect x="131.471" y="395.111" style="fill:#EBEBEB;" width="93.676" height="0.25"/>
		<path style="fill:#EBEBEB;" d="M237.014,337.8H43.915c-3.147,0-5.708-2.561-5.708-5.708V60.66c0-3.147,2.561-5.708,5.708-5.708
			h193.099c3.146,0,5.707,2.561,5.707,5.708v271.432C242.721,335.239,240.16,337.8,237.014,337.8z M43.915,55.203
			c-3.01,0-5.458,2.448-5.458,5.458v271.432c0,3.01,2.448,5.458,5.458,5.458h193.099c3.009,0,5.457-2.448,5.457-5.458V60.66
			c0-3.009-2.448-5.458-5.457-5.458H43.915z"/>
		<path style="fill:#EBEBEB;" d="M453.31,337.8H260.212c-3.147,0-5.707-2.561-5.707-5.708V60.66c0-3.147,2.561-5.708,5.707-5.708
			H453.31c3.148,0,5.708,2.561,5.708,5.708v271.432C459.019,335.239,456.458,337.8,453.31,337.8z M260.212,55.203
			c-3.009,0-5.457,2.448-5.457,5.458v271.432c0,3.01,2.448,5.458,5.457,5.458H453.31c3.01,0,5.458-2.448,5.458-5.458V60.66
			c0-3.009-2.448-5.458-5.458-5.458H260.212z"/>
		<rect y="382.398" style="fill:#EBEBEB;" width="500" height="0.25"/>
	</g>
	<path style="fill:#F5F5F5;" d="M353.258,129.98c-23.087-0.927-88.333-1.71-87.912-28.517c0.422-26.806,30.229-1.535,30.229-1.535
		s11.744-32.03,28.89-27.902c17.146,4.128,21.213,31.554,21.213,31.554s8.276-30.106,28.497-18.078
		c15.094,8.978,9.623,31.523,9.623,31.523s21.887-7.825,23.392,4.256C408.695,133.362,366.904,130.528,353.258,129.98z"/>
	<path style="fill:#F5F5F5;" d="M92.643,194.445c-10.032-0.403-38.386-0.743-38.203-12.392c0.183-11.649,13.136-0.667,13.136-0.667
		s5.104-13.919,12.554-12.125s9.218,13.712,9.218,13.712s3.597-13.083,12.384-7.856c6.559,3.901,4.182,13.699,4.182,13.699
		s9.511-3.4,10.165,1.849C116.733,195.914,98.573,194.683,92.643,194.445z"/>
	<path style="fill:#F5F5F5;" d="M435.904,170.932c-19.923,9.96-86.677,6.485-83.552-13.17c3.125-19.655,18.095,0,18.095,0
		s1.32-20.368,15.273-21.081c13.953-0.713,16.367,18.616,16.367,18.616s3.22-15.914,11.808-11.918s7.787,16.852,7.787,16.852
		s6.867-4.911,11.319-2.468C437.452,160.205,438.92,169.424,435.904,170.932z"/>
	<g>
		<path style="fill:#F0F0F0;" d="M433.857,368.516c4.918-8.349,4.583-17.942-1.303-22.796c-2.417-1.993-5.452-2.875-8.68-2.827
			c0.349-8.113-2.299-15.492-8.041-20.227c-7.965-6.568-19.79-6.326-30.522-0.486c-12.356-17.792-32.63-25.473-47.067-17.138
			c-4.961,2.865-8.614,7.283-10.919,12.63c-20.712-7.362-41.976-1.564-48.733,13.875c-1.777,4.059-2.376,8.403-1.953,12.787
			c-6.066-1.291-11.885,0.079-15.322,4.247c-4.275,5.184-3.594,13.147,1.004,19.935H433.857z"/>
		<g>
			<g>
				<path style="fill:#E0E0E0;" d="M372.922,332.283c0,0-4.094,9.336,8.802,10.974C381.724,343.257,386.842,334.82,372.922,332.283z
					"/>
				<path style="fill:#FAFAFA;" d="M372.922,332.283c0,0,7.369,3.809,8.802,10.974C381.724,343.257,386.842,334.82,372.922,332.283z
					"/>
			</g>
			<g>
				<path style="fill:#E0E0E0;" d="M391.591,340.726c0,0-3.73,8.506,8.02,9.998C399.611,350.725,404.274,343.038,391.591,340.726z"
					/>
				<path style="fill:#FAFAFA;" d="M391.591,340.726c0,0,6.715,3.47,8.02,9.998C399.611,350.725,404.274,343.038,391.591,340.726z"
					/>
			</g>
			<g>
				<path style="fill:#E0E0E0;" d="M392.076,331.183c0,0-6.481,2.53-1.048,9.543C391.028,340.726,397.569,339.125,392.076,331.183z"
					/>
				<path style="fill:#FAFAFA;" d="M392.076,331.183c0,0,1.718,5.394-1.048,9.543C391.028,340.726,397.569,339.125,392.076,331.183z
					"/>
			</g>
			<g>
				<path style="fill:#E0E0E0;" d="M403.215,334.664c0,0-6.371-2.794-7.489,6.007C395.726,340.671,401.483,344.163,403.215,334.664z
					"/>
				<path style="fill:#FAFAFA;" d="M403.215,334.664c0,0-2.599,5.029-7.489,6.007C395.726,340.671,401.483,344.163,403.215,334.664z
					"/>
			</g>
		</g>
		<g>
			<g>
				<path style="fill:#E0E0E0;" d="M301.243,343.414c0,0,4.094,9.336-8.802,10.974C292.441,354.388,287.323,345.951,301.243,343.414
					z"/>
				<path style="fill:#FAFAFA;" d="M301.243,343.414c0,0-7.37,3.809-8.802,10.974C292.441,354.388,287.323,345.951,301.243,343.414z
					"/>
			</g>
			<g>
				<path style="fill:#E0E0E0;" d="M319.311,338.862c0,0-9.336-4.094-10.974,8.802C308.337,347.664,316.774,352.782,319.311,338.862
					z"/>
				<path style="fill:#FAFAFA;" d="M319.311,338.862c0,0-3.809,7.37-10.974,8.802C308.337,347.664,316.774,352.782,319.311,338.862z
					"/>
			</g>
			<g>
				<path style="fill:#E0E0E0;" d="M312.051,333.085c0,0-2.867,8.835-12.638,2.139C299.413,335.224,301.039,326.381,312.051,333.085
					z"/>
				<path style="fill:#FAFAFA;" d="M312.051,333.085c0,0-7.323-1.871-12.638,2.139C299.413,335.224,301.039,326.381,312.051,333.085
					z"/>
			</g>
			<g>
				<path style="fill:#E0E0E0;" d="M322.266,336.78c0,0,6.371-2.794,7.489,6.007C329.755,342.787,323.998,346.279,322.266,336.78z"
					/>
				<path style="fill:#FAFAFA;" d="M322.266,336.78c0,0,2.599,5.029,7.489,6.007C329.755,342.787,323.998,346.279,322.266,336.78z"
					/>
			</g>
			<g>
				<path style="fill:#E0E0E0;" d="M312.846,325.975c0,0,6.371-2.794,7.489,6.007C320.336,331.982,314.578,335.475,312.846,325.975z
					"/>
				<path style="fill:#FAFAFA;" d="M312.846,325.975c0,0,2.599,5.029,7.489,6.007C320.336,331.982,314.578,335.475,312.846,325.975z
					"/>
			</g>
		</g>
		<g>
			<g>
				<path style="fill:#E0E0E0;" d="M344.705,306.415c0,0-4.094,9.336,8.802,10.974C353.508,317.388,358.625,308.952,344.705,306.415
					z"/>
				<path style="fill:#FAFAFA;" d="M344.705,306.414c0,0,7.369,3.809,8.802,10.974C353.508,317.388,358.625,308.952,344.705,306.414
					z"/>
			</g>
			<g>
				<path style="fill:#E0E0E0;" d="M354.989,319.644c0,0-3.73,8.506,8.02,9.998C363.009,329.642,367.672,321.956,354.989,319.644z"
					/>
				<path style="fill:#FAFAFA;" d="M354.989,319.644c0,0,6.715,3.47,8.02,9.998C363.009,329.642,367.672,321.956,354.989,319.644z"
					/>
			</g>
			<g>
				<path style="fill:#E0E0E0;" d="M356.226,316.901c0,0,5.561,7.439,12.653-2.048C368.879,314.853,364.49,307.006,356.226,316.901z
					"/>
				<path style="fill:#FAFAFA;" d="M356.226,316.901c0,0,6.33-4.13,12.653-2.048C368.879,314.853,364.49,307.006,356.226,316.901z"
					/>
			</g>
			<g>
				<path style="fill:#E0E0E0;" d="M351.577,318.505c0,0-6.371-2.794-7.489,6.007C344.088,324.512,349.845,328.004,351.577,318.505z
					"/>
				<path style="fill:#FAFAFA;" d="M351.577,318.505c0,0-2.599,5.029-7.489,6.007C344.088,324.512,349.845,328.004,351.577,318.505z
					"/>
			</g>
		</g>
	</g>
	<g>
		<path style="fill:#F0F0F0;" d="M200.981,365.319c6.112-11.459,4.45-24.854-4.57-31.594c-1.304-0.974-2.7-1.756-4.159-2.363
			c0.378-5.333-1.222-10.13-4.965-12.926c-2.294-1.714-5.085-2.452-8.053-2.349c3.019-15.324-2.41-29.554-13.491-33.33
			c-12.519-4.266-27.49,6.427-33.438,23.883c-0.004,0.013-0.007,0.025-0.012,0.038c-2.486-1.005-5.093-1.29-7.633-0.662
			c-2.61,0.645-4.84,2.167-6.594,4.304c-8.952-6.716-19.617-8.091-26.334-2.571c-5.927,4.871-7.181,13.799-4.064,22.76
			c-3.009,0.666-5.834,1.988-8.285,4.002c-8.45,6.944-9.674,19.842-3.658,30.809H200.981z"/>
		<g>
			<path style="fill:#E0E0E0;" d="M93.415,332.31c0,0,3.431,7.824-7.377,9.197C86.038,341.507,81.749,334.436,93.415,332.31z"/>
			<path style="fill:#FAFAFA;" d="M93.415,332.31c0,0-6.176,3.192-7.377,9.197C86.038,341.507,81.749,334.436,93.415,332.31z"/>
		</g>
		<g>
			<g>
				<path style="fill:#E0E0E0;" d="M147.523,291.732c0,0-3.431,7.824,7.377,9.197C154.9,300.928,159.188,293.858,147.523,291.732z"
					/>
				<path style="fill:#FAFAFA;" d="M147.523,291.732c0,0,6.176,3.192,7.377,9.197C154.9,300.928,159.188,293.858,147.523,291.732z"
					/>
			</g>
			<g>
				<path style="fill:#E0E0E0;" d="M163.168,298.808c0,0-3.126,7.129,6.721,8.379C169.89,307.187,173.797,300.745,163.168,298.808z"
					/>
				<path style="fill:#FAFAFA;" d="M163.168,298.808c0,0,5.627,2.909,6.721,8.379C169.89,307.187,173.797,300.745,163.168,298.808z"
					/>
			</g>
			<g>
				<path style="fill:#E0E0E0;" d="M163.575,290.81c0,0-5.431,2.12-0.878,7.998C162.697,298.808,168.178,297.466,163.575,290.81z"/>
				<path style="fill:#FAFAFA;" d="M163.575,290.81c0,0,1.44,4.521-0.878,7.998C162.697,298.808,168.178,297.466,163.575,290.81z"/>
			</g>
			<g>
				<path style="fill:#E0E0E0;" d="M172.91,293.727c0,0-5.339-2.342-6.276,5.034C166.634,298.761,171.459,301.688,172.91,293.727z"
					/>
				<path style="fill:#FAFAFA;" d="M172.91,293.727c0,0-2.178,4.215-6.276,5.034C166.634,298.761,171.459,301.688,172.91,293.727z"
					/>
			</g>
		</g>
		<g>
			<g>
				<path style="fill:#E0E0E0;" d="M183.454,336.909c0,0-3.431,7.824,7.377,9.197C190.831,346.105,195.12,339.035,183.454,336.909z"
					/>
				<path style="fill:#FAFAFA;" d="M183.454,336.909c0,0,6.176,3.192,7.377,9.197C190.831,346.105,195.12,339.035,183.454,336.909z"
					/>
			</g>
			<g>
				<path style="fill:#E0E0E0;" d="M168.312,333.094c0,0,7.824-3.431,9.197,7.377C177.508,340.471,170.438,344.76,168.312,333.094z"
					/>
				<path style="fill:#FAFAFA;" d="M168.312,333.094c0,0,3.192,6.176,9.197,7.377C177.508,340.471,170.438,344.76,168.312,333.094z"
					/>
			</g>
			<g>
				<path style="fill:#E0E0E0;" d="M174.396,328.252c0,0,2.403,7.404,10.591,1.792C184.987,330.045,183.624,322.634,174.396,328.252
					z"/>
				<path style="fill:#FAFAFA;" d="M174.396,328.252c0,0,6.137-1.568,10.591,1.792C184.987,330.045,183.625,322.634,174.396,328.252
					z"/>
			</g>
			<g>
				<path style="fill:#E0E0E0;" d="M165.835,331.349c0,0-5.34-2.342-6.276,5.034C159.559,336.383,164.384,339.31,165.835,331.349z"
					/>
				<path style="fill:#FAFAFA;" d="M165.835,331.349c0,0-2.178,4.215-6.276,5.034C159.559,336.383,164.384,339.31,165.835,331.349z"
					/>
			</g>
			<g>
				<path style="fill:#E0E0E0;" d="M173.729,322.294c0,0-5.34-2.342-6.276,5.034C167.453,327.328,172.278,330.255,173.729,322.294z"
					/>
				<path style="fill:#FAFAFA;" d="M173.729,322.294c0,0-2.178,4.215-6.276,5.034C167.453,327.328,172.278,330.255,173.729,322.294z
					"/>
			</g>
		</g>
		<g>
			<g>
				<path style="fill:#E0E0E0;" d="M95.898,321.216c0,0-3.431,7.824,7.377,9.197C103.275,330.413,107.564,323.343,95.898,321.216z"
					/>
				<path style="fill:#FAFAFA;" d="M95.898,321.216c0,0,6.176,3.192,7.377,9.197C103.275,330.413,107.564,323.343,95.898,321.216z"
					/>
			</g>
			<g>
				<path style="fill:#E0E0E0;" d="M104.517,332.303c0,0-3.126,7.129,6.721,8.379C111.238,340.683,115.146,334.241,104.517,332.303z
					"/>
				<path style="fill:#FAFAFA;" d="M104.517,332.303c0,0,5.627,2.909,6.721,8.379C111.238,340.683,115.146,334.241,104.517,332.303z
					"/>
			</g>
			<g>
				<path style="fill:#E0E0E0;" d="M105.553,330.004c0,0,4.66,6.235,10.604-1.716C116.158,328.288,112.48,321.712,105.553,330.004z"
					/>
				<path style="fill:#FAFAFA;" d="M105.553,330.004c0,0,5.305-3.462,10.604-1.716C116.157,328.288,112.48,321.712,105.553,330.004z
					"/>
			</g>
			<g>
				<path style="fill:#E0E0E0;" d="M101.657,331.349c0,0-5.34-2.342-6.276,5.034C95.381,336.383,100.206,339.31,101.657,331.349z"/>
				<path style="fill:#FAFAFA;" d="M101.657,331.349c0,0-2.179,4.215-6.276,5.034C95.381,336.383,100.206,339.31,101.657,331.349z"
					/>
			</g>
		</g>
	</g>
	<g>
		<path style="fill:#F5F5F5;" d="M352.629,382.232h42.597l0.708-8.263c0.601-7.017-5.175-12.929-12.204-12.49l-21.341,1.331
			c-6.742,0.42-11.68,6.522-10.685,13.203L352.629,382.232z"/>
		<path style="fill:#E6E6E6;" d="M103.815,382.232H51.169l-1.157-9.858c-0.609-5.187,3.329-9.793,8.548-9.997l37.786-1.48
			c5.643-0.221,10.08,4.769,9.201,10.347L103.815,382.232z"/>
		<path style="fill:#E6E6E6;" d="M192.747,382.232h-56.075l-0.885-7.986c-0.743-6.699,4.57-12.525,11.308-12.403l36.387,0.661
			c7.118,0.129,12.302,6.794,10.675,13.725L192.747,382.232z"/>
		<path style="fill:#F5F5F5;" d="M141.962,382.232H99.365l-0.894-8.22c-0.508-4.673,3.188-8.736,7.888-8.67l29.244,0.408
			c4.8,0.067,8.408,4.4,7.605,9.133L141.962,382.232z"/>
		<path style="fill:#F5F5F5;" d="M225.383,382.232h-42.597l-0.708-8.263c-0.601-7.017,5.175-12.929,12.204-12.49l21.341,1.331
			c6.742,0.42,11.68,6.522,10.685,13.203L225.383,382.232z"/>
		<path style="fill:#E6E6E6;" d="M438.564,382.232h-52.646l-1.157-9.858c-0.609-5.187,3.329-9.793,8.548-9.997l37.786-1.48
			c5.642-0.221,10.08,4.769,9.201,10.347L438.564,382.232z"/>
		<path style="fill:#E6E6E6;" d="M310.276,382.232h52.646l1.157-9.858c0.609-5.187-3.329-9.793-8.548-9.997l-37.786-1.48
			c-5.643-0.221-10.08,4.769-9.201,10.347L310.276,382.232z"/>
		<path style="fill:#E6E6E6;" d="M221.343,382.232h56.075l0.885-7.986c0.743-6.699-4.57-12.525-11.308-12.403l-36.387,0.661
			c-7.118,0.129-12.302,6.794-10.675,13.725L221.343,382.232z"/>
		<path style="fill:#F5F5F5;" d="M272.128,382.232h42.597l0.894-8.22c0.508-4.673-3.188-8.736-7.888-8.67l-29.244,0.408
			c-4.8,0.067-8.408,4.4-7.605,9.133L272.128,382.232z"/>
	</g>
	<path style="fill:#F5F5F5;" d="M174.365,147.385c-19.923,9.96-86.677,6.485-83.552-13.17c3.125-19.655,18.095,0,18.095,0
		s1.32-20.368,15.273-21.08s16.367,18.616,16.367,18.616s3.22-15.914,11.808-11.919c8.588,3.995,7.787,16.852,7.787,16.852
		s6.867-4.911,11.319-2.468C175.913,136.658,177.381,145.877,174.365,147.385z"/>
</g>
<g id="Background_Simple" style="display:none;">
	<g style="display:inline;">
		<path style="fill:#407BFF;" d="M102.221,271.755c0.66,34.135-27.213,80.456,12.897,104.81
			c53.567,32.525,97.65-25.791,145.363-31.17c36.447-4.109,88.831,68.064,138.189,33.287
			c49.407-34.812-17.198-100.139-15.56-133.607c1.621-33.113,70.532-81.96,26.014-123.307
			c-43.654-40.544-107.197,17.258-154.473,23.319c-41.941,5.377-133.488-59.085-169.469-12.694
			C51.097,176.337,101.584,238.801,102.221,271.755z"/>
		<path style="opacity:0.9;fill:#FFFFFF;" d="M102.221,271.755c0.66,34.135-27.213,80.456,12.897,104.81
			c53.567,32.525,97.65-25.791,145.363-31.17c36.447-4.109,88.831,68.064,138.189,33.287
			c49.407-34.812-17.198-100.139-15.56-133.607c1.621-33.113,70.532-81.96,26.014-123.307
			c-43.654-40.544-107.197,17.258-154.473,23.319c-41.941,5.377-133.488-59.085-169.469-12.694
			C51.097,176.337,101.584,238.801,102.221,271.755z"/>
	</g>
</g>
<g id="Shadow">
	<ellipse id="_x3C_Path_x3E__1_" style="fill:#F5F5F5;" cx="245.178" cy="412.391" rx="193.889" ry="11.323"/>
</g>
<g id="Tomato">
	<g>
		<ellipse style="fill:#407BFF;" cx="105.197" cy="282.259" rx="18.146" ry="15.354"/>
		<path style="fill:#263238;" d="M103.801,267.926c0,0,2.792-10.643,5.409-9.596c2.617,1.047-2.617,3.664-2.704,9.596
			c0,0,5.845-5.234,9.683-2.094c0,0-5.583-0.174-7.852,3.49c0,0,5.06,3.141,9.596,2.443c0,0-2.792,2.82-11.167,0.101
			c0,0,2.094,7.75-2.966,6.529c0,0,2.966-2.617,0-5.583c0,0-10.643,5.583-11.341-1.047c0,0,4.629,2.315,9.422-1.57
			c0,0-3.315-5.758-7.677-5.409C94.205,264.785,98.567,261.121,103.801,267.926z"/>
		<path style="opacity:0.2;" d="M122.674,277.649c0.723,6.265-2.338,15.823-16.462,15.823c-13.366,0-17.124-3.753-17.51-4.182
			c2.862,5.457,9.163,8.323,16.495,8.323c10.022,0,18.146-5.332,18.146-15.354C123.343,280.587,123.098,279.058,122.674,277.649z"/>
		<path style="opacity:0.2;fill:#FFFFFF;" d="M97.313,289.285c0,0-9.294-3.739-6.804-9.771
			C92.998,273.483,92.917,285.254,97.313,289.285z"/>
	</g>
</g>
<g id="Heart_Rate">
	<g>
		<g>
			<path style="fill:#407BFF;" d="M105.512,181.092l-1.627-2.989l-5.417,12.306l-5.025-15.347l-2.076,6.03h-8.964
				c0.368,0.426,0.764,0.849,1.189,1.267l15.126,15.061l15.126-15.061c0.426-0.418,0.821-0.841,1.189-1.267H105.512z"/>
			<path style="fill:#407BFF;" d="M89.749,178.823l3.749-10.886l5.282,16.133l4.89-11.108l3.191,5.861h9.85
				c1.492-2.391,2.173-4.82,2.173-7.077c0-5.769-3.848-9.617-9.681-9.617c-5.444,0-7.3,2.52-10.484,6.165
				c-3.184-3.646-5.039-6.165-10.483-6.165c-5.833,0-9.682,3.848-9.682,9.617c0,2.257,0.681,4.686,2.173,7.077H89.749z"/>
		</g>
		<g style="opacity:0.3;">
			<path style="fill:#FFFFFF;" d="M105.512,181.092l-1.627-2.989l-5.417,12.306l-5.025-15.347l-2.076,6.03h-8.964
				c0.368,0.426,0.764,0.849,1.189,1.267l15.126,15.061l15.126-15.061c0.426-0.418,0.821-0.841,1.189-1.267H105.512z"/>
			<path style="fill:#FFFFFF;" d="M89.749,178.823l3.749-10.886l5.282,16.133l4.89-11.108l3.191,5.861h9.85
				c1.492-2.391,2.173-4.82,2.173-7.077c0-5.769-3.848-9.617-9.681-9.617c-5.444,0-7.3,2.52-10.484,6.165
				c-3.184-3.646-5.039-6.165-10.483-6.165c-5.833,0-9.682,3.848-9.682,9.617c0,2.257,0.681,4.686,2.173,7.077H89.749z"/>
		</g>
	</g>
</g>
<g id="Banana">
	<g>
		<g>
			<path style="fill:#407BFF;" d="M153.033,102.405l2.244,0.809c0,0,18.392,5.571,28.848-4.426
				c10.456-9.997,13.508-21.75,17.324-21.445c3.816,0.305,5.648,17.4-11.753,31.595c-17.4,14.195-33.045,6.334-36.937-3.053
				l-1.526-1.679L153.033,102.405z"/>
			<path style="opacity:0.6;fill:#FFFFFF;" d="M201.449,77.342c-3.816-0.305-6.868,11.448-17.324,21.445
				c-9.992,9.554-27.221,4.893-28.729,4.461l-2.637,2.637c3.892,9.387,19.537,17.248,36.937,3.053
				C207.097,94.743,205.265,77.648,201.449,77.342z"/>
		</g>
		<g>
			<path style="fill:#407BFF;" d="M189.713,106.512c0,0,6.776,2.96,3.647,6.547c-3.129,3.587-7.632,6.258-6.792,7.708
				c0.839,1.45,17.095-7.174,5.418-14.729L189.713,106.512z"/>
			<path style="opacity:0.3;fill:#FFFFFF;" d="M189.713,106.512c0,0,6.776,2.96,3.647,6.547c-3.129,3.587-7.632,6.258-6.792,7.708
				c0.839,1.45,17.095-7.174,5.418-14.729L189.713,106.512z"/>
		</g>
		<g>
			<path style="fill:#407BFF;" d="M182.217,95.659c-7.466-8.355-20.071-2.061-19.842-3.511c0.229-1.45,14.5-5.037,21.369,2.747
				c6.868,7.784-1.374,12.669-11.219,14.271c-9.845,1.603-18.392-4.655-18.392-4.655l1.145-1.297c0,0,16.016,4.851,26.652-2.624
				c1.335-0.938,1.735-2.75,0.86-4.128C182.576,96.126,182.374,95.834,182.217,95.659z"/>
			<path style="opacity:0.3;fill:#FFFFFF;" d="M182.217,95.659c-7.466-8.355-20.071-2.061-19.842-3.511
				c0.229-1.45,14.5-5.037,21.369,2.747c6.868,7.784-1.374,12.669-11.219,14.271c-9.845,1.603-18.392-4.655-18.392-4.655
				l1.145-1.297c0,0,16.016,4.851,26.652-2.624c1.335-0.938,1.735-2.75,0.86-4.128C182.576,96.126,182.374,95.834,182.217,95.659z"
				/>
		</g>
		<path style="fill:#407BFF;" d="M177.132,115.769c-11.923,3.338-21.453-2.844-24.372-9.884l1.374-1.374
			c0,0,8.548,6.258,18.392,4.655c5.313-0.865,10.153-2.687,12.41-5.403c2.108,0.161,6.057,1.062,7.051,5.479
			c1.132,5.033-10.565,10.288-15.471,10.076c-0.875-0.038-4.356-0.86,0.368-3.484L177.132,115.769z"/>
		<path style="opacity:0.3;fill:#FFFFFF;" d="M177.132,115.769l-0.439,0.175c-4.43,2.536-1.041,3.337-0.178,3.375
			c4.907,0.212,16.604-5.043,15.471-10.076c-0.994-4.417-4.943-5.318-7.051-5.479C191.088,105.131,177.132,115.769,177.132,115.769z
			"/>
	</g>
</g>
<g id="Dumbbell">
	<g>
		<path style="fill:#407BFF;" d="M345.63,113.225c7.783,0,14.092-6.309,14.092-14.092S353.413,85.04,345.63,85.04h-4.243
			c-7.783,0-14.092,6.309-14.092,14.092s6.309,14.092,14.092,14.092H345.63z"/>
		<path style="opacity:0.5;fill:#FFFFFF;" d="M345.63,113.225c7.783,0,14.092-6.309,14.092-14.092S353.413,85.04,345.63,85.04
			h-4.243c-7.783,0-14.092,6.309-14.092,14.092s6.309,14.092,14.092,14.092H345.63z"/>
		
			<ellipse transform="matrix(0.1602 -0.9871 0.9871 0.1602 188.851 420.2322)" style="fill:#407BFF;" cx="341.387" cy="99.132" rx="14.092" ry="14.092"/>
		<path style="fill:#263238;" d="M339.948,102.693c1.967,0,3.561-1.594,3.561-3.561c0-1.967-1.594-3.561-3.561-3.561h-18.169
			c-1.967,0-3.561,1.594-3.561,3.561c0,1.967,1.594,3.561,3.561,3.561H339.948z"/>
		<path style="fill:#407BFF;" d="M309.506,113.225c7.783,0,14.092-6.309,14.092-14.092s-6.309-14.092-14.092-14.092h-4.243
			c-7.783,0-14.092,6.309-14.092,14.092s6.309,14.092,14.092,14.092H309.506z"/>
		<path style="opacity:0.5;fill:#FFFFFF;" d="M309.506,113.225c7.783,0,14.092-6.309,14.092-14.092s-6.309-14.092-14.092-14.092
			h-4.243c-7.783,0-14.092,6.309-14.092,14.092s6.309,14.092,14.092,14.092H309.506z"/>
		
			<ellipse transform="matrix(0.7071 -0.7071 0.7071 0.7071 19.3124 244.8887)" style="fill:#407BFF;" cx="305.263" cy="99.132" rx="14.092" ry="14.092"/>
		<path style="opacity:0.3;fill:#FFFFFF;" d="M313.939,100.334c0.054-0.393,0.084-0.794,0.084-1.202c0-0.408-0.03-0.809-0.084-1.202
			l-1.496-0.441c-0.099-0.436-0.233-0.859-0.405-1.262l0.949-1.233c-0.382-0.713-0.86-1.365-1.416-1.943l-1.471,0.523
			c-0.331-0.289-0.688-0.548-1.067-0.775l0.043-1.565c-0.713-0.346-1.481-0.597-2.287-0.74l-0.881,1.286
			c-0.218-0.019-0.438-0.033-0.662-0.033c-0.223,0-0.443,0.014-0.662,0.033l-0.881-1.286c-0.805,0.143-1.573,0.394-2.287,0.74
			l0.043,1.565c-0.379,0.227-0.736,0.485-1.067,0.775l-1.471-0.523c-0.556,0.578-1.034,1.23-1.416,1.943l0.949,1.233
			c-0.173,0.403-0.306,0.826-0.405,1.262l-1.496,0.441c-0.054,0.393-0.084,0.794-0.084,1.202c0,0.408,0.03,0.809,0.084,1.202
			l1.496,0.441c0.099,0.436,0.232,0.859,0.405,1.262l-0.949,1.233c0.382,0.713,0.86,1.365,1.416,1.943l1.471-0.523
			c0.331,0.289,0.688,0.548,1.067,0.775l-0.043,1.565c0.714,0.347,1.481,0.597,2.287,0.74l0.881-1.285
			c0.218,0.019,0.438,0.033,0.662,0.033c0.223,0,0.443-0.014,0.662-0.033l0.881,1.285c0.805-0.143,1.573-0.394,2.287-0.74
			l-0.043-1.565c0.379-0.227,0.736-0.486,1.067-0.775l1.471,0.523c0.556-0.578,1.034-1.23,1.416-1.943l-0.949-1.233
			c0.173-0.403,0.306-0.826,0.405-1.262L313.939,100.334z"/>
		<path style="fill:#263238;" d="M304.874,102.693c1.967,0,3.561-1.594,3.561-3.561c0-1.967-1.594-3.561-3.561-3.561h-2.89
			c-1.967,0-3.561,1.594-3.561,3.561c0,1.967,1.594,3.561,3.561,3.561H304.874z"/>
		<path style="opacity:0.4;fill:#FFFFFF;" d="M305.545,99.132c0,1.967-1.594,3.561-3.561,3.561c-1.967,0-3.561-1.594-3.561-3.561
			c0-1.967,1.594-3.561,3.561-3.561C303.951,95.571,305.545,97.166,305.545,99.132z"/>
	</g>
</g>
<g id="Infused_Water">
	<g>
		<g>
			<path style="fill:#263238;" d="M401.727,164.846c5.104,1.373,13.687,1.748,14.814-5.055c1.855-11.199-16.591-5.776-22.101-6.206
				c-1.341-0.105-1.526,1.978-0.182,2.083c4.607,0.36,20.255-3.916,20.296,3.058c0.035,5.941-8.233,5.199-12.096,4.159
				C401.165,162.539,400.427,164.497,401.727,164.846L401.727,164.846z"/>
		</g>
		<path style="fill:#407BFF;" d="M404.04,164.885l0.249-2.85l-22.595-1.977l-0.249,2.85c-1.111,0.382-1.954,1.384-2.063,2.63
			l-4.025,46.006c-0.147,1.687,1.1,3.175,2.788,3.323l20.122,1.76c1.687,0.148,3.175-1.101,3.322-2.788l4.025-46.006
			C405.724,166.587,405.069,165.454,404.04,164.885z"/>
		<path style="opacity:0.2;fill:#FFFFFF;" d="M404.04,164.885l0.249-2.85l-22.595-1.977l-0.249,2.85
			c-1.111,0.382-1.954,1.384-2.063,2.63l-4.025,46.006c-0.147,1.687,1.1,3.175,2.788,3.323l20.122,1.76
			c1.687,0.148,3.175-1.101,3.322-2.788l4.025-46.006C405.724,166.587,405.069,165.454,404.04,164.885z"/>
		<g>
			<path style="fill:#407BFF;" d="M403.972,162.893l-22.113-1.935c-1.137-0.1-1.979-1.102-1.879-2.24l0.208-2.38
				c0.099-1.137,1.102-1.979,2.24-1.879l22.113,1.935c1.137,0.1,1.979,1.102,1.879,2.24l-0.208,2.38
				C406.112,162.151,405.109,162.992,403.972,162.893z"/>
			<path style="opacity:0.3;" d="M403.972,162.893l-22.113-1.935c-1.137-0.1-1.979-1.102-1.879-2.24l0.208-2.38
				c0.099-1.137,1.102-1.979,2.24-1.879l22.113,1.935c1.137,0.1,1.979,1.102,1.879,2.24l-0.208,2.38
				C406.112,162.151,405.109,162.992,403.972,162.893z"/>
		</g>
		<path style="opacity:0.9;fill:#FFFFFF;" d="M395.151,173.878c-5.672-1.56-10.481-0.848-13.711,0.131l-3.305,37.778
			c-0.013,0.153,0.1,0.288,0.253,0.302l20.121,1.76c0.153,0.014,0.288-0.1,0.302-0.253l3.414-39.022
			C400.362,174.796,398.045,174.674,395.151,173.878z"/>
		<g>
			<path style="fill:#407BFF;" d="M394.987,183.43c-0.306,3.492-3.384,6.074-6.875,5.769c-3.492-0.306-6.074-3.384-5.769-6.875
				c0.305-3.492,3.384-6.074,6.875-5.769C392.71,176.86,395.292,179.938,394.987,183.43z"/>
			<path style="opacity:0.4;fill:#FFFFFF;" d="M394.987,183.43c-0.306,3.492-3.384,6.074-6.875,5.769
				c-3.492-0.306-6.074-3.384-5.769-6.875c0.305-3.492,3.384-6.074,6.875-5.769C392.71,176.86,395.292,179.938,394.987,183.43z"/>
			<g style="opacity:0.9;">
				<path style="fill:#FFFFFF;" d="M387.994,178.049c-0.55,0.076-1.073,0.244-1.552,0.49c-0.324,0.166-0.402,0.598-0.168,0.877
					l2.083,2.483l0.282-3.227C388.67,178.307,388.356,177.999,387.994,178.049z"/>
				<path style="fill:#FFFFFF;" d="M387.754,182.403l-2.083-2.483c-0.234-0.279-0.673-0.277-0.893,0.014
					c-0.325,0.429-0.582,0.915-0.752,1.444c-0.112,0.348,0.136,0.711,0.5,0.743L387.754,182.403z"/>
				<path style="fill:#FFFFFF;" d="M387.686,183.185l-3.227-0.282c-0.364-0.032-0.671,0.283-0.622,0.645
					c0.076,0.55,0.244,1.073,0.49,1.552c0.166,0.324,0.598,0.403,0.877,0.168L387.686,183.185z"/>
				<path style="fill:#FFFFFF;" d="M389.421,178.739l-0.282,3.227l2.483-2.083c0.279-0.234,0.276-0.673-0.014-0.893
					c-0.429-0.326-0.915-0.582-1.444-0.752C389.816,178.127,389.453,178.375,389.421,178.739z"/>
				<path style="fill:#FFFFFF;" d="M389.575,183.35l2.083,2.482c0.234,0.279,0.673,0.277,0.893-0.014
					c0.325-0.429,0.582-0.915,0.752-1.444c0.112-0.348-0.136-0.711-0.5-0.743L389.575,183.35z"/>
				<path style="fill:#FFFFFF;" d="M389.644,182.568l3.227,0.282c0.364,0.032,0.672-0.283,0.622-0.645
					c-0.076-0.55-0.244-1.073-0.49-1.552c-0.166-0.324-0.598-0.403-0.877-0.169L389.644,182.568z"/>
				<path style="fill:#FFFFFF;" d="M388.191,183.787l-2.482,2.083c-0.279,0.234-0.277,0.673,0.014,0.893
					c0.429,0.325,0.915,0.582,1.444,0.752c0.348,0.112,0.711-0.136,0.743-0.5L388.191,183.787z"/>
				<path style="fill:#FFFFFF;" d="M388.974,183.855l-0.282,3.227c-0.032,0.364,0.283,0.671,0.645,0.622
					c0.55-0.076,1.073-0.244,1.552-0.49c0.324-0.166,0.402-0.598,0.168-0.877L388.974,183.855z"/>
			</g>
		</g>
		<g>
			<path style="fill:#407BFF;" d="M398.662,203.355c-0.305,3.492-3.384,6.074-6.875,5.769c-3.492-0.305-6.074-3.383-5.769-6.875
				c0.306-3.492,3.384-6.074,6.875-5.769C396.385,196.785,398.968,199.863,398.662,203.355z"/>
			<path style="opacity:0.4;fill:#FFFFFF;" d="M398.662,203.355c-0.305,3.492-3.384,6.074-6.875,5.769
				c-3.492-0.305-6.074-3.383-5.769-6.875c0.306-3.492,3.384-6.074,6.875-5.769C396.385,196.785,398.968,199.863,398.662,203.355z"
				/>
			<g style="opacity:0.9;">
				<path style="fill:#FFFFFF;" d="M391.669,197.974c-0.55,0.076-1.073,0.244-1.552,0.49c-0.324,0.166-0.402,0.598-0.168,0.877
					l2.083,2.482l0.282-3.227C392.346,198.232,392.031,197.924,391.669,197.974z"/>
				<path style="fill:#FFFFFF;" d="M391.43,202.328l-2.083-2.482c-0.234-0.279-0.673-0.277-0.893,0.014
					c-0.326,0.429-0.582,0.915-0.752,1.444c-0.112,0.348,0.136,0.711,0.5,0.743L391.43,202.328z"/>
				<path style="fill:#FFFFFF;" d="M391.361,203.11l-3.227-0.282c-0.364-0.032-0.671,0.283-0.622,0.645
					c0.076,0.55,0.244,1.073,0.49,1.552c0.166,0.324,0.598,0.403,0.877,0.169L391.361,203.11z"/>
				<path style="fill:#FFFFFF;" d="M393.096,198.664l-0.282,3.227l2.483-2.083c0.279-0.234,0.277-0.673-0.014-0.893
					c-0.429-0.325-0.915-0.582-1.444-0.752C393.491,198.052,393.128,198.3,393.096,198.664z"/>
				<path style="fill:#FFFFFF;" d="M393.251,203.276l2.083,2.482c0.234,0.279,0.673,0.277,0.893-0.014
					c0.325-0.429,0.582-0.915,0.752-1.444c0.112-0.348-0.136-0.711-0.5-0.743L393.251,203.276z"/>
				<path style="fill:#FFFFFF;" d="M393.319,202.493l3.227,0.282c0.364,0.032,0.671-0.283,0.622-0.645
					c-0.076-0.55-0.244-1.073-0.49-1.552c-0.166-0.324-0.598-0.402-0.877-0.168L393.319,202.493z"/>
				<path style="fill:#FFFFFF;" d="M391.866,203.712l-2.483,2.083c-0.279,0.234-0.276,0.673,0.014,0.893
					c0.429,0.325,0.915,0.582,1.444,0.752c0.348,0.112,0.711-0.136,0.743-0.5L391.866,203.712z"/>
				<path style="fill:#FFFFFF;" d="M392.649,203.78l-0.282,3.227c-0.032,0.364,0.283,0.671,0.645,0.622
					c0.55-0.076,1.073-0.244,1.552-0.49c0.324-0.166,0.402-0.598,0.168-0.877L392.649,203.78z"/>
			</g>
		</g>
	</g>
</g>
<g id="Device">
	<g>
		<path style="fill:#407BFF;" d="M402.772,267.576l0.345-3.943c0.127-1.451-0.947-2.731-2.398-2.858l-12.748-1.115
			c-1.451-0.127-2.731,0.947-2.858,2.398l-0.345,3.942c-0.225,2.57-1.518,4.983-3.672,6.404c-2.548,1.681-4.334,4.462-4.62,7.732
			l-1.561,17.837c-0.286,3.27,0.99,6.32,3.207,8.417c1.874,1.773,2.729,4.374,2.504,6.944l-0.345,3.943
			c-0.127,1.451,0.947,2.731,2.398,2.858l12.748,1.115c1.451,0.127,2.731-0.947,2.858-2.398l0.345-3.943
			c0.225-2.57,1.518-4.983,3.671-6.403c2.548-1.681,4.334-4.462,4.62-7.732l1.561-17.837c0.286-3.27-0.99-6.32-3.207-8.417
			C403.402,272.747,402.547,270.146,402.772,267.576z"/>
		<path style="opacity:0.4;fill:#FFFFFF;" d="M402.772,267.576l0.345-3.943c0.127-1.451-0.947-2.731-2.398-2.858l-12.748-1.115
			c-1.451-0.127-2.731,0.947-2.858,2.398l-0.345,3.942c-0.225,2.57-1.518,4.983-3.672,6.404c-2.548,1.681-4.334,4.462-4.62,7.732
			l-1.561,17.837c-0.286,3.27,0.99,6.32,3.207,8.417c1.874,1.773,2.729,4.374,2.504,6.944l-0.345,3.943
			c-0.127,1.451,0.947,2.731,2.398,2.858l12.748,1.115c1.451,0.127,2.731-0.947,2.858-2.398l0.345-3.943
			c0.225-2.57,1.518-4.983,3.671-6.403c2.548-1.681,4.334-4.462,4.62-7.732l1.561-17.837c0.286-3.27-0.99-6.32-3.207-8.417
			C403.402,272.747,402.547,270.146,402.772,267.576z"/>
		<path style="fill:#263238;" d="M395.655,305.533l-10.471-0.916c-3.397-0.297-5.911-3.292-5.613-6.69l1.482-16.936
			c0.297-3.397,3.292-5.911,6.69-5.614l10.471,0.916c3.397,0.297,5.911,3.292,5.613,6.69l-1.482,16.937
			C402.048,303.317,399.053,305.831,395.655,305.533z"/>
		<g>
			<path style="fill:#407BFF;" d="M410.17,289.572l-1.501-0.131c-0.414-0.036-0.72-0.401-0.684-0.815l0.404-4.617
				c0.036-0.414,0.401-0.721,0.816-0.684l1.501,0.131c0.414,0.036,0.72,0.401,0.684,0.815l-0.404,4.617
				C410.95,289.302,410.585,289.608,410.17,289.572z"/>
		</g>
		<g>
			<path style="fill:#FFFFFF;" d="M384.095,285.983c0,0-1.424-3.755,0.359-4.099c1.783-0.345,1.628,3.569,1.628,3.569
				L384.095,285.983z"/>
			<path style="fill:#FFFFFF;" d="M384.485,286.533l1.743-0.254c0,0,0.404,1.333-0.66,1.46
				C384.511,287.866,384.485,286.533,384.485,286.533z"/>
			<path style="fill:#FFFFFF;" d="M389.723,285.441c0,0,2.054-3.45,0.359-4.099c-1.696-0.649-2.223,3.232-2.223,3.232
				L389.723,285.441z"/>
			<path style="fill:#FFFFFF;" d="M389.366,285.926l-1.673-0.553c0,0-0.752,1.232,0.273,1.542
				C388.987,287.223,389.366,285.926,389.366,285.926z"/>
		</g>
		<path style="fill:#FFFFFF;" d="M385.392,298.601c-1.233-0.108-3.802-0.459-2.237-4.312c0,0,0.303,1.488,1.054,1.572
			c0,0-1.274-3.254,2.313-5.396c0,0-0.665,2.289,0.588,3.41c0.671,0.601,0.166,1.784,0.166,1.784s0.837-1.281,0.641-2.544
			C387.918,293.116,390.486,299.047,385.392,298.601z"/>
		<path style="fill:#FFFFFF;" d="M399.693,286.973l-7.194-0.629c-0.595-0.052-1.035-0.576-0.983-1.171l0,0
			c0.052-0.595,0.576-1.035,1.171-0.983l7.194,0.629c0.595,0.052,1.035,0.576,0.983,1.171l0,0
			C400.812,286.585,400.288,287.025,399.693,286.973z"/>
		<path style="fill:#FFFFFF;" d="M395.974,297.58l-4.424-0.387c-0.595-0.052-1.035-0.576-0.983-1.171l0,0
			c0.052-0.595,0.576-1.035,1.171-0.983l4.424,0.387c0.595,0.052,1.035,0.576,0.983,1.171l0,0
			C397.093,297.192,396.569,297.632,395.974,297.58z"/>
	</g>
</g>
<g id="Character_2">
	<g>
		<g>
			<path style="fill:#FFB573;" d="M317.024,226.254c0,0,8.39,13.252,15.159,15.943c6.769,2.691,22.562-8.586,22.562-8.586
				l6.264-1.743c0.806-0.305,1.402-0.996,1.585-1.838l0.892-4.115c0.131-0.605,0.001-1.237-0.358-1.74l-0.718-1.007
				c-0.796-1.116-2.407-1.238-3.363-0.256l-5.749,5.914c0,0-14.801,7.034-17.782,3.942c-3.063-3.177-2.948-3.047-9.205-11.467
				L317.024,226.254z"/>
			<path style="fill:#407BFF;" d="M311.735,205.807c-2.825,1.696-6.464,9.857,5.538,23.572l10.458-7.986
				C327.731,221.394,320.576,200.5,311.735,205.807z"/>
			<path style="opacity:0.1;" d="M324.658,223.741c-2.31-9.165-5.553-12.653-5.553-12.653l-2.08,2.925l-3.793,5.336l0.956,6.166
				c0.89,1.235,1.91,2.522,3.085,3.865L324.658,223.741z"/>
		</g>
		<path style="fill:#FFB573;" d="M280.813,316.499c-0.446,5.586-2.662,12.522-2.662,12.522
			c-11.912,4.884-40.937,46.832-40.937,46.832l4.71,4.466c0,0,39.379-30.485,49.715-43.33c3.018-3.75,5.112-11.805,7.299-16.911
			C290.387,320.781,284.191,318.164,280.813,316.499z"/>
		<path style="fill:#263238;" d="M243.012,379.052l-5.422-4.967c-0.235-0.217-0.59-0.242-0.853-0.06l-5.813,4.042
			c-0.518,0.355-0.651,1.062-0.296,1.581c0.046,0.066,0.098,0.128,0.157,0.184c2.288,2.036,4.404,3.758,7.204,6.345
			c3.308,3.05,2.104,2.672,5.943,6.312c2.315,2.191,5.199-0.078,4.326-1.125c-4.021-4.764-4.053-7.362-4.308-10.607
			C243.858,380.093,243.524,379.486,243.012,379.052z"/>
		<path style="opacity:0.1;" d="M280.813,316.499c-0.128,1.597-0.402,3.301-0.725,4.924c3.227,1.35,9.875,3.6,17.191,2.982
			c0.558-1.553,1.106-3.035,1.659-4.327C290.387,320.781,284.191,318.164,280.813,316.499z"/>
		<path style="fill:#263238;" d="M281.783,285.081c0.153,9.912-1.612,23.505-2.284,31.917c3.379,1.665,11.66,5.172,20.212,4.47
			c3.027-7.07,6.758-16.31,10.492-29.844c3.708-13.44,2.969-32.609,2.969-32.609l-33.803-2.113
			C278.046,277.52,281.783,285.081,281.783,285.081z"/>
		<path style="opacity:0.5;" d="M313.171,259.014l-33.803-2.113c-1.323,20.619,2.414,28.18,2.414,28.18
			c0.052,3.387-0.122,7.207-0.398,11.1c2.05,5.424,6.206,16.195,10.055,24.807c2.615,0.475,5.425,0.713,8.27,0.479
			c3.027-7.07,6.758-16.31,10.492-29.844C313.911,278.184,313.171,259.014,313.171,259.014z"/>
		<path style="fill:#FFB573;" d="M318.048,331.257c-0.581-4.121-4.719-19.08-4.719-19.08c-8.276,4.421-13.956,5.845-17.141,6.241
			c1.499,3.521,4.456,10.692,5.835,13.78c0,0-1.29,14.693,16.308,72.207l7.064-1.118
			C325.395,403.288,320.572,349.152,318.048,331.257z"/>
		<path style="fill:#263238;" d="M324.741,401.817l-7.184,1.569c-0.313,0.067-0.538,0.343-0.54,0.663l-0.046,7.08
			c-0.009,0.628,0.493,1.144,1.121,1.153c0.081,0.001,0.161-0.006,0.24-0.022c2.982-0.697,5.609-1.434,9.337-2.232
			c4.399-0.946,3.396-0.18,8.583-1.22c3.124-0.63,2.932-4.294,1.573-4.184c-6.211,0.541-8.353-0.929-11.151-2.591
			C326.078,401.726,325.39,401.649,324.741,401.817z"/>
		<path style="opacity:0.1;" d="M313.329,312.177c-8.276,4.421-13.956,5.845-17.141,6.241c0.414,0.971,0.94,2.224,1.511,3.589
			c3.019-0.526,9.87-2.146,16.484-6.691C313.677,313.435,313.329,312.177,313.329,312.177z"/>
		<path style="fill:#263238;" d="M314.358,313.272c0,0-6.835-26.144-6.669-35c0.098-5.233,4.11-20.53,4.11-20.53L280.314,254
			c0,0-9.357,17.368-0.021,31.342c0,0,7.752,18.427,15.025,34.524C298.494,319.401,306.181,317.873,314.358,313.272z"/>
		<g>
			<path style="fill:#1A2E35;" d="M297.221,181.843c0.11,3.525-0.669,7.985-3.722,10.121c-1.459,1.021-3.237,1.544-4.443,2.916
				c-1.143,1.3-1.713,3.131-2.422,4.677c-0.241,0.526,0.539,0.987,0.782,0.457c0.981-2.142,1.661-4.309,3.701-5.662
				c1.816-1.204,3.615-1.751,4.882-3.639c1.681-2.505,2.221-5.895,2.128-8.872C298.109,181.262,297.203,181.259,297.221,181.843
				L297.221,181.843z"/>
		</g>
		<path style="fill:#1A2E35;" d="M297.692,177.315c0,0,0.801-7.349-9.803-3.315c-10.146,3.859-6.289,9.5-15.847,14.666
			c-9.559,5.167,5.45,9.077,2.012,13.621c-3.438,4.543,8.133,5.038,11.32-3.175c3.186-8.213,7.596-5.706,10.565-9.776
			c1.754-2.404,2.516-7.493,2.516-7.493L297.692,177.315z"/>
		<path style="fill:#1A2E35;" d="M303.593,188.666c0,0-0.76,3.101-3.689,1.972C296.975,189.509,302.185,190.346,303.593,188.666z"/>
		<path style="fill:#407BFF;" d="M300.789,182.732c0,0-1.304-0.265-1.701-0.11c-0.131,0.051-0.303,0.201-0.476,0.381
			c-0.374,0.39-1.026,0.258-1.198-0.255c-0.489-1.459-1.004-4.087,0.428-6.503c0,0,0.55,0.996,0.89,1.074
			c0.505,0.117,1.887-0.855,1.887-0.855L300.789,182.732z"/>
		<path style="fill:#407BFF;" d="M277.653,255.076c0,0,25.172,4.045,37.835,4.301c0,0-0.559-9.369,1.785-17.719
			c2.344-8.35,8.965-15.399,0.908-32.661c-4.405-9.437-29.865-10.743-33.735-1.927C280.444,216.187,291.174,221.339,277.653,255.076
			z"/>
		<path style="fill:#FFB573;" d="M312.244,198.508l-6.816-7.844c0.349,6.935-5.001,10.495-5.001,10.495s0.696,4.926,11.219,13.861
			c6.554-4.771,1.903-10.582,1.903-10.582S309.725,201.967,312.244,198.508z"/>
		<path style="opacity:0.1;" d="M311.7,202.286c-0.448-1.002-0.534-2.299,0.543-3.779l-6.816-7.844
			c0.052,1.035-0.034,1.985-0.199,2.869C305.708,195.619,307.183,199.505,311.7,202.286z"/>
		<path style="fill:#FFB573;" d="M303.364,179.339c-0.504,7.712-0.874,10.957,2.493,15.367c5.064,6.644,14.646,5.565,17.442-1.832
			c2.507-6.669,2.908-18.198-4.209-22.145c-5.059-2.874-11.49-1.104-14.365,3.956C303.916,176.109,303.45,177.703,303.364,179.339z"
			/>
		<path style="fill:#263238;" d="M315.303,182.884c-0.072,0.623,0.193,1.171,0.595,1.227c0.401,0.055,0.805-0.417,0.888-1.036
			c0.083-0.619-0.193-1.171-0.595-1.227C315.79,181.792,315.41,182.297,315.303,182.884z"/>
		<path style="fill:#263238;" d="M322.336,183.788c-0.076,0.634,0.193,1.172,0.594,1.227c0.401,0.055,0.805-0.417,0.888-1.036
			c0.083-0.619-0.194-1.172-0.598-1.216C322.815,182.718,322.418,183.169,322.336,183.788z"/>
		<path style="fill:#263238;" d="M323.037,182.771l1.549-0.243C324.585,182.529,323.672,183.604,323.037,182.771z"/>
		<path style="fill:#ED893E;" d="M320.022,184.642c0.378,1.492,0.959,2.926,1.726,4.261c-0.705,0.372-1.536,0.42-2.279,0.133
			L320.022,184.642z"/>
		<path style="fill:#263238;" d="M315.772,191.042c0.297,0.087,0.601,0.148,0.909,0.184c0.099,0.017,0.192-0.05,0.209-0.149
			c0-0.002,0.001-0.004,0.001-0.006c0.006-0.102-0.068-0.191-0.169-0.203c-1.574-0.168-2.975-1.073-3.775-2.439
			c-0.044-0.092-0.155-0.13-0.246-0.085c-0.092,0.044-0.13,0.155-0.085,0.247C313.292,189.799,314.431,190.684,315.772,191.042z"/>
		<path style="fill:#263238;" d="M312.653,181.111c0.154,0.048,0.321-0.011,0.411-0.145c0.804-0.91,1.95-1.443,3.164-1.471
			c0.206-0.002,0.371-0.17,0.37-0.376c-0.001-0.201-0.165-0.362-0.365-0.36c-0.005,0-0.009,0-0.014,0
			c-1.459,0.023-2.835,0.68-3.77,1.8c-0.111,0.167-0.066,0.392,0.101,0.503l0,0C312.579,181.089,312.615,181.105,312.653,181.111z"
			/>
		<path style="fill:#263238;" d="M324.858,180.811c0.129,0.036,0.268,0.003,0.367-0.089c0.146-0.142,0.152-0.374,0.014-0.523
			c-0.798-0.903-1.993-1.35-3.188-1.191c-0.192,0.028-0.325,0.206-0.297,0.398c0.001,0.01,0.003,0.019,0.005,0.028
			c0.035,0.197,0.224,0.329,0.421,0.293c0.002,0,0.004-0.001,0.006-0.001l0,0c0.935-0.091,1.858,0.27,2.484,0.971
			C324.719,180.753,324.785,180.793,324.858,180.811z"/>
		<path style="fill:#263238;" d="M315.985,181.92l1.549-0.243C317.534,181.678,316.635,182.71,315.985,181.92z"/>
		<path style="fill:#263238;" d="M305.229,185.02c0,0,2.459-2.384,2.559-6.26c0.1-3.876,6.189-8.056,13.961-5.84
			c0,0,2.238-6.966-3.297-4.073c0,0-8.843-6.037-16.433,2.893c-5.276,6.208-2.423,12.93-0.192,16.452
			c0.676,1.067,2.295,0.819,2.633-0.397L305.229,185.02z"/>
		<path style="fill:#FFB573;" d="M300.537,184.96c0.307,1.431,1.167,2.683,2.392,3.484c1.644,1.039,3.031-0.293,3.05-2.146
			c0.003-1.668-0.841-4.217-2.709-4.542c-1.364-0.192-2.626,0.757-2.819,2.122C300.399,184.24,300.429,184.61,300.537,184.96z"/>
		<path style="fill:#1A2E35;" d="M321.093,172.742c0,0,2.935-1.258,3.794,1.761C325.746,177.521,323.281,172.855,321.093,172.742z"
			/>
		<path style="fill:#1A2E35;" d="M317.327,172.186c0,0-3.176,0.329-2.458,3.385C315.587,178.626,315.47,173.35,317.327,172.186z"/>
		<g>
			<path style="fill:#407BFF;" d="M302.899,184.875c0,0,1.468,0.246,1.263,1.876c0,0-0.395,1.282,1.085,2.761
				c0,0-0.305,0.506-0.826,0.506C304.421,190.018,300.059,185.71,302.899,184.875z"/>
			<path style="opacity:0.5;fill:#FFFFFF;" d="M302.899,184.875c0,0,1.468,0.246,1.263,1.876c0,0-0.395,1.282,1.085,2.761
				c0,0-0.305,0.506-0.826,0.506C304.421,190.018,300.059,185.71,302.899,184.875z"/>
		</g>
		<path style="opacity:0.1;" d="M295.475,214.093l-3.112-1.657l-8.732,3.153c0,0-0.101,0.264-0.275,0.732
			c0.2,5.212,0.854,11.881-0.381,21.08C294.587,222.942,295.475,214.093,295.475,214.093z"/>
		<g>
			<path style="fill:#FFB573;" d="M288.678,221.456c0,0-6.084,14.457-12.314,18.23c-6.231,3.773-23.672-4.737-23.672-4.737
				l-6.466-0.683c-0.845-0.167-1.548-0.751-1.867-1.551l-1.56-3.911c-0.229-0.575-0.206-1.219,0.066-1.775l0.541-1.111
				c0.6-1.232,2.17-1.619,3.274-0.808l6.647,4.882c0,0,15.76,4.49,18.189,0.948c2.496-3.64,2.403-3.493,7.182-12.832
				L288.678,221.456z"/>
			<path style="fill:#407BFF;" d="M293.3,203.352c2.825,1.696,6.463,9.857-5.537,23.572l-10.459-7.986
				C277.304,218.938,284.459,198.044,293.3,203.352z"/>
		</g>
		<g>
			<g>
				<g>
					<path style="fill:#407BFF;" d="M247.162,229.196l-1.209-0.1c4.745-57.641-3.392-59.702-13.693-62.312
						c-5.288-1.34-11.281-2.858-16.163-11.991c-4.536-8.486-1.122-17.694,9.133-24.631c11.941-8.078,30.703-11.664,48.963-9.356
						c15.658,1.977,38.261,9.025,57.029,31.37c13.757,16.379,18.058,30.35,21.516,41.575c0.317,1.03,0.628,2.038,0.937,3.023
						c6.03,19.156,5.393,29.526,5.363,29.958l-1.21-0.084c0.007-0.104,0.641-10.604-5.31-29.51c-0.311-0.987-0.622-1.997-0.94-3.03
						c-3.424-11.121-7.686-24.962-21.285-41.152c-31.867-37.941-81.949-36.968-104.384-21.79
						c-9.833,6.651-13.019,15.054-8.743,23.055c4.63,8.661,10.1,10.047,15.391,11.387c5.275,1.336,10.257,2.598,13.198,11.045
						C248.918,185.736,249.365,202.432,247.162,229.196z"/>
				</g>
				<g style="opacity:0.3;">
					<path style="fill:#FFFFFF;" d="M247.162,229.196l-1.209-0.1c4.745-57.641-3.392-59.702-13.693-62.312
						c-5.288-1.34-11.281-2.858-16.163-11.991c-4.536-8.486-1.122-17.694,9.133-24.631c11.941-8.078,30.703-11.664,48.963-9.356
						c15.658,1.977,38.261,9.025,57.029,31.37c13.757,16.379,18.058,30.35,21.516,41.575c0.317,1.03,0.628,2.038,0.937,3.023
						c6.03,19.156,5.393,29.526,5.363,29.958l-1.21-0.084c0.007-0.104,0.641-10.604-5.31-29.51c-0.311-0.987-0.622-1.997-0.94-3.03
						c-3.424-11.121-7.686-24.962-21.285-41.152c-31.867-37.941-81.949-36.968-104.384-21.79
						c-9.833,6.651-13.019,15.054-8.743,23.055c4.63,8.661,10.1,10.047,15.391,11.387c5.275,1.336,10.257,2.598,13.198,11.045
						C248.918,185.736,249.365,202.432,247.162,229.196z"/>
				</g>
			</g>
			<g>
				<rect x="244.537" y="222.063" style="fill:#407BFF;" width="4.042" height="14.167"/>
				<rect x="244.537" y="222.063" style="opacity:0.1;" width="4.042" height="2.417"/>
				<rect x="244.537" y="234.608" style="opacity:0.1;" width="4.042" height="1.622"/>
				<path style="fill:#407BFF;" d="M248.593,223.181h-4.07c-0.617,0-1.118-0.501-1.118-1.118l0,0c0-0.617,0.5-1.118,1.118-1.118
					h4.07c0.617,0,1.118,0.501,1.118,1.118l0,0C249.711,222.68,249.21,223.181,248.593,223.181z"/>
				<path style="fill:#407BFF;" d="M248.593,237.814h-4.07c-0.617,0-1.118-0.501-1.118-1.118l0,0c0-0.617,0.5-1.118,1.118-1.118
					h4.07c0.617,0,1.118,0.501,1.118,1.118l0,0C249.711,237.313,249.21,237.814,248.593,237.814z"/>
			</g>
			<g>
				<rect x="356.412" y="219.607" style="fill:#407BFF;" width="4.042" height="14.167"/>
				<rect x="356.412" y="219.607" style="opacity:0.1;" width="4.042" height="2.417"/>
				<rect x="356.412" y="232.152" style="opacity:0.1;" width="4.042" height="1.622"/>
				<path style="fill:#407BFF;" d="M360.468,220.725h-4.07c-0.617,0-1.118-0.501-1.118-1.118l0,0c0-0.617,0.501-1.118,1.118-1.118
					h4.07c0.617,0,1.118,0.5,1.118,1.118l0,0C361.586,220.225,361.086,220.725,360.468,220.725z"/>
				<path style="fill:#407BFF;" d="M360.468,235.358h-4.07c-0.617,0-1.118-0.501-1.118-1.118l0,0c0-0.617,0.501-1.118,1.118-1.118
					h4.07c0.617,0,1.118,0.5,1.118,1.118l0,0C361.586,234.858,361.086,235.358,360.468,235.358z"/>
			</g>
		</g>
	</g>
</g>
<g id="Character_1_1_">
	<g>
		<g>
			<path style="fill:#FFC3BD;" d="M177.818,211.966c0,0-13.509,6.059-20.122,3.567c-6.613-2.491-13.56-22.617-13.56-22.617
				l-4.282-5.667c-0.593-0.785-0.588-1.87,0.013-2.65l3.558-4.617c0.506-0.656,1.276-1.055,2.104-1.088l0.234-0.009
				c1.613-0.065,2.947,1.245,2.911,2.859l-0.157,7.038c0,0,10.659,17.065,14.817,16.794c4.158-0.27,10.94-3.11,10.94-3.11
				L177.818,211.966z"/>
			<path style="fill:#263238;" d="M191.064,201.548c0.48,2.994-1.02,10.819-18.475,13.632l-2.693-11.856
				C169.896,203.324,189.345,190.841,191.064,201.548z"/>
			<g>
				<path style="fill:#407BFF;" d="M149.218,180.568c1.764,2.238,4.508,3.016,6.128,1.739c1.62-1.277,1.502-4.127-0.262-6.364
					c-1.764-2.238-4.508-3.016-6.128-1.739C147.336,175.482,147.453,178.331,149.218,180.568z"/>
				<path style="opacity:0.2;" d="M149.218,180.568c-1.408-1.785-1.748-3.947-1.013-5.402c1.376-0.731,3.669,0.249,5.317,2.339
					c1.392,1.765,1.891,3.782,1.396,5.073C153.273,183.44,150.835,182.62,149.218,180.568z"/>
				<path style="fill:#407BFF;" d="M137.829,189.549c0.758,0.962,4.41-0.653,8.155-3.607c3.746-2.954,6.167-6.128,5.409-7.09
					c-0.758-0.962-4.41,0.653-8.155,3.607C139.493,185.413,137.071,188.587,137.829,189.549z"/>
				<path style="opacity:0.2;" d="M142.477,188.342c-2.295,1.325-4.135,1.857-4.648,1.206c-0.523-0.663,0.468-2.38,2.362-4.35
					c0.435,0.335,0.849,0.735,1.218,1.203C141.895,187.017,142.243,187.679,142.477,188.342z"/>
				<path style="fill:#407BFF;" d="M134.005,192.564c1.765,2.238,4.508,3.016,6.128,1.739c1.62-1.277,1.503-4.126-0.262-6.364
					c-1.764-2.237-4.508-3.016-6.127-1.739C132.124,187.477,132.241,190.327,134.005,192.564z"/>
			</g>
			<path style="opacity:0.6;" d="M187.645,209.309c-1.804,1.596-4.486,3.134-8.415,4.352c0.165-12.033,5.973-12.136,5.973-12.136
				l1.11,0.634L187.645,209.309z"/>
		</g>
		<path style="fill:#FFC3BD;" d="M204.051,302.258l-6.791,21.181c0,0,1.538,7.874,0,17.948
			c-1.538,10.074-10.259,63.087-10.259,63.087l-6.551,0.781c0,0,0.966-67.945,2.34-82.641c1.373-14.696,2.99-25.206,2.99-25.206
			L204.051,302.258z"/>
		<path style="opacity:0.1;" d="M185.78,297.408l18.271,4.851l-4.375,13.647l-15.915-2.752
			C184.826,303.615,185.78,297.408,185.78,297.408z"/>
		<path style="fill:#FFC3BD;" d="M217.148,303.067c0,0,7.487,31.733,34.975,100.552l6.271-1.571c0,0-12.305-71.493-19.822-79.416
			l-3.8-24.092L217.148,303.067z"/>
		<path style="opacity:0.1;" d="M234.773,298.539l2.183,13.845l-16.425,2.968c-2.469-8.321-3.382-12.286-3.382-12.286
			L234.773,298.539z"/>
		<path style="fill:#407BFF;" d="M215.976,279.662c0,0-5.295,4.891-6.67,8.852c-1.374,3.961-8.004,25.305-8.004,25.305
			l-17.948-3.234c0,0,1.859-20.05,3.881-34.278s3.6-22.661,3.357-23.873l33.955-2.871
			C224.548,249.563,231.377,274.448,215.976,279.662z"/>
		<path style="opacity:0.1;" d="M210.276,265.595l5.634,14.128c-0.603,0.567-5.319,5.085-6.605,8.791
			c-0.352,1.014-1.048,3.168-1.889,5.809c-2.537-14.324-1.143-30.063-1.143-30.063L210.276,265.595z"/>
		<path style="fill:#407BFF;" d="M205.855,252.544c0,0-3.292,11.394,5.81,35.643c2.51,6.688,6.554,24.581,6.554,24.581l19.464-3.881
			l-4.21-23.713c0,0,0.857-23.524-5.772-34.842L205.855,252.544z"/>
		<path style="fill:#263238;" d="M180.526,403.743l6.817-0.124c0.296,0,0.553,0.205,0.617,0.494l2.455,6.515
			c0.13,0.566-0.223,1.13-0.789,1.26c-0.073,0.017-0.147,0.026-0.221,0.027c-2.831-0.05-5.349-0.205-8.873-0.201
			c-4.16,0.001-3.104,0.498-7.994,0.567c-2.946,0.039-3.485-3.311-2.236-3.475c5.718-0.719,6.312-2.446,8.518-4.492
			C179.299,403.921,179.906,403.718,180.526,403.743z"/>
		<path style="fill:#263238;" d="M251.656,402.173l6.641-1.547c0.289-0.062,0.583,0.085,0.707,0.354l3.763,5.858
			c0.245,0.526,0.018,1.152-0.508,1.397c-0.068,0.031-0.138,0.056-0.211,0.072c-2.779,0.543-5.273,0.918-8.719,1.659
			c-4.068,0.871-2.931,1.137-7.699,2.227c-2.873,0.654-4.1-2.509-2.913-2.931c5.441-1.899,5.661-3.711,7.391-6.174
			C250.494,402.603,251.045,402.278,251.656,402.173z"/>
		<g>
			<path style="fill:#263238;" d="M187.114,162.778c0,0-4.626-0.383-2.156,6.426l3.02-2.831l1.965-3.786L187.114,162.778z"/>
			<path style="opacity:0.6;" d="M187.114,162.778c0,0-4.626-0.383-2.156,6.426l3.02-2.831l1.965-3.786L187.114,162.778z"/>
		</g>
		<path style="fill:#263238;" d="M228.912,251.605c0,0-7.734,0.686-39.08,2.517c0,0-1.747-8.086-3.971-21.923
			c-2.534-15.769-5.416-30.289-1.687-34.209c4.233-4.45,24.407-3.829,33.679-3.806c2.982,0.007,5.468,2.272,5.755,5.24
			L228.912,251.605z"/>
		<path style="fill:#407BFF;" d="M210.827,194.144c-0.047,2.124-1.924,6.611-12.422,14.769c0,0-8.035-7.731-7.208-13.645
			C196.815,194.27,204.48,194.132,210.827,194.144z"/>
		<path style="fill:#FFC3BD;" d="M198.366,206.285c0,0-6.124-8.156-4.46-11.417c4.249-0.518,9.222-0.679,13.826-0.715
			C207.722,195.689,206.721,199.728,198.366,206.285z"/>
		<path style="fill:#FFC3BD;" d="M198.187,203.942l-4.02-6.965c3.047-2.177,2.316-4.156,0.706-7.133l7.067-10.043
			c0.291,4.955,1.153,12.113,5.27,14.416c0,0,0.175,0.808-0.428,2.348L198.187,203.942z"/>
		<path style="opacity:0.2;enable-background:new    ;" d="M195.998,192.272c-0.247-0.742-0.645-1.54-1.125-2.428l4.439-6.309
			c0.914,0.304,2.46-0.058,3.022,0.47c0.044,0.318,0.09,0.636,0.143,0.955C202.075,187.402,198.966,191.025,195.998,192.272z"/>
		<path style="fill:#FFC3BD;" d="M205.113,171.428c0.292,7.563,0.569,10.749-2.842,14.978c-5.132,6.372-14.484,5.064-17.028-2.25
			c-2.28-6.594-2.37-17.891,4.7-21.569c5.028-2.682,11.278-0.78,13.96,4.248C204.657,168.252,205.072,169.824,205.113,171.428z"/>
		<path style="fill:#1A2E35;" d="M193.332,174.585c0.054,0.612-0.22,1.142-0.614,1.186c-0.394,0.044-0.777-0.429-0.842-1.038
			c-0.065-0.609,0.22-1.142,0.614-1.186C192.884,173.504,193.242,174.008,193.332,174.585z"/>
		<path style="fill:#1A2E35;" d="M186.424,175.287c0.058,0.622-0.22,1.142-0.614,1.185c-0.394,0.044-0.777-0.429-0.842-1.038
			c-0.065-0.609,0.22-1.142,0.617-1.175C185.982,174.227,186.359,174.679,186.424,175.287z"/>
		<path style="fill:#FF8935;" d="M188.666,176.183c-0.409,1.451-1.015,2.839-1.801,4.126c0.68,0.382,1.493,0.452,2.228,0.19
			L188.666,176.183z"/>
		<path style="fill:#1A2E35;" d="M192.659,182.56c-0.293,0.078-0.592,0.13-0.894,0.156c-0.097,0.014-0.187-0.054-0.201-0.151
			c0-0.002-0.001-0.004-0.001-0.006c-0.003-0.1,0.072-0.185,0.171-0.194c1.545-0.124,2.94-0.973,3.76-2.289
			c0.046-0.089,0.155-0.123,0.243-0.077c0.089,0.046,0.123,0.155,0.077,0.243C195.12,181.408,193.981,182.245,192.659,182.56z"/>
		<path style="fill:#1A2E35;" d="M195.973,172.92c-0.152,0.043-0.314-0.019-0.398-0.153c-0.763-0.912-1.871-1.464-3.059-1.523
			c-0.201-0.007-0.359-0.176-0.353-0.378c0.007-0.196,0.171-0.35,0.367-0.343c0.005,0,0.009,0,0.013,0.001
			c1.428,0.061,2.758,0.74,3.644,1.861c0.104,0.166,0.054,0.386-0.112,0.49l0,0C196.046,172.9,196.011,172.915,195.973,172.92z"/>
		<path style="fill:#1A2E35;" d="M184.032,172.306c-0.128,0.032-0.263-0.004-0.357-0.096c-0.139-0.143-0.139-0.37,0-0.513
			c0.805-0.863,1.987-1.269,3.152-1.082c0.188,0.032,0.313,0.21,0.281,0.398c-0.002,0.009-0.004,0.018-0.006,0.028
			c-0.04,0.192-0.228,0.316-0.42,0.276c-0.002,0-0.004-0.001-0.005-0.001l0,0c-0.913-0.113-1.826,0.215-2.457,0.885
			C184.17,172.254,184.104,172.291,184.032,172.306z"/>
		<path style="fill:#263238;" d="M202.882,178.079l-2.448-0.459c0,0,1.606-5.608,0.459-7.05c-1.148-1.442-3.793-2.59-4.65-5.267
			c-0.858-2.677-13.977,2.59-11.875-8.453c0,0,0.975,2.982,2.497,4.093c0,0-2.19-7.574,6.149-6.732
			c8.339,0.841,13.583,9.563,13.583,9.563s10.787,7.063-0.371,17.421c-0.841,0.781-2.205,0.504-2.65-0.554L202.882,178.079z"/>
		<path style="fill:#FFC3BD;" d="M207.734,177.005c-0.339,1.393-1.213,2.595-2.433,3.348c-1.637,0.974-2.959-0.366-2.93-2.181
			c0.041-1.633,0.934-4.107,2.771-4.375c1.341-0.153,2.552,0.81,2.704,2.151C207.887,176.304,207.848,176.665,207.734,177.005z"/>
		<path style="fill:#263238;" d="M206.21,164.34c0,0,2.951-4.41,5.553-0.857C214.447,167.15,208.275,163.071,206.21,164.34z"/>
		<g>
			<path style="fill:#407BFF;" d="M204.831,176.475c0,0-1.743,0.292-1.5,2.228c0,0,0.468,1.522-1.288,3.279
				c0,0,0.362,0.601,0.981,0.601C203.024,182.583,208.205,177.467,204.831,176.475z"/>
			<path style="opacity:0.8;fill:#FFFFFF;" d="M204.831,176.475c0,0-1.743,0.292-1.5,2.228c0,0,0.468,1.522-1.288,3.279
				c0,0,0.362,0.601,0.981,0.601C203.024,182.583,208.205,177.467,204.831,176.475z"/>
		</g>
		<path style="opacity:0.6;" d="M224.108,204.781l1.172,12.527c-6.611-4.784-7.972-12.63-7.972-12.63l2.911-0.736L224.108,204.781z"
			/>
		<g>
			<path style="fill:#FFC3BD;" d="M226.21,207.779c0,0,15.603,1.6,21.903-2.056c6.3-3.656,9.249-24.327,9.249-24.327l3.141-7.862
				c0.541-1.355,0.027-2.903-1.217-3.665l-2.871-1.759c-0.599-0.367-1.308-0.512-2.003-0.409l-1.069,0.159
				c-1.565,0.232-2.679,1.641-2.544,3.217l0.77,9.023c0,0-4.53,16.74-8.803,17.171c-4.391,0.443-4.218,0.433-14.704,0.143
				L226.21,207.779z"/>
			<path style="fill:#263238;" d="M213.949,200.537c-0.121,3.406,2.376,9.558,20.575,8.607l0.191-13.157
				C234.715,195.986,214.355,189.099,213.949,200.537z"/>
		</g>
		<g>
			<path style="fill:#407BFF;" d="M251.243,170.005c-1.23,2.57-3.736,3.932-5.597,3.041c-1.86-0.891-2.371-3.696-1.141-6.266
				c1.23-2.57,3.736-3.932,5.597-3.041C251.963,164.629,252.473,167.435,251.243,170.005z"/>
			<path style="opacity:0.2;" d="M251.243,170.005c0.982-2.051,0.839-4.234-0.197-5.492c-1.503-0.411-3.525,1.048-4.674,3.448
				c-0.971,2.028-1.015,4.105-0.248,5.256C247.916,173.696,250.115,172.361,251.243,170.005z"/>
			<path style="fill:#407BFF;" d="M264.324,176.268c-0.529,1.105-4.445,0.33-8.748-1.73c-4.302-2.06-7.362-4.625-6.833-5.73
				c0.529-1.105,4.446-0.33,8.748,1.73C261.794,172.598,264.853,175.163,264.324,176.268z"/>
			<path style="opacity:0.2;" d="M259.525,176.111c2.53,0.789,4.441,0.905,4.799,0.157c0.365-0.762-0.979-2.219-3.259-3.726
				c-0.351,0.422-0.667,0.903-0.924,1.44C259.802,174.69,259.608,175.412,259.525,176.111z"/>
			<path style="fill:#407BFF;" d="M268.717,178.371c-1.23,2.57-3.736,3.932-5.597,3.041c-1.86-0.891-2.371-3.696-1.141-6.267
				c1.231-2.57,3.736-3.932,5.597-3.041C269.436,172.995,269.947,175.801,268.717,178.371z"/>
		</g>
	</g>
</g>
</svg>
