<?xml version="1.0" encoding="utf-8"?>
<!-- Generator: Adobe Illustrator 27.5.0, SVG Export Plug-In . SVG Version: 6.00 Build 0)  -->
<svg version="1.1" xmlns="http://www.w3.org/2000/svg" xmlns:xlink="http://www.w3.org/1999/xlink" x="0px" y="0px"
	 viewBox="0 0 500 500" style="enable-background:new 0 0 500 500;" xml:space="preserve">
<g id="Background_Complete">
	<g>
		<rect y="382.398" style="fill:#EBEBEB;" width="500" height="0.25"/>
		<rect x="400.674" y="393.042" style="fill:#EBEBEB;" width="33.122" height="0.25"/>
		<rect x="304.382" y="392.917" style="fill:#EBEBEB;" width="8.693" height="0.25"/>
		<rect x="430.709" y="398.494" style="fill:#EBEBEB;" width="19.192" height="0.25"/>
		<rect x="71.414" y="401.806" style="fill:#EBEBEB;" width="43.193" height="0.25"/>
		<rect x="104.556" y="390.888" style="fill:#EBEBEB;" width="6.333" height="0.25"/>
		<rect x="187.546" y="391.956" style="fill:#EBEBEB;" width="60.898" height="0.25"/>
		<path style="fill:#EBEBEB;" d="M237.014,337.8H43.915c-3.147,0-5.708-2.56-5.708-5.708V60.66c0-3.147,2.561-5.708,5.708-5.708
			h193.099c3.146,0,5.707,2.561,5.707,5.708v271.432C242.721,335.239,240.16,337.8,237.014,337.8z M43.915,55.203
			c-3.01,0-5.458,2.448-5.458,5.458v271.432c0,3.01,2.448,5.458,5.458,5.458h193.099c3.009,0,5.457-2.448,5.457-5.458V60.66
			c0-3.009-2.448-5.458-5.457-5.458H43.915z"/>
		<path style="fill:#EBEBEB;" d="M453.31,337.8H260.212c-3.147,0-5.707-2.56-5.707-5.708V60.66c0-3.147,2.561-5.708,5.707-5.708
			H453.31c3.148,0,5.708,2.561,5.708,5.708v271.432C459.019,335.239,456.458,337.8,453.31,337.8z M260.212,55.203
			c-3.009,0-5.457,2.448-5.457,5.458v271.432c0,3.01,2.448,5.458,5.457,5.458H453.31c3.01,0,5.458-2.448,5.458-5.458V60.66
			c0-3.009-2.448-5.458-5.458-5.458H260.212z"/>
	</g>
	<g>
		<g>
			<path style="fill:#E6E6E6;" d="M74.75,352.695c-0.493-1.721-0.819-3.472-0.819-5.107c0-6.778,5.441-8.166,13.61-8.166
				c8.169,0,13.61,1.388,13.61,8.166c0,1.386-0.233,2.855-0.603,4.319c-3.449-2.626-7.741-4.203-12.414-4.203
				C83.014,347.704,78.344,349.593,74.75,352.695z M104.338,355.654c0.771-2.554,1.317-5.315,1.317-8.066
				c0-14.606-12.693-14.606-18.113-14.606c-5.421,0-18.113,0-18.113,14.606c0,3.162,0.717,6.34,1.675,9.197
				c-2.197,3.266-3.48,7.198-3.48,11.429c0,5.51,2.158,10.496,5.686,14.184h29.665c3.513-3.689,5.685-8.674,5.685-14.184
				C108.659,363.477,107.036,359.126,104.338,355.654z"/>
			<path style="fill:#E6E6E6;" d="M129.115,355.02c-0.454-1.586-0.755-3.2-0.755-4.707c0-6.247,5.015-7.527,12.545-7.527
				c7.53,0,12.545,1.28,12.545,7.527c0,1.277-0.214,2.632-0.556,3.981c-3.179-2.42-7.135-3.874-11.443-3.874
				C136.732,350.419,132.427,352.16,129.115,355.02z M156.387,357.747c0.711-2.354,1.214-4.9,1.214-7.435
				c0-13.463-11.699-13.463-16.696-13.463c-4.996,0-16.695,0-16.695,13.463c0,2.915,0.661,5.844,1.544,8.477
				c-2.025,3.011-3.208,6.634-3.208,10.535c0,5.079,1.989,9.674,5.241,13.074h27.343c3.238-3.4,5.24-7.995,5.24-13.074
				C160.37,364.958,158.875,360.948,156.387,357.747z"/>
			<path style="fill:#E6E6E6;" d="M183.48,357.345c-0.415-1.452-0.691-2.929-0.691-4.308c0-5.717,4.589-6.888,11.48-6.888
				c6.891,0,11.48,1.171,11.48,6.888c0,1.169-0.196,2.408-0.508,3.643c-2.909-2.215-6.529-3.545-10.471-3.545
				C190.451,353.135,186.511,354.728,183.48,357.345z M208.436,359.84c0.65-2.154,1.111-4.484,1.111-6.803
				c0-12.32-10.706-12.32-15.278-12.32c-4.572,0-15.278,0-15.278,12.32c0,2.667,0.605,5.348,1.413,7.757
				c-1.853,2.755-2.936,6.071-2.936,9.64c0,4.648,1.82,8.853,4.796,11.964h25.022c2.963-3.111,4.795-7.316,4.795-11.964
				C212.081,366.439,210.713,362.769,208.436,359.84z"/>
			<path style="fill:#E6E6E6;" d="M237.845,359.669c-0.377-1.317-0.626-2.657-0.626-3.908c0-5.186,4.163-6.249,10.415-6.249
				c6.251,0,10.415,1.062,10.415,6.249c0,1.06-0.178,2.185-0.461,3.305c-2.639-2.009-5.924-3.216-9.5-3.216
				C244.169,355.85,240.595,357.295,237.845,359.669z M260.486,361.933c0.59-1.954,1.008-4.068,1.008-6.172
				c0-11.177-9.712-11.177-13.86-11.177s-13.86,0-13.86,11.177c0,2.42,0.548,4.851,1.282,7.037
				c-1.681,2.499-2.663,5.508-2.663,8.746c0,4.217,1.651,8.031,4.351,10.854h22.7c2.688-2.822,4.35-6.637,4.35-10.854
				C263.793,367.919,262.551,364.591,260.486,361.933z"/>
			<path style="fill:#E6E6E6;" d="M289.781,361.994c-0.338-1.182-0.563-2.385-0.563-3.508c0-4.656,3.738-5.61,9.349-5.61
				c5.612,0,9.349,0.954,9.349,5.61c0,0.952-0.16,1.961-0.414,2.967c-2.369-1.804-5.318-2.887-8.528-2.887
				C295.458,358.565,292.25,359.863,289.781,361.994z M310.106,364.026c0.53-1.754,0.905-3.651,0.905-5.541
				c0-10.034-8.719-10.034-12.443-10.034c-3.724,0-12.443,0-12.443,10.034c0,2.172,0.492,4.355,1.151,6.318
				c-1.509,2.244-2.391,4.944-2.391,7.851c0,3.785,1.482,7.21,3.906,9.744h20.378c2.413-2.534,3.905-5.958,3.905-9.744
				C313.075,369.4,311.96,366.412,310.106,364.026z"/>
		</g>
		<g>
			<g>
				<g>
					<rect x="26.247" y="100.333" style="fill:#F5F5F5;" width="221.975" height="160.889"/>
					<rect x="84" y="185" style="fill:#FAFAFA;" width="164.222" height="76.222"/>
					
						<rect x="25.444" y="100.333" transform="matrix(-1 -1.224647e-16 1.224647e-16 -1 51.6915 361.5555)" style="fill:#E6E6E6;" width="0.803" height="160.889"/>
				</g>
				<polygon style="fill:#FFFFFF;" points="140.464,100.333 95.892,100.333 50.458,261.222 95.03,261.222 				"/>
				<polygon style="fill:#FFFFFF;" points="162.558,100.333 147.041,100.333 101.607,261.222 117.125,261.222 				"/>
			</g>
			<g>
				<g>
					<rect x="252.581" y="100.333" style="fill:#F5F5F5;" width="221.975" height="160.889"/>
					<rect x="324.069" y="153.444" style="fill:#FAFAFA;" width="102.042" height="76.222"/>
					
						<rect x="449.222" y="153.444" transform="matrix(-1 -1.224647e-16 1.224647e-16 -1 923.7778 383.1111)" style="fill:#FAFAFA;" width="25.333" height="76.222"/>
					
						<rect x="251.778" y="100.333" transform="matrix(-1 -1.224647e-16 1.224647e-16 -1 504.3583 361.5555)" style="fill:#E6E6E6;" width="0.803" height="160.889"/>
				</g>
				<polygon style="fill:#FFFFFF;" points="344.496,100.333 320.484,100.333 275.051,261.222 299.062,261.222 				"/>
				<polygon style="fill:#FFFFFF;" points="374.972,100.333 350.96,100.333 305.526,261.222 329.538,261.222 				"/>
			</g>
		</g>
		<g>
			<rect x="32.692" y="283.667" style="fill:#EBEBEB;" width="442.086" height="8.667"/>
			<rect x="32.692" y="283.667" style="fill:#E0E0E0;" width="8.667" height="8.667"/>
		</g>
		<g>
			<g>
				<path style="fill:#E0E0E0;" d="M353.839,307.444c0.271,0,0.541,0,0.813,0.01h0.155c20.31,0.512,38.391,17.094,40.626,37.473
					c2.234,20.37-12.211,36.951-32.408,37.463h-0.154c-0.27,0.01-0.54,0.01-0.811,0.01c-20.688,0-39.313-16.784-41.582-37.473
					C318.207,324.229,333.15,307.444,353.839,307.444z M359.04,351.15c3.43,0,5.917-2.793,5.54-6.223
					c-0.377-3.44-3.475-6.223-6.905-6.223c-3.44,0-5.918,2.783-5.54,6.223C352.511,348.357,355.6,351.15,359.04,351.15z"/>
				<path style="fill:#F0F0F0;" d="M354.651,307.454h0.155c0.27-0.01,0.54-0.01,0.811-0.01c20.698,0,39.314,16.785,41.583,37.483
					c2.269,20.689-12.665,37.473-33.364,37.473c-0.271,0-0.541,0-0.813-0.01h-0.154c-20.31-0.512-38.391-17.094-40.625-37.463
					C320.01,324.548,334.454,307.966,354.651,307.454z M360.41,351.15c3.43,0,5.917-2.793,5.54-6.223
					c-0.377-3.44-3.475-6.223-6.905-6.223c-3.44,0-5.918,2.783-5.54,6.223C353.88,348.357,356.97,351.15,360.41,351.15z"/>
				<path style="fill:#E6E6E6;" d="M335.418,324.335c4.846-5.063,11.763-8.165,19.745-8.165c16.659,0,31.648,13.499,33.475,30.158
					c0.871,7.943-1.402,15.151-5.807,20.534c5.224-5.498,8.002-13.296,7.054-21.935c-1.828-16.669-16.807-30.168-33.466-30.168
					C347.722,314.759,340.28,318.441,335.418,324.335z"/>
			</g>
			<g>
				<path style="fill:#E0E0E0;" d="M410.278,318.713c0.23,0,0.46,0,0.691,0.008h0.131c17.256,0.435,32.619,14.524,34.518,31.839
					c1.898,17.307-10.375,31.396-27.536,31.831h-0.131c-0.229,0.008-0.459,0.008-0.689,0.008c-17.578,0-33.403-14.261-35.331-31.839
					C380.003,332.974,392.7,318.713,410.278,318.713z M414.698,355.848c2.915,0,5.027-2.373,4.708-5.287
					c-0.32-2.923-2.953-5.287-5.867-5.287c-2.923,0-5.028,2.365-4.708,5.287C409.15,353.475,411.775,355.848,414.698,355.848z"/>
				<path style="fill:#F5F5F5;" d="M410.969,318.721h0.131c0.229-0.008,0.459-0.008,0.689-0.008
					c17.587,0,33.403,14.261,35.332,31.848c1.928,17.578-10.761,31.839-28.348,31.839c-0.23,0-0.46,0-0.691-0.008h-0.131
					c-17.256-0.435-32.619-14.524-34.517-31.831C381.535,333.245,393.808,319.156,410.969,318.721z M415.861,355.848
					c2.915,0,5.027-2.373,4.708-5.287c-0.32-2.923-2.953-5.287-5.867-5.287c-2.923,0-5.028,2.365-4.708,5.287
					C410.314,353.475,412.939,355.848,415.861,355.848z"/>
				<path style="fill:#E6E6E6;" d="M394.627,333.065c4.118-4.302,9.995-6.938,16.776-6.938c14.155,0,26.89,11.47,28.442,25.624
					c0.74,6.749-1.191,12.874-4.934,17.447c4.438-4.672,6.799-11.297,5.994-18.637c-1.553-14.163-14.281-25.633-28.435-25.633
					C405.082,324.928,398.758,328.056,394.627,333.065z"/>
			</g>
		</g>
	</g>
</g>
<g id="Background_Simple" style="display:none;">
	<g style="display:inline;">
		<path style="fill:#407BFF;" d="M277.141,200.137c40.28,3.874,85.791-12.2,121.302,15.44
			c26.664,20.754,25.632,53.321,12.034,81.899c-35.712,75.055-164.448,69.007-232.445,38.416
			c-70.425-31.684-142.079-114.244-82.46-177.988c24.572-26.273,59.733-26.196,95.533-10.773
			C221.52,160.234,245.572,197.102,277.141,200.137z"/>
		<path style="opacity:0.9;fill:#FFFFFF;" d="M277.141,200.137c40.28,3.874,85.791-12.2,121.302,15.44
			c26.664,20.754,25.632,53.321,12.034,81.899c-35.712,75.055-164.448,69.007-232.445,38.416
			c-70.425-31.684-142.079-114.244-82.46-177.988c24.572-26.273,59.733-26.196,95.533-10.773
			C221.52,160.234,245.572,197.102,277.141,200.137z"/>
	</g>
</g>
<g id="Shadow_1_">
	<ellipse id="_x3C_Path_x3E__176_" style="fill:#F5F5F5;" cx="250" cy="416.238" rx="193.889" ry="11.323"/>
</g>
<g id="Character_1_">
	<g>
		<path style="fill:#CE7A63;" d="M234.984,199.682c-3.345-2.147-7.796-1.176-9.943,2.169l-0.226,0.352l-0.419,0.653l-0.495,0.746
			c-0.331,0.506-0.671,1.014-1.022,1.517c-0.695,1.011-1.406,2.017-2.148,2.99c-1.46,1.966-3.006,3.837-4.606,5.551
			c-1.609,1.704-3.265,3.269-4.975,4.489c-0.426,0.319-0.855,0.616-1.284,0.888c-0.345-0.64-0.682-1.411-1.01-2.218
			c-0.86-2.137-1.525-4.591-2.161-7.084c-1.22-5.002-2.166-10.345-3.058-15.555l-0.02-0.122c-0.267-1.552-1.54-2.799-3.183-2.964
			c-1.974-0.197-3.734,1.242-3.931,3.216c-0.571,5.704-0.652,11.271-0.206,17.063c0.22,2.898,0.624,5.813,1.36,8.9
			c0.38,1.551,0.877,3.129,1.655,4.849c0.396,0.859,0.865,1.754,1.526,2.704c0.665,0.942,1.525,1.976,2.857,2.938
			c1.303,0.954,3.232,1.763,5.203,1.85c0.965,0.05,1.925-0.034,2.744-0.219c0.431-0.087,0.825-0.197,1.185-0.323l0.542-0.188
			l0.311-0.119c1.681-0.62,3.24-1.382,4.698-2.221c2.897-1.715,5.444-3.687,7.707-5.829c2.281-2.129,4.307-4.405,6.168-6.772
			c0.92-1.193,1.808-2.401,2.647-3.649c0.419-0.624,0.827-1.258,1.232-1.902l0.591-0.99l0.629-1.106
			C239.221,205.997,238.215,201.756,234.984,199.682z"/>
		<path style="fill:#CE7A63;" d="M202.788,195.755l5.582-5.833l-11.001-2.841c0,0-4.672,5.275-0.335,9.907L202.788,195.755z"/>
		<path style="fill:#263238;" d="M203.654,201.474l-7.162,0.459c-1.076,0.069-1.957-0.77-1.958-1.863l-0.003-3.249
			c-0.001-1.094,0.878-2.045,1.954-2.114l7.162-0.458c1.076-0.069,1.957,0.77,1.958,1.863l0.003,3.249
			C205.609,200.454,204.73,201.405,203.654,201.474z"/>
		<polygon style="fill:#CE7A63;" points="207.287,183.957 197.369,184.444 197.369,187.081 208.37,189.922 		"/>
		<path style="fill:#407BFF;" d="M224.709,202.283c-0.338,9.352,1.977,30.938,18.836,74.549l52.638-3.829
			c-1.26-7.229-12.327-38.414-14.043-72.837c-0.216-4.324-4.332-8.042-9.075-8.246c-3.003-0.129-6.443-0.197-9.781-0.084
			c-7.007,0.237-17.097,0.825-23.081,1.822c-3.904,0.651-7.625,1.6-10.388,2.392C226.806,196.912,224.816,199.324,224.709,202.283z"
			/>
		<g>
			<path style="opacity:0.3;fill:#FFFFFF;" d="M254.031,219.896c-0.238,0-0.449-0.17-0.492-0.413
				c-0.048-0.271,0.133-0.531,0.405-0.579l9.038-1.599c0.273-0.051,0.531,0.133,0.579,0.405c0.048,0.271-0.133,0.531-0.405,0.579
				l-9.037,1.599C254.089,219.893,254.06,219.896,254.031,219.896z"/>
			<path style="opacity:0.3;fill:#FFFFFF;" d="M254.164,222.036c-0.238,0-0.449-0.17-0.492-0.413
				c-0.048-0.271,0.133-0.531,0.405-0.579l9.038-1.599c0.271-0.05,0.531,0.133,0.579,0.405c0.048,0.271-0.133,0.531-0.405,0.579
				l-9.038,1.599C254.222,222.034,254.193,222.036,254.164,222.036z"/>
			<path style="opacity:0.3;fill:#FFFFFF;" d="M254.297,224.177c-0.238,0-0.449-0.171-0.492-0.413
				c-0.048-0.271,0.133-0.531,0.405-0.579l9.038-1.599c0.27-0.05,0.531,0.133,0.579,0.405c0.048,0.271-0.133,0.531-0.405,0.579
				l-9.038,1.599C254.355,224.174,254.326,224.177,254.297,224.177z"/>
		</g>
		<path style="opacity:0.3;fill:#FFFFFF;" d="M290.361,273.833c-0.239,0-0.45-0.171-0.492-0.414c-0.293-1.68-1.12-4.66-2.264-8.784
			c-3.66-13.192-10.472-37.749-11.786-64.114c-0.014-0.276,0.199-0.511,0.475-0.524c0.267-0.026,0.51,0.199,0.524,0.475
			c1.309,26.255,8.102,50.742,11.75,63.896c1.152,4.152,1.984,7.152,2.286,8.88c0.047,0.272-0.135,0.531-0.407,0.579
			C290.418,273.831,290.389,273.833,290.361,273.833z"/>
		<path style="opacity:0.4;" d="M282.752,208.491c-4.93-2.238-9.649-3.634-8.996-0.011c1.717,9.517,7.5,17.36,11.965,21.337
			C284.48,223.092,283.428,215.913,282.752,208.491z"/>
		<path style="fill:#CE7A63;" d="M312.155,195.949l4.261-6.899l-11.793-2.24c0,0-3.473,6.208,2.008,10.971L312.155,195.949z"/>
		<polygon style="fill:#CE7A63;" points="315.172,183.552 305.111,183.722 304.622,186.81 316.415,189.05 		"/>
		<g>
			<g>
				<path style="fill:#407BFF;" d="M147.731,221.425c-8.001,0-14.487-14.548-14.487-32.493c0-17.945,6.486-32.493,14.487-32.493
					h5.433v64.986H147.731z"/>
				<g>
					<ellipse style="fill:#407BFF;" cx="153.164" cy="188.932" rx="14.487" ry="32.493"/>
					<ellipse style="opacity:0.2;" cx="153.164" cy="188.932" rx="14.487" ry="32.493"/>
				</g>
			</g>
			<g>
				<path style="fill:#407BFF;" d="M156.22,221.425c-8.001,0-14.487-14.548-14.487-32.493c0-17.945,6.486-32.493,14.487-32.493
					h5.433v64.986H156.22z"/>
				<g>
					<ellipse style="fill:#407BFF;" cx="161.652" cy="188.932" rx="14.487" ry="32.493"/>
					<ellipse style="opacity:0.2;" cx="161.652" cy="188.932" rx="14.487" ry="32.493"/>
					<path style="opacity:0.2;" d="M162.89,189.92l12.67,8.07c0.35-2.66,0.55-5.46,0.57-8.35L162.89,189.92z"/>
				</g>
			</g>
		</g>
		<path style="fill:#263238;" d="M350.926,190.711H163.709c-0.979,0-1.779-0.801-1.779-1.779l0,0c0-0.979,0.801-1.779,1.779-1.779
			h187.217c0.979,0,1.779,0.801,1.779,1.779l0,0C352.706,189.911,351.905,190.711,350.926,190.711z"/>
		<path style="opacity:0.9;fill:#FFFFFF;" d="M263.28,191.84c-7,0.23-17.09,0.82-23.08,1.82c-0.88,0.14-1.76,0.31-2.61,0.48h-0.01
			c-2.25,4.92,0.38,12.23,7.46,20.48l2.08,2.42l1.27-2.93c4.53-10.39,10-17.48,15.81-20.5l3.56-1.82
			C266.28,191.77,264.77,191.79,263.28,191.84z"/>
		<path style="fill:#CE7A63;" d="M255.61,167.903c0.083,7.005,1.45,19.744,7.673,23.932c-6.489,3.367-12.245,11.195-16.724,21.478
			c-6.63-7.72-9.809-15.387-6.357-19.656c7.872-2.488,6.384-8.172,3.746-13.412L255.61,167.903z"/>
		<path style="opacity:0.2;" d="M250.857,172.939l-6.903,7.3c0.629,1.24,1.185,2.503,1.561,3.745
			c3.069-0.674,6.695-4.239,6.344-7.339C251.684,175.099,251.286,173.632,250.857,172.939z"/>
		<path style="fill:#263238;" d="M232.199,148.355c-2.69,1.475-4.936,12.176,1.374,16.305
			C239.882,168.789,238.196,145.067,232.199,148.355z"/>
		<path style="fill:#CE7A63;" d="M258.278,156.841c-0.549,9.782-0.373,15.527-5.282,20.652c-7.384,7.708-19.47,3.503-21.853-6.196
			c-2.145-8.73-0.888-23.261,8.657-27.362C249.204,139.894,258.827,147.059,258.278,156.841z"/>
		<path style="fill:#263238;" d="M233.573,150.289c-8.849-3.546-15.964-14.281-11.287-20.066c6.242-7.721,13.189,5.111,33.298,9.696
			c16.257,3.707,10.248,17.864,4.847,23.542c-3.462,0.923-6.693,1.662-6.693,1.662s-3.57-8.463-0.062-13.725
			C249.891,152.597,239.629,152.715,233.573,150.289z"/>
		<path style="fill:#263238;" d="M220.804,142.278c0,0,6.418,8.167,32.872,9.119C242,154.676,226.997,152.722,220.804,142.278z"/>
		<path style="fill:#263238;" d="M240.775,171.515c-0.115-0.02-0.197-0.123-0.189-0.242c0.009-0.129,0.12-0.228,0.249-0.221
			c3.49,0.181,5.285-2.167,5.303-2.191c0.077-0.105,0.224-0.128,0.328-0.051c0.103,0.076,0.124,0.222,0.046,0.326
			c-0.079,0.105-1.969,2.577-5.708,2.383C240.794,171.518,240.785,171.517,240.775,171.515z"/>
		<path style="fill:#CE7A63;" d="M262.749,167.511c-1.375,2.277-3.661,3.725-5.778,4.237c-3.184,0.772-2.756-1.598-1.733-4.533
			c0.921-2.642,1.832-6.719,4.961-6.184C263.281,161.557,264.32,164.908,262.749,167.511z"/>
		<path style="fill:#263238;" d="M243.47,159.903c0.004,0.795-0.414,1.45-0.934,1.461c-0.52,0.012-0.945-0.624-0.949-1.419
			c-0.004-0.795,0.414-1.45,0.934-1.461S243.466,159.107,243.47,159.903z"/>
		<path style="fill:#263238;" d="M234.23,160.104c0.004,0.795-0.414,1.45-0.934,1.461s-0.945-0.624-0.949-1.419
			c-0.004-0.795,0.414-1.45,0.934-1.461C233.801,158.673,234.226,159.308,234.23,160.104z"/>
		<path style="fill:#BA4D3C;" d="M237.338,160.435c0,0-1.785,4.629-3.765,6.888c1.415,1.282,3.805,0.628,3.805,0.628
			L237.338,160.435z"/>
		<path style="fill:#263238;" d="M247.463,155.765c-0.122,0.005-0.245-0.038-0.338-0.13c-1.464-1.429-3.112-1.08-3.181-1.065
			c-0.25,0.057-0.498-0.101-0.551-0.352c-0.053-0.251,0.105-0.501,0.356-0.56c0.089-0.021,2.198-0.49,4.032,1.3
			c0.183,0.179,0.185,0.475,0.004,0.662C247.695,155.711,247.579,155.76,247.463,155.765z"/>
		<path style="fill:#263238;" d="M234.02,155.498c0.018,0.047,0.028,0.098,0.029,0.151c0.006,0.257-0.2,0.467-0.459,0.47
			c-2.602,0.033-3.85-1.734-3.902-1.809c-0.146-0.215-0.092-0.502,0.122-0.644c0.214-0.142,0.506-0.086,0.653,0.126
			c0.045,0.064,1.033,1.425,3.105,1.399C233.774,155.188,233.952,155.316,234.02,155.498z"/>
		<path style="fill:#CE7A63;" d="M313.704,204.362c-0.381-2.926-0.878-5.708-1.652-8.616c-0.392-1.468-1.695-2.587-3.294-2.668
			c-1.985-0.101-3.675,1.426-3.777,3.41l-0.008,0.156c-0.267,5.23-0.611,10.718-1.628,15.464c-0.251,1.178-0.543,2.309-0.905,3.29
			c-0.259,0.7-0.554,1.336-0.828,1.797c-0.049-0.021-0.098-0.043-0.165-0.073c-1.479-0.581-3.291-1.8-5.048-3.217
			c-1.759-1.466-3.511-3.166-5.211-4.988c-1.687-1.839-3.355-3.768-4.954-5.779c-0.808-0.998-1.587-2.025-2.372-3.043l-1.151-1.537
			l-1.069-1.459l-0.172-0.236c-2.241-3.045-6.496-3.853-9.711-1.77c-3.337,2.162-4.289,6.621-2.127,9.958
			c0.483,0.746,0.865,1.311,1.298,1.942c0.423,0.613,0.86,1.21,1.298,1.805c0.871,1.193,1.79,2.346,2.722,3.493
			c1.879,2.281,3.866,4.502,6.038,6.617c1.091,1.057,2.214,2.097,3.394,3.11c1.195,1.003,2.444,1.974,3.766,2.909
			c2.678,1.847,5.628,3.601,9.444,4.658c1.887,0.577,5.173,1.055,8.243-0.255c1.512-0.622,2.818-1.585,3.783-2.594
			c0.977-1.014,1.652-2.057,2.172-3.042c1.035-1.978,1.494-3.768,1.822-5.47c0.317-1.698,0.469-3.3,0.538-4.865
			C314.258,210.236,314.067,207.274,313.704,204.362z"/>
		<path style="fill:#263238;" d="M259.996,275.633l-16.451,1.197c0,0-57.653,13.376-55.437,43.765
			c1.495,20.396,10.159,53.399,16.108,74.226h13.505c-0.809-20.828,0.654-52.821-4.974-73.672
			c8.74-1.604,38.759-12.338,49.361-15.883C270.87,288.524,259.996,275.633,259.996,275.633z"/>
		<path style="opacity:0.4;" d="M240.874,294.31c-11.354,8.617-12.925,19.449-11.354,22.008c4.985-1.617,10.381-3.445,15.454-5.185
			C245.04,305.051,245.526,290.779,240.874,294.31z"/>
		<path style="fill:#263238;" d="M281.744,274.049l-21.747,1.584l21.747-1.573C281.744,274.049,281.744,274.049,281.744,274.049z"/>
		<path style="fill:#263238;" d="M296.179,273.008l-36.183,2.626c0,0-27.031,20.862-26.108,31.017
			c0.148,1.633,0.369,6.093,2.489,11.728c7.277,19.346,21.78,54.54,30.643,76.442h13.726c-4.066-22.49-8.478-58.654-17.46-74.969
			c9.505-4.243,22.489-9.605,31.441-16.43C304.765,295.756,296.179,273.008,296.179,273.008z"/>
		<path style="fill:#CE7A63;" d="M209.933,414.02l8.442,0.155c0,0-0.21-7.844-0.654-19.354h-13.505
			C207.484,406.254,209.933,414.02,209.933,414.02z"/>
		<path style="fill:#263238;" d="M207.817,407.696l11.047,0.086c0.414,0.003,0.752,0.293,0.813,0.698l1.37,9.012
			c0.142,0.934-0.627,1.813-1.581,1.789c-3.98-0.099-9.722-0.377-14.731-0.416c-5.857-0.046-5.708,0.235-12.576,0.181
			c-4.153-0.032-5.012-4.242-3.247-4.609c8.034-1.67,9.28-1.806,16.413-5.971C206.1,408.013,206.944,407.69,207.817,407.696z"/>
		<path style="fill:#CE7A63;" d="M274.786,414.02l9.306,0.155c0,0-1.285-7.91-3.346-19.354H267.02
			C271.629,406.232,274.786,414.02,274.786,414.02z"/>
		<path style="fill:#263238;" d="M272.661,407.696l11.052,0.086c0.414,0.003,0.77,0.293,0.856,0.698l1.929,9.012
			c0.2,0.934-0.515,1.813-1.47,1.789c-3.986-0.099-9.746-0.377-14.757-0.416c-5.859-0.046-1.08,0.235-7.951,0.181
			c-4.155-0.032-5.259-4.171-3.533-4.609c6.475-1.642,8.808-3.315,11.429-5.971C270.831,407.844,271.788,407.69,272.661,407.696z"/>
		<g>
			<g>
				<g>
					<path style="fill:#407BFF;" d="M352.998,221.425c-8.001,0-14.487-14.548-14.487-32.493c0-17.945,6.486-32.493,14.487-32.493
						h5.433v64.986H352.998z"/>
					<path style="opacity:0.2;" d="M352.998,221.425c-8.001,0-14.487-14.548-14.487-32.493c0-17.945,6.486-32.493,14.487-32.493
						h5.433v64.986H352.998z"/>
				</g>
				<ellipse style="fill:#407BFF;" cx="358.431" cy="188.932" rx="14.487" ry="32.493"/>
			</g>
			<g>
				<g>
					<path style="fill:#407BFF;" d="M361.487,221.425c-8.001,0-14.487-14.548-14.487-32.493c0-17.945,6.486-32.493,14.487-32.493
						h5.433v64.986H361.487z"/>
					<path style="opacity:0.2;" d="M361.487,221.425c-8.001,0-14.487-14.548-14.487-32.493c0-17.945,6.486-32.493,14.487-32.493
						h5.433v64.986H361.487z"/>
				</g>
				<path style="fill:#407BFF;" d="M382.634,175.189c-1.321-6.706-3.591-12.251-6.566-16.033l0.786-0.618
					c3.072,3.907,5.41,9.598,6.761,16.458L382.634,175.189z"/>
				<path style="fill:#407BFF;" d="M384.907,188.932h-1c0-2.706-0.137-5.379-0.406-7.945l0.994-0.105
					C384.768,183.483,384.907,186.191,384.907,188.932z"/>
				<ellipse style="fill:#407BFF;" cx="366.919" cy="188.932" rx="14.487" ry="32.493"/>
			</g>
			<g>
				<g>
					<path style="fill:#407BFF;" d="M368.605,206.675c-4.369,0-7.911-7.944-7.911-17.743c0-9.799,3.542-17.743,7.911-17.743h2.967
						v35.486H368.605z"/>
					<g>
						<path style="opacity:0.2;" d="M371.574,206.676h-2.974c-4.36,0-7.905-7.945-7.905-17.738c0-9.806,3.545-17.751,7.905-17.751
							h2.974c-4.373,0-7.918,7.945-7.918,17.751C363.655,198.731,367.2,206.676,371.574,206.676z"/>
					</g>
					<ellipse style="opacity:0.1;fill:#FFFFFF;" cx="371.572" cy="188.932" rx="7.911" ry="17.743"/>
				</g>
			</g>
		</g>
	</g>
</g>
<g id="Dumbbell">
	<g>
		<g>
			<polygon style="fill:#263238;" points="425.656,321 398.169,416.238 403.222,416.238 430.709,321 			"/>
			<polygon style="fill:#263238;" points="341.838,416.238 346.891,416.238 374.378,321 369.325,321 			"/>
		</g>
		<g>
			<g>
				<g>
					<g>
						<g>
							<path style="fill:#407BFF;" d="M337.323,408.082c-11.18,0-20.242-9.063-20.242-20.242s9.063-20.242,20.242-20.242h3.081
								v40.485H337.323z"/>
							<path style="opacity:0.2;" d="M337.323,408.082c-11.18,0-20.242-9.063-20.242-20.242s9.063-20.242,20.242-20.242h3.081
								v40.485H337.323z"/>
						</g>
						<circle style="fill:#407BFF;" cx="340.404" cy="387.84" r="20.242"/>
					</g>
					<path style="opacity:0.1;" d="M337.323,367.597h3.081c11.18,0,20.242,9.063,20.242,20.243c0,11.179-9.063,20.242-20.242,20.242
						h-3.081c-11.18,0-20.242-9.063-20.242-20.242C317.08,376.66,326.143,367.597,337.323,367.597z"/>
				</g>
				<g>
					<g>
						<g>
							<path style="fill:#407BFF;" d="M342.632,408.082c-11.18,0-20.242-9.063-20.242-20.242s9.063-20.242,20.242-20.242h3.081
								v40.485H342.632z"/>
							<path style="opacity:0.2;" d="M342.632,408.082c-11.18,0-20.242-9.063-20.242-20.242s9.063-20.242,20.242-20.242h3.081
								v40.485H342.632z"/>
						</g>
						<circle style="fill:#407BFF;" cx="345.713" cy="387.84" r="20.242"/>
					</g>
					<path style="opacity:0.1;" d="M342.632,367.597h3.081c11.18,0,20.242,9.063,20.242,20.243c0,11.179-9.063,20.242-20.242,20.242
						h-3.081c-11.18,0-20.242-9.063-20.242-20.242C322.39,376.66,331.453,367.597,342.632,367.597z"/>
				</g>
				<path style="fill:#263238;" d="M348.901,392.569h34.597c0.417,0,0.756-0.339,0.756-0.756v-7.945
					c0-0.417-0.339-0.756-0.756-0.756h-34.597c-2.612,0-4.729,2.117-4.729,4.729l0,0
					C344.173,390.451,346.29,392.569,348.901,392.569z"/>
				<g>
					<g>
						<path style="fill:#407BFF;" d="M389.422,408.082c-11.18,0-20.242-9.063-20.242-20.242s9.063-20.242,20.242-20.242h3.081
							v40.485H389.422z"/>
						<path style="opacity:0.2;" d="M389.422,408.082c-11.18,0-20.242-9.063-20.242-20.242s9.063-20.242,20.242-20.242h3.081v40.485
							H389.422z"/>
					</g>
					<circle style="fill:#407BFF;" cx="392.503" cy="387.84" r="20.242"/>
				</g>
				<g>
					<g>
						<path style="fill:#407BFF;" d="M394.723,408.082c-11.18,0-20.242-9.063-20.242-20.242s9.063-20.242,20.242-20.242h3.081
							v40.485H394.723z"/>
						<path style="opacity:0.2;" d="M394.723,408.082c-11.18,0-20.242-9.063-20.242-20.242s9.063-20.242,20.242-20.242h3.081v40.485
							H394.723z"/>
					</g>
					<circle style="fill:#407BFF;" cx="397.804" cy="387.84" r="20.242"/>
				</g>
				<g>
					<g>
						<path style="opacity:0.2;" d="M396.39,398.379c-5.821,0-10.539-4.719-10.539-10.539s4.718-10.539,10.539-10.539h2.829v21.078
							H396.39z"/>
					</g>
					<circle style="fill:#407BFF;" cx="399.219" cy="387.84" r="10.539"/>
				</g>
			</g>
		</g>
		<g>
			<g>
				<g>
					<g>
						<g>
							<path style="fill:#407BFF;" d="M356.139,362.09c-9.905,0-17.934-8.029-17.934-17.934s8.029-17.934,17.934-17.934h2.73v35.868
								H356.139z"/>
							<path style="opacity:0.2;" d="M356.139,362.09c-9.905,0-17.934-8.029-17.934-17.934s8.029-17.934,17.934-17.934h2.73v35.868
								H356.139z"/>
						</g>
						
							<ellipse transform="matrix(0.0151 -0.9999 0.9999 0.0151 9.3393 697.7932)" style="fill:#407BFF;" cx="358.868" cy="344.156" rx="17.934" ry="17.934"/>
					</g>
					<path style="opacity:0.1;" d="M356.139,326.222h2.73c9.905,0,17.934,8.029,17.934,17.934c0,9.904-8.029,17.934-17.934,17.934
						h-2.73c-9.905,0-17.934-8.029-17.934-17.934C338.205,334.251,346.234,326.222,356.139,326.222z"/>
				</g>
				<g>
					<g>
						<g>
							<path style="fill:#407BFF;" d="M360.843,362.09c-9.905,0-17.934-8.029-17.934-17.934s8.029-17.934,17.934-17.934h2.73v35.868
								H360.843z"/>
							<path style="opacity:0.2;" d="M360.843,362.09c-9.905,0-17.934-8.029-17.934-17.934s8.029-17.934,17.934-17.934h2.73v35.868
								H360.843z"/>
						</g>
						
							<ellipse transform="matrix(0.0151 -0.9999 0.9999 0.0151 13.9723 702.4966)" style="fill:#407BFF;" cx="363.572" cy="344.156" rx="17.934" ry="17.934"/>
					</g>
					<path style="opacity:0.1;" d="M360.843,326.222h2.73c9.905,0,17.934,8.029,17.934,17.934c0,9.904-8.029,17.934-17.934,17.934
						h-2.73c-9.905,0-17.934-8.029-17.934-17.934C342.909,334.251,350.938,326.222,360.843,326.222z"/>
				</g>
				<path style="fill:#263238;" d="M366.363,348.312h30.69c0.367,0,0.664-0.297,0.664-0.664v-6.983c0-0.367-0.297-0.664-0.664-0.664
					h-30.69c-2.295,0-4.156,1.861-4.156,4.156v0C362.207,346.451,364.068,348.312,366.363,348.312z"/>
				<g>
					<g>
						<path style="fill:#407BFF;" d="M402.296,362.09c-9.905,0-17.934-8.029-17.934-17.934s8.029-17.934,17.934-17.934h2.73v35.868
							H402.296z"/>
						<path style="opacity:0.2;" d="M402.296,362.09c-9.905,0-17.934-8.029-17.934-17.934s8.029-17.934,17.934-17.934h2.73v35.868
							H402.296z"/>
					</g>
					<circle style="fill:#407BFF;" cx="405.026" cy="344.156" r="17.934"/>
				</g>
				<g>
					<g>
						<path style="fill:#407BFF;" d="M406.993,362.09c-9.905,0-17.934-8.029-17.934-17.934s8.029-17.934,17.934-17.934h2.73v35.868
							H406.993z"/>
						<path style="opacity:0.2;" d="M406.993,362.09c-9.905,0-17.934-8.029-17.934-17.934s8.029-17.934,17.934-17.934h2.73v35.868
							H406.993z"/>
					</g>
					<circle style="fill:#407BFF;" cx="409.722" cy="344.156" r="17.934"/>
				</g>
				<g>
					<g>
						<path style="opacity:0.2;" d="M408.469,353.493c-5.157,0-9.337-4.18-9.337-9.337s4.18-9.337,9.337-9.337h2.506v18.674H408.469
							z"/>
					</g>
					
						<ellipse transform="matrix(0.9999 -0.0162 0.0162 0.9999 -5.5218 6.7034)" style="fill:#407BFF;" cx="410.976" cy="344.156" rx="9.337" ry="9.337"/>
				</g>
			</g>
		</g>
	</g>
</g>
<g id="Bottle">
	<g>
		<g>
			<path style="fill:#407BFF;" d="M146.367,372.205c0-6.556-5.968-11.871-13.33-11.871c-7.362,0-13.33,5.315-13.33,11.871
				c0,2.701,1.016,5.186,2.724,7.177c1.512,1.763,0.96,4.484-1.08,5.596l0,0c-1.013,0.552-1.644,1.614-1.644,2.768v26.468
				c0,1.48,1.2,2.68,2.679,2.68h21.302c1.48,0,2.679-1.2,2.679-2.68v-26.468c0-1.154-0.631-2.216-1.644-2.768l0,0
				c-2.039-1.112-2.592-3.833-1.08-5.596C145.352,377.39,146.367,374.905,146.367,372.205z"/>
			<path style="opacity:0.2;fill:#FFFFFF;" d="M146.367,372.205c0-6.556-5.968-11.871-13.33-11.871
				c-7.362,0-13.33,5.315-13.33,11.871c0,2.701,1.016,5.186,2.724,7.177c1.512,1.763,0.96,4.484-1.08,5.596l0,0
				c-1.013,0.552-1.644,1.614-1.644,2.768v26.468c0,1.48,1.2,2.68,2.679,2.68h21.302c1.48,0,2.679-1.2,2.679-2.68v-26.468
				c0-1.154-0.631-2.216-1.644-2.768l0,0c-2.039-1.112-2.592-3.833-1.08-5.596C145.352,377.39,146.367,374.905,146.367,372.205z"/>
		</g>
		<g>
			<path style="fill:#263238;" d="M138.611,362.617h-11.148c-1.256,0-2.284-1.028-2.284-2.284l0,0c0-1.256,1.028-2.284,2.284-2.284
				h11.148c1.256,0,2.284,1.028,2.284,2.284l0,0C140.895,361.589,139.867,362.617,138.611,362.617z"/>
			<path style="fill:#263238;" d="M135.22,360.333h-4.365c-0.791,0-1.438-0.647-1.438-1.438v-3.859c0-0.791,0.647-1.438,1.438-1.438
				h4.365c0.791,0,1.438,0.647,1.438,1.438v3.859C136.658,359.686,136.011,360.333,135.22,360.333z"/>
		</g>
	</g>
</g>
</svg>
