<svg width="23" height="18" viewBox="0 0 23 18" fill="none" xmlns="http://www.w3.org/2000/svg">
<path d="M9.9 0.898045L6.6 12.898L5.5 8.39805C6.93333 8.39805 8.1 8.81471 9 9.64805C9.9 10.4814 10.35 11.6314 10.35 13.098C10.35 14.5314 9.88333 15.698 8.95 16.598C8.05 17.4647 6.91667 17.898 5.55 17.898C4.15 17.898 2.98333 17.4647 2.05 16.598C1.15 15.698 0.7 14.5314 0.7 13.098C0.7 12.6647 0.733333 12.248 0.8 11.848C0.866667 11.4147 1 10.9147 1.2 10.348C1.4 9.78138 1.68333 9.03138 2.05 8.09804L4.95 0.898045H9.9ZM21.7 0.898045L18.4 12.898L17.3 8.39805C18.7333 8.39805 19.9 8.81471 20.8 9.64805C21.7 10.4814 22.15 11.6314 22.15 13.098C22.15 14.5314 21.6833 15.698 20.75 16.598C19.85 17.4647 18.7167 17.898 17.35 17.898C15.95 17.898 14.7833 17.4647 13.85 16.598C12.95 15.698 12.5 14.5314 12.5 13.098C12.5 12.6647 12.5333 12.248 12.6 11.848C12.6667 11.4147 12.8 10.9147 13 10.348C13.2 9.78138 13.4833 9.03138 13.85 8.09804L16.75 0.898045H21.7Z" fill="url(#paint0_linear_2961_405)"/>
<defs>
<linearGradient id="paint0_linear_2961_405" x1="2" y1="1.49805" x2="24" y2="16.998" gradientUnits="userSpaceOnUse">
<stop stop-color="#3CA3F4"/>
<stop offset="1" stop-color="#0842A9"/>
</linearGradient>
</defs>
</svg>
