<svg xmlns="http://www.w3.org/2000/svg" viewBox="0 0 500 500">
    <g id="freepik--background-complete--inject-97">
        <rect y="382.4" width="500" height="0.25" style="fill:#224f9c"></rect>
        <rect x="416.78" y="398.49" width="33.12" height="0.25" style="fill:#224f9c"></rect>
        <rect x="322.53" y="401.21" width="8.69" height="0.25" style="fill:#224f9c"></rect>
        <rect x="396.59" y="389.21" width="19.19" height="0.25" style="fill:#224f9c"></rect>
        <rect x="52.46" y="390.89" width="43.19" height="0.25" style="fill:#224f9c"></rect>
        <rect x="104.56" y="390.89" width="6.33" height="0.25" style="fill:#224f9c"></rect>
        <rect x="131.47" y="395.11" width="93.68" height="0.25" style="fill:#224f9c"></rect>
        <path
            d="M237,337.8H43.91a5.71,5.71,0,0,1-5.7-5.71V60.66A5.71,5.71,0,0,1,43.91,55H237a5.71,5.71,0,0,1,5.71,5.71V332.09A5.71,5.71,0,0,1,237,337.8ZM43.91,55.2a5.46,5.46,0,0,0-5.45,5.46V332.09a5.46,5.46,0,0,0,5.45,5.46H237a5.47,5.47,0,0,0,5.46-5.46V60.66A5.47,5.47,0,0,0,237,55.2Z"
            style="fill:#224f9c"></path>
        <path
            d="M453.31,337.8H260.21a5.72,5.72,0,0,1-5.71-5.71V60.66A5.72,5.72,0,0,1,260.21,55h193.1A5.71,5.71,0,0,1,459,60.66V332.09A5.71,5.71,0,0,1,453.31,337.8ZM260.21,55.2a5.47,5.47,0,0,0-5.46,5.46V332.09a5.47,5.47,0,0,0,5.46,5.46h193.1a5.47,5.47,0,0,0,5.46-5.46V60.66a5.47,5.47,0,0,0-5.46-5.46Z"
            style="fill:#224f9c"></path>
        <rect x="373.68" y="230.34" width="19.37" height="107.46" style="fill:#224f9c"></rect>
        <rect x="345.3" y="162.1" width="28.25" height="175.7" style="fill:#224f9c"></rect>
        <rect x="407.54" y="200.71" width="22.04" height="137.09" style="fill:#224f9c"></rect>
        <rect x="149.96" y="115.47" width="18.09" height="222.33" style="fill:#224f9c"></rect>
        <rect x="221.88" y="134.21" width="32.73" height="203.59" style="fill:#224f9c"></rect>
        <polygon
            points="283.52 320.36 259.49 320.36 259.49 188.56 271.5 172.57 283.52 188.56 283.52 320.36"
            style="fill:#224f9c"></polygon>
        <polygon
            points="135.68 337.8 102.94 337.8 102.94 158.28 119.31 142.63 135.68 158.28 135.68 337.8"
            style="fill:#224f9c"></polygon>
        <polygon points="345.44 320.36 318.06 320.36 318.06 170.19 345.17 131.14 345.44 320.36"
            style="fill:#224f9c"></polygon>
        <rect x="182.29" y="91.56" width="39.59" height="246.24" style="fill:#555"></rect>
        <rect x="322.18" y="194.82" width="22.99" height="142.98" style="fill:#224f9c"></rect>
        <rect x="393.06" y="294.17" width="33.78" height="43.63" style="fill:#224f9c"></rect>
        <path d="M314.19,335.93H288.44V228.39c0-9.27,2.44-18.13,6.74-24.49l19-14.9Z"
            style="fill:#224f9c"></path>
        <polygon points="56.24 337.8 81.99 337.8 81.99 208.95 56.24 190.75 56.24 337.8"
            style="fill:#555"></polygon>
        <rect x="254.61" y="294.17" width="33.78" height="43.63" style="fill:#224f9c"></rect>
        <polygon
            points="322.18 337.8 288.4 337.8 288.4 269.53 305.29 259.09 322.18 269.53 322.18 337.8"
            style="fill:#555"></polygon>
        <polygon
            points="182.29 337.8 135.37 337.8 135.37 246.54 159.47 232.58 182.29 246.54 182.29 337.8"
            style="fill:#224f9c"></polygon>
        <rect x="426.71" y="257.35" width="17.18" height="80.45" style="fill:#224f9c"></rect>
        <rect x="75.81" y="257.35" width="27.14" height="80.45" style="fill:#224f9c"></rect>
        <path
            d="M354,258.07c6.25-6.28,14.6-7.13,18.65-1.89s2.26,14.58-4,20.86-14.61,7.12-18.65,1.88S347.77,264.35,354,258.07Z"
            style="fill:#555"></path>
        <ellipse cx="342.69" cy="247.45" rx="40.56" ry="29.82"
            transform="translate(-70.27 337.64) rotate(-48.15)" style="fill:#224f9c"></ellipse>
        <path
            d="M395.58,225.89c11.53-10.89,26.93-12.36,34.39-3.27s4.17,25.3-7.36,36.19-26.92,12.37-34.39,3.28S384.06,236.79,395.58,225.89Z"
            style="fill:#555"></path>
        <path
            d="M408.17,247.21c11.53-10.9,26.93-12.36,34.39-3.27s4.17,25.29-7.36,36.19-26.92,12.36-34.39,3.27S396.64,258.11,408.17,247.21Z"
            style="fill:#224f9c"></path>
        <path
            d="M370.27,213.8c15.9-15,37.14-17.05,47.43-4.52s5.75,34.88-10.15,49.91-37.14,17.06-47.43,4.52S354.37,228.83,370.27,213.8Z"
            style="fill:#555"></path>
        <path
            d="M339.65,238.83c8.65-8.69,20.2-9.86,25.8-2.61s3.13,20.16-5.52,28.85-20.2,9.86-25.8,2.61S331,247.51,339.65,238.83Z"
            style="fill:#555"></path>
        <ellipse cx="418.37" cy="277.23" rx="16.21" ry="11.77"
            transform="translate(-52.56 450.77) rotate(-53.76)" style="fill:#555"></ellipse>
        <path
            d="M410.39,291.3l-11,9.17c.87,12.93,1.59,42.71,1.59,42.71L404.92,364l-34.42.29s1.57-17.58,1.57-18.54,6.65-34.64,6.65-34.64l2.34-18.87-17.74-4.86L360.08,279l-13-6.63-6.38-8.8,2.47-.53,7,8.12,8.22,1.6-3.52-7.48h3.91l9.78,17.34,12.6,2.32-1.65-24.35c12.13,3.42,13.3-2.81,13.3-2.81s4.16,32.76,5.62,36.5l6.5-2.95,7-10h3.13Z"
            style="fill:#e0e0e0"></path>
        <path
            d="M89.64,272.47c5.39-5.42,12.58-6.15,16.07-1.63s2,12.57-3.44,18S89.69,295,86.2,290.44,84.25,277.88,89.64,272.47Z"
            style="fill:#555"></path>
        <ellipse cx="79.87" cy="263.31" rx="34.96" ry="25.71"
            transform="translate(-169.56 147.14) rotate(-48.15)" style="fill:#224f9c"></ellipse>
        <ellipse cx="137.12" cy="258.92" rx="24.83" ry="18.26"
            transform="translate(-147.24 188.33) rotate(-48.15)" style="fill:#555"></ellipse>
        <ellipse cx="147.97" cy="277.3" rx="24.83" ry="18.26"
            transform="translate(-157.32 202.53) rotate(-48.15)" style="fill:#224f9c"></ellipse>
        <ellipse cx="119.71" cy="253.87" rx="34.25" ry="25.18"
            transform="translate(-149.27 173.67) rotate(-48.15)" style="fill:#555"></ellipse>
        <path
            d="M77.25,255.88c7.46-7.49,17.41-8.5,22.24-2.25s2.7,17.38-4.76,24.87-17.41,8.5-22.24,2.25S69.79,263.37,77.25,255.88Z"
            style="fill:#555"></path>
        <path
            d="M138.79,280.81c5.39-5.41,12.59-6.14,16.08-1.63s1.95,12.57-3.44,18-12.59,6.14-16.08,1.63S133.4,286.22,138.79,280.81Z"
            style="fill:#555"></path>
        <path
            d="M138.23,301.12l-9.46,7.9c.76,11.15,1.38,36.82,1.38,36.82l3.36,18-29.66.24s1.35-15.15,1.35-16,5.73-29.86,5.73-29.86l2-16.26-15.29-4.19-2.8-7.25-11.24-5.72-5.5-7.58,2.13-.47,6.07,7,7.08,1.38-3-6.45h3.38l8.42,14.94,10.86,2-1.42-21c10.46,2.95,11.47-2.43,11.47-2.43s3.58,28.25,4.85,31.46l5.59-2.53,6.08-8.61h2.69Z"
            style="fill:#e0e0e0"></path>
        <path
            d="M442.87,368.59v13.7h-386v-13.7a4.08,4.08,0,0,1,4-4.3H438.83A4.08,4.08,0,0,1,442.87,368.59Z"
            style="fill:#224f9c"></path>
        <rect x="78.87" y="364.29" width="24" height="18" style="fill:#224f9c"></rect>
        <rect x="124.87" y="364.29" width="23" height="18" style="fill:#224f9c"></rect>
        <rect x="169.87" y="364.29" width="24" height="18" style="fill:#224f9c"></rect>
        <rect x="215.87" y="364.29" width="23" height="18" style="fill:#224f9c"></rect>
        <rect x="260.87" y="364.29" width="23" height="18" style="fill:#224f9c"></rect>
        <rect x="305.87" y="364.29" width="24" height="18" style="fill:#224f9c"></rect>
        <rect x="351.87" y="364.29" width="23" height="18" style="fill:#224f9c"></rect>
        <rect x="396.87" y="364.29" width="24" height="18" style="fill:#224f9c"></rect>
        <path
            d="M350.06,100.52a8.79,8.79,0,0,0-11.35-8.44A18.67,18.67,0,0,0,316.79,71a16.32,16.32,0,0,0-30.26,8.25l-.27,0a15,15,0,0,0,0,30.09H341.5v0A8.81,8.81,0,0,0,350.06,100.52Z"
            style="fill:#224f9c"></path>
        <path
            d="M410.7,148.1a3.43,3.43,0,0,0-3.43-3.42,3.19,3.19,0,0,0-1,.15,7.45,7.45,0,0,0,.08-1.06,7.25,7.25,0,0,0-7.25-7.24,7.42,7.42,0,0,0-1.34.12,6.33,6.33,0,0,0-11.74,3.2h-.11a5.84,5.84,0,0,0,0,11.68h21.44A3.42,3.42,0,0,0,410.7,148.1Z"
            style="fill:#224f9c"></path>
        <path
            d="M131.27,118.44a5.63,5.63,0,0,0-5.63-5.63,5.7,5.7,0,0,0-1.61.24,12.26,12.26,0,0,0,.12-1.73A11.92,11.92,0,0,0,112.23,99.4a11.47,11.47,0,0,0-2.2.21,10.42,10.42,0,0,0-19.32,5.26h-.17a9.6,9.6,0,0,0,0,19.2H125.8A5.61,5.61,0,0,0,131.27,118.44Z"
            style="fill:#224f9c"></path>
    </g>
    <g id="freepik--Shadow--inject-97">
        <ellipse id="freepik--path--inject-97" cx="250" cy="416.24" rx="193.89" ry="11.32"
            style="fill:#224f9c"></ellipse>
    </g>
    <g id="freepik--character-2--inject-97">
        <g id="freepik--group--inject-97">
            <polygon points="391.75 390.78 381.03 391.35 385.05 409.26 393.39 408.91 391.75 390.78"
                style="fill:#e4897b"></polygon>
            <polygon points="391.75 390.78 381.03 391.35 383.36 401.7 392.71 401.27 391.75 390.78"
                style="opacity:0.2;isolation:isolate"></polygon>
            <polygon points="316.17 410.12 324.27 409.8 328.42 391.02 316.85 391.47 316.17 410.12"
                style="fill:#e4897b"></polygon>
            <polygon points="316.85 391.48 328.42 391.04 325.91 402.36 316.43 402.72 316.85 391.48"
                style="opacity:0.2;isolation:isolate"></polygon>
            <path
                d="M394.55,408.67H384.7a.72.72,0,0,0-.69.56l-1.6,7.22a1.2,1.2,0,0,0,.92,1.42,1.23,1.23,0,0,0,.27,0c3.18-.05,5.5-.24,9.51-.24,2.46,0,9.9.25,13.3.25s3.85-3.36,2.46-3.67c-6.25-1.36-11-3.25-13-5A2,2,0,0,0,394.55,408.67Z"
                style="fill:#263238"></path>
            <path
                d="M395.11,409.8a.2.2,0,0,1-.15-.17.18.18,0,0,1,.09-.18c.29-.19,2.91-1.8,3.81-1.33a.55.55,0,0,1,.33.53,1.13,1.13,0,0,1-.4,1,2.48,2.48,0,0,1-1.56.42A10,10,0,0,1,395.11,409.8Zm.55-.27a3.91,3.91,0,0,0,2.89-.15.78.78,0,0,0,.26-.69c0-.15-.07-.22-.12-.22a.57.57,0,0,0-.25-.06A8,8,0,0,0,395.66,409.53Z"
                style="fill:#3CA3F4"></path>
            <path
                d="M395.05,409.84a.24.24,0,0,1-.09-.18c0-.11.21-2.44,1.15-3.21a1,1,0,0,1,.81-.24.63.63,0,0,1,.62.5c.17.86-1.45,2.64-2.29,3.1h-.09A.2.2,0,0,1,395.05,409.84Zm1.3-3.16a4.53,4.53,0,0,0-1,2.54c.83-.63,1.86-2,1.76-2.51,0,0,0-.19-.28-.19h-.09A.7.7,0,0,0,396.35,406.68Z"
                style="fill:#3CA3F4"></path>
            <path
                d="M326.32,408.41h-9.85a.73.73,0,0,0-.69.56l-1.6,7.22a1.21,1.21,0,0,0,.93,1.42,1.09,1.09,0,0,0,.26,0c3.19-.06,5.51-.25,9.51-.25,2.46,0,9.9.26,13.3.26s3.85-3.37,2.46-3.68c-6.25-1.36-11-3.24-13-5A2,2,0,0,0,326.32,408.41Z"
                style="fill:#263238"></path>
            <path
                d="M326.88,409.54a.18.18,0,0,1-.14-.17.16.16,0,0,1,.09-.18c.29-.19,2.91-1.8,3.8-1.33a.57.57,0,0,1,.33.53,1.13,1.13,0,0,1-.4,1,2.45,2.45,0,0,1-1.56.41A9.51,9.51,0,0,1,326.88,409.54Zm.56-.27a3.93,3.93,0,0,0,2.88-.14.8.8,0,0,0,.26-.69c0-.16-.07-.23-.12-.23a.43.43,0,0,0-.25,0A7.87,7.87,0,0,0,327.44,409.27Z"
                style="fill:#3CA3F4"></path>
            <path
                d="M326.83,409.58a.18.18,0,0,1-.09-.18c0-.11.2-2.44,1.14-3.2a1,1,0,0,1,.81-.25.62.62,0,0,1,.62.5c.17.86-1.45,2.65-2.29,3.1h-.09A.19.19,0,0,1,326.83,409.58Zm1.3-3.16a4.54,4.54,0,0,0-1,2.54c.83-.63,1.87-2,1.76-2.51,0-.05,0-.19-.28-.19h-.09A.67.67,0,0,0,328.13,406.42Z"
                style="fill:#3CA3F4"></path>
            <path
                d="M393.74,384.79a4.79,4.79,0,0,1-4.12,4.83l-6.83,1a4.78,4.78,0,0,1-5.38-3.93C375.24,374,368.67,337.2,360,304.51c-4.43-16.69-9.4-32.3-14.61-43.11a1019.48,1019.48,0,0,1-13.94,127.43,4.78,4.78,0,0,1-4.71,3.95h-6.89a4.77,4.77,0,0,1-4.78-4.87c.43-21,1.83-104.74-2-152.4l44.68-25.71S390.63,253,393.74,384.79Z"
                style="fill:#263238"></path>
            <polygon points="380.47 390.32 381.13 393.75 392.6 391.97 392.17 388.41 380.47 390.32"
                style="fill:#3CA3F4"></polygon>
            <path
                d="M336.56,240.85s2.23-8.54,1.44-14.08c0,0-3.67,10.76-6,8.23-3.09-3.34,6-8.23,6-8.23s5.65-3.42,7.82-1.35c5.26,5-7.82,1.35-7.82,1.35s3.57,7.75,6.47,10.65"
                style="fill:none;stroke:#fff;stroke-linecap:round;stroke-linejoin:round"></path>
            <path
                d="M319.17,392.28a.25.25,0,0,1-.12,0c-3.89-1-3.65-5.62-3-19.26.39-7.76.93-18.4,1-33,.26-81.14-3.37-107.13-3.41-107.38a.5.5,0,0,1,1-.15c0,.26,3.68,26.29,3.42,107.54-.05,14.66-.59,25.31-1,33.08-.66,13-.88,17.43,2.21,18.25a.5.5,0,0,1,.36.61A.5.5,0,0,1,319.17,392.28Z"
                style="fill:#fff"></path>
            <path
                d="M360,304.51c-4.43-16.69-9.4-32.3-14.61-43.11a19.92,19.92,0,0,0,8-11.63S362.38,282.64,360,304.51Z"
                style="opacity:0.2;isolation:isolate"></path>
            <polygon points="315.95 390.39 315.95 394.61 328.42 395.65 329.32 392.01 315.95 390.39"
                style="fill:#3CA3F4"></polygon>
            <path
                d="M292.17,129.55l-12.61,4.35s-1.31-2.18-8.23,4.55-7.32,8.75-3.56,9.72,6.13,1.83,8.11,1.2,8.06-7.16,7.79-7.76a4.78,4.78,0,0,1,0-2l11.19-3.9Z"
                style="fill:#e4897b"></path>
            <path
                d="M327.14,176.94,320.92,174l-11.38-5.34c1.7-17,.41-24.06-6-26.33a53.9,53.9,0,0,0-15.69-2.88L284.49,131s17-4.63,28.54,0c8.74,3.49,13.62,17.16,14.83,29.88h0A52.23,52.23,0,0,1,327.14,176.94Z"
                style="fill:#3CA3F4"></path>
            <path
                d="M327.14,176.94,320.92,174c3.23-3.72,5.54-9.16,6.94-13.17A52.23,52.23,0,0,1,327.14,176.94Z"
                style="opacity:0.2;isolation:isolate"></path>
            <path
                d="M357.71,209.8s-16.28,12.13-44.43,29.59c0,0-3.63-6.56-8.6-14.75-3.72-6.13-8.19-13.17-12.44-19a73.07,73.07,0,0,0-8.1-9.75s22.39-12.19,25.4-27.17C309.54,168.68,331.38,170.47,357.71,209.8Z"
                style="fill:#3CA3F4"></path>
            <path
                d="M308.53,183.94c-2.44,3.43-8.64,8.22-14.66,8.29a8.58,8.58,0,0,0-1-5.5c-2.3-4.55-7.59-8.89-11.21-11.38l16.57-4.44c.26.57.85,2.9,1.29,4.07a3.32,3.32,0,0,0,.25.59,8.55,8.55,0,0,0,2.81,3c2,1.17,4-.08,6.95-2.56C311.88,176.54,309.69,182.3,308.53,183.94Z"
                style="fill:#e4897b"></path>
            <path
                d="M299.49,175a13,13,0,0,1-6.65,11.75c-2.3-4.55-7.59-8.89-11.21-11.38l16.57-4.44C298.46,171.48,299.05,173.81,299.49,175Z"
                style="opacity:0.2;isolation:isolate"></path>
            <path
                d="M277.88,156.89a6.47,6.47,0,0,0-4.3,8.12c1,3.1,2.75,6.45,5.92,7.92,6.64,3.08,2.66-17.33,2.66-17.33Z"
                style="fill:#263238"></path>
            <path
                d="M277.88,156.89a6.47,6.47,0,0,0-4.3,8.12c1,3.1,2.75,6.45,5.92,7.92,6.64,3.08,2.66-17.33,2.66-17.33Z"
                style="fill:#fff;opacity:0.5"></path>
            <path
                d="M298.1,178.35a10.15,10.15,0,0,1-10.68,6.09,11.43,11.43,0,0,1-8.06-4.87c-4.17-6.15-7.37-17.69-1.14-23.47,4.41-4.15,12.92-5.86,17.07-1.43,1.19,1.25.5,4.69,1,6.35C298.68,168.69,300.45,173.08,298.1,178.35Z"
                style="fill:#e4897b"></path>
            <path
                d="M285.68,167.43c.27.59.1,1.23-.31,1.38s-.91-.23-1.14-.83-.09-1.23.3-1.38S285.44,166.82,285.68,167.43Z"
                style="fill:#263238"></path>
            <path
                d="M278.76,170.05a1,1,0,0,1-.3,1.38c-.4.15-.91-.23-1.15-.84s-.09-1.23.31-1.38S278.54,169.47,278.76,170.05Z"
                style="fill:#263238"></path>
            <path d="M281.08,169.52a23.51,23.51,0,0,1-.95,6.34,3.79,3.79,0,0,0,3.15-.57Z"
                style="fill:#de5753"></path>
            <path
                d="M275.08,168.06a.41.41,0,0,0,.38-.14,3.07,3.07,0,0,1,2.46-1.28.39.39,0,0,0,.41-.35.38.38,0,0,0-.35-.41h0a3.79,3.79,0,0,0-3.12,1.57.37.37,0,0,0,.06.53h0A.61.61,0,0,0,275.08,168.06Z"
                style="fill:#263238"></path>
            <path
                d="M286,164.15a.35.35,0,0,0,.17-.15.38.38,0,0,0-.22-.49h0a3.78,3.78,0,0,0-3.48.39.38.38,0,0,0-.08.53h0a.4.4,0,0,0,.54.08h0a3.12,3.12,0,0,1,2.77-.27A.39.39,0,0,0,286,164.15Z"
                style="fill:#263238"></path>
            <path
                d="M292.43,152.72c-2.46-.21-3.81,3.08-2.8,5.34a5.2,5.2,0,0,1,.57,1.92c-.17,3.19,2.87,7.06,5.61,8.11,0,0-.33-1.25.8-1.3s2.91,6.44,1.88,10.14c0,0,2.16-3.75,1.71-11a31.56,31.56,0,0,0-1.3-8.51C298.06,154.86,294.42,152.89,292.43,152.72Z"
                style="fill:#263238"></path>
            <path
                d="M292.43,152.72c-2.46-.21-3.81,3.08-2.8,5.34a5.2,5.2,0,0,1,.57,1.92c-.17,3.19,2.87,7.06,5.61,8.11,0,0-.33-1.25.8-1.3s2.91,6.44,1.88,10.14c0,0,2.16-3.75,1.71-11a31.56,31.56,0,0,0-1.3-8.51C298.06,154.86,294.42,152.89,292.43,152.72Z"
                style="fill:#fff;opacity:0.5"></path>
            <path
                d="M301.9,165.94a7.63,7.63,0,0,1-2.73,5.16c-2.08,1.7-4.19.1-4.51-2.42-.27-2.24.44-5.89,3-6.59S302.1,163.46,301.9,165.94Z"
                style="fill:#e4897b"></path>
            <path
                d="M293.12,165.21s.25,3.73-1.79,6.25-5.13.95-8.7,4.88a5.87,5.87,0,0,0-3,.85c-1.25.87-3-2.12-3.64-4.52,0,0-.43,16.25,11.64,13.1s12.28-9,7-18.88Z"
                style="fill:#263238"></path>
            <path
                d="M293.12,165.21s.25,3.73-1.79,6.25-5.13.95-8.7,4.88a5.87,5.87,0,0,0-3,.85c-1.25.87-3-2.12-3.64-4.52,0,0-.43,16.25,11.64,13.1s12.28-9,7-18.88Z"
                style="fill:#fff;opacity:0.5"></path>
            <path d="M288.17,174.82a6.06,6.06,0,0,1-2.35,3.85"
                style="fill:none;stroke:#263238;stroke-linecap:round;stroke-linejoin:round;stroke-width:0.5px"></path>
            <path d="M284.11,168.85a2.54,2.54,0,0,0,2.88,1"
                style="fill:none;stroke:#de5753;stroke-linecap:round;stroke-linejoin:round;stroke-width:0.5px"></path>
            <path d="M279.4,170.9s-.46,1.93-1.92,1.85"
                style="fill:none;stroke:#de5753;stroke-linecap:round;stroke-linejoin:round;stroke-width:0.5px"></path>
            <path d="M276,163s3-3.43,8.94-2.51"
                style="fill:none;stroke:#de5753;stroke-linecap:round;stroke-linejoin:round;stroke-width:0.5px"></path>
            <path d="M276.55,160.32a10,10,0,0,1,7.7-2.15"
                style="fill:none;stroke:#de5753;stroke-linecap:round;stroke-linejoin:round;stroke-width:0.5px"></path>
            <path
                d="M304.68,224.64c-3.72-6.13-8.19-13.17-12.44-19l1.07-1.56S306.24,208.38,304.68,224.64Z"
                style="opacity:0.2;isolation:isolate"></path>
            <path
                d="M301.91,240.85l8.44,2.38s.43-.79,3.17-1.19,1.55,4.42,1.74,9.73-1,7.36-3.36,6.83-3.27-8-3.27-8l-9.42-1.36Z"
                style="fill:#e4897b"></path>
            <path
                d="M284.14,195.84c-7.32,7-18.63,28.51-11,40.64s30.63,14.14,30.63,14.14l2.89-9.86s-18-5.93-19.67-10.82,9.11-18.81,9.11-18.81,2.41-6.21-.39-11.61S284.14,195.84,284.14,195.84Z"
                style="fill:#3CA3F4"></path>
            <path
                d="M317.74,191.83l2.92-1.87-.26-2.16a.22.22,0,0,1,.12-.24.24.24,0,0,1,.27,0l3.49,2.51L323.4,187a.25.25,0,0,1,.41-.26l1.69,1.56v-1.6a.22.22,0,0,1,.1-.2l2.6-2a4.11,4.11,0,0,0-2.54-2.46c-2.67-1-4.32,1.53-4.31,3.92-2.32-.56-5.12.48-4.79,3.3A4.12,4.12,0,0,0,317.74,191.83Z"
                style="fill:#fff;opacity:0.6000000000000001;isolation:isolate"></path>
            <path
                d="M326,186.85v2.05a.25.25,0,0,1-.15.23.25.25,0,0,1-.27,0l-1.45-1.33.83,2.89a.24.24,0,0,1-.1.27.26.26,0,0,1-.29,0l-3.61-2.6.21,1.74a.25.25,0,0,1-.11.24l-2.94,1.88c2.21,1.76,6.18,1.56,8.25,1.3l.81-.1.28-.76c.66-1.77,1.61-5,.91-7.54Z"
                style="fill:#fff;opacity:0.6000000000000001;isolation:isolate"></path>
        </g>
    </g>
    <g id="freepik--character-1--inject-97">
        <path
            d="M152.56,152.79,143.9,152s-2.84-2-11.77.78c-.8.25-.21,2.77,1.87,6.79.17.35,2.62.22,5.06-.06,4.67-.54,4.81-1.05,4.84-2h7.21Z"
            style="fill:#e4897b"></path>
        <polygon
            points="167.53 408.09 161.21 406.73 162.06 397.72 162.85 389.45 170.61 389.84 168.98 399.5 167.53 408.09"
            style="fill:#e4897b"></polygon>
        <path
            d="M159.72,407c0-.71,8.76-.16,8.76-.16s5.38,5.48,10.61,6.71,2.31,4.36-3.54,4.36H161.1C157,417.9,159.55,414.37,159.72,407Z"
            style="fill:#263238"></path>
        <polygon points="168.94 399.69 162.03 397.89 162.84 389.54 170.6 389.88 168.94 399.69"
            style="opacity:0.2;isolation:isolate"></polygon>
        <polygon
            points="226.56 407.4 220.1 407.4 219.04 398.41 218.08 390.16 225.75 388.91 226.18 398.7 226.56 407.4"
            style="fill:#e4897b"></polygon>
        <path
            d="M218.72,407c0-.71,8.76-.16,8.76-.16s5.38,5.48,10.61,6.71,2.31,4.36-3.54,4.36H220.1C216,417.9,218.55,414.37,218.72,407Z"
            style="fill:#263238"></path>
        <polygon points="226.18 398.9 219.04 398.59 218.08 390.25 225.75 388.96 226.18 398.9"
            style="opacity:0.2;isolation:isolate"></polygon>
        <path
            d="M173.08,409.07a10.93,10.93,0,0,1-3.62-1.11.16.16,0,0,1-.08-.06h0l0,0a.28.28,0,0,1,0-.18c0-.09.77-2.13,1.95-2.62a1.34,1.34,0,0,1,1.14,0c.39.19.59.43.57.73,0,.46-.65.93-1.36,1.3a3.55,3.55,0,0,1,2,.22.94.94,0,0,1,.47.59.84.84,0,0,1-.21.93A1.24,1.24,0,0,1,173.08,409.07Zm-2.82-1.25c1.29.54,2.89,1,3.3.69,0,0,.15-.12.06-.47a.48.48,0,0,0-.25-.3C172.74,407.38,171.24,407.6,170.26,407.82Zm1.56-2.41a.91.91,0,0,0-.35.07,3.83,3.83,0,0,0-1.5,1.88c1.3-.49,2.55-1.17,2.57-1.56,0-.12-.19-.24-.31-.29A.88.88,0,0,0,171.82,405.41Z"
            style="fill:#3CA3F4"></path>
        <path
            d="M232.08,409.07a10.93,10.93,0,0,1-3.62-1.11.16.16,0,0,1-.08-.06h0l0,0a.28.28,0,0,1,0-.18c0-.09.77-2.13,1.95-2.62a1.34,1.34,0,0,1,1.14,0c.39.19.59.43.57.73,0,.46-.65.93-1.36,1.3a3.55,3.55,0,0,1,2,.22.94.94,0,0,1,.47.59.84.84,0,0,1-.21.93A1.24,1.24,0,0,1,232.08,409.07Zm-2.82-1.25c1.29.54,2.89,1,3.3.69,0,0,.15-.12.06-.47a.48.48,0,0,0-.25-.3C231.74,407.38,230.24,407.6,229.26,407.82Zm1.56-2.41a.91.91,0,0,0-.35.07,3.83,3.83,0,0,0-1.5,1.88c1.3-.49,2.55-1.17,2.57-1.56,0-.12-.19-.24-.31-.29A.88.88,0,0,0,230.82,405.41Z"
            style="fill:#3CA3F4"></path>
        <path
            d="M192.49,226.34S228.33,256.83,228.33,391l-10.57,2s-14.5-71.25-26.31-96.31c0,0-7.75,55.49-19.2,97l-11-2s2.2-64.74,1.55-96.41c-.77-37.79-.53-52.61-.53-52.61Z"
            style="fill:#3CA3F4"></path>
        <path
            d="M228.33,391l-10.57,2s-6.4-31.47-14.17-59.93c-3.91-14.37-8.18-28-12.14-36.38,0,0-7.75,55.49-19.2,97L163,392.07l-1-.18-.78-.14s2.2-64.74,1.55-96.41c-.77-37.79-.53-52.61-.53-52.61l1.29-.8,1-.65,27.93-14.94S228.33,256.83,228.33,391Z"
            style="fill:#fff;opacity:0.6000000000000001;isolation:isolate"></path>
        <path
            d="M203.59,333.09c-3.91-14.37-8.18-28-12.14-36.38,0,0,1.39-12.66,1.79-25.84C193.24,270.87,209.61,300.27,203.59,333.09Z"
            style="opacity:0.2;isolation:isolate"></path>
        <path
            d="M179.81,247.51s1.84-7.07,1.19-11.64c0,0-3,8.89-5,6.8-2.55-2.77,5-6.8,5-6.8s4.67-2.83,6.46-1.12c4.35,4.16-6.46,1.12-6.46,1.12s2.95,6.4,5.35,8.8"
            style="fill:none;stroke:#263238;stroke-linecap:round;stroke-linejoin:round"></path>
        <path
            d="M164.41,285.9c.15,17.21.14,69.23-1.43,106.17l-1-.18c1.56-36.87,1.57-88.79,1.42-106-.18-20.93-.36-36.81.11-44l1-.65C164.11,248,164.22,264.27,164.41,285.9Z"
            style="fill:#3CA3F4"></path>
        <path
            d="M178.15,185.33a102.89,102.89,0,0,1-2.81,12.12l-3.85-2.89-8.16-6.13s4.91-17.24,2.8-21.93-17.53-8.76-17.53-8.76l.23-6.17S167,150.22,175.51,160C180.28,165.49,179.64,176.62,178.15,185.33Z"
            style="fill:#263238"></path>
        <path
            d="M178.15,185.33a102.89,102.89,0,0,1-2.81,12.12l-3.85-2.89-8.16-6.13s4.91-17.24,2.8-21.93-17.53-8.76-17.53-8.76l.23-6.17S167,150.22,175.51,160C180.28,165.49,179.64,176.62,178.15,185.33Z"
            style="fill:#fff;opacity:0.2;isolation:isolate"></path>
        <path
            d="M178.15,185.33a102.89,102.89,0,0,1-2.81,12.12l-3.85-2.89A37.24,37.24,0,0,0,178.15,185.33Z"
            style="opacity:0.2;isolation:isolate"></path>
        <path
            d="M192.49,226.34s-16,13.67-30.26,16.39a39.33,39.33,0,0,0-7.15-8.15,64.72,64.72,0,0,0-7.49-5.8c-.64-.41-1.35-.93-2.11-1.53-3.72-2.94-8.31-8-8.3-13.23,0-.5,19.31-11.08,26.15-25.59C163.33,188.43,194.45,200.63,192.49,226.34Z"
            style="fill:#263238"></path>
        <path
            d="M192.49,226.34s-16,13.67-30.26,16.39a39.33,39.33,0,0,0-7.15-8.15,64.72,64.72,0,0,0-7.49-5.8c-.64-.41-1.35-.93-2.11-1.53-3.72-2.94-8.31-8-8.3-13.23,0-.5,19.31-11.08,26.15-25.59C163.33,188.43,194.45,200.63,192.49,226.34Z"
            style="fill:#fff;opacity:0.30000000000000004;isolation:isolate"></path>
        <path
            d="M153.22,200.12s2.93-4,5.6-5,12.27,6.52,15.83,13.74,4.15,11.58,4.15,11.58-1.68,2.86-3.76,1.78-4.25,2.37-4.25,2.37S166.11,200.22,153.22,200.12Z"
            style="fill:#3CA3F4"></path>
        <path
            d="M159,206.15c-8.57,4.28-12.66,2.94-12.66,2.94.57-3.34-1.35-7.37-3-10.14a33.88,33.88,0,0,0-2.3-3.31l10.45-2.81a23.5,23.5,0,0,0,1.59,3.66c2.46,4.43,4.86,3.61,5.36,3.38l.1-.05C161.68,201.4,159,206.15,159,206.15Z"
            style="fill:#e4897b"></path>
        <path
            d="M158.34,199.87c-1.43,2-3.85,4.15-7.36,3.42-2.7-.57-5.47-2.42-7.74-4.34a33.88,33.88,0,0,0-2.3-3.31l10.45-2.81a23.5,23.5,0,0,0,1.59,3.66C155.44,200.92,157.84,200.1,158.34,199.87Z"
            style="opacity:0.2;isolation:isolate"></path>
        <path
            d="M145.48,203.44s5.72,3.6,9.84,1.49c5.42-2.77,2.21-9.35,2.21-9.35s3.95,1.35,5.85,8.45-6.45,13.44-14.3,10.31-5.68-5.05-5.68-5.05S143.46,203.44,145.48,203.44Z"
            style="fill:#3CA3F4"></path>
        <path
            d="M145.48,203.44s5.72,3.6,9.84,1.49c5.42-2.77,2.21-9.35,2.21-9.35s3.95,1.35,5.85,8.45-6.45,13.44-14.3,10.31-5.68-5.05-5.68-5.05S143.46,203.44,145.48,203.44Z"
            style="fill:#fff;opacity:0.2;isolation:isolate"></path>
        <path
            d="M140.8,168.4l-6.11,4.26a8.1,8.1,0,0,1-2.29-.74c-5.83-2.86-4.69-11.8,2.29-11.6,5.14.14,6.15,3.63,6.25,6A9.41,9.41,0,0,1,140.8,168.4Z"
            style="fill:#263238"></path>
        <path
            d="M140.94,166.29a11.3,11.3,0,0,0-5.49.68,4.41,4.41,0,0,0-3,4.95c-5.83-2.86-4.69-11.8,2.29-11.6C139.83,160.46,140.84,164,140.94,166.29Z"
            style="fill:#fff;opacity:0.5"></path>
        <path
            d="M138.23,167.7c-12.81,5.74-9.91,29,7.12,28.37C157.82,195.63,162,182.85,158,174,154.68,166.71,146.69,163.92,138.23,167.7Z"
            style="fill:#263238"></path>
        <path
            d="M138.23,167.7c-12.81,5.74-9.91,29,7.12,28.37C157.82,195.63,162,182.85,158,174,154.68,166.71,146.69,163.92,138.23,167.7Z"
            style="fill:#fff;opacity:0.5"></path>
        <path
            d="M147.52,172.71c7.93-.57,10.79,3.49,12,11.62,1.46,10.16-.28,17.58-10.35,16.11C135.45,198.45,134.35,173.66,147.52,172.71Z"
            style="fill:#e4897b"></path>
        <path d="M154.32,184.26a16.78,16.78,0,0,0,2.55,3.12,2.2,2.2,0,0,1-2,1.05Z"
            style="fill:#de5753"></path>
        <path d="M149,178.49a4.14,4.14,0,0,0-3.35,1.44"
            style="fill:none;stroke:#263238;stroke-linecap:round;stroke-linejoin:round;stroke-width:0.707962px"></path>
        <path d="M154.69,177.74a3.72,3.72,0,0,1,3.21.42"
            style="fill:none;stroke:#263238;stroke-linecap:round;stroke-linejoin:round;stroke-width:0.707962px"></path>
        <path
            d="M139.82,186.7s3.24-6.78,2.31-11.77c0,0,15.26-7.55,17.18,8.34,0,0,.52-14.27-13.14-13.61s-12.16,20.61-4.69,26C141.48,195.7,137.82,190.94,139.82,186.7Z"
            style="fill:#263238"></path>
        <path
            d="M155.32,191a21,21,0,0,0-.93,2.83,4.57,4.57,0,0,1-.52-.05c-2.37-.22-3.4-1.1-3.82-2a2.93,2.93,0,0,1-.24-1.43,3.1,3.1,0,0,1,.14-.82,11.18,11.18,0,0,0,4.56,1.4C155,191,155.32,191,155.32,191Z"
            style="fill:#263238"></path>
        <path
            d="M153.87,193.79c-2.37-.22-3.4-1.1-3.82-2a7.82,7.82,0,0,1,2.59.77A3,3,0,0,1,153.87,193.79Z"
            style="fill:#de5753"></path>
        <path
            d="M139.82,186.7s3.24-6.78,2.31-11.77c0,0,15.26-7.55,17.18,8.34,0,0,.52-14.27-13.14-13.61s-12.16,20.61-4.69,26C141.48,195.7,137.82,190.94,139.82,186.7Z"
            style="fill:#fff;opacity:0.5"></path>
        <path
            d="M141.23,188.28a3.48,3.48,0,0,0-4-2.91c-2.44.44-3.25,5.57,3,6.35C141.1,191.83,141.54,190.94,141.23,188.28Z"
            style="fill:#e4897b"></path>
        <path d="M151,188.43s-2.25,1.32-2.34,3.34"
            style="fill:none;stroke:#de5753;stroke-linecap:round;stroke-linejoin:round;stroke-width:0.5px"></path>
        <path d="M156.87,188.52a6,6,0,0,1,.63,3.16"
            style="fill:none;stroke:#de5753;stroke-linecap:round;stroke-linejoin:round;stroke-width:0.5px"></path>
        <path d="M149.43,184.31s-.09,2-1.84,1.64"
            style="fill:none;stroke:#de5753;stroke-linecap:round;stroke-linejoin:round;stroke-width:0.5px"></path>
        <path d="M155.91,183.57s.6,1.72,2,1.06"
            style="fill:none;stroke:#de5753;stroke-linecap:round;stroke-linejoin:round;stroke-width:0.5px"></path>
        <path
            d="M149.42,184c.06.65-.24,1.21-.67,1.25s-.84-.45-.9-1.1.24-1.21.67-1.25S149.36,183.31,149.42,184Z"
            style="fill:#263238"></path>
        <path d="M148.35,182.9l1.36-.68S149.12,183.47,148.35,182.9Z" style="fill:#263238"></path>
        <path
            d="M157.49,183.05c.07.65-.24,1.21-.67,1.25s-.83-.45-.9-1.1.24-1.21.68-1.25S157.43,182.4,157.49,183.05Z"
            style="fill:#263238"></path>
        <path d="M156.42,182l1.36-.69S157.19,182.57,156.42,182Z" style="fill:#263238"></path>
        <path d="M146.23,176.58s5.92-1.58,9.09-.79"
            style="fill:none;stroke:#de5753;stroke-linecap:round;stroke-linejoin:round;stroke-width:0.5px"></path>
        <path d="M145.77,174.34a14,14,0,0,1,7.45,0"
            style="fill:none;stroke:#de5753;stroke-linecap:round;stroke-linejoin:round;stroke-width:0.5px"></path>
        <path
            d="M155.08,234.58a64.72,64.72,0,0,0-7.49-5.8c-.64-.41-1.35-.93-2.11-1.53l3.6-4.15S154.61,228,155.08,234.58Z"
            style="opacity:0.2;isolation:isolate"></path>
        <path
            d="M156.87,255.05l6.78,1.78s3.75-.14,3.75,2.8-2.38,12-5.41,11.24-6.89-2.69-5.94-4,3.88-5,3.88-5l-4.61-1.56Z"
            style="fill:#e4897b"></path>
        <path
            d="M137.18,214c-5.13,5.29-10.93,33.77-4.86,38.52s26,9.6,26,9.6l1.59-7.09s-16.7-6.73-19-9.9,9.54-21,9.54-21a16.5,16.5,0,0,0-5.65-8.62C140.21,211.9,137.18,214,137.18,214Z"
            style="fill:#263238"></path>
        <path
            d="M137.18,214c-5.13,5.29-10.93,33.77-4.86,38.52s26,9.6,26,9.6l1.59-7.09s-16.7-6.73-19-9.9,9.54-21,9.54-21a16.5,16.5,0,0,0-5.65-8.62C140.21,211.9,137.18,214,137.18,214Z"
            style="fill:#fff;opacity:0.2;isolation:isolate"></path>
    </g>
    <g id="freepik--Bottles--inject-97">
        <path
            d="M124.64,390.91v-3.52h-6.16v3.52a3.37,3.37,0,0,1-1.1,2.49h0a3.32,3.32,0,0,0-1.11,2.48v20.24a1.78,1.78,0,0,0,1.78,1.78h7a1.77,1.77,0,0,0,1.78-1.78V395.88a3.35,3.35,0,0,0-1.1-2.48h0A3.37,3.37,0,0,1,124.64,390.91Z"
            style="fill:#3CA3F4"></path>
        <path
            d="M124.64,390.91v-3.52h-6.16v3.52a3.37,3.37,0,0,1-1.1,2.49h0a3.32,3.32,0,0,0-1.11,2.48v20.24a1.78,1.78,0,0,0,1.78,1.78h7a1.77,1.77,0,0,0,1.78-1.78V395.88a3.35,3.35,0,0,0-1.1-2.48h0A3.37,3.37,0,0,1,124.64,390.91Z"
            style="opacity:0.2;isolation:isolate"></path>
        <path
            d="M126.84,400.75v-4.87a3.35,3.35,0,0,0-1.1-2.48,3.37,3.37,0,0,1-1.1-2.49v-3.52h-6.16v3.52a3.37,3.37,0,0,1-1.1,2.49,3.32,3.32,0,0,0-1.11,2.48v4.87Z"
            style="fill:#fff;opacity:0.5;isolation:isolate"></path>
        <path d="M116.27,407.83v8.29a1.78,1.78,0,0,0,1.78,1.78h7a1.77,1.77,0,0,0,1.78-1.78v-8.29Z"
            style="fill:#fff;opacity:0.6000000000000001;isolation:isolate"></path>
        <rect x="117.92" y="386.42" width="7.27" height="2.77" rx="0.53" style="fill:#3CA3F4"></rect>
        <path
            d="M134.64,382.91v-3.52h-6.16v3.52a3.37,3.37,0,0,1-1.1,2.49h0a3.32,3.32,0,0,0-1.11,2.48v28.24a1.78,1.78,0,0,0,1.78,1.78h7a1.77,1.77,0,0,0,1.78-1.78V387.88a3.35,3.35,0,0,0-1.1-2.48h0A3.37,3.37,0,0,1,134.64,382.91Z"
            style="fill:#3CA3F4"></path>
        <path
            d="M136.84,396.75v-8.87a3.35,3.35,0,0,0-1.1-2.48,3.37,3.37,0,0,1-1.1-2.49v-3.52h-6.16v3.52a3.37,3.37,0,0,1-1.1,2.49,3.32,3.32,0,0,0-1.11,2.48v8.87Z"
            style="fill:#fff;opacity:0.6000000000000001;isolation:isolate"></path>
        <path d="M126.27,407.83v8.29a1.78,1.78,0,0,0,1.78,1.78h7a1.77,1.77,0,0,0,1.78-1.78v-8.29Z"
            style="fill:#fff;opacity:0.6000000000000001;isolation:isolate"></path>
        <rect x="127.92" y="378.42" width="7.27" height="2.77" rx="0.53" style="fill:#3CA3F4"></rect>
        <path
            d="M129.72,411.28a6.37,6.37,0,0,1-6.36,6.37H75.05a.5.5,0,0,1-.49-.5v-1.92a.49.49,0,0,1,.49-.49h7.09a6.37,6.37,0,0,1,5.34-9.83h35.88A6.37,6.37,0,0,1,129.72,411.28Z"
            style="fill:#3CA3F4"></path>
        <path
            d="M129.72,411.28a6.37,6.37,0,0,1-6.36,6.37H75.05a.5.5,0,0,1-.49-.5v-1.92a.49.49,0,0,1,.49-.49h7.09a6.37,6.37,0,0,1,5.34-9.83h35.88A6.37,6.37,0,0,1,129.72,411.28Z"
            style="fill:#fff;opacity:0.6000000000000001;isolation:isolate"></path>
        <path
            d="M123.36,404.91H109.48a6.37,6.37,0,0,0-5.34,9.83H97.05a.49.49,0,0,0-.49.49v1.92a.5.5,0,0,0,.49.5h26.31a6.37,6.37,0,0,0,0-12.74Zm.79,10.13H106.6a.51.51,0,0,1-.5-.5.5.5,0,0,1,.5-.5h17.55a2.73,2.73,0,0,0,0-5.45H110a1.1,1.1,0,1,0,0,2.19h12.91a.5.5,0,0,1,0,1H110a2.1,2.1,0,1,1,0-4.19h14.17a3.73,3.73,0,0,1,0,7.45Z"
            style="fill:#fff;opacity:0.5;isolation:isolate"></path>
    </g>
</svg>