<?xml version="1.0" encoding="utf-8"?>
<!-- Generator: Adobe Illustrator 27.5.0, SVG Export Plug-In . SVG Version: 6.00 Build 0)  -->
<svg version="1.1" xmlns="http://www.w3.org/2000/svg" xmlns:xlink="http://www.w3.org/1999/xlink" x="0px" y="0px"
	 viewBox="0 0 500 500" style="enable-background:new 0 0 500 500;" xml:space="preserve">
<g id="Background_Complete">
	<g>
		<rect x="416.779" y="398.494" style="fill:#EBEBEB;" width="33.122" height="0.25"/>
		<rect x="322.527" y="401.208" style="fill:#EBEBEB;" width="8.693" height="0.25"/>
		<rect x="396.586" y="389.208" style="fill:#EBEBEB;" width="19.192" height="0.25"/>
		<rect x="52.459" y="390.888" style="fill:#EBEBEB;" width="43.193" height="0.25"/>
		<rect x="104.556" y="390.888" style="fill:#EBEBEB;" width="6.333" height="0.25"/>
		<rect x="131.471" y="395.111" style="fill:#EBEBEB;" width="93.676" height="0.25"/>
		<path style="fill:#EBEBEB;" d="M237.014,337.8H43.915c-3.147,0-5.708-2.561-5.708-5.708V60.66c0-3.147,2.561-5.708,5.708-5.708
			h193.099c3.146,0,5.707,2.561,5.707,5.708v271.432C242.721,335.239,240.16,337.8,237.014,337.8z M43.915,55.203
			c-3.01,0-5.458,2.448-5.458,5.458v271.432c0,3.01,2.448,5.458,5.458,5.458h193.099c3.009,0,5.457-2.448,5.457-5.458V60.66
			c0-3.009-2.448-5.458-5.457-5.458H43.915z"/>
		<path style="fill:#EBEBEB;" d="M453.31,337.8H260.212c-3.147,0-5.707-2.561-5.707-5.708V60.66c0-3.147,2.561-5.708,5.707-5.708
			H453.31c3.148,0,5.708,2.561,5.708,5.708v271.432C459.019,335.239,456.458,337.8,453.31,337.8z M260.212,55.203
			c-3.009,0-5.457,2.448-5.457,5.458v271.432c0,3.01,2.448,5.458,5.457,5.458H453.31c3.01,0,5.458-2.448,5.458-5.458V60.66
			c0-3.009-2.448-5.458-5.458-5.458H260.212z"/>
		<rect y="382.398" style="fill:#EBEBEB;" width="500" height="0.25"/>
	</g>
	<g>
		<rect x="326.825" y="101.233" style="fill:#F5F5F5;" width="82.312" height="106.938"/>
		<rect x="333.158" y="109.46" style="fill:#EBEBEB;" width="69.647" height="90.484"/>
		<rect x="337.516" y="115.122" style="fill:#FAFAFA;" width="60.93" height="79.16"/>
		<path style="fill:#F5F5F5;" d="M359.034,159.857c-7.608,0-21.518,21.518-21.518,21.518v12.906h55.942
			C393.458,194.282,371.204,159.857,359.034,159.857z"/>
		<path style="fill:#FFFFFF;" d="M390.074,143.732c0,4.624-3.748,8.372-8.372,8.372c-4.624,0-8.372-3.748-8.372-8.372
			c0-4.624,3.748-8.372,8.372-8.372C386.325,135.359,390.074,139.108,390.074,143.732z"/>
	</g>
	<g>
		<path style="fill:#F5F5F5;" d="M96.421,102.735v174.303h96.29V102.735c0,0-19.003-19.895-48.145-19.895
			S96.421,102.735,96.421,102.735z"/>
		<path style="fill:#FAFAFA;" d="M168.345,87.343l-58.592,187.025h-7.984l59.325-189.362c-2.346-0.617-4.801-1.124-7.357-1.493
			L96.421,266.46v10.578h52.536v-2.671h-14.054l54.668-174.5C185.688,96.59,178.342,91.187,168.345,87.343z"/>
		<g>
			<g>
				<path style="fill:#EBEBEB;" d="M192.711,277.038h-96.29V102.735l0.981-0.942c12.716-12.221,29.467-18.952,47.164-18.952
					c0,0-0.001,0,0,0c17.697,0,34.447,6.731,47.164,18.952l0.981,0.943V277.038z M102.809,270.651h83.515V105.476
					c-11.395-10.488-26.17-16.248-41.758-16.248c-15.588,0-30.363,5.76-41.758,16.248V270.651z"/>
			</g>
		</g>
		<g>
			<path style="fill:#F5F5F5;" d="M195.905,280.232H93.227V101.431l0.935-0.936c27.793-27.792,73.014-27.792,100.807,0l0.935,0.936
				V280.232z M99.615,273.845h89.903V104.095c-25.057-24.081-64.845-24.082-89.903,0V273.845z"/>
		</g>
	</g>
	<g>
		<g>
			
				<rect x="75.663" y="316.157" transform="matrix(-1 -1.224647e-16 1.224647e-16 -1 319.284 687.4991)" style="fill:#EBEBEB;" width="167.958" height="55.185"/>
			
				<rect x="230.156" y="375.095" transform="matrix(-1 -1.224647e-16 1.224647e-16 -1 470.8679 758.1659)" style="fill:#E6E6E6;" width="10.556" height="7.976"/>
			
				<rect x="62.841" y="309.432" transform="matrix(-1 -1.224647e-16 1.224647e-16 -1 136.239 692.5033)" style="fill:#E6E6E6;" width="10.556" height="73.638"/>
			<path style="fill:#F5F5F5;" d="M73.271,309.432v73.638h5.63v-6.099h161.811v6.099h5.63v-73.638h-2.815h-2.815H78.901h-2.815
				H73.271z M240.712,367.12h-78.09v-47.835h78.09V367.12z M156.992,367.12H78.901v-47.835h78.091V367.12z"/>
		</g>
		<g>
			<circle style="fill:#E0E0E0;" cx="148.984" cy="343.75" r="3.386"/>
			<circle style="fill:#FAFAFA;" cx="150.776" cy="343.75" r="3.386"/>
		</g>
		<g>
			<circle style="fill:#E0E0E0;" cx="168.471" cy="343.75" r="3.386"/>
			<circle style="fill:#FAFAFA;" cx="170.263" cy="343.75" r="3.386"/>
		</g>
	</g>
	<g>
		<g>
			<path style="fill:#E6E6E6;" d="M416.359,366.401l-6.172-0.827l2.512-18.721c3.644-27.155,1.286-55.344-6.819-81.516
				l-11.148-36.005l5.949-1.842l11.148,36.004c8.369,27.031,10.805,56.141,7.042,84.186L416.359,366.401z"/>
		</g>
		<g>
			
				<rect x="321.234" y="265.066" transform="matrix(0.9562 -0.2926 0.2926 0.9562 -73.2943 108.007)" style="fill:#E6E6E6;" width="6.227" height="67.822"/>
		</g>
		<path style="fill:#F0F0F0;" d="M419.725,365.375l1.764-12.346c0.319-2.233-0.891-4.405-2.957-5.309l-5.918-2.589
			c-1.842-0.806-3.988-0.435-5.453,0.944l-11.687,10.999L311.68,331.96c-7.6-2.278-15.461,2.685-16.672,10.527l-5.102,33.032
			h134.653C424.559,371.493,422.714,367.804,419.725,365.375z"/>
		<circle style="fill:#EBEBEB;" cx="345.168" cy="344.774" r="30.744"/>
		<circle style="fill:#FAFAFA;" cx="345.168" cy="344.774" r="21.214"/>
		<g>
			<path style="fill:#F0F0F0;" d="M416.479,200.374c-4.413,7.186-8.868,19.148-16.839,22.725c-8.448,3.79-17.774,6.221-26.52,9.282
				c-2.818,0.987-1.606,5.5,1.241,4.503c9.143-3.2,18.688-5.875,27.601-9.661c8.903-3.781,13.757-16.689,18.549-24.492
				C422.089,200.163,418.051,197.814,416.479,200.374L416.479,200.374z"/>
		</g>
		<path style="fill:#F0F0F0;" d="M326.475,264.797l-24.481,4.555c-3.048,0.567-5.862-1.772-5.862-4.872v-2.314
			c0-2.737,2.219-4.955,4.955-4.955h24.688c2.113,0,3.826,1.713,3.826,3.826l0,0C329.601,262.879,328.287,264.46,326.475,264.797z"
			/>
		<g>
			<path style="fill:#E0E0E0;" d="M343.93,346.012c9.038,9.038,18.075,18.075,27.112,27.112c1.596,1.596,4.073-0.88,2.477-2.477
				c-9.037-9.037-18.075-18.075-27.112-27.112C344.81,341.939,342.333,344.415,343.93,346.012L343.93,346.012z"/>
		</g>
		<g>
			<path style="fill:#E0E0E0;" d="M366.382,374.221c5.469,0,10.937,0,16.406,0c3.005,0,3.01-4.67,0-4.67c-5.469,0-10.937,0-16.406,0
				C363.377,369.551,363.372,374.221,366.382,374.221L366.382,374.221z"/>
		</g>
		<path style="fill:#E6E6E6;" d="M281.863,383.691h14.789v-4.849c0-1.836-1.488-3.324-3.324-3.324h-8.141
			c-1.836,0-3.324,1.488-3.324,3.324V383.691z"/>
		<path style="fill:#E6E6E6;" d="M417.165,383.691h14.788v-4.849c0-1.836-1.488-3.324-3.324-3.324h-8.141
			c-1.836,0-3.323,1.488-3.323,3.324V383.691z"/>
	</g>
</g>
<g id="Background_Simple" style="display:none;">
	<g style="display:inline;">
		<path style="fill:#407BFF;" d="M381.65,146.184c35.019,0.714,58.929,67.124,40.714,112.924
			c-24.822,62.414-140.559,98.83-212.367,98.74c-37.683-0.047-97.45,0-130.882-74.764c-17.704-39.591-15.268-153.439,41.107-168.537
			c89.167-23.88,89.041,65.241,124.411,69.273C295.03,189.565,302.925,144.579,381.65,146.184z"/>
		<path style="opacity:0.9;fill:#FFFFFF;" d="M381.65,146.184c35.019,0.714,58.929,67.124,40.714,112.924
			c-24.822,62.414-140.559,98.83-212.367,98.74c-37.683-0.047-97.45,0-130.882-74.764c-17.704-39.591-15.268-153.439,41.107-168.537
			c89.167-23.88,89.041,65.241,124.411,69.273C295.03,189.565,302.925,144.579,381.65,146.184z"/>
	</g>
</g>
<g id="Shadow">
	<ellipse id="_x3C_Path_x3E__1_" style="fill:#F5F5F5;" cx="245.178" cy="412.391" rx="193.889" ry="11.323"/>
</g>
<g id="Strawberry">
	<g>
		<g>
			<path style="fill:#263238;" d="M355.535,341.127c0,0-0.704-9.493,5.829-9.282C367.896,332.057,360.035,333.069,355.535,341.127z"
				/>
		</g>
		<g style="opacity:0.3;">
			<path style="fill:#FFFFFF;" d="M355.535,341.127c0,0-0.704-9.493,5.829-9.282C367.896,332.057,360.035,333.069,355.535,341.127z"
				/>
		</g>
		<path style="fill:#407BFF;" d="M348.893,341.963c0,0-8.006-2.855-5.809-5.46c1.858-2.204,3.424,2.575,5.941,2.715
			c0,0-0.926-5.586,1.922-6.416c0,0,0.114,5.152,3.052,6.582c0,0,3.407-3.867,9.679-1.705c0,0-7.028,2.044-4.846,3.409
			s7.894-3.768,9.393-1.4c1.499,2.368-4.613,3.464-4.613,3.464s2.472,1.954,6.835,2.601c0,0-3.127,3.284-9.836-0.455
			C353.903,341.559,348.893,341.963,348.893,341.963z"/>
		<path style="fill:#407BFF;" d="M371.318,360.305c-2.204,6.395-18.464,22.138-28.503,18.677
			c-10.039-3.461-10.056-24.814-7.851-31.209s12.13-8.774,22.169-5.314C367.172,345.92,373.522,353.909,371.318,360.305z"/>
		<path style="opacity:0.4;fill:#FFFFFF;" d="M371.318,360.305c-2.204,6.395-18.464,22.138-28.503,18.677
			c-10.039-3.461-10.056-24.814-7.851-31.209s12.13-8.774,22.169-5.314C367.172,345.92,373.522,353.909,371.318,360.305z"/>
		<path style="opacity:0.2;fill:#FFFFFF;" d="M336.398,361.799c0,0-2.224-14.01,2.833-16.154S336.621,351.922,336.398,361.799z"/>
		<path style="opacity:0.1;" d="M343.791,375.432c-6.875-1.516-9.036-8.53-9.085-8.693c1.195,5.686,3.672,10.714,8.11,12.243
			c10.039,3.461,26.298-12.282,28.503-18.677c0.655-1.9,0.55-3.941-0.178-5.962C372.344,360.23,350.747,376.966,343.791,375.432z"/>
		<g style="opacity:0.8;">
			<path style="fill:#FFFFFF;" d="M337.353,348.021c-0.282,0.817-0.856,1.361-1.282,1.214c-0.426-0.147-0.544-0.929-0.262-1.746
				c0.282-0.817,0.856-1.361,1.282-1.214C337.517,346.422,337.635,347.204,337.353,348.021z"/>
			<path style="fill:#FFFFFF;" d="M344.862,350.609c-0.282,0.817-0.856,1.36-1.282,1.214c-0.426-0.147-0.544-0.929-0.262-1.746
				c0.282-0.817,0.856-1.36,1.282-1.214C345.026,349.011,345.144,349.792,344.862,350.609z"/>
			<path style="fill:#FFFFFF;" d="M352.371,353.198c-0.282,0.817-0.856,1.36-1.282,1.213c-0.426-0.147-0.544-0.929-0.262-1.746
				c0.282-0.817,0.856-1.36,1.282-1.214C352.535,351.599,352.653,352.381,352.371,353.198z"/>
			<path style="fill:#FFFFFF;" d="M359.88,355.786c-0.282,0.817-0.856,1.361-1.282,1.214c-0.426-0.147-0.544-0.928-0.262-1.746
				s0.856-1.361,1.282-1.214C360.044,354.187,360.162,354.969,359.88,355.786z"/>
			<path style="fill:#FFFFFF;" d="M367.389,358.375c-0.282,0.817-0.856,1.361-1.282,1.214c-0.426-0.147-0.544-0.928-0.262-1.746
				s0.856-1.361,1.282-1.214C367.553,356.776,367.671,357.557,367.389,358.375z"/>
			<path style="fill:#FFFFFF;" d="M338.029,355.74c-0.282,0.817-0.856,1.361-1.282,1.214c-0.426-0.147-0.544-0.929-0.262-1.746
				c0.282-0.817,0.856-1.361,1.282-1.214C338.194,354.141,338.311,354.922,338.029,355.74z"/>
			<path style="fill:#FFFFFF;" d="M345.538,358.328c-0.282,0.817-0.856,1.36-1.282,1.214c-0.426-0.147-0.544-0.929-0.262-1.746
				c0.282-0.817,0.856-1.36,1.282-1.213C345.703,356.729,345.82,357.511,345.538,358.328z"/>
			<path style="fill:#FFFFFF;" d="M353.047,360.916c-0.282,0.817-0.856,1.36-1.282,1.214c-0.426-0.147-0.544-0.929-0.262-1.746
				c0.282-0.817,0.856-1.36,1.282-1.214C353.212,359.318,353.329,360.099,353.047,360.916z"/>
			<path style="fill:#FFFFFF;" d="M360.556,363.505c-0.282,0.817-0.856,1.361-1.282,1.214c-0.426-0.147-0.544-0.928-0.262-1.746
				s0.856-1.361,1.282-1.214C360.721,361.906,360.838,362.688,360.556,363.505z"/>
			<path style="fill:#FFFFFF;" d="M366.627,365.597c-0.282,0.817-0.856,1.361-1.282,1.214c-0.426-0.147-0.544-0.929-0.262-1.746
				s0.856-1.361,1.282-1.214C366.791,363.999,366.908,364.78,366.627,365.597z"/>
			<path style="fill:#FFFFFF;" d="M338.482,362.985c-0.282,0.817-0.856,1.361-1.282,1.214c-0.426-0.147-0.544-0.928-0.262-1.746
				s0.856-1.361,1.282-1.214C338.646,361.386,338.763,362.168,338.482,362.985z"/>
			<path style="fill:#FFFFFF;" d="M345.991,365.573c-0.282,0.817-0.856,1.361-1.282,1.214c-0.426-0.147-0.544-0.929-0.262-1.746
				c0.282-0.817,0.856-1.361,1.282-1.214C346.155,363.975,346.272,364.756,345.991,365.573z"/>
			<path style="fill:#FFFFFF;" d="M341.876,374.803c-0.282,0.817-0.856,1.361-1.282,1.214c-0.426-0.147-0.544-0.929-0.262-1.746
				c0.282-0.817,0.856-1.361,1.282-1.214C342.041,373.204,342.158,373.986,341.876,374.803z"/>
			<path style="fill:#FFFFFF;" d="M348.554,376.457c-0.282,0.817-0.856,1.361-1.282,1.214c-0.426-0.147-0.544-0.929-0.262-1.746
				c0.282-0.817,0.856-1.36,1.282-1.214C348.718,374.858,348.836,375.64,348.554,376.457z"/>
			<path style="fill:#FFFFFF;" d="M353.5,368.162c-0.282,0.817-0.856,1.36-1.282,1.214c-0.426-0.147-0.544-0.929-0.262-1.746
				c0.282-0.817,0.856-1.36,1.282-1.214C353.664,366.563,353.781,367.345,353.5,368.162z"/>
			<path style="fill:#FFFFFF;" d="M359.465,370.218c-0.282,0.817-0.856,1.361-1.282,1.214c-0.426-0.147-0.544-0.929-0.262-1.746
				c0.282-0.817,0.856-1.36,1.282-1.214C359.629,368.619,359.746,369.401,359.465,370.218z"/>
			<path style="fill:#FFFFFF;" d="M338.877,369.131c-0.282,0.817-0.856,1.361-1.282,1.214c-0.426-0.147-0.544-0.928-0.262-1.746
				c0.282-0.817,0.856-1.361,1.282-1.214C339.041,367.533,339.159,368.314,338.877,369.131z"/>
			<path style="fill:#FFFFFF;" d="M346.386,371.72c-0.282,0.817-0.856,1.361-1.282,1.214c-0.426-0.147-0.544-0.928-0.262-1.746
				c0.282-0.817,0.856-1.361,1.282-1.214C346.55,370.121,346.668,370.903,346.386,371.72z"/>
			<path style="fill:#FFFFFF;" d="M353.895,374.308c-0.282,0.817-0.856,1.361-1.282,1.214c-0.426-0.147-0.544-0.929-0.262-1.746
				c0.282-0.817,0.856-1.361,1.282-1.214C354.059,372.71,354.177,373.491,353.895,374.308z"/>
			<path style="fill:#FFFFFF;" d="M344.233,343.915c-0.282,0.817-0.856,1.36-1.282,1.214c-0.426-0.147-0.544-0.929-0.262-1.746
				c0.282-0.817,0.856-1.36,1.282-1.214C344.397,342.316,344.514,343.097,344.233,343.915z"/>
			<path style="fill:#FFFFFF;" d="M351.742,346.503c-0.282,0.817-0.856,1.361-1.282,1.214c-0.426-0.147-0.544-0.929-0.262-1.746
				c0.282-0.817,0.856-1.361,1.282-1.214C351.906,344.904,352.023,345.686,351.742,346.503z"/>
			<path style="fill:#FFFFFF;" d="M359.251,349.091c-0.282,0.817-0.856,1.361-1.282,1.214c-0.426-0.147-0.544-0.928-0.262-1.746
				s0.856-1.361,1.282-1.214C359.415,347.493,359.532,348.274,359.251,349.091z"/>
			<path style="fill:#FFFFFF;" d="M366.76,351.68c-0.282,0.817-0.856,1.361-1.282,1.214c-0.426-0.147-0.544-0.929-0.262-1.746
				s0.856-1.361,1.282-1.214C366.924,350.081,367.041,350.863,366.76,351.68z"/>
		</g>
	</g>
</g>
<g id="Broccoli">
	<g>
		<g>
			<path style="fill:#407BFF;" d="M403.813,281.297c2.354-1.208,3.283-4.095,2.075-6.449c-0.229-0.446-0.519-0.841-0.854-1.18
				c0.067-0.032,0.135-0.057,0.202-0.091c3.324-1.706,4.636-5.783,2.93-9.106c-1.143-2.229-3.354-3.547-5.687-3.663
				c0.055-1.143-0.174-2.315-0.734-3.406c-1.706-3.324-5.783-4.636-9.107-2.93c-0.799,0.41-1.479,0.96-2.032,1.601
				c-1.432-1.426-3.671-1.841-5.567-0.868c-1.366,0.701-2.248,1.968-2.515,3.368c-1.293-0.599-2.836-0.622-4.202,0.079
				c-2.054,1.054-3.022,3.385-2.434,5.526c-1.05,1.964-1.154,4.391-0.061,6.522c1.29,2.515,3.888,3.913,6.538,3.805
				c-0.254,1.071-0.146,2.234,0.396,3.291c1.039,2.024,3.319,2.99,5.434,2.455c0.103,0.6,0.297,1.196,0.59,1.767
				c1.55,3.021,5.256,4.213,8.277,2.663c1.366-0.701,2.353-1.844,2.887-3.164C401.168,281.972,402.564,281.937,403.813,281.297z"/>
			<path style="opacity:0.1;" d="M395.746,285.17c6.473-4.428,1.295-10.538,1.295-10.538c1.966-7.739-4.31-7.629-4.31-7.629
				c-2.082-6.247-7.104-1.566-7.104-1.566h-5.72l-4.367,4.606c0.086,0.221,0.176,0.441,0.287,0.656
				c1.29,2.515,3.888,3.913,6.538,3.805c-0.254,1.071-0.146,2.234,0.396,3.291c1.039,2.024,3.319,2.99,5.434,2.455
				c0.103,0.6,0.298,1.196,0.59,1.766C390.116,284.61,393.035,285.85,395.746,285.17z"/>
		</g>
		<g>
			<path style="fill:#407BFF;" d="M393.548,274.673c2.57-2.081,2.965-5.852,0.884-8.421c-0.791-0.977-1.827-1.638-2.948-1.969
				c0.687-2.532,0.197-5.346-1.581-7.54c-0.991-1.224-2.257-2.089-3.634-2.598c0.959-2.686,0.545-5.791-1.382-8.169
				c-2.939-3.628-8.263-4.187-11.891-1.248c-0.873,0.707-1.563,1.554-2.075,2.48c-2.117-1.377-4.963-1.31-7.032,0.366
				c-1.491,1.208-2.245,2.984-2.212,4.765c-1.735-0.401-3.629-0.033-5.12,1.175c-2.57,2.081-2.965,5.852-0.884,8.421
				c0.503,0.62,1.105,1.111,1.763,1.473c-0.519,2.492,0.042,5.188,1.77,7.321c2.5,3.086,6.66,4.029,10.154,2.593
				c0.072,0.101,0.14,0.203,0.219,0.3c1.534,1.893,3.984,2.602,6.195,2.013c0.097,0.144,0.198,0.286,0.309,0.423
				c2.081,2.57,5.852,2.965,8.421,0.884c0.74-0.599,1.293-1.34,1.665-2.15C388.315,276.415,391.364,276.442,393.548,274.673z"/>
			<path style="opacity:0.2;fill:#FFFFFF;" d="M393.548,274.673c2.57-2.081,2.965-5.852,0.884-8.421
				c-0.791-0.977-1.827-1.638-2.948-1.969c0.687-2.532,0.197-5.346-1.581-7.54c-0.991-1.224-2.257-2.089-3.634-2.598
				c0.959-2.686,0.545-5.791-1.382-8.169c-2.939-3.628-8.263-4.187-11.891-1.248c-0.873,0.707-1.563,1.554-2.075,2.48
				c-2.117-1.377-4.963-1.31-7.032,0.366c-1.491,1.208-2.245,2.984-2.212,4.765c-1.735-0.401-3.629-0.033-5.12,1.175
				c-2.57,2.081-2.965,5.852-0.884,8.421c0.503,0.62,1.105,1.111,1.763,1.473c-0.519,2.492,0.042,5.188,1.77,7.321
				c2.5,3.086,6.66,4.029,10.154,2.593c0.072,0.101,0.14,0.203,0.219,0.3c1.534,1.893,3.984,2.602,6.195,2.013
				c0.097,0.144,0.198,0.286,0.309,0.423c2.081,2.57,5.852,2.965,8.421,0.884c0.74-0.599,1.293-1.34,1.665-2.15
				C388.315,276.415,391.364,276.442,393.548,274.673z"/>
			<path style="opacity:0.1;" d="M385.678,267.162c0,0,0.411-5.407-3.562-7.051c-5.329-2.205-10.411,4.657-10.411,4.657
				s-6.849-5.068-10.822-2.055c-3.973,3.014-1.677,8.014-1.677,8.014c2.5,3.086,6.66,4.029,10.154,2.593
				c0.072,0.101,0.14,0.203,0.219,0.3c1.534,1.893,3.984,2.602,6.195,2.013c0.097,0.144,0.198,0.286,0.309,0.423
				c2.081,2.57,5.852,2.965,8.421,0.884c0.74-0.599,1.293-1.34,1.665-2.15c2.145,1.625,5.193,1.652,7.378-0.118
				C398.269,267.318,385.678,267.162,385.678,267.162z"/>
		</g>
		<path style="fill:#407BFF;" d="M361.276,265.469c0,0,7.672,12.495-5.918,32.88c0,0,2.192,13.819,17.974,8.663
			c0,0,2.85-23.124,23.674-26.744c0,0,0.438-2.634-1.754-4.058c0,0-9.864,6.247-12.385,4.274c-2.521-1.973,8.111-7.782,8.111-7.782
			s-1.973-3.946-4.713-3.836c0,0-5.151,7.124-8.768,5.809c-3.617-1.315,0-9.207,0-9.207s-2.521-2.082-5.261-0.658
			c0,0-0.658,8.659-2.521,8.33s-3.069-8.828-3.069-8.828S364.345,263.058,361.276,265.469z"/>
		<path style="opacity:0.5;fill:#FFFFFF;" d="M361.276,265.469c0,0,7.672,12.495-5.918,32.88c0,0,2.192,13.819,17.974,8.663
			c0,0,2.85-23.124,23.674-26.744c0,0,0.438-2.634-1.754-4.058c0,0-9.864,6.247-12.385,4.274c-2.521-1.973,8.111-7.782,8.111-7.782
			s-1.973-3.946-4.713-3.836c0,0-5.151,7.124-8.768,5.809c-3.617-1.315,0-9.207,0-9.207s-2.521-2.082-5.261-0.658
			c0,0-0.658,8.659-2.521,8.33s-3.069-8.828-3.069-8.828S364.345,263.058,361.276,265.469z"/>
		<path style="opacity:0.3;fill:#FFFFFF;" d="M373.332,307.012c-6.466-14.134-17.974-8.663-17.974-8.663
			S357.549,312.168,373.332,307.012z"/>
		<path style="opacity:0.1;" d="M364.783,294.55c0,0,7.672-12.714,6.211-17.975C369.532,271.315,368.509,285.855,364.783,294.55z"/>
		<path style="opacity:0.1;" d="M371.179,292.723c0,0,7.341-12.568,9.533-11.106C382.904,283.078,377.355,285.051,371.179,292.723z"
			/>
		<path style="opacity:0.1;" d="M372.163,284.393c0,0,2.923-8.549,4.384-7.818C378.008,277.306,372.163,284.393,372.163,284.393z"/>
		<path style="opacity:0.1;" d="M369.24,296.376c0.658-5.261-5.845,2.63-6.211-1.827c-0.213-2.597-2.955-1.547-5.208-0.218
			c-0.733,1.303-1.546,2.641-2.464,4.018c0,0,2.192,13.819,17.974,8.663c0,0,1.662-13.404,11.648-21.399
			c-0.012,0.007-0.022,0.01-0.034,0.017C377.688,289.719,368.583,301.637,369.24,296.376z"/>
	</g>
</g>
<g id="Apple">
	<g>
		<g>
			<path style="fill:#407BFF;" d="M379.87,178.295c0,0,6.204-26.209,23.529-12.291C403.399,166.004,393.928,178.688,379.87,178.295z
				"/>
			<path style="opacity:0.4;fill:#FFFFFF;" d="M379.87,178.295c0,0,6.204-26.209,23.529-12.291
				C403.399,166.004,393.928,178.688,379.87,178.295z"/>
			<path style="opacity:0.3;fill:#FFFFFF;" d="M394.048,165.915c6.175-1.472,8.48-0.501,9.134-0.079
				c-17.159-13.524-23.312,12.459-23.312,12.459S386.425,167.733,394.048,165.915z"/>
		</g>
		<path style="fill:#263238;" d="M378.12,181.64c0,0,2.167-11.475-3.833-16.238c0,0,1.118-2.096,4.642-0.929
			c0,0,2.774,7.25,1.191,17.167H378.12z"/>
		<path style="opacity:0.4;fill:#FFFFFF;" d="M378.12,181.64c0,0,2.167-11.475-3.833-16.238c0,0,1.118-2.096,4.642-0.929
			c0,0,2.774,7.25,1.191,17.167H378.12z"/>
		<g>
			<path style="fill:#407BFF;" d="M391.729,175.46c-3.929-0.09-8.499,1.865-12.132,5.013c-4.33-3.149-9.539-5.103-13.469-5.013
				c-12.416,0.283-15.034,15.506-12.811,25.257c1.975,8.663,7.657,24.287,17.078,25.256c2.394,0.246,5.86-1.865,9.018-5.013
				c2.604,3.149,5.656,5.26,8.049,5.013c9.423-0.969,15.104-16.593,17.078-25.256C406.763,190.967,404.146,175.744,391.729,175.46z"
				/>
		</g>
		<path style="opacity:0.1;" d="M405.252,193.736c-0.055,8.486-7.657,18.904-14.465,18.904c-6.833,0-6-6.836-10.833-6.836
			c-4.833,0-4.5,10.503-9.5,10.503s-6.667-8-9.5-7.667c-1.798,0.212-2.922,2.634-3.506,4.379
			c2.968,6.484,7.281,12.371,12.948,12.954c2.394,0.246,5.86-1.865,9.018-5.013c2.604,3.149,5.656,5.26,8.049,5.013
			c9.423-0.969,15.104-16.593,17.078-25.256C405.027,198.581,405.282,196.182,405.252,193.736z"/>
		<path style="opacity:0.2;fill:#FFFFFF;" d="M355.953,195.806c0,0,0.667-16.058,7-15.862
			C369.287,180.14,359.287,185.473,355.953,195.806z"/>
		<path style="fill:#263238;" d="M378.929,164.473c-3.524-1.167-4.642,0.929-4.642,0.929S378.488,167.306,378.929,164.473z"/>
	</g>
</g>
<g id="Tomato">
	<g>
		<path style="fill:#407BFF;" d="M353.064,106.896c-1.309,0-2.589,0.115-3.833,0.332c-2.4,0.417-4.835,0.417-7.235,0
			c-1.244-0.216-2.523-0.332-3.833-0.332c-12.227,0-22.139,9.569-22.139,21.372c0,11.803,9.912,21.372,22.139,21.372
			c0.807,0,1.603-0.044,2.387-0.128c3.363-0.362,6.763-0.362,10.126,0c0.783,0.084,1.58,0.128,2.387,0.128
			c12.227,0,22.139-9.569,22.139-21.372C375.204,116.464,365.291,106.896,353.064,106.896z"/>
		<path style="opacity:0.1;" d="M353.064,106.896c-1.309,0-2.589,0.115-3.833,0.332c-2.4,0.417-4.835,0.417-7.235,0
			c-1.244-0.216-2.523-0.332-3.833-0.332c-12.227,0-22.139,9.569-22.139,21.372c0,11.803,9.912,21.372,22.139,21.372
			c0.807,0,1.603-0.044,2.387-0.128c3.363-0.362,6.763-0.362,10.126,0c0.783,0.084,1.58,0.128,2.387,0.128
			c12.227,0,22.139-9.569,22.139-21.372C375.204,116.464,365.291,106.896,353.064,106.896z"/>
		<path style="opacity:0.2;fill:#FFFFFF;" d="M323.568,118.456c1.662-3.201,4.036-5.761,6.119-4.896
			c1.473,0.612-0.453,3.531,1.36,4.237c1.813,0.706,3.513-2.542,5.326-2.683c1.813-0.141,1.36,3.954,3.74,4.096
			c2.38,0.141,2.04-3.813,3.513-3.672c1.699,0.163,1.132,9.809-0.907,9.886c-1.247,0.047-1.133-2.966-2.72-2.966
			c-2.757,0-4.646,4.095-7.139,4.095s-0.793-4.378-2.606-4.802c-1.813-0.424-4.759,6.496-7.252,4.802
			C320.509,124.858,322.417,120.673,323.568,118.456z"/>
		<path style="opacity:0.2;" d="M353.064,149.64c12.227,0,22.139-9.569,22.139-21.372c0-5.941-2.515-11.313-6.569-15.186
			c1.24,1.231,10.48,11.076,2.119,23.31c-8.944,13.087-18.171,8.191-29.092,9.98c-10.739,1.759-21.241-5.565-21.591-5.812
			c4.008,5.486,10.61,9.08,18.093,9.08c0.807,0,1.603-0.044,2.387-0.128c3.363-0.362,6.763-0.362,10.126,0
			C351.461,149.596,352.257,149.64,353.064,149.64z"/>
		<g>
			<g>
				<path style="fill:#263238;" d="M344.14,105.845c-3.058,0.359-6.325-7.321-9.165-6.675c0,0,4.131,3.615,5.164,6.842
					c0,0-11.101-1.874-13.812,1.383c0,0,15.211-2.329,14.974,1.715c-0.077,1.324-3.485,1.549-3.485,4.002
					c0,0,4.131-2.84,6.971-2.711c2.84,0.129,4.647,4.26,4.647,4.26s-0.733-2.365,0-4.518c0.79-2.322,9.94-3.247,12.909-0.129
					c0,0-2.741-5.17-10.099-3.583c0,0,4.161-4.162,9.196-3.258c0,0-5.182-2.777-11.047,1.973c-1.226,0.993-2.957,1.086-4.304,0.264
					l-0.915-0.558C345.173,104.85,344.822,105.765,344.14,105.845z"/>
			</g>
			<path style="fill:#263238;" d="M344.766,106.591c-0.297-2.696,1.355-7.655-0.839-10.817c0,0,2.646-1.807,4.195,0.581
				c0,0,1.667,5.159-1.613,10.237C346.272,106.957,344.931,108.093,344.766,106.591z"/>
			<path style="opacity:0.2;fill:#FFFFFF;" d="M344.766,106.591c-0.297-2.696,1.355-7.655-0.839-10.817c0,0,2.646-1.807,4.195,0.581
				c0,0,1.667,5.159-1.613,10.237C346.272,106.957,344.931,108.093,344.766,106.591z"/>
			<path style="opacity:0.4;fill:#FFFFFF;" d="M348.121,96.354c-1.549-2.388-4.195-0.581-4.195-0.581S346.038,98.002,348.121,96.354
				z"/>
		</g>
	</g>
</g>
<g id="Pizza">
	<g>
		<g>
			<g>
				<g>
					<path style="fill:#407BFF;" d="M99.856,339.531c13.064-8.232,30.726-13.568,51.622-13.568l1.048,47.197
						c0.039,1.738-1.837,2.85-3.343,1.983l-47.145-27.14c-1.349-0.777-2.181-2.215-2.181-3.772V339.531z"/>
					<path style="opacity:0.2;fill:#FFFFFF;" d="M99.856,339.531c13.064-8.232,30.726-13.568,51.622-13.568l1.048,47.197
						c0.039,1.738-1.837,2.85-3.343,1.983l-47.145-27.14c-1.349-0.777-2.181-2.215-2.181-3.772V339.531z"/>
				</g>
				<path style="fill:#407BFF;" d="M152.242,325.299v45.13c0,0-4.912-2.914-6.597-3.797c-4.187-2.196-12.826-6.096-16.872-8.542
					c-3.463-2.094-9.913-7.059-13.496-8.94c-2.225-1.168-7.018-2.815-9.172-4.109c-1.575-0.946-5.8-4.51-5.8-4.51
					c-1.116-0.642,0.067-3.986,1.184-4.626C114.808,328.281,131.975,325.299,152.242,325.299z"/>
				<path style="opacity:0.5;fill:#FFFFFF;" d="M152.242,325.299v45.13c0,0-4.912-2.914-6.597-3.797
					c-4.187-2.196-12.826-6.096-16.872-8.542c-3.463-2.094-9.913-7.059-13.496-8.94c-2.225-1.168-7.018-2.815-9.172-4.109
					c-1.575-0.946-5.8-4.51-5.8-4.51c-1.116-0.642,0.067-3.986,1.184-4.626C114.808,328.281,131.975,325.299,152.242,325.299z"/>
			</g>
			<path style="fill:#407BFF;" d="M101.731,337.385c3.805,1.756,6.659,5.78,9.073,7.683c2.414,1.902,8.488,3.951,11.048,6.439
				c1.916,1.861,8.868,4.296,12.984,6.538c3.333,1.641,2.382,6.562,2.528,8.901c0.146,2.341-0.439,3.293,1.024,5.341
				c1.463,2.049,2.634,10.683,3.293,1.244c0.655-9.389,3.371-8.202,3.4-8.189c3.161,1.738,6.112,3.141,6.112,3.141
				c2.318,1.143-0.073,16.756,1.902,16.463c1.975-0.293,0.951-19.097-0.073-23.487c-1.024-4.39,0.659-12.512,0.146-17.341
				c-0.512-4.829,0.951-17.853,0-19.463c-0.951-1.61-10.536,0.512-18.585,1.024c-8.049,0.512-16.097,3.512-19.609,4.683
				C111.462,331.532,97.926,335.629,101.731,337.385z M140.133,362.78c0,0,1.286,8.719-0.324,6.643
				C137.676,366.673,140.133,362.78,140.133,362.78z"/>
			<path style="opacity:0.7;fill:#FFFFFF;" d="M101.731,337.385c3.805,1.756,6.659,5.78,9.073,7.683
				c2.414,1.902,8.488,3.951,11.048,6.439c1.916,1.861,8.868,4.296,12.984,6.538c3.333,1.641,2.382,6.562,2.528,8.901
				c0.146,2.341-0.439,3.293,1.024,5.341c1.463,2.049,2.634,10.683,3.293,1.244c0.655-9.389,3.371-8.202,3.4-8.189
				c3.161,1.738,6.112,3.141,6.112,3.141c2.318,1.143-0.073,16.756,1.902,16.463c1.975-0.293,0.951-19.097-0.073-23.487
				c-1.024-4.39,0.659-12.512,0.146-17.341c-0.512-4.829,0.951-17.853,0-19.463c-0.951-1.61-10.536,0.512-18.585,1.024
				c-8.049,0.512-16.097,3.512-19.609,4.683C111.462,331.532,97.926,335.629,101.731,337.385z M140.133,362.78
				c0,0,1.286,8.719-0.324,6.643C137.676,366.673,140.133,362.78,140.133,362.78z"/>
			<g style="opacity:0.1;">
				<path d="M107.622,332.863c2.884-1.08,5.935-2.029,7.353-2.502c1.438-0.479,3.645-1.266,6.294-2.062
					c-1.685,1.439-2.433,3.042-2.433,4.041C118.836,333.893,113.161,332.517,107.622,332.863z"/>
				<path d="M134.584,325.678c3.756-0.239,7.836-0.826,11.227-1.223c-1.739,0.966-3.6,2.245-3.7,3.343
					c-0.137,1.508-3.854-0.949-8.444-2.044C133.973,325.727,134.278,325.698,134.584,325.678z"/>
			</g>
		</g>
		<g>
			<path style="fill:#407BFF;" d="M149.87,331.961c-4.273-0.607-9.556-1.041-15.99,2.176c-6.434,3.217-19.491,4.447-21.667,6.718
				c-2.176,2.271,4.352,6.623,11.354,5.582c7.002-1.041,9.935-2.555,11.259,2.176c1.325,4.731,0.627,6.623,5.186,7.853
				c4.559,1.23,4.749,5.772,7.398,7.38c2.649,1.608,5.393,3.501,2.649-8.232c-2.744-11.732,1.135-11.922,0.378-15.801
				C149.68,335.935,152.919,332.395,149.87,331.961z"/>
			<path style="opacity:0.3;fill:#FFFFFF;" d="M149.87,331.961c-4.273-0.607-9.556-1.041-15.99,2.176
				c-6.434,3.217-19.491,4.447-21.667,6.718c-2.176,2.271,4.352,6.623,11.354,5.582c7.002-1.041,9.935-2.555,11.259,2.176
				c1.325,4.731,0.627,6.623,5.186,7.853c4.559,1.23,4.749,5.772,7.398,7.38c2.649,1.608,5.393,3.501,2.649-8.232
				c-2.744-11.732,1.135-11.922,0.378-15.801C149.68,335.935,152.919,332.395,149.87,331.961z"/>
		</g>
		<g>
			<g>
				<path style="fill:#263238;" d="M143.05,342.361c0.87,0.578,1.939,0.5,2.388-0.174c0.448-0.675,0.106-1.69-0.765-2.269
					c-0.871-0.578-1.94-0.5-2.388,0.175C141.837,340.767,142.18,341.782,143.05,342.361z"/>
				<path style="fill:#263238;" d="M131.269,339.945c1.037-0.129,1.797-0.884,1.698-1.688c-0.1-0.804-1.021-1.351-2.058-1.223
					c-1.037,0.129-1.797,0.884-1.697,1.688C129.31,339.526,130.232,340.074,131.269,339.945z"/>
				<path style="fill:#263238;" d="M129.227,351.152c1.156,0.768,2.576,0.664,3.171-0.232c0.595-0.896,0.141-2.245-1.016-3.013
					c-1.156-0.768-2.576-0.664-3.171,0.232S128.071,350.384,129.227,351.152z"/>
				<path style="fill:#263238;" d="M145.435,354.536c0.967,0.397,2,0.112,2.308-0.637c0.308-0.749-0.226-0.543-1.193-0.94
					c-0.967-0.397-2-1.247-2.308-0.498C143.934,353.21,144.468,354.139,145.435,354.536z"/>
				<path style="fill:#263238;" d="M141.79,334.845l1.006,0.872c0.646,0.561,1.633,0.087,1.629-0.769
					c-0.006-1.244-0.5-2.773-2.635-3.506c-1.967-0.675-3.175-0.052-3.871,0.671c-0.528,0.548-0.269,1.461,0.47,1.644l1.387,0.344
					l-0.966,0.987c-0.354,0.362-0.293,0.957,0.127,1.239l0.967,0.651c0.431,0.29,1.02,0.105,1.208-0.38L141.79,334.845z"/>
				<path style="fill:#263238;" d="M140.569,350.74l1.254,1.087c0.551,0.478,1.413,0.163,1.525-0.559
					c0.186-1.21-0.056-2.911-2.315-4.074c-1.858-0.957-3.119-0.454-3.887,0.213c-0.566,0.492-0.357,1.416,0.369,1.604l1.379,0.359
					l-1.282,1.488c-0.375,0.436-0.285,1.102,0.192,1.423l0.723,0.486c0.511,0.344,1.209,0.124,1.431-0.45L140.569,350.74z"/>
				<path style="fill:#263238;" d="M118.775,340.1l1.441-0.289c0.634-0.127,0.712-0.872,0.139-1.318
					c-0.962-0.748-2.52-1.458-4.433-0.528c-1.574,0.765-1.653,1.876-1.392,2.738c0.193,0.636,1.069,0.969,1.526,0.575l0.866-0.749
					l0.758,1.632c0.222,0.478,0.829,0.759,1.298,0.602l0.71-0.239c0.502-0.169,0.596-0.754,0.194-1.199L118.775,340.1z"/>
			</g>
			<path style="opacity:0.2;fill:#FFFFFF;" d="M143.05,342.361c0.87,0.578,1.939,0.5,2.388-0.174
				c0.448-0.675,0.106-1.69-0.765-2.269c-0.871-0.578-1.94-0.5-2.388,0.175C141.837,340.767,142.18,341.782,143.05,342.361z"/>
			<path style="opacity:0.2;fill:#FFFFFF;" d="M131.269,339.945c1.037-0.129,1.797-0.884,1.698-1.688
				c-0.1-0.804-1.021-1.351-2.058-1.223c-1.037,0.129-1.797,0.884-1.697,1.688C129.31,339.526,130.232,340.074,131.269,339.945z"/>
			<path style="opacity:0.2;fill:#FFFFFF;" d="M129.227,351.152c1.156,0.768,2.576,0.664,3.171-0.232
				c0.595-0.896,0.141-2.245-1.016-3.013c-1.156-0.768-2.576-0.664-3.171,0.232S128.071,350.384,129.227,351.152z"/>
			<path style="opacity:0.2;fill:#FFFFFF;" d="M145.435,354.536c0.967,0.397,2,0.112,2.308-0.637
				c0.308-0.749-0.226-0.543-1.193-0.94c-0.967-0.397-2-1.247-2.308-0.498C143.934,353.21,144.468,354.139,145.435,354.536z"/>
			<path style="opacity:0.8;fill:#FFFFFF;" d="M141.79,334.845l1.006,0.872c0.646,0.561,1.633,0.087,1.629-0.769
				c-0.006-1.244-0.5-2.773-2.635-3.506c-1.967-0.675-3.175-0.052-3.871,0.671c-0.528,0.548-0.269,1.461,0.47,1.644l1.387,0.344
				l-0.966,0.987c-0.354,0.362-0.293,0.957,0.127,1.239l0.967,0.651c0.431,0.29,1.02,0.105,1.208-0.38L141.79,334.845z"/>
			<path style="opacity:0.8;fill:#FFFFFF;" d="M140.569,350.74l1.254,1.087c0.551,0.478,1.413,0.163,1.525-0.559
				c0.186-1.21-0.056-2.911-2.315-4.074c-1.858-0.957-3.119-0.454-3.887,0.213c-0.566,0.492-0.357,1.416,0.369,1.604l1.379,0.359
				l-1.282,1.488c-0.375,0.436-0.285,1.102,0.192,1.423l0.723,0.486c0.511,0.344,1.209,0.124,1.431-0.45L140.569,350.74z"/>
			<path style="opacity:0.8;fill:#FFFFFF;" d="M118.775,340.1l1.441-0.289c0.634-0.127,0.712-0.872,0.139-1.318
				c-0.962-0.748-2.52-1.458-4.433-0.528c-1.574,0.765-1.653,1.876-1.392,2.738c0.193,0.636,1.069,0.969,1.526,0.575l0.866-0.749
				l0.758,1.632c0.222,0.478,0.829,0.759,1.298,0.602l0.71-0.239c0.502-0.169,0.596-0.754,0.194-1.199L118.775,340.1z"/>
		</g>
	</g>
</g>
<g id="Sandwich">
	<g>
		<g>
			<path style="fill:#407BFF;" d="M75.718,295.998c-1.311-9.455,15.05-8.492,34.689-11.215c19.639-2.722,35.121-8.098,36.432,1.357
				c1.311,9.455-14.929,9.361-34.569,12.084C92.63,300.946,77.028,305.454,75.718,295.998z"/>
			<path style="opacity:0.3;fill:#FFFFFF;" d="M75.718,295.998c-1.311-9.455,15.05-8.492,34.689-11.215
				c19.639-2.722,35.121-8.098,36.432,1.357c1.311,9.455-14.929,9.361-34.569,12.084C92.63,300.946,77.028,305.454,75.718,295.998z"
				/>
		</g>
		<g>
			<g>
				<path style="fill:#407BFF;" d="M78.623,287.809l-2.233,5.189c-0.615,1.43,1.042,2.716,2.664,2.068l8.113-3.242
					c1.031-0.412,2.197-0.449,3.221-0.103l7.725,2.61c0.62,0.209,1.336,0.133,1.904-0.203l7.779-4.602
					c1.324-0.783,3.026-0.86,4.363-0.196l6.64,3.295c0.425,0.211,0.973,0.159,1.359-0.129l7.615-5.676
					c0.728-0.542,1.663-0.83,2.605-0.801l12.932,0.399c0.989,0.031,1.617-0.945,1.034-1.606l-5.992-6.801l-57.867,7.421
					L78.623,287.809z"/>
				<path style="opacity:0.7;fill:#FFFFFF;" d="M78.623,287.809l-2.233,5.189c-0.615,1.43,1.042,2.716,2.664,2.068l8.113-3.242
					c1.031-0.412,2.197-0.449,3.221-0.103l7.725,2.61c0.62,0.209,1.336,0.133,1.904-0.203l7.779-4.602
					c1.324-0.783,3.026-0.86,4.363-0.196l6.64,3.295c0.425,0.211,0.973,0.159,1.359-0.129l7.615-5.676
					c0.728-0.542,1.663-0.83,2.605-0.801l12.932,0.399c0.989,0.031,1.617-0.945,1.034-1.606l-5.992-6.801l-57.867,7.421
					L78.623,287.809z"/>
			</g>
			<g>
				<path style="fill:#263238;" d="M135.454,283.459c0.094-0.784-0.021-1.324-0.021-1.324l-16.3,1.905c0,0-0.938,1.623-0.356,3.074
					c-0.136,1.705,0.899,3.96,7.635,3.477c10.584-0.759,9.202-7.151,9.202-7.151L135.454,283.459z"/>
				<path style="opacity:0.3;fill:#FFFFFF;" d="M119.133,284.04c0,0-3.486,6.005,7.098,5.245c10.584-0.759,9.202-7.151,9.202-7.151
					L119.133,284.04z"/>
			</g>
			<path style="fill:#263238;" d="M97.938,286.245l-16.3,1.905c0,0-1.774,2.489-1.005,4.355c-0.136,1.806,1.029,3.67,6.732,3.261
				c10.584-0.759,10.754-8.216,10.754-8.216l-0.422,0.049C97.924,286.791,97.938,286.245,97.938,286.245z"/>
			<path style="opacity:0.3;fill:#FFFFFF;" d="M81.638,288.15c0,0-5.037,7.069,5.547,6.31s10.754-8.215,10.754-8.215L81.638,288.15z
				"/>
			<g>
				<path style="fill:#263238;" d="M117.049,285.345c0.094-0.784-0.021-1.324-0.021-1.324l-16.3,1.905c0,0-0.938,1.623-0.356,3.075
					c-0.136,1.705,0.899,3.96,7.635,3.477c10.584-0.759,9.202-7.151,9.202-7.151L117.049,285.345z"/>
				<path style="opacity:0.3;fill:#FFFFFF;" d="M100.728,285.926c0,0-3.486,6.005,7.098,5.246s9.202-7.151,9.202-7.151
					L100.728,285.926z"/>
			</g>
			<g>
				<path style="fill:#407BFF;" d="M79.226,289.642c0,0-6.473,1.818-4.832,2.935c1.641,1.117-0.115,3.768,1.888,3.915
					c2.002,0.147,3.416-3.447,6.216-2.136c2.801,1.311,4.142-1.778,4.488-3.878c0.346-2.101-6.928-0.951-6.928-0.951L79.226,289.642
					z"/>
				<path style="fill:#407BFF;" d="M94.971,287.503c0,0-6.473,1.817-4.832,2.935c1.641,1.117-0.115,3.768,1.888,3.915
					c2.003,0.147,3.416-3.447,6.216-2.136c2.801,1.311,4.143-1.778,4.488-3.878c0.346-2.101-6.928-0.951-6.928-0.951L94.971,287.503
					z"/>
				<path style="fill:#407BFF;" d="M122.309,284.585c0,0,6.612,1.217,5.08,2.48c-1.532,1.263,0.46,3.741-1.521,4.071
					c-1.98,0.33-3.717-3.119-6.386-1.557c-2.669,1.562-4.288-1.391-4.825-3.451c-0.537-2.06,6.811-1.582,6.811-1.582
					L122.309,284.585z"/>
				<path style="fill:#407BFF;" d="M141.435,281.374c0,0,7.193-1.733,5.849-0.188c-1.343,1.545,3.484,2.151,1.863,3.225
					c-1.621,1.074-5.963,0.897-7.795,2.496c-1.831,1.599-2.887-0.908-4.448-0.427c-1.562,0.481-4.374-0.262-4.939-1.599
					C131.401,283.543,141.435,281.374,141.435,281.374z"/>
			</g>
		</g>
		<g>
			<path style="fill:#407BFF;" d="M145.415,275.868c1.311,9.455-15.05,8.492-34.689,11.215c-19.64,2.722-35.121,8.099-36.432-1.357
				c-1.311-9.455,13.779-17.66,33.419-20.383C127.352,262.621,144.104,266.412,145.415,275.868z"/>
			<path style="opacity:0.4;fill:#FFFFFF;" d="M145.415,275.868c1.311,9.455-15.05,8.492-34.689,11.215
				c-19.64,2.722-35.121,8.099-36.432-1.357c-1.311-9.455,13.779-17.66,33.419-20.383
				C127.352,262.621,144.104,266.412,145.415,275.868z"/>
			<path style="opacity:0.5;fill:#FFFFFF;" d="M107.712,265.343c-18.593,2.577-33.098,10.069-33.48,18.883
				c0.52,1.512,1.543,3.073,3.571,3.066c3.927-0.013,12.155-4.233,16.356-2.267c4.201,1.966,15.355-4.126,19.49-2.639
				c4.135,1.488,18.212-3.437,22.257-3.36c4.046,0.076,10.118,1.5,9.508-3.158C144.104,266.412,127.352,262.621,107.712,265.343z"/>
			<g style="opacity:0.2;">
				<path d="M113.373,264.733c-1.032,0.079-2.078,0.18-3.132,0.298c-2.871,3.518-7.595,9.626-6.135,10.017
					C105.476,275.415,110.299,269.039,113.373,264.733z"/>
				<path d="M95.791,267.82c-1.253,0.357-2.466,0.74-3.638,1.144c-2.724,3.295-8.368,10.393-6.791,10.816
					C86.923,280.198,92.959,271.875,95.791,267.82z"/>
				<path d="M126.468,264.814c-2.818,3.54-6.329,8.316-5.043,8.661c1.168,0.313,4.844-4.273,7.809-8.302
					C128.338,265.032,127.416,264.912,126.468,264.814z"/>
			</g>
		</g>
	</g>
</g>
<g id="Cola">
	<g>
		<path style="fill:#407BFF;" d="M124.45,210.283c0.546-4.807-0.351-9.013-2.381-14.562c-2.094-5.723-7.12-8.44-10.727-11.692
			c-2.603-2.347-6.11-10.787-7.519-14.363c-0.354-0.9-1.36-1.35-2.268-1.018l-6.297,2.304c-0.908,0.332-1.385,1.325-1.075,2.241
			c1.232,3.641,4.001,12.352,3.527,15.824c-0.656,4.811-2.741,10.131-0.647,15.854c2.03,5.548,4.06,9.34,7.58,12.659
			c2.061,1.944,3.406,5.746,2.928,8.538c-0.46,2.682-0.391,5.285,1.227,10.54c0.8,2.597,3.621,3.992,6.173,3.058l15.88-5.811
			c2.552-0.934,3.806-3.82,2.741-6.32c-2.156-5.058-3.784-7.09-5.866-8.842C125.557,216.87,124.13,213.098,124.45,210.283z"/>
		<path style="opacity:0.5;fill:#FFFFFF;" d="M124.45,210.283c0.546-4.807-0.351-9.013-2.381-14.562
			c-2.094-5.723-7.12-8.44-10.727-11.692c-2.603-2.347-6.11-10.787-7.519-14.363c-0.354-0.9-1.36-1.35-2.268-1.018l-6.297,2.304
			c-0.908,0.332-1.385,1.325-1.075,2.241c1.232,3.641,4.001,12.352,3.527,15.824c-0.656,4.811-2.741,10.131-0.647,15.854
			c2.03,5.548,4.06,9.34,7.58,12.659c2.061,1.944,3.406,5.746,2.928,8.538c-0.46,2.682-0.391,5.285,1.227,10.54
			c0.8,2.597,3.621,3.992,6.173,3.058l15.88-5.811c2.552-0.934,3.806-3.82,2.741-6.32c-2.156-5.058-3.784-7.09-5.866-8.842
			C125.557,216.87,124.13,213.098,124.45,210.283z"/>
		<g>
			<g>
				<path style="fill:#407BFF;" d="M103.217,167.74l-9.85,3.604l0.617,2.473l0.476-1.026c0.194-0.418,0.679-0.615,1.11-0.45
					l0.177,0.068c0.431,0.165,0.915-0.032,1.11-0.45l0.107-0.23c0.204-0.44,0.726-0.631,1.166-0.427l0.176,0.082
					c0.44,0.204,0.962,0.013,1.166-0.426l0.082-0.176c0.204-0.44,0.726-0.631,1.166-0.427l0.176,0.082
					c0.44,0.204,0.962,0.013,1.166-0.427l0.082-0.176c0.204-0.44,0.726-0.631,1.166-0.427l0.973,0.451L103.217,167.74z"/>
				<path style="opacity:0.2;" d="M103.217,167.74l-9.85,3.604l0.617,2.473l0.476-1.026c0.194-0.418,0.679-0.615,1.11-0.45
					l0.177,0.068c0.431,0.165,0.915-0.032,1.11-0.45l0.107-0.23c0.204-0.44,0.726-0.631,1.166-0.427l0.176,0.082
					c0.44,0.204,0.962,0.013,1.166-0.426l0.082-0.176c0.204-0.44,0.726-0.631,1.166-0.427l0.176,0.082
					c0.44,0.204,0.962,0.013,1.166-0.427l0.082-0.176c0.204-0.44,0.726-0.631,1.166-0.427l0.973,0.451L103.217,167.74z"/>
			</g>
			<path style="fill:#407BFF;" d="M103.03,168.191l-9.229,3.377c-0.587,0.215-1.238-0.087-1.453-0.674l-0.022-0.061
				c-0.215-0.587,0.087-1.238,0.674-1.453l9.229-3.377c0.587-0.215,1.238,0.087,1.453,0.674l0.022,0.061
				C103.92,167.326,103.618,167.976,103.03,168.191z"/>
		</g>
		<path style="fill:#263238;" d="M121.804,209.983L121.804,209.983c0.457-4.025-0.149-7.642-2.236-13.346
			c-1.339-3.659-4.152-5.888-7.13-8.248c-0.964-0.764-1.96-1.553-2.879-2.382c-0.225-0.203-0.454-0.447-0.684-0.709
			c-3.67,2.298-6.902,3.026-8.463,3.252c-0.01,0.292-0.028,0.572-0.063,0.828c-0.167,1.226-0.419,2.472-0.662,3.677
			c-0.752,3.725-1.462,7.243-0.123,10.902c2.087,5.704,3.959,8.858,6.906,11.637c2.747,2.591,4.349,7.288,3.725,10.925
			c-0.389,2.271-0.326,4.522,1.147,9.308c0.169,0.549,0.547,0.992,1.064,1.249c0.52,0.258,1.105,0.291,1.649,0.092l15.88-5.811
			c0.543-0.199,0.97-0.602,1.2-1.134c0.229-0.53,0.231-1.112,0.006-1.64c-1.963-4.607-3.368-6.367-5.131-7.85
			C123.187,218.356,121.378,213.735,121.804,209.983z"/>
		<path style="opacity:0.3;fill:#FFFFFF;" d="M112.879,223.893c0,0-1.361,11.131,1.34,11.087
			C116.92,234.937,112.879,223.893,112.879,223.893z"/>
		<path style="opacity:0.3;fill:#FFFFFF;" d="M118.127,223.745c0,0,0.674,9.306,3.181,8.692
			C123.814,231.824,118.127,223.745,118.127,223.745z"/>
		<path style="opacity:0.3;fill:#FFFFFF;" d="M96.515,175.301c0,0,2.508,4.255,3.202,8.752c0.694,4.497-0.937,11.212,2.212,11.477
			C105.078,195.796,102.66,181.44,96.515,175.301z"/>
		<g style="opacity:0.7;">
			<path style="fill:#FFFFFF;" d="M109.181,189.567c0.316,0.862-0.128,1.817-0.99,2.133c-0.862,0.316-1.817-0.128-2.133-0.99
				c-0.316-0.862,0.128-1.817,0.99-2.133C107.91,188.261,108.865,188.705,109.181,189.567z"/>
			<path style="fill:#FFFFFF;" d="M112.825,193.208c0.206,0.563-0.083,1.186-0.646,1.392c-0.563,0.206-1.186-0.083-1.392-0.646
				c-0.206-0.563,0.083-1.186,0.646-1.392C111.996,192.356,112.619,192.645,112.825,193.208z"/>
			<path style="fill:#FFFFFF;" d="M110.13,197c0.154,0.422-0.063,0.889-0.484,1.044c-0.422,0.154-0.889-0.063-1.043-0.484
				c-0.154-0.422,0.062-0.889,0.484-1.044C109.509,196.361,109.976,196.578,110.13,197z"/>
			<path style="fill:#FFFFFF;" d="M113.019,216.399c0.154,0.422-0.063,0.889-0.484,1.044c-0.422,0.154-0.889-0.063-1.043-0.484
				c-0.154-0.422,0.063-0.889,0.484-1.043C112.398,215.76,112.865,215.977,113.019,216.399z"/>
			<path style="fill:#FFFFFF;" d="M116.412,216.693c0.154,0.422-0.062,0.889-0.484,1.043c-0.422,0.154-0.889-0.063-1.044-0.484
				c-0.154-0.422,0.063-0.889,0.484-1.043C115.791,216.055,116.258,216.271,116.412,216.693z"/>
			<path style="fill:#FFFFFF;" d="M112.829,199.536c0.077,0.211-0.031,0.445-0.242,0.522c-0.211,0.077-0.445-0.031-0.522-0.242
				c-0.077-0.211,0.031-0.444,0.242-0.522C112.518,199.216,112.752,199.325,112.829,199.536z"/>
			<path style="fill:#FFFFFF;" d="M112.906,213.723c0.077,0.211-0.031,0.445-0.242,0.522c-0.211,0.077-0.444-0.031-0.522-0.242
				c-0.077-0.211,0.031-0.445,0.242-0.522C112.596,213.404,112.829,213.512,112.906,213.723z"/>
		</g>
	</g>
</g>
<g id="Donut">
	<g>
		<g>
			<path style="fill:#407BFF;" d="M179.146,138.236c-3.051,13.781-19.726,14.921-39.037,10.645
				c-19.311-4.276-33.946-12.35-30.894-26.131c3.052-13.78,20.049-16.38,39.361-12.104
				C167.887,114.923,182.198,124.456,179.146,138.236z"/>
			<g>
				<path style="opacity:0.6;fill:#FFFFFF;" d="M179.146,138.236c-3.051,13.781-19.726,14.921-39.037,10.645
					c-19.311-4.276-33.946-12.35-30.894-26.131c3.052-13.78,20.049-16.38,39.361-12.104
					C167.887,114.923,182.198,124.456,179.146,138.236z"/>
				<path style="fill:#407BFF;" d="M178.144,137.724c1.218,0.108,1.219-3.515,0.989-6.689c-2.402-9.924-14.817-16.903-30.558-20.388
					c-19.311-4.276-36.309-1.676-39.361,12.104c-0.07,0.316-0.12,0.625-0.172,0.935c0.26,1.029,0.778,1.98,1.773,2.382
					c2.634,1.061,5.457-2.617,8.699-0.847c3.242,1.77,1.963,5.599,6.296,6.654c4.333,1.055,6.578-3.038,9.577-1.896
					c2.999,1.142,5.251,6.518,10.427,7.76c5.176,1.242,7.3-3.165,12.202-2.845c4.902,0.32,4.398,3.46,9.139,4.51
					c4.741,1.05,5.967-5.373,7.823-5.536C176.835,133.705,175.987,137.533,178.144,137.724z"/>
				<path style="opacity:0.1;fill:#263238;" d="M163.626,124.255c-0.578,2.611-8.633,2.467-18.143,0.361
					c-9.51-2.106-16.873-5.376-16.295-7.987c0.578-2.61,7.926,0.727,17.436,2.832C156.133,121.567,164.204,121.644,163.626,124.255z
					"/>
				<path style="opacity:0.2;" d="M163.349,123.267c0.258,0.286,0.361,0.61,0.277,0.988c-0.578,2.611-8.633,2.467-18.143,0.361
					c-9.51-2.106-16.873-5.376-16.295-7.987c0.084-0.378,0.314-0.628,0.668-0.779c-0.998,0.015-1.616,0.309-1.771,1.01
					c-0.612,2.763,7.019,6.953,17.082,9.182c10.064,2.228,18.75,1.651,19.361-1.112
					C164.683,124.229,164.247,123.701,163.349,123.267z"/>
			</g>
		</g>
		<path style="opacity:0.1;" d="M134.898,121.41c2.831,1.187,6.509,2.303,10.584,3.206c4.648,1.029,8.946,1.588,12.196,1.587
			c-1.723-1.05-6.043-1.766-11.016-2.867C141.151,122.116,136.57,120.808,134.898,121.41z"/>
		<g>
			<path style="fill:#407BFF;" d="M126.963,122.606l-6.865,1.214c-0.542,0.096-1.058-0.266-1.154-0.807l0,0
				c-0.096-0.542,0.266-1.058,0.807-1.154l6.865-1.214c0.542-0.096,1.058,0.266,1.154,0.807l0,0
				C127.866,121.993,127.504,122.51,126.963,122.606z"/>
			<path style="fill:#407BFF;" d="M115.628,119.803l-5.439,2.476c-0.501,0.228-1.091,0.007-1.319-0.494l0,0
				c-0.228-0.501-0.007-1.091,0.494-1.319l5.439-2.476c0.501-0.228,1.091-0.007,1.319,0.494l0,0
				C116.35,118.984,116.128,119.575,115.628,119.803z"/>
			<path style="fill:#407BFF;" d="M129.178,109.329l-6.865,1.214c-0.542,0.096-1.058-0.266-1.154-0.807l0,0
				c-0.096-0.542,0.266-1.058,0.807-1.154l6.865-1.214c0.542-0.096,1.058,0.266,1.154,0.807l0,0
				C130.081,108.716,129.719,109.233,129.178,109.329z"/>
			<path style="fill:#407BFF;" d="M140.018,113.68l-5.421-4.384c-0.428-0.346-0.494-0.973-0.148-1.401l0,0
				c0.346-0.428,0.973-0.494,1.401-0.148l5.421,4.384c0.428,0.346,0.494,0.973,0.148,1.401l0,0
				C141.073,113.959,140.445,114.026,140.018,113.68z"/>
			<path style="fill:#407BFF;" d="M130.939,114.259l-6.955,0.479c-0.549,0.038-1.024-0.377-1.062-0.925l0,0
				c-0.038-0.549,0.376-1.024,0.925-1.062l6.955-0.479c0.549-0.038,1.024,0.376,1.062,0.925l0,0
				C131.902,113.746,131.488,114.222,130.939,114.259z"/>
			<path style="fill:#407BFF;" d="M123.862,117.248l-6.876-1.153c-0.542-0.091-0.909-0.604-0.818-1.147l0,0
				c0.091-0.543,0.604-0.909,1.147-0.818l6.876,1.153c0.543,0.091,0.909,0.604,0.818,1.147l0,0
				C124.918,116.973,124.405,117.339,123.862,117.248z"/>
			<path style="fill:#407BFF;" d="M152.115,115.328l-6.953-0.51c-0.549-0.04-0.961-0.518-0.92-1.066l0,0
				c0.04-0.549,0.518-0.961,1.066-0.92l6.953,0.51c0.549,0.04,0.961,0.518,0.92,1.066l0,0
				C153.141,114.956,152.664,115.368,152.115,115.328z"/>
			<path style="fill:#407BFF;" d="M163.843,121.119l-5.912-3.695c-0.466-0.292-0.608-0.906-0.317-1.372l0,0
				c0.291-0.466,0.906-0.608,1.372-0.317l5.912,3.695c0.467,0.291,0.608,0.906,0.317,1.372l0,0
				C164.924,121.269,164.31,121.41,163.843,121.119z"/>
			<path style="fill:#407BFF;" d="M173.818,129.358l-6.953-0.51c-0.549-0.04-0.961-0.518-0.92-1.066l0,0
				c0.04-0.549,0.518-0.961,1.066-0.92l6.953,0.51c0.549,0.04,0.961,0.518,0.92,1.066l0,0
				C174.844,128.986,174.367,129.399,173.818,129.358z"/>
			<path style="fill:#407BFF;" d="M171.201,134.272l6.865-1.214c0.542-0.096,1.058,0.266,1.154,0.807l0,0
				c0.096,0.542-0.266,1.058-0.807,1.154l-6.865,1.214c-0.542,0.096-1.058-0.266-1.154-0.807l0,0
				C170.298,134.884,170.66,134.368,171.201,134.272z"/>
			<path style="fill:#407BFF;" d="M169.24,132.785l-6.596-2.259c-0.52-0.178-0.798-0.744-0.62-1.265l0,0
				c0.178-0.52,0.745-0.798,1.265-0.62l6.596,2.259c0.52,0.178,0.798,0.744,0.62,1.265l0,0
				C170.327,132.686,169.761,132.964,169.24,132.785z"/>
			<path style="fill:#407BFF;" d="M154.391,130.619l-6.953-0.51c-0.549-0.04-0.961-0.518-0.92-1.066l0,0
				c0.04-0.549,0.518-0.961,1.066-0.92l6.953,0.51c0.549,0.04,0.961,0.518,0.92,1.066l0,0
				C155.416,130.247,154.939,130.66,154.391,130.619z"/>
			<path style="fill:#407BFF;" d="M147.495,135.081l-6.596-2.259c-0.52-0.178-0.798-0.745-0.62-1.265l0,0
				c0.178-0.52,0.745-0.798,1.265-0.62l6.596,2.259c0.52,0.178,0.798,0.745,0.62,1.265l0,0
				C148.582,134.982,148.016,135.259,147.495,135.081z"/>
			<path style="fill:#407BFF;" d="M162.106,115.294l-6.596-2.259c-0.52-0.178-0.798-0.744-0.62-1.265l0,0
				c0.178-0.52,0.745-0.798,1.265-0.62l6.596,2.259c0.52,0.178,0.798,0.745,0.62,1.265l0,0
				C163.193,115.195,162.626,115.473,162.106,115.294z"/>
			<path style="fill:#407BFF;" d="M139.291,128.194l-6.596-2.259c-0.52-0.178-0.798-0.745-0.62-1.265l0,0
				c0.178-0.52,0.745-0.798,1.265-0.619l6.596,2.259c0.52,0.178,0.798,0.745,0.62,1.265l0,0
				C140.378,128.094,139.811,128.372,139.291,128.194z"/>
			<path style="fill:#407BFF;" d="M176.324,124.879l-6.449-2.649c-0.509-0.209-0.752-0.791-0.543-1.3l0,0
				c0.209-0.509,0.791-0.752,1.3-0.543l6.449,2.649c0.509,0.209,0.752,0.791,0.543,1.3l0,0
				C177.414,124.844,176.833,125.088,176.324,124.879z"/>
		</g>
		<g style="opacity:0.8;">
			<path style="fill:#FFFFFF;" d="M126.963,122.606l-6.865,1.214c-0.542,0.096-1.058-0.266-1.154-0.807l0,0
				c-0.096-0.542,0.266-1.058,0.807-1.154l6.865-1.214c0.542-0.096,1.058,0.266,1.154,0.807l0,0
				C127.866,121.993,127.504,122.51,126.963,122.606z"/>
			<path style="opacity:0.5;fill:#FFFFFF;" d="M115.628,119.803l-5.439,2.476c-0.501,0.228-1.091,0.007-1.319-0.494l0,0
				c-0.228-0.501-0.007-1.091,0.494-1.319l5.439-2.476c0.501-0.228,1.091-0.007,1.319,0.494l0,0
				C116.35,118.984,116.128,119.575,115.628,119.803z"/>
			<path style="fill:#FFFFFF;" d="M129.178,109.329l-6.865,1.214c-0.542,0.096-1.058-0.266-1.154-0.807l0,0
				c-0.096-0.542,0.266-1.058,0.807-1.154l6.865-1.214c0.542-0.096,1.058,0.266,1.154,0.807l0,0
				C130.081,108.716,129.719,109.233,129.178,109.329z"/>
			<path style="fill:#FFFFFF;" d="M140.018,113.68l-5.421-4.384c-0.428-0.346-0.494-0.973-0.148-1.401l0,0
				c0.346-0.428,0.973-0.494,1.401-0.148l5.421,4.384c0.428,0.346,0.494,0.973,0.148,1.401l0,0
				C141.073,113.959,140.445,114.026,140.018,113.68z"/>
			<path style="opacity:0.5;fill:#FFFFFF;" d="M130.939,114.259l-6.955,0.479c-0.549,0.038-1.024-0.377-1.062-0.925l0,0
				c-0.038-0.549,0.376-1.024,0.925-1.062l6.955-0.479c0.549-0.038,1.024,0.376,1.062,0.925l0,0
				C131.902,113.746,131.488,114.222,130.939,114.259z"/>
			<path style="fill:#FFFFFF;" d="M123.862,117.248l-6.876-1.153c-0.542-0.091-0.909-0.604-0.818-1.147l0,0
				c0.091-0.543,0.604-0.909,1.147-0.818l6.876,1.153c0.543,0.091,0.909,0.604,0.818,1.147l0,0
				C124.918,116.973,124.405,117.339,123.862,117.248z"/>
			<path style="fill:#FFFFFF;" d="M152.115,115.328l-6.953-0.51c-0.549-0.04-0.961-0.518-0.92-1.066l0,0
				c0.04-0.549,0.518-0.961,1.066-0.92l6.953,0.51c0.549,0.04,0.961,0.518,0.92,1.066l0,0
				C153.141,114.956,152.664,115.368,152.115,115.328z"/>
			<path style="opacity:0.5;fill:#FFFFFF;" d="M163.843,121.119l-5.912-3.695c-0.466-0.292-0.608-0.906-0.317-1.372l0,0
				c0.291-0.466,0.906-0.608,1.372-0.317l5.912,3.695c0.467,0.291,0.608,0.906,0.317,1.372l0,0
				C164.924,121.269,164.31,121.41,163.843,121.119z"/>
			<path style="fill:#FFFFFF;" d="M173.818,129.358l-6.953-0.51c-0.549-0.04-0.961-0.518-0.92-1.066l0,0
				c0.04-0.549,0.518-0.961,1.066-0.92l6.953,0.51c0.549,0.04,0.961,0.518,0.92,1.066l0,0
				C174.844,128.986,174.367,129.399,173.818,129.358z"/>
			<path style="fill:#FFFFFF;" d="M171.201,134.272l6.865-1.214c0.542-0.096,1.058,0.266,1.154,0.807l0,0
				c0.096,0.542-0.266,1.058-0.807,1.154l-6.865,1.214c-0.542,0.096-1.058-0.266-1.154-0.807l0,0
				C170.298,134.884,170.66,134.368,171.201,134.272z"/>
			<path style="fill:#FFFFFF;" d="M169.24,132.785l-6.596-2.259c-0.52-0.178-0.798-0.744-0.62-1.265l0,0
				c0.178-0.52,0.745-0.798,1.265-0.62l6.596,2.259c0.52,0.178,0.798,0.744,0.62,1.265l0,0
				C170.327,132.686,169.761,132.964,169.24,132.785z"/>
			<path style="fill:#FFFFFF;" d="M154.391,130.619l-6.953-0.51c-0.549-0.04-0.961-0.518-0.92-1.066l0,0
				c0.04-0.549,0.518-0.961,1.066-0.92l6.953,0.51c0.549,0.04,0.961,0.518,0.92,1.066l0,0
				C155.416,130.247,154.939,130.66,154.391,130.619z"/>
			<path style="opacity:0.5;fill:#FFFFFF;" d="M147.495,135.081l-6.596-2.259c-0.52-0.178-0.798-0.745-0.62-1.265l0,0
				c0.178-0.52,0.745-0.798,1.265-0.62l6.596,2.259c0.52,0.178,0.798,0.745,0.62,1.265l0,0
				C148.582,134.982,148.016,135.259,147.495,135.081z"/>
			<path style="fill:#FFFFFF;" d="M162.106,115.294l-6.596-2.259c-0.52-0.178-0.798-0.744-0.62-1.265l0,0
				c0.178-0.52,0.745-0.798,1.265-0.62l6.596,2.259c0.52,0.178,0.798,0.745,0.62,1.265l0,0
				C163.193,115.195,162.626,115.473,162.106,115.294z"/>
			<path style="fill:#FFFFFF;" d="M139.291,128.194l-6.596-2.259c-0.52-0.178-0.798-0.745-0.62-1.265l0,0
				c0.178-0.52,0.745-0.798,1.265-0.619l6.596,2.259c0.52,0.178,0.798,0.745,0.62,1.265l0,0
				C140.378,128.094,139.811,128.372,139.291,128.194z"/>
			<path style="fill:#FFFFFF;" d="M176.324,124.879l-6.449-2.649c-0.509-0.209-0.752-0.791-0.543-1.3l0,0
				c0.209-0.509,0.791-0.752,1.3-0.543l6.449,2.649c0.509,0.209,0.752,0.791,0.543,1.3l0,0
				C177.414,124.844,176.833,125.088,176.324,124.879z"/>
		</g>
	</g>
</g>
<g id="Character">
	<g>
		<g>
			<path style="fill:#FFC3BD;" d="M265.767,195.982c0,0,10.186,11.586,0.7,17.052l-7.703-8.526L265.767,195.982z"/>
			<path style="opacity:0.1;" d="M264.885,197.055l-6.122,7.453l7.703,8.526C272.049,209.028,266.915,200.129,264.885,197.055z"/>
			<path style="fill:#263238;" d="M256.566,184.735c0,0,5.735,4.209,11.431,13.206c0,0-2.018,5.805-8.946,9.288
				C259.052,207.23,245.658,192.572,256.566,184.735z"/>
			<path style="opacity:0.7;" d="M256.566,184.735c0,0,5.735,4.209,11.431,13.206c0,0-2.018,5.805-8.946,9.288
				C259.052,207.23,245.658,192.572,256.566,184.735z"/>
		</g>
		<g>
			<path style="fill:#FFC3BD;" d="M265.947,286.864l2.186,117.252l-7.483,0.976c0,0-8.904-46.848-9.496-68.85
				c-0.117-4.359-0.193-14.058-1.333-20.326c-1.409-7.744-3.102-18.241-3.637-26.475L265.947,286.864z"/>
			<path style="fill:#263238;" d="M267.928,403.148l-7.864,0.041c-0.342,0.001-0.639,0.238-0.713,0.573l-1.625,7.395
				c-0.149,0.655,0.261,1.307,0.916,1.455c0.084,0.019,0.17,0.029,0.256,0.03c3.275-0.065,6.187-0.251,10.265-0.255
				c4.812-0.01,3.592,0.569,9.25,0.636c3.409,0.037,4.024-3.839,2.578-4.026c-6.617-0.817-8.53-2.832-11.087-5.194
				C269.348,403.351,268.645,403.117,267.928,403.148z"/>
			<path style="fill:#407BFF;" d="M262.636,246.512c0,0,4.654,24.468,4.678,56.078l-19.934,2.014l-4.397-31.478
				c0,0-4.513-12.61-2.596-24.395L262.636,246.512z"/>
			<path style="opacity:0.2;" d="M242.982,273.126l4.398,31.478l2.514-0.254c2.428-9.573-4.348-38.635-4.348-38.635l-3.706,3.534
				C242.456,271.654,242.982,273.126,242.982,273.126z"/>
		</g>
		<g>
			<path style="fill:#FFC3BD;" d="M243.57,289.129c0,0-4.263,28.337-5.801,37.733c-3.223,19.696-14.701,78.368-14.701,78.368h-7.546
				c0,0,0.723-48.26,4.937-69.735c0.785-4.001,2.557-12.65,2.453-18.303c-0.146-7.959-0.142-19.35,0.728-28.062H243.57z"/>
			<path style="fill:#263238;" d="M223.455,403.148l-7.864,0.041c-0.342,0.001-0.639,0.238-0.713,0.573l-1.625,7.395
				c-0.149,0.655,0.261,1.307,0.916,1.455c0.084,0.019,0.17,0.029,0.256,0.03c3.275-0.065,6.187-0.251,10.264-0.255
				c4.812-0.01,3.592,0.569,9.25,0.636c3.409,0.037,4.024-3.839,2.578-4.026c-6.617-0.817-8.53-2.832-11.087-5.194
				C224.875,403.351,224.172,403.117,223.455,403.148z"/>
			<path style="fill:#407BFF;" d="M246.917,248.687c0,0,0.583,24.865-4.575,56.212l-20.007-0.581l0.82-31.783
				c0,0-2.387-13.088,1.437-24.526L246.917,248.687z"/>
		</g>
		<g>
			<path style="fill:#263238;" d="M215.809,186.515c1.803,5.729,7.059,25.549,7.594,63.236c0,0,24.488,2.032,39.658-2.032
				c0,0-1.189-8.246-1.781-20.898c-0.827-17.66-1.358-39.38-4.712-42.086c-5.556-4.481-22.829-5.719-39.536-0.587
				C216.037,184.453,215.497,185.524,215.809,186.515z"/>
			<path style="opacity:0.4;fill:#FFFFFF;" d="M228.628,181.565c2.693,2.16,11.144,7.703,19.098-0.084
				C242.493,180.598,235.782,180.54,228.628,181.565z"/>
			<path style="opacity:0.7;" d="M218.871,187.637l-2.011,2.554c0.823,3.129,1.853,7.654,2.853,13.673
				c3.763-7.514,1.364-14.493,1.364-14.493L218.871,187.637z"/>
			<path style="opacity:0.7;" d="M247.448,187.637c0,0,7.151,20.243,13.305,27.397c-0.23-5.002-0.49-9.93-0.84-14.326
				c-4.192-6.498-8.824-12.393-8.824-12.393L247.448,187.637z"/>
		</g>
		<path style="fill:#263238;" d="M247.749,145.188c0,0,3.893,0.943,4.473-2.757c0,0,0.881,3.846-1.337,4.426
			c0,0,2.915,1.814,1.981,5.225c-0.934,3.41,0,4.934,0,4.934s-1.587-2.032-1.587-5.152c0,0,1.078,7.255-2.872,5.659
			c-3.949-1.595-2.866-11.714-2.866-11.714L247.749,145.188z"/>
		<path style="opacity:0.6;" d="M247.749,145.188c0,0,3.893,0.943,4.473-2.757c0,0,0.881,3.846-1.337,4.426
			c0,0,2.915,1.814,1.981,5.225c-0.934,3.41,0,4.934,0,4.934s-1.587-2.032-1.587-5.152c0,0,1.078,7.255-2.872,5.659
			c-3.949-1.595-2.866-11.714-2.866-11.714L247.749,145.188z"/>
		<path style="fill:#FFC3BD;" d="M231.565,166.836c0,0,2.319,10.715-0.388,14.404c0,0,8.037,4.458,13.549-0.16
			c0,0-5.179-3.553-3.969-10.713L231.565,166.836z"/>
		<path style="opacity:0.1;" d="M242.941,179.314c-1.366-1.718-2.903-4.69-2.184-8.946l-9.191-3.531c0,0,0.018,0.089,0.044,0.216
			C231.868,168.262,234.683,177.347,242.941,179.314z"/>
		<g>
			<path style="fill:#FFC3BD;" d="M214.679,185.452c0,0-22.291,22.349-22.14,32.605c0.127,8.636,19.699,19.192,25.879,22.311
				c1.15,0.58,2.472,0.588,3.57,0.024l2.799-1.437l0.795,0.358c0.878,0.396,1.843-0.162,1.902-1.101l0.438-6.958
				c0.043-0.688-0.43-1.329-1.11-1.502l-3.847-0.98c-0.626-0.159-1.264,0.092-1.587,0.624l-2.977,4.914
				c0,0-15.872-13.932-15.107-17.802c0.765-3.87,11.268-12.778,14.934-18.139C220.362,195.247,223.144,190.967,214.679,185.452z"/>
			<path style="fill:#263238;" d="M203.39,196.192l9.161,9.578c0,0,11.157-8.07,8.525-16.399
				C217.268,177.318,208.183,190.725,203.39,196.192z"/>
		</g>
		<path style="fill:#FFC3BD;" d="M231.035,153.691c-1.4,6.951-2.133,9.857,0.39,14.278c3.794,6.66,12.639,6.848,16.085,0.464
			c3.094-5.758,4.866-16.193-1.124-20.651c-4.249-3.232-10.314-2.406-13.545,1.843C231.931,150.822,231.313,152.214,231.035,153.691
			z"/>
		<path style="fill:#263238;" d="M241.459,158.372c-0.142,0.558,0.033,1.089,0.391,1.188c0.358,0.099,0.783-0.281,0.934-0.834
			c0.151-0.553-0.033-1.089-0.391-1.188C242.035,157.439,241.628,157.852,241.459,158.372z"/>
		<path style="fill:#263238;" d="M247.743,160.053c-0.146,0.567,0.033,1.089,0.391,1.188c0.358,0.099,0.783-0.281,0.934-0.834
			c0.151-0.553-0.033-1.089-0.396-1.179C248.31,159.139,247.894,159.5,247.743,160.053z"/>
		<path style="fill:#ED893E;" d="M245.536,160.547c0.162,1.403,0.515,2.778,1.049,4.085c-0.686,0.252-1.448,0.195-2.089-0.157
			L245.536,160.547z"/>
		<path style="fill:#263238;" d="M239.265,156.437c0.134,0.063,0.294,0.029,0.391-0.082c0.842-0.729,1.95-1.074,3.056-0.951
			c0.187,0.023,0.358-0.109,0.383-0.296c0.023-0.182-0.106-0.349-0.288-0.372c-0.004-0.001-0.008-0.001-0.012-0.001
			c-1.329-0.157-2.661,0.272-3.648,1.177c-0.121,0.138-0.108,0.348,0.031,0.47l0,0C239.201,156.407,239.231,156.427,239.265,156.437
			z"/>
		<path style="fill:#263238;" d="M250.4,157.653c0.113,0.049,0.244,0.035,0.345-0.036c0.15-0.111,0.184-0.322,0.076-0.474
			c-0.615-0.919-1.648-1.471-2.754-1.472c-0.178,0.002-0.321,0.148-0.319,0.326c0,0.009,0.001,0.018,0.001,0.027
			c0.008,0.184,0.163,0.326,0.347,0.318c0.002,0,0.003,0,0.005,0l0,0c0.862,0.031,1.657,0.472,2.141,1.186
			C250.281,157.585,250.336,157.629,250.4,157.653z"/>
		<g>
			<path style="fill:#263238;" d="M244.496,165.443c-1.575-2.661-8.045-3.29-9.932-3.822c-1.887-0.532-0.751-5.153-0.751-5.153
				l-0.749-0.677h-1.499l-1.388,2.758l-0.289,5.231c0.208,1.366,0.683,2.691,1.537,4.188c3.794,6.66,12.639,6.848,16.085,0.464
				c0.312-0.581,0.605-1.219,0.884-1.885C246.45,164.469,244.496,165.443,244.496,165.443z"/>
			<path style="opacity:0.5;fill:#FFFFFF;" d="M244.496,165.443c-1.575-2.661-8.045-3.29-9.932-3.822
				c-1.887-0.532-0.751-5.153-0.751-5.153l-0.749-0.677h-1.499l-1.388,2.758l-0.289,5.231c0.208,1.366,0.683,2.691,1.537,4.188
				c3.794,6.66,12.639,6.848,16.085,0.464c0.312-0.581,0.605-1.219,0.884-1.885C246.45,164.469,244.496,165.443,244.496,165.443z"/>
		</g>
		<path style="fill:#263238;" d="M229.756,158.549c0,0,3.744,1.239,4.542-3.848c0.798-5.087,2.444-3.491,3.653-5.377
			c1.209-1.887,15.695,0.379,11.455-10.723c0,0-1.056,2.83-2.821,4.136c0,0,0.495-5.748-7.093-3.136
			c-7.588,2.612-13.321,9.24-13.321,9.24s1.481-0.315,1.575,1.934C227.84,153.025,226.811,160.954,229.756,158.549z"/>
		<g>
			<path style="fill:#263238;" d="M242.905,166.967c0.26,0.115,0.529,0.208,0.804,0.278c0.088,0.027,0.181-0.022,0.208-0.11
				c0.001-0.002,0.001-0.004,0.002-0.006c0.018-0.092-0.039-0.182-0.13-0.205c-1.411-0.345-2.574-1.339-3.135-2.679
				c-0.029-0.089-0.125-0.137-0.214-0.108c-0.089,0.029-0.137,0.125-0.108,0.214C240.801,165.534,241.729,166.478,242.905,166.967z"
				/>
		</g>
		<g>
			<path style="fill:#FFC3BD;" d="M245.095,181.833c0,0,13.649,36.136,21.372,31.202c7.723-4.934-14.296-29.606-16.779-33.814
				l-1.548-6.728c-0.155-0.675-0.688-1.217-1.361-1.386l-6.629-1.662c-0.874-0.219-1.74,0.238-2.021,1.067l-0.409,1.207
				c-0.148,0.436-0.113,0.921,0.097,1.35l3.085,6.297L245.095,181.833z"/>
			<g>
				<path style="fill:#407BFF;" d="M251.341,181.363L251.341,181.363l-1.203-2.283l0,0c-0.185-0.351-0.62-0.486-0.971-0.301
					l-2.283,1.203c-0.351,0.185-0.486,0.62-0.301,0.971l0,0l-1.927,1.016l1.203,2.283l1.927-1.016l0,0
					c0.185,0.351,0.62,0.486,0.971,0.301l2.283-1.203C251.391,182.149,251.526,181.714,251.341,181.363z"/>
				<path style="opacity:0.3;" d="M251.341,181.363L251.341,181.363l-1.203-2.283l0,0c-0.185-0.351-0.62-0.486-0.971-0.301
					l-2.283,1.203c-0.351,0.185-0.486,0.62-0.301,0.971l0,0l-1.927,1.016l1.203,2.283l1.927-1.016l0,0
					c0.185,0.351,0.62,0.486,0.971,0.301l2.283-1.203C251.391,182.149,251.526,181.714,251.341,181.363z"/>
				<path style="fill:#263238;" d="M248.361,182.667l-0.983-1.865c-0.094-0.178-0.025-0.399,0.153-0.493l1.865-0.983
					c0.178-0.094,0.399-0.026,0.493,0.153l0.983,1.865c0.094,0.178,0.026,0.399-0.153,0.493l-1.865,0.983
					C248.675,182.913,248.454,182.845,248.361,182.667z"/>
			</g>
		</g>
		<path style="fill:#FFC3BD;" d="M227.778,158.458c0.105,1.339,0.734,2.582,1.75,3.46c1.368,1.145,2.792,0.104,3.036-1.579
			c0.206-1.516-0.25-3.938-1.909-4.461c-1.217-0.342-2.481,0.368-2.823,1.585C227.741,157.786,227.722,158.126,227.778,158.458z"/>
	</g>
</g>
</svg>
