<?xml version="1.0" encoding="utf-8"?>
<!-- Generator: Adobe Illustrator 27.5.0, SVG Export Plug-In . SVG Version: 6.00 Build 0)  -->
<svg version="1.1" xmlns="http://www.w3.org/2000/svg" xmlns:xlink="http://www.w3.org/1999/xlink" x="0px" y="0px"
	 viewBox="0 0 3710 3710" style="enable-background:new 0 0 3710 3710;" xml:space="preserve">
<g id="Background">
	<g>
		<g>
			<rect style="fill:#FFFFFF;" width="3710" height="3710"/>
		</g>
	</g>
</g>
<g id="Illustration">
	<g>
		<linearGradient id="SVGID_1_" gradientUnits="userSpaceOnUse" x1="3517.3657" y1="3681.98" x2="1549.9417" y2="1587.6259">
			<stop  offset="0" style="stop-color:#DAE3FE"/>
			<stop  offset="1" style="stop-color:#E9EFFD"/>
		</linearGradient>
		<path style="fill:url(#SVGID_1_);" d="M2900.795,2865.82c-72.391,75.078-137.163,119.211-186.755,152.528
			c-483.663,324.937-1036.542,231.282-1207.479,199.271c-275.785-51.646-508.586-88.08-708.603-269.901
			c-454.5-413.154-432.394-1275.023-85.101-1808.914c41.179-63.304,387.946-580.49,942.022-653.365
			c13.552-1.782,23.663-2.798,32.52-3.741c85.714-9.131,636.938-130.843,1070.042,234.248
			c61.997,52.261,169.841,169.044,262.36,312.814C3358.095,1554.448,3331.024,2419.624,2900.795,2865.82z"/>
		<g>
			<path style="fill:#BDD0FB;" d="M2136.292,945.031c5.817-69.773,216.973-134.565,200.257-282.213l-122.192-86.707
				c0,0-32.903,184.362-96.469,237.834c-63.565,53.472-81.723,2.906-60.882-43.202c20.84-46.106,128.332-145.035,113.884-205.765
				c0,0-11.8-48.018-69.992-20.825c-58.191,27.194-150.541-37.187-173.005-80.931c0,0-6.459,28.138-51.048,84.868
				c-44.59,56.73-93.529,110.638-45.606,154.78c47.921,44.143,130.619,75.597,118.939,113.984
				c-11.682,38.386-174.166,12.549-190.899-116.012c0,0-77.798,84.82-76.506,120.743c1.291,35.922,50.862,86.655,149.33,90.406
				c98.468,3.749,142.447,34.956,133.687,63.746c-8.76,28.79-292.645-24.848-299.538-130.87c0,0-71.165,202.325-66.307,229.11
				c4.857,26.784,126.553,58.683,206.774,49.484c80.22-9.197,146.104,37.554,155.181,67.332c9.077,29.779-84.72-13.442-134.12-9.601
				c-49.401,3.841-240.889-65.915-240.889-65.915s19.242,21.435,5.398,93.292c-13.846,71.856,5.355,198.277,51.083,199.611
				c45.73,1.332,263.004-35.08,330.983-21.848c67.979,13.231,119.756,38.303,82.897,54.932
				c-36.861,16.63-124.889,0.841-191.318,8.158c-66.428,7.315-234.823,47.296-263.699,11.249c0,0,13.188,196.058,187.226,257.32
				c0,0,95.26-25.754,159.008-93.314c63.749-67.563,93.538-93.099,123.08-79.916c29.541,13.184-14.934,59.415-55.737,100.474
				c-40.804,41.058-133.757,138.461-177.485,134.661c0,0,267.332,76.899,350.163-93.811
				c77.681-160.094,65.514-185.527,63.702-188.072c7.413,8.972,233.957,278.418,432.125-62.974c0,0-67.004,65.251-125.595,43.123
				c-58.591-22.127-166.891,2.151-156.72-41.195c10.172-43.346,222.794,37.518,285.087-34.967
				c62.292-72.485,50.605-217.955-36.519-277.313c0,0-20.262,85.328-110.89,118.257s-221.732,52.697-178.84-10.217
				c42.893-62.914,292.795-104.825,318.046-163.988c25.249-59.161-130.828-222.906-130.828-222.906s-10.936,31.856-84.267,118.754
				c-73.333,86.9-174.625,170.606-180.181,139.437c-5.554-31.17,64.415-81.143,125.266-128.177
				c60.851-47.034,108.459-134.796,85.151-168.354c-23.307-33.558-119.55-117.759-119.55-117.759s-71.727,129.88-98.471,191.829
				C2249.259,943.511,2130.475,1014.804,2136.292,945.031z M2281.171,1358.828c-78.008,49.49-57.734-25.898-33.061-73.85
				C2266.841,1248.578,2359.179,1309.34,2281.171,1358.828z M2219.361,1194.566c-50.855,33.925-79.257,19.934-67.508-11.937
				C2178.852,1109.397,2270.217,1160.64,2219.361,1194.566z M2133.835,1028.858c-26.391,20.171-41.702,20.975-45.272-16.564
				C2084.993,974.754,2160.225,1008.689,2133.835,1028.858z"/>
		</g>
		<g>
			<g>
				<path style="fill:#91B3FA;" d="M498.327,499.274c-3.075-13.089,15.337-21.789,26.612-12.646
					c114.488,92.838,389.568,370.847,321.013,856.687c-86.013,609.559,61.037,831.982,244.077,967.655
					c0,0-251.375-63.803-409.529-289.498C292.197,1467.337,552.997,731.996,498.327,499.274z"/>
				<path style="fill:#FFFFFF;" d="M585.453,689.664c14.322,67.859,27.088,135.926,36.952,204.299
					c10.279,68.315,18.155,136.869,23.545,205.537c5.084,68.679,8.676,137.43,8.88,206.211
					c0.562,68.776-2.297,137.496-5.448,206.484c-2.703,68.963-5.879,138.423-0.83,208.375
					c4.964,69.809,19.659,140.229,48.819,206.242c7.289,16.452,14.955,32.854,23.662,48.702
					c8.371,15.994,17.565,31.673,27.08,47.202c19.214,30.985,40.841,60.922,64.943,89.336
					c48.378,56.732,106.725,107.058,171.001,149.651c6.765,4.483,16.458,3.381,21.65-2.461c5.098-5.736,3.959-13.91-2.489-18.448
					l-0.046-0.032c-15.294-10.741-30.427-21.621-44.946-33.046c-7.367-5.613-14.43-11.497-21.618-17.263
					c-6.926-5.994-14.125-11.758-20.829-17.931c-27.293-24.292-52.578-50.21-75.518-77.614
					c-46.142-54.554-83.081-115.344-111.067-178.365c-13.585-31.657-24.445-64.123-32.373-97.198
					c-7.9-33.084-12.869-66.742-15.617-100.672c-5.504-67.897-3.018-136.669-0.889-205.645
					c2.025-68.993,3.511-138.336,1.691-207.624c-0.802-34.641-2.325-69.267-4.565-103.851c-1.005-17.297-2.397-34.574-3.753-51.85
					c-1.548-17.265-3.207-34.521-5.028-51.761c-7.432-68.953-17.297-137.676-29.662-206.034
					c-12.745-68.306-27.584-136.298-45.432-203.681c-0.511-1.927-2.731-3.13-4.961-2.689
					C586.439,685.964,585.063,687.795,585.453,689.664z"/>
			</g>
			<g>
				<g>
					<path style="fill:#BDD0FB;" d="M835.262,1944.853c-14.038,14.894-38.724,10.611-47.169-8.032
						c-46.596-102.868-152.036-405.628,22.103-754.422c147.054-294.541,198.802-468.228,216.83-548.703
						c3.813-17.017,27.133-19.276,34.172-3.321C1138.861,806.405,1343.924,1405.167,835.262,1944.853z"/>
					<path style="fill:#FFFFFF;" d="M809.764,1933.999c-0.5,0.089-1.013,0.132-1.54,0.123c-4.412-0.068-7.935-3.7-7.867-8.112
						c0.077-5.002,9.812-505.01,195.78-923.786c1.791-4.029,6.511-5.848,10.548-4.06c4.033,1.793,5.85,6.513,4.06,10.548
						c-184.615,415.728-194.332,912.575-194.409,917.543C816.277,1930.142,813.453,1933.338,809.764,1933.999z"/>
				</g>
			</g>
		</g>
		<g>
			<g>
				
					<linearGradient id="SVGID_00000100359426018132571250000014820363776375072692_" gradientUnits="userSpaceOnUse" x1="1831.178" y1="2796.6626" x2="1871.5365" y2="945.2773">
					<stop  offset="0" style="stop-color:#09005D"/>
					<stop  offset="1" style="stop-color:#1A0F91"/>
				</linearGradient>
				<path style="fill:url(#SVGID_00000100359426018132571250000014820363776375072692_);" d="M567.594,2898.284
					c0,25.366,20.774,46.121,46.165,46.121h2496.408c25.39,0,46.165-20.754,46.165-46.121l20.772-1434.617
					c0-25.366-29.885-74.887-84.656-71.166l-2439.765-63.129c-31.858-0.824-62.661,11.438-85.221,33.924
					c-22.56,22.487-34.904,53.231-34.151,85.06L567.594,2898.284z"/>
				
					<linearGradient id="SVGID_00000089559897627485306660000016482434660315404691_" gradientUnits="userSpaceOnUse" x1="2129.6035" y1="2932.4443" x2="1650.363" y2="1610.7487">
					<stop  offset="0" style="stop-color:#FE7062"/>
					<stop  offset="1" style="stop-color:#FF928E"/>
				</linearGradient>
				<path style="fill:#3CA3F4;" d="M613.17,2854.038
					c0,24.021,19.654,43.675,43.675,43.675h2393.118c24.021,0,43.675-19.654,43.675-43.675l19.602-1302.358
					c-2.309-78.373-71.02-106.54-112.671-104.877l-2338.292-62.733c-22.382-0.6-44.021,8.023-59.873,23.834
					c-15.852,15.812-24.57,37.451-24.009,59.833L613.17,2854.038z"/>
				<g>
					<path style="opacity:0.7;fill:#FFFFFF;" d="M3067.78,2235.326c-0.032,0-0.064,0-0.096,0c-3.536-0.051-6.36-2.958-6.306-6.497
						l1.549-105.619c0.051-3.501,2.907-6.306,6.395-6.306c0.032,0,0.064,0,0.096,0c3.536,0.051,6.36,2.958,6.306,6.498
						l-1.549,105.619C3074.124,2232.521,3071.268,2235.326,3067.78,2235.326z"/>
					<path style="opacity:0.7;fill:#FFFFFF;" d="M3071.581,1976.505c-0.032,0-0.064,0-0.096,0c-3.536-0.051-6.36-2.964-6.306-6.497
						l5.938-404.524c-0.112-24.028-7.405-43.214-21.68-56.892c-26.648-25.529-68.954-24.226-70.737-24.143l-747.37-20.042
						c-3.533-0.089-6.322-3.035-6.226-6.568c0.093-3.533,2.808-6.542,6.571-6.223l746.926,20.042
						c4.648-0.275,49.692-1.054,79.69,27.689c16.876,16.17,25.498,38.448,25.625,66.2l-5.941,404.651
						C3077.925,1973.7,3075.069,1976.505,3071.581,1976.505z"/>
				</g>
				
					<linearGradient id="SVGID_00000018950740263268592930000014845118726420680585_" gradientUnits="userSpaceOnUse" x1="1753.3983" y1="2215.6863" x2="1829.5765" y2="2799.7207">
					<stop  offset="0" style="stop-color:#09005D"/>
					<stop  offset="1" style="stop-color:#1A0F91"/>
				</linearGradient>
				<path style="fill:url(#SVGID_00000018950740263268592930000014845118726420680585_);" d="M469.095,3063.496h2773.332
					c3.11,0,5.654-2.544,5.654-5.654v-114.743c0-3.11-2.544-5.654-5.654-5.654H469.095c-3.11,0-5.654,2.544-5.654,5.654v114.743
					C463.441,3060.951,465.986,3063.496,469.095,3063.496z"/>
			</g>
			<path style="opacity:0.72;fill:#FFFFFF;" d="M1844.451,1762.245c-202.496,0-366.658,166.259-366.658,371.35
				c0,205.091,164.161,371.351,366.658,371.351c202.5,0,366.658-166.259,366.658-371.351
				C2211.108,1928.504,2046.951,1762.245,1844.451,1762.245z M2035.744,1982.833l-163.751,325.746
				c-7.488,14.894-22.369,24.5-38.856,25.083c-0.532,0.019-1.064,0.029-1.596,0.029c-15.896,0-30.677-8.431-38.902-22.295
				l-137.941-232.544c-12.91-21.764-5.955-50.003,15.535-63.077c21.479-13.071,49.365-6.034,62.279,15.73l95.754,161.427
				l126.581-251.811c11.374-22.625,38.707-31.627,61.041-20.108C2038.229,1932.532,2047.117,1960.211,2035.744,1982.833z"/>
		</g>
		<g>
			<g>
				<g>
					
						<linearGradient id="SVGID_00000030456868179698033720000013081570815946801801_" gradientUnits="userSpaceOnUse" x1="815.2059" y1="2622.197" x2="1648.2949" y2="2622.197">
						<stop  offset="0" style="stop-color:#09005D"/>
						<stop  offset="1" style="stop-color:#1A0F91"/>
					</linearGradient>
					<path style="fill:url(#SVGID_00000030456868179698033720000013081570815946801801_);" d="M888.979,2052.615
						c-32.353,1.93-57.704,26.29-58.507,56.084c-4.914,182.202-20.85,810.688-13.242,1033.404
						c0.806,23.595,21.382,42.532,47.048,43.305c126.945,3.819,492.131,13.498,699.77,5.49c43.248-1.668,77.64-33.871,78.538-73.653
						c4.315-191.245,13.835-729.145-8.793-975.556c-2.711-29.524-27.919-53.035-59.99-55.984
						C1435.554,2072.991,1068.367,2041.914,888.979,2052.615z"/>
					
						<linearGradient id="SVGID_00000153682633043881707680000005953132057491455379_" gradientUnits="userSpaceOnUse" x1="1530.2695" y1="2279.6055" x2="2599.7363" y2="1205.0945">
						<stop  offset="0" style="stop-color:#FE7062"/>
						<stop  offset="1" style="stop-color:#FF928E"/>
					</linearGradient>
					<path style="fill:#3CA3F4;" d="M933.68,2117.357
						c-28.087,1.409-50.427,22.123-51.627,47.957c-6.934,149.222-28.803,645.651-21.862,829.22
						c1.014,26.831,24.019,48.526,53.175,50.095c120.042,6.458,427.94,20.696,604.012,7.735c31.705-2.333,56.584-25.904,58.295-55.1
						c8.923-152.239,34.542-614.483,27.889-795.995c-1.062-28.956-25.462-52.604-56.853-55.195
						C1416.843,2135.356,1083.302,2109.852,933.68,2117.357z"/>
					<path style="opacity:0.5;fill:#3F67F9;" d="M1144.204,2084.452L1144.204,2084.452c0,5.591,4.74,10.201,10.813,10.494
						c29.984,1.444,114.448,5.528,152.196,7.541c7.443,0.397,13.284-5.753,11.873-12.482l-0.241-1.148
						c-0.964-4.592-5.106-8.048-10.172-8.475c-25.516-2.149-102.509-8.109-153.522-6.435
						C1149.024,2074.148,1144.204,2078.816,1144.204,2084.452z"/>
				</g>
			</g>
			<path style="opacity:0.72;fill:#FFFFFF;" d="M1215.332,2457.861c-98.174,0-177.762,80.605-177.762,180.037
				c0,99.432,79.588,180.037,177.762,180.037c98.175,0,177.762-80.605,177.762-180.037
				C1393.094,2538.467,1313.507,2457.861,1215.332,2457.861z M1308.074,2564.806l-79.389,157.927
				c-3.63,7.221-10.845,11.878-18.838,12.161c-0.258,0.009-0.516,0.014-0.774,0.014c-7.707,0-14.873-4.088-18.86-10.809
				l-66.876-112.741c-6.259-10.552-2.887-24.242,7.532-30.581c10.414-6.337,23.933-2.925,30.194,7.626l46.423,78.263l61.368-122.082
				c5.514-10.969,18.766-15.333,29.594-9.749C1309.279,2540.42,1313.588,2553.839,1308.074,2564.806z"/>
		</g>
		<g>
			<g>
				<g>
					
						<linearGradient id="SVGID_00000096053589864711730540000012139917875314730913_" gradientUnits="userSpaceOnUse" x1="494.8408" y1="2835.0154" x2="1038.6895" y2="2835.0154">
						<stop  offset="0" style="stop-color:#09005D"/>
						<stop  offset="1" style="stop-color:#1A0F91"/>
					</linearGradient>
					<path style="fill:url(#SVGID_00000096053589864711730540000012139917875314730913_);" d="M543.001,2430.528
						c-21.12,1.37-37.67,18.67-38.194,39.828c-3.208,129.391-13.611,575.709-8.645,733.87c0.526,16.756,13.958,30.205,30.714,30.753
						c82.871,2.712,321.268,9.585,456.817,3.899c28.233-1.185,50.684-24.053,51.27-52.305c2.817-135.812,9.031-517.801-5.74-692.79
						c-1.77-20.967-18.226-37.663-39.162-39.757C899.81,2444.998,660.107,2422.928,543.001,2430.528z"/>
					
						<linearGradient id="SVGID_00000026161680885780203840000000986759228350726314_" gradientUnits="userSpaceOnUse" x1="713.0942" y1="2897.5825" x2="2649.9426" y2="-512.0815">
						<stop  offset="0" style="stop-color:#FE7062"/>
						<stop  offset="1" style="stop-color:#FF928E"/>
					</linearGradient>
					<path style="fill:#3CA3F4;" d="M572.182,2476.504
						c-18.336,1-32.919,15.71-33.703,34.057c-4.526,105.97-18.803,458.508-14.271,588.869c0.662,19.054,15.68,34.461,34.713,35.575
						c78.365,4.586,279.363,14.698,394.305,5.493c20.697-1.657,36.939-18.396,38.056-39.129
						c5.825-108.112,22.549-436.374,18.206-565.274c-0.693-20.563-16.622-37.357-37.114-39.197
						C887.596,2489.286,669.856,2471.175,572.182,2476.504z"/>
					<path style="opacity:0.5;fill:#3F67F9;" d="M709.614,2453.137L709.614,2453.137c0,3.97,3.094,7.244,7.059,7.452
						c19.574,1.025,74.713,3.926,99.355,5.355c4.859,0.282,8.672-4.086,7.751-8.864l-0.157-0.816
						c-0.629-3.261-3.333-5.715-6.64-6.018c-16.657-1.526-66.919-5.759-100.22-4.57
						C712.76,2445.819,709.614,2449.134,709.614,2453.137z"/>
				</g>
			</g>
			<path style="opacity:0.72;fill:#FFFFFF;" d="M768.018,2659.657c-98.174,0-177.762,80.605-177.762,180.037
				c0,99.432,79.588,180.037,177.762,180.037c98.175,0,177.762-80.605,177.762-180.037
				C945.78,2740.262,866.194,2659.657,768.018,2659.657z M860.76,2766.602l-79.389,157.927c-3.63,7.221-10.845,11.878-18.838,12.161
				c-0.258,0.009-0.516,0.014-0.774,0.014c-7.707,0-14.873-4.088-18.86-10.809l-66.876-112.741
				c-6.259-10.552-2.887-24.242,7.532-30.581c10.414-6.337,23.933-2.926,30.194,7.626l46.423,78.263l61.368-122.082
				c5.514-10.969,18.766-15.333,29.594-9.749C861.966,2742.215,866.275,2755.635,860.76,2766.602z"/>
		</g>
		<g>
			<g>
				<g style="opacity:0.3;">
					<path style="fill:#91B3FA;" d="M2200.38,2706.965c-6.751,0.027-12.571-5.053-13.315-11.911
						c-1.633-14.999-2.635-30.293-2.984-45.454c-0.169-7.377,5.671-13.494,13.045-13.664c0.089,0,0.175-0.001,0.261-0.001
						c7.257-0.029,13.234,5.76,13.401,13.048c0.33,14.404,1.285,28.931,2.833,43.18c0.799,7.332-4.5,13.927-11.835,14.724
						C2201.315,2706.941,2200.845,2706.964,2200.38,2706.965z M2200.783,2590.602c-0.522,0.002-1.052-0.027-1.584-0.087
						c-7.329-0.837-12.594-7.458-11.756-14.787c1.722-15.054,4.105-30.184,7.083-44.966c1.456-7.232,8.468-11.898,15.731-10.461
						c7.232,1.458,11.911,8.505,10.455,15.731c-2.83,14.052-5.092,28.424-6.726,42.732
						C2213.209,2585.561,2207.458,2590.576,2200.783,2590.602z M2226.796,2477.222c-1.487,0.006-3.001-0.239-4.485-0.76
						c-6.957-2.451-10.615-10.075-8.168-17.034c5.016-14.264,10.717-28.489,16.944-42.277c3.042-6.722,10.952-9.701,17.672-6.675
						c6.721,3.036,9.711,10.95,6.675,17.671c-5.915,13.093-11.326,26.597-16.092,40.145
						C2237.418,2473.768,2232.285,2477.201,2226.796,2477.222z M2277.52,2372.484c-2.458,0.01-4.946-0.659-7.177-2.069
						c-6.235-3.941-8.093-12.193-4.153-18.427c8.089-12.789,16.826-25.382,25.969-37.429c4.462-5.866,12.836-7.016,18.716-2.563
						c5.874,4.459,7.021,12.839,2.563,18.716c-8.684,11.44-16.985,23.4-24.666,35.556
						C2286.238,2370.268,2281.931,2372.466,2277.52,2372.484z M2350.325,2281.688c-3.447,0.014-6.895-1.298-9.517-3.933
						c-5.207-5.228-5.188-13.686,0.04-18.888c10.696-10.649,22-20.993,33.598-30.733c5.645-4.75,14.071-4.021,18.818,1.632
						c4.744,5.648,4.013,14.072-1.635,18.821c-11.024,9.258-21.768,19.088-31.933,29.209
						C2357.102,2280.378,2353.716,2281.675,2350.325,2281.688z M2441.396,2209.264c-4.464,0.018-8.834-2.198-11.381-6.258
						c-3.919-6.251-2.032-14.492,4.216-18.414c12.807-8.033,26.12-15.62,39.567-22.539c6.563-3.376,14.614-0.793,17.989,5.768
						c3.375,6.555,0.793,14.611-5.765,17.987c-12.778,6.577-25.425,13.78-37.594,21.415
						C2446.237,2208.598,2443.803,2209.255,2441.396,2209.264z M2930.714,2175.533c-1.85,0.007-3.726-0.371-5.522-1.178
						c-13.088-5.886-26.61-11.279-40.188-16.026c-6.962-2.435-10.635-10.054-8.199-17.013c2.432-6.965,10.051-10.636,17.016-8.202
						c14.3,5,28.543,10.678,42.326,16.874c6.729,3.026,9.729,10.934,6.704,17.661
						C2940.634,2172.583,2935.79,2175.513,2930.714,2175.533z M2546.184,2158.857c-5.541,0.022-10.733-3.432-12.662-8.956
						c-2.433-6.966,1.242-14.583,8.205-17.015c14.274-4.987,28.939-9.411,43.588-13.153c7.154-1.792,14.423,2.484,16.249,9.635
						c1.825,7.146-2.49,14.421-9.638,16.249c-13.912,3.551-27.837,7.754-41.391,12.488
						C2549.094,2158.605,2547.626,2158.851,2546.184,2158.857z M2819.889,2140.084c-0.881,0.003-1.777-0.076-2.675-0.256
						c-14.082-2.809-28.473-5.042-42.771-6.65c-7.331-0.827-12.606-7.438-11.782-14.766c0.827-7.329,7.432-12.64,14.766-11.782
						c15.043,1.694,30.187,4.045,45.005,6.996c7.235,1.443,11.932,8.478,10.49,15.711
						C2831.661,2135.671,2826.109,2140.06,2819.889,2140.084z M2659.605,2133.12c-6.741,0.026-12.555-5.038-13.312-11.885
						c-0.812-7.333,4.474-13.933,11.806-14.75c15.012-1.661,30.298-2.697,45.433-3.07c0.093-0.006,0.19-0.006,0.284-0.007
						c7.247-0.029,13.218,5.745,13.4,13.022c0.183,7.377-5.644,13.504-13.021,13.685c-14.376,0.359-28.895,1.345-43.158,2.925
						C2660.557,2133.09,2660.078,2133.118,2659.605,2133.12z"/>
					<path style="fill:#91B3FA;" d="M3012.425,2221.579c-2.63,0.01-5.291-0.751-7.622-2.359
						c-5.668-3.912-11.514-7.765-17.373-11.468c-6.237-3.936-8.104-12.188-4.166-18.423c3.936-6.24,12.19-8.114,18.425-4.163
						c6.164,3.889,12.311,7.945,18.278,12.059c6.071,4.187,7.602,12.508,3.415,18.577
						C3020.801,2219.548,3016.651,2221.563,3012.425,2221.579z"/>
				</g>
				<g style="opacity:0.3;">
					<path style="fill:#91B3FA;" d="M3230.773,2565.315c-6.447,0.025-12.139-4.627-13.219-11.192
						c-1.115-6.794-2.391-13.681-3.795-20.464c-1.495-7.226,3.15-14.293,10.373-15.788c7.254-1.5,14.293,3.153,15.788,10.373
						c1.476,7.142,2.822,14.394,3.998,21.548c1.195,7.279-3.737,14.149-11.016,15.346
						C3232.186,2565.257,3231.474,2565.313,3230.773,2565.315z"/>
					<path style="fill:#91B3FA;" d="M2720.076,3170.242c-6.146,0.024-12.316-0.056-18.507-0.24
						c-7.373-0.222-13.174-6.376-12.955-13.749c0.219-7.374,6.41-13.2,13.747-12.958c14.29,0.424,28.564,0.268,42.588-0.476
						c7.374-0.378,13.655,5.263,14.046,12.628c0.391,7.371-5.265,13.66-12.632,14.049
						C2737.69,3169.958,2728.845,3170.207,2720.076,3170.242z M2631.389,3163.094c-0.746,0.003-1.505-0.057-2.268-0.185
						c-14.699-2.451-29.459-5.555-43.866-9.224c-7.147-1.819-11.468-9.09-9.649-16.236c1.821-7.15,9.106-11.488,16.241-9.648
						c13.684,3.483,27.705,6.428,41.673,8.763c7.275,1.213,12.189,8.096,10.975,15.369
						C2643.408,3158.45,2637.778,3163.069,2631.389,3163.094z M2816.128,3160.915c-6.297,0.025-11.921-4.424-13.154-10.832
						c-1.393-7.247,3.351-14.247,10.595-15.643c13.858-2.663,27.789-5.958,41.412-9.8c7.104-1.99,14.479,2.135,16.48,9.233
						c2,7.103-2.135,14.481-9.235,16.482c-14.345,4.043-29.019,7.513-43.612,10.32
						C2817.78,3160.835,2816.948,3160.912,2816.128,3160.915z M2521.179,3131.916c-1.696,0.007-3.418-0.315-5.085-0.992
						c-13.789-5.617-27.504-11.892-40.763-18.648c-6.572-3.35-9.183-11.39-5.833-17.962c3.35-6.577,11.387-9.191,17.964-5.836
						c12.589,6.415,25.612,12.374,38.708,17.707c6.833,2.78,10.114,10.578,7.331,17.408
						C2531.398,3128.755,2526.43,3131.895,2521.179,3131.916z M2925.422,3126.987c-5.165,0.02-10.097-2.976-12.298-8.013
						c-2.954-6.76,0.133-14.635,6.893-17.589c12.925-5.644,25.79-11.925,38.241-18.662c6.487-3.511,14.594-1.101,18.105,5.392
						c3.509,6.487,1.096,14.589-5.391,18.099c-13.107,7.096-26.652,13.708-40.262,19.652
						C2928.989,3126.618,2927.191,3126.98,2925.422,3126.987z M3024.627,3069.896c-4.129,0.016-8.209-1.877-10.837-5.461
						c-4.359-5.952-3.07-14.31,2.882-18.669c11.412-8.362,22.605-17.302,33.267-26.569c5.561-4.848,13.995-4.26,18.843,1.314
						c4.84,5.569,4.25,14.002-1.316,18.846c-11.221,9.754-22.999,19.161-35.009,27.958
						C3030.094,3069.046,3027.351,3069.886,3024.627,3069.896z M3109.026,2992.537c-3.141,0.012-6.296-1.076-8.846-3.309
						c-5.55-4.856-6.11-13.296-1.251-18.846c9.329-10.654,18.308-21.813,26.69-33.179c4.377-5.934,12.734-7.204,18.678-2.818
						c5.935,4.381,7.198,12.739,2.818,18.678c-8.823,11.957-18.272,23.707-28.086,34.917
						C3116.4,2990.979,3112.725,2992.523,3109.026,2992.537z M3174.54,2898.619c-2.176,0.009-4.382-0.515-6.429-1.629
						c-6.479-3.527-8.869-11.637-5.341-18.115c6.77-12.429,13.082-25.284,18.765-38.214c2.969-6.753,10.858-9.821,17.6-6.857
						c6.755,2.968,9.823,10.85,6.855,17.603c-5.985,13.62-12.634,27.16-19.759,40.243
						C3183.814,2896.083,3179.254,2898.601,3174.54,2898.619z M3217.855,2792.569c-1.223,0.005-2.469-0.162-3.704-0.513
						c-7.095-2.012-11.218-9.399-9.203-16.493c3.851-13.581,7.175-27.504,9.875-41.393c1.408-7.242,8.442-11.961,15.661-10.56
						c7.242,1.406,11.97,8.421,10.562,15.663c-2.843,14.62-6.341,29.28-10.399,43.576
						C3228.985,2788.711,3223.657,2792.546,3217.855,2792.569z M3236.801,2679.67c-0.274,0.001-0.55-0.009-0.827-0.023
						c-7.364-0.42-12.995-6.731-12.573-14.095c0.593-10.396,0.872-20.931,0.831-31.324c-0.015-3.762-0.074-7.518-0.169-11.259
						c-0.188-7.376,5.637-13.51,13.01-13.695c7.463-0.337,13.505,5.634,13.695,13.005c0.101,3.939,0.161,7.883,0.177,11.843
						c0.043,10.931-0.252,22.019-0.877,32.952C3249.667,2674.162,3243.805,2679.643,3236.801,2679.67z"/>
					<path style="fill:#91B3FA;" d="M2420.283,3077.044c-2.656,0.01-5.338-0.767-7.679-2.396
						c-5.933-4.135-11.89-8.473-17.707-12.895c-5.875-4.464-7.017-12.844-2.552-18.716c4.467-5.872,12.839-7.021,18.716-2.552
						c5.526,4.199,11.185,8.32,16.817,12.247c6.051,4.213,7.539,12.539,3.322,18.593
						C2428.612,3075.034,2424.482,3077.027,2420.283,3077.044z"/>
				</g>
				<g>
					<path style="fill:#91B3FA;" d="M2437.695,2922.049c1.692,2.056,4.503,2.814,6.999,1.885l71.207-26.505
						c28.198,21.539,60.032,38.739,94.612,50.471l17.684,73.843c0.62,2.591,2.816,4.501,5.466,4.76l90.709,8.828
						c2.652,0.257,5.174-1.196,6.282-3.616l31.589-69.049c36.194-4.846,70.747-15.583,102.568-31.283l64.762,39.737
						c2.27,1.393,5.173,1.192,7.23-0.5l70.383-57.899c2.058-1.693,2.814-4.504,1.885-6.999l-26.505-71.207
						c21.54-28.197,38.738-60.033,50.471-94.612l73.844-17.685c2.59-0.62,4.501-2.815,4.759-5.466l8.827-90.71
						c0.258-2.65-1.194-5.173-3.617-6.281l-69.049-31.59c-4.846-36.193-15.582-70.747-31.283-102.567l39.738-64.763
						c1.391-2.269,1.191-5.173-0.5-7.229l-57.9-70.383c-1.692-2.058-4.503-2.814-6.999-1.885l-71.207,26.506
						c-28.196-21.541-60.032-38.739-94.612-50.471l-17.684-73.845c-0.62-2.589-2.815-4.501-5.466-4.76l-90.71-8.826
						c-2.651-0.259-5.173,1.194-6.281,3.616l-31.589,69.049c-36.194,4.844-70.747,15.583-102.568,31.283l-64.761-39.737
						c-2.27-1.394-5.175-1.192-7.231,0.499l-70.382,57.9c-2.057,1.692-2.813,4.502-1.885,6.998l26.505,71.207
						c-21.54,28.197-38.738,60.033-50.47,94.613l-73.845,17.684c-2.589,0.619-4.501,2.815-4.758,5.467l-8.827,90.708
						c-0.258,2.651,1.194,5.174,3.616,6.282l69.049,31.589c4.846,36.192,15.583,70.746,31.282,102.567l-39.736,64.762
						c-1.394,2.27-1.192,5.173,0.499,7.231L2437.695,2922.049z"/>
					<g>
						<path style="fill:#BDD0FB;" d="M2718.077,2724.255c-44.656,0.176-83.997-32.461-90.878-77.899
							c-7.562-49.948,26.919-96.729,76.863-104.293c24.197-3.67,48.37,2.313,68.064,16.829
							c19.699,14.516,32.566,35.836,36.227,60.031c7.562,49.949-26.919,96.729-76.863,104.293
							C2726.988,2723.896,2722.504,2724.237,2718.077,2724.255z M2717.648,2562.387c-3.448,0.014-6.914,0.278-10.387,0.803
							c-38.292,5.797-64.729,41.672-58.933,79.962c5.799,38.294,41.662,64.747,79.964,58.935
							c38.292-5.796,64.729-41.672,58.933-79.961c-2.81-18.553-12.673-34.897-27.777-46.029
							C2747.172,2567.051,2732.625,2562.329,2717.648,2562.387z"/>
					</g>
					<g>
						<path style="fill:#BDD0FB;" d="M2720.472,2856.562c-7.669,0.03-15.385-0.325-23.123-1.077l0,0
							c-2.435-0.236-4.868-0.513-7.295-0.827c-11.968-1.555-23.792-4.059-35.292-7.473c-0.156-0.046-0.313-0.093-0.47-0.139
							c-0.444-0.134-0.888-0.268-1.332-0.407c-0.865-0.262-1.726-0.536-2.586-0.809c-2.262-0.721-3.708-2.808-3.719-5.062
							c-0.002-0.548,0.082-1.106,0.257-1.655c0.897-2.811,3.906-4.351,6.714-3.46c14.463,4.623,29.52,7.716,44.756,9.194
							c75.676,7.377,146.125-25.709,189.86-81.542c24.33-31.052,40.39-69.146,44.484-111.236c0.72-7.381,1.061-14.744,1.03-22.059
							c-0.199-49.232-17.184-96.503-48.883-135.035c-36.41-44.263-87.88-71.697-144.922-77.248
							c-117.81-11.452-222.886,75.025-234.344,192.778c-0.707,7.26-1.043,14.53-1.012,21.777
							c0.129,31.404,7.128,62.431,20.605,90.829c0.347,0.734,0.514,1.506,0.515,2.268c0.008,2.003-1.119,3.933-3.052,4.848
							c-2.671,1.257-5.854,0.138-7.119-2.539c-14.148-29.815-21.5-62.39-21.635-95.359c-0.033-7.607,0.321-15.236,1.06-22.857
							c12.029-123.63,122.429-214.407,246.014-202.383c59.886,5.827,113.915,34.628,152.14,81.096
							c33.28,40.451,51.109,90.078,51.321,141.761c0.03,7.68-0.328,15.409-1.08,23.155c-5.829,59.889-34.628,113.921-81.094,152.145
							C2821.809,2838.532,2772.167,2856.358,2720.472,2856.562z"/>
					</g>
				</g>
			</g>
			<g>
				<g style="opacity:0.3;">
					<path style="fill:#91B3FA;" d="M1744.392,2990.195c-3.141-0.431-5.753-2.878-6.247-6.175
						c-0.924-6.153-1.675-12.418-2.229-18.62c-0.36-4.03,2.614-7.588,6.648-7.952c4.036-0.377,7.591,2.617,7.952,6.648
						c0.528,5.91,1.243,11.882,2.124,17.754c0.603,3.999-2.156,7.73-6.159,8.336
						C1745.77,2990.291,1745.07,2990.289,1744.392,2990.195z"/>
					<path style="fill:#91B3FA;" d="M1741.175,2933.908c-3.68-0.506-6.453-3.726-6.318-7.514c0.372-10.707,1.3-21.517,2.757-32.125
						c0.307-2.233,0.64-4.471,0.994-6.712c0.64-4.001,4.587-6.544,8.39-6.094c3.998,0.636,6.722,4.392,6.091,8.386
						c-0.341,2.142-0.66,4.281-0.954,6.415c-1.39,10.119-2.275,20.429-2.633,30.638c-0.14,4.048-3.533,7.209-7.578,7.073
						C1741.67,2933.961,1741.419,2933.942,1741.175,2933.908z M1753.123,2858.752c-0.344-0.047-0.692-0.116-1.032-0.213
						c-3.892-1.12-6.141-5.179-5.025-9.071c3.579-12.484,7.966-24.857,13.037-36.767c1.585-3.727,5.906-5.445,9.614-3.874
						c3.726,1.588,5.458,5.886,3.874,9.613c-4.838,11.365-9.02,23.166-12.436,35.072
						C1760.135,2857.057,1756.675,2859.24,1753.123,2858.752z M1782.939,2788.739c-0.921-0.127-1.833-0.433-2.687-0.926
						c-3.499-2.034-4.681-6.524-2.647-10.023c6.524-11.205,13.818-22.131,21.688-32.457c2.455-3.225,7.041-3.844,10.272-1.385
						c3.218,2.45,3.839,7.052,1.389,10.269c-7.504,9.85-14.461,20.259-20.679,30.949
						C1788.734,2787.808,1785.793,2789.131,1782.939,2788.739z M1829.057,2728.195c-1.504-0.206-2.953-0.882-4.122-2.018
						c-2.891-2.832-2.944-7.477-0.112-10.368c9.089-9.285,18.829-18.083,28.961-26.155c3.168-2.52,7.78-1.988,10.297,1.169
						c2.524,3.164,2.002,7.773-1.166,10.301c-9.657,7.69-18.952,16.087-27.616,24.939
						C1833.61,2727.788,1831.28,2728.501,1829.057,2728.195z M1888.561,2680.754c-2.099-0.288-4.059-1.482-5.255-3.431
						c-2.116-3.447-1.034-7.958,2.414-10.079c11.061-6.782,22.643-12.95,34.428-18.325c3.686-1.69,8.031-0.06,9.711,3.624
						c1.679,3.684,0.056,8.034-3.624,9.71c-11.245,5.132-22.294,11.012-32.846,17.488
						C1891.886,2680.662,1890.181,2680.976,1888.561,2680.754z M1957.768,2649.196c-2.719-0.374-5.117-2.271-5.998-5.065
						c-1.214-3.858,0.933-7.97,4.792-9.188c12.376-3.892,25.113-7.049,37.851-9.374c3.995-0.715,7.799,1.917,8.528,5.896
						c0.728,3.979-1.913,7.799-5.892,8.525c-12.15,2.218-24.287,5.225-36.086,8.936
						C1959.894,2649.264,1958.807,2649.338,1957.768,2649.196z M2032.571,2635.52c-3.403-0.468-6.112-3.288-6.313-6.842
						c-0.229-4.041,2.862-7.503,6.903-7.735c12.91-0.734,26.035-0.665,39.014,0.2c4.042,0.338,7.097,3.771,6.823,7.808
						c-0.269,4.038-3.762,7.091-7.801,6.825c-12.381-0.833-24.899-0.898-37.208-0.198
						C2033.506,2635.605,2033.032,2635.583,2032.571,2635.52z M2145.43,2650.082c-0.418-0.057-0.842-0.152-1.261-0.289
						c-10.169-3.282-20.696-6.065-31.291-8.271c-1.603-0.343-3.181-0.661-4.759-0.958c-3.977-0.763-6.586-4.596-5.827-8.573
						c0.754-3.986,4.638-6.703,8.571-5.831c1.682,0.325,3.359,0.657,5.04,1.017c11.069,2.308,22.105,5.225,32.768,8.669
						c3.854,1.245,5.967,5.371,4.722,9.224C2152.286,2648.503,2148.887,2650.557,2145.43,2650.082z"/>
				</g>
				<g style="opacity:0.3;">
					<path style="fill:#91B3FA;" d="M2012.462,3251.214c-3.964-0.544-6.766-4.181-6.273-8.166c0.497-4.014,4.159-6.87,8.175-6.369
						c12.094,1.502,24.38,2.279,36.521,2.307c4.022,0.046,7.325,3.296,7.313,7.347c-0.01,4.051-3.302,7.32-7.347,7.314
						c-12.732-0.037-25.614-0.845-38.29-2.42C2012.53,3251.223,2012.494,3251.218,2012.462,3251.214z M1975.598,3244.366
						c-0.263-0.036-0.519-0.086-0.781-0.151c-12.384-3.073-24.706-6.933-36.625-11.467c-3.782-1.444-5.683-5.671-4.243-9.454
						c1.438-3.791,5.691-5.67,9.455-4.25c11.373,4.329,23.131,8.01,34.947,10.948c3.927,0.973,6.321,4.95,5.345,8.876
						C1982.783,3242.542,1979.256,3244.868,1975.598,3244.366z M2087.297,3251.378c-3.219-0.442-5.865-3.002-6.276-6.382
						c-0.486-4.011,2.375-7.664,6.394-8.152c12.105-1.473,24.218-3.688,36.01-6.599c3.942-0.954,7.902,1.432,8.868,5.365
						c0.971,3.926-1.431,7.902-5.361,8.872c-12.361,3.049-25.063,5.372-37.751,6.909
						C2088.538,3251.469,2087.907,3251.461,2087.297,3251.378z M1905.632,3217.691c-0.825-0.114-1.646-0.37-2.428-0.781
						c-11.289-5.965-22.323-12.689-32.789-19.986c-3.323-2.313-4.137-6.882-1.824-10.206c2.311-3.309,6.881-4.126,10.202-1.821
						c9.982,6.955,20.5,13.363,31.262,19.053c3.577,1.892,4.946,6.328,3.054,9.905
						C1911.63,3216.652,1908.596,3218.098,1905.632,3217.691z M2159.946,3233.448c-2.57-0.353-4.875-2.063-5.859-4.656
						c-1.442-3.788,0.462-8.02,4.243-9.459c11.369-4.319,22.59-9.381,33.357-15.055c3.586-1.892,8.017-0.51,9.902,3.073
						c1.885,3.582,0.51,8.017-3.072,9.902c-11.292,5.941-23.057,11.253-34.975,15.786
						C2162.354,3233.49,2161.119,3233.609,2159.946,3233.448z M2226.175,3198.612c-1.968-0.27-3.816-1.333-5.033-3.091
						c-2.303-3.329-1.473-7.896,1.856-10.198c10.027-6.939,19.719-14.544,28.805-22.601c3.032-2.69,7.667-2.408,10.348,0.619
						c2.687,3.028,2.408,7.656-0.618,10.34c-9.527,8.451-19.686,16.427-30.192,23.697
						C2229.772,3198.463,2227.927,3198.853,2226.175,3198.612z M2282.158,3148.909c-1.383-0.19-2.726-0.771-3.849-1.771
						c-3.035-2.678-3.32-7.312-0.638-10.346c8.077-9.128,15.66-18.837,22.537-28.852c2.292-3.326,6.856-4.181,10.189-1.887
						c3.337,2.293,4.184,6.853,1.891,10.193c-7.214,10.497-15.166,20.682-23.634,30.261
						C2286.965,3148.414,2284.504,3149.232,2282.158,3148.909z"/>
					<path style="fill:#91B3FA;" d="M1843.933,3174.677c-1.401-0.192-2.76-0.791-3.892-1.806c-4.67-4.189-9.234-8.536-13.574-12.917
						c-2.845-2.876-2.825-7.519,0.051-10.368c2.879-2.834,7.514-2.819,10.368,0.052c4.136,4.18,8.494,8.326,12.948,12.326
						c3.013,2.704,3.261,7.34,0.558,10.349C1848.703,3174.191,1846.263,3174.997,1843.933,3174.677z"/>
				</g>
				<g>
					<path style="fill:#91B3FA;" d="M1862.853,3081.706c0.824,1.351,2.416,2.031,3.962,1.691l44.121-9.676
						c14.805,15.025,32.113,27.798,51.491,37.582l4.265,44.938c0.149,1.576,1.282,2.884,2.821,3.256l52.66,12.745
						c1.539,0.372,3.145-0.273,3.999-1.606l24.34-38.016c21.708,0.159,42.94-3.285,62.978-9.879l34.814,28.78
						c1.22,1.008,2.947,1.132,4.298,0.307l46.247-28.224c1.352-0.826,2.031-2.417,1.692-3.963l-9.676-44.12
						c15.026-14.805,27.799-32.114,37.582-51.492l44.938-4.264c1.576-0.149,2.884-1.282,3.256-2.821l12.744-52.66
						c0.373-1.539-0.272-3.145-1.606-3.998l-38.016-24.341c0.16-21.708-3.285-42.94-9.879-62.977l28.78-34.815
						c1.008-1.22,1.132-2.946,0.308-4.297l-28.225-46.248c-0.824-1.352-2.416-2.03-3.962-1.691l-44.121,9.677
						c-14.804-15.026-32.113-27.798-51.491-37.582l-4.265-44.939c-0.15-1.576-1.282-2.884-2.821-3.256l-52.66-12.744
						c-1.539-0.373-3.144,0.272-3.998,1.606l-24.34,38.016c-21.708-0.16-42.941,3.285-62.979,9.879l-34.813-28.779
						c-1.22-1.01-2.947-1.133-4.298-0.308l-46.247,28.224c-1.351,0.825-2.031,2.416-1.692,3.963l9.676,44.12
						c-15.026,14.805-27.798,32.114-37.581,51.492l-44.939,4.264c-1.575,0.149-2.884,1.282-3.255,2.822l-12.745,52.659
						c-0.372,1.539,0.272,3.145,1.606,3.999l38.016,24.341c-0.159,21.707,3.285,42.94,9.878,62.977l-28.779,34.814
						c-1.009,1.22-1.132,2.946-0.308,4.298L1862.853,3081.706z"/>
					<g>
						<path style="fill:#BDD0FB;" d="M2044.14,2989.572c-11.713-1.609-22.56-6.906-31.155-15.333
							c-10.573-10.367-16.474-24.233-16.618-39.041c-0.304-30.558,24.317-55.67,54.886-55.979
							c30.609-0.246,55.683,24.33,55.982,54.894c0.148,14.809-5.482,28.788-15.849,39.357
							c-10.367,10.576-24.233,16.481-39.045,16.622C2049.574,2990.116,2046.832,2989.942,2044.14,2989.572z M2057.373,2894.256
							c-1.954-0.268-3.948-0.397-5.977-0.38c-22.484,0.228-40.594,18.698-40.373,41.183c0.108,10.888,4.447,21.093,12.224,28.713
							c7.781,7.628,18.062,11.757,28.954,11.664l0,0c10.891-0.108,21.093-4.45,28.717-12.225
							c7.628-7.781,11.768-18.063,11.661-28.958C2092.378,2913.802,2077.067,2896.961,2057.373,2894.256z"/>
					</g>
					<g>
						<path style="fill:#BDD0FB;" d="M2034.049,3070.777c-4.595-0.631-9.193-1.502-13.794-2.61
							c-9.136-2.208-18.056-5.348-26.534-9.344c-0.38-0.183-0.759-0.365-1.139-0.547c-2.934-1.414-4.497-4.526-4.08-7.59
							c0.102-0.744,0.323-1.487,0.667-2.198c1.758-3.645,6.141-5.153,9.785-3.41c7.88,3.806,16.206,6.777,24.744,8.839l0.004,0
							c0.468,0.115,0.941,0.222,1.407,0.33c20.252,4.696,40.907,4.166,60.423-1.244c10.594-2.938,20.855-7.322,30.532-13.109
							c0.079-0.047,0.157-0.094,0.236-0.141c0.241-0.148,0.481-0.288,0.718-0.436c28.135-17.174,47.904-44.274,55.656-76.312
							c1.007-4.146,1.791-8.308,2.364-12.477c3.849-28.052-2.019-56.34-16.967-80.839c-17.174-28.136-44.275-47.897-76.31-55.649
							c-32.019-7.736-65.178-2.566-93.316,14.6c-28.135,17.173-47.904,44.274-55.656,76.312c-0.99,4.076-1.764,8.189-2.331,12.315
							c-2.455,17.898-0.967,36.127,4.422,53.383c0.331,1.064,0.411,2.144,0.265,3.179c-0.374,2.723-2.276,5.128-5.076,6
							c-3.867,1.196-7.974-0.943-9.182-4.816c-6.028-19.308-7.694-39.708-4.952-59.726c0.635-4.623,1.501-9.222,2.604-13.781
							c8.677-35.848,30.791-66.166,62.273-85.379c31.478-19.207,68.539-25.041,104.395-16.337
							c35.845,8.673,66.164,30.783,85.374,62.269c16.728,27.403,23.29,59.052,18.983,90.436c-0.64,4.658-1.518,9.321-2.64,13.956
							C2170.123,3035.846,2103.318,3080.291,2034.049,3070.777z"/>
					</g>
				</g>
			</g>
		</g>
		<g>
			<g>
				
					<linearGradient id="SVGID_00000121976424879580506240000018369246622696842160_" gradientUnits="userSpaceOnUse" x1="2167.4944" y1="1969.9773" x2="3337.8491" y2="-663.3196">
					<stop  offset="0" style="stop-color:#4F52FF"/>
					<stop  offset="1" style="stop-color:#4042E2"/>
				</linearGradient>
				
					<circle style="fill:url(#SVGID_00000121976424879580506240000018369246622696842160_);" cx="2455.171" cy="1322.706" r="677.614"/>
				<g>
					
						<linearGradient id="SVGID_00000010990169067113361770000000709872823909422001_" gradientUnits="userSpaceOnUse" x1="1960.4843" y1="2090.6807" x2="3403.251" y2="-149.1365">
						<stop  offset="0" style="stop-color:#4F52FF"/>
						<stop  offset="1" style="stop-color:#4042E2"/>
					</linearGradient>
					
						<circle style="fill:url(#SVGID_00000010990169067113361770000000709872823909422001_);" cx="2455.171" cy="1322.707" r="578.318"/>
					<path style="fill:#BDD0FB;" d="M2455.171,1917.84c-328.157,0-595.136-266.977-595.136-595.134s266.978-595.134,595.136-595.134
						s595.133,266.977,595.133,595.134S2783.329,1917.84,2455.171,1917.84z M2455.171,761.204
						c-309.614,0-561.503,251.888-561.503,561.502s251.89,561.502,561.503,561.502s561.5-251.888,561.5-561.502
						S2764.785,761.204,2455.171,761.204z"/>
				</g>
				<g>
					
						<linearGradient id="SVGID_00000173873283124596045670000006780210805995786630_" gradientUnits="userSpaceOnUse" x1="2064.4419" y1="2500.5117" x2="2765.6482" y2="386.8083">
						<stop  offset="0" style="stop-color:#4F52FF"/>
						<stop  offset="1" style="stop-color:#4042E2"/>
					</linearGradient>
					
						<circle style="fill:url(#SVGID_00000173873283124596045670000006780210805995786630_);" cx="2455.171" cy="1322.706" r="352.57"/>
					<path style="fill:#BDD0FB;" d="M2455.171,1692.093c-203.681,0-369.387-165.706-369.387-369.387
						c0-203.679,165.706-369.385,369.387-369.385s369.387,165.706,369.387,369.385
						C2824.559,1526.387,2658.852,1692.093,2455.171,1692.093z M2455.171,986.953c-185.137,0-335.754,150.617-335.754,335.753
						s150.617,335.755,335.754,335.755s335.754-150.619,335.754-335.755S2640.308,986.953,2455.171,986.953z"/>
				</g>
				<g>
					
						<linearGradient id="SVGID_00000115510856177774349210000008414684846682210236_" gradientUnits="userSpaceOnUse" x1="3378.3872" y1="96.987" x2="2076.2373" y2="1825.8016">
						<stop  offset="0" style="stop-color:#4F52FF"/>
						<stop  offset="1" style="stop-color:#4042E2"/>
					</linearGradient>
					
						<circle style="fill:url(#SVGID_00000115510856177774349210000008414684846682210236_);" cx="2455.171" cy="1322.706" r="136.596"/>
					<path style="fill:#BDD0FB;" d="M2455.171,1476.119c-84.591,0-153.413-68.82-153.413-153.413
						c0-84.592,68.822-153.413,153.413-153.413c84.591,0,153.413,68.82,153.413,153.413
						C2608.584,1407.298,2539.762,1476.119,2455.171,1476.119z M2455.171,1202.926c-66.047,0-119.78,53.733-119.78,119.78
						s53.733,119.78,119.78,119.78s119.78-53.733,119.78-119.78S2521.218,1202.926,2455.171,1202.926z"/>
				</g>
			</g>
			<g>
				
					<linearGradient id="SVGID_00000063623704127525047650000000505022850400799387_" gradientUnits="userSpaceOnUse" x1="-65.2877" y1="4828.0068" x2="-246.4242" y2="5563.8711" gradientTransform="matrix(-0.7071 -0.7071 0.7071 -0.7071 -1192.2574 4633.1733)">
					<stop  offset="0" style="stop-color:#09005D"/>
					<stop  offset="1" style="stop-color:#1A0F91"/>
				</linearGradient>
				<polygon style="fill:url(#SVGID_00000063623704127525047650000000505022850400799387_);" points="3158.505,594.025 
					3174.515,610.035 2568.251,1216.299 2552.241,1200.289 				"/>
				
					<linearGradient id="SVGID_00000093864513499157947010000010809505883098789519_" gradientUnits="userSpaceOnUse" x1="2506.5083" y1="1303.1898" x2="3052.3481" y2="-80.7059">
					<stop  offset="0" style="stop-color:#E1473D"/>
					<stop  offset="1" style="stop-color:#E9605A"/>
				</linearGradient>
				<path style="fill:url(#SVGID_00000093864513499157947010000010809505883098789519_);" d="M2563.581,1161.658
					c9.185-9.185,52.486,34.116,43.301,43.301l-160.602,126.258c-5.934,4.664-13.622-3.024-8.957-8.958L2563.581,1161.658z"/>
				
					<linearGradient id="SVGID_00000097464739876307318680000004265407392631823003_" gradientUnits="userSpaceOnUse" x1="-267.5166" y1="5797.9297" x2="-342.9796" y2="6607.4492" gradientTransform="matrix(-0.7071 -0.7071 0.7071 -0.7071 -1192.2574 4633.1733)">
					<stop  offset="0" style="stop-color:#FF928E"/>
					<stop  offset="1" style="stop-color:#FE7062"/>
				</linearGradient>
				<path style="fill:url(#SVGID_00000097464739876307318680000004265407392631823003_);" d="M3174.169,610.381l81.561,8.106
					l-111.968,111.968c-36.686,36.685-87.892,54.981-139.518,49.85l0,0L3174.169,610.381z"/>
				
					<linearGradient id="SVGID_00000024680029347121969180000017507840812465531278_" gradientUnits="userSpaceOnUse" x1="888.5756" y1="5797.9297" x2="813.1126" y2="6607.4478" gradientTransform="matrix(0.7071 0.7071 0.7071 -0.7071 -1682.106 4143.3247)">
					<stop  offset="0" style="stop-color:#FF928E"/>
					<stop  offset="1" style="stop-color:#FE7062"/>
				</linearGradient>
				<path style="fill:url(#SVGID_00000024680029347121969180000017507840812465531278_);" d="M3158.159,594.371l-8.106-81.561
					l-111.968,111.968c-36.686,36.685-54.981,87.891-49.85,139.518l0,0L3158.159,594.371z"/>
			</g>
		</g>
	</g>
</g>
</svg>
