<?xml version="1.0" encoding="utf-8"?>
<!-- Generator: Adobe Illustrator 27.5.0, SVG Export Plug-In . SVG Version: 6.00 Build 0)  -->
<svg version="1.1" xmlns="http://www.w3.org/2000/svg" xmlns:xlink="http://www.w3.org/1999/xlink" x="0px" y="0px"
	 viewBox="0 0 500 500" style="enable-background:new 0 0 500 500;" xml:space="preserve">
<g id="Background_Simple">
	<g>
		<path style="fill:#3CA3F4;" d="M451.308,118.124c-1.646-2.74-3.357-5.429-5.144-8.057c-23.806-34.978-63.436-58.926-101.951-69.77
			c-16.873-4.759-34.196-7.248-51.49-7.884c-113.43-4.121-155.1,89.404-191.646,113.517c-36.546,24.114-92.628,65.303-85.59,151.826
			C20.826,363.543,58.25,426.445,126.6,455.07c7.528,3.162,15.439,5.908,23.721,8.185c15.406,4.238,32.105,6.9,50.096,7.699
			c51.676,2.302,93.635-10.154,134.678-41.522c9.54-7.291,19.03-15.516,31.411-16.417c8.999-0.655,17.531,2.578,8.125,11.275
			c-11.056,10.222,1.701,30.328,29.766,16.359c46.874-23.329,66.156-73.663,75.24-124.845
			C490.786,252.983,485.382,174.855,451.308,118.124z"/>
		<path style="opacity:0.7;fill:#FFFFFF;" d="M451.308,118.124c-1.646-2.74-3.357-5.429-5.144-8.057
			c-23.806-34.978-63.436-58.926-101.951-69.77c-16.873-4.759-34.196-7.248-51.49-7.884c-113.43-4.121-155.1,89.404-191.646,113.517
			c-36.546,24.114-92.628,65.303-85.59,151.826C20.826,363.543,58.25,426.445,126.6,455.07c7.528,3.162,15.439,5.908,23.721,8.185
			c15.406,4.238,32.105,6.9,50.096,7.699c51.676,2.302,93.635-10.154,134.678-41.522c9.54-7.291,19.03-15.516,31.411-16.417
			c8.999-0.655,17.531,2.578,8.125,11.275c-11.056,10.222,1.701,30.328,29.766,16.359c46.874-23.329,66.156-73.663,75.24-124.845
			C490.786,252.983,485.382,174.855,451.308,118.124z"/>
	</g>
</g>
<g id="Pictures">
	<g style="opacity:0.3;">
		
			<rect x="31.064" y="42.329" style="fill:none;stroke:#000000;stroke-linecap:round;stroke-linejoin:round;stroke-miterlimit:10;" width="87.655" height="126.23"/>
		
			<rect x="60.166" y="84.238" style="fill:none;stroke:#000000;stroke-linecap:round;stroke-linejoin:round;stroke-miterlimit:10;" width="29.45" height="42.411"/>
	</g>
	<g style="opacity:0.3;">
		
			<rect x="368.293" y="50.566" style="fill:none;stroke:#000000;stroke-linecap:round;stroke-linejoin:round;stroke-miterlimit:10;" width="52.766" height="59.513"/>
		
			<rect x="385.812" y="70.325" style="fill:none;stroke:#000000;stroke-linecap:round;stroke-linejoin:round;stroke-miterlimit:10;" width="17.729" height="19.995"/>
	</g>
</g>
<g id="Furniture">
	<g style="opacity:0.3;">
		<polyline style="fill:none;stroke:#000000;stroke-linecap:round;stroke-linejoin:round;stroke-miterlimit:10;" points="
			44.817,387.889 348.039,387.889 348.039,191.129 443.585,191.129 443.585,453.476 		"/>
		
			<rect x="353.075" y="195.064" style="fill:none;stroke:#000000;stroke-linecap:round;stroke-linejoin:round;stroke-miterlimit:10;" width="85.263" height="60.996"/>
		
			<rect x="353.075" y="261.307" style="fill:none;stroke:#000000;stroke-linecap:round;stroke-linejoin:round;stroke-miterlimit:10;" width="85.263" height="60.996"/>
		
			<rect x="353.075" y="327.549" style="fill:none;stroke:#000000;stroke-linecap:round;stroke-linejoin:round;stroke-miterlimit:10;" width="85.263" height="60.996"/>
		
			<rect x="393.582" y="200.607" style="fill:none;stroke:#000000;stroke-linecap:round;stroke-linejoin:round;stroke-miterlimit:10;" width="14.124" height="55.387"/>
		
			<rect x="393.582" y="333.358" style="fill:none;stroke:#000000;stroke-linecap:round;stroke-linejoin:round;stroke-miterlimit:10;" width="14.124" height="55.387"/>
		
			<rect x="407.51" y="333.358" style="fill:none;stroke:#000000;stroke-linecap:round;stroke-linejoin:round;stroke-miterlimit:10;" width="14.124" height="55.387"/>
		
			<rect x="421.437" y="333.358" style="fill:none;stroke:#000000;stroke-linecap:round;stroke-linejoin:round;stroke-miterlimit:10;" width="14.124" height="55.387"/>
		
			<rect x="371.861" y="199.192" transform="matrix(0.9655 0.2604 -0.2604 0.9655 72.1915 -90.8596)" style="fill:none;stroke:#000000;stroke-linecap:round;stroke-linejoin:round;stroke-miterlimit:10;" width="14.171" height="55.575"/>
		
			<rect x="360.667" y="331.61" transform="matrix(-0.9655 0.2604 -0.2604 -0.9655 816.4139 610.6194)" style="fill:none;stroke:#000000;stroke-linecap:round;stroke-linejoin:round;stroke-miterlimit:10;" width="14.172" height="55.575"/>
		
			<rect x="408.26" y="200.607" style="fill:none;stroke:#000000;stroke-linecap:round;stroke-linejoin:round;stroke-miterlimit:10;" width="14.124" height="55.387"/>
		
			<rect x="422.938" y="200.607" style="fill:none;stroke:#000000;stroke-linecap:round;stroke-linejoin:round;stroke-miterlimit:10;" width="14.124" height="55.387"/>
		<g>
			<g>
				<path style="fill:none;stroke:#000000;stroke-linecap:round;stroke-linejoin:round;stroke-miterlimit:10;" d="M436.805,313.659
					c0,4.74-3.85,8.6-8.59,8.6h-57.8c-0.83,0-1.5-0.68-1.5-1.5c0-0.83,0.67-1.5,1.5-1.5h57.8c3.08,0,5.59-2.51,5.59-5.6
					c0-3.08-2.51-5.59-5.59-5.59h-57.8c-0.83,0-1.5-0.67-1.5-1.5c0-0.83,0.67-1.5,1.5-1.5h57.8
					C432.955,305.069,436.805,308.919,436.805,313.659z"/>
				<path style="fill:none;stroke:#000000;stroke-linecap:round;stroke-linejoin:round;stroke-miterlimit:10;" d="M412.305,311.009
					v5.23c0,1.17-0.45,2.23-1.18,3.02h-39.14c0.73-0.79,1.18-1.85,1.18-3.02v-5.23c0-1.13-0.42-2.16-1.12-2.94h39.14
					C411.885,308.849,412.305,309.879,412.305,311.009z"/>
				<path style="fill:none;stroke:#000000;stroke-linecap:round;stroke-linejoin:round;stroke-miterlimit:10;" d="M433.805,313.659
					c0,3.09-2.51,5.6-5.59,5.6h-17.09c0.73-0.79,1.18-1.85,1.18-3.02v-5.23c0-1.13-0.42-2.16-1.12-2.94h17.03
					C431.295,308.069,433.805,310.579,433.805,313.659z"/>
			</g>
			<path style="fill:none;stroke:#000000;stroke-linecap:round;stroke-linejoin:round;stroke-miterlimit:10;" d="M410.741,305.247
				c0,0-1.269,0.254-1.142,1.396c0.127,1.142,1.586,1.426,1.586,1.426"/>
			<path style="fill:none;stroke:#000000;stroke-linecap:round;stroke-linejoin:round;stroke-miterlimit:10;" d="M410.655,319.231
				c0,0-1.174,0.273-1.056,1.502c0.117,1.229,1.467,1.534,1.467,1.534"/>
		</g>
		<g>
			<g>
				<path style="fill:none;stroke:#000000;stroke-linecap:round;stroke-linejoin:round;stroke-miterlimit:10;" d="M436.805,296.426
					c0,4.74-3.85,8.6-8.59,8.6h-57.8c-0.83,0-1.5-0.68-1.5-1.5c0-0.83,0.67-1.5,1.5-1.5h57.8c3.08,0,5.59-2.51,5.59-5.6
					c0-3.08-2.51-5.59-5.59-5.59h-57.8c-0.83,0-1.5-0.67-1.5-1.5s0.67-1.5,1.5-1.5h57.8
					C432.955,287.836,436.805,291.686,436.805,296.426z"/>
				<path style="fill:none;stroke:#000000;stroke-linecap:round;stroke-linejoin:round;stroke-miterlimit:10;" d="M412.305,293.776
					v5.23c0,1.17-0.45,2.23-1.18,3.02h-39.14c0.73-0.79,1.18-1.85,1.18-3.02v-5.23c0-1.13-0.42-2.16-1.12-2.94h39.14
					C411.885,291.616,412.305,292.646,412.305,293.776z"/>
				<path style="fill:none;stroke:#000000;stroke-linecap:round;stroke-linejoin:round;stroke-miterlimit:10;" d="M433.805,296.426
					c0,3.09-2.51,5.6-5.59,5.6h-17.09c0.73-0.79,1.18-1.85,1.18-3.02v-5.23c0-1.13-0.42-2.16-1.12-2.94h17.03
					C431.295,290.836,433.805,293.346,433.805,296.426z"/>
			</g>
			<path style="fill:none;stroke:#000000;stroke-linecap:round;stroke-linejoin:round;stroke-miterlimit:10;" d="M410.741,288.013
				c0,0-1.269,0.254-1.142,1.396c0.127,1.142,1.586,1.426,1.586,1.426"/>
			<path style="fill:none;stroke:#000000;stroke-linecap:round;stroke-linejoin:round;stroke-miterlimit:10;" d="M410.655,301.997
				c0,0-1.174,0.273-1.056,1.502c0.117,1.229,1.467,1.534,1.467,1.534"/>
		</g>
		<g>
			<polygon style="fill:none;stroke:#000000;stroke-linecap:round;stroke-linejoin:round;stroke-miterlimit:10;" points="
				387.152,163.574 361.019,163.574 363.632,191.059 384.538,191.059 			"/>
			<polygon style="fill:none;stroke:#000000;stroke-linecap:round;stroke-linejoin:round;stroke-miterlimit:10;" points="
				365.185,163.389 385.55,163.389 390.07,156.07 383.895,161.33 389.155,146.236 382.523,153.097 384.81,143.262 380.922,149.666 
				381.608,138.688 376.805,154.24 375.204,135.258 372.917,147.379 370.63,126.796 369.258,145.092 365.827,132.285 
				369.258,159.729 360.338,140.289 364.912,159.729 356.679,152.868 			"/>
		</g>
		
			<rect x="353.695" y="398.079" style="fill:none;stroke:#000000;stroke-linecap:round;stroke-linejoin:round;stroke-miterlimit:10;" width="84.392" height="45.97"/>
		
			<rect x="165.064" y="398.079" style="fill:none;stroke:#000000;stroke-linecap:round;stroke-linejoin:round;stroke-miterlimit:10;" width="182.418" height="45.97"/>
		
			<rect x="49.328" y="398.079" style="fill:none;stroke:#000000;stroke-linecap:round;stroke-linejoin:round;stroke-miterlimit:10;" width="109.528" height="45.97"/>
		
			<rect x="389.274" y="419.474" style="fill:none;stroke:#000000;stroke-linecap:round;stroke-linejoin:round;stroke-miterlimit:10;" width="13.519" height="3.64"/>
	</g>
</g>
<g id="TV">
	<g style="opacity:0.3;">
		<g>
			
				<rect x="56.623" y="237.04" style="fill:none;stroke:#000000;stroke-linecap:round;stroke-linejoin:round;stroke-miterlimit:10;" width="260.379" height="139.7"/>
			
				<rect x="61.331" y="240.964" style="fill:none;stroke:#000000;stroke-linecap:round;stroke-linejoin:round;stroke-miterlimit:10;" width="250.963" height="131.852"/>
		</g>
		<polygon style="fill:none;stroke:#000000;stroke-linecap:round;stroke-linejoin:round;stroke-miterlimit:10;" points="
			64.726,376.836 62.141,387.79 67.043,387.79 70.493,376.836 		"/>
		<polygon style="fill:none;stroke:#000000;stroke-linecap:round;stroke-linejoin:round;stroke-miterlimit:10;" points="
			309.956,376.836 312.541,387.79 307.638,387.79 304.188,376.836 		"/>
	</g>
</g>
<g id="Character">
	<g>
		<g>
			<g>
				<path style="fill:#3CA3F4;stroke:#263238;stroke-linecap:round;stroke-linejoin:round;stroke-miterlimit:10;" d="
					M362.161,382.253l-20.609,6.233l11.183,31.41l20.609-6.233c2.36-0.84,1.769-8.553-1.319-17.227
					C368.937,387.763,364.52,381.413,362.161,382.253z"/>
				<path style="fill:#263238;stroke:#263238;stroke-linecap:round;stroke-linejoin:round;stroke-miterlimit:10;" d="
					M351.416,402.67c3.088,8.674,3.679,16.386,1.319,17.227c-2.36,0.84-6.776-5.51-9.864-14.184
					c-3.088-8.674-3.679-16.386-1.319-17.226C343.912,387.646,348.328,393.997,351.416,402.67z"/>
			</g>
			<path style="fill:#FFFFFF;stroke:#263238;stroke-linecap:round;stroke-linejoin:round;stroke-miterlimit:10;" d="
				M278.169,292.855l3.337,18.353c0,0,11.679,17.519,17.797,31.701c6.118,14.182,22.246,32.535,25.305,35.038
				c3.059,2.503,11.957,7.786,14.182,11.401c2.225,3.615,6.952,15.016,6.952,15.016l-22.802,8.898c0,0-4.449-4.727-6.674-11.401
				c-2.225-6.674-3.615-11.957-3.615-11.957s-21.968-16.407-29.198-21.69c-7.23-5.283-9.455-8.064-9.455-8.064
				s-8.064-37.54-9.455-46.995C263.153,303.7,271.774,293.968,278.169,292.855z"/>
			<g>
				<path style="fill:#FFFFFF;stroke:#263238;stroke-linecap:round;stroke-linejoin:round;stroke-miterlimit:10;" d="
					M344.721,398.728c0,0,4.849,10.708,4.445,12.123c-0.404,1.414-4.041,2.425-5.657,2.02c-1.616-0.404-4.243-11.517-4.243-12.123
					C339.265,400.142,342.498,396.91,344.721,398.728z"/>
				<path style="fill:#FFFFFF;stroke:#263238;stroke-linecap:round;stroke-linejoin:round;stroke-miterlimit:10;" d="
					M338.053,401.152c0,0,4.849,10.708,4.445,12.123c-0.404,1.414-4.041,2.424-5.657,2.021c-1.616-0.404-4.243-11.517-4.243-12.123
					S335.831,399.334,338.053,401.152z"/>
				<path style="fill:#FFFFFF;stroke:#263238;stroke-linecap:round;stroke-linejoin:round;stroke-miterlimit:10;" d="
					M331.779,403.529c0,0,4.422,9.765,4.053,11.055c-0.368,1.29-3.685,2.211-5.159,1.842c-1.474-0.368-3.869-10.502-3.869-11.055
					C326.805,404.819,329.753,401.871,331.779,403.529z"/>
				<path style="fill:#FFFFFF;stroke:#263238;stroke-linecap:round;stroke-linejoin:round;stroke-miterlimit:10;" d="
					M326.474,405.705c0,0,4.014,8.864,3.68,10.035c-0.335,1.171-3.345,2.007-4.683,1.672s-3.512-9.533-3.512-10.035
					C321.958,406.876,324.634,404.2,326.474,405.705z"/>
			</g>
			<g>
				<path style="fill:#FFFFFF;stroke:#263238;stroke-linecap:round;stroke-linejoin:round;stroke-miterlimit:10;" d="
					M324.516,383.17c0,0,2.223-1.01,5.253-0.808c3.031,0.202,11.517,2.627,12.729,4.243c1.212,1.616,4.243,12.729,3.031,13.537
					c-1.212,0.808-13.739,5.455-15.557,6.061c-1.818,0.606-2.223-3.031-1.212-4.647c1.01-1.616,3.637-3.031,3.637-3.031
					s-5.253-0.404-7.274-3.637"/>
				<path style="fill:none;stroke:#263238;stroke-linecap:round;stroke-linejoin:round;stroke-miterlimit:10;" d="M340.68,395.697
					c-3.435-0.606-8.284,2.829-8.284,2.829s3.031-5.455,5.253-6.263"/>
			</g>
			<g>
				<path style="fill:#3CA3F4;stroke:#263238;stroke-linecap:round;stroke-linejoin:round;stroke-miterlimit:10;" d="
					M313.749,395.948l-20.609,6.233l11.183,31.41l20.609-6.233c2.36-0.84,1.769-8.553-1.319-17.226
					C320.526,401.459,316.109,395.108,313.749,395.948z"/>
				<path style="fill:#263238;stroke:#263238;stroke-linecap:round;stroke-linejoin:round;stroke-miterlimit:10;" d="
					M303.005,416.366c3.088,8.674,3.679,16.386,1.319,17.226c-2.36,0.84-6.776-5.51-9.864-14.184s-3.679-16.386-1.319-17.226
					C295.5,401.342,299.917,407.692,303.005,416.366z"/>
			</g>
		</g>
		<g>
			<path style="fill:#263238;stroke:#263238;stroke-linecap:round;stroke-linejoin:round;stroke-miterlimit:10;" d="M306.049,460.33
				l-19.259-56.243c0,0-2.225-18.909-3.337-32.813c-1.112-13.904-8.621-29.476-8.621-29.476s-12.792,12.235-37.262,16.963
				c-24.471,4.727-55.894-10.845-62.289-14.46c-6.396-3.615-6.396-3.615-6.396-3.615s-23.081,38.375-22.802,68.129
				c0.278,29.754,8.899,51.722,8.899,51.722"/>
			<g>
				
					<line style="fill:none;stroke:#8C8C8C;stroke-linecap:round;stroke-linejoin:round;stroke-miterlimit:10;" x1="230.618" y1="429.113" x2="235.624" y2="460.536"/>
				
					<line style="fill:none;stroke:#8C8C8C;stroke-linecap:round;stroke-linejoin:round;stroke-miterlimit:10;" x1="233.399" y1="443.017" x2="250.64" y2="427.445"/>
			</g>
		</g>
		<path style="fill:#FFFFFF;stroke:#263238;stroke-linecap:round;stroke-linejoin:round;stroke-miterlimit:10;" d="M270.995,314.92
			c0,0,5.506,14.086,5.506,21.594c0,7.508-3.337,13.07-14.46,19.744c-11.123,6.674-33.925,9.455-53.669,6.396
			c-19.743-3.059-38.375-15.572-39.487-21.968c-1.112-6.396,7.923-23.48,7.923-23.48S239.627,322.246,270.995,314.92z"/>
		<g>
			<path style="fill:#FFFFFF;stroke:#263238;stroke-linecap:round;stroke-linejoin:round;stroke-miterlimit:10;" d="
				M247.384,196.616c0,0,17.009-1.016,24.879,14.217s5.077,56.359,5.077,56.359s-26.656-49.251-28.433-56.867
				C247.131,202.709,247.384,196.616,247.384,196.616z"/>
			<path style="fill:#FFFFFF;stroke:#263238;stroke-linecap:round;stroke-linejoin:round;stroke-miterlimit:10;" d="
				M204.734,155.742c0,0-2.793,30.465-5.839,35.796c-3.046,5.331-27.926,13.455-42.396,27.164
				c-14.471,13.709-4.062,52.044-0.254,65.499c3.808,13.455,20.564,33.003,20.564,33.003s12.694,7.362,46.712,6.347
				c34.019-1.016,47.22-6.855,47.474-8.632c0.254-1.777-0.254-6.093-0.254-6.093s9.647-8.885,11.932-21.071
				c2.285-12.186-3.391-30.138-11.424-40.873c-5.416-7.238-15.232-28.941-18.786-35.796c-3.554-6.855-5.078-14.471-5.078-14.471
				s-8.378-0.762-9.647-3.808c-1.269-3.046,0.508-11.424,0.508-11.424S231.391,184.43,204.734,155.742z"/>
			<path style="fill:#263238;stroke:#263238;stroke-linecap:round;stroke-linejoin:round;stroke-miterlimit:10;" d="
				M217.214,176.728c0,0,1.743,5.52,7.554,10.75c5.811,5.23,12.969,5.33,12.969,5.33l0.508-11.424L217.214,176.728z"/>
			<g>
				<path style="fill:#3CA3F4;stroke:#263238;stroke-linecap:round;stroke-linejoin:round;stroke-miterlimit:10;" d="
					M252.462,211.087c-3.554-6.855-5.078-14.471-5.078-14.471s-3.157-0.29-5.889-1.217c0.546,3.001,2.475,11.276,8.936,26.35
					c8.378,19.548,12.328,22.516,12.87,31.014c0.966,15.133-12.309,22.092-30.588,18.031c-18.279-4.062-25.441-18.58-28.487-27.719
					c-3.046-9.139-5.585-14.725-9.901-25.895c-2.623-6.788-5.978-13.638-7.411-17.772c-3.204,1.673-6.798,3.517-10.495,5.557
					c2.751,3.221,11.455,14.527,18.414,35.826c8.378,25.641-15.232,56.867-24.372,61.183c-1.448,0.684-2.685,1.338-3.775,1.961
					c5.145,7.461,10.122,13.271,10.122,13.271s12.694,7.362,46.712,6.347c34.019-1.016,47.22-6.854,47.474-8.632
					c0.254-1.777-0.254-6.093-0.254-6.093s9.647-8.885,11.932-21.071c2.285-12.186-3.808-31.734-11.424-40.873
					C265.461,239.938,256.016,217.941,252.462,211.087z"/>
				<path style="fill:none;stroke:#263238;stroke-linecap:round;stroke-linejoin:round;stroke-miterlimit:10;" d="M237.237,196.921
					l0.941,6.899c0,0,5.018,0.627,10.349-1.882"/>
				<path style="fill:none;stroke:#263238;stroke-linecap:round;stroke-linejoin:round;stroke-miterlimit:10;" d="M197.409,212.288
					c0,0,16.934-3.763,19.443-4.077c2.509-0.314,5.958,0.314,5.958,0.314"/>
				<g>
					<path style="fill:none;stroke:#263238;stroke-linecap:round;stroke-linejoin:round;stroke-miterlimit:10;" d="M218.404,312.855
						c8.235,0.41,27.139,0.458,46.623-5.715"/>
					<path style="fill:none;stroke:#263238;stroke-linecap:round;stroke-linejoin:round;stroke-miterlimit:10;" d="M214.1,312.542
						c0,0,0.833,0.095,2.354,0.199"/>
					<path style="fill:none;stroke:#263238;stroke-linecap:round;stroke-linejoin:round;stroke-miterlimit:10;" d="M248.323,314.698
						c-2.778,0.419-5.718,0.749-8.76,0.93"/>
					<path style="fill:none;stroke:#263238;stroke-linecap:round;stroke-linejoin:round;stroke-miterlimit:10;" d="M270.741,308.827
						c0,0-7.98,3.304-19.328,5.358"/>
				</g>
			</g>
		</g>
		<g>
			<path style="fill:#263238;stroke:#263238;stroke-linecap:round;stroke-linejoin:round;stroke-miterlimit:10;" d="M242.065,82.706
				c0,0-1.939-9.891-12.413-17.455c-10.473-7.564-29.674-3.879-32.971-1.746c-3.297,2.134-5.431,5.237-5.431,5.237l11.055,0.97
				c0,0-15.71,3.491-19.977,11.055c-4.267,7.564-3.103,12.413-3.103,12.413l5.237-3.103c0,0-6.982,9.31-4.461,20.171
				c2.521,10.861,20.946,22.498,31.032,18.231c10.085-4.267,14.158-29.092,18.619-32.971c4.461-3.879,11.443-4.267,12.219-6.012
				C242.646,87.749,242.065,82.706,242.065,82.706z"/>
			<path style="fill:#263238;stroke:#263238;stroke-linecap:round;stroke-linejoin:round;stroke-miterlimit:10;" d="
				M262.251,129.909c0,0-4.577,13.765-0.981,30.351c3.596,16.586-3.077,23.446-6.488,25.06c-3.412,1.614-4.391,0.661-4.391,0.661
				s6.436-2.289,7.958-7.978c1.522-5.688,1.001-14.416,1.001-14.416s-4.231,12.26-6.595,17.327
				c-2.364,5.067-5.567,4.844-5.567,4.844s12.794-15.046,9.694-29.505C253.78,141.795,262.251,129.909,262.251,129.909z"/>
			<g>
				<path style="fill:#FFFFFF;stroke:#263238;stroke-linecap:round;stroke-linejoin:round;stroke-miterlimit:10;" d="
					M201.335,121.302c0,0,3.166-28.706,23.08-36.075c19.395-7.176,39.178-0.388,47.13,13.77c7.952,14.158,2.327,30.256,0.194,37.82
					c-2.133,7.564-6.594,12.219-6.594,15.128c0,2.909-0.194,9.31-2.715,13.382c-2.521,4.073-16.874,15.904-21.14,18.231
					c-4.267,2.327-10.667,4.073-16.292,0.388c-5.625-3.685-21.334-17.649-22.692-26.765c-1.358-9.116-1.552-21.916-1.552-21.916
					L201.335,121.302z"/>
				<path style="fill:#263238;stroke:#263238;stroke-linecap:round;stroke-linejoin:round;stroke-miterlimit:10;" d="
					M271.545,98.998c-7.952-14.158-27.735-20.947-47.13-13.77c-19.914,7.368-23.08,36.075-23.08,36.075l-0.196,4.703l2.911,0.728
					c0,0,5.237-1.746,6.4-5.043c1.164-3.297,4.076-6.774,7.564-8.728c4.849-2.715,7.512-6.163,8.34-11.249
					c1.358-8.34,10.473-10.085,21.141-5.625c10.667,4.461,10.665,5.237,18.813,5.237c4.743,0,8.452,5.93,9.348,15.264
					C275.773,110.877,274.79,104.776,271.545,98.998z"/>
				<path style="fill:none;stroke:#263238;stroke-width:2;stroke-linecap:round;stroke-linejoin:round;stroke-miterlimit:10;" d="
					M242.84,131.969c0,0-4.655-6.594-15.516-5.237"/>
				<path style="fill:none;stroke:#263238;stroke-linecap:round;stroke-linejoin:round;stroke-miterlimit:10;" d="M227.324,136.624
					c0,0,2.715,4.655,10.861,3.879"/>
				<path style="fill:none;stroke:#263238;stroke-width:2;stroke-linecap:round;stroke-linejoin:round;stroke-miterlimit:10;" d="
					M252.926,136.818c0,0,7.758-1.939,11.249,5.237"/>
				<path style="fill:none;stroke:#263238;stroke-linecap:round;stroke-linejoin:round;stroke-miterlimit:10;" d="M251.18,144.576
					c0,0,1.939,4.461,10.085,4.461"/>
				<path style="fill:none;stroke:#263238;stroke-linecap:round;stroke-linejoin:round;stroke-miterlimit:10;" d="M251.374,136.43
					c0,0-4.655,2.133-4.849,4.267c-0.194,2.133,0.388,12.801-0.194,14.352c-0.582,1.552-5.431,2.909-8.534-1.358"/>
				<path style="fill:none;stroke:#263238;stroke-linecap:round;stroke-linejoin:round;stroke-miterlimit:10;" d="M227.324,154.855
					c0,0,4.073,8.534,14.352,9.309"/>
				<path style="fill:none;stroke:#263238;stroke-linecap:round;stroke-linejoin:round;stroke-miterlimit:10;" d="M227.518,138.951
					c0,0,3.879,2.133,7.952,2.521"/>
				<path style="fill:none;stroke:#263238;stroke-linecap:round;stroke-linejoin:round;stroke-miterlimit:10;" d="M251.568,146.515
					c0,0,3.103,3.103,7.176,3.103"/>
				<path style="fill:#FFFFFF;stroke:#263238;stroke-linecap:round;stroke-linejoin:round;stroke-miterlimit:10;" d="
					M206.305,129.746c0,0-2.828-14.398-8.227-11.312c-5.399,3.085-4.114,15.426-1.286,20.054c2.828,4.628,6.685,2.828,6.685,2.828"
					/>
			</g>
			<path style="fill:#263238;stroke:#263238;stroke-linecap:round;stroke-linejoin:round;stroke-miterlimit:10;" d="
				M207.527,123.755c0,0-1.015,14.471-10.663,28.434c-9.647,13.963-6.093,22.848-3.554,25.641c2.539,2.793,3.808,2.285,3.808,2.285
				s-5.077-4.57-4.316-10.409c0.762-5.839,4.57-13.709,4.57-13.709s-0.762,12.947-0.508,18.533c0.254,5.585,3.3,6.601,3.3,6.601
				s-6.093-18.786,2.285-30.972C210.827,137.971,207.527,123.755,207.527,123.755z"/>
		</g>
		<g>
			<path style="fill:#3CA3F4;stroke:#263238;stroke-linecap:round;stroke-linejoin:round;stroke-miterlimit:10;" d="M247.909,245.07
				l-21.329-2.942l-2.955,33.211l21.329,2.942c2.495,0.222,5.179-7.033,5.995-16.203
				C251.765,252.906,250.404,245.292,247.909,245.07z"/>
			<path style="fill:#263238;stroke:#263238;stroke-linecap:round;stroke-linejoin:round;stroke-miterlimit:10;" d="M229.62,259.135
				c-0.816,9.171-3.5,16.425-5.995,16.203c-2.495-0.222-3.856-7.836-3.04-17.007c0.816-9.171,3.5-16.425,5.995-16.204
				C229.075,242.35,230.436,249.964,229.62,259.135z"/>
		</g>
		<g>
			<path style="fill:#FFFFFF;stroke:#263238;stroke-linecap:round;stroke-linejoin:round;stroke-miterlimit:10;" d="
				M166.952,211.883c0,0-19.175,7.263-26.148,24.405c-6.973,17.141-4.358,42.999,4.648,66.823
				c9.007,23.824,19.756,47.066,28.763,49.39c9.007,2.324,19.175-25.276,23.824-34.283s16.56-32.54,17.141-35.445
				s9.007-12.202,11.912-15.108s2.324-8.135,2.034-9.878c-0.29-1.743-3.486-13.945-4.358-15.108
				c-0.872-1.162-2.324-0.581-3.486-1.162c-1.162-0.581-11.912-3.486-11.912-3.486s-4.939-2.615-7.263-1.453
				c-2.324,1.162-2.905,2.905-2.905,2.905s0.581,7.554-1.453,13.074c-2.034,5.52-6.682,12.202-5.811,13.365
				c0.872,1.162,6.392,9.007,6.392,9.007s-5.52,11.04-12.493,19.466l-4.939-18.885"/>
			<path style="fill:#A1A1A1;stroke:#263238;stroke-linecap:round;stroke-linejoin:round;stroke-miterlimit:10;" d="
				M215.181,282.772c0.082-0.408,0.331-0.953,0.685-1.578l-0.147-0.531c-10.542-0.245-17.389-5.736-17.389-5.736
				s-5.52,11.04-12.493,19.466l-0.004-0.015l-3.947,6.143c6.502,9.24,14.671,11.551,19.016,12.105
				C206.364,301.898,214.697,285.191,215.181,282.772z"/>
			<path style="fill:none;stroke:#263238;stroke-linecap:round;stroke-linejoin:round;stroke-miterlimit:10;" d="M181.886,300.522
				c0,0-21.329,15.445-22.31,24.271"/>
			<g>
				<path style="fill:none;stroke:#263238;stroke-linecap:round;stroke-linejoin:round;stroke-miterlimit:10;" d="M221.282,241.517
					c0,0,2.905,11.331,2.905,16.56"/>
				<path style="fill:none;stroke:#263238;stroke-linecap:round;stroke-linejoin:round;stroke-miterlimit:10;" d="M216.052,240.645
					c0,0,1.453,10.169,2.034,14.817"/>
				<path style="fill:none;stroke:#263238;stroke-linecap:round;stroke-linejoin:round;stroke-miterlimit:10;" d="M209.37,238.03
					c0,0,1.743,12.493,1.743,15.689"/>
				<path style="fill:none;stroke:#263238;stroke-linecap:round;stroke-linejoin:round;stroke-miterlimit:10;" d="M210.723,257.265
					c0,0-1.062,0.885-1.948,1.947"/>
				<path style="fill:none;stroke:#263238;stroke-linecap:round;stroke-linejoin:round;stroke-miterlimit:10;" d="M217.273,258.858
					c0,0-1.062,0.885-1.947,1.948"/>
				<path style="fill:none;stroke:#263238;stroke-linecap:round;stroke-linejoin:round;stroke-miterlimit:10;" d="M223.824,260.451
					c0,0-1.062,0.885-1.947,1.948"/>
			</g>
		</g>
		<g>
			<path style="fill:#3CA3F4;stroke:#263238;stroke-linecap:round;stroke-linejoin:round;stroke-miterlimit:10;" d="
				M197.215,236.845l-21.329-2.942l-2.955,33.211l21.329,2.942c2.495,0.222,5.179-7.033,5.995-16.203
				C201.072,244.682,199.71,237.067,197.215,236.845z"/>
			<path style="fill:#263238;stroke:#263238;stroke-linecap:round;stroke-linejoin:round;stroke-miterlimit:10;" d="
				M178.927,250.911c-0.816,9.171-3.5,16.425-5.995,16.203c-2.495-0.222-3.856-7.836-3.04-17.007
				c0.816-9.171,3.5-16.425,5.995-16.203C178.382,234.125,179.743,241.74,178.927,250.911z"/>
		</g>
	</g>
</g>
<g id="Line">
	<g>
		
			<line style="fill:none;stroke:#263238;stroke-linecap:round;stroke-linejoin:round;stroke-miterlimit:10;" x1="469.65" y1="460.536" x2="44.461" y2="460.536"/>
		
			<line style="fill:none;stroke:#263238;stroke-linecap:round;stroke-linejoin:round;stroke-miterlimit:10;" x1="29.653" y1="460.536" x2="38.115" y2="460.536"/>
	</g>
</g>
</svg>
