<?xml version="1.0" encoding="utf-8"?>
<!-- Generator: Adobe Illustrator 27.5.0, SVG Export Plug-In . SVG Version: 6.00 Build 0)  -->
<svg version="1.1" xmlns="http://www.w3.org/2000/svg" xmlns:xlink="http://www.w3.org/1999/xlink" x="0px" y="0px"
	 viewBox="0 0 500 500" style="enable-background:new 0 0 500 500;" xml:space="preserve">
<g id="Background_Complete">
	<rect x="416.779" y="398.494" style="fill:#EBEBEB;" width="33.122" height="0.25"/>
	<rect x="322.527" y="401.208" style="fill:#EBEBEB;" width="8.693" height="0.25"/>
	<rect x="396.586" y="389.208" style="fill:#EBEBEB;" width="19.192" height="0.25"/>
	<rect x="52.459" y="390.888" style="fill:#EBEBEB;" width="43.193" height="0.25"/>
	<rect x="104.556" y="390.888" style="fill:#EBEBEB;" width="6.333" height="0.25"/>
	<rect x="131.471" y="395.111" style="fill:#EBEBEB;" width="93.676" height="0.25"/>
	<path style="fill:#EBEBEB;" d="M237.014,337.8H43.915c-3.147,0-5.708-2.561-5.708-5.708V60.66c0-3.147,2.561-5.708,5.708-5.708
		h193.099c3.146,0,5.707,2.561,5.707,5.708v271.432C242.721,335.239,240.16,337.8,237.014,337.8z M43.915,55.203
		c-3.01,0-5.458,2.448-5.458,5.458v271.432c0,3.01,2.448,5.458,5.458,5.458h193.099c3.009,0,5.457-2.448,5.457-5.458V60.66
		c0-3.009-2.448-5.458-5.457-5.458H43.915z"/>
	<path style="fill:#EBEBEB;" d="M453.31,337.8H260.212c-3.147,0-5.707-2.561-5.707-5.708V60.66c0-3.147,2.561-5.708,5.707-5.708
		H453.31c3.148,0,5.708,2.561,5.708,5.708v271.432C459.019,335.239,456.458,337.8,453.31,337.8z M260.212,55.203
		c-3.009,0-5.457,2.448-5.457,5.458v271.432c0,3.01,2.448,5.458,5.457,5.458H453.31c3.01,0,5.458-2.448,5.458-5.458V60.66
		c0-3.009-2.448-5.458-5.458-5.458H260.212z"/>
	<rect y="382.398" style="fill:#EBEBEB;" width="500" height="0.25"/>
	<g>
		<path style="fill:#F5F5F5;" d="M50.657,316.744l32.04-0.12c2.6,0,4.7,2.11,4.7,4.7v11.29c0,2.601,2.109,4.71,4.71,4.71h46.95
			c2.6,0,4.71-2.1,4.72-4.7v-41.44c0,0,0-0.01,0-0.02c0.01-2.59,2.11-4.69,4.71-4.68h10c2.601,0,4.71-2.109,4.71-4.71v-22.62
			c0-2.596,2.104-4.7,4.7-4.7h16.39c2.596,0,4.7,2.104,4.7,4.7v6.66c0,2.601,2.109,4.71,4.71,4.71h1.53c2.596,0,4.7-2.104,4.7-4.7
			v-24.62c0-2.601,2.109-4.71,4.71-4.71h16.23c2.59,0,4.71,2.12,4.71,4.71v24.66c0,2.59,2.1,4.7,4.7,4.7h5.06
			c2.6,0,4.7-2.11,4.7-4.7v-49.706h-0.049v-24.899h1v15.336c0.095-0.128,0.18-0.262,0.289-0.38l37.35-21.451
			c0.79-0.86,1.24,0.01,1.24-1.15v-30.7l2.57-1.84l46.66-33.437v-13.303h1v12.586l0.19-0.136v149.09c0,2.601,2.109,4.71,4.71,4.71
			h6.13c2.6,0,4.71-2.1,4.71-4.7l1.469-55.669c0.014-0.535,0.141-1.061,0.372-1.544l9.119-19.038h0.68v-21.525
			c0-2.102,1.704-3.805,3.805-3.805h1.835v-15.245h1v15.245h0.964c2.102,0,3.805,1.704,3.805,3.805v0.967h4.27v-0.967
			c0-2.102,1.704-3.805,3.805-3.805h1.62v-15.245h1v15.245h1.18c2.102,0,3.805,1.704,3.805,3.805v21.525h0.68l9.129,19.038
			c0.231,0.482,0.358,1.008,0.373,1.543l1.498,55.609c0,2.6,2.11,4.71,4.71,4.71h8.61c2.596,0,4.7,2.104,4.7,4.7v6.48
			c0,2.596,2.104,4.7,4.7,4.7h6.15c2.29-0.01,4.25,1.63,4.64,3.89l16.38,86.08c0.06,0.29,0.09,0.59,0.09,0.89
			c-0.01,2.6-2.12,4.7-4.72,4.7h-390.8C49.717,381.974,50.657,316.744,50.657,316.744z"/>
		<g>
			<g>
				<g>
					<path style="fill:#F5F5F5;" d="M437.576,100.422h-65.887c-8.44,0-10.477-11.818-2.505-14.591
						c0.102-0.035,0.204-0.07,0.307-0.103c-8.818-7.347,10.531-22.837,31.545-1.39c-1.638-7.151,17.041-4.568,22.757,5.19
						C425.823,83.121,443.638,94.252,437.576,100.422z"/>
					<path style="fill:#F5F5F5;" d="M106.104,190.932h-37.23c0,0-8.731-3.288-7.602-11.997c1.129-8.709,14.31-1.452,14.31-1.452
						s-3.995-12.151,8.769-8.703c12.764,3.447,14.008,15.494,14.008,15.494S115.125,181.346,106.104,190.932z"/>
				</g>
				<g>
					<g>
						<rect x="361.867" y="286.672" style="fill:#E0E0E0;" width="9.424" height="33.767"/>
						<rect x="380.366" y="308.37" style="fill:#EBEBEB;" width="9.424" height="12.069"/>
						<rect x="398.864" y="302.394" style="fill:#EBEBEB;" width="9.424" height="18.044"/>
						<rect x="417.363" y="313.522" style="fill:#EBEBEB;" width="9.424" height="6.916"/>
						<rect x="435.862" y="295.574" style="fill:#E6E6E6;" width="9.424" height="24.864"/>
					</g>
					<g>
						<rect x="54.715" y="289.197" style="fill:#EBEBEB;" width="68.517" height="8.389"/>
						<rect x="54.715" y="301.11" style="fill:#E0E0E0;" width="93.014" height="8.389"/>
						<rect x="54.715" y="312.908" style="fill:#EBEBEB;" width="27.127" height="8.389"/>
					</g>
				</g>
			</g>
			<text transform="matrix(1 0 0 1 299.9791 137.6814)" style="fill:#E0E0E0; font-family:'Montserrat-Bold'; font-size:12px;">23 MILES</text>
		</g>
	</g>
</g>
<g id="Background_Simple" style="display:none;">
	<g style="display:inline;">
		<path style="fill:#407BFF;" d="M280.259,127.243c-19.547,8.463-39.011,21.557-45.907,41.709c-2.62,7.657-3.291,16.012-7.067,23.17
			c-3.621,6.864-9.776,12.006-16.028,16.603c-16.659,12.248-35.165,21.98-54.698,28.764c-12.255,4.257-24.927,7.368-36.844,12.496
			c-11.917,5.128-23.296,12.57-30.322,23.477c-5.158,8.007-7.546,18.9-2.405,26.917c5.176,8.072,15.796,10.364,25.329,11.408
			c30.508,3.34,61.32,1.17,91.933-1.002c24.699-1.753,49.631-3.547,73.36-10.621c27.987-8.343,53.27-23.715,78.199-38.927
			c10.383-6.336,21.859-14.3,23.259-26.383c1.478-12.753-9.137-24.017-9.916-36.832c-0.589-9.697,4.563-18.846,10.722-26.359
			c6.159-7.513,13.511-14.098,18.692-22.317c5.181-8.218,7.935-18.857,3.855-27.673c-7.595-16.416-37.51-11.6-51.723-10.871
			C326.491,112.046,302.505,117.611,280.259,127.243z"/>
		<path style="opacity:0.9;fill:#FFFFFF;" d="M280.259,127.243c-19.547,8.463-39.011,21.557-45.907,41.709
			c-2.62,7.657-3.291,16.012-7.067,23.17c-3.621,6.864-9.776,12.006-16.028,16.603c-16.659,12.248-35.165,21.98-54.698,28.764
			c-12.255,4.257-24.927,7.368-36.844,12.496c-11.917,5.128-23.296,12.57-30.322,23.477c-5.158,8.007-7.546,18.9-2.405,26.917
			c5.176,8.072,15.796,10.364,25.329,11.408c30.508,3.34,61.32,1.17,91.933-1.002c24.699-1.753,49.631-3.547,73.36-10.621
			c27.987-8.343,53.27-23.715,78.199-38.927c10.383-6.336,21.859-14.3,23.259-26.383c1.478-12.753-9.137-24.017-9.916-36.832
			c-0.589-9.697,4.563-18.846,10.722-26.359c6.159-7.513,13.511-14.098,18.692-22.317c5.181-8.218,7.935-18.857,3.855-27.673
			c-7.595-16.416-37.51-11.6-51.723-10.871C326.491,112.046,302.505,117.611,280.259,127.243z"/>
	</g>
</g>
<g id="Shadow">
	<ellipse id="_x3C_Path_x3E__359_" style="fill:#F5F5F5;" cx="250" cy="415.693" rx="193.889" ry="11.323"/>
</g>
<g id="Route">
	<g>
		<g>
			<g>
				<g>
					<polygon style="fill:#407BFF;" points="342.556,165.568 316.102,165.568 289.648,192.022 239.898,216.897 187.779,216.897 
						136.45,268.226 99.457,268.226 99.457,277.096 140.124,277.096 191.453,225.767 241.992,225.767 294.901,199.31 
						319.776,174.438 344.65,174.438 381.687,155.918 381.687,146.001 					"/>
				</g>
			</g>
			<g>
				<g>
					<g>
						<path style="fill:#407BFF;" d="M99.147,230.204c-4.995,0-9.043,4.048-9.043,9.033c0,3.178,3.661,9.671,6.328,13.96
							c1.517,2.454,2.715,4.193,2.715,4.193s1.198-1.739,2.705-4.193c2.666-4.289,6.328-10.782,6.328-13.96
							C108.18,234.252,104.133,230.204,99.147,230.204z M99.147,243.691c-2.28,0-4.116-1.836-4.116-4.116
							c0-2.27,1.836-4.115,4.116-4.115c2.27,0,4.116,1.845,4.116,4.115C103.263,241.855,101.418,243.691,99.147,243.691z"/>
					</g>
				</g>
			</g>
			<g style="opacity:0.5;">
				<g>
					<g>
						<polygon style="fill:#FFFFFF;" points="342.556,165.568 316.102,165.568 289.648,192.022 239.898,216.897 187.779,216.897 
							136.45,268.226 99.457,268.226 99.457,277.096 140.124,277.096 191.453,225.767 241.992,225.767 294.901,199.31 
							319.776,174.438 344.65,174.438 381.687,155.918 381.687,146.001 						"/>
					</g>
				</g>
				<g>
					<g>
						<g>
							<path style="fill:#FFFFFF;" d="M99.147,230.204c-4.995,0-9.043,4.048-9.043,9.033c0,3.178,3.661,9.671,6.328,13.96
								c1.517,2.454,2.715,4.193,2.715,4.193s1.198-1.739,2.705-4.193c2.666-4.289,6.328-10.782,6.328-13.96
								C108.18,234.252,104.133,230.204,99.147,230.204z M99.147,243.691c-2.28,0-4.116-1.836-4.116-4.116
								c0-2.27,1.836-4.115,4.116-4.115c2.27,0,4.116,1.845,4.116,4.115C103.263,241.855,101.418,243.691,99.147,243.691z"/>
						</g>
					</g>
				</g>
			</g>
		</g>
		<g>
			<g>
				<g>
					<path style="fill:#407BFF;" d="M381.693,103.506c-6.359,0-11.513,5.154-11.513,11.501c0,4.047,4.662,12.313,8.057,17.774
						c1.931,3.124,3.456,5.338,3.456,5.338s1.525-2.214,3.444-5.338c3.395-5.461,8.057-13.727,8.057-17.774
						C393.194,108.66,388.04,103.506,381.693,103.506z M381.693,120.677c-2.903,0-5.24-2.337-5.24-5.24
						c0-2.891,2.337-5.24,5.24-5.24c2.891,0,5.24,2.349,5.24,5.24C386.933,118.34,384.584,120.677,381.693,120.677z"/>
				</g>
			</g>
			<g style="opacity:0.5;">
				<g>
					<path style="fill:#FFFFFF;" d="M381.693,103.506c-6.359,0-11.513,5.154-11.513,11.501c0,4.047,4.662,12.313,8.057,17.774
						c1.931,3.124,3.456,5.338,3.456,5.338s1.525-2.214,3.444-5.338c3.395-5.461,8.057-13.727,8.057-17.774
						C393.194,108.66,388.04,103.506,381.693,103.506z M381.693,120.677c-2.903,0-5.24-2.337-5.24-5.24
						c0-2.891,2.337-5.24,5.24-5.24c2.891,0,5.24,2.349,5.24,5.24C386.933,118.34,384.584,120.677,381.693,120.677z"/>
				</g>
			</g>
		</g>
	</g>
</g>
<g id="Distance">
	<g>
		<g>
			<path style="fill:#407BFF;" d="M166.481,104.713c-0.741-0.536-1.84-0.381-2.457,0.348l-2.475,3.689l-11.878-7.199
				c-0.743-0.451-1.764-0.268-2.347,0.419l-4.094,5.249c-0.617,0.727-0.518,1.752,0.222,2.289c0.739,0.536,1.839,0.382,2.458-0.346
				l3.062-4.033l2.575,1.561l-5.493,7.097l0.05,0.007l-9.595,12.298c-0.585,0.75-0.439,1.767,0.327,2.272
				c0.284,0.187,0.614,0.278,0.946,0.279c0.562,0.002,1.132-0.251,1.499-0.722l8.297-10.635l0,0l0,0l0.238-0.304
				c0.399-0.459,1.268-1.209,2.302-0.54c0,0,0,0,0,0l2.363,1.529l-6.339,3.59c-0.846,0.479-1.158,1.489-0.697,2.255
				c0.461,0.768,1.521,1,2.366,0.521l8.722-4.939c0.521-0.295,0.863-0.81,0.906-1.367c0.043-0.557-0.218-1.079-0.693-1.386
				l-2.132-1.379l3.383-4.665l2.853,1.729c0.273,0.165,0.583,0.245,0.894,0.246c0.539,0.002,1.085-0.231,1.454-0.667l3.506-4.907
				C167.321,106.274,167.221,105.249,166.481,104.713z"/>
			<path style="fill:#407BFF;" d="M158.699,105.48c1.887,0.007,3.516-1.425,3.637-3.2c0.121-1.775-1.311-3.219-3.199-3.227
				c-1.887-0.007-3.516,1.425-3.637,3.2C155.379,104.028,156.812,105.472,158.699,105.48z"/>
		</g>
		<g>
			<path style="fill:#407BFF;" d="M147.204,139.345v1.583h-6.344v-1.259l3.238-3.058c0.744-0.708,0.875-1.14,0.875-1.547
				c0-0.66-0.456-1.044-1.343-1.044c-0.72,0-1.332,0.276-1.739,0.839l-1.415-0.911c0.647-0.948,1.823-1.559,3.334-1.559
				c1.871,0,3.118,0.959,3.118,2.482c0,0.815-0.228,1.559-1.403,2.65l-1.931,1.823H147.204z"/>
			<path style="fill:#407BFF;" d="M147.988,136.73c0-2.77,1.535-4.341,3.598-4.341c2.075,0,3.598,1.571,3.598,4.341
				c0,2.771-1.523,4.342-3.598,4.342C149.523,141.072,147.988,139.501,147.988,136.73z M153.229,136.73
				c0-1.907-0.672-2.698-1.643-2.698c-0.959,0-1.631,0.792-1.631,2.698c0,1.907,0.672,2.699,1.631,2.699
				C152.557,139.429,153.229,138.637,153.229,136.73z"/>
		</g>
	</g>
</g>
<g id="Yime">
	<g>
		<g>
			<path style="fill:#407BFF;" d="M305.793,95.472c0-2.771,1.535-4.342,3.598-4.342c2.075,0,3.598,1.571,3.598,4.342
				s-1.523,4.341-3.598,4.341C307.328,99.813,305.793,98.242,305.793,95.472z M311.034,95.472c0-1.907-0.672-2.699-1.643-2.699
				c-0.96,0-1.631,0.792-1.631,2.699c0,1.906,0.672,2.698,1.631,2.698C310.362,98.17,311.034,97.378,311.034,95.472z"/>
			<path style="fill:#407BFF;" d="M320.873,97.019c0,1.715-1.403,2.794-3.178,2.794c-2.315,0-3.754-1.451-3.754-4.161
				c0-2.902,1.751-4.521,4.282-4.521c0.887,0,1.751,0.204,2.338,0.575l-0.719,1.428c-0.468-0.313-1.008-0.42-1.571-0.42
				c-1.403,0-2.303,0.827-2.363,2.435c0.492-0.492,1.199-0.743,2.075-0.743C319.602,94.404,320.873,95.436,320.873,97.019z
				 M318.99,97.114c0-0.768-0.564-1.259-1.427-1.259c-0.852,0-1.451,0.527-1.451,1.259c0,0.72,0.54,1.247,1.475,1.247
				C318.415,98.361,318.99,97.882,318.99,97.114z"/>
			<path style="fill:#407BFF;" d="M321.645,98.59c0-0.696,0.516-1.151,1.164-1.151c0.647,0,1.163,0.455,1.163,1.151
				c0,0.684-0.516,1.175-1.163,1.175C322.16,99.765,321.645,99.273,321.645,98.59z"/>
			<path style="fill:#407BFF;" d="M331.241,98.086v1.583h-6.344v-1.26l3.238-3.058c0.744-0.708,0.876-1.14,0.876-1.548
				c0-0.659-0.456-1.043-1.344-1.043c-0.719,0-1.331,0.275-1.739,0.84l-1.415-0.912c0.647-0.947,1.823-1.559,3.334-1.559
				c1.871,0,3.118,0.959,3.118,2.482c0,0.815-0.228,1.56-1.403,2.65l-1.931,1.823H331.241z"/>
			<path style="fill:#407BFF;" d="M338.249,97.103c0,1.415-1.091,2.71-3.478,2.71c-1.176,0-2.387-0.323-3.203-0.899l0.756-1.487
				c0.636,0.481,1.523,0.756,2.398,0.756c0.972,0,1.571-0.396,1.571-1.079c0-0.636-0.468-1.031-1.571-1.031h-0.887v-1.283
				l1.727-1.955h-3.574v-1.56h5.877v1.26l-1.895,2.158C337.481,94.932,338.249,95.867,338.249,97.103z"/>
			<path style="fill:#407BFF;" d="M339.092,98.59c0-0.696,0.516-1.151,1.164-1.151c0.647,0,1.163,0.455,1.163,1.151
				c0,0.684-0.516,1.175-1.163,1.175C339.608,99.765,339.092,99.273,339.092,98.59z"/>
			<path style="fill:#407BFF;" d="M345.343,91.273v8.396H343.4v-6.836h-1.679v-1.56H345.343z"/>
			<path style="fill:#407BFF;" d="M353.837,97.234c0,1.583-1.416,2.578-3.55,2.578c-2.123,0-3.526-0.995-3.526-2.578
				c0-0.899,0.468-1.571,1.271-1.979c-0.624-0.383-0.971-0.971-0.971-1.727c0-1.476,1.319-2.398,3.226-2.398
				c1.931,0,3.25,0.923,3.25,2.398c0,0.756-0.359,1.344-0.983,1.727C353.369,95.663,353.837,96.335,353.837,97.234z M351.87,97.175
				c0-0.744-0.611-1.2-1.583-1.2c-0.96,0-1.559,0.456-1.559,1.2c0,0.743,0.6,1.211,1.559,1.211
				C351.258,98.386,351.87,97.918,351.87,97.175z M348.991,93.612c0,0.636,0.504,1.031,1.295,1.031c0.804,0,1.319-0.396,1.319-1.031
				c0-0.66-0.528-1.056-1.319-1.056C349.507,92.557,348.991,92.952,348.991,93.612z"/>
		</g>
		<g>
			<g>
				<g>
					<g>
						<path style="fill:#407BFF;" d="M289.536,102.598c-0.23,0-0.459-0.094-0.625-0.279l-5.997-6.685
							c-0.31-0.345-0.281-0.875,0.064-1.184c0.345-0.311,0.876-0.28,1.184,0.064l5.997,6.685c0.31,0.345,0.281,0.875-0.064,1.184
							C289.936,102.527,289.736,102.598,289.536,102.598z"/>
					</g>
				</g>
				<path style="fill:#407BFF;" d="M284.811,82.424v-1.069h-3.423v1.144c-6.634,0.955-11.85,6.662-11.755,13.555
					c0.106,7.65,6.273,13.815,13.712,13.712c7.559-0.105,13.711-6.151,13.711-13.712C297.057,88.99,291.684,83.159,284.811,82.424z
					 M283.345,108.089c-6.636,0-12.035-5.398-12.035-12.034c0-6.636,5.399-12.034,12.035-12.034c6.635,0,12.034,5.398,12.034,12.034
					C295.379,102.691,289.981,108.089,283.345,108.089z"/>
				<g>
					<rect x="280.82" y="78.588" style="fill:#407BFF;" width="4.559" height="2.316"/>
				</g>
				<g style="opacity:0.6;">
					<g>
						<g>
							<path style="fill:#407BFF;" d="M289.536,102.598c-0.23,0-0.459-0.094-0.625-0.279l-5.997-6.685
								c-0.31-0.345-0.281-0.875,0.064-1.184c0.345-0.311,0.876-0.28,1.184,0.064l5.997,6.685c0.31,0.345,0.281,0.875-0.064,1.184
								C289.936,102.527,289.736,102.598,289.536,102.598z"/>
						</g>
					</g>
					<path style="fill:#407BFF;" d="M284.811,82.424v-1.069h-3.423v1.144c-6.634,0.955-11.85,6.662-11.755,13.555
						c0.106,7.65,6.273,13.815,13.712,13.712c7.559-0.105,13.711-6.151,13.711-13.712C297.057,88.99,291.684,83.159,284.811,82.424z
						 M283.345,108.089c-6.636,0-12.035-5.398-12.035-12.034c0-6.636,5.399-12.034,12.035-12.034
						c6.635,0,12.034,5.398,12.034,12.034C295.379,102.691,289.981,108.089,283.345,108.089z"/>
					<g>
						<rect x="280.82" y="78.588" style="fill:#407BFF;" width="4.559" height="2.316"/>
					</g>
				</g>
			</g>
		</g>
	</g>
</g>
<g id="Heart_rate">
	<g>
		<g>
			<g>
				<g>
					<path style="fill:#407BFF;" d="M350.062,247.49h5.06c-4.31,4.49-10.52,8.92-16.42,13.4l-4.01,2.94
						c-0.02,0.02-0.06,0.04-0.09,0.06l-3.9-3.26c-4.98-4.31-10.23-8.81-13.94-13.28h7.51l3.29-11.29l4.91,21.64l4.57-11.08
						l2.85,6.18l3.36-10.82l3.74,10.56L350.062,247.49z"/>
					<path style="fill:#407BFF;" d="M356.192,245.13h-6.79l-2.13,3.51l-4.09-11.55l-3.5,11.28l-2.7-5.86l-4.19,10.15l-5.1-22.43
						l-4.29,14.76h-7.58c-4.65-6.01-6.21-11.92-0.2-17.17c7.52-6.58,16.23-0.45,20.64,3.53c4.65-3.69,14.856-11.243,22.69-1.42
						C362.887,234.863,360.522,240.23,356.192,245.13z"/>
				</g>
			</g>
			<g>
				<path style="fill:#407BFF;" d="M328.989,211.501v8.395h-1.943v-6.836h-1.679v-1.56H328.989z"/>
				<path style="fill:#407BFF;" d="M336.728,218.313v1.583h-6.344v-1.26l3.238-3.058c0.744-0.708,0.876-1.14,0.876-1.548
					c0-0.659-0.456-1.043-1.343-1.043c-0.72,0-1.332,0.275-1.739,0.84L330,212.915c0.647-0.947,1.823-1.559,3.334-1.559
					c1.871,0,3.118,0.959,3.118,2.482c0,0.815-0.228,1.559-1.403,2.65l-1.931,1.823H336.728z"/>
				<path style="fill:#407BFF;" d="M343.879,217.257c0,1.487-1.092,2.782-3.49,2.782c-1.164,0-2.387-0.323-3.202-0.899l0.768-1.487
					c0.635,0.48,1.511,0.756,2.387,0.756c0.971,0,1.571-0.407,1.571-1.091c0-0.66-0.432-1.092-1.955-1.092h-2.147l0.432-4.726h5.121
					v1.56h-3.502l-0.132,1.595h0.684C342.896,214.655,343.879,215.77,343.879,217.257z"/>
			</g>
		</g>
	</g>
</g>
<g id="Character">
	<g>
		<g>
			<g>
				<g>
					<g>
						<g>
							<rect x="176.208" y="189.804" style="fill:#407BFF;" width="7.235" height="0.75"/>
						</g>
						<g>
							<rect x="188.974" y="189.804" style="fill:#407BFF;" width="18.672" height="0.75"/>
						</g>
					</g>
					<g>
						<g>
							<g>
								<path style="fill:#407BFF;" d="M186.093,330.288c-2.483,0-4.956-0.004-7.419-0.013l0.003-0.75
									c12.401,0.045,25.096-0.023,37.723-0.196l0.011,0.75C206.286,330.218,196.119,330.288,186.093,330.288z"/>
							</g>
							<g>
								<path style="fill:#407BFF;" d="M172.568,330.245c-5.33-0.034-10.777-0.09-16.19-0.166l0.011-0.75
									c5.411,0.076,10.856,0.132,16.184,0.166L172.568,330.245z"/>
							</g>
							<g>
								<rect x="144.878" y="329.329" style="fill:#407BFF;" width="6.064" height="0.75"/>
							</g>
						</g>
						<g>
							<g>
								<rect x="196.903" y="165.2" style="fill:#407BFF;" width="24.029" height="0.75"/>
							</g>
							<g>
								<rect x="189.702" y="165.2" style="fill:#407BFF;" width="3.097" height="0.75"/>
							</g>
						</g>
						<g>
							<g>
								<rect x="291.335" y="341.387" style="fill:#407BFF;" width="17.288" height="0.75"/>
							</g>
							<g>
								<rect x="277.186" y="341.387" style="fill:#407BFF;" width="9.743" height="0.75"/>
							</g>
						</g>
					</g>
				</g>
				<g>
					<g>
						<g>
							<g>
								<g>
									<g>
										<g>
											<path style="fill:#E29471;" d="M256.138,183.595c-13.998,1.234-33.247,7.405-32.799,10.558l-20.14,25.067l-6.311,2.343
												c0,0,13.209-32.69,16.647-38.062c2.4-3.75,25.552-11.462,37.664-15.805c5.229-1.875,9.959,1.69,11.521,4.718
												C262.719,172.414,267.737,182.572,256.138,183.595z"/>
										</g>
										<path style="fill:#E29471;" d="M203.198,219.219l-0.458,5.456c-0.142,1.689-0.934,3.258-2.209,4.376l-4.888,4.285
											c-0.587,0.515-1.463,0.522-2.059,0.017l-3.326-2.819c-0.609-0.516-0.736-1.405-0.296-2.071l3.732-5.653l4.492-5.982
											C198.187,216.827,203.374,217.121,203.198,219.219z"/>
									</g>
								</g>
							</g>
						</g>
						<g>
							<g>
								<g>
									<path style="fill:#E29471;" d="M180.644,363.927l-27.911,10.943c-0.812-0.701-5.562-10.089-5.562-10.089l24.749-11.428
										L180.644,363.927z"/>
									<g>
										<path style="fill:#407BFF;" d="M153.638,377.463c-0.028-0.122,0.019-0.25,0.119-0.326c0.106-0.069,0.242-0.069,0.348,0
											c0.178,0.121,4.375,2.944,4.79,5.08c0.1,0.399,0.029,0.821-0.195,1.165c-0.218,0.427-0.684,0.667-1.157,0.596
											c-0.863-0.105-1.757-1.406-2.464-2.867C154.484,379.943,154.002,378.721,153.638,377.463z M158.148,381.811
											c-0.963-1.443-2.199-2.683-3.638-3.653c0.743,2.228,2.176,5.083,3.168,5.252c0.133,0.01,0.322-0.003,0.563-0.36
											c0.134-0.208,0.177-0.461,0.12-0.701c-0.049-0.19-0.115-0.374-0.2-0.551L158.148,381.811z"/>
										<path style="fill:#407BFF;" d="M153.693,377.266c0.032-0.104,0.121-0.181,0.229-0.197
											c0.138-0.043,3.312-1.251,5.217-0.396c0.536,0.264,0.941,0.735,1.121,1.304c0.29,0.772-0.007,1.152-0.265,1.374
											c-1.163,0.85-4.938-0.641-6.224-1.704c-0.025-0.029-0.086-0.1-0.086-0.1L153.693,377.266z M158.855,377.241
											c-1.394-0.363-2.867-0.283-4.213,0.231c1.535,0.974,4.412,1.915,5.057,1.361c0.057-0.049,0.227-0.17,0.05-0.666
											l-0.123-0.143C159.477,377.674,159.202,377.395,158.855,377.241z"/>
										<path style="fill:#407BFF;" d="M154.867,374.687l-1.737-1.507c-1.939-1.682-3.06-4.118-3.077-6.685l-0.02-3.004
											c-0.208-0.473-0.723-0.731-1.227-0.616l-10.216,1.809c-1.013,0.25-1.317,2.507-1.27,2.611
											c2.29,7.13,8.347,21.976,10.543,26.793c2.196,4.817,7.245,3.269,6.779,1.102c-2.094-9.715-0.945-14.266,0.306-18.232
											C155.212,376.219,155.183,375.406,154.867,374.687z"/>
									</g>
									<g style="opacity:0.2;">
										<path d="M163.262,357.351l8.658-3.998l8.724,10.574l-12.771,5.007l-2.065-2.512c-1.239-1.506-1.999-3.348-2.185-5.289
											L163.262,357.351z"/>
									</g>
								</g>
								<g>
									<path style="fill:#263238;" d="M213.46,256.227c-1.045,2.663-1.355,3.522-1.905,6.338
										c-2.245,11.476-5.363,50.384-7.392,65.179c-0.434,3.166-2.633,5.378-5.333,6.649c-8.072,3.8-13.313,4.961-31.512,19.896
										c2.196,4.661,4.283,7.945,6.277,13.413c0,0,35.073-13.483,43.093-20.081c11.813-9.719,26.189-60.799,30.371-73.987
										c2.374-7.487,5.111-16.439,0.738-22.896C245.343,247.115,221.364,236.09,213.46,256.227z"/>
								</g>
								<g>
									<g>
										<path style="fill:#407BFF;" d="M258.992,169.819c2.652,2.975,3.889,5.002,3.083,13.758
											c-1.564,16.996-0.524,44.062-1.124,48.236c-0.913,6.353-36.453,7.155-42.924,1.326l-12.893-52.012
											c-1.769-7.136,2.999-14.242,10.271-15.322C218.332,165.371,250.941,160.789,258.992,169.819z"/>
									</g>
								</g>
								<path style="fill:#263238;" d="M260.952,231.814L260.952,231.814c0.998,5.771,1.229,11.628,0.703,17.421
									c-0.912,10.032,2.14,20.022,8.315,27.981v0c0,0-46.372-6.743-57.354-18.763l5.413-25.312
									C218.028,233.14,236.802,235.574,260.952,231.814z"/>
								<g>
									<path style="fill:#263238;" d="M228.778,152.71c-0.255-0.206-0.5-0.412-0.755-0.618c-0.02-0.01-0.02-0.01-0.02-0.02
										c-2.227-2.815-3.08-6.023-4.032-11.006c-0.255-1.285-0.501-2.678-0.785-4.218c-0.402-2.04-0.334-4.149,0.206-6.16
										c0.294-1.079,0.706-2.099,1.216-3.031c1.187,4.444,1.363,9.054,1.776,13.606
										C226.748,145.177,227.277,149.032,228.778,152.71z"/>
									<g>
										<path style="fill:#E29471;" d="M229.773,147.355c0.56,5.112,0.951,12.282-1.816,16.348
											c-0.964,1.417-1.078,3.252-0.131,4.681c1.631,2.462,5.374,6.177,13.962,10.444c2.532-3.12,3.447-5.658,3.626-7.588
											c0.208-2.258-1.146-4.337-3.166-5.287c-4.139-1.946-3.688-4.424-2.408-8.287L229.773,147.355z"/>
										<path style="opacity:0.2;enable-background:new    ;" d="M233.859,151.51l5.91,6.149c-0.357,1.017-0.624,2.064-0.797,3.13
											c-2.396-0.552-6.016-2.96-6.318-5.678C232.757,153.827,233.171,152.59,233.859,151.51z"/>
										<path style="fill:#E29471;" d="M251.458,147.247c-0.726,6.641-5.945,10.791-11.762,10.889h-0.078
											c-2.178,0.02-4.434-0.52-6.563-1.717c-0.726-0.402-1.422-0.873-2.109-1.422c-0.275-0.216-0.54-0.441-0.785-0.657
											c-0.834-0.736-1.54-1.481-2.139-2.246c-0.02-0.01-0.02-0.01-0.02-0.02c-2.227-2.815-3.08-6.023-4.032-11.006
											c-0.255-1.285-0.501-2.678-0.785-4.218c-0.402-2.04-0.334-4.149,0.206-6.16c0.294-1.079,0.706-2.099,1.216-3.031
											c0.236-0.432,0.49-0.834,0.775-1.226c3.1-4.444,8.681-6.661,14.145-5.14c4.463,1.187,7.534,4.807,9.466,9.25
											c0.196,0.441,0.373,0.893,0.54,1.344C251.419,136.917,251.939,142.744,251.458,147.247z"/>
										<path style="fill:#263238;" d="M238.707,137.454c0.105,0.79,0.596,1.382,1.098,1.324c0.502-0.058,0.844-0.767,0.753-1.556
											c-0.091-0.789-0.596-1.382-1.098-1.324C238.958,135.957,238.656,136.698,238.707,137.454z"/>
										<path style="fill:#263238;" d="M247.485,136.353c0.104,0.805,0.596,1.382,1.098,1.324
											c0.501-0.058,0.844-0.767,0.753-1.556c-0.091-0.789-0.596-1.382-1.099-1.31
											C247.733,134.884,247.393,135.564,247.485,136.353z"/>
										<path style="fill:#EA573F;" d="M244.954,138.134c0.918,1.719,2.063,3.302,3.402,4.704
											c-0.737,0.68-1.726,1.002-2.713,0.882L244.954,138.134z"/>
										<path style="fill:#263238;" d="M234.957,136.106c0.201,0.011,0.385-0.115,0.451-0.309c0.69-1.374,1.911-2.392,3.368-2.809
											c0.248-0.067,0.396-0.326,0.331-0.579c-0.064-0.246-0.311-0.393-0.553-0.328c-0.006,0.001-0.011,0.003-0.016,0.005
											c-1.756,0.488-3.216,1.731-3.999,3.406c-0.083,0.241,0.042,0.504,0.278,0.588c0,0,0,0,0,0
											C234.861,136.102,234.909,136.111,234.957,136.106z"/>
										<path style="fill:#263238;" d="M249.612,131.89c0.168,0.004,0.325-0.081,0.416-0.225c0.133-0.221,0.068-0.509-0.145-0.649
											c-1.243-0.861-2.826-1.034-4.22-0.462c-0.224,0.095-0.329,0.357-0.236,0.584c0.005,0.011,0.01,0.023,0.015,0.033
											c0.104,0.232,0.372,0.334,0.6,0.228c0.002-0.001,0.004-0.002,0.006-0.003l0,0c1.102-0.407,2.329-0.253,3.302,0.413
											C249.426,131.864,249.518,131.892,249.612,131.89z"/>
									</g>
								</g>
								<path style="opacity:0.2;enable-background:new    ;" d="M228.778,143.745c-0.41,0.538-1.727-2.345-2.393-2.482
									c-0.795-0.167-1.609-0.235-2.413-0.196c-0.255-1.285-0.501-2.678-0.785-4.218c-0.402-2.04-0.334-4.149,0.206-6.16
									c0.294-1.079,0.706-2.099,1.216-3.031c-0.059-0.245-0.127-0.5-0.206-0.745h0.01c0.304-0.186,0.638-0.353,0.971-0.481
									c0.775-0.294,1.609-0.402,2.423-0.255c1.315,0.255,2.168,1.207,2.727,2.335C227.172,134.805,230.05,142.079,228.778,143.745
									z"/>
								<g>
									<path style="fill:#263238;" d="M228.003,152.073c-3.718-3.139-6.994-6.994-8.485-11.664
										c-1.599-4.983,0.147-11.429,3.953-14.961c0.304-0.285,0.795-0.156,1.178,0.001c0.294,0.128-0.549,0.481-0.442,0.804
										c0.069,0.216,0.137,0.441,0.196,0.657c0.079,0.245,0.147,0.5,0.206,0.745c-0.51,0.932-0.922,1.952-1.216,3.031
										c-0.54,2.011-0.608,4.12-0.206,6.16c0.284,1.54,0.53,2.933,0.785,4.218C224.923,146.05,225.777,149.258,228.003,152.073z"
										/>
								</g>
								<path style="fill:#E29471;" d="M221.507,144.665c0.814,1.666,2.239,2.937,3.967,3.537c2.308,0.762,3.572-1.315,3.022-3.605
									c-0.512-2.055-2.319-4.93-4.677-4.741c-1.708,0.193-2.94,1.761-2.751,3.502
									C221.118,143.821,221.268,144.267,221.507,144.665z"/>
								<g>
									<path style="fill:#E29471;" d="M330.26,377.919l2.309,29.891c-0.908,0.572-10.878,5.224-11.274,2.371
										c-1.209-8.71-3.697-27.008-3.697-27.008L330.26,377.919z"/>
									<g>
										<path style="fill:#407BFF;" d="M335.313,407.702c-0.125-0.009-0.233-0.091-0.277-0.209
											c-0.035-0.121,0.005-0.252,0.101-0.333c0.168-0.135,4.094-3.323,6.258-3.096c0.41,0.021,0.793,0.212,1.057,0.527
											c0.344,0.333,0.438,0.849,0.232,1.281c-0.353,0.795-1.858,1.269-3.462,1.519
											C337.932,407.618,336.623,407.722,335.313,407.702z M340.789,404.66c-1.661,0.5-3.209,1.319-4.556,2.411
											c2.348-0.06,5.498-0.595,5.949-1.495c0.049-0.125,0.092-0.309-0.179-0.644c-0.159-0.189-0.389-0.304-0.635-0.32
											c-0.196-0.009-0.392,0.001-0.586,0.03L340.789,404.66z"/>
										<path style="fill:#407BFF;" d="M335.141,407.592c-0.09-0.061-0.138-0.169-0.121-0.277
											c-0.001-0.144-0.229-3.532,1.146-5.105c0.409-0.435,0.978-0.685,1.575-0.691c0.823-0.052,1.1,0.343,1.237,0.655
											c0.473,1.361-2.056,4.535-3.448,5.455c-0.035,0.015-0.121,0.053-0.121,0.053L335.141,407.592z M336.625,402.648
											c-0.755,1.227-1.108,2.659-1.01,4.096c1.38-1.183,3.121-3.66,2.779-4.439c-0.03-0.069-0.097-0.267-0.623-0.243
											l-0.173,0.076C337.222,402.18,336.874,402.362,336.625,402.648z"/>
										<path style="fill:#407BFF;" d="M333.017,405.716l-12.12,1.351c-0.513,0.061-0.91,0.478-0.947,0.993l-1.255,10.298
											c-0.057,1.042,2.013,1.992,2.126,1.977c7.488-0.107,23.456-1.561,28.704-2.254c5.249-0.692,5.243-5.974,3.035-6.161
											c-9.903-0.837-13.919-3.265-17.347-5.621C334.583,405.833,333.797,405.624,333.017,405.716z"/>
									</g>
									<g style="opacity:0.2;">
										<polygon points="318.836,392.219 317.598,383.172 330.26,377.919 331.058,390.162 										"/>
									</g>
								</g>
								<path style="fill:#263238;" d="M241.061,266.348c6.355,11.237,37.278,37.434,52.194,59.82
									c4.079,6.122,13.901,48.275,23.359,60.209l14.978-1.372c5.427-10.562-7.396-65.168-7.396-65.168
									c-4.507-23.955-31.255-50.693-60.749-77.742c-4.942-4.533-12.305-5.904-19.719-1.492
									C242.374,241.403,234.896,255.445,241.061,266.348z"/>
							</g>
							<g>
								<path style="fill:#407BFF;" d="M247.746,248.787c-1.174,0.271-2.409-0.471-3.306-1.992c-0.938-1.588-1.472-3.41-1.557-5.252
									l-3.271,4.24c-0.608,0.787-1.367,1.582-2.408,1.469c-0.496-0.054-0.921-0.307-1.232-0.733
									c-0.459-0.63-0.634-1.618-0.447-2.519c0.32-1.544,1.329-2.963,2.768-3.894c1.428-0.924,3.121-1.264,4.651-0.937
									l-0.122-0.426l0.944-0.269l0.066,0.232l0.217-0.281l-0.039,0.424c1.528-0.372,3.166,0.387,4.102,1.475
									c0.941,1.092,1.482,2.646,1.606,4.616c0.096,1.53-0.356,3.456-1.948,3.841C247.763,248.783,247.754,248.785,247.746,248.787
									z M243.913,239.91l-0.018,0.197c-0.196,2.141,0.297,4.339,1.39,6.19c0.519,0.879,1.334,1.74,2.254,1.531
									c1.072-0.259,1.259-1.899,1.201-2.827c-0.111-1.751-0.572-3.109-1.37-4.037c-0.643-0.745-1.746-1.319-2.801-1.215
									l-0.643,0.156C243.921,239.907,243.917,239.908,243.913,239.91z M240.627,240.161c-0.623,0.144-1.235,0.403-1.801,0.769
									c-1.22,0.789-2.074,1.981-2.341,3.269c-0.129,0.623-0.014,1.339,0.279,1.743c0.147,0.202,0.325,0.311,0.544,0.335
									c0.559,0.064,1.085-0.518,1.527-1.092l3.837-4.973l-0.185,0.046l-0.045-0.18C241.851,239.99,241.234,240.02,240.627,240.161
									z"/>
							</g>
							<g>
								<path style="fill:#407BFF;" d="M236.14,262.319l-0.832-0.52c4.092-6.551,6.449-14.092,6.818-21.807l0.98,0.047
									C242.73,247.921,240.321,255.625,236.14,262.319z"/>
							</g>
							<g>
								<path style="fill:#407BFF;" d="M255.561,262.129l-0.973,0.119c-1.001-8.254-5.196-16.092-11.509-21.503l0.638-0.745
									C250.214,245.57,254.531,253.636,255.561,262.129z"/>
							</g>
							<g>
								<path style="fill:#FFFFFF;" d="M169.032,357.744l-0.454-0.87c11.027-5.758,39.646-22.03,39.646-28.095
									c0-12.484,12.216-94.585,12.339-95.413l0.97,0.144c-0.124,0.828-12.329,82.857-12.329,95.269
									C209.205,336.677,170.673,356.887,169.032,357.744z"/>
							</g>
						</g>
					</g>
					<g>
						<g>
							<g>
								<g>
									<g>
										<path style="fill:#E29471;" d="M207.574,172.663c1.313-3.961,9.585-4.767,12.196-1.599
											c11.248,13.645,23.743,26.345,23.743,26.345l31.347-6.489l5.09,4.407c0,0-32.371,16.215-38.749,16.223
											c-6.839,0.008-23.324-15.893-31.969-25.424C203.572,179.885,207.574,172.663,207.574,172.663z"/>
									</g>
									<path style="fill:#E29471;" d="M274.861,190.92l5.004-2.221c1.55-0.688,3.306-0.748,4.899-0.168l6.108,2.225
										c0.734,0.267,1.161,1.032,1.005,1.797l-0.872,4.272c-0.16,0.782-0.879,1.321-1.674,1.256l-6.752-0.554l-7.405-1.062
										C275.174,196.464,272.936,191.774,274.861,190.92z"/>
								</g>
							</g>
						</g>
						<g>
							<polygon style="fill:#263238;" points="277.901,197.959 275.691,199.551 271.813,191.321 274.235,190.179 							"/>
							<path style="fill:#263238;" d="M276.018,190.331l-5.42,2.554l-0.321-0.68c-0.231-0.49-0.021-1.075,0.469-1.306l3.645-1.717
								c0.49-0.231,1.075-0.021,1.306,0.469L276.018,190.331z"/>
						</g>
					</g>
				</g>
			</g>
			<path style="fill:#263238;" d="M220.774,135.999c1.131-3.803,4.731-6.385,8.456-7.752c3.724-1.367,7.726-1.807,11.509-3.001
				c2.515-0.793,5.272-2.376,5.521-5.001c0.153-1.612-0.752-3.179-1.982-4.232c-1.23-1.053-2.756-1.685-4.255-2.299
				c-1.144-0.469-2.359-0.948-3.581-0.761c-1.222,0.186-2.391,1.316-2.143,2.527c-3.203-2.025-7.954-1.473-10.961,0.835
				c-2.015,1.547-3.327,4.578-1.822,6.624c-1.736-0.878-4.579,0.12-5.561,1.8c-0.981,1.68-0.429,4.081,1.188,5.163
				c-2.643-0.109-5.093,2.793-4.093,5.241C214.053,137.59,220.02,138.534,220.774,135.999z"/>
		</g>
		<g>
			<path style="fill:#263238;" d="M245.818,146.532c-0.68,1.691-1.282,4.828-1.282,4.828c-0.294-0.003-0.588-0.006-0.882-0.025
				c-3.987-0.145-5.788-1.529-6.577-3.02c-0.428-0.816-0.544-1.676-0.546-2.373c-0.011-0.806,0.165-1.383,0.165-1.383
				c2.067,1.339,5.774,1.76,7.762,1.902C245.292,146.529,245.818,146.532,245.818,146.532z"/>
			<path style="fill:#FFFFFF;" d="M244.46,146.462l-0.415,1.414c-3.755-0.145-6.379-0.751-7.513-1.933
				c-0.011-0.806,0.165-1.383,0.165-1.383C238.764,145.899,242.471,146.32,244.46,146.462z"/>
			<path style="fill:#DE5753;" d="M243.655,151.335c-3.987-0.145-5.788-1.529-6.577-3.02c1.357,0.102,2.981,0.375,4.395,1.038
				C242.556,149.856,243.222,150.596,243.655,151.335z"/>
		</g>
	</g>
</g>
</svg>
