<svg xmlns="http://www.w3.org/2000/svg" viewBox="0 0 500 500"><g id="freepik--Floor--inject-258"><path id="freepik--floor--inject-258" d="M77.67,452.33c-95.18-54.95-95.18-144,0-199s249.49-55,344.66,0,95.18,144,0,199S172.84,507.28,77.67,452.33Z" style="fill:#f5f5f5"></path></g><g id="freepik--Window--inject-258"><g id="freepik--window--inject-258"><g id="freepik--window--inject-258"><g id="freepik--window--inject-258"><g id="freepik--Frame--inject-258"><polygon points="360.15 30.97 357.34 32.54 357.34 155.88 360.15 154.31 360.15 30.97" style="fill:#fafafa"></polygon><polygon points="360.15 154.31 360.15 34.16 472.94 99.28 472.92 219.42 360.15 154.31" style="fill:#fff"></polygon><path d="M478.15,231.65V96.27l-126-72.76V158.89ZM357.34,155.88V32.54l115.6,66.74V222.62Z" style="fill:#f0f0f0"></path><polygon points="357.34 155.88 360.15 154.31 472.92 219.42 472.94 222.62 357.34 155.88" style="fill:#e0e0e0"></polygon><polygon points="388.82 50.72 386.01 49.09 386.01 172.43 388.82 170.87 388.82 50.72" style="fill:#fafafa"></polygon><polygon points="452.18 87.3 449.37 85.67 449.37 209.01 452.18 207.45 452.18 87.3" style="fill:#fafafa"></polygon><polygon points="478.15 231.65 480.95 230.03 480.95 94.64 478.15 96.27 478.15 231.65" style="fill:#e0e0e0"></polygon><polygon points="480.95 94.64 478.15 96.27 352.12 23.51 354.92 21.88 480.95 94.64" style="fill:#fafafa"></polygon><polygon points="472.94 155.51 472.94 158.75 357.33 92 360.12 90.37 472.94 155.51" style="fill:#e0e0e0"></polygon></g><polygon points="472.93 164.76 472.94 158.75 357.33 92 357.34 98.03 472.93 164.76" style="fill:#f0f0f0"></polygon><polygon points="449.37 215.04 444.16 212.03 444.16 76.65 449.37 79.65 449.37 215.04" style="fill:#f0f0f0"></polygon><polygon points="386.02 178.46 380.81 175.46 380.81 40.07 386.02 43.08 386.02 178.46" style="fill:#f0f0f0"></polygon><polygon points="449.37 145.14 452.18 143.52 452.18 87.3 449.37 85.67 449.37 145.14" style="fill:#fafafa"></polygon><polygon points="386.04 108.58 388.85 106.96 388.85 50.73 386.04 49.11 386.04 108.58" style="fill:#fafafa"></polygon></g></g></g></g><g id="freepik--Bricks--inject-258"><g id="freepik--Wall--inject-258"><path d="M222.92,48.62v5.2c0,1.64,1.15,2.3,2.57,1.48l23.79-13.73a5.68,5.68,0,0,0,2.57-4.45v-5.2c0-1.64-1.15-2.31-2.57-1.49L225.49,44.17A5.68,5.68,0,0,0,222.92,48.62Z" style="fill:#fafafa"></path><path d="M215.57,150.05v5.2c0,1.64,1.15,2.3,2.57,1.48L241.93,143a5.68,5.68,0,0,0,2.57-4.45v-5.2c0-1.64-1.15-2.31-2.57-1.49L218.14,145.6A5.68,5.68,0,0,0,215.57,150.05Z" style="fill:#fafafa"></path><path d="M184.62,128.51v5.2c0,1.64,1.15,2.31,2.57,1.49L211,121.46a5.68,5.68,0,0,0,2.57-4.45v-5.2c0-1.64-1.15-2.3-2.57-1.48l-23.79,13.73A5.69,5.69,0,0,0,184.62,128.51Z" style="fill:#f5f5f5"></path><path d="M257,54.89,233.17,68.62a5.68,5.68,0,0,0-2.57,4.45v5.2c0,1.64,1.15,2.31,2.57,1.49L257,66a5.68,5.68,0,0,0,2.57-4.45v-5.2C259.53,54.73,258.38,54.07,257,54.89Z" style="fill:#fafafa"></path><path d="M133.15,153.6l-23.79,13.73a5.68,5.68,0,0,0-2.57,4.45V177c0,1.64,1.15,2.31,2.57,1.49l23.79-13.74a5.68,5.68,0,0,0,2.57-4.45v-5.2C135.72,153.44,134.57,152.78,133.15,153.6Z" style="fill:#fafafa"></path><path d="M40.3,70.38,16.5,84.11a5,5,0,0,0-.9.72V95.57a2.51,2.51,0,0,0,.9-.32L40.3,81.51a5.69,5.69,0,0,0,2.56-4.45v-5.2C42.86,70.22,41.71,69.56,40.3,70.38Z" style="fill:#fafafa"></path><path d="M29.86,93v5.2c0,1.64,1.15,2.31,2.57,1.49L56.22,86a5.68,5.68,0,0,0,2.57-4.45V76.3c0-1.64-1.15-2.3-2.57-1.48L32.43,88.55A5.69,5.69,0,0,0,29.86,93Z" style="fill:#fafafa"></path><path d="M25.27,147.35l-9.67,5.59v11.13l9.67-5.58A5.68,5.68,0,0,0,27.84,154v-5.2C27.84,147.2,26.69,146.53,25.27,147.35Z" style="fill:#fafafa"></path><path d="M71.25,107.23,47.46,121a5.68,5.68,0,0,0-2.57,4.45v5.2c0,1.64,1.15,2.3,2.57,1.48l23.79-13.73a5.68,5.68,0,0,0,2.57-4.45v-5.2C73.82,107.08,72.67,106.41,71.25,107.23Z" style="fill:#f5f5f5"></path><path d="M133.15,44.2,109.36,57.94a5.68,5.68,0,0,0-2.57,4.45v5.2c0,1.64,1.15,2.3,2.57,1.49l23.79-13.74a5.68,5.68,0,0,0,2.57-4.45v-5.2C135.72,44.05,134.57,43.39,133.15,44.2Z" style="fill:#fafafa"></path><path d="M165.73,24.54,141.94,38.28a5.68,5.68,0,0,0-2.57,4.45v5.2c0,1.64,1.15,2.3,2.57,1.48l23.79-13.73a5.68,5.68,0,0,0,2.57-4.45V26C168.3,24.39,167.15,23.72,165.73,24.54Z" style="fill:#f5f5f5"></path><path d="M69.72,31.42,45.93,45.15a5.72,5.72,0,0,0-2.57,4.46v5.2c0,1.63,1.15,2.3,2.57,1.48L69.72,42.55a5.68,5.68,0,0,0,2.57-4.45V32.9C72.29,31.26,71.14,30.6,69.72,31.42Z" style="fill:#f5f5f5"></path><path d="M133.15,126.25,109.36,140a5.69,5.69,0,0,0-2.57,4.45v5.21c0,1.63,1.15,2.3,2.57,1.48l23.79-13.74a5.68,5.68,0,0,0,2.57-4.45v-5.2C135.72,126.09,134.57,125.43,133.15,126.25Z" style="fill:#f5f5f5"></path><path d="M246.52,132.21v5.2c0,1.64,1.15,2.3,2.57,1.48l23.79-13.73a5.68,5.68,0,0,0,2.57-4.45v-5.2c0-1.64-1.15-2.31-2.57-1.49l-23.79,13.74A5.68,5.68,0,0,0,246.52,132.21Z" style="fill:#f5f5f5"></path><path d="M290.48,153.12v-5.2c0-1.64-1.15-2.3-2.57-1.48l-23.79,13.73a5.69,5.69,0,0,0-2.57,4.45v5.2c0,1.64,1.15,2.31,2.57,1.49l23.79-13.74A5.68,5.68,0,0,0,290.48,153.12Z" style="fill:#fafafa"></path><path d="M290.48,86.64v-5.2c0-1.64-1.15-2.3-2.57-1.49L264.12,93.69a5.68,5.68,0,0,0-2.57,4.45v5.2c0,1.64,1.15,2.3,2.57,1.48l23.79-13.73A5.68,5.68,0,0,0,290.48,86.64Z" style="fill:#fafafa"></path><path d="M290.48,32v-5.2c0-1.64-1.15-2.3-2.57-1.48L264.12,39a5.69,5.69,0,0,0-2.57,4.45v5.2c0,1.64,1.15,2.31,2.57,1.49L287.91,36.4A5.68,5.68,0,0,0,290.48,32Z" style="fill:#fafafa"></path><path d="M91.76,57.32v5.2c0,1.64,1.15,2.31,2.57,1.49l23.79-13.74a5.68,5.68,0,0,0,2.57-4.45v-5.2c0-1.64-1.15-2.3-2.57-1.48L94.33,52.87A5.68,5.68,0,0,0,91.76,57.32Z" style="fill:#fafafa"></path><path d="M40.3,152.42,16.5,166.16a4.25,4.25,0,0,0-.9.72v10.73a2.33,2.33,0,0,0,.9-.32l23.8-13.73a5.71,5.71,0,0,0,2.56-4.45v-5.2C42.86,152.27,41.71,151.6,40.3,152.42Z" style="fill:#fafafa"></path><path d="M195.05,48.28,171.26,62a5.69,5.69,0,0,0-2.57,4.46v5.2c0,1.63,1.15,2.3,2.57,1.48l23.79-13.74A5.68,5.68,0,0,0,197.62,55v-5.2C197.62,48.12,196.47,47.46,195.05,48.28Z" style="fill:#fafafa"></path><path d="M60.81,129.86v5.2c0,1.64,1.15,2.3,2.57,1.48l23.79-13.73a5.68,5.68,0,0,0,2.57-4.45v-5.2c0-1.64-1.15-2.31-2.57-1.49L63.38,125.41A5.68,5.68,0,0,0,60.81,129.86Z" style="fill:#fafafa"></path></g></g><g id="freepik--Shadows--inject-258"><ellipse id="freepik--Shadow--inject-258" cx="350.7" cy="415.58" rx="62.47" ry="36.07" style="fill:#e0e0e0"></ellipse><ellipse id="freepik--shadow--inject-258" cx="408.41" cy="302.68" rx="54.33" ry="31.37" style="fill:#e0e0e0"></ellipse><ellipse id="freepik--shadow--inject-258" cx="150.95" cy="405.29" rx="66.71" ry="38.51" style="fill:#e0e0e0"></ellipse><path id="freepik--shadow--inject-258" d="M465.23,385.77c6.7,3.87,6.7,10.14,0,14s-17.57,3.87-24.27,0-6.71-10.14,0-14S458.53,381.9,465.23,385.77Z" style="fill:#e0e0e0"></path></g><g id="freepik--Plants--inject-258"><g id="freepik--Plant--inject-258"><path id="freepik--shadow--inject-258" d="M87.86,287.47c12.37,7.23,12.37,18.94,0,26.17s-32.44,7.22-44.81,0-12.38-18.94,0-26.16S75.48,280.25,87.86,287.47Z" style="opacity:0.1"></path><g id="freepik--Pot--inject-258"><g id="freepik--pot--inject-258"><path d="M45.58,304.46c-10.63-11-16.87-55.6-6.5-64.3H91.83c10.36,8.69,4.13,53.32-6.5,64.29l-.29.3-.36.36a11.73,11.73,0,0,1-1,.87l-.25.2c-.26.21-.52.41-.8.61a12.91,12.91,0,0,1-1.38.89c-8.74,5.11-22.92,5.11-31.66,0h0a14.68,14.68,0,0,1-1.38-.89c-.27-.19-.51-.38-.75-.57l-.31-.25c-.33-.28-.64-.55-.93-.84l-.42-.41Z" style="fill:#f5f5f5"></path><path d="M87.25,236.65c12,7,12,18.42,0,25.45s-31.55,7-43.59,0-12-18.42,0-25.45S75.21,229.63,87.25,236.65Z" style="fill:#fafafa"></path><path d="M81.46,240c8.84,5.16,8.84,13.53,0,18.69s-23.17,5.16-32,0-8.84-13.53,0-18.69S72.62,234.87,81.46,240Z" style="fill:#e0e0e0"></path><path d="M49.45,248.9c8.84-5.16,23.17-5.16,32,0a14.83,14.83,0,0,1,5.29,4.91,14.74,14.74,0,0,1-5.29,4.91c-8.84,5.16-23.17,5.16-32,0a14.69,14.69,0,0,1-5.3-4.91A14.78,14.78,0,0,1,49.45,248.9Z" style="fill:#fff"></path></g><g id="freepik--plants--inject-258"><path d="M80.37,159.66l-16.3,16.82L80.6,166a49.16,49.16,0,0,1-.86,17.08s-8,6.31-12.43,11.52l12.79-7.11s2.1,8.78.18,22.83c-.5,3.68-3.6,11-5.46,16.39a57.63,57.63,0,0,1-3,7.29c-.06.15-.14.29-.21.44q-5-2-10.3-3.87c-2.77-4.27-7.08-15.17-9.31-24.26-8.53-34.82,15.52-58.57,36.1-68.19C88.07,138.16,81.91,148.39,80.37,159.66Z" style="fill:#ebebeb"></path><path d="M65.35,163.14c-3.23,4.22-4.76,9.43-5.78,14.56a72,72,0,0,0-1.22,15.71,66.74,66.74,0,0,0,7.89,30.16h0a.51.51,0,1,1-.9.5h0a67.55,67.55,0,0,1-7.5-30.65,72.56,72.56,0,0,1,1.49-15.77C60.43,172.51,62.05,167.31,65.35,163.14Z" style="fill:#fff"></path><path d="M8.78,180.78l0,0c.44.57,7.55,9.86,17.92,27.79l18.46,3.85-13.83,1.76,6.83,12,18.13,4.62-14.4,1.67s3.33,14.13,13.29,20.42c5.5,3.46,7.95,3.65,10,2.55,2.52-1.35,3.87-5.3,5.13-11.23S70.08,226.17,65,214.2a36.44,36.44,0,0,0-5.46-8.88C46.68,189.62,21.43,181.18,8.78,180.78Z" style="fill:#f0f0f0"></path><path d="M28,187.76c9.43,4.66,18.26,10.87,25.05,19.06a50.69,50.69,0,0,1,8.25,13.55,48.29,48.29,0,0,1,3.35,15.47,0,0,0,0,1,0,0s0,0-.06,0a61.68,61.68,0,0,0-4.19-15.08,57.06,57.06,0,0,0-7.94-13.43c-6.55-8.19-15.18-14.57-24.45-19.49a.05.05,0,0,1,0-.07A.07.07,0,0,1,28,187.76Z" style="fill:#fff"></path><path d="M123.5,186.59h0a42.89,42.89,0,0,0-5.12.24,81.78,81.78,0,0,0-19.55,4.76c-2.34.87-4.69,1.86-7,3-1.15.55-2.3,1.13-3.42,1.74a56.34,56.34,0,0,0-15,11.33,35.84,35.84,0,0,0-5.16,7.25c-.18.33-.37.66-.54,1h0c-.43.89-.82,1.77-1.19,2.64-4.32,9.76-4.69,16.54-4.42,24.06.21,5.83,2.2,12.5,3.33,13.59a2.6,2.6,0,0,0,.51.38c1.66,1.06,4.31.44,9.25-2.32C85.1,248.7,89,234.67,89,234.67l-13.77-2.34L92.9,228.8l7.18-11.19L86.87,215.2l17.95-2.76c10.89-16.72,18.2-25.3,18.65-25.82l0,0Z" style="fill:#f0f0f0"></path><path d="M118.38,186.83a81.78,81.78,0,0,0-19.55,4.76c-2.34.87-4.69,1.86-7,3-1.15.55-2.3,1.13-3.42,1.74a56.34,56.34,0,0,0-15,11.33,35.84,35.84,0,0,0-5.16,7.25c-.18.33-.37.66-.54,1h0c-.43.89-.82,1.77-1.19,2.64-4.32,9.76-4.69,16.54-4.42,24.06.21,5.83,2.2,12.5,3.33,13.59a2.6,2.6,0,0,0,.51.38A3,3,0,0,0,67,257c-1.22-9,3.23-32,10-41.4,7-9.81,23.62-24,46.47-28.94l0,0A40.07,40.07,0,0,0,118.38,186.83Z" style="fill:#e6e6e6"></path><path d="M67,257a78.07,78.07,0,0,1,1.3-20,64.83,64.83,0,0,1,6.63-19c3.39-5.9,8.25-10.73,13.43-15a75.22,75.22,0,0,1,17.23-10.32.05.05,0,0,1,.07,0,.06.06,0,0,1,0,.07,98.21,98.21,0,0,0-16.57,11.1,72.85,72.85,0,0,0-7.28,6.77,44.44,44.44,0,0,0-6.08,7.8,63.86,63.86,0,0,0-6.86,18.62A77.13,77.13,0,0,0,67.1,257,.06.06,0,0,1,67,257,.06.06,0,0,1,67,257Z" style="fill:#fff"></path></g></g></g></g><g id="freepik--Ball--inject-258"><g id="freepik--ball--inject-258"><circle cx="413.07" cy="272.24" r="49.48" transform="translate(-56.18 428.92) rotate(-51.85)" style="fill:#ebebeb"></circle><g style="opacity:0.1"><path d="M435.88,233.85c-.48,2.39-2.51,4.3-5.71,5.38A23.54,23.54,0,0,1,409.3,235c-2.53-2.23-3.66-4.77-3.19-7.16.44-2.19,2.19-4,4.94-5.08,1.06,0,2.12-.05,3.19,0a14.56,14.56,0,0,0-2.14.54c-2.9,1-4.72,2.66-5.14,4.73s.62,4.32,2.91,6.34c4.88,4.3,13.87,6.1,20,4,2.89-1,4.72-2.65,5.13-4.73s-.62-4.32-2.91-6.34a16.06,16.06,0,0,0-2.31-1.67c1.06.38,2.09.8,3.11,1.24C435.28,229.09,436.34,231.54,435.88,233.85Z"></path><path d="M458.31,292.28a1.42,1.42,0,0,0,.08-.18h0A1.42,1.42,0,0,1,458.31,292.28Z"></path><path d="M368.68,250.38l-.23.45Z"></path><path d="M457.71,293.61c-.11.23-.23.46-.35.7C457.48,294.08,457.6,293.84,457.71,293.61Z"></path><path d="M366.14,287.88a34.12,34.12,0,0,0,7.53,9.09c16.14,14.2,45.84,20.16,66.21,13.3a34.22,34.22,0,0,0,10.47-5.49c-.91,1-1.86,2-2.84,3a38.86,38.86,0,0,1-7.35,3.31c-10.32,3.48-23,3.71-35.14,1.27s-23.75-7.54-31.92-14.73a38.94,38.94,0,0,1-5.5-5.9C367.06,290.46,366.57,289.18,366.14,287.88Z"></path><path d="M374.85,282.13c17,14.95,48.23,21.23,69.66,14,8.15-2.74,13.92-7.1,16.7-12.5-.23,1-.48,1.94-.76,2.89h0c-3.24,4.45-8.58,8-15.66,10.43-10.85,3.66-24.18,3.9-36.94,1.34s-25-7.93-33.57-15.49c-5.62-5-9.16-10.33-10.41-15.68.1-1,.24-2,.4-2.94C364.76,270.22,368.41,276.46,374.85,282.13Z"></path><path d="M363.65,274.77c0,.2,0,.4,0,.6C363.68,275.17,363.66,275,363.65,274.77Z"></path><path d="M384,232.21l-.44.32Z"></path><path d="M444.72,267.08c-9.05,3.06-20.18,3.26-30.83,1.12s-20.85-6.62-28-12.93c-5.93-5.22-9.08-11-9.13-16.63.29-.31.59-.61.89-.92-.31,5.64,2.75,11.56,8.81,16.9,14.14,12.44,40.16,17.67,58,11.64,7.65-2.58,12.75-6.86,14.64-12.18.16.39.32.79.47,1.19C457.35,260.43,452.2,264.56,444.72,267.08Z"></path><path d="M462.33,267.55c-2.16,6.29-8.12,11.31-17,14.31-10.12,3.42-22.54,3.64-34.44,1.25s-23.27-7.39-31.28-14.45c-7.05-6.2-10.6-13.14-10.17-19.77.36-.67.74-1.34,1.13-2-1.38,6.95,2,14.45,9.61,21.12,15.81,13.91,44.91,19.76,64.87,13,9.56-3.23,15.6-8.82,17-15.76.1.75.19,1.5.27,2.26Z"></path><path d="M462.51,269.92l-.06-1Z"></path><path d="M385.4,231.23l.44-.3Z"></path><path d="M440.48,252.28c-6.92,2.34-15.43,2.49-23.57.86s-15.93-5.06-21.41-9.89c-5-4.38-7.4-9.29-6.95-14l.94-.54c-.71,4.58,1.6,9.48,6.58,13.86,10.76,9.47,30.55,13.45,44.13,8.86,6.28-2.12,10.31-5.75,11.42-10.24l.66.85C450.89,246.56,446.75,250.16,440.48,252.28Z"></path><path d="M455.65,247l-.35-.58Z"></path><path d="M454.12,244.61c.12.18.23.36.35.53Z"></path></g><path d="M425.69,300.57c29.47-11.32,33.87-33.06,31.54-50.59h0a49.48,49.48,0,1,1-93.38,27.59C366.14,292.74,396.23,311.88,425.69,300.57Z" style="opacity:0.1"></path></g></g><g id="freepik--Kettlebells--inject-258"><g id="freepik--kettlebells--inject-258"><path id="freepik--shadow--inject-258" d="M259.39,246.29c-9,5.18-9,13.6,0,18.79s23.56,5.18,32.55,0,9-13.61,0-18.79S268.38,241.1,259.39,246.29Z" style="fill:#e0e0e0"></path><path id="freepik--shadow--inject-258" d="M223.2,253c-7.66,4.42-7.66,11.59,0,16s20.08,4.42,27.73,0,7.66-11.59,0-16S230.86,248.55,223.2,253Z" style="fill:#e0e0e0"></path><path d="M274.45,225.1c9.07-.48,20.86,8.06,21.45,19.31a20.39,20.39,0,0,1-4,13.23l0,0a8.69,8.69,0,0,1-1.12,1.38,13.33,13.33,0,0,1-2.33,1.87c-6.48,4.22-17.31,4.78-24.2,1.27a13.35,13.35,0,0,1-2.52-1.63,9.78,9.78,0,0,1-1.25-1.24l0,0a20.31,20.31,0,0,1-5.34-12.73C254.54,235.29,265.38,225.57,274.45,225.1Z" style="fill:#e0e0e0"></path><path d="M274.45,225.1c9.07-.48,20.86,8.06,21.45,19.31a20.39,20.39,0,0,1-4,13.23l0,0a8.69,8.69,0,0,1-1.12,1.38,13.33,13.33,0,0,1-2.33,1.87c-6.48,4.22-17.31,4.78-24.2,1.27a13.35,13.35,0,0,1-2.52-1.63,9.78,9.78,0,0,1-1.25-1.24l0,0a20.31,20.31,0,0,1-5.34-12.73C254.54,235.29,265.38,225.57,274.45,225.1Z" style="opacity:0.1"></path><path d="M290.79,259a8.33,8.33,0,0,0,1.12-1.39h0a20.59,20.59,0,0,0,2.68-4.95c-.37.37-10,9.93-22.25,4.36-12.5-5.67-13.51-24.3-4.07-30.35-7.16,3.27-13.62,11.09-13.16,19.85a20.31,20.31,0,0,0,5.34,12.73l0,0a9.78,9.78,0,0,0,1.25,1.24,13.35,13.35,0,0,0,2.52,1.63c6.89,3.51,17.72,2.95,24.2-1.27A13.33,13.33,0,0,0,290.79,259Z" style="opacity:0.1"></path><path d="M265.93,239.68a2.3,2.3,0,0,1-4.56.16l-1.08-6.8,0-.25a23.81,23.81,0,0,1,4.06-3.73l.05.33,1.55,9.73A2.12,2.12,0,0,1,265.93,239.68Z" style="opacity:0.1"></path><path d="M290,207.84l-3.68,21a23.71,23.71,0,0,0-4.11-2.21l3.43-20.18a.06.06,0,0,1,0,0,.07.07,0,0,0-.05,0L266.27,216.7a6.36,6.36,0,0,0-3,6l.66,4.17.36,2.21.05.33,1.55,9.73a2.12,2.12,0,0,1,0,.56,2.3,2.3,0,0,1-4.56.16l-1.08-6.8,0-.25-.54-3.41-.95-6a10.91,10.91,0,0,1,5.34-10.75l19.31-10.31c3-1.61,4.82-.71,5.63,0S291,204.58,290,207.84Z" style="fill:#e0e0e0"></path><path d="M235.65,236.83c7-.19,15.95,6.63,16.18,15.33a15.72,15.72,0,0,1-3.33,10.13h0a6.62,6.62,0,0,1-.9,1.05,10.22,10.22,0,0,1-1.83,1.4c-5.08,3.12-13.46,3.35-18.71.5a10.62,10.62,0,0,1-1.91-1.3,7.87,7.87,0,0,1-.94-1l0,0a15.69,15.69,0,0,1-3.87-9.93C220.08,244.3,228.64,237,235.65,236.83Z" style="fill:#e0e0e0"></path><path d="M235.65,236.83c7-.19,15.95,6.63,16.18,15.33a15.72,15.72,0,0,1-3.33,10.13h0a6.62,6.62,0,0,1-.9,1.05,10.22,10.22,0,0,1-1.83,1.4c-5.08,3.12-13.46,3.35-18.71.5a10.62,10.62,0,0,1-1.91-1.3,7.87,7.87,0,0,1-.94-1l0,0a15.69,15.69,0,0,1-3.87-9.93C220.08,244.3,228.64,237,235.65,236.83Z" style="opacity:0.1"></path><path d="M247.59,263.35a6.62,6.62,0,0,0,.9-1.05h0a15.67,15.67,0,0,0,2.17-3.77c-.29.28-7.92,7.47-17.27,2.93-9.53-4.62-10-19-2.54-23.51-5.59,2.38-10.73,8.3-10.55,15.07a15.69,15.69,0,0,0,3.87,9.93l0,0a7.87,7.87,0,0,0,.94,1,10.62,10.62,0,0,0,1.91,1.3c5.25,2.85,13.63,2.62,18.71-.5A10.22,10.22,0,0,0,247.59,263.35Z" style="opacity:0.1"></path><path d="M228.78,247.91a1.77,1.77,0,0,1-3.52,0l-.7-5.27,0-.2a18.85,18.85,0,0,1,3.21-2.8l0,.26,1,7.54A1.55,1.55,0,0,1,228.78,247.91Z" style="opacity:0.1"></path><path d="M248,223.81l-3.26,16.11a18.09,18.09,0,0,0-3.13-1.78l3-15.51s0,0,0,0,0,0,0,0l-15.11,7.56a4.92,4.92,0,0,0-2.42,4.56l.43,3.23.23,1.71,0,.26,1,7.54a1.55,1.55,0,0,1,0,.43,1.77,1.77,0,0,1-3.52,0l-.7-5.27,0-.2-.35-2.64-.61-4.63A8.42,8.42,0,0,1,227.9,227L243,219.44c2.36-1.18,3.74-.45,4.35.08S248.84,221.31,248,223.81Z" style="fill:#e0e0e0"></path><path d="M278.91,238.24a20.88,20.88,0,0,0-1.8-3.19,2.39,2.39,0,0,0-.51-.63.42.42,0,0,0-.66.19c-.13.26-.18.57-.3.84a2.07,2.07,0,0,0-.28.8c0,.06,0,.17.1.19s.32-.16.4-.26.13-.21.19-.31a5,5,0,0,0,.29-.62v0l0,0a3.21,3.21,0,0,1,.19.31c.14.22.27.45.4.68.49.87,1,1.73,1.38,2.64a.33.33,0,0,0,.53.13A.74.74,0,0,0,278.91,238.24Z" style="fill:#f5f5f5"></path><path d="M283.48,234.79a3,3,0,0,0-1.6-1.84,1.69,1.69,0,0,0-2.16,1.77C279.55,238.7,284.83,239.48,283.48,234.79Zm-.6,1.83a.71.71,0,0,1-.73.4,2,2,0,0,1-1.21-3.11C282.28,233,283.4,235.58,282.88,236.62Z" style="fill:#f5f5f5"></path><path d="M281.18,247c-.51.1-1.27.73-1.85.64-.18,0-.24-.16-.32-.31-.46-.95-1-1.94-1.33-2.94-.47-1.22-1.11-.82-.79.41a11.93,11.93,0,0,0,1.34,3.24,1.41,1.41,0,0,0,1.45.76c.47-.06,1.73-.66,1.87-1.13C281.62,247.41,281.54,246.9,281.18,247Z" style="fill:#f5f5f5"></path><path d="M284.55,243.75a.93.93,0,0,0-.24,0,1.55,1.55,0,0,0-2.11-1.92c-.58.1-1.4.6-1.33.89a20.93,20.93,0,0,0,1.81,4.43c.05.2.23.54.48.46C284.94,247.31,286.4,244.89,284.55,243.75Zm-2.83-.93c.38-.24,1.51-.29,1.75.16.36.67-.54,1.07-1.16,1.34C282.13,243.88,282,243.3,281.72,242.82Zm2.89,2.58c-.1.69-.74,1-1.35,1.17-.2-.6-.43-.88-.68-1.68,1.14-.45,1.82-.57,2,.22A1.39,1.39,0,0,0,284.61,245.4Z" style="fill:#f5f5f5"></path><path d="M288.36,242.79c-.56-.39-1.32-.47-1.82-.95a1.23,1.23,0,0,1-.26-.35l0,0c.2-.13.66-.28.84-.11a.34.34,0,0,0,.58-.11.85.85,0,0,0-.17-.85,1.45,1.45,0,0,0-1.93.12c-.6.65-.08,1.7.44,2.21a6.64,6.64,0,0,0,1.85,1,1.3,1.3,0,0,1,.58.5c0,.07,0,.07,0,.14a.73.73,0,0,1-.22.3c-.54.47-1.18.05-1.56-.4-.18-.23-.32.21-.3.34a1.49,1.49,0,0,0,.56.92,1.61,1.61,0,0,0,.89.32,1.37,1.37,0,0,0,1.34-1.14A1.9,1.9,0,0,0,288.36,242.79Z" style="fill:#f5f5f5"></path><path d="M239.86,255.81c-.52.1-1.28.73-1.85.64-.18,0-.24-.16-.33-.31-.45-.95-1-1.94-1.33-2.93-.46-1.23-1.11-.83-.79.4a12,12,0,0,0,1.35,3.24,1.4,1.4,0,0,0,1.44.76c.48-.06,1.74-.66,1.87-1.13C240.29,256.24,240.21,255.73,239.86,255.81Z" style="fill:#f5f5f5"></path><path d="M243.23,252.58a1.09,1.09,0,0,0-.25,0,1.54,1.54,0,0,0-2.11-1.92c-.57.1-1.4.61-1.33.89a21,21,0,0,0,1.82,4.43c0,.2.22.54.48.46C243.62,256.14,245.08,253.72,243.23,252.58Zm-2.83-.92c.37-.25,1.5-.3,1.75.15.36.67-.55,1.07-1.17,1.34C240.8,252.72,240.65,252.13,240.4,251.66Zm2.88,2.57c-.09.69-.74,1-1.35,1.17-.2-.6-.42-.88-.68-1.67,1.14-.46,1.82-.58,2,.21Z" style="fill:#f5f5f5"></path><path d="M240.11,246.07a1.72,1.72,0,0,0-1.43-1.3,2.94,2.94,0,0,0-1.88.46c-.12-.21-.24-.42-.35-.64l0-.05.24-.11c.31-.1.63-.18.93-.31l.44-.2a1.17,1.17,0,0,0,.4-.3c.12-.13.16-.48-.05-.54A.8.8,0,0,0,238,243a1.86,1.86,0,0,0-.34.07,5,5,0,0,0-.67.14,2.59,2.59,0,0,0-1.08.45c-.75.72.12,1.8.52,2.46a.26.26,0,0,0,.39.08,2.46,2.46,0,0,1,1.53-.54,1.14,1.14,0,0,1,1.09.69.28.28,0,0,1,0,.13.43.43,0,0,1-.09.18,1.07,1.07,0,0,1-.46.35,1.85,1.85,0,0,1-.7.17c-.3,0-.64-.14-.91,0a.59.59,0,0,0,0,.81,1.39,1.39,0,0,0,1.21.2,2.18,2.18,0,0,0,.86-.32A1.74,1.74,0,0,0,240.11,246.07Z" style="fill:#f5f5f5"></path><path d="M247,251.62c-.56-.39-1.32-.47-1.82-1a2,2,0,0,1-.26-.34l0,0c.2-.12.67-.28.85-.11a.33.33,0,0,0,.57-.11.81.81,0,0,0-.17-.85,1.46,1.46,0,0,0-1.93.12c-.6.65-.07,1.7.45,2.22a6.56,6.56,0,0,0,1.84,1,1.45,1.45,0,0,1,.59.5c0,.07,0,.07,0,.15a.66.66,0,0,1-.21.29c-.54.47-1.19.06-1.56-.4-.19-.23-.33.21-.3.34a1.42,1.42,0,0,0,.56.92,1.58,1.58,0,0,0,.89.32,1.38,1.38,0,0,0,1.34-1.14A1.91,1.91,0,0,0,247,251.62Z" style="fill:#f5f5f5"></path></g></g><g id="freepik--Dumbbells--inject-258"><g id="freepik--dumbbells--inject-258"><g style="opacity:0.1"><path id="freepik--shadow--inject-258" d="M42.13,372.31,40,371.07c-1.46-.84-1.46-2.21,0-3.05l4.79-2.77-15-8.65L25,359.37a5.85,5.85,0,0,1-5.28,0l-2.16-1.24c-1.45-.85-1.45-2.21,0-3.05l14.54-8.4a5.87,5.87,0,0,1,5.29,0l2.15,1.25c1.46.84,1.46,2.2,0,3.05l-5.3,3,15,8.65,5.29-3.05a5.79,5.79,0,0,1,5.28,0L62,360.87c1.46.84,1.46,2.2,0,3.05l-14.54,8.39A5.85,5.85,0,0,1,42.13,372.31Z"></path><path id="freepik--shadow--inject-258" d="M64.5,364.68l-2.15-1.24c-1.46-.84-1.46-2.2,0-3.05l4.79-2.76-15-8.65-4.8,2.76a5.79,5.79,0,0,1-5.28,0L40,350.5c-1.46-.84-1.46-2.21,0-3.05l14.54-8.39a5.85,5.85,0,0,1,5.28,0l2.15,1.24c1.46.84,1.46,2.21,0,3.05l-5.29,3,15,8.65L76.88,352a5.87,5.87,0,0,1,5.29,0l2.15,1.24c1.46.84,1.46,2.21,0,3.05l-14.54,8.39A5.79,5.79,0,0,1,64.5,364.68Z"></path></g><g id="freepik--Dumbbell--inject-258"><path d="M34.74,343v-.05a7.53,7.53,0,0,0-11.35-6.49l-.06,0-.18.12-.2.12a15.22,15.22,0,0,0-6.46,11.61v.09c0,.23,0,.46,0,.68v0A7.53,7.53,0,0,0,24,356a7.45,7.45,0,0,0,1.65-.19,7,7,0,0,0,2.22-.85,15.12,15.12,0,0,0,6.84-11.85Z" style="fill:#455a64"></path><path d="M27.9,339.1A15.15,15.15,0,0,0,21.05,351c0,4.36,3.07,6.13,6.85,4a15.12,15.12,0,0,0,6.84-11.85C34.74,338.69,31.68,336.92,27.9,339.1Z" style="fill:#37474f"></path><path d="M48.71,353.89h0l-.05,0L31.07,343.66h0a2.15,2.15,0,0,0-2.29.17,7,7,0,0,0-3.15,5.46,2.18,2.18,0,0,0,.95,2.06l17.6,10.2h0a2.17,2.17,0,0,0,2.27-.19,7,7,0,0,0,3.15-5.46A2.23,2.23,0,0,0,48.71,353.89Z" style="fill:#263238"></path><path d="M43.29,359.54c0,2,1.41,2.83,3.16,1.82a7,7,0,0,0,3.15-5.46c0-2-1.41-2.83-3.15-1.82A6.94,6.94,0,0,0,43.29,359.54Z" style="fill:#455a64"></path><path d="M57.55,356.15v0A7.53,7.53,0,0,0,50,348.57a7.42,7.42,0,0,0-3.81,1l-.06,0-.18.12-.21.13A15.21,15.21,0,0,0,39.3,361.5s0,0,0,0v0c0,.23,0,.46,0,.69h0a7.53,7.53,0,0,0,7.5,6.84,7.61,7.61,0,0,0,1.66-.19,7,7,0,0,0,2.21-.85,15.12,15.12,0,0,0,6.84-11.85Z" style="fill:#455a64"></path><path d="M50.71,352.28a15.12,15.12,0,0,0-6.84,11.85c0,4.36,3.06,6.13,6.84,3.95a15.12,15.12,0,0,0,6.84-11.85C57.55,351.86,54.49,350.09,50.71,352.28Z" style="fill:#37474f"></path></g><g id="freepik--dumbbell--inject-258"><path d="M57.1,335.35s0,0,0,0a7.53,7.53,0,0,0-11.35-6.5l-.06,0-.18.12a1.37,1.37,0,0,0-.2.13,15.21,15.21,0,0,0-6.46,11.61v.08c0,.24,0,.46,0,.69v0a7.51,7.51,0,0,0,9.16,6.64,6.72,6.72,0,0,0,2.21-.85,15.13,15.13,0,0,0,6.85-11.85S57.1,335.38,57.1,335.35Z" style="fill:#455a64"></path><path d="M50.26,331.48a15.12,15.12,0,0,0-6.84,11.85c0,4.37,3.06,6.14,6.84,3.95a15.13,15.13,0,0,0,6.85-11.85C57.11,331.07,54,329.3,50.26,331.48Z" style="fill:#37474f"></path><path d="M71.08,346.26h0l-.06,0L53.44,336h0a2.17,2.17,0,0,0-2.29.17A7,7,0,0,0,48,341.68a2.18,2.18,0,0,0,1,2.05l17.6,10.2h0a2.19,2.19,0,0,0,2.27-.19A7,7,0,0,0,72,348.27,2.23,2.23,0,0,0,71.08,346.26Z" style="fill:#263238"></path><path d="M65.66,351.92c0,2,1.41,2.82,3.15,1.82A7,7,0,0,0,72,348.27c0-2-1.42-2.82-3.16-1.82A7,7,0,0,0,65.66,351.92Z" style="fill:#455a64"></path><path d="M79.92,348.52v0A7.52,7.52,0,0,0,68.57,342l-.06,0-.18.11-.2.13a15.22,15.22,0,0,0-6.46,11.61V354a5.17,5.17,0,0,0,0,.68v0a7.53,7.53,0,0,0,7.5,6.83,7.45,7.45,0,0,0,1.65-.19,7,7,0,0,0,2.22-.84,15.14,15.14,0,0,0,6.84-11.86Z" style="fill:#455a64"></path><path d="M73.08,344.65a15.13,15.13,0,0,0-6.85,11.85c0,4.37,3.07,6.14,6.85,4a15.14,15.14,0,0,0,6.84-11.86C79.92,344.24,76.86,342.47,73.08,344.65Z" style="fill:#37474f"></path></g></g></g><g id="freepik--Bottle--inject-258"><g id="freepik--Water--inject-258"><path d="M466.18,370.76a29.61,29.61,0,0,0-2.12-5.47l-.29-.59a11.24,11.24,0,0,1,.15-10.57c.07-.11.13-.22.19-.33a12,12,0,0,0,1.64-6.22,7.32,7.32,0,0,0-3.55-5.88,12.59,12.59,0,0,0-1.65-.8,2.8,2.8,0,0,1-1.78-2.61v-3.22l-10.31,0v3.22a2.81,2.81,0,0,1-1.81,2.6,11.35,11.35,0,0,0-1.65.78,7.31,7.31,0,0,0-3.59,5.86,12,12,0,0,0,1.58,6.23l.18.31a11.25,11.25,0,0,1,.08,10.59c-.1.2-.2.39-.29.59a29.87,29.87,0,0,0-2.16,5.45,26,26,0,0,0-.5,5.55l-.06,15c0,1.94,1.27,3.89,3.83,5.38a18,18,0,0,0,7.45,2.18,23.1,23.1,0,0,0,3.72,0,18,18,0,0,0,7.42-2.12c2.57-1.47,3.86-3.4,3.87-5.35l0-10.84c0-1.35.06-2.77.06-4.18A25.2,25.2,0,0,0,466.18,370.76Z" style="fill:#407BFF"></path><path d="M466.18,370.76a29.61,29.61,0,0,0-2.12-5.47l-.29-.59a11.24,11.24,0,0,1,.15-10.57c.07-.11.13-.22.19-.33a12,12,0,0,0,1.64-6.22,7.32,7.32,0,0,0-3.55-5.88,12.59,12.59,0,0,0-1.65-.8,2.8,2.8,0,0,1-1.78-2.61v-3.22l-10.31,0v3.22a2.81,2.81,0,0,1-1.81,2.6,11.35,11.35,0,0,0-1.65.78,7.31,7.31,0,0,0-3.59,5.86,12,12,0,0,0,1.58,6.23l.18.31a11.25,11.25,0,0,1,.08,10.59c-.1.2-.2.39-.29.59a29.87,29.87,0,0,0-2.16,5.45,26,26,0,0,0-.5,5.55l-.06,15c0,1.94,1.27,3.89,3.83,5.38a18,18,0,0,0,7.45,2.18,23.1,23.1,0,0,0,3.72,0,18,18,0,0,0,7.42-2.12c2.57-1.47,3.86-3.4,3.87-5.35l0-10.84c0-1.35.06-2.77.06-4.18A25.2,25.2,0,0,0,466.18,370.76Z" style="opacity:0.35000000000000003"></path><path d="M463.92,354.13c.07-.11.13-.22.19-.33a12.09,12.09,0,0,0,1.61-5.26,10,10,0,0,1-1,2.13,20.15,20.15,0,0,1-4.65,4.84c-1.76,1.44-3.72,3.08-3.94,5.35s1.33,4.19,3.09,5.52,3.83,2.26,5.41,3.8a13.39,13.39,0,0,1,1.8,2.24c-.07-.56-.15-1.12-.27-1.66a29.61,29.61,0,0,0-2.12-5.47l-.29-.59A11.24,11.24,0,0,1,463.92,354.13Z" style="opacity:0.15"></path><path d="M446.73,338.63v1.73a3.49,3.49,0,0,0,2,2.87,10.93,10.93,0,0,0,9.9,0,4.67,4.67,0,0,0,1.54-1.33,2.61,2.61,0,0,0,.51-1.51v-1.76a1.83,1.83,0,0,0-.05-.47,3.74,3.74,0,0,0-2-2.4l-.1-.06a11,11,0,0,0-9.8,0,3.76,3.76,0,0,0-2,2.38A2,2,0,0,0,446.73,338.63Z" style="fill:#407BFF"></path><path d="M446.73,338.63v1.73a3.49,3.49,0,0,0,2,2.87,10.93,10.93,0,0,0,9.9,0,4.67,4.67,0,0,0,1.54-1.33,2.61,2.61,0,0,0,.51-1.51v-1.76a1.83,1.83,0,0,0-.05-.47,3.74,3.74,0,0,0-2-2.4l-.1-.06a11,11,0,0,0-9.8,0,3.76,3.76,0,0,0-2,2.38A2,2,0,0,0,446.73,338.63Z" style="opacity:0.1"></path><path d="M458.67,341.51c2.74-1.56,2.75-4.12,0-5.71a10.93,10.93,0,0,0-9.9,0c-2.74,1.57-2.75,4.13,0,5.72A11,11,0,0,0,458.67,341.51Z" style="opacity:0.2"></path><path d="M446.74,336.6v1a1.67,1.67,0,0,0,.05.49,3.72,3.72,0,0,0,2,2.39,9.81,9.81,0,0,0,4.37,1.18,10.4,10.4,0,0,0,5.53-1.15,4.87,4.87,0,0,0,1.54-1.32,2.73,2.73,0,0,0,.46-1,2,2,0,0,0,.05-.48v-1.07a3.47,3.47,0,0,0-2-2.87c-.12-.07-.24-.14-.37-.2a11,11,0,0,0-9.53.16A3.49,3.49,0,0,0,446.74,336.6Z" style="fill:#407BFF"></path><path d="M446.74,336.6v1a1.67,1.67,0,0,0,.05.49,3.72,3.72,0,0,0,2,2.39,9.81,9.81,0,0,0,4.37,1.18,10.4,10.4,0,0,0,5.53-1.15,4.87,4.87,0,0,0,1.54-1.32,2.73,2.73,0,0,0,.46-1,2,2,0,0,0,.05-.48v-1.07a3.47,3.47,0,0,0-2-2.87c-.12-.07-.24-.14-.37-.2a11,11,0,0,0-9.53.16A3.49,3.49,0,0,0,446.74,336.6Z" style="opacity:0.1"></path><path d="M446.74,336.57c0,2.22,3.12,4,7,4.05s7-1.77,7-4-3.12-4-7-4.05S446.75,334.35,446.74,336.57Z" style="fill:#407BFF"></path><path d="M451.33,332.44l0,3.63a1.11,1.11,0,0,0,0,.17,1.33,1.33,0,0,0,.69.83,3.39,3.39,0,0,0,1.52.4,3.53,3.53,0,0,0,1.91-.39,1.68,1.68,0,0,0,.54-.46,1.14,1.14,0,0,0,.16-.36,1,1,0,0,0,0-.17v-3.63a1.21,1.21,0,0,0-.71-1l-.12-.07a3.84,3.84,0,0,0-3.31.06A1.21,1.21,0,0,0,451.33,332.44Z" style="fill:#407BFF"></path><path d="M451.33,332.44l0,3.63a1.11,1.11,0,0,0,0,.17,1.33,1.33,0,0,0,.69.83,3.39,3.39,0,0,0,1.52.4,3.53,3.53,0,0,0,1.91-.39,1.68,1.68,0,0,0,.54-.46,1.14,1.14,0,0,0,.16-.36,1,1,0,0,0,0-.17v-3.63a1.21,1.21,0,0,0-.71-1l-.12-.07a3.84,3.84,0,0,0-3.31.06A1.21,1.21,0,0,0,451.33,332.44Z" style="opacity:0.2"></path><path d="M451.33,332.43c0,.77,1.08,1.4,2.42,1.4s2.43-.61,2.43-1.38-1.08-1.4-2.42-1.4S451.33,331.66,451.33,332.43Z" style="fill:#407BFF"></path><path d="M452.89,332.44c0,.27.39.49.86.49s.86-.21.87-.49-.39-.49-.86-.5S452.89,332.16,452.89,332.44Z" style="fill:#407BFF;opacity:0.5"></path><path d="M452.89,332.44c0,.27.39.49.86.49s.86-.21.87-.49-.39-.49-.86-.5S452.89,332.16,452.89,332.44Z" style="opacity:0.30000000000000004"></path></g></g><g id="freepik--character-2--inject-258"><g id="freepik--Character--inject-258"><g id="freepik--Bottom--inject-258"><path d="M344.37,333.58c-2,3.14-6.89,5.64-17.38,2.18-10.75-3.55-11.78-13-9.39-15.75,4.4-5.1,21.65-9.77,27-4.61S347.05,329.35,344.37,333.58Z" style="fill:#263238"></path><path d="M393.41,340.19c-1.68,6.64-16.54,3.14-23.72,1.12-5.23-1.47-9.53-5-9.09-7.9.76-5,7.62-13.65,15.82-10.11S394.87,334.42,393.41,340.19Z" style="fill:#263238"></path><path d="M402.82,267.3c3.84,9.64,4.69,17.88,2.4,26.29s-12,39.82-12.89,45.75c-.45,3-.05,3.46,1.91,7.68,1.83,3.93,3.85,9.5,4.15,20,.25,8.61,0,18.15-.19,24.52L398,392.8s.41,11.56-5,12.42-9.3-4.48-9.3-4.48-2.13-9.39-6.7-23.18c-4.75-14.31-9.75-25.16-12.18-32.92-2.33-7.46-2.26-7.68-1.35-21.48.66-10,2.22-32,2.22-32Z" style="fill:#ffa8a7"></path><path d="M398.8,396.39c.07-1.1.76-4.47-.6-4.81L398,392.8s-.75,1.36-6.59,1.92c-6.12.57-9.38-.51-9.38-.51l-.57-2.07s-.51.18-.3,1.67,2.47,6.22,2.36,8.16,1.43,5.17,9,4.33,6.82-8.78,6.82-8.78Z" style="fill:#263238"></path><path d="M362.39,427.54c-.15,1,0,1.73,3.73,3s9.44,1.17,14.2,0,8.88-5.44,10.85-8.41,6-5.78,8.7-7.25,3.23-2.06,3-2.94-1-3.19-1-3.19Z" style="fill:#ebebeb"></path><path d="M402.17,405c-.7-2.92-2-4.23-2-6.62s-1.33-2-1.33-2l-.12,1.35c-.12.89-.64,1.25-1.07,1.95-.94,1.55-.92,2.64-2.23,3.11s-1.56-1.78-3-1.76a2.2,2.2,0,0,0-1.45.76A3.91,3.91,0,0,0,391,400c-.43-1.41-4-1.63-6.58-2.05s-1.39,1.37-2.26,3.79-6.08,10.54-8.21,13.05a73.14,73.14,0,0,1-6.17,5.17c-3,2.21-4.09,2.88-5,3.46s-1.07,2.66-.58,3.88,7.57,4.12,15,2.35,9.56-4.94,12.1-8.9a20.63,20.63,0,0,1,7.71-7.08,16.73,16.73,0,0,0,5.17-3.64A10,10,0,0,0,402.17,405Z" style="fill:#407BFF"></path><path d="M373.92,414.76c2.13-2.51,7.34-10.62,8.21-13.05s-.29-4.21,2.26-3.79,6.15.64,6.58,2.05-.75,4.78-3.45,8.94-8,8.41-8,8.41Z" style="opacity:0.1"></path><path d="M363.35,424.67c1.35.32,2.84.65,2.9,1.16s.14,3.33.88,4.26a3.65,3.65,0,0,0,2.94,1.25,36.18,36.18,0,0,0,10.06-1,18.66,18.66,0,0,0,9-6c2.8-3.27,3.3-4.84,7-7.38s5.12-2.94,6.74-4.46a6.81,6.81,0,0,1,.32,1.17,4.68,4.68,0,0,1-1.68,1.42c-1.2.63-5.32,2.73-6.94,4.17a49.34,49.34,0,0,0-5,5.82,19.25,19.25,0,0,1-9.39,6c-4.22,1.09-10,1.34-13.86.07s-4-2-4.36-2.47a8.43,8.43,0,0,1-.29-3.73C361.87,424.39,362.38,424.44,363.35,424.67Z" style="fill:#455a64"></path><path d="M380.65,416.18c-2.75-1.83-5.09-2.46-6.12-2.18a2.21,2.21,0,0,0-1,1.11s2-.11,5.93,2.21C379.48,417.32,380.6,417.19,380.65,416.18Z" style="fill:#37474f"></path><path d="M376.57,411.14c2,0,4.45.8,7.4,2.45a1.42,1.42,0,0,0,1.1-1.14s-4-2.8-7.71-2.5C377.36,410,376.5,410.43,376.57,411.14Z" style="fill:#37474f"></path><path d="M379.15,407.17c1.65-.63,6.44,1.54,7.87,2.81a1.17,1.17,0,0,0,1.1-1.28s-3.89-3.28-8.06-3C380.06,405.67,378.91,406.2,379.15,407.17Z" style="fill:#37474f"></path><path d="M381.34,403.41c.82-.16,5.48-.08,8.27,2.33a1.42,1.42,0,0,0,.87-1.33A11.29,11.29,0,0,0,382,402,2.22,2.22,0,0,0,381.34,403.41Z" style="fill:#37474f"></path><path d="M328.06,354.21a3.63,3.63,0,0,1,3.27-.17c.46.24.7.56-.64,1l2.07,39c1.38.27,1.18.63.74.91a3.58,3.58,0,0,1-3.26.17,5.24,5.24,0,0,0-2.1-.83l-2.07-39A4.85,4.85,0,0,0,328.06,354.21Z" style="fill:#e0e0e0"></path><path d="M326.7,354.28a3.61,3.61,0,0,1,3.26-.17,1.16,1.16,0,0,1,.73.91l2.07,39a1.14,1.14,0,0,1-.63,1,3.57,3.57,0,0,1-3.26.17,1.13,1.13,0,0,1-.73-.9l-2.07-39A1.15,1.15,0,0,1,326.7,354.28Z" style="opacity:0.1"></path><path d="M332.15,382.54c0,1.53-4.54,1.62-4.63.06-.76.37-1.34.61-1.14,2.82s-3.85,5.54-4,7.52,4.3,4.62,8.52,4.66,6.55-5.59,6.35-7.31c-.36-3.2-3.65-2.83-3.77-5C333.44,384.16,333.27,382.77,332.15,382.54Z" style="fill:#263238"></path><path d="M329.84,353.64a1,1,0,0,1,.2,1.88,3.63,3.63,0,0,1-3.25.34A1.16,1.16,0,0,1,326,355a1.14,1.14,0,0,1,.57-1A3.63,3.63,0,0,1,329.84,353.64Z" style="fill:#455a64"></path><path d="M325.15,354.25a7,7,0,0,1,6.35-.33,2.22,2.22,0,0,1,1.41,1.76L333,358a2.22,2.22,0,0,1-1.21,1.91,7,7,0,0,1-6.35.33,2.24,2.24,0,0,1-1.42-1.76l-.12-2.32A2.24,2.24,0,0,1,325.15,354.25Z" style="fill:#e0e0e0"></path><path d="M331.5,353.92a2.22,2.22,0,0,1,1.41,1.76,2.24,2.24,0,0,1-1.22,1.9,7,7,0,0,1-6.35.34,1.94,1.94,0,0,1-.19-3.67A7,7,0,0,1,331.5,353.92Z" style="fill:#ebebeb"></path><path d="M325.26,340.89a5.19,5.19,0,0,1,4.71-.25,1.66,1.66,0,0,1,1,1.3l.73,13.72a1.68,1.68,0,0,1-.91,1.41,5.22,5.22,0,0,1-4.71.25,1.67,1.67,0,0,1-1.05-1.31l-.72-13.71A1.65,1.65,0,0,1,325.26,340.89Z" style="fill:#455a64"></path><path d="M329.14,340.18a1.44,1.44,0,0,1,.29,2.71,5.2,5.2,0,0,1-4.69.5,1.44,1.44,0,0,1-.29-2.71A5.23,5.23,0,0,1,329.14,340.18Z" style="fill:#455a64"></path><path d="M317.64,344.12c-.79-4.87-1.24-7.11-1.64-11.66-.63-7.08.53-9.68,4.36-14.25,6.74-8,9.52-10.93,9.52-10.93a23.72,23.72,0,0,1,11.08,3.4,16.57,16.57,0,0,1,3.81,3.42c4,4.73,5.7,12,5.7,12s-9,8.8-9.61,11.35a17.62,17.62,0,0,0-.73,5.08c0,1.27-1.06,2.89-2.8,4.15-4.12,3-11.25,3.76-15.91,1.69C319.09,347.33,317.81,345.78,317.64,344.12Z" style="fill:#f28f8f"></path><path d="M345.68,315.28c.12.18.25.37.36.55-5,3.77-12.11,11.63-12.06,18.8,0,4.91.39,10.3.63,13.54-.21.08-.42.17-.64.24-.24-3.22-.61-8.75-.64-13.78C333.27,327.21,340.54,319.14,345.68,315.28Z" style="fill:#9e6767"></path><path d="M342.43,322.2a1,1,0,1,0,.65-1.27A1,1,0,0,0,342.43,322.2Z" style="fill:#9e6767"></path><path d="M337.49,327.58a1,1,0,1,0,1.91-.62,1,1,0,0,0-1.26-.65A1,1,0,0,0,337.49,327.58Z" style="fill:#9e6767"></path><path d="M335.36,334.73a1,1,0,1,0,.65-1.27A1,1,0,0,0,335.36,334.73Z" style="fill:#9e6767"></path><path d="M335.17,342.63a1,1,0,1,0,.65-1.27A1,1,0,0,0,335.17,342.63Z" style="fill:#9e6767"></path><path d="M299.55,417.13c-.19,1-.12,1.73,3.59,3.17s9.38,1.57,14.2.59,9.1-5.05,11.2-7.93,6.27-5.5,9-6.86,3.32-1.92,3.14-2.8-.87-3.24-.87-3.24Z" style="fill:#ebebeb"></path><path d="M340.27,396.34c-.57-2.94-1.65-4.32-1.74-6.71a2.68,2.68,0,0,0-1.24-2,6.65,6.65,0,0,0-3-.89c.64.83,2.12,1,2.66,2.67-.11.56-.57.79-1,1.46-1,1.51-1,2.6-2.36,3s-1.49-1.84-3-1.89a2.29,2.29,0,0,0-1.48.71,3.87,3.87,0,0,0,.15-1.84c-.37-1.43-3.95-1.8-6.48-2.34s-1.45,1.31-2.42,3.69-6.54,10.26-8.77,12.68a74.3,74.3,0,0,1-6.39,4.9c-3.12,2.07-4.22,2.7-5.12,3.24s-1.19,2.6-.75,3.85,7.38,4.44,14.89,3,9.77-4.52,12.48-8.36a20.69,20.69,0,0,1,8-6.74,16.76,16.76,0,0,0,5.33-3.42A9.94,9.94,0,0,0,340.27,396.34Z" style="fill:#407BFF"></path><path d="M311.63,404.87c2.23-2.42,7.79-10.29,8.77-12.68s-.11-4.22,2.42-3.69,6.11.91,6.48,2.34-.95,4.74-3.84,8.78-8.39,8.06-8.39,8.06Z" style="opacity:0.1"></path><path d="M300.63,414.31c1.34.38,2.81.77,2.85,1.28s0,3.34.7,4.3a3.64,3.64,0,0,0,2.87,1.38,36.38,36.38,0,0,0,10.1-.55,18.75,18.75,0,0,0,9.25-5.59c2.94-3.14,3.51-4.69,7.33-7.06s5.24-2.72,6.93-4.16a7.65,7.65,0,0,1,.27,1.18,4.56,4.56,0,0,1-1.75,1.34c-1.22.58-5.43,2.5-7.11,3.87a48.38,48.38,0,0,0-5.27,5.59,19.16,19.16,0,0,1-9.65,5.6c-4.25.9-10.08.89-13.84-.53s-3.94-2.21-4.25-2.66a8.42,8.42,0,0,1-.13-3.75C299.17,414,299.67,414,300.63,414.31Z" style="fill:#455a64"></path><path d="M318.29,406.58c-2.67-1.94-5-2.68-6-2.44a2.2,2.2,0,0,0-1,1.06s2.05,0,5.83,2.48C317.07,407.68,318.19,407.59,318.29,406.58Z" style="fill:#37474f"></path><path d="M314.43,401.37c2,.07,4.41,1,7.28,2.77a1.42,1.42,0,0,0,1.15-1.09s-3.85-3-7.58-2.83C315.28,400.22,314.39,400.66,314.43,401.37Z" style="fill:#37474f"></path><path d="M317.18,397.51c1.67-.55,6.37,1.83,7.74,3.16a1.19,1.19,0,0,0,1.16-1.23s-3.74-3.45-7.93-3.39C318.15,396.05,317,396.54,317.18,397.51Z" style="fill:#37474f"></path><path d="M319.53,393.85c.83-.12,5.49.16,8.17,2.69a1.42,1.42,0,0,0,.92-1.29,11.29,11.29,0,0,0-8.34-2.79A2.2,2.2,0,0,0,319.53,393.85Z" style="fill:#37474f"></path><path d="M403.18,266.91c2.18,7.09,6,14.28,1.57,30.5-4.3,15.77-9.29,34.44-11.34,42.78.3-5.24-4.33-9.13-13.75-11.16s-18.62,1.45-19.06,4.38l2.3-17.8-18.53,18a22.66,22.66,0,0,0-12.83-13.28c-7.63-3-12.35-1.7-13.94-.29,0,0,23.11-37.06,25.09-42.05a20.81,20.81,0,0,0,.7-12.6Z" style="fill:#407BFF"></path><path d="M362.9,315.61l2.59-23.38s-12.26-2.33-18.53-8.34c.78,2.89,10.26,9.35,13.61,11.25l-.65,20.14-15.55,18.3Z" style="opacity:0.2"></path></g><g id="freepik--Top--inject-258"><g id="freepik--Arm--inject-258"><path d="M327.19,120.09c-6.21,1.61-12.34,9.87-10.34,17.58a14.4,14.4,0,0,0,5.48,8.06h0a7.09,7.09,0,0,0,1,.7,9.63,9.63,0,0,0,2,.76c5.26,1.46,12.68-.46,16.57-4.29a9.24,9.24,0,0,0,1.35-1.63,6.57,6.57,0,0,0,.58-1.11s0,0,0,0a14.32,14.32,0,0,0,.89-9.71C342.78,122.73,333.4,118.48,327.19,120.09Z" style="fill:#37474f"></path><path d="M336.15,116.94l.27,4.27.47,7.46a1.62,1.62,0,0,1-1.51,1.72h0a1.62,1.62,0,0,1-1.72-1.52l-.56-8.77-.19-3a4.48,4.48,0,0,0-3-3.67l-17.84-4.94h0l0,0,9.05,15.29a16.88,16.88,0,0,0-2.16,2.72l-9.68-16.35c-1.22-2.08-.66-3.38-.2-4s1.55-1.48,3.88-.84l17.84,4.95A7.71,7.71,0,0,1,336.15,116.94Z" style="fill:#263238"></path><path d="M332.6,111.16c.28-2.59.93-5.69.45-7.07s-1.06-2.49-2.58-2.6c-1-.07-2.1,0-2.93-1.29-1.07-1.62-2.72-1.71-4.28-1.09s-2.85-1.16-3.73-1.56-1.49-.86-4.14.87a21.7,21.7,0,0,0-4.14,3.21c-.66.66-.31,3.83-.43,5.8s.63,2.77,1.61,2.8c5.62,2.23,13.62-.47,12.78-.51,0,0-.62,1.42.68,1.4a2.85,2.85,0,0,0,2.55-1.43l2.88.82A8.35,8.35,0,0,1,332.6,111.16Z" style="fill:#ffa8a7"></path><path d="M319.22,128.2c.32-2.43,5.08-6,8.57-8.68,1.78-1.35,3.74-5.09,3.74-5.09a4.07,4.07,0,0,0-1.59-1c-2.82-.82-8.71-2.44-12.24-3.41-2.84,1.1-2.87-.78-2.87-.78a3.17,3.17,0,0,1-3.1.78c-4.41,2.7-3.86,3.65-6.8,13.51-3.09,10.39-10.11,27.05-12.48,35.76-1.6,5.85-.78,6.14,7.09,20.7,7.39,13.69,13.9,22.63,22.53,36.83a91.64,91.64,0,0,1,8.89,20l10.22-36.51c-.79-1.59-4.29-9.58-8.46-12.84-4.83-3.78-7.06-5.61-12.36-14.34-3.07-5.08-6.72-11.77-6.72-11.77S317.25,140.09,319.22,128.2Z" style="fill:#f28f8f"></path><path d="M326.15,116c-1.69-.26-.75-5.68-.34-8.61s-1.17-3.78-2.18-6.31-2.75-4.63-4.18-1.69,1.29,5.27-.38,7.31-5.51,10.23-5.26,12.39S326.15,116,326.15,116Z" style="fill:#f28f8f"></path></g><g id="freepik--Chest--inject-258"><path d="M338.67,254.43c-8.81-19.38-11-21.52-11.25-31.81a31.2,31.2,0,0,1,4.81-16.19c2.25-3.27,5.68-6.24,7.68-6.1,2.76.2,6.37-.15,10.78.35,15.77,1.77,23.26,2.76,23.26,2.76,4.88,1.43,12.65,11.74,17,23.77,4.38,12.23,11.78,32.68,14.59,47.24-16,15.07-54.82,12.23-62.2-.86C342.46,268,342.87,263.66,338.67,254.43Z" style="fill:#455a64"></path></g><g id="freepik--arm--inject-258"><path d="M374,203.44c9.94-.75,14-.22,20,6.69,3.52,4.07,4.57,4.47,11.59,11.23s7.23,6.72,11.93,11.33a32,32,0,0,1,4.14,4.68c1.34,2.5,2.83,9.08,4.35,17.43,2.16,11.83,4.3,25.57,4.3,25.57l-13.74,3.76c-1.11-12.28-6.61-24.15-11-36l-23.3-18.46S365.59,218.55,374,203.44Z" style="fill:#ffa8a7"></path><path d="M415,275.22c.7,3.19-1.23,6.61-1.17,11.2,0,4-.15,8,0,9.51-.23,2,2.87,1.38,4-1.28s.65-7.5,1.54-7.69,1.51,3.63,1.88,7-.72,7.05-1.43,10.53,1,4.69,2.11,4.84c.79.1,2.1-2.9,2.1-2.9a3,3,0,0,0,3.83-.73,27.4,27.4,0,0,0,5.65-8.84,23.22,23.22,0,0,0,0-14.49c-1.54-4.43-4.55-10.16-5.39-15.13Z" style="fill:#ffa8a7"></path></g><g id="freepik--Head--inject-258"><path d="M358.16,196.19c.67-4,8.9-9.72,10.81-16.68,2.49-9.1-.91-18.69-7.31-19.33-.69-6.25-10.59-10-16.83-9-5.4.63-12.82,2-16.78-2.61a7.59,7.59,0,0,0,1.07,7.78c-1.72-.35-3.51-1.38-5.22-1.35-.93,3.25,1.4,6.32,2.59,9.11-3.23,5.46-.57,12,5,14.67Z" style="fill:#263238"></path><path d="M340.93,206.37h0c-.7-3.36-1.28-7-1.28-7l18-12.34,2,15.33a1.29,1.29,0,0,1,0,.45c.22,3.88-4.11,8.9-10.33,15.41a64.3,64.3,0,0,0-8.28,10.27s-1.88-7.89-.9-14.12C340.79,210.4,341.28,208.11,340.93,206.37Z" style="fill:#ffa8a7"></path><path d="M356.27,187.49s-.33,6.21-3.94,9.57c-.71.67-3.42,3.46-12.28,4.65l-.4-2.37a34,34,0,0,0,6.75-1.05,20,20,0,0,0,4-1.78C354.36,194.36,355.62,188.61,356.27,187.49Z" style="fill:#f28f8f"></path><path d="M330.88,161.32c-.18.26.94,1.3,1.1,1.45a13.74,13.74,0,0,0,2.27,1.73,17.92,17.92,0,0,0,5.23,2.12,33.68,33.68,0,0,0,9.19.68.75.75,0,0,1,.42.07.71.71,0,0,1,.26.43,10.94,10.94,0,0,0,.95,2.79,6.64,6.64,0,0,0,2.95,2.22.57.57,0,0,1,.26.2.48.48,0,0,1,.06.29c.06,2.29-1.36,4.55-.8,6.78a2.23,2.23,0,0,0,.63,1.13,1.19,1.19,0,0,0,1.77-.21,45.9,45.9,0,0,0,2.58-4c.36-.5.77-1,1.17-1.43a5.71,5.71,0,0,1,1.74-1.47,4.17,4.17,0,0,1,3.32.13,4.91,4.91,0,0,1,2.64,3.75,10.33,10.33,0,0,1-2.16,7.73c-1.2,1.46-2.23,2.31-3.88,2.42-2.37.16-3-1.12-3-1.15h0l-1.39,1c-.88,2.52-2.22,6-4.54,7.94s-4.41,2.55-8.52,3.14-11.1-.38-13.3-1.44-5.69-3.3-4.44-17C326.93,164.11,330.46,161.92,330.88,161.32Z" style="fill:#ffa8a7"></path><path d="M341.76,177.42a1.76,1.76,0,0,0,1.49,2,1.81,1.81,0,1,0-1.49-2Z" style="fill:#263238"></path><path d="M336.56,188.75a1.38,1.38,0,0,0,1.16,1.57,1.41,1.41,0,1,0-1.16-1.57Z" style="fill:#9e6767"></path><path d="M342.49,172.27l4.25.12a2.24,2.24,0,0,0-2.14-2.24A2.07,2.07,0,0,0,342.49,172.27Z" style="fill:#263238"></path><path d="M329.08,169.8l4,1.47a2.06,2.06,0,0,0-1.19-2.74A2.26,2.26,0,0,0,329.08,169.8Z" style="fill:#263238"></path><path d="M328.76,175.13a1.74,1.74,0,1,0,2-1.57A1.78,1.78,0,0,0,328.76,175.13Z" style="fill:#263238"></path><path d="M337.35,176l-2.72,9.09-5.55-2.78a15.65,15.65,0,0,1,6.82-7.18C337.86,174.51,337.35,176,337.35,176Z" style="fill:#f28f8f"></path></g></g></g></g><g id="freepik--character-1--inject-258"><g id="freepik--character--inject-258"><g id="freepik--bottom--inject-258"><path d="M112.69,380.59c1.32-12.95.07-22.94,1.73-43.19h0c.24-5.19.58-10.75,1.07-15.69,1.66-16.6,4.47-22.22,4.8-25.42,0,0,1.14-25.88,3.23-62.25,1-17.12,6.86-24,11.22-33l50.5,3.21c2.32,22.1,2.88,71.5,2.11,94.61-.4,11.79-1.52,74.85-1.44,76.3.38,6.49-.07,7.18,2,9.4,4.26,4.65,10.49,9.13,15.87,13.23-.84,2-7.44,1.75-10.66.12a82.87,82.87,0,0,1-12-7.81c-4.42-3.34-9.31-6.13-10.06-11-.11-.74-.29-2.24-.29-2.24,0-2.86-10.27-44.11-11.66-53.81s1.17-22.68,1.17-22.68l-4.69-35.8s-4,21-7.91,35.27c-3.17,11.63-8.41,31.49-12,45.82h0c-3.53,16.52-8.38,28.21-9.38,36.5-.29,2-3.14,21.4-4.22,25.83s-11.16,4.29-11.6-3.4C110.15,399.47,112.44,383,112.69,380.59Z" style="fill:#9e6767"></path><path d="M155.57,264.57l4.8-25.6s16-1.4,21.88-6.61c0,0-7.55,9.73-18.39,11.07l-5.1,21.19,1.46,35.44Z" style="fill:#874c4c"></path><path d="M212.88,403.18c.28,0,.65,3-.88,4.21-1.78,1.43-6.95,3.74-13.72,2.78s-10.41-3-13.1-5.28-6.43-5.39-9.49-6.09c-2.85-.65-5.92-1.95-6.82-2.81s-.72-4.65-.72-4.65Z" style="fill:#263238"></path><path d="M170.74,376.83s-.51,0-.7.88c-.22,1-.5,4.06-1,5.77a29.58,29.58,0,0,0-.81,9.17c.34,1.94,5,3.36,7.93,4.5a38,38,0,0,1,9.53,6c3.15,2.59,9.82,5.24,14.24,5.37,6.75.21,11.15-1.49,12.53-3.81,1.72-2.87.43-4.57-7.27-8.16-1.46-.68-6.57-3.71-8.32-4.8a40.59,40.59,0,0,1-5.22-3.88,29.76,29.76,0,0,1-2.33-2.3,10.54,10.54,0,0,1-1.93-2.45c-.08-.2-.14-.43-.22-.64a10.62,10.62,0,0,1-.47-1.76c-.12-.62-.18-1.53-.79-1.92a5.41,5.41,0,0,0-2.77-.36,23.17,23.17,0,0,0-3,.36c-1.14.23-2.47.31-3.16,1.33a5.32,5.32,0,0,0-.68,2.7c0,.44,0,.88,0,1.32,0,.18.07.52-.2.44s-.54-.74-.63-1c-.21-.49-.34-1-.57-1.5a7.31,7.31,0,0,0-.94-1.6,7,7,0,0,0-1.21-1.23,13.39,13.39,0,0,1-1.31-.85A3,3,0,0,1,170.74,376.83Z" style="fill:#37474f"></path><path d="M206.46,397.16c-9.78.49-13,6.27-13.42,9.86a23.7,23.7,0,0,0,6.92,1.52c6.75.21,11.42-1.48,12.81-3.8C214.39,402,213.35,399.81,206.46,397.16Z" style="fill:#fafafa"></path><path d="M191.81,397a.46.46,0,0,1-.3-.11.44.44,0,0,1-.06-.65,11.67,11.67,0,0,1,8.89-3.21.45.45,0,0,1,.41.51.47.47,0,0,1-.53.4,10.84,10.84,0,0,0-8,2.9A.49.49,0,0,1,191.81,397Z" style="fill:#f0f0f0"></path><path d="M187.63,394.59a.5.5,0,0,1-.3-.11.45.45,0,0,1-.05-.65,11.63,11.63,0,0,1,8.88-3.22.46.46,0,1,1-.11.92,10.78,10.78,0,0,0-8,2.9A.55.55,0,0,1,187.63,394.59Z" style="fill:#f0f0f0"></path><path d="M183.78,391.82a.46.46,0,0,1-.36-.76,11.7,11.7,0,0,1,8.89-3.21.46.46,0,0,1,.41.51.47.47,0,0,1-.53.4,10.84,10.84,0,0,0-8,2.9A.5.5,0,0,1,183.78,391.82Z" style="fill:#f0f0f0"></path><path d="M180,389.06a.48.48,0,0,1-.3-.11.45.45,0,0,1-.07-.64c1.91-2.25,6.16-3.69,9.71-3.26a.47.47,0,0,1,.41.52.48.48,0,0,1-.53.4c-3.19-.39-7.16.93-8.85,2.92A.48.48,0,0,1,180,389.06Z" style="fill:#f0f0f0"></path><path d="M125.12,411.55c-.38,4.44-1.18,7.37-2.88,9.93s-4.81,3.3-7.92,2.46-7-3-7.84-6.85-1.25-6.51-.43-10.61Z" style="fill:#263238"></path><path d="M112.84,379c-1.29.06-1.82,6-2.73,12-1,6.38-3,9-3.86,14.22-1,6,0,8.68,2.07,12.37S118,425,122,419.94c3.22-4.16,3.47-8.85,3.35-14.85a129.91,129.91,0,0,1,.81-15.18c.37-4.49,1.52-9,.42-9.52-.1.66-.21,1.49-.32,2.14a10.16,10.16,0,0,1-.48,2.38c-.14.33-.43.68-.54.13a3.51,3.51,0,0,1,0-1.12c.24-1.65-.63-1.81-1.09-1.95-1-.3-5-.88-6-1s-4.37-.32-4.83.2a3.81,3.81,0,0,0-.48,1.73c-.13.9-.36,1.55-.38,1.27,0-.65.13-2.33.15-2.73s.11-.92.13-1.31S112.81,379.39,112.84,379Z" style="fill:#37474f"></path><path d="M105.8,408.67a14.61,14.61,0,0,0,2.16,9.19c2.09,3.68,10.33,7.48,14.27,2.38,2-2.54,2.55-5.58,2.89-8.69C123,407.48,109.48,405.36,105.8,408.67Z" style="fill:#fafafa"></path><path d="M122.49,405a.43.43,0,0,1-.16-.05s-5.94-2.56-11.78-1.42a.48.48,0,0,1-.56-.36.46.46,0,0,1,.37-.54,23.21,23.21,0,0,1,12.4,1.5.45.45,0,0,1,.21.62A.48.48,0,0,1,122.49,405Z" style="fill:#f0f0f0"></path><path d="M111,399a.46.46,0,0,1-.08-.9c5.82-1.73,12.15,1.27,12.39,1.4a.44.44,0,0,1,.18.62.49.49,0,0,1-.65.18s-6.22-2.94-11.64-1.32A.46.46,0,0,1,111,399Z" style="fill:#f0f0f0"></path><path d="M111.27,394.81a.49.49,0,0,1-.39-.32.46.46,0,0,1,.3-.58c6.41-2,12.41,1.23,12.63,1.37a.45.45,0,0,1,.14.64.49.49,0,0,1-.66.13c-.05,0-5.84-3.15-11.81-1.26A.75.75,0,0,1,111.27,394.81Z" style="fill:#f0f0f0"></path><path d="M111.7,390.66a.47.47,0,0,1-.39-.3.45.45,0,0,1,.29-.59c6-2,12.47,1.35,12.71,1.5a.44.44,0,0,1,.16.63.48.48,0,0,1-.66.15s-6.32-3.26-11.89-1.41A.57.57,0,0,1,111.7,390.66Z" style="fill:#ebebeb"></path><path d="M126.79,211.06c-4.46,10.21-7.74,18.06-7.84,42.07-.13,29.93.4,37.12.18,40.77s-2.59,10.12-5,28.05-.69,39.42-.69,39.42,1.26,2.93,8.37,3.73c6.56.75,9.88-1.55,9.88-1.55s9.95-34.78,12.73-45.54,11-46.19,11-46.19l3.54,29A79,79,0,0,0,159,329a290.53,290.53,0,0,0,7,29.65s5.38,3.21,11,2.67c9.13-.88,9.82-4,9.82-4s1.94-45.67,2.41-63.55,3.75-46.1-2.06-80.14Z" style="fill:#37474f"></path><path d="M155.38,271.82l6.78-34.22s12.42-.53,19.49-7.29c-3,7.3-13.3,12.2-17.79,13.12l-6,28.06,1,29.33Z" style="fill:#263238"></path></g><g id="freepik--top--inject-258"><path d="M213.16,179c-.76-.41-2.16.83-4,2.58A4.25,4.25,0,0,0,207.8,185a5.76,5.76,0,0,0,3.28-1.89A10,10,0,0,0,213.16,179Z" style="fill:#263238"></path><path d="M217.41,193.33c-.72-.23-1-.54,0-1.47s4.34-3.35,4.34-3.35l.83,1.4S218.69,193.61,217.41,193.33Z"></path><path d="M238.68,170.64c-.47-2.07-2.73-3.59-6.81-5.86h0a.39.39,0,0,0-.11-.06l-.57-.32h0c-6.78-3.47-40.12-18.51-45.51-20.61-8.51-3.33-11.42-2.58-18.11-3l12.64,26s24.77,7.75,35,10.9c-2.82,3.33-5.57,6.55-8.1,7.72l10,8.47c2.22-3.44,15.73-10.32,18.72-15C238,175.39,239.14,172.64,238.68,170.64Z" style="fill:#9e6767"></path><path d="M169.12,139.71c1.81,1.21,4.3-.74,12.29,1.38s39.12,17.84,43.14,19.59,16.31,5.93,14.22,11.33a9.74,9.74,0,0,0-10.06-4.95c-2.89.44-8.71,2.72-13.53,10.58l-.38.44-39.17-10.39Z" style="fill:#407BFF"></path><path d="M169.12,139.71c1.81,1.21,4.3-.74,12.29,1.38s39.12,17.84,43.14,19.59,16.31,5.93,14.22,11.33a9.74,9.74,0,0,0-10.06-4.95c-2.89.44-8.71,2.72-13.53,10.58l-.38.44-39.17-10.39Z" style="opacity:0.15"></path><path d="M213.56,175.24c-.37.43-1.36,1.63-1.74,2l3,.79c.15-.17,1.65-2.11,2.36-3.06a19.84,19.84,0,0,1,11.55-8C221.88,166.33,216.23,172.19,213.56,175.24Z" style="fill:#407BFF"></path><path d="M213.56,175.24c-.37.43-1.36,1.63-1.74,2l3,.79c.15-.17,1.65-2.11,2.36-3.06a19.84,19.84,0,0,1,11.55-8C221.88,166.33,216.23,172.19,213.56,175.24Z" style="opacity:0.25"></path><path d="M218.9,172.91c4.17-3.6,10.82-4.19,14.4-1.63s3.72,5.48,3.14,6.46l-.32.58s.34.32,1.19-1c1.34-2.1,2.94-4.49,1.38-7.95s-9.13-6.13-13.69-2.82S218.9,172.91,218.9,172.91Z"></path><path d="M216.29,186.36c-1.14-1-3.9-3.53-5.65-2.79-2.77,1.17-4.07,2.26-8.23,4.21-3,1.41-6.65,3.29-7.43,4.22-2,2.38-1.33,8.46-.53,11a2.33,2.33,0,0,0,3.23,1.47c.24.53.91,1.67,3,1.24.15.79,1.36,1.74,3.24,1.36.24.87,1.92,1.18,3,.67,1.57-.71,3.21-2.95,4.19-3.8s1.46-1.17,1.48-1.7c0-.73-.77-1.45-2.09-1.33a8.07,8.07,0,0,0,4-2.56,17.21,17.21,0,0,0,2.05-3.61,8.3,8.3,0,0,1,1.81-2.88c1.46-1.65-.72-4.1-1.9-5.26Z" style="fill:#9e6767"></path><path d="M210.59,201a6.74,6.74,0,0,0-1.27.86,4.29,4.29,0,0,0-.5.55c-.16.2-.27.42-.45.65l-.08.11-.13-.06a5.2,5.2,0,0,0-2.44-.33,3.42,3.42,0,0,1,2.59,0l-.21,0a4.84,4.84,0,0,1,1-1.19A3.71,3.71,0,0,1,210.59,201Z" style="fill:#874c4c"></path><path d="M207.69,205.18c.1-.41.24-.76.32-1.13s.15-.74.23-1.15a1.75,1.75,0,0,1,.11,1.23A1.94,1.94,0,0,1,207.69,205.18Z" style="fill:#874c4c"></path><path d="M204,207.11a8.35,8.35,0,0,1-.85-3.18,8.63,8.63,0,0,1,.3-3.28,23.37,23.37,0,0,0,.55,6.46Z" style="fill:#874c4c"></path><path d="M200.72,205.75a15.83,15.83,0,0,1-.9-3.86,12.82,12.82,0,0,1,.17-4,32,32,0,0,0,.18,3.92C200.29,203.16,200.52,204.44,200.72,205.75Z" style="fill:#874c4c"></path><path d="M197.68,204.51a11.4,11.4,0,0,1-.68-8,22.62,22.62,0,0,0,0,4A23.62,23.62,0,0,0,197.68,204.51Z" style="fill:#874c4c"></path><path d="M197.19,194.43a2,2,0,0,1,.16-1,2.19,2.19,0,0,1,.62-.8,3.78,3.78,0,0,1,1.8-.7c-.28.17-.56.32-.83.47a4.42,4.42,0,0,0-.77.5A2.87,2.87,0,0,0,197.19,194.43Z" style="fill:#874c4c"></path><path d="M200.28,195.63a2.29,2.29,0,0,1,.16-1,2.43,2.43,0,0,1,.62-.8,3.82,3.82,0,0,1,1.81-.7l-.83.47a4.59,4.59,0,0,0-.77.49A3,3,0,0,0,200.28,195.63Z" style="fill:#874c4c"></path><path d="M204,197.34a2.19,2.19,0,0,1,.17-1,2.16,2.16,0,0,1,.61-.79,3.75,3.75,0,0,1,1.81-.7l-.83.46a4.42,4.42,0,0,0-.77.5A3,3,0,0,0,204,197.34Z" style="fill:#874c4c"></path><g id="freepik--Watch--inject-258"><path d="M219.71,179.86l-4.2-1.41a3.18,3.18,0,0,0-2.81.56l-3.33,2.93a1,1,0,0,0-.41.93c0,.21.2,1,.25,1.24a1,1,0,0,0,.74.69l4.2,1.41a3.16,3.16,0,0,0,2.8-.56l3.33-2.93a1,1,0,0,0,.43-.9c0-.23-.21-1-.26-1.26A1,1,0,0,0,219.71,179.86Z" style="fill:#37474f"></path><path d="M209.37,181.94,212.7,179a3.18,3.18,0,0,1,2.81-.56l4.2,1.41c.86.3,1,1,.33,1.62l-3.33,2.93a3.14,3.14,0,0,1-2.8.57l-4.21-1.42A.87.87,0,0,1,209.37,181.94Z" style="fill:#455a64"></path><path d="M215.29,184.63a2.59,2.59,0,0,1-1.25,0l-4.21-1.42c-.27-.09-.44-.23-.47-.38s.07-.35.29-.54l3.33-2.93a2.51,2.51,0,0,1,1.14-.52,2.47,2.47,0,0,1,1.25,0l4.21,1.42c.27.09.44.22.47.38s-.07.34-.29.53l-3.33,2.94A2.51,2.51,0,0,1,215.29,184.63Z" style="fill:#263238"></path><path d="M213.44,185.49h-.08l-3-1a.15.15,0,0,1-.09-.18.14.14,0,0,1,.18-.09l3,1a.16.16,0,0,1,.1.19A.14.14,0,0,1,213.44,185.49Z" style="fill:#455a64"></path><path d="M217,184.88c.63.2,2,1.06,2.6,3.57s-.73,4.6-2.16,4.88c.5.34,1.72-.16,3.21-1.28l1.24-.94a3.71,3.71,0,0,0,1.5-3.18,5.34,5.34,0,0,0-.17-1.13,6.77,6.77,0,0,0-3.07-4.68Z" style="fill:#263238"></path></g><path d="M131.9,185.75c.89,4.42,1.45,7.88.64,11.44a75.79,75.79,0,0,1-3.22,11.12c6.83,6.25,24.41,8.87,34.89,7.53,14.4-1.84,21.71-10.48,21.71-10.48a33.81,33.81,0,0,1-.35-4.59c-.15-5.2.16-9.18.16-9.18Z" style="fill:#9e6767"></path><path d="M189.75,163.42c-7.61-11-22.19-22.66-22.19-22.66-2.27-.09-3.07-.43-12.81.55-5.29.53-13.8-1.26-17.38-3.09-2.78,2.25-5.56,10.47-7.34,16.15a34.15,34.15,0,0,0-1.41,17.78c1.58,8.55,2.46,8.47,4.07,18.45,14.07,6.75,46.69,6.76,53.07,1,0,0,.42-2.27.78-7.24C194.19,177.08,193.6,169,189.75,163.42Z" style="fill:#455a64"></path><path d="M167.89,182.08s-8.36,3.79-15.87,1.07c-8.12-3-9.64-10-9.09-12.83,0,0-3,11.53,7.26,15C160.2,188.77,167.89,182.08,167.89,182.08Z" style="fill:#37474f"></path><path d="M126.79,211.06c1.7-3.56,3-5.42,4.59-9.1,0,0,5.59,7,29.33,8.23,16.93.87,25-6,25-6,.63,4.44,1.4,9.45,1.4,9.45s-9.79,7.43-26.37,7C136.87,220,126.79,211.06,126.79,211.06Z" style="fill:#263238"></path><path d="M158,84c3.31,1.78,4.7,3.12,7.94.16,3.72-2.62,8.92-1.1,11.32,2.61.84,1.22,1.65,2.79,3.09,2.88.8,0,1.87-.4,3.34-.45a5.67,5.67,0,0,1,5.19,3.52c.37,1.25-.11,2.6-.35,3.9a3.46,3.46,0,0,0,1.13,3.43,2.06,2.06,0,0,0,3.07-1c1.18,1.16.71,3.42-.6,4.46a5.81,5.81,0,0,1-4.69.85c2.92.72,5.26,4.26,3.58,7.23-.75,1.3-2.21,2.14-2.65,3.59-.53,1.81.62,3.84.43,5.7a5.15,5.15,0,0,1-4.33,4.34,8.69,8.69,0,0,0-4.24,1.82c-1.61,1.32-2.46,3.49-4,4.92-7.63,6.6-11.29-3.89-18.59-1a16.12,16.12,0,0,0-2.75,1.71q-.56.39-1.14.75a3.07,3.07,0,0,0-1,.63,2.69,2.69,0,0,1-2.12.95,7.82,7.82,0,0,1-2.29-.4c-2.4-.69-4.92-1.56-6.43-3.61a17.84,17.84,0,0,1-1.27-2.21,7.42,7.42,0,0,0-3.29-3.46c-1.68-.71-3.75-.35-5.22-1.47a6,6,0,0,1-1.83-3.72,12,12,0,0,0-1.21-4.08,4.42,4.42,0,0,0-4.25-2,7.23,7.23,0,0,1,3-4c1-.6,2-.94,3-1.44a4.22,4.22,0,0,0,1.8-1.46,7.28,7.28,0,0,0,1.05-2.28c.08-.3.15-.61.21-.91.32-1.69.31-3.43.67-5.11a8.74,8.74,0,0,1,4.77-6.32c1.13-.46,2.35-.6,3.51-1a5.35,5.35,0,0,0,2.19-1.25c.26-.26.48-.56.75-.82a3,3,0,0,0,.58-.85,12.58,12.58,0,0,1,2.18-3.49C151.08,82.61,155,82.53,158,84Z" style="fill:#263238"></path><path d="M160.33,98.74a3.6,3.6,0,0,1-1.71.41,7.18,7.18,0,0,1-1.8-.49,8.79,8.79,0,0,0-3.69-.66,4.55,4.55,0,0,0-2.79,1,4.27,4.27,0,0,0-1.07,2.55,2.18,2.18,0,0,1-2.44,2,9,9,0,0,0-2.7.13c-1.78.59-1.92,2.73-1.57,4.3,0,.18.19-.06.2-.14,0-1.15-.13-2.64,1-3.34a5.18,5.18,0,0,1,2.79-.31c1.72,0,2.78-.58,3.19-2.31.29-1.22.53-2.19,1.79-2.71a6.41,6.41,0,0,1,3.73-.18c1.4.32,4.12,1.93,5.16.08C160.45,99,160.51,98.68,160.33,98.74Zm-1.19,2.1a5,5,0,0,1-2.52.13,8.86,8.86,0,0,0-2.7-.38,3.87,3.87,0,0,0-3.07,2.77,4.77,4.77,0,0,1-1.12,2.06c-.8.64-1.9.41-2.84.43-1.17,0-2.78.74-2.29,2.2.05.15.19,0,.2-.1.11-2.09,3.35-1,4.6-1.53s1.59-1.73,2.12-2.77a3.41,3.41,0,0,1,3.91-1.9c1.22.23,2.9.78,3.8-.44C159.29,101.22,159.39,100.77,159.14,100.84Zm-2.69,2.61a3.42,3.42,0,0,0-2.76,1A8.77,8.77,0,0,0,153,106a2.79,2.79,0,0,1-1.19,1.19c-1,.52-2.2.42-3,1.26a2.61,2.61,0,0,0-.6,2.57c.06.22.24,0,.23-.12a2.34,2.34,0,0,1,1.52-2.31c1-.35,2-.37,2.76-1.07a3.45,3.45,0,0,0,.79-1c.21-.42.33-.89.58-1.29a2.45,2.45,0,0,1,1.29-.94c.28-.1.57-.17.86-.25a3,3,0,0,1,.52,0c.05,0,.6,0,.6,0a3.51,3.51,0,0,0,.8-.12s.11,0,.12-.1-.05-.12-.12-.15a2.48,2.48,0,0,0-1.12-.14Z" style="fill:#455a64"></path><path d="M180.61,114.28c0-1.39.22-2.58.11-3.69-.64-6.52-4.1-7.12-7.62-7.76-5.34-1-10.41-2.56-13.16-6.19-.75,4.72-3.55,10.47-6.66,11.09,1,3.89.12,6.47-3.29,7.44-.68-4.11-5.24-4.29-8-2.17s-2.54,9.07,1,12.17,4.94,1.42,4.94,1.42L146.1,143s6.08,10.39,23.89,13.38c2.82-5.85-4.08-13.56-4.08-13.56l.89-6.12a12.91,12.91,0,0,0,7-.66c2-.79,6.7-3.65,7.49-15.94C181.41,118,180.62,116,180.61,114.28Z" style="fill:#9e6767"></path><polygon points="169.08 110.6 170.87 121.34 176.47 118.6 169.08 110.6" style="fill:#874c4c"></polygon><path d="M166.8,136.71c-3.37-.82-12.9-2.63-15.75-8.72a8.45,8.45,0,0,0,2.23,5.74c4.12,3.94,13.16,5.5,13.16,5.5Z" style="fill:#874c4c"></path><path d="M163.55,108.35l-3.92,2.34a2.39,2.39,0,0,1,.82-3.21A2.23,2.23,0,0,1,163.55,108.35Z" style="fill:#263238"></path><path d="M178.9,108.7l-4.14-2a2.21,2.21,0,0,1,3-1.12A2.42,2.42,0,0,1,178.9,108.7Z" style="fill:#263238"></path><path d="M165.46,114.44a1.78,1.78,0,1,1-1.65-1.89A1.78,1.78,0,0,1,165.46,114.44Z" style="fill:#263238"></path><path d="M178.29,113.45a1.78,1.78,0,1,1-1.65-1.89A1.79,1.79,0,0,1,178.29,113.45Z" style="fill:#263238"></path><path d="M173.19,126.79c-.88-.1-2.84-.55-2.72-1.35a5.34,5.34,0,0,0-.13-2.63c-.07-.18-.2.06-.19.18a5.58,5.58,0,0,1-5,5.65s-.07.1,0,.1a4.73,4.73,0,0,0,3.56-1c.53-.43.86-.88,1.63-.8,1.57.2,4,.79,5.08-.59A5,5,0,0,1,173.19,126.79Z" style="fill:#874c4c"></path><path d="M180.38,132a5.69,5.69,0,0,0-2.45-4.52,1.8,1.8,0,0,0-1.79-.23h0l-2.65,1.43,3.5,6.37,2.61-1.42h0A1.78,1.78,0,0,0,180.38,132Z" style="fill:#455a64"></path><path d="M175.32,128.93a5.63,5.63,0,0,1,2.45,4.51c0,1.64-1.21,2.27-2.6,1.42a5.66,5.66,0,0,1-2.45-4.52C172.76,128.7,173.93,128.07,175.32,128.93Z" style="fill:#37474f"></path><path d="M170.27,125.83l0,.85a1.2,1.2,0,0,0,.53,1l4.51,2.77,0-1.48Z" style="fill:#37474f"></path><polygon points="172.87 124.41 170.27 125.83 175.32 128.93 177.93 127.51 172.87 124.41" style="fill:#455a64"></polygon><path d="M182.37,130l.86-.44,1.92-.93c.7-.34,1.39-.69,1.93-.91l.37-.14a1,1,0,0,1,.29-.09.62.62,0,0,1,.34.13l0,.14a.58.58,0,0,1-.15.33.76.76,0,0,1-.27.14l-.37.16c-.53.22-1.28.44-2,.68l-2,.65-.93.29Z" style="fill:#e0e0e0"></path><path d="M182.34,132.63l.95.19,2.09.44c.76.16,1.52.3,2.08.46l.38.12a.91.91,0,0,1,.28.11.53.53,0,0,1,.19.31l0,.15a.59.59,0,0,1-.33.16,1.25,1.25,0,0,1-.3,0l-.38-.11c-.56-.15-1.28-.43-2-.69l-2-.73-.91-.35Z" style="fill:#e0e0e0"></path><path d="M181.24,134.94l.67.7c.4.43.93,1,1.45,1.56s1.06,1.13,1.43,1.59l.24.31a1.15,1.15,0,0,1,.17.26.62.62,0,0,1,0,.36l-.12.09a.52.52,0,0,1-.36-.05c-.08,0-.13-.13-.21-.22l-.26-.3c-.36-.45-.79-1.1-1.23-1.74l-1.22-1.75-.53-.81Z" style="fill:#e0e0e0"></path><g style="opacity:0.2"><path d="M182.37,130l.86-.44,1.92-.93c.7-.34,1.39-.69,1.93-.91l.37-.14a1,1,0,0,1,.29-.09.62.62,0,0,1,.34.13l0,.14a.58.58,0,0,1-.15.33.76.76,0,0,1-.27.14l-.37.16c-.53.22-1.28.44-2,.68l-2,.65-.93.29Z"></path><path d="M182.34,132.63l.95.19,2.09.44c.76.16,1.52.3,2.08.46l.38.12a.91.91,0,0,1,.28.11.53.53,0,0,1,.19.31l0,.15a.59.59,0,0,1-.33.16,1.25,1.25,0,0,1-.3,0l-.38-.11c-.56-.15-1.28-.43-2-.69l-2-.73-.91-.35Z"></path><path d="M181.24,134.94l.67.7c.4.43.93,1,1.45,1.56s1.06,1.13,1.43,1.59l.24.31a1.15,1.15,0,0,1,.17.26.62.62,0,0,1,0,.36l-.12.09a.52.52,0,0,1-.36-.05c-.08,0-.13-.13-.21-.22l-.26-.3c-.36-.45-.79-1.1-1.23-1.74l-1.22-1.75-.53-.81Z"></path></g><polygon points="176.7 127.13 174.93 128.09 175.79 128.62 177.56 127.66 176.7 127.13" style="fill:#37474f"></polygon><polygon points="174.93 128.09 176.7 127.13 176.69 127.46 175.21 128.27 174.93 128.09" style="fill:#263238"></polygon><polygon points="176.69 127.46 177.27 127.82 177.56 127.66 176.7 127.13 176.69 127.46"></polygon><g id="freepik--Jacket--inject-258"><path d="M121.48,221c-1.57,2.57-2,5.27-1.3,6.4s11.49,7.94,25.88,7.89l1.17-5.87Z" style="fill:#263238"></path><path d="M146.75,137.26a173.38,173.38,0,0,1,5.89,16.83c4.82,16.51,2,34.07-.22,49.22a231.21,231.21,0,0,1-5.19,26.08s-14.95-.81-25.75-8.42c-1.35-1.42-2-2.63,1.47-8.55s7.08-16.93,6.89-23.87a172.12,172.12,0,0,0-2-17.79L137.14,137a42.54,42.54,0,0,0,5,1.34A5.48,5.48,0,0,0,146.75,137.26Z" style="fill:#407BFF"></path><path d="M155.13,169.21c-.86-7.92-3.3-8.66-7.85-17.91A57.87,57.87,0,0,1,143,138.44s2.86-4.63,4.14-4.23C148.48,145.62,155.84,154.21,155.13,169.21Z" style="fill:#37474f"></path><path d="M183.72,224.63l-.15,5.73s5.3-1.61,7.9-4.31l-.23-5.68Z" style="fill:#263238"></path><path d="M166.7,137.41l-.79,5.42a115.19,115.19,0,0,1,11.72,14.11c8.05,11.5,5.92,22.49,6.28,30.57s-.19,37.12-.19,37.12a13.12,13.12,0,0,0,7.51-4c3.57-3.69,0-7.68-1.14-15.89s-2.15-18.17-.22-21.85,6.7-11.09,1.09-19.54S166.7,137.41,166.7,137.41Z" style="fill:#407BFF"></path><path d="M166.8,136.71c.69.11,3.11,4.31,5.68,8.41s8.76,12.81,9.58,20.61c-1.24-3.53-9-15.08-16.15-22.9Z" style="fill:#37474f"></path></g><path d="M122.51,48.29c.22-2.45.59-4.59.87-7.63s-.11-5.22-1.6-5.6-2.39,1.68-3.17,5.67c-1.25,6.39-2.16,11-2.77,11-1.51-2.47-2-3.09-4-2.15-1.33.63-1.34,2.69-1.34,2.69a2,2,0,0,0-2.6-.56,2.75,2.75,0,0,0-1.38,2.52s-.84-1-2.14.11a4.55,4.55,0,0,0-1.67,3.41l1.27-.38a2.86,2.86,0,0,0,.66,1.12c.52.55.79,2.06,1,3.3s.4,2.7,1.5,3.1a1.62,1.62,0,0,0,2.23-.91,4.88,4.88,0,0,0,.07-1.51s.46,1.82,2.06,1.71,1.73-1.57,1.87-2.5c.88.46,1.82.81,2.4.13s.84-3.82.84-3.82l2.59-.28s2.3-.07,2.49-1.8C122.1,52.85,122.27,51,122.51,48.29Z" style="fill:#9e6767"></path><path d="M138.24,137.71c-4.42-3.46-5.75-6-9.18-11.25-2.36-3.62-11.21-19.27-11.21-19.27s1.4-24,1.79-28.54c.5-5.85,1-6.58,2.39-8.83,2-3.09,3-4.54,2.88-6-.13-3.09-.52-7.51-.91-8.3a5.52,5.52,0,0,0-2.64-2,6.16,6.16,0,0,0-2.57-.47l-4.66,2.81s-.12,1.45.87,2a2.84,2.84,0,0,0,1.7.4s-.15,2.93-.84,3.47-1.2.66-2.16-.34c-.26,1.06-.59,2.69-1.85,2.76s-2.34-1.56-2.34-1.56-.5,2.84-1.44,2.81S105.64,56,105.64,56l-2.91,1.84c.23,2.49.5,8.64,2,13.09.51,1.56.34,3.76-.39,8.85s-1.92,9.64-4.94,24.63c-1.32,6.57-3.14,7.1,3.16,18.7,5.21,9.58,9.47,15.79,13.82,23.32a155.3,155.3,0,0,1,12,27.34c4.11.11,9.27-6.73,10.43-11.51C141.29,151.83,140.94,144.26,138.24,137.71Z" style="fill:#9e6767"></path><path d="M119.38,57.42a13.62,13.62,0,0,1-3.39.37,1.64,1.64,0,0,1-1.6-1.55c0-.53,4.68-3.09,4.68-3.09l2.29.31a5.57,5.57,0,0,0-2.38-.63c-.8.05-4.1,2.19-4.88,2.72s-.18,2.89,2.13,2.77l.23,0v.09a5.13,5.13,0,0,1-.6,2.55c-.25.48-.57,1-1.18.88a1.43,1.43,0,0,1-.71-.48,2.8,2.8,0,0,1-.39-.56,1.57,1.57,0,0,0-.34-.51l0,0s-.07,0-.07.1c0,.32,0,.64,0,1,0,1-.47,2.43-1.65,2.35a1.74,1.74,0,0,1-1.41-.85c-.23-.37-.4-.78-.65-1.14,0-.06-.14-.12-.19-.06a.13.13,0,0,0,0,.09,6.84,6.84,0,0,1-.16,2.21c-.15.41-.4.93-.86,1.06s-1.27-.34-1.61-.72c-.05-.07-.11-.13-.17-.2s-.05,0-.05,0a.24.24,0,0,0,0,.08,2.76,2.76,0,0,0,.2.47,1.66,1.66,0,0,0,2.11.66,1.88,1.88,0,0,0,1.16-1.72,2.09,2.09,0,0,0,1.84,1.08c1.66.12,2-1.13,2.11-2.48a1.7,1.7,0,0,0,.89.44,13,13,0,0,0-3.46,5.63,20.69,20.69,0,0,1,4.9-5.61,18.36,18.36,0,0,1,5.15-2.7S119.39,58.35,119.38,57.42Zm-1.72,2.8a.57.57,0,0,1-.14-.13,2,2,0,0,1-.29-.61,9.73,9.73,0,0,0-.35-1.2,23.36,23.36,0,0,0,2.33-.2,1.82,1.82,0,0,0,.71.9A16,16,0,0,0,117.66,60.22Z" style="fill:#874c4c"></path><path d="M140.79,138c-2.09-1.32-1.39-1.3-4.65-5s-4.21-4.71-10.16-13.39c-6.19-9-7.6-12.52-7.6-12.52l.51-17.26s-2.34,1.67-8.2.24S103,86.75,103,86.75s-2.91,10-4.81,18.74-.56,10,1.07,14,13.6,23.07,17.82,31.86,10,21.7,11.63,25.16c3.72,6.48,11.79-11.73,13.18-20.82A45.48,45.48,0,0,0,140.79,138Z" style="fill:#407BFF"></path><path d="M140.79,138c-2.09-1.32-1.39-1.3-4.65-5s-4.21-4.71-10.16-13.39c-6.19-9-7.6-12.52-7.6-12.52l.51-17.26s-2.34,1.67-8.2.24S103,86.75,103,86.75s-2.91,10-4.81,18.74-.56,10,1.07,14,13.6,23.07,17.82,31.86,10,21.7,11.63,25.16c3.72,6.48,11.79-11.73,13.18-20.82A45.48,45.48,0,0,0,140.79,138Z" style="opacity:0.15"></path><path d="M103.66,83.51,101.54,92a20.94,20.94,0,0,0,9.57,4c6.11,1,7.61-.34,7.61-.34l.42-9s-.78.56-7.11.06C106.07,86.19,103.66,83.51,103.66,83.51Z"></path></g></g></g></svg>