<?xml version="1.0" encoding="utf-8"?>
<!-- Generator: Adobe Illustrator 27.5.0, SVG Export Plug-In . SVG Version: 6.00 Build 0)  -->
<svg version="1.1" id="Ñëîé_1" xmlns="http://www.w3.org/2000/svg" xmlns:xlink="http://www.w3.org/1999/xlink" x="0px" y="0px"
	 viewBox="0 0 2000 2000" style="enable-background:new 0 0 2000 2000;" xml:space="preserve">
<rect style="fill:#FFFFFF;" width="2000" height="2000"/>
<g>
	<g>
		<path style="fill:#A1BDF0;" d="M1392.396,1028.797c-39.266,55.371-59.607,123.911-56.904,191.738
			c0.996,24.984,5.457,50.912,20.278,71.05c21.14,28.723,59.34,39.945,95.004,40.046c70.598,0.201,139.583-37.929,179.159-96.391
			c39.576-58.462,49.564-135.309,28.782-202.779c-13.85-44.964-59.47-118.414-114.458-115.769
			C1487.657,919.414,1422.644,986.143,1392.396,1028.797z"/>
		<path style="fill:#A1BDF0;" d="M1679.233,1030.911c8.65,13.976,24.252,24.127,40.685,23.769c5.02-0.11,10.092-1.197,14.431-3.724
			c7.26-4.228,11.711-11.936,15.286-19.539c6.589-14.016,11.388-29.213,11.088-44.698c-0.618-31.888-33.294-65.831-66.188-48.396
			C1664.733,954.119,1663.622,1005.687,1679.233,1030.911z"/>
		<path style="fill:#A1BDF0;" d="M1724.6,891.999c2.561,4.845,7.525,7.967,12.614,10.001c4.446,1.777,9.272,2.904,14.021,2.301
			c4.75-0.603,9.412-3.141,11.756-7.316c1.938-3.453,2.133-7.607,1.872-11.558c-0.281-4.247-1.089-8.598-3.44-12.146
			c-5.052-7.621-19.873-14.539-28.772-10.057C1723.633,867.766,1720.165,883.607,1724.6,891.999z"/>
		<path style="fill:#A1BDF0;" d="M1716.149,437.915c-54.383-101.872-174.11-151.954-252-180
			c-277.591-99.954-561.725,7.268-803.38,150.321C526.054,487.984,383.45,603.39,300.59,746.843
			c-76.844,133.039-81.021,322.614-34.617,471.182c10.195,32.641,54.264,161.252,142.48,253.274
			c265.504,276.954,705.502,104.384,951.485-117.784c94.891-85.704,174.776-191.183,233.786-308.529
			c79.641-100.386,135.439-222.988,157.938-352.976C1767.36,601.326,1758.904,518.006,1716.149,437.915z"/>
	</g>
	<g>
		<path style="fill:#FFFFFF;" d="M1501.978,1783.702H916.377c-43.928,0-79.538-35.61-79.538-79.538V263.921
			c0-43.928,35.61-79.538,79.538-79.538h585.601c43.928,0,79.538,35.61,79.538,79.538v1440.243
			C1581.516,1748.092,1545.906,1783.702,1501.978,1783.702z"/>
		<rect x="936.216" y="437.982" style="fill:#5876B3;" width="550.879" height="94.426"/>
		<rect x="936.216" y="558.18" style="fill:#6D93DE;" width="550.879" height="94.426"/>
		<rect x="936.216" y="678.379" style="fill:#A3BFF2;" width="550.879" height="94.426"/>
		<g>
			<path style="fill:#E8E8E8;" d="M1582.516,271.702v-7.781c0-43.928-35.61-79.538-79.538-79.538H917.377
				c-43.928,0-79.538,35.61-79.538,79.538v7.781H1582.516z"/>
		</g>
		<g>
			<path style="fill:#F56D11;" d="M1025.554,365.2c0,3.766-0.692,7.103-2.077,10.015c-1.385,2.913-3.268,5.398-5.647,7.458
				c-2.38,2.061-5.113,3.622-8.203,4.688c-3.09,1.065-6.339,1.598-9.748,1.598h-27.593v-73.404h27.699
				c3.409,0,6.658,0.516,9.748,1.545c3.09,1.03,5.807,2.557,8.15,4.581c2.344,2.024,4.208,4.511,5.593,7.458
				c1.385,2.948,2.077,6.339,2.077,10.174V365.2z M1013.196,341.549c0-2.77-0.445-5.114-1.332-7.032
				c-0.889-1.917-2.077-3.462-3.569-4.634c-1.491-1.172-3.161-2.024-5.007-2.557c-1.848-0.533-3.729-0.799-5.646-0.799h-13.211
				v51.67h13.211c1.774,0,3.586-0.266,5.434-0.799c1.846-0.533,3.516-1.385,5.007-2.557c1.491-1.172,2.717-2.717,3.676-4.634
				c0.959-1.917,1.438-4.262,1.438-7.031V341.549z"/>
			<path style="fill:#F56D11;" d="M1051.761,315.554v73.404h-12.145v-73.404H1051.761z"/>
			<path style="fill:#F56D11;" d="M1066.781,315.554h49.753v10.973h-37.608v20.136h32.175v10.973h-32.175v20.349h37.608v10.973
				h-49.753V315.554z"/>
			<path style="fill:#F56D11;" d="M1154.673,326.527v62.431h-12.146v-62.431h-20.349v-10.973h52.736v10.973H1154.673z"/>
			<path style="fill:#95BF4B;" d="M1240.433,315.554c3.551,0,6.641,0.676,9.269,2.024c2.627,1.35,4.794,3.09,6.499,5.221
				c1.704,2.13,2.983,4.528,3.835,7.191c0.853,2.664,1.278,5.31,1.278,7.937c0,2.628-0.479,5.273-1.438,7.937
				c-0.959,2.664-2.344,5.079-4.155,7.245c-1.812,2.167-4.014,3.925-6.605,5.273c-2.594,1.35-5.558,2.025-8.896,2.025h-19.283
				v28.552h-12.146v-73.404H1240.433z M1220.937,349.432h16.833c3.551,0,6.374-1.052,8.47-3.158
				c2.094-2.104,3.143-4.869,3.143-8.295c0-3.424-1.049-6.189-3.143-8.295c-2.096-2.104-4.919-3.158-8.47-3.158h-16.833V349.432z"/>
			<path style="fill:#95BF4B;" d="M1269.836,388.957v-73.404h12.146v62.431h37.82v10.973H1269.836z"/>
			<path style="fill:#95BF4B;" d="M1367.104,373.083h-27.38l-5.221,15.874h-12.891l25.676-73.404h12.357l25.676,73.404h-13.211
				L1367.104,373.083z M1343.239,362.536h20.349l-4.368-13.743l-5.646-18.644h-0.426l-5.434,17.898L1343.239,362.536z"/>
			<path style="fill:#95BF4B;" d="M1404.71,338.565v50.392h-12.145v-73.404h11.292l21.841,32.494l11.825,18.218h0.64v-50.711h12.145
				v73.404h-11.399l-22.159-33.026l-11.293-17.366H1404.71z"/>
		</g>
		<path style="fill:#333333;" d="M1502.979,1797.229H917.377c-51.317,0-93.066-41.749-93.066-93.065V263.921
			c0-51.316,41.749-93.066,93.066-93.066h585.602c51.316,0,93.065,41.75,93.065,93.066v1440.243
			C1596.044,1755.48,1554.295,1797.229,1502.979,1797.229z M917.377,197.911c-36.399,0-66.01,29.612-66.01,66.01v1440.243
			c0,36.398,29.612,66.011,66.01,66.011h585.602c36.398,0,66.011-29.612,66.011-66.011V263.921c0-36.398-29.612-66.01-66.011-66.01
			H917.377z"/>
		<g>
			<path style="fill:#6D93DE;" d="M1212.149,861.808c-48.77,0-93.828,16.332-130.425,44.01
				c-55.418,41.912-91.419,109.859-91.419,186.643c0,24.891,3.798,48.847,10.797,71.296l42.209-14.259l42.228-14.266
				c-4.2-13.47-6.497-27.836-6.497-42.771c0-46.07,21.613-86.821,54.864-111.968c21.958-16.607,48.981-26.424,78.243-26.424
				s56.285,9.817,78.243,26.424l26.097-37.346l26.085-37.328C1305.977,878.14,1260.918,861.808,1212.149,861.808z"/>
			<path style="fill:#95BF4B;" d="M1342.574,905.818l-26.085,37.328l-26.097,37.346c33.251,25.148,54.864,65.899,54.864,111.968
				c0,14.935-2.297,29.301-6.498,42.771c-17.313,55.521-67.401,95.621-126.609,95.621v46.13v46.131
				c98.681,0,182.193-66.821,211.047-159.357c7-22.45,10.797-46.406,10.797-71.296
				C1433.993,1015.678,1397.992,947.731,1342.574,905.818z"/>
			<path style="fill:#F56D11;" d="M1085.54,1135.233l-42.228,14.266l-42.209,14.259c28.854,92.537,112.366,159.357,211.046,159.357
				v-46.131v-46.13C1152.941,1230.854,1102.853,1190.754,1085.54,1135.233z"/>
		</g>
		<rect x="966.284" y="462.485" style="opacity:0.4;fill:#FFFFFF;" width="139.397" height="43.255"/>
		<rect x="1118.22" y="462.628" style="opacity:0.4;fill:#FFFFFF;" width="179.234" height="43.255"/>
		<rect x="966.284" y="703.964" style="opacity:0.4;fill:#FFFFFF;" width="139.397" height="43.255"/>
		<rect x="1118.22" y="703.645" style="opacity:0.4;fill:#FFFFFF;" width="179.234" height="43.255"/>
		<rect x="966.284" y="583.296" style="opacity:0.4;fill:#FFFFFF;" width="130.205" height="43.255"/>
		<rect x="1109.028" y="583.296" style="opacity:0.4;fill:#FFFFFF;" width="43.255" height="43.255"/>
		<rect x="1164.823" y="583.296" style="opacity:0.4;fill:#FFFFFF;" width="216.766" height="43.255"/>
		<g>
			<rect x="934.738" y="1474.553" style="fill:#6D93DE;" width="24.608" height="182.193"/>
			<rect x="972.329" y="1456.936" style="fill:#6D93DE;" width="24.607" height="199.811"/>
			<rect x="1009.92" y="1435.489" style="fill:#6D93DE;" width="24.608" height="221.257"/>
			<rect x="1047.51" y="1500.596" style="fill:#6D93DE;" width="24.608" height="156.151"/>
			<rect x="1085.101" y="1540.426" style="fill:#6D93DE;" width="24.608" height="116.321"/>
			<rect x="1122.692" y="1524.34" style="fill:#6D93DE;" width="24.608" height="132.406"/>
			<rect x="1160.283" y="1497.532" style="fill:#6D93DE;" width="24.608" height="159.215"/>
			<rect x="1197.874" y="1462.298" style="fill:#6D93DE;" width="24.608" height="194.449"/>
			<rect x="1235.464" y="1435.489" style="fill:#6D93DE;" width="24.608" height="221.257"/>
			<rect x="1273.055" y="1412.511" style="fill:#6D93DE;" width="24.608" height="244.236"/>
			<rect x="1310.646" y="1456.936" style="fill:#6D93DE;" width="24.608" height="199.811"/>
			<rect x="1348.237" y="1430.894" style="fill:#6D93DE;" width="24.608" height="225.853"/>
			<rect x="1385.828" y="1470.723" style="fill:#6D93DE;" width="24.608" height="186.023"/>
			<rect x="1423.418" y="1506.723" style="fill:#6D93DE;" width="24.608" height="150.023"/>
			<rect x="1461.009" y="1556.842" style="fill:#6D93DE;" width="24.608" height="99.905"/>
		</g>
		<path style="fill:#333333;" d="M1299.085,1723.34h-176.17c-1.904,0-3.447,1.543-3.447,3.447l0,0c0,1.904,1.543,3.447,3.447,3.447
			h176.17c1.904,0,3.447-1.543,3.447-3.447l0,0C1302.532,1724.884,1300.989,1723.34,1299.085,1723.34z"/>
		<path style="fill:#95BF4B;" d="M1205.425,1143.232c-2.201,0-4.313-0.908-5.829-2.521l-52.085-55.424
			c-3.025-3.22-2.868-8.282,0.352-11.309s8.282-2.868,11.309,0.352l45.574,48.496l67.052-89.187
			c2.656-3.532,7.672-4.241,11.202-1.587c3.531,2.655,4.242,7.671,1.587,11.202l-72.766,96.785
			c-1.419,1.887-3.599,3.051-5.956,3.181C1205.718,1143.229,1205.571,1143.232,1205.425,1143.232z"/>
	</g>
	<path style="fill:#333333;" d="M1594.682,572.468h-1.852V360.679h1.852c5.957,0,10.786,4.829,10.786,10.786v190.217
		C1605.468,567.639,1600.639,572.468,1594.682,572.468z"/>
	<path style="fill:#333333;" d="M1594.682,687.359h-1.852v-96.382h1.852c5.957,0,10.786,4.829,10.786,10.786v74.81
		C1605.468,682.53,1600.639,687.359,1594.682,687.359z"/>
	<g>
		<path style="fill:#95BF4B;" d="M283.593,618.74c0.06-1.511,0.181-3.118,1.085-4.329c2.335-3.129,7.686-0.944,9.429,2.55
			c-3.038-6.695-3.825-14.388-2.204-21.56c0.71-3.142,2.07-6.427,4.876-8.008c2.806-1.581,7.226-0.31,7.693,2.876
			c-0.98-6.314,0.442-12.972,3.915-18.335c2.126-3.283,5.289-6.229,9.172-6.691c3.201-0.381,6.557,1.122,8.403,3.765
			c1.846,2.642,2.104,6.31,0.646,9.185c3.015-2.685,8.529-1.503,10.178,2.181c1.313,2.933,0.287,6.354-0.992,9.302
			c-1.439,3.313-3.189,6.491-5.22,9.478c1.728-1.119,3.537-2.268,5.582-2.508c2.045-0.24,4.389,0.73,5.026,2.688
			c0.307,0.944,0.184,1.97-0.008,2.943c-1.447,7.34-6.472,13.383-11.324,19.078c2.655-3.081,8.241-1.309,10.04,2.338
			c1.799,3.647,0.853,8.036-0.611,11.83c-4.225,10.952-12.606,20.243-23.067,25.57C290.886,673.989,282.89,636.558,283.593,618.74z"
			/>
		<path style="fill:#4C6917;" d="M349.737,607.557c-5.518,5.596-9.607,12.417-13.503,19.243
			c-7.533,13.2-14.651,26.981-17.211,41.963c-0.279,1.635-0.456,3.481,0.552,4.799c1.147,1.502,3.375,1.673,5.211,1.224
			c4.759-1.165,8.106-5.303,11.086-9.192c3.995-5.214,7.99-10.428,11.985-15.643c10.838-14.146,22.081-29.269,23.979-46.988
			c0.555-5.179-1.087-12.886-7.629-9.274C359.16,596.475,353.823,603.413,349.737,607.557z"/>
		<path style="fill:#95BF4B;" d="M220.941,620.094c-1.521-1.469-3.331-2.93-5.445-2.919c-2.114,0.011-4.189,2.375-3.135,4.207
			c-3.557-3.571-8.357-5.879-13.367-6.428c-3.266-0.358-7.51,0.857-7.784,4.131c-0.237,2.833,2.306,3.775,3.67,5.678
			c-1.958-0.105-3.724-0.129-5.482,0.954c-1.194,0.735-2.213,1.921-2.33,3.319c-0.152,1.813,1.216,3.41,2.72,4.433
			c2.95,2.007,6.661,2.667,10.222,2.436c-1.735,0.479-3.328,1.665-4.016,3.328c-0.688,1.664-0.31,3.789,1.095,4.914
			c0.955,0.764,2.223,1.002,3.443,1.092c1.807,0.134,3.634-0.001,5.402-0.399c-1.272,1.077-0.796,3.297,0.495,4.351
			c1.291,1.054,3.051,1.269,4.706,1.466c4.413,0.526,8.836,1.228,13.028,2.705c2.532,0.892,5.16,2.084,7.791,1.551
			c0.643-0.13,1.269-0.363,1.917-0.465c0.627-0.099,1.546,0.224,2.083,0.065c0.686-0.205,0.985-0.984,1.15-1.618
			c0.427-1.636-0.027-3.561-0.407-5.159c-0.814-3.424-2.146-6.72-3.542-9.942C230.288,631.175,226.131,625.106,220.941,620.094z"/>
		<path style="fill:#F56D11;" d="M353.792,633.504c3.392-4.161,6.931-8.36,11.547-11.1s10.579-3.797,15.372-1.38
			c3.3,1.664,5.743,4.888,6.565,8.49c0.822,3.603,0.044,7.519-1.997,10.599c-1.246,1.88-2.913,3.436-4.564,4.972
			c-17.5,16.282-35.001,32.564-52.725,48.603c-3.586,3.245-7.323,6.565-11.915,8.085c-0.625,0.207-1.429,0.331-1.842-0.182
			c-0.278-0.346-0.247-0.839-0.193-1.279c1.163-9.465,6.892-18.84,11.552-26.983c5.155-9.009,11.025-17.591,17.254-25.887
			C346.392,642.718,350.059,638.084,353.792,633.504z"/>
		<path style="fill:#75963B;" d="M218.626,652.566c-0.786-1.291-1.574-2.697-1.491-4.207c0.215-3.899,5.881-5.038,9.266-3.091
			c-6.234-3.897-11.145-9.871-13.762-16.741c-1.146-3.01-1.831-6.499-0.368-9.369c1.463-2.869,5.848-4.256,8-1.859
			c-4.309-4.719-6.807-11.051-6.881-17.44c-0.045-3.91,0.96-8.115,3.94-10.648c2.456-2.088,6.083-2.692,9.083-1.512
			c3,1.18,5.244,4.093,5.619,7.295c1.026-3.904,6.273-5.97,9.686-3.813c2.716,1.717,3.754,5.134,4.318,8.298
			c0.634,3.556,0.934,7.171,0.894,10.783c0.821-1.888,1.692-3.846,3.263-5.177c1.571-1.331,4.06-1.82,5.674-0.541
			c0.777,0.616,1.243,1.539,1.621,2.456c2.855,6.915,2.011,14.729,1.119,22.157c0.507-4.035,6.141-5.649,9.658-3.606
			c3.516,2.043,5.156,6.223,6.035,10.193c2.539,11.461,0.696,23.837-5.072,34.062C255.263,694.558,227.897,667.798,218.626,652.566z
			"/>
		<g>
			<path style="fill:#DB1D24;" d="M302.598,622.703c-3.432-1.63-8.142-2.96-11.923-2.4c-3.54,0.525-7.224,2.127-10.544,0.789
				c-2.944-1.187-4.591-4.332-7.208-6.129c-2.536-1.743-5.798-2.082-8.863-1.814c-5.807,0.508-11.569,3.185-15.029,7.877
				c-2.64,3.58-3.798,8.081-4.034,12.523c-0.224,4.217,0.053,8.854,0.995,13.052c0.016,0.076,0.029,0.152,0.046,0.227l0.008-0.003
				c0.089,0.384,0.174,0.769,0.274,1.145c1.987,7.447,6.582,14.072,12.459,19.059c7.442,6.314,17.572,10.134,27.088,7.966
				c3.68-0.838,7.123-2.523,10.313-4.541c8.85-5.598,16.199-14.44,17.592-24.82C315.029,636.268,311.138,626.76,302.598,622.703z"/>
			<path style="fill:#4C6917;" d="M277.155,613.126c-0.198-3.017-1.411-5.577-3.325-8.042c3.977,1.651,6.759,5.841,6.736,10.148
				c-0.01,1.9-0.448,4.039,0.745,5.518c0.162-5.633,3.374-11.086,8.222-13.958c-0.972,5.688-3.653,11.072-7.606,15.276
				c2.334-1.508,5.434-1.753,7.975-0.629c2.542,1.124,4.447,3.582,4.901,6.323c-1.495-1.922-3.906-2.898-6.28-3.441
				c-2.374-0.542-4.832-0.74-7.14-1.518c2.333,2.336,2.653,6.402,0.713,9.073c-0.771-3.011-1.754-5.968-2.939-8.842
				c-4.958-0.129-9.799-2.662-12.732-6.661c2.521,3.438,9.687,0.966,12.779,4.119C277.524,618.47,277.32,615.643,277.155,613.126z"
				/>
		</g>
		<path style="fill:#372320;" d="M621.076,1869.394c3.044,0.005,6.088,0.01,9.133,0.015c0.109-8.685,1.073-17.36,2.875-25.857
			c5.173,10.713,10.345,21.427,15.518,32.14c1.444,2.991,3.012,6.126,5.783,7.957c2.191,1.447,4.872,1.896,7.468,2.285
			c15.197,2.277,30.531,3.644,45.892,4.092c3.785,0.11,18.556,2.374,12.445-3.754c-3.907-3.917-11.668-6.159-16.872-7.475
			c-3.708-0.938-7.572-1.507-10.96-3.282c-6.127-3.209-9.643-9.736-12.801-15.89c-8.722-16.998-17.444-33.996-26.166-50.994
			c-7.461-3.165-24.649-8.693-32.432-4.166c-4.976,2.894-5.454,12.189-5.591,17.091
			C614.916,1837.674,619.257,1853.482,621.076,1869.394z"/>
		<path style="fill:#372320;" d="M548.409,1882.126c3.044,0.005,6.088,0.01,9.133,0.015c0.109-8.685,1.073-17.36,2.875-25.857
			c5.173,10.713,10.345,21.427,15.518,32.14c1.444,2.991,3.012,6.126,5.783,7.957c2.191,1.447,4.872,1.896,7.468,2.285
			c15.198,2.277,30.531,3.644,45.892,4.091c3.785,0.11,18.556,2.374,12.445-3.754c-3.907-3.917-11.668-6.159-16.872-7.475
			c-3.708-0.938-7.572-1.507-10.96-3.282c-6.127-3.209-9.643-9.736-12.801-15.89c-8.722-16.998-17.444-33.996-26.166-50.994
			c-7.461-3.165-24.649-8.693-32.432-4.166c-4.976,2.894-5.454,12.189-5.592,17.091
			C542.25,1850.406,546.59,1866.214,548.409,1882.126z"/>
		<path style="fill:#FC946C;" d="M629.042,1807.625c-0.195,3.822-0.66,7.843,0.946,11.318c1.662,3.596,5.331,5.948,9.165,6.946
			c3.834,0.998,7.864,0.825,11.818,0.578c1.233-0.077,2.531-0.183,3.55-0.881c2.497-1.711,1.781-5.499,0.922-8.401
			c-4.987-16.846-3.279-32.334-2.189-52.505c-5.671-1.495-10.188,1.147-14.666,4.934c-4.289,3.627-9.954,10.89-11.074,16.551
			c-0.607,3.071,0.867,6.923,1.205,10.063C629.126,1800.011,629.236,1803.825,629.042,1807.625z"/>
		<g>
			<path style="fill:none;" d="M587.446,717.135c16.007,66.16,8.537,130.186,13.872,196.347c0,3.08,2.556,12.461,3.603,20.324
				c0.07,0.017,0.142,0.033,0.213,0.05c-0.484-8.874-1.704-21.721-1.704-24.757C598.094,842.94,603.453,783.295,587.446,717.135z"/>
			<path style="fill:#F5B9B3;" d="M677.605,670.829c-6.116-17.051-13.909-33.505-23.702-48.748
				c-5.856-9.114-13.613-23.108-23.335-27.718c-11.011-5.221-28.983-4.752-40.961-4.958c-10.977-0.189-22.769,1.139-33.618,0.978
				c-6.436-0.096-19.689-4.818-23.659,2.292c-1.877,3.362-1.467,7.499-0.77,11.286c3.208,17.418,11.248,33.497,18.424,49.688
				c22.418,50.584,37.136,104.876,40.124,160.124c1.846,34.134-0.716,68.877,7.422,102.078
				c5.957,24.301,29.185,22.928,50.436,21.259c11.209-0.881,28.511-1.725,34.725-12.936c4.721-8.518,7.243-22.292,9.984-31.669
				c8.5-29.078,8.216-59.958,6.77-89.943c-1.777-36.851-5.199-73.849-14.857-109.457C682.554,685.6,680.235,678.159,677.605,670.829
				z"/>
			<path style="fill:#F5F5F5;" d="M605.294,937.475c-0.033-1.09-0.088-2.311-0.16-3.618c-0.07-0.017-0.142-0.033-0.213-0.05
				C605.092,935.08,605.221,936.313,605.294,937.475z"/>
			<path style="fill:#F5F5F5;" d="M605.228,941.783c0.161-1.237,0.167-2.704,0.066-4.308
				C605.352,939.393,605.342,940.911,605.228,941.783z"/>
		</g>
		<path style="fill:#FC946C;" d="M555.48,1814.709c-0.195,3.822-0.66,7.843,0.946,11.318c1.662,3.596,5.331,5.948,9.165,6.946
			s7.864,0.825,11.818,0.578c1.233-0.077,2.531-0.183,3.55-0.881c2.497-1.711,1.781-5.499,0.922-8.402
			c-4.987-16.846-5.172-35.084-0.53-52.028c-5.671-1.495-11.847,0.67-16.325,4.457c-4.289,3.627-9.954,10.89-11.074,16.551
			c-0.607,3.071,0.867,6.923,1.205,10.063C555.564,1807.095,555.674,1810.909,555.48,1814.709z"/>
		<path style="fill:#5876B3;" d="M735.943,1094.185c-3.585-51.572-13.778-86.587-35.596-134.438
			c-7.815-17.138-6.697-62.005-7.144-69.038c-15.866,2.571-40.968,7.697-69.066,7.356c-24.778-0.3-50.267,4.495-67.955-14.438
			c18.097,16.072,13.113,51.37,5.566,65.635c-7.694,14.544-20.308,23.741-30.219,36.323c-8.823,11.201-17.11,24.884-23.432,37.732
			c-16.582,33.698-19.404,72.455-18.685,110.005c1.174,61.367,10.988,149.947,20.779,210.54
			c23.974,148.362-4.277,264.475,35.297,434.279c0.803,4.055,2.109,8.23,4.103,11.857c4.28,7.786,15.692,10.986,23.784,12.423
			c1.557,0.276,3.161,0.487,4.711,0.176c1.55-0.311,3.056-1.228,3.701-2.672c0.422-0.946,0.442-2.016,0.455-3.052
			c0.055-4.376,0.215-8.744,0.444-13.11c0.612-11.637,1.718-23.25,2.646-34.911c1.089-13.69,2.284-27.371,3.51-41.05
			c1.501-16.746,3.055-33.487,4.625-50.227c1.803-19.228,3.628-38.453,5.45-57.679c0.483-5.1,0.961-10.2,1.444-15.3
			c0.277,9.35,0.633,18.698,1.08,28.038c1.604,33.51,4.353,66.965,8.242,100.288c1.497,12.829,3.163,25.639,4.997,38.424
			c1.353,9.426,2.687,19.054,5.754,28.119c3.994,11.801,19.247,15.25,30.51,14.953c0.802-0.021,1.637-0.088,2.325-0.5
			c1.328-0.797,1.649-2.55,1.798-4.092c0.763-7.889,0.79-15.77,1.016-23.687c0.24-8.391,0.544-16.781,0.908-25.168
			c0.729-16.76,1.7-33.508,2.881-50.242c2.362-33.457,5.563-66.85,9.343-100.175c3.784-33.355,8.147-66.642,12.829-99.883
			c4.688-33.279,9.696-66.513,14.768-99.736c2.588-16.953,5.192-33.903,7.78-50.855
			C716.037,1265.069,741.204,1169.883,735.943,1094.185z"/>
		<path d="M497.681,1239.638l1.822,26.127c0,0,62.709,6.429,98.961-10.168C598.464,1255.597,545.17,1258.021,497.681,1239.638z"/>
		<path style="fill:#FC946C;" d="M553.077,591.152c-0.799,1.057-1.678,2.223-1.59,3.545c0.089,1.341,1.146,2.391,2.16,3.273
			c16.652,14.491,40.68,20.012,61.987,14.242c1.176-0.318,2.386-0.692,3.293-1.505c1.261-1.13,1.709-2.889,2.076-4.542
			c3.576-16.098,5.393-32.587,5.41-49.077c0.002-2.454-0.047-4.972-0.954-7.252c-0.919-2.31-2.648-4.194-4.403-5.955
			c-8.344-8.379-45.967-44.584-53.768-25.658c2.588,14.576,0.733,30.109-1.052,40.319
			C564.195,570.213,560.279,581.615,553.077,591.152z"/>
		<path d="M626.242,565.179c0.099-2.696,0.168-5.394,0.171-8.092c0.002-2.454-0.047-4.972-0.954-7.252
			c-0.919-2.31-2.648-4.194-4.403-5.955c-7.12-7.15-37.871-34.931-50.907-31.055C577.237,540.258,604.477,559.226,626.242,565.179z"
			/>
		<path style="fill:#372320;" d="M703.891,484.698c0.754-0.476,1.468-0.91,2.13-1.274c4.135-2.276,8.467-4.739,10.852-8.812
			c3.64-6.218,1.601-14.284-2.053-20.494c-3.654-6.21-8.79-11.529-11.802-18.075c-2.424-5.268-3.355-11.078-4.315-16.797
			c-1.895-11.277-4.045-22.658-8.85-33.035c-4.805-10.377-12.586-19.795-23.068-24.366c-1.484-0.647-3.239-1.183-4.666-0.419
			c-0.829,0.444-1.39,1.255-1.866,2.066c-2.935,5.003-3.787,10.953-3.999,16.749c-0.572,15.658,3.106,31.058,7.605,45.943
			c3.844,12.72,3.339,26.127,5.576,39.361c0.942,5.57,2.013,11.243,4.793,16.161c2.404,4.251,7.778,10.216,13.03,10.62
			C692.379,492.72,698.984,487.798,703.891,484.698z"/>
		<path style="fill:#372320;" d="M488.714,484.044c0.022,4.248,0.186,8.729,2.424,12.34c1.7,2.744,4.422,4.681,7.159,6.392
			c18.54,11.593,41.924,21.894,67.807,15.136c-10.325-16.179-17.18-38.694-18.715-57.825c-2.449-30.52-4.451-61.311-0.549-91.679
			c0.562-4.373-0.99-17-2.005-21.292C483.685,344.996,488.606,463.42,488.714,484.044z"/>
		<path style="fill:#FC946C;" d="M695.86,422.795c1.107-0.154,2.261-0.135,3.31,0.251c2.369,0.871,3.691,3.353,4.659,5.684
			c2.782,6.704,4.416,14.172,2.773,21.242c-1.643,7.07-7.158,13.554-14.327,14.687c-0.769,0.122-1.599,0.173-2.285-0.195
			c-0.589-0.316-0.984-0.894-1.341-1.459C681.988,452.437,677.602,425.333,695.86,422.795z"/>
		<path style="fill:#FC946C;" d="M692.569,452.545c-0.481-11.274-1.44-22.614-4.531-33.466
			c-3.091-10.852-12.108-31.545-20.341-39.262c-11.887-11.141-26.867-16.093-43.124-17.164
			c-43.388-2.861-66.297,19.239-70.564,23.748c-11.315,11.956-16.608,29.905-17.349,45.977c-0.424,9.19,0.282,18.238,1.962,27.061
			l-0.187-0.012c1.019,5.497,2.471,10.905,4.39,16.108c5.205,15.601,11.07,29.782,21.4,42.961
			c3.207,4.091,10.113,10.642,14.168,13.895c4.295,3.445,20.979,13.759,44.712,18.965c20.105,4.41,41.543-7.142,53.797-23.68
			c4.366-5.893,7.633-12.483,9.89-19.432c2.337-5.33,3.259-11.574,4.234-17.645C693.043,478.031,693.11,465.23,692.569,452.545z"/>
		<path style="fill:#DF5E4F;" d="M626.768,434.157c-1.723,9.451-1.344,19.143-0.958,28.742c0.232,5.776,2.483,11.992,5.295,17.025
			c1.541,2.758,3.797,5.48,6.912,6.002c3.615,0.605,6.712-1.301,9.51-3.667c1.44-1.218,3.293-4.362,3.716-6.199
			c0.59-2.564-1.252-3.84-2.805-5.963c-4.479-6.124-8.255-12.759-11.247-19.73c-1.533-3.571-2.86-7.229-3.971-10.953
			c-0.489-1.64-1.078-8.452-2.804-9.092c-0.946-0.351-2.038,0.181-2.641,0.99C627.173,432.119,626.953,433.143,626.768,434.157z"/>
		<path style="fill:#FFFFFF;" d="M660.436,433.505c-4.345,1.573-7.842,6.195-9.726,10.347c-1.498,3.301-1.907,6.974-0.127,10.132
			c0.772,1.369,3.705,2.915,6.184,3.004c8.028,0.285,17.338-1.183,22.322-8.16c2.648-3.707,3.875-9.085,1.466-12.952
			C676.97,430.12,666.454,431.327,660.436,433.505z"/>
		<path style="fill:#FFFFFF;" d="M607.87,449.194c-3.657-2.677-8.335-3.599-12.866-3.677c-6.587-0.114-13.835,1.858-17.409,7.392
			c-0.716,1.109-1.27,2.375-1.257,3.694c0.018,1.797,1.071,3.415,2.244,4.776c4.254,4.938,10.675,7.937,17.192,8.032
			c5.214,0.076,13.378-1.999,16.523-6.66C615.214,458.427,611.536,451.877,607.87,449.194z"/>
		<path style="fill:#DF5E4F;" d="M573.932,449.592c-0.271,0-0.541-0.102-0.749-0.307c-0.42-0.414-0.425-1.089-0.011-1.509
			c4.849-4.919,12.981-8.966,19.338-9.622c7.127-0.735,14.131,2.219,17.834,7.529c0.337,0.483,0.218,1.148-0.265,1.486
			c-0.484,0.336-1.149,0.218-1.486-0.265c-3.266-4.683-9.493-7.29-15.864-6.627c-5.819,0.601-13.574,4.468-18.038,8.997
			C574.483,449.486,574.207,449.592,573.932,449.592z"/>
		<path style="fill:#DF5E4F;" d="M648.745,441.624c-0.106,0-0.215-0.016-0.321-0.05c-0.562-0.177-0.874-0.776-0.697-1.338
			c0.881-2.793,2.683-5.545,5.357-8.179c4.776-4.703,10.573-7.176,15.908-6.802c3.7,0.264,7.322,1.924,9.937,4.554
			c0.416,0.418,0.414,1.093-0.004,1.509c-0.418,0.417-1.093,0.415-1.509-0.004c-2.257-2.27-5.383-3.702-8.577-3.93
			c-4.721-0.337-9.919,1.92-14.257,6.194c-2.423,2.387-4.045,4.843-4.82,7.3C649.619,441.332,649.198,441.624,648.745,441.624z"/>
		<path d="M612.798,455.788c-3.866-12.013-17.226-8.064-15.021,4.113C600.907,470.572,616.457,467.843,612.798,455.788z"/>
		<path d="M681.8,438.659c-2.896-10.213-16.94-7.41-14.754,4.344c1.687,5.601,7.039,7.246,10.954,5.721
			C681.282,447.444,682.912,442.583,681.8,438.659z"/>
		<path style="fill:#DF5E4F;" d="M564.992,482.819c-2.68,4.455-2.2,10.009-0.332,14.86c1.302,3.38,3.911,6.127,6.308,7.978
			c5.417,4.183,11.564,6.398,18.393,6.859c6.828,0.462,14.325-3.214,16.323-9.76c0.756-2.476,0.688-5.126,0.43-7.702
			c-0.403-4.019-1.299-8.104-3.553-11.456C594.744,471.972,572.655,470.084,564.992,482.819z"/>
		<path style="fill:#DF5E4F;" d="M675.689,461.323c-2.99,1.422-5.825,3.497-7.298,6.462c-0.583,1.173-0.935,2.451-1.131,3.746
			c-0.77,5.085,0.997,10.52,4.709,14.08c3.711,3.56,9.294,5.097,14.271,3.806c1.58-0.41,3.146-1.126,4.187-2.383
			c1.467-1.771,1.64-4.247,1.746-6.544c0.202-4.371,0.405-8.742,0.607-13.113c0.162-3.504,0.396-7.281-3.029-8.687
			C686.038,457.165,679.031,459.734,675.689,461.323z"/>
		<path d="M598.913,413.194c3.632-0.699,7.336-1.075,11.058-1.13c0.43-0.006,0.877-0.005,1.265,0.181
			c0.902,0.433,1.089,1.616,1.125,2.615c0.063,1.778,0.017,3.561-0.14,5.333c-0.344,3.902-4.008,5.399-7.458,5.767
			c-14.061,1.503-27.899,5.077-40.929,10.571c-0.7,0.295-1.583,0.572-2.155,0.072c-0.589-0.514-0.402-1.467-0.093-2.185
			c2.699-6.27,10.784-11.104,16.563-14.145C584.646,416.856,591.717,414.578,598.913,413.194z"/>
		<path d="M644.049,414.598c2.629,2.355,6.341,2.276,9.864,1.659c10.325-1.811,21.03-1.426,31.198,1.122
			c-0.857-3.567-3.586-6.461-6.761-8.299c-7.73-4.474-18.489-4.478-27.213-3.989c-2.815,0.158-6.685,0.341-9.038,2.121
			c-2.081,1.575-0.307,4.646,0.951,6.3C643.362,413.921,643.695,414.281,644.049,414.598z"/>
		<g>
			<path style="fill:#372320;" d="M684.535,376.306c-0.257-4.756-2.684-11.178-4.069-15.735
				c-12.442-40.935-40.286-43.146-55.691-43.146c-19.877,0-44.682,5.994-68.93,21.796c-22.076,14.386-42.269,35.273-43.865,61.574
				c-1.096,18.063,3.116,32.2,9.647,49.076c3.293-4.634,10.644-4.59,15.302-1.331c4.657,3.259,7.196,8.72,9.237,14.025
				c4.244-2.3,3.447-8.484,2.46-13.21c-3.844-18.411-1.047-38.135,7.762-54.752c2.027,8.354,4.945,16.491,8.689,24.229
				c2.904-1.86,5.807-3.719,8.711-5.579c-0.923-10.272-1.846-20.543-2.769-30.815c4.055,9.958,7.606,20.121,10.635,30.437
				c0.137-9.805-0.265-19.617-1.204-29.378c2.97,8.792,6.835,17.282,11.516,25.296c23.101-6.832,47.187-10.326,71.278-10.338
				c0.767-7.007,0.772-14.097,0.016-21.105c3.425,7.653,6.216,15.589,8.337,23.7c3.832-0.316,7.664-0.633,11.496-0.95
				C684.583,392.179,684.965,384.256,684.535,376.306z"/>
		</g>
		<path d="M611.497,456.217c-0.365,0-0.72-0.187-0.919-0.524c-2.205-3.725-5.372-6.509-8.689-7.639
			c-3.7-1.259-7.434-1.613-11.416-1.082c-6.56,0.875-12.987,3.673-18.095,7.88c-0.455,0.374-1.127,0.309-1.502-0.146
			c-0.375-0.454-0.31-1.127,0.146-1.502c5.411-4.457,12.219-7.421,19.169-8.348c4.315-0.576,8.367-0.19,12.385,1.177
			c3.848,1.31,7.342,4.355,9.838,8.572c0.3,0.507,0.132,1.162-0.375,1.462C611.869,456.168,611.682,456.217,611.497,456.217z"/>
		<path d="M649.631,452.819c-0.559,0-1.028-0.435-1.064-1c-0.384-6.124,2.836-12.403,8.404-16.388
			c5.928-4.242,12.956-5.08,17.82-5.012c5.042,0.058,8.854,1.15,11.657,3.34c0.464,0.363,0.546,1.034,0.184,1.498
			c-0.364,0.464-1.034,0.545-1.498,0.184c-2.419-1.891-5.811-2.836-10.367-2.888c-4.528-0.05-11.094,0.708-16.553,4.614
			c-4.899,3.506-7.85,9.206-7.517,14.519c0.037,0.588-0.41,1.095-0.998,1.132C649.676,452.818,649.654,452.819,649.631,452.819z"/>
		<path style="fill:#FC946C;" d="M542.401,451.153c-3.46-3.566-8.263-6.156-13.219-5.798c-8.208,0.592-13.926,8.986-15.032,17.14
			c-1.712,12.621,5.321,25.957,16.703,31.673c5.458,2.741,12.501,3.637,17.385-0.03c4.176-3.136,5.665-8.714,6.091-13.919
			C555.169,469.97,549.5,458.47,542.401,451.153z"/>
		<path style="fill:#DF3521;" d="M623.042,510.746c1.412,1.745,2.837,3.503,4.564,4.937c2.973,2.467,6.737,3.861,10.562,4.404
			c7.534,1.07,15.775-1.367,20.605-7.248c1.318-1.605,2.391-3.507,2.547-5.578c0.156-2.071-0.777-4.311-2.624-5.26
			c-2.371-1.218-5.2-0.04-7.675,0.949c-5.256,2.102-10.86,3.321-16.51,3.635c-4.911,0.272-11.6,0.409-16.137-1.692
			C619.774,506.93,621.483,508.818,623.042,510.746z"/>
		<path style="fill:#DF3521;" d="M628.038,501.658c2.677-0.696,5.39-1.397,8.156-1.382c2.171,0.012,4.338,0.472,6.326,1.344
			c0.442,0.194,0.909,0.413,1.385,0.339c0.681-0.106,1.118-0.754,1.516-1.317c1.67-2.366,4.099-4.188,6.838-5.129
			c3.352-1.152,7.253-1.083,10.008-3.313c-2.425,6.666-8.046,12.088-14.796,14.27c-5.053,1.633-10.488,1.503-15.79,1.207
			c-2.376-0.133-9.454-0.928-14.328-2.701C621.766,504.106,626.453,502.07,628.038,501.658z"/>
		<path style="fill:#AD2B1C;" d="M636.705,508.598c-1.024,0-2.073-0.033-3.148-0.099c-8.241-0.507-16.497-2.734-23.874-6.44
			c-0.264-0.132-0.37-0.453-0.237-0.716c0.131-0.264,0.451-0.372,0.716-0.237c7.25,3.642,15.362,5.83,23.461,6.328
			c8.131,0.502,14.725-0.93,19.612-4.248c6.288-4.269,9.492-11.549,11.073-16.905c0.083-0.283,0.378-0.443,0.663-0.361
			c0.283,0.083,0.444,0.38,0.361,0.663c-2.337,7.92-6.313,13.966-11.497,17.486C649.4,507.079,643.648,508.598,636.705,508.598z"/>
		<g>
			<path d="M593.774,491.699c-16.701,0-30.287-13.586-30.287-30.287c0-16.701,13.586-30.288,30.287-30.288
				c16.701,0,30.288,13.587,30.288,30.288C624.062,478.112,610.475,491.699,593.774,491.699z M593.774,433.258
				c-15.523,0-28.153,12.63-28.153,28.154s12.63,28.153,28.153,28.153c15.524,0,28.154-12.629,28.154-28.153
				S609.298,433.258,593.774,433.258z"/>
			<path d="M670.81,477.256c-16.068,0-29.14-13.072-29.14-29.14s13.072-29.14,29.14-29.14c16.068,0,29.14,13.072,29.14,29.14
				S686.878,477.256,670.81,477.256z M670.81,421.11c-14.891,0-27.006,12.115-27.006,27.006c0,14.891,12.115,27.006,27.006,27.006
				c14.891,0,27.006-12.115,27.006-27.006C697.816,433.225,685.701,421.11,670.81,421.11z"/>
			<path d="M622.541,457.34c-0.332,0-0.659-0.154-0.867-0.444c-0.344-0.478-0.236-1.144,0.242-1.488
				c0.373-0.269,9.259-6.551,21.056-3.888c0.575,0.13,0.936,0.701,0.806,1.276c-0.13,0.575-0.699,0.935-1.276,0.806
				c-10.834-2.446-19.256,3.477-19.339,3.537C622.974,457.275,622.756,457.34,622.541,457.34z"/>
		</g>
		<path style="fill:#DF5E4F;" d="M537.115,485.641c-0.648,0-1.326-0.047-2.029-0.144c-2.854-0.392-5.224-1.279-7.046-2.638
			c-2.289-1.707-3.709-4.235-3.799-6.762c-0.104-2.95,1.706-5.72,4.304-6.586c0.779-0.26,1.504-0.307,2.157-0.141
			c1.121,0.286,1.863,1.15,2.324,1.775c1.028,1.395,1.734,3.035,2.043,4.742c0.105,0.58-0.28,1.135-0.86,1.24
			c-0.577,0.105-1.135-0.28-1.24-0.86c-0.251-1.388-0.826-2.721-1.662-3.856c-0.417-0.566-0.788-0.885-1.133-0.973
			c-0.247-0.062-0.575-0.029-0.954,0.097c-1.693,0.564-2.917,2.493-2.846,4.486c0.067,1.886,1.167,3.803,2.942,5.126
			c1.529,1.141,3.569,1.892,6.061,2.234c1.481,0.202,5.089,0.428,6.632-1.856c0.646-0.957,0.807-2.236,0.875-3.244
			c0.225-3.344-0.368-6.755-0.941-10.053c-0.497-2.856-1.059-6.093-2.802-8.533c-2.204-3.084-6.472-4.647-10.143-3.714
			c-3.674,0.933-6.679,4.339-7.145,8.101c-0.072,0.585-0.609,0.999-1.191,0.928c-0.585-0.073-1-0.605-0.928-1.19
			c0.58-4.674,4.173-8.749,8.738-9.907c4.565-1.16,9.667,0.708,12.405,4.542c2.026,2.835,2.633,6.327,3.168,9.408
			c0.595,3.423,1.21,6.962,0.967,10.562c-0.086,1.275-0.304,2.916-1.236,4.295C542.494,484.619,540.122,485.64,537.115,485.641z"/>
		<path style="fill:#F5F5F5;" d="M544.035,588.757c-14.695-4.04-19.056-3.617-32.778-3.663c-8.284-0.028-17.284,0.567-25.433,2.058
			c-9.409,1.722-22.853,9.436-28.123,17.164c-25.779,37.806-8.74,91.672,0.683,136.45c8.557,40.659,9.592,45.576,18.149,86.235
			c-18.832-30.606-60.113-68.86-66.504-76.11c-9.965-11.306-20.697-22.876-33.451-30.44c-6.468,9.989-14.553,18.973-23.334,27.873
			c10.784,5.742,18.001,16.334,24.768,26.519c30.683,46.179,61.367,92.358,92.05,138.537c7.692,11.576,17.904,24.512,31.789,23.894
			c16.111-0.717,24.925-18.864,28.978-34.473c14.831-57.124,7.85-112.128,2.401-174.792
			C533.231,728.01,530.141,600.276,544.035,588.757z"/>
		<path style="fill:#F5F5F5;" d="M729.303,644.908c17.2,13.824,34.629,27.364,52.275,40.616
			c12.164,9.135,17.169,17.724,30.504,25.253c6.961,3.93,10.966,7.004,15.375,0.252c4.545-6.96,8.295-21.893,10.722-29.906
			c10.835-35.787,23.398-66.985,34.361-102.433c0.902-2.918,3.569-4.941,6.623-4.971c8.354-0.081,25.757,2.105,29.162,10.28
			c-22.428,134.065-33.066,182.583-41.816,194.723c-2.247,3.119-4.897,6.163-8.457,7.613c-3.746,1.526-7.971,1.084-11.976,0.514
			c-60.829-8.658-117.174-42.84-154.43-91.484c-11.511-15.029-42.31-53.967-31.871-73.761
			C674.79,593.136,715.867,634.109,729.303,644.908z"/>
		<path style="fill:#FC946C;" d="M349.266,707.985c-6.57-1.419-11.888,1.799-18.595,2.248c-16.726,1.119-33.505,0.839-50.268,0.839
			c-11.8,0-17.628-1.518-31.705-2.632c4.141,7.295,15.056,10.819,23.295,12.397c13.88,2.658,51.607,7.698,58.196,8.322
			c11.529,1.092,20.874,9.12,28.477,17.855c4.518-1.069,10.941-4.61,14.355-7.757C385.377,727.865,358.621,710.005,349.266,707.985z
			"/>
		<path style="fill:#DF5E4F;" d="M310.177,720.745c-0.047,0-0.094-0.003-0.141-0.009l-26.081-3.443
			c-6.302-0.832-14.145-1.868-19.711-6.745c-0.443-0.389-0.488-1.063-0.1-1.506c0.388-0.444,1.063-0.488,1.506-0.1
			c5.08,4.451,12.568,5.44,18.585,6.234l26.081,3.443c0.585,0.077,0.996,0.613,0.918,1.198
			C311.163,720.354,310.704,720.745,310.177,720.745z"/>
		<path style="fill:#B6D4E6;" d="M374.704,652.818c-19.438,2.944-49.423,4.339-78.323,4.607c-28.9-0.268-58.885-1.663-78.324-4.607
			c-2.153,5.583,4.03,22.893,5.712,28.011c2.395,7.289,10.103,19.99,18.303,26.638c1.622,1.315,3.727,1.438,5.678,1.638
			c17.945,1.836,30.655,2.582,48.631,2.263c17.976,0.318,30.685-0.427,48.631-2.263c1.952-0.2,4.057-0.323,5.678-1.638
			c8.2-6.648,15.908-19.349,18.303-26.638C370.673,675.711,376.856,658.401,374.704,652.818z"/>
		<path d="M600.403,1586.123c-0.002,0-0.004,0-0.007,0c-0.295-0.004-0.53-0.245-0.527-0.54c0.44-34.017,4.456-68.394,8.339-101.639
			c0.464-3.972,0.928-7.941,1.386-11.912c1.993-17.28,4.03-34.426,6-51.006c13.813-116.271,26.859-226.095,21.05-354.236
			l-0.013-0.28l15.067-11.445c0.235-0.179,0.569-0.133,0.748,0.103c0.178,0.234,0.133,0.569-0.102,0.747l-14.621,11.107
			c5.78,128.107-7.262,237.899-21.07,354.131c-1.969,16.579-4.006,33.724-5.999,51.003c-0.458,3.97-0.922,7.941-1.386,11.913
			c-3.88,33.218-7.892,67.567-8.331,101.528C600.933,1585.889,600.695,1586.123,600.403,1586.123z"/>
		<path d="M563.101,1486.092c-0.271,0-0.503-0.205-0.53-0.48c-1.439-14.541,8.13-27.64,16.572-39.196l1.223-1.676
			c11.142-15.302,20.958-31.705,29.177-48.755c0.127-0.267,0.447-0.378,0.712-0.249c0.266,0.128,0.377,0.446,0.249,0.712
			c-8.247,17.107-18.096,33.567-29.276,48.921l-1.223,1.676c-8.736,11.96-17.771,24.327-16.373,38.462
			c0.029,0.294-0.185,0.555-0.478,0.584C563.136,1486.092,563.119,1486.092,563.101,1486.092z"/>
		<path d="M653.224,1473.247c-0.049,0-0.099-0.007-0.149-0.021c-0.283-0.083-0.446-0.379-0.363-0.662
			c0.714-2.454,1.004-5.066,1.285-7.593c0.131-1.187,0.263-2.372,0.436-3.551c1.579-10.731,6.612-20.709,11.48-30.358
			c5.578-11.058,11.346-22.492,11.689-34.861c0.008-0.296,0.294-0.506,0.548-0.519c0.295,0.008,0.527,0.254,0.519,0.548
			c-0.35,12.607-6.172,24.15-11.803,35.313c-4.829,9.573-9.823,19.473-11.376,30.034c-0.171,1.165-0.301,2.339-0.432,3.512
			c-0.285,2.571-0.58,5.23-1.321,7.774C653.668,1473.096,653.455,1473.247,653.224,1473.247z"/>
		<path style="fill:#75963B;" d="M399.587,609.609c-2.553,1.006-4.776,2.643-6.883,4.425c1.813-2.464,3.444-5.062,4.855-7.776
			c0.1-0.193,0.202-0.395,0.211-0.613c0.026-0.6-0.612-0.985-1.159-1.233c-0.797-0.36-1.662-0.729-2.517-0.547
			c-0.795,0.169-1.41,0.781-1.976,1.364c-1.998,2.06-3.989,4.133-5.908,6.269c1.721-3.141,3.544-6.474,3.597-6.461
			c-1.077-0.279-2.203-0.371-3.311-0.269c-0.439,0.04-0.894,0.118-1.252,0.376c-0.373,0.269-0.592,0.697-0.796,1.109
			c-1.608,3.239-3.188,6.492-4.74,9.758c-0.764,1.608-1.521,3.219-2.271,4.834c-0.706,1.52-1.634,2.769-1.586,4.535
			c0.01,0.386,0.065,0.785,0.272,1.111c0.127,0.2,0.305,0.362,0.49,0.511c1.254,1.006,2.943,1.403,4.523,1.169
			c1.763-0.26,3.277-1.487,4.761-2.402c2.297-1.416,4.565-2.878,6.801-4.387c3.527-2.379,7.11-5.026,9.002-8.836
			C401.319,611.382,400.57,610.34,399.587,609.609z"/>
		<path style="fill:#F5F5F5;" d="M603.832,933.523c0.363,0.094-3.931-92.103-5.834-130.774
			c-1.062-28.368-3.578-56.789-10.552-85.614c-11.646-44.643-31.216-84.002-45.103-126.884c-10.589-1.85-21.048-4.55-32.153-3.872
			c-18.076,1.103-36.737,9.188-45.879,24.821c-8.303,14.199-7.483,31.89-4.554,48.076c6.086,33.632,20.034,65.267,34.319,96.316
			c12.583,27.35,25.525,54.535,38.814,81.55c11.038,22.44,29.213,41.95,21.279,68.463c-4.436,14.823-13.843,27.546-22.289,40.51
			c-59.804,91.79-70.486,201.054-46.421,306.138c33.184,5.161,82.28,15.802,120.424,0.778
			C605.882,1156.249,607.795,1033.592,603.832,933.523z"/>
		<path style="fill:#426C8F;" d="M596.178,772.99c-0.203,0-0.397-0.117-0.487-0.314c-18.585-41.087-51.132-81.205-84.939-104.697
			l-0.683-0.475l0.717-0.423c11.54-6.812,22.689-14.517,33.151-22.908l-50.263-19.984l0.531-0.571
			c11.451-12.308,23.997-23.765,37.292-34.052c0.233-0.18,0.569-0.138,0.749,0.095c0.181,0.233,0.138,0.568-0.095,0.749
			c-13.044,10.093-25.365,21.315-36.632,33.365l50.511,20.083l-0.711,0.574c-10.493,8.473-21.685,16.258-33.277,23.147
			c33.713,23.658,66.086,63.68,84.623,104.658c0.121,0.269,0.002,0.584-0.267,0.706C596.326,772.975,596.251,772.99,596.178,772.99z
			"/>
		<path style="fill:#F5F5F5;" d="M726.296,667.643c-2.893-15.536-9.419-30.477-21.402-41.348
			c-5.934-5.383-13.015-9.334-20.205-12.868c-16.07-7.899-37.976-15.599-55.752-19.773c14.271,14.252,31.435,47.491,39.745,78.005
			c11.511,42.271,18.672,161.286,20.638,240.789c1.536-4.21,3.952-9.429,5.021-13.743c7.634-30.819,9.266-61.212,20.829-91.627
			c4.178-10.99,8.977-21.788,11.949-33.164c7.391-28.286,0.819-55.946,1.038-84.317
			C728.214,682.387,727.656,674.949,726.296,667.643z"/>
		<path style="fill:#426C8F;" d="M681.871,767.82c-0.001,0-0.002,0-0.002,0c-0.294-0.002-0.532-0.241-0.531-0.536
			c0.151-35.532,7.349-71.677,20.82-104.562l-32.374-22.113l0.997-0.349c6.566-2.298,13.375-4,20.252-5.064
			c-8.482-12.123-19.766-22.326-32.681-29.542c-0.257-0.144-0.349-0.469-0.206-0.726c0.144-0.257,0.468-0.349,0.726-0.206
			c13.305,7.435,24.898,18.006,33.526,30.571l0.484,0.706l-0.847,0.125c-6.75,0.992-13.439,2.605-19.902,4.798l31.339,21.406
			l-0.165,0.4c-13.525,32.865-20.753,69.021-20.904,104.561C682.403,767.583,682.164,767.82,681.871,767.82z"/>
		<path style="fill:#F5F5F5;" d="M701.78,1056.978c3.108,20.471,4.176,46.323,5.603,66.979c3.207,46.434-2.407,87.386-10.6,133.204
			c10.155-0.246,30.808-3.164,39.688-8.097c11.975-54.631,13.313-132.185,4.547-187.422c-8.816-55.555-38.203-96.421-44.725-140.821
			c-2.654-18.066-1.868-36.473-0.74-54.698c-0.377,6.097-5.212,12.105-6.293,18.227c-1.184,6.707-0.17,14.313-0.068,21.083
			c0.256,16.907,0.893,33.809,1.912,50.687C693.142,989.878,696.704,1023.543,701.78,1056.978z"/>
		<path style="fill:#F5F5F5;" d="M603.644,627.633c-0.68,0.988-1.11,2.204-0.922,3.389c0.189,1.197,1.014,2.253,2.086,2.818
			c1.072,0.565,2.362,0.658,3.535,0.354c1.923-0.499,3.542-2.125,3.902-4.079c0.36-1.953-0.638-4.116-2.417-4.999
			C607.165,623.794,605.122,625.487,603.644,627.633z"/>
		<path style="fill:#F5F5F5;" d="M611.942,662.591c0.808,2.073,3.358,3.262,5.48,2.594c2.122-0.668,3.529-3.056,3.133-5.245
			C619.348,653.264,609.177,655.495,611.942,662.591z"/>
		<path style="fill:#F5F5F5;" d="M627.519,698.294c3.572-4.406-3.518-11.154-6.809-6.511
			C617.495,696.319,623.461,703.299,627.519,698.294z"/>
		<path style="fill:#FFFFFF;" d="M614.583,705.706c-0.25,0-0.474-0.177-0.523-0.432c-5.761-29.74-13.803-59.301-23.904-87.861
			c-0.098-0.278,0.047-0.582,0.325-0.681c0.276-0.099,0.583,0.047,0.681,0.325c10.119,28.61,18.175,58.222,23.946,88.014
			c0.056,0.289-0.133,0.569-0.422,0.625C614.651,705.703,614.617,705.706,614.583,705.706z"/>
		<path style="fill:#426C8F;" d="M858.053,786.868c-0.21,0-0.41-0.126-0.494-0.333c-0.111-0.273,0.02-0.584,0.293-0.695
			c3.651-1.488,7.514-4.444,9.612-7.356c8.355-11.591,17.489-55.094,40.718-193.94c-0.394-0.862-2.69-5.534-6.357-6.221
			c-0.29-0.054-0.481-0.333-0.426-0.622c0.054-0.29,0.333-0.482,0.623-0.426c4.589,0.86,7.101,6.743,7.206,6.993l0.06,0.142
			l-0.025,0.152c-23.28,139.158-32.461,182.794-40.932,194.547c-2.206,3.061-6.254,6.164-10.076,7.72
			C858.188,786.856,858.12,786.868,858.053,786.868z"/>
		<path style="fill:#FC946C;" d="M900.231,515.037c0.42-1.735,0.841-3.469,1.275-5.197c0.66-2.627,1.406-5.351,3.196-7.383
			c1.271-1.443,2.975-2.424,4.672-3.327c12.04-6.404,25.87-10.184,38.828-14.312c10.357-3.299,20.815-6.639,30.275-12.102
			c2.711-1.565,5.444-3.34,8.554-3.702c-0.17,1.892-1.382,3.513-2.622,4.952c-8.359,9.698-19.869,16.077-31.428,21.58
			c-5,2.38-10.32,3.277-15.81,4.565c4.703,0.136,8.972,0.899,11.726,4.796c2.959,4.187,4.565,8.694,6.006,13.585
			c1.796,6.092,3.284,13.555-1.184,18.07c-4.019,4.062-10.361,3.523-15.477,4.959c-6.635,1.862-7.773,8.035-12.13,12.73
			c-2.718,2.93-6.284,5.258-10.254,5.715c-0.878,0.101-1.813,0.125-2.555,0.606c-0.613,0.397-1.004,1.052-1.365,1.688
			c-3.657,6.447-6.439,13.39-8.246,20.578c-0.185,0.734-0.382,1.513-0.926,2.039c-0.659,0.638-1.654,0.745-2.569,0.791
			c-4.676,0.234-9.386-0.254-13.922-1.425c-4.432-1.143-8.836-3.367-9.121-5.501c1.146-6.156,4.924-17.668,7.536-23.359
			c2.53-5.512,4.117-8.405,6.629-13.925C895.341,532.623,897.944,524.491,900.231,515.037z"/>
		<path style="fill:#DF5E4F;" d="M933.444,542.261c-5.225,0.458-11.448-2.001-16.546-4.362c-1.063-0.492-2.338-1.232-2.772-2.594
			c-0.082-0.258,0.059-0.535,0.316-0.62c2.44-0.807,4.929-1.631,7.468-2.264c-0.014,0.001-0.027,0.002-0.041,0.004
			c-5.252,0.46-9.877,0.313-12.589-0.891c-0.982-0.436-1.607-1.373-1.633-2.446c-0.026-1.087,0.563-2.066,1.537-2.556
			c3.738-1.878,7.57-2.502,11.626-3.162c1.702-0.277,3.462-0.563,5.247-0.951c4.786-1.041,11.137-3.352,16.181-5.889
			c0.242-0.124,0.541-0.025,0.665,0.22c0.123,0.244,0.024,0.542-0.22,0.665c-5.112,2.571-11.556,4.915-16.415,5.971
			c-1.811,0.394-3.584,0.682-5.298,0.961c-3.98,0.648-7.739,1.259-11.341,3.069c-0.628,0.316-1.009,0.948-0.992,1.648
			c0.017,0.696,0.408,1.281,1.045,1.565c7.12,3.159,30.412-1.621,39.826-5.311c0.232-0.091,0.495,0.005,0.615,0.224
			c0.12,0.219,0.058,0.492-0.145,0.639c-2.65,1.916-10.748,4.01-15.099,5.135c-0.589,0.152-1.099,0.284-1.505,0.393
			c-1.413,0.378-2.874,0.482-4.286,0.583c-0.524,0.038-1.049,0.075-1.571,0.127c-4.185,0.411-8.278,1.725-12.244,3.036
			c0.444,0.732,1.302,1.206,2.04,1.548c5.515,2.555,13.474,5.714,18.89,3.644c0.253-0.1,0.54,0.029,0.639,0.286
			c0.097,0.255-0.03,0.541-0.286,0.639C935.576,541.945,934.531,542.166,933.444,542.261z M932.795,530.832
			c-0.364,0.07-0.731,0.141-1.097,0.208C932.068,530.984,932.435,530.917,932.795,530.832z"/>
		<path style="fill:#DF5E4F;" d="M918.218,524.091c-3.343,0.293-6.571,0.162-9.571-0.568c-1.213-0.312-2.008-1.291-2.082-2.508
			c-0.077-1.267,0.623-2.378,1.784-2.832l0.225-0.088c5.959-2.332,11.106-4.346,17.467-6.522c3.533-1.209,12.587-6.036,15.105-7.69
			c0.229-0.15,0.536-0.086,0.685,0.142s0.087,0.535-0.142,0.685c-2.535,1.665-11.602,6.524-15.328,7.799
			c-6.341,2.169-11.478,4.18-17.426,6.508l-0.225,0.088c-0.914,0.358-1.194,1.22-1.156,1.85c0.037,0.621,0.394,1.366,1.284,1.595
			c9.644,2.349,21.799-1.689,32.422-5.947c0.254-0.101,0.542,0.021,0.644,0.275c0.102,0.254-0.021,0.542-0.275,0.644
			C934.132,520.525,925.874,523.419,918.218,524.091z"/>
		<path style="fill:#426C8F;" d="M896.098,588.759c-8.352,0-17.234-3.177-23.17-8.592c-0.218-0.198-0.233-0.536-0.035-0.753
			c0.198-0.218,0.537-0.233,0.753-0.035c7.212,6.578,18.917,9.743,28.461,7.701c0.289-0.062,0.572,0.122,0.633,0.41
			c0.062,0.288-0.122,0.572-0.41,0.633C900.327,588.552,898.229,588.759,896.098,588.759z"/>
		<path style="fill:#F5F5F5;" d="M705.737,935.308c4.325,16.457,11.052,32.172,16.349,48.342
			c10.864,33.159,15.664,68.294,14.093,103.152c-15.828-40.437-31.444-81.248-39.665-123.887
			c-3.955-20.514-6.132-41.437-5.757-62.343c0.305-16.991,5.734-53.517,16.614-67.641c-3.138,16.323-4.555,26.548-5.782,35.948
			C698.701,891.014,700.062,913.708,705.737,935.308z"/>
		<path d="M358.181,715.117c6.309,2.107,10.063,4.53,11.889,5.775c-6.575-7.115-16.649-12.01-20.805-12.907
			c-6.57-1.419-11.888,1.799-18.595,2.248c-4.61,0.309-9.224,0.504-13.841,0.635C334.053,719.138,347.17,711.44,358.181,715.117z"/>
	</g>
	<g>
		<g>
			<g>
				<path style="fill:#B3B3B3;" d="M895.697,244.612v-14.897l-2.205,1.829l-1.56-2.071c0.215-0.179,0.502-0.426,0.86-0.739
					c0.358-0.314,0.73-0.636,1.116-0.968c0.385-0.331,0.762-0.649,1.129-0.955c0.367-0.305,0.659-0.547,0.874-0.726h2.635v18.527
					H895.697z"/>
				<path style="fill:#B3B3B3;" d="M915.784,230.952c0,0.574-0.108,1.121-0.323,1.64c-0.215,0.52-0.497,1.013-0.847,1.479
					c-0.35,0.466-0.74,0.897-1.17,1.291c-0.43,0.395-0.86,0.762-1.291,1.103c-0.43,0.341-0.91,0.69-1.439,1.049
					c-0.529,0.359-1.031,0.753-1.506,1.183c-0.475,0.43-0.883,0.919-1.224,1.465c-0.341,0.547-0.547,1.179-0.619,1.896h8.363v2.555
					h-11.348v-2.389c0-0.752,0.121-1.445,0.363-2.081c0.242-0.635,0.565-1.226,0.968-1.772c0.403-0.546,0.865-1.051,1.385-1.517
					c0.52-0.465,1.066-0.895,1.64-1.289c0.502-0.34,0.999-0.689,1.493-1.047c0.493-0.358,0.932-0.725,1.317-1.101
					c0.385-0.376,0.695-0.76,0.928-1.154c0.233-0.394,0.35-0.806,0.35-1.235c0-0.394-0.09-0.738-0.269-1.034
					c-0.179-0.295-0.413-0.542-0.699-0.738c-0.287-0.197-0.619-0.345-0.995-0.443c-0.376-0.098-0.753-0.148-1.129-0.148
					c-0.682,0-1.34,0.126-1.976,0.376c-0.637,0.251-1.206,0.583-1.708,0.995l-1.479-2.24c0.645-0.561,1.425-1.018,2.339-1.371
					c0.914-0.353,1.909-0.529,2.985-0.529c0.735,0,1.456,0.09,2.165,0.269c0.708,0.179,1.335,0.471,1.882,0.874
					c0.547,0.403,0.99,0.924,1.331,1.56C915.613,229.235,915.784,230.02,915.784,230.952z"/>
				<path style="fill:#B3B3B3;" d="M920.758,236.867c-0.556,0-1-0.179-1.331-0.538c-0.332-0.358-0.498-0.807-0.498-1.344
					c0-0.484,0.166-0.91,0.498-1.277c0.331-0.367,0.766-0.551,1.304-0.551c0.574,0,1.031,0.184,1.371,0.551
					c0.34,0.368,0.511,0.793,0.511,1.277c0,0.52-0.166,0.964-0.497,1.331C921.784,236.684,921.332,236.867,920.758,236.867z
					 M920.758,244.773c-0.556,0-1-0.184-1.331-0.551c-0.332-0.367-0.498-0.82-0.498-1.358c0-0.466,0.166-0.883,0.498-1.25
					c0.331-0.367,0.766-0.551,1.304-0.551c0.574,0,1.031,0.184,1.371,0.551c0.34,0.368,0.511,0.785,0.511,1.25
					c0,0.52-0.166,0.968-0.497,1.344C921.784,244.585,921.332,244.773,920.758,244.773z"/>
				<path style="fill:#B3B3B3;" d="M931.084,225.923c0.699,0,1.385,0.085,2.057,0.256c0.672,0.171,1.277,0.454,1.815,0.849
					c0.538,0.395,0.968,0.903,1.291,1.522c0.323,0.619,0.484,1.378,0.484,2.276c0,0.916-0.215,1.737-0.645,2.465
					c-0.43,0.727-1.049,1.261-1.855,1.603c0.842,0.358,1.483,0.931,1.923,1.718c0.439,0.787,0.659,1.62,0.659,2.497
					c0,0.966-0.171,1.808-0.511,2.524c-0.341,0.716-0.784,1.307-1.331,1.772c-0.547,0.465-1.179,0.814-1.896,1.047
					c-0.717,0.232-1.452,0.349-2.205,0.349c-1.112,0-2.138-0.175-3.079-0.524c-0.941-0.35-1.726-0.802-2.353-1.358
					c0.071-0.107,0.175-0.264,0.309-0.471c0.134-0.206,0.282-0.426,0.444-0.659c0.161-0.233,0.313-0.452,0.457-0.659
					c0.143-0.206,0.251-0.363,0.323-0.471c0.502,0.413,1.093,0.753,1.775,1.022c0.681,0.269,1.335,0.403,1.963,0.403
					c1.004,0,1.788-0.246,2.353-0.74c0.565-0.493,0.847-1.187,0.847-2.084c0-0.861-0.255-1.568-0.766-2.124
					c-0.511-0.555-1.17-0.833-1.977-0.833h-2.151v-2.474h2.151c0.323,0,0.641-0.058,0.955-0.176
					c0.313-0.117,0.596-0.292,0.847-0.527c0.251-0.234,0.453-0.527,0.605-0.879c0.152-0.351,0.229-0.752,0.229-1.203
					c0-0.45-0.085-0.829-0.255-1.135c-0.171-0.306-0.39-0.554-0.659-0.743c-0.269-0.189-0.578-0.324-0.928-0.406
					s-0.704-0.122-1.062-0.122c-0.628,0-1.291,0.134-1.99,0.403c-0.699,0.269-1.291,0.618-1.775,1.049
					c-0.072-0.107-0.179-0.269-0.323-0.484c-0.144-0.215-0.296-0.439-0.457-0.672c-0.161-0.233-0.314-0.452-0.457-0.659
					c-0.144-0.206-0.251-0.363-0.323-0.471c0.627-0.555,1.425-1.008,2.393-1.358C928.933,226.098,929.972,225.923,931.084,225.923z"
					/>
				<path style="fill:#B3B3B3;" d="M951.171,239.906c0,0.789-0.17,1.488-0.51,2.098c-0.34,0.61-0.783,1.116-1.328,1.519
					c-0.545,0.403-1.158,0.708-1.838,0.914s-1.359,0.309-2.039,0.309c-0.68,0-1.364-0.103-2.052-0.309
					c-0.689-0.206-1.306-0.511-1.851-0.914c-0.545-0.403-0.988-0.91-1.328-1.519c-0.34-0.609-0.51-1.308-0.51-2.098v-9.089
					c0-0.807,0.174-1.515,0.523-2.124c0.349-0.609,0.796-1.12,1.341-1.533c0.545-0.412,1.158-0.726,1.838-0.941
					c0.68-0.215,1.359-0.323,2.039-0.323c0.679,0,1.359,0.108,2.039,0.323c0.68,0.215,1.292,0.529,1.838,0.941
					c0.545,0.413,0.988,0.923,1.328,1.533c0.34,0.61,0.51,1.318,0.51,2.124V239.906z M948.321,231.484
					c0-0.519-0.09-0.957-0.269-1.315c-0.179-0.358-0.408-0.649-0.686-0.872c-0.278-0.224-0.583-0.384-0.914-0.483
					c-0.332-0.098-0.659-0.148-0.982-0.148c-0.323,0-0.65,0.049-0.981,0.148c-0.332,0.098-0.637,0.259-0.914,0.483
					c-0.278,0.223-0.507,0.514-0.686,0.872c-0.179,0.358-0.269,0.796-0.269,1.315v7.782c0,0.519,0.089,0.953,0.269,1.302
					c0.179,0.349,0.407,0.635,0.686,0.858c0.278,0.224,0.582,0.385,0.914,0.483c0.331,0.098,0.659,0.147,0.981,0.147
					c0.323,0,0.65-0.049,0.982-0.147c0.332-0.098,0.636-0.26,0.914-0.483c0.278-0.223,0.506-0.51,0.686-0.858
					c0.179-0.349,0.269-0.783,0.269-1.302V231.484z"/>
			</g>
		</g>
	</g>
	<path style="fill:#B3B3B3;" d="M1424.774,227.674c-4.784,0-9.177,1.669-12.634,4.453l12.634,15.714l12.634-15.714
		C1433.95,229.343,1429.558,227.674,1424.774,227.674z"/>
	<g>
		<rect x="1452.693" y="238.425" style="fill:#B3B3B3;" width="5.65" height="9.416"/>
		<rect x="1445.212" y="243.133" style="fill:#B3B3B3;" width="5.65" height="4.708"/>
		<rect x="1460.174" y="232.858" style="fill:#B3B3B3;" width="5.65" height="14.983"/>
		<rect x="1467.655" y="228.067" style="fill:#B3B3B3;" width="5.65" height="19.774"/>
	</g>
	<g>
		<path style="fill:#B3B3B3;" d="M1509.865,244.562v-13.196c0-0.256-0.208-0.464-0.464-0.464h-21.656
			c-0.256,0-0.464,0.208-0.464,0.464v13.196c0,0.256,0.208,0.464,0.464,0.464h21.656
			C1509.657,245.026,1509.865,244.818,1509.865,244.562z"/>
		<path style="fill:#B3B3B3;" d="M1520.527,245.712v-2.546c0-0.158,0.128-0.287,0.287-0.287h1.552c0.55,0,0.996-0.446,0.996-0.996
			v-7.858c0-0.55-0.446-0.996-0.996-0.996h-1.552c-0.159,0-0.287-0.129-0.287-0.287v-2.546c0-1.176-0.953-2.13-2.13-2.13h-31.896
			c-1.176,0-2.13,0.953-2.13,2.13v15.515c0,1.176,0.953,2.13,2.13,2.13h31.896C1519.574,247.841,1520.527,246.888,1520.527,245.712z
			 M1486.502,246.435c-0.399,0-0.724-0.325-0.724-0.724v-15.515c0-0.399,0.325-0.724,0.724-0.724h31.896
			c0.399,0,0.724,0.325,0.724,0.724v15.515c0,0.399-0.325,0.724-0.724,0.724H1486.502z"/>
	</g>
	<path style="fill:#426C8F;" d="M539.076,849.791c-0.005,0-0.01,0-0.015,0c-0.294-0.008-0.527-0.253-0.519-0.547l0.122-4.413
		c0.351-12.468,0.654-23.236-0.825-34.302c-1.028-7.689-1.596-14.262-2.145-20.618c-1.441-16.679-2.802-32.434-11.974-66.132
		c-0.078-0.284,0.09-0.578,0.375-0.655c0.285-0.078,0.578,0.09,0.655,0.375c9.198,33.791,10.563,49.592,12.008,66.32
		c0.548,6.345,1.115,12.905,2.139,20.569c1.491,11.151,1.186,21.959,0.834,34.474l-0.122,4.411
		C539.601,849.561,539.364,849.791,539.076,849.791z"/>
	<path d="M639.032,966.116l0.009-0.635c0.313-21.547-1.32-43.61-4.991-67.45c-0.045-0.291,0.155-0.563,0.446-0.608
		c0.291-0.045,0.563,0.155,0.608,0.446c3.643,23.657,5.283,45.57,5.012,66.969c1.631-0.385,3.008-1.196,4.344-1.982
		c0.893-0.525,1.813-1.066,2.789-1.465c0.17-19.425-0.274-39.104-1.321-58.5c-0.016-0.294,0.209-0.546,0.504-0.562
		c0.288-0.011,0.546,0.21,0.562,0.504c1.055,19.538,1.499,39.364,1.32,58.929l-0.004,0.369l-0.347,0.127
		c-1.016,0.372-1.961,0.929-2.961,1.517c-1.589,0.936-3.233,1.903-5.343,2.24L639.032,966.116z"/>
	<path style="fill:#333333;" d="M1263.069,190.686c-19.825-0.986-39.864-0.643-59.852-0.262
		c-19.988-0.381-40.026-0.724-59.852,0.262c-3.307,0.164-9.769,0.963-8.513,7.096c24.997,0.716,29.888,13.621,34.657,23.691
		c2.918,6.162,5.747,12.415,10.249,17.536c4.575,5.204,12.458,8.197,20.472,8.639c1.076,0.059,2.065,0.108,2.988,0.138
		c0.922-0.03,1.911-0.079,2.988-0.138c8.014-0.442,15.897-3.434,20.472-8.639c4.502-5.121,7.33-11.373,10.249-17.536
		c4.769-10.069,9.66-22.974,34.657-23.691C1272.838,191.649,1266.377,190.851,1263.069,190.686z"/>
</g>
</svg>
