<?xml version="1.0" encoding="utf-8"?>
<!-- Generator: Adobe Illustrator 27.5.0, SVG Export Plug-In . SVG Version: 6.00 Build 0)  -->
<svg version="1.1" xmlns="http://www.w3.org/2000/svg" xmlns:xlink="http://www.w3.org/1999/xlink" x="0px" y="0px"
	 viewBox="0 0 500 500" style="enable-background:new 0 0 500 500;" xml:space="preserve">
<g id="BACKGROUND">
	<rect style="fill:#FFFFFF;" width="500" height="500"/>
</g>
<g id="OBJECT">
	<g>
		<g>
			<circle style="fill:#0C4E5F;" cx="248.371" cy="243.753" r="179.794"/>
		</g>
		<g>
			<path style="fill:#172F35;" d="M207.284,455.913c-2.956-3.522-7.883-4.938-12.467-4.564c-4.583,0.374-8.246,2.421-12.262,4.662
				c-3.497,1.951-4.7,5.127-8.887,6.58l-3.504,1.025c0.437,0.199,2.232,1.134,2.709,1.199c9.488,1.295,19.117,0.839,28.682,0.38
				c2.631-0.126,5.717-0.518,7.003-2.817C209.701,460.338,208.787,457.704,207.284,455.913z"/>
		</g>
		<g>
			<g>
				<g>
					
						<ellipse transform="matrix(0.2251 -0.9743 0.9743 0.2251 181.4949 395.5994)" style="fill:#3CA3F4;" cx="339.443" cy="83.702" rx="48.701" ry="48.701"/>
				</g>
				<g>
					
						<ellipse transform="matrix(0.2349 -0.972 0.972 0.2349 178.3349 393.9789)" style="fill:#F8F4D9;" cx="339.443" cy="83.702" rx="44.257" ry="44.257"/>
				</g>
				<g>
					<path style="fill:#FFC088;" d="M381.189,98.404c0.587-1.666,1.074-3.377,1.461-5.127h-4.329V62.541
						c-1.453-2.664-3.178-5.156-5.127-7.452v38.188h-60.755V73.794h52.808V47.757c-1.63-1.173-3.341-2.239-5.127-3.185v24.095
						h-34.607V41.695c-1.759,0.583-3.473,1.265-5.127,2.055v24.917h-13.074v16.406H295.22c0.053,1.735,0.197,3.447,0.445,5.127
						h11.648v23.92c1.586,1.674,3.298,3.225,5.127,4.635V98.404H381.189z"/>
				</g>
				<g>
					<g>
						<polygon style="fill:#0C4E5F;" points="358.517,99.079 339.561,79.017 320.606,99.079 326.399,99.079 326.399,118.666 
							352.724,118.666 352.724,99.079 						"/>
					</g>
					<g>
						<path style="fill:#3CA3F4;" d="M348.431,56.973c0,4.993-9.04,13.659-9.04,13.659s-9.04-8.667-9.04-13.659
							c0-4.993,4.047-9.04,9.04-9.04C344.383,47.933,348.431,51.98,348.431,56.973z"/>
					</g>
				</g>
			</g>
			<g>
				<path style="fill:#FFC088;" d="M339.441,60.891c2.36,0,4.272-1.913,4.272-4.272c0-2.36-1.913-4.273-4.272-4.273
					c-2.36,0-4.273,1.913-4.273,4.273C335.168,58.978,337.081,60.891,339.441,60.891z"/>
			</g>
		</g>
		<g>
			<g>
				<path style="fill:#172F35;" d="M222.449,145.983c1.09-0.738,2.186-1.854,2.009-3.159c-0.223-1.639-2.194-2.313-3.825-2.584
					c-11.082-1.844-22.471-1.094-33.519,0.946c-11.047,2.041-21.814,5.352-32.551,8.656c-1.846,0.568-4.039,1.55-4.167,3.477
					c-0.077,1.15,0.701,2.225,1.689,2.818c0.988,0.593,2.157,0.793,3.3,0.941c6.85,0.892,13.803,0.369,20.665-0.424
					c12.534-1.449,24.965-3.797,37.164-7.018C216.43,148.786,219.693,147.848,222.449,145.983z"/>
			</g>
			<g>
				<g>
					<g>
						<g>
							<path style="fill:#A6BEBD;" d="M329.459,202.537c-0.562-9.168-1.758-18.429-0.219-27.484
								c-5.688-0.622-11.376-1.244-17.063-1.866c-1.262,5.995-2.768,11.938-4.507,17.812c-0.42-0.861-0.829-1.727-1.209-2.609
								c-2.322-5.388-3.792-11.103-5.89-16.582c-2.099-5.479-4.935-10.855-9.401-14.661c-1.64-1.398-3.772-2.616-5.855-2.065
								c-1.328,0.351-2.374,1.365-3.241,2.431c-2.437,2.995-3.941,6.645-5.031,10.349c-1.743,5.924-2.498,12.278-1.065,18.284
								c2.768,11.6,12.924,19.766,18.944,30.061c1.645,2.813,3.291,4.902,4.838,7.769c2.734,5.298,2.452,6.355,3.931,8.716
								c2.817,4.496,9.686,5.751,14.868,4.614c4.723-1.036,5.252-3.392,7.341-7.752C329.868,221.27,330.022,211.705,329.459,202.537
								z"/>
						</g>
						<g>
							<path style="fill:#E8E8E8;" d="M316.316,177.464c0.08-0.272-0.076-0.556-0.349-0.636c-0.269-0.082-0.556,0.077-0.635,0.348
								c-3.992,13.675-6.273,27.832-6.778,42.08c-0.108,3.048-0.122,6.268,0.981,9.197c0.13,0.345,0.275,0.689,0.422,1.032
								c0.464,1.09,0.901,2.119,0.833,3.187c-0.047,0.734-0.56,1.517-1.219,1.861c-0.18,0.095-0.425,0.179-0.68,0.16
								c0.29-0.652,0.552-1.368,0.581-2.142c0.035-0.985-0.406-2.18-1.47-2.632c-0.346-0.147-0.707-0.188-1.024-0.224
								c-0.186-0.022-0.373-0.041-0.553-0.087c-1.48-0.376-1.992-2.375-2.354-4.219c-1.445-7.35-5.216-13.857-8.863-20.148
								l-3.072-5.301c-0.03,0.431-0.081,0.807-0.171,1.325c-0.017,0.098-0.058,0.175-0.101,0.25l2.457,4.24
								c3.605,6.219,7.332,12.65,8.745,19.833c0.326,1.663,0.874,4.447,3.107,5.014c0.224,0.057,0.457,0.086,0.689,0.112
								c0.272,0.031,0.53,0.061,0.74,0.15c0.613,0.259,0.867,1.037,0.845,1.65c-0.028,0.775-0.381,1.53-0.72,2.261
								c-0.11,0.237-0.025,0.52,0.199,0.655c0.325,0.196,0.677,0.294,1.041,0.294c0.354,0,0.721-0.094,1.079-0.281
								c0.971-0.507,1.698-1.62,1.767-2.705c0.083-1.311-0.423-2.502-0.912-3.654c-0.141-0.331-0.281-0.661-0.407-0.993
								c-1.036-2.751-1.02-5.855-0.915-8.799C310.081,205.13,312.348,191.057,316.316,177.464z"/>
						</g>
						<g>
							<path style="fill:#172F35;" d="M288.045,212.935c2.783-14.486,3.915-29.316,2.919-44.033
								c2.093,5.824,4.203,11.724,4.776,17.886C296.604,196.055,293.79,205.614,288.045,212.935z"/>
						</g>
						<g>
							<path style="fill:#172F35;" d="M313.278,179.948c1.602,1.093,3.507,1.735,5.444,1.834c2.398,0.122,4.781-0.576,6.934-1.638
								c1.296-0.639,2.617-1.523,3.06-2.898c0.303-0.943,0.14-1.965-0.026-2.942c-0.258-1.515-0.515-3.029-0.773-4.544
								c-0.087-0.513-0.186-1.052-0.517-1.454c-0.446-0.542-1.199-0.702-1.894-0.799c-2.816-0.393-5.698-0.308-8.486,0.252
								c-1.769,0.355-3.693,1.058-4.468,2.688c-0.357,0.751-0.417,1.604-0.471,2.434c-0.088,1.346-0.176,2.693-0.264,4.04
								c-0.033,0.499-0.063,1.013,0.097,1.487C312.139,179.068,312.701,179.554,313.278,179.948z"/>
						</g>
					</g>
				</g>
				<g>
					<g>
						<path style="fill:#FFC088;" d="M318.99,150.861c0.26,0.109,0.556,0.016,0.822-0.078c1.752-0.618,3.505-1.237,5.257-1.856
							c-2.013-3.271-4.416-6.302-7.142-9.008c0.188,3.279,0.375,6.558,0.563,9.837C318.514,150.183,318.596,150.696,318.99,150.861z
							"/>
					</g>
					<g>
						<g>
							<path style="fill:#A6BEBD;" d="M317.23,164.143H302.12c-0.892,0-1.615-0.723-1.615-1.615v-30.413
								c0-0.892,0.723-1.615,1.615-1.615h15.109c0.892,0,1.615,0.723,1.615,1.615v30.413
								C318.844,163.42,318.121,164.143,317.23,164.143z"/>
						</g>
						<g>
							<path style="fill:#172F35;" d="M302.189,161.94c0.422,0.805,1.497,0.945,2.406,0.961c3.484,0.059,6.962-0.253,10.432-0.565
								c0.381-0.034,0.786-0.078,1.083-0.318c0.331-0.267,0.448-0.712,0.542-1.127c1.346-5.959,1.684-12.145,0.994-18.216
								c-4.631-0.445-9.263-0.891-13.894-1.336c-0.598-0.057-1.279-0.088-1.712,0.329c-0.412,0.398-0.428,1.042-0.417,1.615
								c0.119,5.827,0.239,11.654,0.358,17.48C301.99,161.165,302.002,161.584,302.189,161.94z"/>
						</g>
					</g>
					<g>
						<path style="fill:#FFC088;" d="M326.491,167.541c-0.047-4.707-0.127-12.716-0.171-17.079
							c-0.023-2.258-1.766-3.285-3.735-3.796c-1.755-0.456-20.481-4.324-20.475-4.362c-0.163,0.954,0.22,1.936,0.814,2.701
							s1.384,1.348,2.164,1.921c-0.881,0.632-1.771,1.273-2.467,2.104c-0.695,0.831-1.186,1.887-1.122,2.969
							c0.064,1.082,0.778,2.158,1.828,2.429c-0.642,0.831-1.31,1.727-1.393,2.774c-0.083,1.047,0.707,2.23,1.754,2.142
							c-0.385,1.258-0.588,2.573-0.6,3.889c2.548,1.136,4.465,3.587,4.954,6.334c0.645-0.009,1.219-0.468,1.527-1.035
							c0.023-0.042,0.036-0.088,0.057-0.131c1.578,1.457,3.281,2.771,4.521,4.548c4.154,0.626,8.514,0.171,12.31-1.572
							C326.51,170.098,326.504,168.81,326.491,167.541z"/>
					</g>
				</g>
			</g>
			<g>
				<g>
					<path style="fill:#3CA3F4;" d="M135.551,159.8c-6.503,7.085-8.869,17.057-9.467,26.655c-0.872,13.99,1.487,27.987,4.674,41.637
						c2.344,10.04,5.175,20.066,10.002,29.177c4.827,9.111,11.808,17.325,20.906,22.176c13.835,7.377,30.643,6.162,45.954,2.786
						c15.311-3.377,30.375-8.736,46.05-9.072c5.308-0.114,11.546-0.061,14.702-4.331c2.15-2.909,2.026-6.856,1.79-10.466
						c-0.835-12.818-1.893-25.621-3.171-38.402c-1.256-12.555-2.742-25.173-6.451-37.233c-3.71-12.06-9.791-23.638-19.074-32.184
						c-4.541-4.18-9.89-7.623-15.857-9.201c-6.221-1.645-12.785-1.199-19.192-0.596c-13.833,1.303-27.602,3.287-41.241,5.943
						C154.387,148.791,142.984,151.702,135.551,159.8z"/>
				</g>
				<g>
					<g>
						<path style="fill:#172F35;" d="M127.06,110.088l2.98,36.356c0.387,4.718,4.6,8.133,9.211,7.465l88.262-12.79
							c4.247-0.616,7.285-4.492,6.926-8.838l-2.78-33.602c-0.382-4.617-4.436-8.004-8.966-7.49l-88.462,10.036
							C129.874,101.719,126.696,105.648,127.06,110.088z"/>
					</g>
					<g>
						<path style="fill:#A6BEBD;" d="M132.772,111.212l2.881,34.577c0.374,4.488,4.448,7.735,8.906,7.1l85.335-12.164
							c4.106-0.585,7.044-4.272,6.696-8.406l-2.688-31.958c-0.369-4.391-4.289-7.612-8.669-7.124l-85.528,9.545
							C135.493,103.252,132.42,106.988,132.772,111.212z"/>
					</g>
				</g>
				<g>
					<path style="fill:#172F35;" d="M227.612,152.782c-19.746,1.15-39.366,4.446-58.405,9.809c-1.231,0.347-1.65,1.908-0.747,2.814
						c1.38,1.385,2.683,3.189,3.133,3.83c11.602,16.517,11.326,38.577,11.926,57.875c0.494,15.873-0.072,31.754-0.651,47.616
						c-0.076,2.089-0.02,4.53,1.654,5.781c1.146,0.856,2.698,0.853,4.128,0.808c27.362-0.872,54.649-4.05,81.479-9.488
						c1.404-36.914-1.757-69.646-13.259-97.074c-1.535-3.66-12.251-17.764-15.625-19.854
						C237.27,152.436,232.28,152.51,227.612,152.782z"/>
				</g>
				<g>
					<path style="fill:#FFC088;" d="M169.268,177.744c-1.609-4.126-4.214-8.746-6.945-12.232c-2.731-3.486-6.467-6.342-10.795-7.277
						c-7.534-1.627-15.453,3.09-19.246,9.799c4.766-4.143,11.852-5.018,17.857-3.064c6.006,1.954,10.967,6.424,14.465,11.683
						c3.498,5.258,5.658,11.289,7.393,17.361c7.91,27.674,7.571,57.021,5.275,85.711
						C181.623,245.345,181.859,210.029,169.268,177.744z"/>
				</g>
			</g>
			<g>
				<rect x="212.75" y="254.25" style="fill:#172F35;" width="75.25" height="16"/>
				<g>
					<path style="fill:#A6BEBD;" d="M290.816,157.548c-0.377-1.388-0.831-2.821-1.835-3.852c-2.086-2.142-5.536-1.737-8.506-2.082
						c-5.5-0.639-10.234-4.379-13.373-8.964c-10.838,4.947-23.472,5.902-33.182-1.912c-1.018,0.951-2.087,1.846-3.197,2.676
						c-5.714,4.276-12.44,7.018-19.286,9.036c-2.38,0.702-4.916,1.398-6.615,3.207c-2.983,3.176-2.155,8.211-1.272,12.478
						c5.688,27.483,5.446,56.173-0.654,83.564c-1.005,4.511,1.994,8.926,6.539,9.761c27.354,5.027,55.835,3.883,82.684-3.384
						C283.84,225.397,299.661,190.08,290.816,157.548z"/>
				</g>
				<g>
					<path style="fill:#FFFFFF;" d="M251.543,179.481c-5.989,1.921-12.364,2.634-18.629,2.082c-0.006-2.427-0.012-4.853-0.018-7.28
						c6.186-0.514,12.348-1.312,18.461-2.393C251.418,174.421,251.481,176.951,251.543,179.481z"/>
				</g>
				<g>
					<g>
						<path style="fill:#172F35;" d="M251.388,147.649c4.74,5.065,4.871,12.766,4.757,19.702c-0.552,33.579-0.34,67.17,0.635,100.74
							c2.996-0.256,5.992-0.512,8.988-0.768c-0.711-31.538-1.422-63.076-2.133-94.614c-0.193-8.572-0.402-17.25-2.71-25.508
							C257.746,147.35,254.567,147.499,251.388,147.649z"/>
					</g>
					<g>
						<path style="fill:#A6BEBD;" d="M261.682,226.448c-0.827-17.292-1.683-35.174-0.342-52.895
							c0.733-9.705-1.164-17.328-3.322-25.219c-0.335,0.076-0.672,0.138-1.009,0.198c2.142,7.829,4.031,15.382,3.308,24.944
							c-1.344,17.784-0.487,35.698,0.341,53.021c0.267,5.571,0.543,11.332,0.743,17.029c0.252,7.18,0.513,14.604-0.518,21.814
							c-0.04,0.28,0.155,0.54,0.436,0.58c0.024,0.003,0.049,0.005,0.073,0.005c0.25,0,0.47-0.184,0.507-0.441
							c1.042-7.299,0.781-14.769,0.528-21.994C262.224,237.786,261.949,232.022,261.682,226.448z"/>
					</g>
				</g>
				<g>
					<path style="fill:#172F35;" d="M230.96,143.107c5.581,4.35,12.496,6.964,19.56,7.391c7.063,0.428,14.243-1.332,20.308-4.978
						c-1.467-1.251-2.605-2.886-3.268-4.697c-5.188,2.281-10.854,3.756-16.502,3.289c-5.648-0.467-11.276-3.064-14.583-7.667
						C235.264,139.098,233.34,141.422,230.96,143.107z"/>
				</g>
			</g>
			<g>
				<g>
					<path style="fill:#172F35;" d="M256.154,347.758c-1.822,0-8.783,0-10.605,0c-13.441,0-24.338,22.58-24.338,50.433
						c0,27.854,10.896,50.433,24.338,50.433c1.822,0,8.783,0,10.605,0c13.441,0,24.338-22.58,24.338-50.433
						C280.492,370.337,269.595,347.758,256.154,347.758z"/>
				</g>
				<g>
					<ellipse style="fill:#A6BEBD;" cx="240.528" cy="398.191" rx="11.355" ry="35.539"/>
				</g>
				<g>
					<ellipse style="fill:#172F35;" cx="237.965" cy="391.13" rx="9.509" ry="29.761"/>
				</g>
			</g>
			<g>
				<g>
					<path style="fill:#172F35;" d="M325.414,302.314c-10.019-12.64-25.004-21.232-40.973-23.493
						c-15.97-2.262-32.751,1.832-45.886,11.193c-4.721,3.364-9.089,7.531-11.397,12.848c-3.39,7.807-1.877,16.766-0.306,25.131
						c4.152,22.107,8.303,44.214,12.455,66.321c0.483,2.57,1.006,5.237,2.559,7.341c2.038,2.762,5.476,4.065,8.775,5.012
						c24.539,7.044,50.726,1.97,75.739-3.136c5.048-1.03,10.609-2.391,13.49-6.662c1.576-2.338,2.087-5.215,2.483-8.007
						c2-14.108,2.009-28.497,0.025-42.608C340.167,330.52,335.284,314.765,325.414,302.314z"/>
				</g>
				<g>
					<path style="fill:#3CA3F4;" d="M242.215,328.204c-3.601-8.981-8.816-20.248-18.822-23.007
						c-8.438-2.326-17.624,2.093-23.213,8.83c-5.589,6.737-8.242,15.393-10.286,23.904c-5.475,22.803-4.312,47.261,3.509,69.369
						c20.237,2.246,36.572,3.475,57.807,2.59c1.284-0.053,1.381-23.189,1.338-25.419c-0.165-8.596-0.97-17.178-2.399-25.656
						c-1.687-10.001-3.871-20.4-7.689-29.998C242.379,328.615,242.298,328.41,242.215,328.204z"/>
				</g>
				<g>
					<path style="fill:#172F35;" d="M241.963,334.236c4.478,11.145,4.366,23.712,1.838,35.454
						c-2.528,11.742-7.347,22.846-12.136,33.861c-0.803,1.847-2.293,4.054-4.237,3.529c-1.447-0.391-2.037-2.083-2.403-3.536
						c-2.746-10.882-5.502-21.822-6.475-33.003c-0.973-11.181-0.092-22.714,4.219-33.077c1.399-3.363,3.265-6.711,6.294-8.733
						c3.029-2.022,7.469-2.306,10.112,0.201L241.963,334.236z"/>
				</g>
				<g>
					<path style="fill:#3CA3F4;" d="M264.17,404.899c-8.503-0.941-17.832-2.293-23.477-8.721c-1.097,3.515,0.452,7.444,3.043,10.06
						c2.59,2.616,6.065,4.147,9.523,5.413c25.074,9.179,52.79,7.279,79.155,3.056c1.296-3.786-2.984,1.169-1.689-2.617
						C307.487,418.905,288.24,407.561,264.17,404.899z"/>
				</g>
			</g>
			<g>
				<path style="fill:#172F35;" d="M171.19,414.525c12.964,9.28,29.623,13.231,44.861,8.545
					C201.951,416.424,186.671,412.698,171.19,414.525z"/>
			</g>
			<g>
				<path style="fill:#FFFFFF;" d="M206.969,436.184c0.699-7.392,1.398-14.785,2.098-22.177c-9.297,0.424-18.639-0.151-27.813-1.713
					c-0.537,6.827-1.497,13.621-2.873,20.33C187.91,433.811,197.439,434.997,206.969,436.184z"/>
			</g>
			<g>
				<path style="fill:#FFC088;" d="M368.455,328.13c-5.763-13.68-9.1-28.354-10.967-43.107c-2.208-17.443-2.43-35.068-2.65-52.649
					c-13.39-1.426-27.047-0.305-40.026,3.285c8.872,32.87,19.6,66.968,38.878,96.664C358.65,331.179,363.568,329.666,368.455,328.13
					z"/>
			</g>
			<g>
				<path style="fill:#0C4E5F;" d="M197.095,424.952c3.126,0.517,6.183,1.942,8.215,4.374c3.498,4.187,3.3,10.261,2.61,15.673
					c-0.69,5.412-1.627,11.216,0.837,16.083c-12.49-0.045-24.982,0.522-37.417,1.698c-1.29-8.811-0.761-18.23,3.643-25.97
					C179.386,429.069,188.309,423.499,197.095,424.952z"/>
			</g>
			<g>
				<path style="fill:#3CA3F4;" d="M193.773,423.951c-1.551,0.164-3.234,0.644-4.068,1.962c-0.447,0.706-0.585,1.559-0.687,2.388
					c-0.719,5.854-0.083,11.87,1.844,17.445c0.294,0.85,0.691,1.772,1.512,2.14c0.539,0.242,1.157,0.193,1.747,0.157
					c3.944-0.236,7.937,0.384,11.624,1.805c-0.415-5.823-0.211-11.69,0.606-17.47c0.221-1.562,0.457-3.276-0.376-4.615
					c-0.495-0.796-1.305-1.339-2.127-1.789C200.797,424.303,197.232,423.587,193.773,423.951z"/>
			</g>
			<g>
				<path style="fill:#A6BEBD;" d="M176.704,438.551c0.845-1.02,2.027-2.003,3.337-1.807c1.092,0.164,1.898,1.108,2.416,2.082
					c1.054,1.979,1.335,4.262,1.873,6.439c0.538,2.177,1.454,4.427,3.322,5.667c-3.423,2.794-7.506,4.775-11.819,5.734
					c-0.843,0.188-1.717,0.337-2.566,0.18c-0.849-0.156-1.678-0.675-1.988-1.481c-0.257-0.668-0.129-1.414,0.003-2.117
					C172.252,448.056,173.333,442.618,176.704,438.551z"/>
			</g>
			<g>
				<path style="fill:#FFC088;" d="M209.723,456.05c-0.181-3.962-1.146-8.25-4.249-10.721c-3.658-2.913-9.091-2.278-13.275-0.191
					c-3.2,1.596-5.981,3.902-8.976,5.855c-2.995,1.953-6.369,3.595-9.945,3.594c-1.136,0-2.389-0.135-3.296,0.549
					c-1.026,0.774-1.15,2.24-1.186,3.525c-0.039,1.436-0.035,3.008,0.869,4.124c0.964,1.189,2.637,1.476,4.16,1.64
					c9.728,1.045,19.548,0.407,29.311-0.233c1.429-0.094,2.929-0.21,4.13-0.99C209.483,461.763,209.844,458.691,209.723,456.05z"/>
			</g>
			<g>
				<g>
					<path style="fill:#172F35;" d="M276.183,98.364c3.147,10.918,1.082,23.217-5.459,32.509c-1.372,1.949-2.997,3.824-5.156,4.834
						c-3.992,1.869-8.671,0.372-12.813-1.139c-4.662-1.701-9.503-3.517-12.906-7.128c-3.207-3.403-4.771-8.051-5.545-12.662
						c-0.924-5.505-0.768-11.471,2.099-16.262c3.571-5.968,10.773-8.996,17.719-9.34c6.946-0.344,13.782,1.582,20.47,3.49
						L276.183,98.364z"/>
				</g>
				<g>
					<g>
						<path style="fill:#FFC088;" d="M268.178,144.109c-0.523-0.658-1.016-1.338-1.468-2.038c-3.13-4.847-4.762-10.483-6.353-16.029
							c-5.814,0.087-11.628,0.175-17.442,0.262c-1.223,4.66-3.749,8.874-7.017,12.438
							C244.825,145.65,257.282,146.361,268.178,144.109z"/>
					</g>
					<g>
						<path style="fill:#FFC088;" d="M274.462,110.975c-0.039-0.206-0.081-0.412-0.126-0.616c-0.337-1.533-1.035-3.352-0.254-4.874
							c1.218-2.371,1.025-2.948-0.556-7.854l-1.707-3.817c-3.971-4.305-9.982-6.347-15.838-6.41
							c-5.856-0.063-11.598,1.675-16.982,3.98c-1.794,0.768-3.737,1.792-4.337,3.649c-0.341,1.055-0.177,2.199,0.001,3.293
							c0.706,4.351,1.566,8.676,2.426,12.999c0.693,3.484,1.404,7.022,3.049,10.17c2.087,3.994,5.525,7.083,8.89,10.08
							c1.37,1.22,2.768,2.459,4.442,3.208c3.195,1.431,7.047,0.845,10.065-0.929c3.018-1.774,5.289-4.603,7.036-7.637
							c1.871-3.249,3.217-6.8,3.969-10.474C274.863,114.174,274.758,112.546,274.462,110.975z"/>
					</g>
					<g>
						<g>
							<path style="fill:#0C4E5F;" d="M249.011,106.84c2.16-2.215,4.922-3.243,7.871-3.003c0.11-0.454,0.332-0.881,0.654-1.22
								c-3.403-0.414-6.931,1.075-9.174,3.668C248.616,106.42,248.827,106.618,249.011,106.84z"/>
							<g>
								<path style="fill:#0C4E5F;" d="M253.949,111.556c-0.308,0.031-0.639,0.048-0.908-0.107
									c-0.247-0.142-0.397-0.407-0.493-0.675c-0.188-0.527-0.205-1.114-0.046-1.651c0.156-0.525,0.49-1.01,0.969-1.275
									c0.479-0.265,1.106-0.282,1.562,0.022c0.56,0.374,0.747,1.104,0.824,1.773c0.036,0.312,0.056,0.637-0.056,0.93
									c-0.133,0.344-0.438,0.6-0.776,0.748C254.687,111.467,254.316,111.519,253.949,111.556z"/>
								<path style="fill:#172F35;" d="M255.173,109.355c-0.179-0.314-0.513-0.597-0.867-0.526
									c-0.377,0.075-0.569,0.499-0.629,0.878c-0.042,0.269-0.048,0.55,0.04,0.808c0.087,0.258,0.278,0.49,0.535,0.579
									c0.402,0.139,0.87-0.126,1.042-0.515C255.465,110.19,255.384,109.724,255.173,109.355z"/>
								<path style="fill:#FFFFFF;" d="M253.545,109.663c0.13,0.009,0.255-0.065,0.343-0.161c0.172-0.188,0.213-0.521,0.016-0.683
									c-0.118-0.097-0.296-0.107-0.431-0.037c-0.136,0.07-0.229,0.21-0.258,0.361
									C253.172,109.371,253.314,109.648,253.545,109.663z"/>
							</g>
						</g>
						<g>
							<path style="fill:#0C4E5F;" d="M270.269,103.766c1.179,0,2.21,0.699,2.724,1.693c0.006,0.01,0.014,0.02,0.02,0.03
								c0.219-0.081,0.367-0.342,0.343-0.588c-0.029-0.296-0.226-0.547-0.428-0.765c-0.414-0.449-0.892-0.849-1.445-1.108
								s-1.188-0.369-1.784-0.233c-0.393,0.089-0.782,0.305-0.961,0.666c-0.113,0.228-0.102,0.51,0.01,0.733
								C269.201,103.929,269.717,103.766,270.269,103.766z"/>
							<g>
								<path style="fill:#0C4E5F;" d="M269.963,109.152c-0.042-0.385,0.106-0.769,0.32-1.091c0.304-0.459,0.833-0.849,1.37-0.728
									c0.362,0.082,0.644,0.384,0.793,0.725c0.149,0.34,0.186,0.718,0.214,1.088c0.033,0.446,0.026,0.966-0.322,1.247
									c-0.296,0.239-0.728,0.203-1.089,0.087C270.627,110.279,270.034,109.799,269.963,109.152z"/>
								<path style="fill:#172F35;" d="M271.922,108.499c-0.146-0.172-0.372-0.32-0.585-0.246c-0.164,0.057-0.259,0.226-0.325,0.387
									c-0.101,0.247-0.17,0.516-0.128,0.779c0.042,0.263,0.213,0.518,0.467,0.599c0.347,0.11,0.738-0.156,0.841-0.505
									C272.294,109.163,272.158,108.777,271.922,108.499z"/>
								<path style="fill:#FFFFFF;" d="M271.046,108.734c0.099,0.007,0.194-0.049,0.261-0.123c0.13-0.143,0.162-0.396,0.012-0.519
									c-0.09-0.074-0.225-0.081-0.328-0.028c-0.103,0.053-0.174,0.16-0.196,0.274C270.762,108.512,270.87,108.722,271.046,108.734
									z"/>
							</g>
						</g>
					</g>
				</g>
				<g>
					<g>
						<path style="fill:#172F35;" d="M271.85,110.794c-3.218-1.855-9.062-1.062-12.54-0.47c-3.478,0.592-7.652,2.675-10.791,4.286
							c-0.876,0.45-1.799,0.992-2.174,1.902c-0.217,0.527-0.22,1.114-0.215,1.685c0.023,2.918,0.157,5.835,0.402,8.743
							c0.079,0.947,0.176,1.915,0.573,2.778c0.407,0.886,1.104,1.604,1.837,2.248c1.123,0.987,2.379,1.853,3.788,2.354
							c2.27,0.808,8.417,2.131,10.661,1.253c2.244-0.878,2.035-0.968,3.674-2.734c3.248-3.5,5.78-7.089,7.52-11.536
							c0.769-1.965,1.634-5.483,0.854-6.58C274.851,113.897,272.73,111.301,271.85,110.794z"/>
					</g>
					<g>
						<path style="fill:#FFFFFF;" d="M261.7,111.072c-4.988,0.377-9.818,2.443-13.584,5.731c0.484,4.798,0.6,9.071,1.228,13.869
							c0.577,1.057,1.798,2.742,2.628,3.364c2.612,1.959,5.2,2.412,8.428,2.905c5.086,0.777,8.494-2.51,11.279-6.836
							c2.785-4.326,3.99-10.521,4.529-15.637C271.662,110.815,267.516,110.632,261.7,111.072z"/>
					</g>
					<g>
						<path style="fill:#FFFFFF;" d="M248.86,118.287c-3.978-2.125-6.62-3.613-9.174-5.051l-1.58-0.888l0.502-0.894l1.581,0.889
							c2.55,1.435,5.187,2.92,9.156,5.04L248.86,118.287z"/>
					</g>
					<g>
						
							<rect x="244.72" y="120.401" transform="matrix(0.438 -0.899 0.899 0.438 24.5895 291.2545)" style="fill:#FFFFFF;" width="1.026" height="11.121"/>
					</g>
				</g>
				<g>
					<g>
						<path style="fill:#172F35;" d="M244.763,104.898c4.742-3.803,20.38-2.905,30.035-3.632c-0.197-0.953-0.666-1.755-1.272-3.635
							l-1.707-3.817c-3.971-4.305-9.982-6.347-15.838-6.41c-5.856-0.063-11.598,1.675-16.982,3.98
							c-1.794,0.768-3.737,1.792-4.337,3.649c-0.341,1.055-0.177,2.199,0.001,3.293c0.706,4.351,1.566,8.676,2.426,12.999
							c0.693,3.484,1.404,7.022,3.049,10.17c0.636,1.218,1.409,2.345,2.257,3.418C241.104,117.057,240.015,109.646,244.763,104.898z
							"/>
					</g>
					<g>
						<g>
							<path style="fill:#3CA3F4;" d="M244.149,75.034c-5.582,1.521-10.909,4.446-14.541,8.95
								c-3.715,4.607-5.427,10.544-6.073,16.428c-0.586,5.341-0.348,10.84,1.357,15.935c1.82,5.438,5.411,10.396,10.478,13.137
								c0.859,0.465,1.829,0.757,2.798,0.628c2.689-0.357,3.223-3.11,3.319-5.406c0.217-5.168-0.214-10.839-1.383-16.168
								c-0.845-3.852,1.965-7.556,5.904-7.741c10.667-0.5,21.257-0.607,31.975-1.371c0.496-0.035,1.031-0.087,1.4-0.42
								c0.439-0.396,0.496-1.055,0.498-1.646c0.026-8.126-5.047-15.835-12.104-19.866C260.721,73.463,251.989,72.897,244.149,75.034
								z"/>
						</g>
						<g>
							<path style="fill:#A6BEBD;" d="M237.337,130.325c-0.667,0-1.279-0.221-1.74-0.633c-0.212-0.188-0.23-0.512-0.042-0.723
								c0.189-0.212,0.513-0.23,0.724-0.042c0.385,0.342,0.857,0.393,1.192,0.368c0.649-0.043,1.32-0.378,1.75-0.875
								c0.812-0.941,1.043-2.273,1.172-3.572c0.37-3.758,0.077-7.518-0.873-11.173c-0.1-0.386-0.208-0.776-0.315-1.168
								c-0.739-2.681-1.502-5.453-0.409-8.039c0.822-1.944,2.694-3.523,5.137-4.334c2.139-0.71,4.384-0.792,6.556-0.872
								l23.416-0.862c1.997-0.074,4.26-0.157,6.133-1.09c0.251-0.125,0.562-0.023,0.687,0.231c0.126,0.253,0.023,0.561-0.23,0.687
								c-2.072,1.032-4.452,1.119-6.552,1.196l-23.416,0.862c-2.1,0.078-4.271,0.157-6.271,0.821
								c-2.162,0.717-3.808,2.087-4.515,3.76c-0.954,2.258-0.239,4.855,0.453,7.368c0.109,0.397,0.218,0.791,0.32,1.181
								c0.981,3.773,1.284,7.654,0.901,11.533c-0.138,1.396-0.415,2.98-1.416,4.141c-0.612,0.709-1.532,1.168-2.459,1.229
								C237.47,130.322,237.404,130.325,237.337,130.325z"/>
						</g>
						<g>
							<path style="fill:#FFC088;" d="M257.973,75.808c-9.324-2.041-19.646,1.434-25.838,8.698
								c-6.192,7.264-7.987,18.006-4.495,26.889c-1.614-7.568-0.039-15.764,4.265-22.195c4.303-6.431,11.279-11.013,18.891-12.409
								L257.973,75.808z"/>
						</g>
					</g>
				</g>
			</g>
			<g>
				<g>
					<path style="fill:#172F35;" d="M215.434,161.107c1.243-0.791,2.954-0.477,4.136,0.402c1.183,0.879,1.934,2.214,2.555,3.55
						c3.321,7.148,3.812,15.35,2.755,23.16c-1.057,7.81-3.581,15.336-6.092,22.807c9.487,5.821,19.443,10.878,29.738,15.107
						c-16.52,3.564-34.24,1.283-49.319-6.348c9.676-16.247,11.301-35.832,14.263-54.508
						C213.719,163.709,214.096,161.958,215.434,161.107z"/>
				</g>
				<g>
					<path style="fill:#A6BEBD;" d="M227.296,246.794c4.365,1.097,9.11,2.01,13.251,0.249c3.37-1.432,5.794-4.416,7.97-7.36
						c2.224-3.008,4.428-6.91,2.791-10.274c-1.477-3.035-5.276-3.935-8.566-4.687c-10.231-2.336-20.033-6.534-28.783-12.327
						c1.393-6.995,4.311-13.575,6.711-20.292c2.4-6.716,4.314-13.817,3.571-20.911s-4.61-14.215-11.108-17.156
						c-2.147-0.972-4.62-1.456-6.873-0.766c-3.183,0.975-5.234,4.001-6.867,6.902c-10.019,17.807-8.425,36.454-14.305,58.953
						c-0.866,3.312,0.037,7.029,1.777,9.977c1.943,3.293,5.572,5.154,9.055,6.733C206.023,240.417,216.538,244.089,227.296,246.794z
						"/>
				</g>
				<g>
					<path style="fill:#172F35;" d="M239.457,239.906c-0.34,2.042-0.203,4.362,1.227,5.858c0.959,1.003,2.338,1.466,3.658,1.894
						c1.176,0.381,2.408,0.767,3.628,0.568c1.269-0.206,2.354-1.021,3.282-1.911c2.348-2.253,4.05-5.172,4.854-8.325
						c0.453-1.777,0.601-3.751-0.269-5.365c-0.83-1.538-2.486-2.505-4.198-2.853c-2.891-0.587-5.987,0.453-8.178,2.428
						S239.941,236.997,239.457,239.906z"/>
				</g>
				<g>
					<path style="fill:#E8E8E8;" d="M238.995,246.958c-0.186,0-0.366-0.101-0.456-0.278c-0.551-1.068-1.232-1.013-2.603-0.799
						c-0.964,0.151-2.058,0.322-3.255-0.089c-4.47-1.532-9.176-2.593-13.727-3.618c-4.48-1.01-9.112-2.054-13.545-3.55
						c-8.389-2.831-16.69-6.723-20.593-15.947c-0.11-0.261,0.012-0.562,0.272-0.672c0.26-0.111,0.562,0.012,0.672,0.272
						c3.745,8.851,11.814,12.621,19.976,15.375c4.382,1.479,8.988,2.517,13.442,3.521c4.578,1.032,9.311,2.098,13.834,3.648
						c0.958,0.329,1.877,0.185,2.764,0.046c1.293-0.203,2.759-0.431,3.672,1.342c0.13,0.252,0.031,0.561-0.221,0.69
						C239.154,246.94,239.074,246.958,238.995,246.958z"/>
				</g>
			</g>
			<g>
				<path style="fill:#172F35;" d="M187.867,434.441c3.031-1.6,6.396-2.757,9.873-2.869c3.477-0.112,7.075,0.905,9.58,3.167
					c0.827,0.747,1.325,2,1.395,3.157c0.02,0.333-0.393,0.498-0.633,0.266c-2.76-2.654-6.519-4.357-10.47-4.181
					c-4.245,0.189-8.316,1.984-11.48,4.645c-0.807-0.496-0.891-1.643-0.427-2.436C186.17,435.398,187.026,434.885,187.867,434.441z"
					/>
			</g>
			<g>
				<path style="fill:#172F35;" d="M188.06,437.998c3.031-1.6,6.396-2.757,9.873-2.869c3.477-0.112,7.075,0.905,9.58,3.167
					c0.827,0.747,1.325,2,1.395,3.157c0.02,0.333-0.393,0.498-0.633,0.266c-2.76-2.654-6.519-4.357-10.47-4.181
					c-4.245,0.189-8.316,1.984-11.479,4.645c-0.807-0.496-0.891-1.642-0.427-2.436C186.362,438.955,187.219,438.442,188.06,437.998z
					"/>
			</g>
			<g>
				<path style="fill:#172F35;" d="M186.729,444.289c2.534-2.832,6.231-4.548,10.022-4.826c3.79-0.278,7.64,0.846,10.786,2.978
					c0.587,0.398,1.178,0.864,1.437,1.525c0.259,0.661,0.042,1.555-0.62,1.811c-2.995-2.187-6.664-3.436-10.371-3.53
					c-3.707-0.094-7.435,0.967-10.537,2.999c-0.277,0.181-0.645,0.371-0.913,0.176C186.183,445.166,186.439,444.613,186.729,444.289
					z"/>
			</g>
			<g>
				<g>
					<path style="fill:#A6BEBD;" d="M263.687,266.092h-33.275c-6.874,1.152-15.787-2.204-20.827,2.113
						c-7.916,6.78-9.617,23.162-8.365,32.869c0.226,1.752,0.656,3.566,1.911,4.931c2.557,2.781,7.267,2.637,11.308,2.646
						c7.442,0.018,14.877,1.408,21.697,4.058c4.06,1.578,8.382,3.65,12.672,2.663c3.232-0.744,5.641-3.078,7.847-5.305
						c5.164-5.214,10.373-10.559,13.531-16.914c3.158-6.354,4.012-13.98,0.404-20.142
						C268.964,270.238,266.537,267.937,263.687,266.092z"/>
				</g>
				<g>
					<path style="fill:#A6BEBD;" d="M257.214,277.364c-2.103-2.518-4.673-5.193-7.954-5.241c-2.445-0.035-4.635,1.43-6.571,2.924
						c-13.48,10.407-23.2,24.883-31.682,39.651c-17.909,31.182-31.393,64.902-39.922,99.835c15.163,1.707,30.193,4.59,44.911,8.615
						c10.987-38.062,22.146-76.539,41.808-110.932c3.834-6.707,8.143-14.02,6.813-21.631
						C263.739,285.55,260.491,281.288,257.214,277.364z"/>
				</g>
				<g>
					<path style="fill:#172F35;" d="M202.813,305.525c1.897,2.589,5.424,3.662,8.592,3.146c3.168-0.517,5.978-2.417,8.164-4.768
						c2.186-2.351,3.824-5.146,5.445-7.917C219.167,301.804,211.058,305.288,202.813,305.525z"/>
				</g>
				<g>
					<path style="fill:#E8E8E8;" d="M176.271,415.479c-0.044,0-0.089-0.006-0.133-0.017c-0.274-0.073-0.436-0.354-0.363-0.628
						c7.494-28.055,19.047-57.46,35.319-89.895c4.109-8.191,8.771-16.56,16.531-21.016c0.286-0.164,0.464-0.444,0.488-0.765
						c0.023-0.309-0.105-0.597-0.35-0.79l-1.287-1.014c-0.62-0.49-0.946-1.253-0.872-2.043c0.073-0.769,0.521-1.439,1.199-1.79
						c2.583-1.341,5.345-2.263,8.211-2.742c-1.729-0.374-3.502-0.484-5.271-0.331c-0.542,0.044-1.052-0.269-1.252-0.789
						c-0.201-0.519-0.041-1.092,0.398-1.426c1.857-1.416,3.866-2.63,5.977-3.62l-18.132,3.455c-2.862,0.545-5.821,1.107-8.801,0.652
						c-3.413-0.52-5.887-2.21-6.967-4.758c-0.11-0.261,0.012-0.562,0.272-0.672c0.259-0.112,0.562,0.01,0.672,0.271
						c1.199,2.831,4.021,3.817,6.177,4.146c2.808,0.428,5.678-0.118,8.455-0.646l26.081-4.97c0.281-0.052,0.547,0.13,0.6,0.408
						c0.053,0.278-0.13,0.547-0.408,0.6c-4.796,0.913-9.397,2.971-13.306,5.95c-0.106,0.08-0.085,0.186-0.064,0.242
						c0.021,0.055,0.081,0.153,0.209,0.136c1.868-0.161,3.743-0.044,5.572,0.342c0.494,0.104,0.832,0.527,0.822,1.028
						s-0.367,0.91-0.867,0.993c-2.76,0.462-5.42,1.35-7.907,2.64c-0.373,0.194-0.61,0.551-0.651,0.977
						c-0.042,0.443,0.14,0.869,0.486,1.142l1.287,1.014c0.509,0.401,0.785,1.026,0.738,1.67c-0.049,0.657-0.423,1.248-1,1.579
						c-7.513,4.313-12.086,12.535-16.125,20.587c-16.24,32.37-27.768,61.711-35.245,89.698
						C176.705,415.328,176.498,415.479,176.271,415.479z"/>
				</g>
			</g>
			<g>
				<g>
					<g>
						<g>
							<path style="fill:#3CA3F4;" d="M388.882,269.095c-2.303-7.441-4.789-15.193-10.283-20.716
								c-7.362-7.4-18.556-9.259-28.984-9.743c-20.462-0.949-41.437,2.062-59.704,11.33c-6.286,3.189-12.345,7.223-16.462,12.944
								c-5.227,7.262-6.822,16.499-7.417,25.427c-2.066,31.033,6.164,61.713,9.662,92.618c1.043,9.214,1.377,19.474-4.437,26.698
								c-1.79,2.224-4.262,4.919-2.993,7.476c0.934,1.882,3.37,2.328,5.46,2.533c30.555,2.999,62.236,3.101,90.939-7.796
								c16.216-6.156,31.774-16.479,39.427-32.045c5.349-10.881,6.395-23.477,5.053-35.527c-1.342-12.051-4.945-23.718-8.531-35.301
								C396.702,294.361,392.792,281.728,388.882,269.095z"/>
						</g>
						<g>
							<path style="fill:#172F35;" d="M393.404,352.711c-5.425-10.582-15.201-19.448-26.936-21.374
								c-10.806-1.774-22.056,2.576-30.141,9.963c-8.084,7.387-13.265,17.514-16.37,28.015c-3.105,10.501-4.278,21.462-5.423,32.353
								c-0.494,4.704-0.683,10.221,2.916,13.29c3.216,2.742,8.004,2.226,12.15,1.407c14.035-2.775,27.732-7.257,40.691-13.318
								c11.197-5.236,22.687-12.664,26.425-24.446C399.416,370.091,397.477,360.654,393.404,352.711z"/>
						</g>
						<g>
							<path style="fill:#FFFFFF;" d="M290.568,265.424c-1.272-2.169-4.196-2.6-6.075-0.929c-5.736,5.102-9.01,12.907-9.903,20.65
								c-1.113,9.65,0.934,19.364,2.964,28.853c6.794-1.094,3.916-0.631,10.71-1.725c-0.758-6.57-1.21-13.268,0.101-19.747
								c1.123-5.549,3.685-10.975,7.793-14.797c1.257-1.169,1.324-3.107,0.18-4.387
								C294.159,270.903,292.223,268.246,290.568,265.424z"/>
						</g>
						<g>
							<path style="fill:#FFFFFF;" d="M375.509,257.997c-0.114,1.491-0.382,2.97-0.798,4.406c-0.329,1.138-0.014,2.367,0.859,3.167
								c5.104,4.675,8.986,10.679,11.134,17.26c1.011,0.315,2.084-0.54,2.401-1.55c0.317-1.01,0.087-2.101-0.145-3.134
								c-1.55-6.889-5.8-15.34-10.855-21.074C377.228,256.079,375.61,256.675,375.509,257.997z"/>
						</g>
						<g>
							<path style="fill:#FFC088;" d="M277.905,369.802c0.929-14.402-2.079-28.725-4.6-42.934
								c-2.522-14.21-4.566-28.847-1.738-42.999c2.828-14.152,11.395-27.917,24.755-33.374
								c-14.071,4.317-22.694,16.68-26.193,30.976c-3.499,14.296-2.04,30.311,0.897,44.733
								C273.963,340.625,277.171,355.102,277.905,369.802z"/>
						</g>
					</g>
					<g>
						<path style="fill:#172F35;" d="M354.997,244.428c-0.07-4-0.124-7.999-0.174-11.997c-14.643-1.56-29.578-0.334-43.771,3.592
							c0.848,3.141,1.719,6.294,2.603,9.452c3.685,19.069,22.13,92.204,22.13,92.204l18.385-4.399l-23.99-84.206
							C338.545,248.373,346.856,246.78,354.997,244.428z"/>
						<g>
							<path style="fill:#FFC088;" d="M354.997,243.345c-12.018,3.473-24.443,5.141-36.819,4.468
								c8.271,29.024,18.602,58.461,35.512,84.51c4.96-1.144,9.878-2.657,14.765-4.193c-5.763-13.68-9.1-28.354-10.967-43.107
								C355.739,271.207,355.24,257.277,354.997,243.345z"/>
						</g>
					</g>
				</g>
				<g>
					<g>
						<g>
							<path style="fill:#172F35;" d="M390.497,219.785c0,2.902-1.721,5.255-3.845,5.255c-2.124,0-3.845-2.353-3.845-5.255
								c0-2.902,1.722-5.255,3.845-5.255C388.776,214.53,390.497,216.883,390.497,219.785z"/>
						</g>
						<g>
							<path style="fill:#172F35;" d="M402.078,222.201c-0.361,0.858-1.252,1.4-2.164,1.588c-0.912,0.188-1.856,0.077-2.78-0.035
								c-4.552-0.549-9.105-1.098-13.657-1.647c0.11-1.666,0.22-3.332,0.33-4.999c4.266,0.244,8.532,0.488,12.799,0.731
								c1.375,0.079,2.81,0.175,3.995,0.877C401.784,219.419,402.612,220.931,402.078,222.201z"/>
						</g>
					</g>
					<g>
						<g>
							<path style="fill:#3CA3F4;" d="M385.537,214.954c-6.058,0.547-10.718-1.354-15.093-5.58c-2.598-2.51-4.594-5.711-7.674-7.6
								c-5.052-3.099-11.486-1.878-17.382-1.266c-8.711,0.904-17.845,0.3-25.84,3.875c-5.897,2.636-10.591,7.305-15.61,11.371
								c-8.657,7.013-18.622,12.392-29.213,15.849c1.942,2.149,3.39,4.775,4.434,7.586c8.492-1.731,17.391-1.925,26.092-1.596
								c13.552,0.513,27.153,2.166,40.631,0.658c5.541-0.62,11.12-1.809,15.983-4.538c3.928-2.205,7.258-5.339,11.085-7.714
								c3.827-2.375,7.287-3.541,11.597-2.232C387.293,221.824,387.506,217.11,385.537,214.954z"/>
						</g>
						<g>
							<path style="fill:#FFC088;" d="M305.765,221.255c0.533-0.107,1.053-0.303,1.496-0.617c2.194-1.556,1.682-5.143,3.516-7.109
								c-3.611,2.756-7.222,5.513-10.833,8.269C301.7,220.916,303.837,221.641,305.765,221.255z"/>
						</g>
					</g>
					<g>
						<path style="fill:#FFFFFF;" d="M287.78,246.28c1.087-0.492,1.681-1.71,1.363-2.861c-0.281-1.016-0.359-2.088-0.218-3.133
							c0.164-1.218,0.616-2.4,0.607-3.629c-0.014-1.783-0.992-3.407-2.032-4.856c-0.766-1.067-1.632-2.135-2.829-2.676
							c-1.8-0.814-3.893-0.26-5.786,0.304c-1.229,0.366-2.643,0.913-2.977,2.151c-0.155,0.573-0.032,1.183,0.134,1.753
							c0.668,2.283,2.059,4.348,3.924,5.824c1.159,0.917,2.604,1.771,2.895,3.22c0.213,1.065-0.304,2.168-1.063,2.945
							c-0.758,0.777-1.736,1.296-2.679,1.834c-7.685,4.378-14.086,10.742-19.505,17.732c-0.141,0.181-0.277,0.374-0.404,0.571
							c-0.017,0.024-0.039,0.042-0.055,0.066c-0.311,0.458-0.564,0.991-0.522,1.542c0.073,0.939,0.985,1.613,1.9,1.833
							c0.678,0.163,1.548,0.057,1.84-0.577c0.202-0.438,0.042-0.947-0.064-1.418c-0.105-0.462-0.146-0.936-0.139-1.409
							C269.172,257.331,277.98,250.717,287.78,246.28z"/>
					</g>
					<g>
						<g>
							<path style="fill:#FFFFFF;" d="M364.518,226.609c2.224-3.546,1.977-8.069,1.252-12.191c-0.525-2.99-1.349-6.149-3.624-8.159
								c-2.098-1.853-5.035-2.371-7.82-2.647c-8.803-0.872-17.771-0.057-26.273,2.387c-5.284,1.519-10.839,4.074-13.171,9.053
								c-2.452,5.235-0.904,13.014,3.367,16.91c4.271,3.896,10.114,3.626,15.894,3.76c6.753,0.156,14.082-0.905,20.528-2.921
								C361.477,230.672,362.448,229.909,364.518,226.609z"/>
						</g>
						<g>
							<path style="fill:#172F35;" d="M356.73,205.178c2.803,2.831,4.432,6.654,5.25,10.553c0.818,3.899,0.883,7.911,0.945,11.894
								c2.365-5.666,2.37-12.275,0.012-17.944c-0.541-1.301-1.225-2.584-2.289-3.507
								C359.583,205.251,358.071,204.746,356.73,205.178z"/>
						</g>
					</g>
					<g>
						<path style="fill:#FFFFFF;" d="M386.203,227.635c0.69,0.245,1.445,0.037,2.177,0.073c5.664,0.28,10.326-0.187,14.935,1.989
							c-0.292,0.141-0.452,1.128-0.269,1.396c0.523,0.596,1.642,0.208,1.881-0.548c0.239-0.757-0.217-1.593-0.869-2.045
							c-0.652-0.452-1.886-1.05-2.665-1.195c-4.56-0.847-8.693-1.251-13.254-2.098c-1.201-0.378-1.582-1.934-1.357-3.173
							c0.224-1.239,0.843-2.408,0.858-3.667c0.024-2.034-1.87-3.804-3.856-3.901c-0.495-0.024-0.868,0.463-0.692,0.926
							c0.985,2.59,0.719,5.635-0.681,8.025c-0.264,0.45-0.125,1.028,0.338,1.269C383.963,225.319,384.788,227.132,386.203,227.635z"
							/>
					</g>
					<g>
						<g>
							
								<ellipse transform="matrix(0.925 -0.38 0.38 0.925 -40.3889 160.3757)" style="fill:#FFFFFF;" cx="386.011" cy="182.486" rx="11.536" ry="11.536"/>
						</g>
						<g>
							<path style="fill:#FFFFFF;" d="M385.215,218.006c-0.495,0-0.93-0.358-1.011-0.863l-2.288-14.239
								c-0.272-1.704-0.126-3.468,0.425-5.101l4.366-12.952c0.18-0.536,0.764-0.825,1.299-0.644
								c0.537,0.181,0.825,0.762,0.644,1.299l-4.366,12.952c-0.445,1.319-0.563,2.744-0.342,4.121l2.288,14.239
								c0.09,0.559-0.29,1.085-0.85,1.175C385.323,218.002,385.269,218.006,385.215,218.006z"/>
						</g>
					</g>
					<g>
						<g>
							<circle style="fill:#FFFFFF;" cx="255.786" cy="198.893" r="14.612"/>
						</g>
						<g>
							<path style="fill:#FFFFFF;" d="M282.017,232.901c-0.464,0-0.884-0.316-0.996-0.787l-4.464-18.721
								c-0.463-1.94-1.732-3.6-3.482-4.554l-15.644-8.533c-0.498-0.271-0.681-0.894-0.41-1.391c0.271-0.497,0.897-0.681,1.391-0.409
								l15.644,8.533c2.26,1.232,3.898,3.375,4.495,5.879l4.464,18.721c0.131,0.551-0.208,1.104-0.759,1.235
								C282.177,232.892,282.096,232.901,282.017,232.901z"/>
						</g>
					</g>
					<g>
						<g>
							<path style="fill:#172F35;" d="M240.915,244.424c0.787,1.929,1.574,3.858,2.361,5.787
								c11.098-4.683,22.522-8.594,34.162-11.696c-0.695-2.159-1.739-4.204-3.079-6.033
								C263.21,236.462,252.062,240.443,240.915,244.424z"/>
						</g>
						<g>
							<path style="fill:#172F35;" d="M270.654,233.066c-0.09-1.345,0.917-2.618,2.192-3.056c1.274-0.438,2.724-0.134,3.868,0.578
								c1.144,0.713,2.014,1.795,2.711,2.949c0.865,1.433,1.502,3.036,1.595,4.707c0.042,0.764-0.245,1.673-0.68,2.551
								c-0.909,1.837-3.346,2.318-4.848,0.923C273.02,239.427,270.819,235.517,270.654,233.066z"/>
						</g>
						<g>
							<path style="fill:#172F35;" d="M245.361,246.886c1.365,2.602,0.769,5.604-1.331,6.705c-2.1,1.102-4.909-0.114-6.274-2.715
								c-1.365-2.601-0.769-5.604,1.331-6.705C241.187,243.069,243.996,244.284,245.361,246.886z"/>
						</g>
					</g>
				</g>
				<g>
					<g>
						<g>
							<path style="fill:#172F35;" d="M375.343,348.693c-1.981,0.259-9.549,1.251-11.53,1.51
								c-14.614,1.914-23.245,28.014-19.279,58.297c3.966,30.283,19.028,53.28,33.641,51.366c1.981-0.259,9.549-1.251,11.53-1.51
								c14.614-1.914,23.245-28.014,19.279-58.297C405.019,369.776,389.957,346.779,375.343,348.693z"/>
						</g>
						<g>
							<path style="fill:#A6BEBD;" d="M374.858,404.528c2.697,20.592-0.158,37.945-6.375,38.76
								c-6.218,0.814-13.445-15.219-16.142-35.811c-2.697-20.592,0.158-37.945,6.375-38.76
								C364.935,367.903,372.162,383.936,374.858,404.528z"/>
						</g>
					</g>
					<g>
						<g>
							<path style="fill:#3CA3F4;" d="M398.139,350.817c-4.392-6.092-10.06-11.416-16.911-14.493
								c-14.117-6.34-27.371-1.022-34.131,12.479c-4.721,9.428-8.768,21.991-8.159,32.615c0.68,11.875,0.942,25.259,3.539,36.867
								c22.529-2.638,54.857-7.963,74.617-15.337C414.292,385.165,408.667,365.422,398.139,350.817z"/>
						</g>
						<g>
							<path style="fill:#FFC088;" d="M356.83,340.321c-4.062,2.186-7.23,5.982-8.655,10.369c1.819-2.142,5.058-2.721,7.728-1.844
								c2.67,0.876,4.794,2.987,6.247,5.392c1.453,2.405,2.313,5.113,3.161,7.792c4.152,13.117,8.304,26.234,12.456,39.352
								c0.535,1.689,1.119,3.459,2.42,4.663c2.437,2.255,6.267,1.666,9.505,0.933c-1.668,0.357-3.4-0.585-4.463-1.919
								c-1.063-1.334-1.593-3.004-2.096-4.635c-5.442-17.632-10.304-35.443-14.577-53.395c-0.679-2.854-1.591-6.048-4.181-7.427
								C362.051,338.365,359.149,339.073,356.83,340.321z"/>
						</g>
					</g>
					<g>
						<g>
							<path style="fill:#172F35;" d="M344.576,371.637c-1.237,15.383,4.117,30.41,7.759,45.407
								c0.725,2.987,1.416,6.065,3.112,8.628c1.697,2.564,4.671,4.537,7.714,4.104c3.339-0.475,5.735-3.715,6.34-7.032
								c0.605-3.318-0.188-6.713-0.977-9.992c-4.087-16.993-8.174-33.986-12.261-50.98c-2.26-2.306-6.426-1.509-8.607,0.872
								C345.475,365.026,344.834,368.419,344.576,371.637z"/>
						</g>
						<g>
							<path style="fill:#A6BEBD;" d="M359.863,412.175c0,6.796-1.894,12.305-4.23,12.305c-2.336,0-4.23-5.509-4.23-12.305
								c0-6.796,1.894-12.305,4.23-12.305C357.97,399.87,359.863,405.379,359.863,412.175z"/>
						</g>
						<g>
							<path style="fill:#A6BEBD;" d="M363.533,425.771c0.586,0.713,1.682,0.856,2.534,0.502c0.852-0.354,1.479-1.114,1.895-1.937
								c1.316-2.606,0.754-5.727,0.098-8.572c-3.677-15.958-9.347-31.449-12.161-47.582c-0.234-1.341-0.471-2.741-1.281-3.835
								c-0.81-1.094-2.391-1.751-3.572-1.075c-0.811,0.464-1.226,1.433-1.274,2.367c-0.047,0.933,0.214,1.852,0.467,2.751
								c2.674,9.491,4.75,19.15,6.213,28.901c2.06,0.533,3.382,2.512,4.313,4.425c3.114,6.401,4.024,13.85,2.54,20.812
								C363.072,423.628,362.819,424.903,363.533,425.771z"/>
						</g>
						<g>
							<path style="fill:#A6BEBD;" d="M353.364,398.57c-1.401,1.733-2.436,3.76-3.019,5.912
								C350.157,402.16,351.373,399.78,353.364,398.57z"/>
						</g>
					</g>
				</g>
			</g>
			<g>
				<path style="fill:#FFC088;" d="M272.192,243.327c-0.715-2.108-1.948-7.534-3.931-8.545c-2.471-1.261-5.36-1.4-8.076-1.554
					c-2.881-0.163-5.821-0.536-8.672,0.101c-2.144,0.48-3.854,1.42-5.298,3.076c-1.538,1.764-2.396,3.13-2.307,5.469
					c0.089,2.339,3.944,6.413,6.283,6.502c-0.691,0.329-0.89,1.275-0.631,1.996c0.259,0.72,0.847,1.264,1.414,1.778
					c1.262,1.143,2.525,2.286,3.787,3.428c0.926,0.838,1.917,1.711,3.144,1.949c1.563,0.304,3.119-0.49,4.442-1.376
					c2.369-1.588,5.029-2.704,6.769-4.963C271.2,248.483,273.289,246.56,272.192,243.327z"/>
			</g>
		</g>
	</g>
</g>
</svg>
