<svg width="543" height="345" viewBox="0 0 543 345" fill="none" xmlns="http://www.w3.org/2000/svg" style="">
<g filter="url(#filter0_bii)">
<path width="543" height="345" fill="white" fill-opacity="0.28" d="M 30.000976562,0 L 513.000976562,0 A 30,30,0,0,1,543.000976562,30 L 543.000976562,315 A 30,30,0,0,1,513.000976562,345 L 30.000976562,345 A 30,30,0,0,1,0.000976562,315 L 0.000976562,30 A 30,30,0,0,1,30.000976562,0" class="YIgTODvP_0"></path>
</g>
<path width="541" height="343" stroke="url(#paint0_linear)" stroke-width="2" d="M 30.00098,1 L 513.00098,1 A 29,29,0,0,1,542.00098,30 L 542.00098,315 A 29,29,0,0,1,513.00098,344 L 30.00098,344 A 29,29,0,0,1,1.00098,315 L 1.00098,30 A 29,29,0,0,1,30.00098,1" class="YIgTODvP_1"></path>
<path d="M88.001 63V297H433.001" stroke="#A7A7A7" stroke-width="2" class="YIgTODvP_2"></path>
<path d="M223.001 215C145.401 139.8 114.001 138 87.001 138V298H436.001V269C403.001 286.667 285.001 275.082 223.001 215Z" fill="#0842A9" class="YIgTODvP_3"></path>
<path d="M87.001 137C116.001 137 148.801 146.6 196.001 189C255.001 242 299.001 207 309.001 176C319.001 145 353.001 68 436.001 67" stroke="#f8001b" stroke-width="2" class="YIgTODvP_4"></path>
<path d="M87.001 137C114.501 140.5 141.629 134.763 219.001 210.5C290.001 280 400.001 280.5 436.001 272" stroke="#3CA3F4" stroke-width="2" class="YIgTODvP_5"></path>
<path d="M86.001 137H434.001" stroke="#f8001b" stroke-dasharray="3 3" class="YIgTODvP_6"></path>
<path d="M190.001 187V298" stroke="#f8001b" stroke-dasharray="3 3" class="YIgTODvP_7"></path>
<path fill="#3CA3F4" stroke="white" stroke-width="3" d="M79.501,136.5A10,10 0,1,1 99.501,136.5A10,10 0,1,1 79.501,136.5" class="YIgTODvP_8"></path>
<path fill="#3CA3F4" stroke="white" stroke-width="3" d="M422.501,269.5A10,10 0,1,1 442.501,269.5A10,10 0,1,1 422.501,269.5" class="YIgTODvP_9"></path>
<path fill="#f8001b" stroke="white" stroke-width="3" d="M425.501,67.5A10,10 0,1,1 445.501,67.5A10,10 0,1,1 425.501,67.5" class="YIgTODvP_10"></path>
<path fill="#f8001b" stroke="white" stroke-width="3" d="M180.501,183.5A10,10 0,1,1 200.501,183.5A10,10 0,1,1 180.501,183.5" class="YIgTODvP_11"></path>
<path d="M55.1329 52.112C54.3542 52.112 53.6502 51.9787 53.0209 51.712C52.4022 51.4453 51.9115 51.0613 51.5489 50.56C51.1862 50.0587 50.9995 49.4667 50.9889 48.784H53.3889C53.4209 49.2427 53.5809 49.6053 53.8689 49.872C54.1675 50.1387 54.5729 50.272 55.0849 50.272C55.6075 50.272 56.0182 50.1493 56.3169 49.904C56.6155 49.648 56.7649 49.3173 56.7649 48.912C56.7649 48.5813 56.6635 48.3093 56.4609 48.096C56.2582 47.8827 56.0022 47.7173 55.6929 47.6C55.3942 47.472 54.9782 47.3333 54.4449 47.184C53.7195 46.9707 53.1275 46.7627 52.6689 46.56C52.2209 46.3467 51.8315 46.032 51.5009 45.616C51.1809 45.1893 51.0209 44.624 51.0209 43.92C51.0209 43.2587 51.1862 42.6827 51.5169 42.192C51.8475 41.7013 52.3115 41.328 52.9089 41.072C53.5062 40.8053 54.1889 40.672 54.9569 40.672C56.1089 40.672 57.0422 40.9547 57.7569 41.52C58.4822 42.0747 58.8822 42.8533 58.9569 43.856H56.4929C56.4715 43.472 56.3062 43.1573 55.9969 42.912C55.6982 42.656 55.2982 42.528 54.7969 42.528C54.3595 42.528 54.0075 42.64 53.7409 42.864C53.4849 43.088 53.3569 43.4133 53.3569 43.84C53.3569 44.1387 53.4529 44.3893 53.6449 44.592C53.8475 44.784 54.0929 44.944 54.3809 45.072C54.6795 45.1893 55.0955 45.328 55.6289 45.488C56.3542 45.7013 56.9462 45.9147 57.4049 46.128C57.8635 46.3413 58.2582 46.6613 58.5889 47.088C58.9195 47.5147 59.0849 48.0747 59.0849 48.768C59.0849 49.3653 58.9302 49.92 58.6209 50.432C58.3115 50.944 57.8582 51.3547 57.2609 51.664C56.6635 51.9627 55.9542 52.112 55.1329 52.112ZM69.2669 47.376C69.2669 47.696 69.2455 47.984 69.2029 48.24H62.7229C62.7762 48.88 63.0002 49.3813 63.3949 49.744C63.7895 50.1067 64.2749 50.288 64.8509 50.288C65.6829 50.288 66.2749 49.9307 66.6269 49.216H69.0429C68.7869 50.0693 68.2962 50.7733 67.5709 51.328C66.8455 51.872 65.9549 52.144 64.8989 52.144C64.0455 52.144 63.2775 51.9573 62.5949 51.584C61.9229 51.2 61.3949 50.6613 61.0109 49.968C60.6375 49.2747 60.4509 48.4747 60.4509 47.568C60.4509 46.6507 60.6375 45.8453 61.0109 45.152C61.3842 44.4587 61.9069 43.9253 62.5789 43.552C63.2509 43.1787 64.0242 42.992 64.8989 42.992C65.7415 42.992 66.4935 43.1733 67.1549 43.536C67.8269 43.8987 68.3442 44.416 68.7069 45.088C69.0802 45.7493 69.2669 46.512 69.2669 47.376ZM66.9469 46.736C66.9362 46.16 66.7282 45.7013 66.3229 45.36C65.9175 45.008 65.4215 44.832 64.8349 44.832C64.2802 44.832 63.8109 45.0027 63.4269 45.344C63.0535 45.6747 62.8242 46.1387 62.7389 46.736H66.9469ZM79.2699 43.136V52H77.0139V50.88C76.7259 51.264 76.3472 51.568 75.8779 51.792C75.4192 52.0053 74.9179 52.112 74.3739 52.112C73.6805 52.112 73.0672 51.968 72.5339 51.68C72.0005 51.3813 71.5792 50.9493 71.2699 50.384C70.9712 49.808 70.8219 49.1253 70.8219 48.336V43.136H73.0619V48.016C73.0619 48.72 73.2379 49.264 73.5899 49.648C73.9419 50.0213 74.4219 50.208 75.0299 50.208C75.6485 50.208 76.1339 50.0213 76.4859 49.648C76.8379 49.264 77.0139 48.72 77.0139 48.016V43.136H79.2699ZM87.5325 44.416C87.8205 44.0107 88.2151 43.6747 88.7165 43.408C89.2285 43.1307 89.8098 42.992 90.4605 42.992C91.2178 42.992 91.9005 43.1787 92.5085 43.552C93.1271 43.9253 93.6125 44.4587 93.9645 45.152C94.3271 45.8347 94.5085 46.6293 94.5085 47.536C94.5085 48.4427 94.3271 49.248 93.9645 49.952C93.6125 50.6453 93.1271 51.184 92.5085 51.568C91.9005 51.952 91.2178 52.144 90.4605 52.144C89.8098 52.144 89.2338 52.0107 88.7325 51.744C88.2418 51.4773 87.8418 51.1413 87.5325 50.736V56.224H85.2925V43.136H87.5325V44.416ZM92.2205 47.536C92.2205 47.0027 92.1085 46.544 91.8845 46.16C91.6711 45.7653 91.3831 45.4667 91.0205 45.264C90.6685 45.0613 90.2845 44.96 89.8685 44.96C89.4631 44.96 89.0791 45.0667 88.7165 45.28C88.3645 45.4827 88.0765 45.7813 87.8525 46.176C87.6391 46.5707 87.5325 47.0347 87.5325 47.568C87.5325 48.1013 87.6391 48.5653 87.8525 48.96C88.0765 49.3547 88.3645 49.6587 88.7165 49.872C89.0791 50.0747 89.4631 50.176 89.8685 50.176C90.2845 50.176 90.6685 50.0693 91.0205 49.856C91.3831 49.6427 91.6711 49.3387 91.8845 48.944C92.1085 48.5493 92.2205 48.08 92.2205 47.536ZM104.376 47.376C104.376 47.696 104.355 47.984 104.312 48.24H97.8322C97.8856 48.88 98.1096 49.3813 98.5042 49.744C98.8989 50.1067 99.3842 50.288 99.9602 50.288C100.792 50.288 101.384 49.9307 101.736 49.216H104.152C103.896 50.0693 103.406 50.7733 102.68 51.328C101.955 51.872 101.064 52.144 100.008 52.144C99.1549 52.144 98.3869 51.9573 97.7042 51.584C97.0322 51.2 96.5042 50.6613 96.1202 49.968C95.7469 49.2747 95.5602 48.4747 95.5602 47.568C95.5602 46.6507 95.7469 45.8453 96.1202 45.152C96.4936 44.4587 97.0162 43.9253 97.6882 43.552C98.3602 43.1787 99.1336 42.992 100.008 42.992C100.851 42.992 101.603 43.1733 102.264 43.536C102.936 43.8987 103.454 44.416 103.816 45.088C104.19 45.7493 104.376 46.512 104.376 47.376ZM102.056 46.736C102.046 46.16 101.838 45.7013 101.432 45.36C101.027 45.008 100.531 44.832 99.9442 44.832C99.3896 44.832 98.9202 45.0027 98.5362 45.344C98.1629 45.6747 97.9336 46.1387 97.8482 46.736H102.056ZM109.403 52.144C108.678 52.144 108.027 52.016 107.451 51.76C106.875 51.4933 106.417 51.136 106.075 50.688C105.745 50.24 105.563 49.744 105.531 49.2H107.787C107.83 49.5413 107.995 49.824 108.283 50.048C108.582 50.272 108.95 50.384 109.387 50.384C109.814 50.384 110.145 50.2987 110.379 50.128C110.625 49.9573 110.747 49.7387 110.747 49.472C110.747 49.184 110.598 48.9707 110.299 48.832C110.011 48.6827 109.547 48.5227 108.907 48.352C108.246 48.192 107.702 48.0267 107.275 47.856C106.859 47.6853 106.497 47.424 106.187 47.072C105.889 46.72 105.739 46.2453 105.739 45.648C105.739 45.1573 105.878 44.7093 106.155 44.304C106.443 43.8987 106.849 43.5787 107.371 43.344C107.905 43.1093 108.529 42.992 109.243 42.992C110.299 42.992 111.142 43.2587 111.771 43.792C112.401 44.3147 112.747 45.024 112.811 45.92H110.667C110.635 45.568 110.486 45.2907 110.219 45.088C109.963 44.8747 109.617 44.768 109.179 44.768C108.774 44.768 108.459 44.8427 108.235 44.992C108.022 45.1413 107.915 45.3493 107.915 45.616C107.915 45.9147 108.065 46.144 108.363 46.304C108.662 46.4533 109.126 46.608 109.755 46.768C110.395 46.928 110.923 47.0933 111.339 47.264C111.755 47.4347 112.113 47.7013 112.411 48.064C112.721 48.416 112.881 48.8853 112.891 49.472C112.891 49.984 112.747 50.4427 112.459 50.848C112.182 51.2533 111.777 51.5733 111.243 51.808C110.721 52.032 110.107 52.144 109.403 52.144ZM118.666 52.144C117.813 52.144 117.045 51.9573 116.362 51.584C115.679 51.2 115.141 50.6613 114.746 49.968C114.362 49.2747 114.17 48.4747 114.17 47.568C114.17 46.6613 114.367 45.8613 114.762 45.168C115.167 44.4747 115.717 43.9413 116.41 43.568C117.103 43.184 117.877 42.992 118.73 42.992C119.583 42.992 120.357 43.184 121.05 43.568C121.743 43.9413 122.287 44.4747 122.682 45.168C123.087 45.8613 123.29 46.6613 123.29 47.568C123.29 48.4747 123.082 49.2747 122.666 49.968C122.261 50.6613 121.706 51.2 121.002 51.584C120.309 51.9573 119.53 52.144 118.666 52.144ZM118.666 50.192C119.071 50.192 119.45 50.096 119.802 49.904C120.165 49.7013 120.453 49.4027 120.666 49.008C120.879 48.6133 120.986 48.1333 120.986 47.568C120.986 46.7253 120.762 46.08 120.314 45.632C119.877 45.1733 119.338 44.944 118.698 44.944C118.058 44.944 117.519 45.1733 117.082 45.632C116.655 46.08 116.442 46.7253 116.442 47.568C116.442 48.4107 116.65 49.0613 117.066 49.52C117.493 49.968 118.026 50.192 118.666 50.192Z" fill="#54575F" class="YIgTODvP_12"></path>
<path d="M413.744 313.832V315.64H410.768V325H408.528V315.64H405.552V313.832H413.744ZM423.618 320.376C423.618 320.696 423.597 320.984 423.554 321.24H417.074C417.128 321.88 417.352 322.381 417.746 322.744C418.141 323.107 418.626 323.288 419.202 323.288C420.034 323.288 420.626 322.931 420.978 322.216H423.394C423.138 323.069 422.648 323.773 421.922 324.328C421.197 324.872 420.306 325.144 419.25 325.144C418.397 325.144 417.629 324.957 416.946 324.584C416.274 324.2 415.746 323.661 415.362 322.968C414.989 322.275 414.802 321.475 414.802 320.568C414.802 319.651 414.989 318.845 415.362 318.152C415.736 317.459 416.258 316.925 416.93 316.552C417.602 316.179 418.376 315.992 419.25 315.992C420.093 315.992 420.845 316.173 421.506 316.536C422.178 316.899 422.696 317.416 423.058 318.088C423.432 318.749 423.618 319.512 423.618 320.376ZM421.298 319.736C421.288 319.16 421.08 318.701 420.674 318.36C420.269 318.008 419.773 317.832 419.186 317.832C418.632 317.832 418.162 318.003 417.778 318.344C417.405 318.675 417.176 319.139 417.09 319.736H421.298ZM436.261 316.008C437.349 316.008 438.224 316.344 438.885 317.016C439.557 317.677 439.893 318.605 439.893 319.8V325H437.653V320.104C437.653 319.411 437.477 318.883 437.125 318.52C436.773 318.147 436.293 317.96 435.685 317.96C435.077 317.96 434.592 318.147 434.229 318.52C433.877 318.883 433.701 319.411 433.701 320.104V325H431.461V320.104C431.461 319.411 431.285 318.883 430.933 318.52C430.581 318.147 430.101 317.96 429.493 317.96C428.875 317.96 428.384 318.147 428.021 318.52C427.669 318.883 427.493 319.411 427.493 320.104V325H425.253V316.136H427.493V317.208C427.781 316.835 428.149 316.541 428.597 316.328C429.056 316.115 429.557 316.008 430.101 316.008C430.795 316.008 431.413 316.157 431.957 316.456C432.501 316.744 432.923 317.16 433.221 317.704C433.509 317.192 433.925 316.781 434.469 316.472C435.024 316.163 435.621 316.008 436.261 316.008ZM444.259 317.416C444.547 317.011 444.942 316.675 445.443 316.408C445.955 316.131 446.536 315.992 447.187 315.992C447.944 315.992 448.627 316.179 449.235 316.552C449.854 316.925 450.339 317.459 450.691 318.152C451.054 318.835 451.235 319.629 451.235 320.536C451.235 321.443 451.054 322.248 450.691 322.952C450.339 323.645 449.854 324.184 449.235 324.568C448.627 324.952 447.944 325.144 447.187 325.144C446.536 325.144 445.96 325.011 445.459 324.744C444.968 324.477 444.568 324.141 444.259 323.736V329.224H442.019V316.136H444.259V317.416ZM448.947 320.536C448.947 320.003 448.835 319.544 448.611 319.16C448.398 318.765 448.11 318.467 447.747 318.264C447.395 318.061 447.011 317.96 446.595 317.96C446.19 317.96 445.806 318.067 445.443 318.28C445.091 318.483 444.803 318.781 444.579 319.176C444.366 319.571 444.259 320.035 444.259 320.568C444.259 321.101 444.366 321.565 444.579 321.96C444.803 322.355 445.091 322.659 445.443 322.872C445.806 323.075 446.19 323.176 446.595 323.176C447.011 323.176 447.395 323.069 447.747 322.856C448.11 322.643 448.398 322.339 448.611 321.944C448.835 321.549 448.947 321.08 448.947 320.536ZM456.799 325.144C455.945 325.144 455.177 324.957 454.495 324.584C453.812 324.2 453.273 323.661 452.879 322.968C452.495 322.275 452.303 321.475 452.303 320.568C452.303 319.661 452.5 318.861 452.895 318.168C453.3 317.475 453.849 316.941 454.543 316.568C455.236 316.184 456.009 315.992 456.863 315.992C457.716 315.992 458.489 316.184 459.183 316.568C459.876 316.941 460.42 317.475 460.815 318.168C461.22 318.861 461.423 319.661 461.423 320.568C461.423 321.475 461.215 322.275 460.799 322.968C460.393 323.661 459.839 324.2 459.135 324.584C458.441 324.957 457.663 325.144 456.799 325.144ZM456.799 323.192C457.204 323.192 457.583 323.096 457.935 322.904C458.297 322.701 458.585 322.403 458.799 322.008C459.012 321.613 459.119 321.133 459.119 320.568C459.119 319.725 458.895 319.08 458.447 318.632C458.009 318.173 457.471 317.944 456.831 317.944C456.191 317.944 455.652 318.173 455.215 318.632C454.788 319.08 454.575 319.725 454.575 320.568C454.575 321.411 454.783 322.061 455.199 322.52C455.625 322.968 456.159 323.192 456.799 323.192Z" fill="#54575F" class="YIgTODvP_13"></path>
<path d="M383.713 38.228C384.74 38.228 385.64 38.4287 386.415 38.83C387.199 39.2313 387.801 39.8053 388.221 40.552C388.65 41.2893 388.865 42.148 388.865 43.128C388.865 44.108 388.65 44.9667 388.221 45.704C387.801 46.432 387.199 46.9967 386.415 47.398C385.64 47.7993 384.74 48 383.713 48H380.297V38.228H383.713ZM383.643 46.334C384.67 46.334 385.463 46.054 386.023 45.494C386.583 44.934 386.863 44.1453 386.863 43.128C386.863 42.1107 386.583 41.3173 386.023 40.748C385.463 40.1693 384.67 39.88 383.643 39.88H382.257V46.334H383.643ZM391.326 39.32C390.981 39.32 390.692 39.2127 390.458 38.998C390.234 38.774 390.122 38.4987 390.122 38.172C390.122 37.8453 390.234 37.5747 390.458 37.36C390.692 37.136 390.981 37.024 391.326 37.024C391.672 37.024 391.956 37.136 392.18 37.36C392.414 37.5747 392.53 37.8453 392.53 38.172C392.53 38.4987 392.414 38.774 392.18 38.998C391.956 39.2127 391.672 39.32 391.326 39.32ZM392.292 40.244V48H390.332V40.244H392.292ZM401.439 43.954C401.439 44.234 401.42 44.486 401.383 44.71H395.713C395.759 45.27 395.955 45.7087 396.301 46.026C396.646 46.3433 397.071 46.502 397.575 46.502C398.303 46.502 398.821 46.1893 399.129 45.564H401.243C401.019 46.3107 400.589 46.9267 399.955 47.412C399.32 47.888 398.541 48.126 397.617 48.126C396.87 48.126 396.198 47.9627 395.601 47.636C395.013 47.3 394.551 46.8287 394.215 46.222C393.888 45.6153 393.725 44.9153 393.725 44.122C393.725 43.3193 393.888 42.6147 394.215 42.008C394.541 41.4013 394.999 40.9347 395.587 40.608C396.175 40.2813 396.851 40.118 397.617 40.118C398.354 40.118 399.012 40.2767 399.591 40.594C400.179 40.9113 400.631 41.364 400.949 41.952C401.275 42.5307 401.439 43.198 401.439 43.954ZM399.409 43.394C399.399 42.89 399.217 42.4887 398.863 42.19C398.508 41.882 398.074 41.728 397.561 41.728C397.075 41.728 396.665 41.8773 396.329 42.176C396.002 42.4653 395.801 42.8713 395.727 43.394H399.409ZM405.151 41.854V45.606C405.151 45.8673 405.212 46.0587 405.333 46.18C405.464 46.292 405.679 46.348 405.977 46.348H406.887V48H405.655C404.003 48 403.177 47.1973 403.177 45.592V41.854H402.253V40.244H403.177V38.326H405.151V40.244H406.887V41.854H405.151ZM407.793 44.094C407.793 43.31 407.947 42.6147 408.255 42.008C408.572 41.4013 408.997 40.9347 409.529 40.608C410.07 40.2813 410.672 40.118 411.335 40.118C411.914 40.118 412.418 40.2347 412.847 40.468C413.286 40.7013 413.636 40.9953 413.897 41.35V40.244H415.871V48H413.897V46.866C413.645 47.23 413.295 47.5333 412.847 47.776C412.408 48.0093 411.9 48.126 411.321 48.126C410.668 48.126 410.07 47.958 409.529 47.622C408.997 47.286 408.572 46.8147 408.255 46.208C407.947 45.592 407.793 44.8873 407.793 44.094ZM413.897 44.122C413.897 43.646 413.804 43.24 413.617 42.904C413.43 42.5587 413.178 42.2973 412.861 42.12C412.544 41.9333 412.203 41.84 411.839 41.84C411.475 41.84 411.139 41.9287 410.831 42.106C410.523 42.2833 410.271 42.5447 410.075 42.89C409.888 43.226 409.795 43.6273 409.795 44.094C409.795 44.5607 409.888 44.9713 410.075 45.326C410.271 45.6713 410.523 45.9373 410.831 46.124C411.148 46.3107 411.484 46.404 411.839 46.404C412.203 46.404 412.544 46.3153 412.861 46.138C413.178 45.9513 413.43 45.69 413.617 45.354C413.804 45.0087 413.897 44.598 413.897 44.122ZM420.753 48.126C420.119 48.126 419.549 48.014 419.045 47.79C418.541 47.5567 418.14 47.244 417.841 46.852C417.552 46.46 417.393 46.026 417.365 45.55H419.339C419.377 45.8487 419.521 46.096 419.773 46.292C420.035 46.488 420.357 46.586 420.739 46.586C421.113 46.586 421.402 46.5113 421.607 46.362C421.822 46.2127 421.929 46.0213 421.929 45.788C421.929 45.536 421.799 45.3493 421.537 45.228C421.285 45.0973 420.879 44.9573 420.319 44.808C419.741 44.668 419.265 44.5233 418.891 44.374C418.527 44.2247 418.21 43.996 417.939 43.688C417.678 43.38 417.547 42.9647 417.547 42.442C417.547 42.0127 417.669 41.6207 417.911 41.266C418.163 40.9113 418.518 40.6313 418.975 40.426C419.442 40.2207 419.988 40.118 420.613 40.118C421.537 40.118 422.275 40.3513 422.825 40.818C423.376 41.2753 423.679 41.896 423.735 42.68H421.859C421.831 42.372 421.701 42.1293 421.467 41.952C421.243 41.7653 420.94 41.672 420.557 41.672C420.203 41.672 419.927 41.7373 419.731 41.868C419.545 41.9987 419.451 42.1807 419.451 42.414C419.451 42.6753 419.582 42.876 419.843 43.016C420.105 43.1467 420.511 43.282 421.061 43.422C421.621 43.562 422.083 43.7067 422.447 43.856C422.811 44.0053 423.124 44.2387 423.385 44.556C423.656 44.864 423.796 45.2747 423.805 45.788C423.805 46.236 423.679 46.6373 423.427 46.992C423.185 47.3467 422.83 47.6267 422.363 47.832C421.906 48.028 421.369 48.126 420.753 48.126ZM428.246 44.094C428.246 43.31 428.4 42.6147 428.708 42.008C429.026 41.4013 429.455 40.9347 429.996 40.608C430.538 40.2813 431.14 40.118 431.802 40.118C432.306 40.118 432.787 40.23 433.244 40.454C433.702 40.6687 434.066 40.958 434.336 41.322V37.64H436.324V48H434.336V46.852C434.094 47.2347 433.753 47.5427 433.314 47.776C432.876 48.0093 432.367 48.126 431.788 48.126C431.135 48.126 430.538 47.958 429.996 47.622C429.455 47.286 429.026 46.8147 428.708 46.208C428.4 45.592 428.246 44.8873 428.246 44.094ZM434.35 44.122C434.35 43.646 434.257 43.24 434.07 42.904C433.884 42.5587 433.632 42.2973 433.314 42.12C432.997 41.9333 432.656 41.84 432.292 41.84C431.928 41.84 431.592 41.9287 431.284 42.106C430.976 42.2833 430.724 42.5447 430.528 42.89C430.342 43.226 430.248 43.6273 430.248 44.094C430.248 44.5607 430.342 44.9713 430.528 45.326C430.724 45.6713 430.976 45.9373 431.284 46.124C431.602 46.3107 431.938 46.404 432.292 46.404C432.656 46.404 432.997 46.3153 433.314 46.138C433.632 45.9513 433.884 45.69 434.07 45.354C434.257 45.0087 434.35 44.598 434.35 44.122ZM437.734 44.094C437.734 43.31 437.888 42.6147 438.196 42.008C438.514 41.4013 438.938 40.9347 439.47 40.608C440.012 40.2813 440.614 40.118 441.276 40.118C441.855 40.118 442.359 40.2347 442.788 40.468C443.227 40.7013 443.577 40.9953 443.838 41.35V40.244H445.812V48H443.838V46.866C443.586 47.23 443.236 47.5333 442.788 47.776C442.35 48.0093 441.841 48.126 441.262 48.126C440.609 48.126 440.012 47.958 439.47 47.622C438.938 47.286 438.514 46.8147 438.196 46.208C437.888 45.592 437.734 44.8873 437.734 44.094ZM443.838 44.122C443.838 43.646 443.745 43.24 443.558 42.904C443.372 42.5587 443.12 42.2973 442.802 42.12C442.485 41.9333 442.144 41.84 441.78 41.84C441.416 41.84 441.08 41.9287 440.772 42.106C440.464 42.2833 440.212 42.5447 440.016 42.89C439.83 43.226 439.736 43.6273 439.736 44.094C439.736 44.5607 439.83 44.9713 440.016 45.326C440.212 45.6713 440.464 45.9373 440.772 46.124C441.09 46.3107 441.426 46.404 441.78 46.404C442.144 46.404 442.485 46.3153 442.802 46.138C443.12 45.9513 443.372 45.69 443.558 45.354C443.745 45.0087 443.838 44.598 443.838 44.122ZM460.695 40.132C461.647 40.132 462.412 40.426 462.991 41.014C463.579 41.5927 463.873 42.4047 463.873 43.45V48H461.913V43.716C461.913 43.1093 461.759 42.6473 461.451 42.33C461.143 42.0033 460.723 41.84 460.191 41.84C459.659 41.84 459.234 42.0033 458.917 42.33C458.609 42.6473 458.455 43.1093 458.455 43.716V48H456.495V43.716C456.495 43.1093 456.341 42.6473 456.033 42.33C455.725 42.0033 455.305 41.84 454.773 41.84C454.231 41.84 453.802 42.0033 453.485 42.33C453.177 42.6473 453.023 43.1093 453.023 43.716V48H451.063V40.244H453.023V41.182C453.275 40.8553 453.597 40.5987 453.989 40.412C454.39 40.2253 454.829 40.132 455.305 40.132C455.911 40.132 456.453 40.2627 456.929 40.524C457.405 40.776 457.773 41.14 458.035 41.616C458.287 41.168 458.651 40.8087 459.127 40.538C459.612 40.2673 460.135 40.132 460.695 40.132ZM469.177 48.126C468.43 48.126 467.758 47.9627 467.161 47.636C466.563 47.3 466.092 46.8287 465.747 46.222C465.411 45.6153 465.243 44.9153 465.243 44.122C465.243 43.3287 465.415 42.6287 465.761 42.022C466.115 41.4153 466.596 40.9487 467.203 40.622C467.809 40.286 468.486 40.118 469.233 40.118C469.979 40.118 470.656 40.286 471.263 40.622C471.869 40.9487 472.345 41.4153 472.691 42.022C473.045 42.6287 473.223 43.3287 473.223 44.122C473.223 44.9153 473.041 45.6153 472.677 46.222C472.322 46.8287 471.837 47.3 471.221 47.636C470.614 47.9627 469.933 48.126 469.177 48.126ZM469.177 46.418C469.531 46.418 469.863 46.334 470.171 46.166C470.488 45.9887 470.74 45.7273 470.927 45.382C471.113 45.0367 471.207 44.6167 471.207 44.122C471.207 43.3847 471.011 42.82 470.619 42.428C470.236 42.0267 469.765 41.826 469.205 41.826C468.645 41.826 468.173 42.0267 467.791 42.428C467.417 42.82 467.231 43.3847 467.231 44.122C467.231 44.8593 467.413 45.4287 467.777 45.83C468.15 46.222 468.617 46.418 469.177 46.418ZM474.156 44.094C474.156 43.31 474.31 42.6147 474.618 42.008C474.936 41.4013 475.365 40.9347 475.906 40.608C476.448 40.2813 477.05 40.118 477.712 40.118C478.216 40.118 478.697 40.23 479.154 40.454C479.612 40.6687 479.976 40.958 480.246 41.322V37.64H482.234V48H480.246V46.852C480.004 47.2347 479.663 47.5427 479.224 47.776C478.786 48.0093 478.277 48.126 477.698 48.126C477.045 48.126 476.448 47.958 475.906 47.622C475.365 47.286 474.936 46.8147 474.618 46.208C474.31 45.592 474.156 44.8873 474.156 44.094ZM480.26 44.122C480.26 43.646 480.167 43.24 479.98 42.904C479.794 42.5587 479.542 42.2973 479.224 42.12C478.907 41.9333 478.566 41.84 478.202 41.84C477.838 41.84 477.502 41.9287 477.194 42.106C476.886 42.2833 476.634 42.5447 476.438 42.89C476.252 43.226 476.158 43.6273 476.158 44.094C476.158 44.5607 476.252 44.9713 476.438 45.326C476.634 45.6713 476.886 45.9373 477.194 46.124C477.512 46.3107 477.848 46.404 478.202 46.404C478.566 46.404 478.907 46.3153 479.224 46.138C479.542 45.9513 479.794 45.69 479.98 45.354C480.167 45.0087 480.26 44.598 480.26 44.122ZM483.645 44.094C483.645 43.31 483.799 42.6147 484.107 42.008C484.424 41.4013 484.849 40.9347 485.381 40.608C485.922 40.2813 486.524 40.118 487.187 40.118C487.765 40.118 488.269 40.2347 488.699 40.468C489.137 40.7013 489.487 40.9953 489.749 41.35V40.244H491.723V48H489.749V46.866C489.497 47.23 489.147 47.5333 488.699 47.776C488.26 48.0093 487.751 48.126 487.173 48.126C486.519 48.126 485.922 47.958 485.381 47.622C484.849 47.286 484.424 46.8147 484.107 46.208C483.799 45.592 483.645 44.8873 483.645 44.094ZM489.749 44.122C489.749 43.646 489.655 43.24 489.469 42.904C489.282 42.5587 489.03 42.2973 488.713 42.12C488.395 41.9333 488.055 41.84 487.691 41.84C487.327 41.84 486.991 41.9287 486.683 42.106C486.375 42.2833 486.123 42.5447 485.927 42.89C485.74 43.226 485.647 43.6273 485.647 44.094C485.647 44.5607 485.74 44.9713 485.927 45.326C486.123 45.6713 486.375 45.9373 486.683 46.124C487 46.3107 487.336 46.404 487.691 46.404C488.055 46.404 488.395 46.3153 488.713 46.138C489.03 45.9513 489.282 45.69 489.469 45.354C489.655 45.0087 489.749 44.598 489.749 44.122Z" fill="#f8001b" class="YIgTODvP_15"></path>
<defs>
<filter id="filter0_bii" x="-27.999" y="-28" width="599" height="401" filterUnits="userSpaceOnUse" color-interpolation-filters="sRGB">
<feFlood flood-opacity="0" result="BackgroundImageFix"></feFlood>
<feGaussianBlur in="BackgroundImage" stdDeviation="14"></feGaussianBlur>
<feComposite in2="SourceAlpha" operator="in" result="effect1_backgroundBlur"></feComposite>
<feBlend mode="normal" in="SourceGraphic" in2="effect1_backgroundBlur" result="shape"></feBlend>
<feColorMatrix in="SourceAlpha" type="matrix" values="0 0 0 0 0 0 0 0 0 0 0 0 0 0 0 0 0 0 127 0" result="hardAlpha"></feColorMatrix>
<feOffset dy="4"></feOffset>
<feGaussianBlur stdDeviation="2"></feGaussianBlur>
<feComposite in2="hardAlpha" operator="arithmetic" k2="-1" k3="1"></feComposite>
<feColorMatrix type="matrix" values="0 0 0 0 1 0 0 0 0 1 0 0 0 0 1 0 0 0 0.15 0"></feColorMatrix>
<feBlend mode="normal" in2="shape" result="effect2_innerShadow"></feBlend>
<feColorMatrix in="SourceAlpha" type="matrix" values="0 0 0 0 0 0 0 0 0 0 0 0 0 0 0 0 0 0 127 0" result="hardAlpha"></feColorMatrix>
<feOffset></feOffset>
<feGaussianBlur stdDeviation="8"></feGaussianBlur>
<feComposite in2="hardAlpha" operator="arithmetic" k2="-1" k3="1"></feComposite>
<feColorMatrix type="matrix" values="0 0 0 0 1 0 0 0 0 1 0 0 0 0 1 0 0 0 0.05 0"></feColorMatrix>
<feBlend mode="normal" in2="effect2_innerShadow" result="effect3_innerShadow"></feBlend>
</filter>
<linearGradient id="paint0_linear" x1="-0.173712" y1="0.342119" x2="53.316" y2="403.484" gradientUnits="userSpaceOnUse">
<stop stop-color="white"></stop>
<stop offset="0.479167" stop-color="white" stop-opacity="0"></stop>
<stop offset="1" stop-color="white" stop-opacity="0"></stop>
</linearGradient>
</defs>
<style data-made-with="vivus-instant">.YIgTODvP_0{stroke-dasharray:1725 1727;stroke-dashoffset:1726;animation:YIgTODvP_draw_0 5700ms linear 0ms infinite,YIgTODvP_fade 5700ms linear 0ms infinite;}.YIgTODvP_1{stroke-dasharray:1719 1721;stroke-dashoffset:1720;animation:YIgTODvP_draw_1 5700ms linear 0ms infinite,YIgTODvP_fade 5700ms linear 0ms infinite;}.YIgTODvP_2{stroke-dasharray:579 581;stroke-dashoffset:580;animation:YIgTODvP_draw_2 5700ms linear 0ms infinite,YIgTODvP_fade 5700ms linear 0ms infinite;}.YIgTODvP_3{stroke-dasharray:928 930;stroke-dashoffset:929;animation:YIgTODvP_draw_3 5700ms linear 0ms infinite,YIgTODvP_fade 5700ms linear 0ms infinite;}.YIgTODvP_4{stroke-dasharray:442 444;stroke-dashoffset:443;animation:YIgTODvP_draw_4 5700ms linear 0ms infinite,YIgTODvP_fade 5700ms linear 0ms infinite;}.YIgTODvP_5{stroke-dasharray:389 391;stroke-dashoffset:390;animation:YIgTODvP_draw_5 5700ms linear 0ms infinite,YIgTODvP_fade 5700ms linear 0ms infinite;}.YIgTODvP_6{stroke-dasharray:348 350;stroke-dashoffset:349;animation:YIgTODvP_draw_6 5700ms linear 0ms infinite,YIgTODvP_fade 5700ms linear 0ms infinite;}.YIgTODvP_7{stroke-dasharray:111 113;stroke-dashoffset:112;animation:YIgTODvP_draw_7 5700ms linear 0ms infinite,YIgTODvP_fade 5700ms linear 0ms infinite;}.YIgTODvP_8{stroke-dasharray:63 65;stroke-dashoffset:64;animation:YIgTODvP_draw_8 5700ms linear 0ms infinite,YIgTODvP_fade 5700ms linear 0ms infinite;}.YIgTODvP_9{stroke-dasharray:63 65;stroke-dashoffset:64;animation:YIgTODvP_draw_9 5700ms linear 0ms infinite,YIgTODvP_fade 5700ms linear 0ms infinite;}.YIgTODvP_10{stroke-dasharray:63 65;stroke-dashoffset:64;animation:YIgTODvP_draw_10 5700ms linear 0ms infinite,YIgTODvP_fade 5700ms linear 0ms infinite;}.YIgTODvP_11{stroke-dasharray:63 65;stroke-dashoffset:64;animation:YIgTODvP_draw_11 5700ms linear 0ms infinite,YIgTODvP_fade 5700ms linear 0ms infinite;}.YIgTODvP_12{stroke-dasharray:358 360;stroke-dashoffset:359;animation:YIgTODvP_draw_12 5700ms linear 0ms infinite,YIgTODvP_fade 5700ms linear 0ms infinite;}.YIgTODvP_13{stroke-dasharray:270 272;stroke-dashoffset:271;animation:YIgTODvP_draw_13 5700ms linear 0ms infinite,YIgTODvP_fade 5700ms linear 0ms infinite;}.YIgTODvP_14{stroke-dasharray:969 971;stroke-dashoffset:970;animation:YIgTODvP_draw_14 5700ms linear 0ms infinite,YIgTODvP_fade 5700ms linear 0ms infinite;}.YIgTODvP_15{stroke-dasharray:538 540;stroke-dashoffset:539;animation:YIgTODvP_draw_15 5700ms linear 0ms infinite,YIgTODvP_fade 5700ms linear 0ms infinite;}@keyframes YIgTODvP_draw{100%{stroke-dashoffset:0;}}@keyframes YIgTODvP_fade{0%{stroke-opacity:1;}92.98245614035088%{stroke-opacity:1;}100%{stroke-opacity:0;}}@keyframes YIgTODvP_draw_0{14.035087719298245%{stroke-dashoffset: 1726}49.122807017543856%{ stroke-dashoffset: 0;}100%{ stroke-dashoffset: 0;}}@keyframes YIgTODvP_draw_1{15.204678362573098%{stroke-dashoffset: 1720}50.29239766081871%{ stroke-dashoffset: 0;}100%{ stroke-dashoffset: 0;}}@keyframes YIgTODvP_draw_2{16.374269005847957%{stroke-dashoffset: 580}51.461988304093566%{ stroke-dashoffset: 0;}100%{ stroke-dashoffset: 0;}}@keyframes YIgTODvP_draw_3{17.543859649122805%{stroke-dashoffset: 929}52.63157894736842%{ stroke-dashoffset: 0;}100%{ stroke-dashoffset: 0;}}@keyframes YIgTODvP_draw_4{18.713450292397663%{stroke-dashoffset: 443}53.80116959064328%{ stroke-dashoffset: 0;}100%{ stroke-dashoffset: 0;}}@keyframes YIgTODvP_draw_5{19.883040935672515%{stroke-dashoffset: 390}54.970760233918135%{ stroke-dashoffset: 0;}100%{ stroke-dashoffset: 0;}}@keyframes YIgTODvP_draw_6{21.052631578947366%{stroke-dashoffset: 349}56.14035087719298%{ stroke-dashoffset: 0;}100%{ stroke-dashoffset: 0;}}@keyframes YIgTODvP_draw_7{22.222222222222225%{stroke-dashoffset: 112}57.309941520467845%{ stroke-dashoffset: 0;}100%{ stroke-dashoffset: 0;}}@keyframes YIgTODvP_draw_8{23.391812865497077%{stroke-dashoffset: 64}58.4795321637427%{ stroke-dashoffset: 0;}100%{ stroke-dashoffset: 0;}}@keyframes YIgTODvP_draw_9{24.561403508771928%{stroke-dashoffset: 64}59.64912280701754%{ stroke-dashoffset: 0;}100%{ stroke-dashoffset: 0;}}@keyframes YIgTODvP_draw_10{25.730994152046783%{stroke-dashoffset: 64}60.81871345029241%{ stroke-dashoffset: 0;}100%{ stroke-dashoffset: 0;}}@keyframes YIgTODvP_draw_11{26.90058479532164%{stroke-dashoffset: 64}61.98830409356726%{ stroke-dashoffset: 0;}100%{ stroke-dashoffset: 0;}}@keyframes YIgTODvP_draw_12{28.07017543859649%{stroke-dashoffset: 359}63.1578947368421%{ stroke-dashoffset: 0;}100%{ stroke-dashoffset: 0;}}@keyframes YIgTODvP_draw_13{29.23976608187135%{stroke-dashoffset: 271}64.32748538011697%{ stroke-dashoffset: 0;}100%{ stroke-dashoffset: 0;}}@keyframes YIgTODvP_draw_14{30.409356725146203%{stroke-dashoffset: 970}65.49707602339183%{ stroke-dashoffset: 0;}100%{ stroke-dashoffset: 0;}}@keyframes YIgTODvP_draw_15{31.57894736842105%{stroke-dashoffset: 539}66.66666666666666%{ stroke-dashoffset: 0;}100%{ stroke-dashoffset: 0;}}</style></svg>
