<?xml version="1.0" encoding="utf-8"?>
<!-- Generator: Adobe Illustrator 27.5.0, SVG Export Plug-In . SVG Version: 6.00 Build 0)  -->
<svg version="1.1" xmlns="http://www.w3.org/2000/svg" xmlns:xlink="http://www.w3.org/1999/xlink" x="0px" y="0px"
	 viewBox="0 0 500 500" style="enable-background:new 0 0 500 500;" xml:space="preserve">
<g id="Background_Complete">
	<g>
		<rect y="382.398" style="fill:#EBEBEB;" width="500" height="0.25"/>
		<rect x="52.459" y="398.494" style="fill:#EBEBEB;" width="33.122" height="0.25"/>
		<rect x="171.14" y="401.208" style="fill:#EBEBEB;" width="8.693" height="0.25"/>
		<rect x="86.582" y="389.208" style="fill:#EBEBEB;" width="25.418" height="0.25"/>
		<rect x="422" y="390.888" style="fill:#EBEBEB;" width="27.901" height="0.25"/>
		<rect x="391.471" y="390.888" style="fill:#EBEBEB;" width="21.625" height="0.25"/>
		<rect x="277.213" y="395.111" style="fill:#EBEBEB;" width="51.454" height="0.25"/>
		<path style="fill:#EBEBEB;" d="M237.014,337.8H43.915c-3.147,0-5.708-2.561-5.708-5.708V60.66c0-3.147,2.561-5.708,5.708-5.708
			h193.099c3.146,0,5.707,2.561,5.707,5.708v271.432C242.721,335.239,240.16,337.8,237.014,337.8z M43.915,55.203
			c-3.01,0-5.458,2.448-5.458,5.458v271.432c0,3.01,2.448,5.458,5.458,5.458h193.099c3.009,0,5.457-2.448,5.457-5.458V60.66
			c0-3.009-2.448-5.458-5.457-5.458H43.915z"/>
		<path style="fill:#EBEBEB;" d="M453.31,337.8H260.212c-3.147,0-5.707-2.561-5.707-5.708V60.66c0-3.147,2.561-5.708,5.707-5.708
			H453.31c3.148,0,5.708,2.561,5.708,5.708v271.432C459.019,335.239,456.458,337.8,453.31,337.8z M260.212,55.203
			c-3.009,0-5.457,2.448-5.457,5.458v271.432c0,3.01,2.448,5.458,5.457,5.458H453.31c3.01,0,5.458-2.448,5.458-5.458V60.66
			c0-3.009-2.448-5.458-5.458-5.458H260.212z"/>
	</g>
	<g>
		<g>
			<g>
				<g>
					
						<rect x="57.779" y="84.067" transform="matrix(-1 -1.224647e-16 1.224647e-16 -1 218.071 240.022)" style="fill:#E0E0E0;" width="102.512" height="71.887"/>
					
						<rect x="56.111" y="84.067" transform="matrix(-1 -1.224647e-16 1.224647e-16 -1 214.7342 240.022)" style="fill:#F0F0F0;" width="102.512" height="71.887"/>
					<circle style="fill:#FFFFFF;" cx="91.15" cy="112.759" r="20.76"/>
				</g>
			</g>
			<g>
				<path style="fill:#E0E0E0;" d="M83.956,140.617c0.722,0.104,1.3,0.904,1.704,2.193c2.814-7.632,6.387-12.315,9.7-11.796
					c1.691,0.252,3.118,1.838,4.222,4.401c0.005,0.015,0.005,0,0.005,0c2.733-11.5,6.771-19.651,10.195-19.651
					c1.949,0,3.377,2.638,4.17,7.039c3.152-7.736,6.656-12.478,9.805-12.478c3.903,0,6.368,7.291,6.97,18.51
					c1.55-3.26,3.201-5.187,4.705-5.187c2.085,0,3.436,3.69,3.855,9.47c0.184,0,0.368,0.03,0.552,0.089
					c3.279,0.963,5.257,8.432,4.594,16.968H79.259C80.114,144.544,82.144,140.335,83.956,140.617z"/>
				<path style="fill:#FAFAFA;" d="M144.291,146.023c-0.936,0.062-1.782,0.538-2.468,1.305c-2.596-4.541-6.55-7.327-10.855-7.019
					c-2.195,0.15-4.229,1.093-5.977,2.619c-0.008,0.009-0.006,0-0.006,0c-1.984-6.843-6.076-11.692-10.456-11.692
					c-2.493,0-4.666,1.57-6.258,4.188c-3.014-4.603-6.873-7.425-10.9-7.425c-4.992,0-9.102,4.338-11.346,11.013
					c-1.554-1.94-3.411-3.086-5.335-3.086c-2.666,0-4.879,2.196-6.174,5.635c-0.235,0-0.475,0.018-0.718,0.053
					c-4.32,0.573-7.831,5.017-8.105,10.096h83.348C148.688,148.36,146.645,145.856,144.291,146.023z"/>
			</g>
		</g>
		<g>
			
				<rect x="150.726" y="247.072" transform="matrix(-1 -1.224647e-16 1.224647e-16 -1 321.0797 621.4064)" style="fill:#F0F0F0;" width="19.628" height="127.263"/>
			
				<rect x="57.235" y="374.335" transform="matrix(-1 -1.224647e-16 1.224647e-16 -1 223.8198 756.7329)" style="fill:#F0F0F0;" width="109.35" height="8.064"/>
			<rect x="53.466" y="247.072" style="fill:#F5F5F5;" width="97.26" height="127.263"/>
			<path style="fill:#EBEBEB;" d="M139.305,304.474H64.887c-2.046,0-3.704-1.658-3.704-3.704V266.44
				c0-2.046,1.658-3.704,3.704-3.704h74.418c2.046,0,3.704,1.658,3.704,3.704v34.329
				C143.009,302.815,141.351,304.474,139.305,304.474z"/>
			<path style="fill:#EBEBEB;" d="M139.305,358.67H64.887c-2.046,0-3.704-1.658-3.704-3.704v-34.329
				c0-2.046,1.658-3.704,3.704-3.704h74.418c2.046,0,3.704,1.658,3.704,3.704v34.329C143.009,357.011,141.351,358.67,139.305,358.67
				z"/>
			<path style="fill:#F5F5F5;" d="M81.615,290.955v-14.701c0-1.287-1.053-2.34-2.341-2.34h-1.043c-1.287,0-2.341,1.053-2.341,2.34
				v14.701c0,1.287,1.053,2.341,2.341,2.341h1.043C80.562,293.296,81.615,292.242,81.615,290.955z"/>
			<path style="fill:#F5F5F5;" d="M81.615,345.151v-14.701c0-1.287-1.053-2.341-2.341-2.341h-1.043
				c-1.287,0-2.341,1.053-2.341,2.341v14.701c0,1.287,1.053,2.341,2.341,2.341h1.043C80.562,347.492,81.615,346.438,81.615,345.151z
				"/>
			<path style="fill:#F5F5F5;" d="M128.3,290.955v-14.701c0-1.287-1.053-2.34-2.341-2.34h-1.043c-1.287,0-2.341,1.053-2.341,2.34
				v14.701c0,1.287,1.053,2.341,2.341,2.341h1.043C127.247,293.296,128.3,292.242,128.3,290.955z"/>
			<path style="fill:#F5F5F5;" d="M128.3,345.151v-14.701c0-1.287-1.053-2.341-2.341-2.341h-1.043c-1.287,0-2.341,1.053-2.341,2.341
				v14.701c0,1.287,1.053,2.341,2.341,2.341h1.043C127.247,347.492,128.3,346.438,128.3,345.151z"/>
		</g>
		<g>
			<path style="fill:#E6E6E6;" d="M110.424,200.395c-1.329-9.697-14.416-12.467-31.022-12.822
				c-15.803-0.338-20.865-5.929-20.865-5.929s0.05,22.642,22.821,30.84C102.98,220.268,111.755,210.108,110.424,200.395z"/>
			<path style="fill:#E6E6E6;" d="M105.324,216.294c0.277-3.989,6.645-11.318,21.963-7.986c11.076,2.409,15.193-3.332,15.193-3.332
				s-1.025,16.204-17.683,21.077C108.98,230.68,104.836,223.308,105.324,216.294z"/>
			<path style="fill:#E6E6E6;" d="M104.333,222.799c-1.259-1.941-6.538-3.865-13.356,2.117c-4.93,4.325-8.625,2.574-8.625,2.574
				s5.063,7.915,14.861,5.71C106.516,231.106,106.547,226.212,104.333,222.799z"/>
			<path style="fill:#E6E6E6;" d="M108.596,242.159c0.168,0,0.334-0.071,0.451-0.209c1.11-1.312,0.202-4.455-1.055-8.805
				c-1.613-5.582-3.621-12.53-1.921-17.574c0.96-2.848,2.147-5.359,3.295-7.787c2.404-5.085,4.48-9.476,2.749-14.062
				c-0.115-0.305-0.456-0.459-0.761-0.344c-0.305,0.115-0.459,0.456-0.344,0.761c1.555,4.117-0.328,8.098-2.712,13.139
				c-1.109,2.344-2.365,5.002-3.347,7.915c-1.819,5.395,0.246,12.54,1.905,18.28c0.978,3.385,1.99,6.885,1.288,7.714
				c-0.211,0.249-0.18,0.622,0.069,0.832C108.326,242.113,108.461,242.159,108.596,242.159z"/>
			<path style="fill:#F5F5F5;" d="M118.495,237.085L118.495,237.085c0,0.573-0.465,1.038-1.038,1.038h-0.291l-0.692,5.829
				c-0.231,1.945-1.88,3.41-3.839,3.41h-9.298c-1.959,0-3.608-1.465-3.839-3.411l-0.691-5.829h-0.291
				c-0.573,0-1.038-0.465-1.038-1.038l0,0c0-0.573,0.465-1.038,1.038-1.038h18.942C118.031,236.047,118.495,236.512,118.495,237.085
				z"/>
		</g>
		<g>
			<path style="fill:#F5F5F5;" d="M411.588,378.359L411.588,378.359c-0.922,0-1.676-0.754-1.676-1.676V115.318
				c0-0.922,0.754-1.676,1.676-1.676l0,0c0.922,0,1.676,0.754,1.676,1.676v261.364C413.264,377.605,412.51,378.359,411.588,378.359z
				"/>
			<path style="fill:#F0F0F0;" d="M419.551,382.398h-15.925v-3.484c0-2.538,2.058-4.596,4.596-4.596h6.734
				c2.538,0,4.596,2.058,4.596,4.596V382.398z"/>
			<g>
				<path style="fill:#E0E0E0;" d="M379.056,150.031c0,0,0.827-31.982,32.534-31.982s32.533,31.982,32.533,31.982H379.056z"/>
			</g>
		</g>
	</g>
</g>
<g id="Background_Simple" style="display:none;">
	<g style="display:inline;">
		<path style="fill:#407BFF;" d="M400.943,317.362c20.607-53.822-6.473-104.914-50.123-116.896
			c-54.153-11.934-116.128,23.637-158.984-21.218C137.214,101.605,79.645,201.054,85,235.889
			c7.897,77.018,119.194,135.707,154.403,147.279C309.878,408.155,370.902,394.464,400.943,317.362z"/>
		<path style="opacity:0.9;fill:#FFFFFF;" d="M400.943,317.362c20.607-53.822-6.473-104.914-50.123-116.896
			c-54.153-11.934-116.128,23.637-158.984-21.218C137.214,101.605,79.645,201.054,85,235.889
			c7.897,77.018,119.194,135.707,154.403,147.279C309.878,408.155,370.902,394.464,400.943,317.362z"/>
	</g>
</g>
<g id="Shadow_1_">
	<ellipse id="_x3C_Path_x3E__15_" style="fill:#F5F5F5;" cx="250" cy="416.238" rx="193.889" ry="11.323"/>
</g>
<g id="Mirror">
	<g>
		<g>
			<path style="fill:#407BFF;" d="M365.897,174.833c-0.874-4.456-1.899-8.887-3.045-13.169l0.967-0.259
				c1.151,4.304,2.181,8.756,3.059,13.235L365.897,174.833z"/>
			<path style="fill:#407BFF;" d="M359.573,150.741c-4.52-13.533-10.425-25.923-17.551-36.825l0.838-0.547
				c7.172,10.973,13.115,23.44,17.662,37.055L359.573,150.741z"/>
			<ellipse style="fill:#407BFF;" cx="273.659" cy="216.667" rx="93.722" ry="143.376"/>
			<path style="opacity:0.9;fill:#FFFFFF;" d="M272.496,356.948c-49.907,0-90.509-62.93-90.509-140.282
				s40.602-140.282,90.509-140.282c23.796,0,46.123,14.392,62.868,40.525c16.962,26.47,26.304,61.898,26.304,99.757
				s-9.342,73.287-26.304,99.757C318.618,342.556,296.291,356.948,272.496,356.948z"/>
		</g>
		<g>
			<path style="fill:#263238;" d="M284.205,115.262c4.417-5.095,15.722-6.65,17.75,2.572c2.605,11.846-11.701,10.028-11.701,10.028
				S283.538,121.106,284.205,115.262z"/>
			<path style="fill:#263238;" d="M292.832,124.37c-1.45,0-2.507-0.162-2.617-0.179c-0.137-0.022-0.229-0.15-0.208-0.286
				c0.021-0.136,0.157-0.228,0.286-0.208c0.068,0.012,6.855,1.042,9.97-2.262c1.506-1.596,1.928-3.968,1.254-7.049
				c-0.511-2.335-2.368-3.832-5.229-4.215c-4.115-0.553-9.871,1.406-11.86,5.206c-0.063,0.123-0.215,0.169-0.338,0.106
				c-0.122-0.064-0.169-0.215-0.105-0.337c2.087-3.985,8.077-6.047,12.37-5.47c3.086,0.414,5.093,2.049,5.651,4.604
				c0.712,3.252,0.247,5.775-1.379,7.5C298.583,123.943,295.19,124.37,292.832,124.37z"/>
			<path style="fill:#263238;" d="M292.239,122.399c-0.129,0-0.238-0.099-0.249-0.229c-0.012-0.137,0.09-0.258,0.228-0.27
				c0.06-0.005,6.029-0.553,7.772-4.022c0.926-1.841,0.51-4.203-1.235-7.021c-0.984-1.59-3.513-2.308-6.436-1.825
				c-3.316,0.545-7.036,2.7-7.871,6.287c-0.031,0.134-0.157,0.218-0.3,0.187c-0.135-0.031-0.218-0.166-0.186-0.3
				c0.947-4.073,5.051-6.137,8.276-6.667c3.175-0.522,5.834,0.267,6.942,2.055c1.843,2.976,2.266,5.503,1.256,7.51
				c-1.869,3.719-7.92,4.273-8.176,4.294C292.253,122.398,292.246,122.399,292.239,122.399z"/>
			<path style="fill:#407BFF;" d="M281.452,115.262c3.087-3.484,7.566,0.244,10.087,5.405c1.302,2.667,3.406,9.41-1.547,9.163
				C285.038,129.583,281.452,115.262,281.452,115.262z"/>
			<path style="fill:#263238;" d="M259.038,137.102c-3.667-7.352,1.5-19.477,3.912-21.102c5.236-3.528,18.515-2.948,25.172,5.75
				c7.438,9.719,2.75,15-0.417,19c2.5,6-7.333,12.417-17.583,7.917S259.038,137.102,259.038,137.102z"/>
			<path style="fill:#FFC3BD;" d="M218.613,162.538l-2.289-3.167c-0.833-1.153-1.35-2.503-1.499-3.918l-0.282-2.665
				c-0.187-1.766,0.914-3.413,2.617-3.917l2.57-0.76c1.968-0.582,4.033,0.557,4.589,2.533l0.616,2.189c0,0,2.45,5.867,1.167,10.763
				l-1.385,0.313C222.463,164.419,220.218,163.915,218.613,162.538z"/>
			<path style="fill:#FFC3BD;" d="M261.888,176.186l-0.779,1.042l-0.699,0.888c-0.465,0.577-0.947,1.127-1.43,1.672
				c-0.964,1.092-1.982,2.122-3.034,3.127c-2.111,2-4.391,3.865-6.904,5.527c-2.508,1.657-5.238,3.146-8.242,4.255
				c-1.49,0.569-3.07,1.019-4.675,1.389c-1.624,0.34-3.295,0.554-4.992,0.629c-0.422,0.025-0.853,0.013-1.278,0.017l-0.639-0.002
				l-0.169-0.001l-0.515-0.021c-0.344-0.024-0.684-0.05-1.023-0.116c-1.382-0.224-2.623-0.782-3.56-1.391
				c-0.965-0.622-1.642-1.279-2.171-1.882c-1.066-1.222-1.6-2.283-2.037-3.224c-0.427-0.947-0.718-1.804-0.961-2.621
				c-0.937-3.229-1.154-6.002-1.348-8.764c-0.132-2.749-0.117-5.415,0.035-8.064c0.152-2.66,0.397-5.232,0.845-7.918
				c0.37-2.215,2.464-3.71,4.679-3.341c1.674,0.279,2.936,1.544,3.294,3.101l0.029,0.133c1.094,4.788,2.054,9.727,3.299,14.225
				c0.588,2.225,1.323,4.442,2.071,5.984c0.186,0.371,0.377,0.685,0.525,0.863c0.136,0.183,0.275,0.206,0.067-0.085
				c-0.153-0.22-0.958-1.09-2.532-1.383c-0.186-0.026-0.366-0.062-0.552-0.072c-0.093-0.006-0.185-0.009-0.278-0.008l0.067-0.011
				l0.308-0.043c0.206-0.032,0.408-0.042,0.614-0.085c1.638-0.303,3.302-0.844,4.981-1.652c1.667-0.823,3.357-1.848,4.991-3.082
				c1.641-1.218,3.24-2.618,4.781-4.11c0.772-0.744,1.515-1.529,2.247-2.31l1.064-1.183l0.888-1.03l0.465-0.54
				c2.907-3.373,7.998-3.75,11.371-0.843C263.914,168.032,264.385,172.825,261.888,176.186z"/>
			<path style="fill:#FFC3BD;" d="M278.77,304.59c1.83,18.23,0.7,36.49-1.4,52.16c-1.61,0.13-3.24,0.2-4.87,0.2
				c-6.17,0-12.2-0.96-18.03-2.79c-1.23-17.72-2.31-36.54-2.38-49.05c-5.17-35.57-6.1-79.74-6.1-79.74l16.13-1.22l24.06-1.81
				c0,0,0.26,29.26-6.58,76.62C279.34,300.81,279.06,302.69,278.77,304.59z"/>
			<path style="opacity:0.2;" d="M273.125,261.39c3.73-1.87,7.5-3.1,11.26-3.78c-1.05,12.35-2.72,27.61-5.35,45.24
				C270.535,288.8,270.245,276.56,273.125,261.39z"/>
			<path style="fill:#FFC3BD;" d="M318.41,337.15c-7.08,6.68-14.72,11.75-22.72,15.08c-3.89-13.05-7.92-26.21-11.17-36.27
				c-1.53-4.75-3.2-10.58-4.92-17c-7.4-27.66-15.64-66.08-17.48-74.81c-0.26-1.17-0.39-1.81-0.39-1.81h31.01
				c0,0,16.21,19.78,19.27,86.48C315.11,316.97,317.13,326.9,318.41,337.15z"/>
			<path style="fill:#FFC3BD;" d="M245.887,176.375c0.168,3.839-5.893,12.715,1.587,17.86c-1.399,3.124-10.217,18.261-1.316,27.932
				c4.129,3.035,28.048,2.615,46.584,0.171c4.809-5.671-3.434-23.532,1.732-48.278c1.198-5.737-2.838-11.248-8.669-11.835
				c-1.558-0.157-3.209-0.288-4.899-0.369c-6.57-0.317-11.953-0.526-17.728,0.001c-1.914,0.175-3.893,0.417-5.783,0.682
				C250.577,163.495,245.587,169.495,245.887,176.375z"/>
			<path style="opacity:0.2;" d="M256.783,215.792c0.044,0.663-0.173,1.204-0.486,1.209c-0.313,0.004-0.602-0.531-0.646-1.194
				c-0.044-0.663,0.173-1.204,0.486-1.209C256.45,214.594,256.739,215.128,256.783,215.792z"/>
			<path style="fill:#407BFF;" d="M246.788,175.833c-2.611,5.556-9.445,17.361,0.917,20.417c7.871,2.321,40.273,1.055,45.091,0.001
				c1.701-5.168,0.243-11.14,0.243-11.14s-15.278-1.444-14.389-8.222c-7.22,4.528-12.003,1.651-19.111,1.236
				C254.71,177.843,248.413,179.375,246.788,175.833z"/>
			<path style="fill:#FFC3BD;" d="M281.452,141.893c-1.413,5.704-2.793,15.009-0.544,19.963c0,0-7.539,0.372-18.301,8.965
				c-5.067-7.442-0.082-8.902-0.082-8.902c4.473-1.05,5.181-6.491,5.175-10.733L281.452,141.893z"/>
			<path style="opacity:0.2;" d="M267.696,151.185l7.823-5.286c0.128,0.977-0.169,2.336-0.7,3.471
				c-1.561,3.28-4.809,5.637-7.569,6.783C267.6,154.529,267.696,152.778,267.696,151.185z"/>
			<path style="fill:#FFC3BD;" d="M285.167,131.431c-2.225,9.277-2.973,13.25-8.47,17.24c-8.268,6.002-18.951,1.265-19.487-8.483
				c-0.483-8.774,3.238-22.471,12.9-24.608C279.629,113.474,287.393,122.154,285.167,131.431z"/>
			<path style="fill:#263238;" d="M270.521,132.246c-0.135,0.763-0.649,1.311-1.148,1.222c-0.499-0.088-0.794-0.779-0.659-1.543
				c0.135-0.763,0.649-1.311,1.148-1.222C270.361,130.792,270.656,131.483,270.521,132.246z"/>
			<path style="fill:#263238;" d="M261.108,130.718c-0.135,0.763-0.649,1.311-1.148,1.222c-0.499-0.088-0.794-0.779-0.659-1.542
				c0.135-0.763,0.649-1.311,1.148-1.222C260.948,129.264,261.243,129.954,261.108,130.718z"/>
			<path style="fill:#263238;" d="M260.662,129.257l-1.74-0.853C258.922,128.403,259.609,130.002,260.662,129.257z"/>
			<path style="fill:#ED847E;" d="M264.742,131.714c0,0-1.878,3.057-3.585,4.391c0.841,1.119,2.631,0.993,2.631,0.993
				L264.742,131.714z"/>
			<path style="fill:#263238;" d="M270.894,138.887c0.4,0.08,0.818,0.2,1.252,0.369c0.117,0.046,0.175,0.178,0.129,0.295
				c-0.046,0.116-0.174,0.175-0.295,0.129c-3.166-1.239-5.514,0.397-5.538,0.414c-0.102,0.074-0.245,0.05-0.318-0.052
				c-0.073-0.102-0.05-0.245,0.052-0.318C266.267,139.66,268.157,138.34,270.894,138.887z"/>
			<path style="fill:#FFC3BD;" d="M285.846,140.072c-0.856,1.82-2.35,2.962-3.758,3.352c-2.118,0.587-3.164-1.737-2.565-4.091
				c0.539-2.12,2.292-4.979,4.412-4.513C286.025,135.277,286.825,137.99,285.846,140.072z"/>
			<path style="fill:#263238;" d="M274.545,127.841c-0.115-0.035-0.216-0.116-0.274-0.233c-0.903-1.819-2.564-2.034-2.583-2.037
				c-0.246-0.031-0.428-0.255-0.399-0.506c0.029-0.25,0.255-0.428,0.506-0.399c0.087,0.011,2.172,0.278,3.293,2.537
				c0.112,0.225,0.019,0.498-0.206,0.61C274.773,127.867,274.653,127.874,274.545,127.841z"/>
			<path style="fill:#263238;" d="M258.986,125.368c-0.112-0.018-0.217-0.077-0.291-0.174c-0.152-0.2-0.113-0.486,0.087-0.638
				c2.005-1.524,3.993-0.84,4.077-0.81c0.237,0.085,0.361,0.345,0.276,0.582c-0.084,0.236-0.344,0.359-0.581,0.276
				c-0.077-0.028-1.626-0.536-3.22,0.676C259.23,125.359,259.104,125.387,258.986,125.368z"/>
			<path style="fill:#263238;" d="M270.075,130.785l-1.74-0.853C268.335,129.932,269.022,131.531,270.075,130.785z"/>
			<path style="opacity:0.2;" d="M293.205,182.13c-0.11,1-0.2,1.99-0.27,2.97c0.07,0.01,0.1,0.01,0.1,0.01s1.46,5.97-0.24,11.14
				v0.04c-0.01-0.02-0.02-0.03-0.02-0.04c-2.21-3.79-4.28-8.32-5.44-12.17c-0.67-2.22-1.04-4.2-0.96-5.69L293.205,182.13z"/>
			<path style="fill:#407BFF;" d="M246.254,181.667c-0.508,0-0.943-0.385-0.994-0.902c-0.445-4.503,3.346-14.281,10.074-18.756
				c0.457-0.306,1.079-0.182,1.387,0.279c0.306,0.46,0.181,1.081-0.279,1.386c-6.321,4.206-9.544,13.329-9.191,16.895
				c0.055,0.549-0.348,1.039-0.896,1.093C246.319,181.665,246.286,181.667,246.254,181.667z"/>
			<path style="fill:#407BFF;" d="M293.675,220.697c1.946,1.386,3.876,7.636,3.876,10.32c-8.007,0.101-23.755,6.231-30.221,17.183
				c-14.353-4.708-17.978-9.017-19.651-12.644c-2.156-3.973-2.671-10.787-2.793-13.674c-0.029-0.684,0.576-1.209,1.252-1.102
				C251.163,221.575,263.974,221.881,293.675,220.697z"/>
			<path style="fill:#FFC3BD;" d="M296.925,214.34l-5.321,3.636l7.561,7.391c0,0,4.429-4.533,5.056-9.448l-1.162-0.758
				C301.171,213.928,298.914,213.626,296.925,214.34z"/>
			<path style="fill:#FFC3BD;" d="M290.946,225.045l2.949,2.216c1.344,1.01,3.252,0.748,4.273-0.588l0.999-1.305l-7.561-7.391
				l-1.581,3.295C289.392,222.588,289.778,224.167,290.946,225.045z"/>
			<path style="fill:#FFC3BD;" d="M291.11,164.36c2.03,1.433,3.851,2.869,5.712,4.388c1.837,1.519,3.658,3.073,5.424,4.724
				c0.888,0.814,1.77,1.661,2.65,2.506c0.867,0.883,1.732,1.742,2.594,2.679c1.741,1.861,3.399,3.734,5.134,6.296l0.346,0.511
				c0.249,0.368,0.448,0.781,0.587,1.182c0.466,1.378,0.669,2.638,0.717,3.631l0.039,0.768l-0.009,0.69
				c-0.006,0.471-0.039,0.905-0.084,1.311c-0.166,1.665-0.472,3.094-0.814,4.459c-0.695,2.698-1.643,5.1-2.625,7.434
				c-1.019,2.317-2.118,4.54-3.315,6.698c-1.211,2.166-2.446,4.231-3.91,6.316c-1.291,1.84-3.828,2.284-5.667,0.994
				c-1.39-0.976-1.984-2.663-1.634-4.223l0.024-0.1l1.518-6.724c0.501-2.234,0.989-4.447,1.391-6.619
				c0.43-2.157,0.735-4.303,0.913-6.234c0.076-0.951,0.094-1.861,0.025-2.548c-0.011-0.182-0.035-0.337-0.065-0.454l-0.029-0.193
				l-0.044-0.111c-0.04-0.183-0.118-0.074-0.029,0.19l0.932,1.693c-1.026-1.135-2.616-2.558-4.16-3.922
				c-1.586-1.368-3.261-2.752-4.967-4.135l-5.186-4.141c-1.726-1.375-3.525-2.794-5.169-4.142l-0.085-0.07
				c-3.452-2.83-3.956-7.921-1.126-11.373C282.899,162.545,287.681,161.952,291.11,164.36z"/>
			<path style="fill:#407BFF;" d="M277.871,181.667c-0.508,0-0.943-0.385-0.994-0.902c-0.404-4.097,1.968-13.074,7.476-19.272
				c0.366-0.414,0.998-0.451,1.411-0.083c0.413,0.367,0.45,0.999,0.083,1.412c-5.061,5.696-7.34,14.11-6.98,17.748
				c0.055,0.549-0.348,1.039-0.896,1.093C277.936,181.665,277.903,181.667,277.871,181.667z"/>
			<path style="fill:#263238;" d="M269.207,117.833c-0.207,6.244,18.165,12.816,8.943,19.269
				c16.111-2.38,12.822-15.491,8.833-19.991C280.632,109.944,269.427,111.172,269.207,117.833z"/>
		</g>
		<g>
			<path style="opacity:0.2;fill:#FFFFFF;" d="M251.061,352.964L330.604,110c-10.098-13.634-21.882-23.381-34.593-28.759
				l-80.137,244.78C226.039,338.69,237.999,348.028,251.061,352.964z"/>
			<path style="opacity:0.2;fill:#FFFFFF;" d="M285.628,355.463l66.36-202.698c-2.748-8.49-6.053-16.551-9.898-24.067
				l-74.653,228.028c1.675,0.144,3.36,0.223,5.058,0.223C276.933,356.948,281.32,356.447,285.628,355.463z"/>
			<path style="opacity:0.2;fill:#FFFFFF;" d="M188.002,266.944c2.365,9.516,5.381,18.534,8.963,26.924l71.146-217.316
				c-6.654,0.494-13.12,2.113-19.325,4.726L188.002,266.944z"/>
		</g>
	</g>
</g>
<g id="Character_1_">
	<g>
		<path style="fill:#FFC3BD;" d="M134.363,160.267c-2.074,1.028-4.598,0.359-6.057-1.438l-1.193-1.469
			c-0.789-0.972-1.337-2.195-1.589-3.549l-0.475-2.551c-0.315-1.69,0.438-3.502,1.79-4.309l2.04-1.218
			c1.563-0.933,3.362-0.201,3.999,1.625l0.706,2.024c0,0,2.069,4.286,2.034,8.806c-0.007,0.883-0.507,1.698-1.202,2.05l0,0
			C134.399,160.249,134.381,160.258,134.363,160.267z"/>
		<path style="fill:#FFC3BD;" d="M159.486,169.482c-1.238,2.129-2.521,3.968-3.897,5.877c-1.379,1.878-2.871,3.683-4.458,5.443
			c-1.59,1.759-3.303,3.449-5.252,4.995c-1.939,1.547-4.118,2.98-6.795,3.954l-0.072,0.026c-0.384,0.14-0.791,0.207-1.178,0.211
			c-0.932,0.005-1.927-0.27-2.687-0.703c-0.774-0.43-1.327-0.962-1.727-1.443c-0.826-0.993-1.194-1.86-1.525-2.682
			c-0.613-1.631-0.884-3.083-1.113-4.518c-0.424-2.849-0.509-5.574-0.527-8.282c0.017-2.705,0.134-5.378,0.308-8.04
			c0.212-2.666,0.457-5.294,0.847-7.962c0.159-1.086,1.168-1.838,2.254-1.68c0.966,0.141,1.668,0.956,1.699,1.899l0.001,0.032
			c0.087,2.568,0.172,5.185,0.326,7.763c0.122,2.583,0.301,5.157,0.573,7.691c0.249,2.528,0.591,5.043,1.105,7.356
			c0.26,1.138,0.589,2.256,0.973,3.054c0.181,0.38,0.403,0.706,0.444,0.702c0.021,0.019-0.029-0.072-0.225-0.193
			c-0.185-0.119-0.529-0.223-0.804-0.219l-1.249,0.237c1.469-0.656,3.01-1.766,4.474-3.063c1.462-1.307,2.869-2.801,4.226-4.367
			c1.354-1.574,2.624-3.256,3.866-4.968c1.24-1.684,2.457-3.525,3.525-5.196l0.057-0.089c1.189-1.861,3.662-2.407,5.523-1.218
			C159.993,165.258,160.553,167.639,159.486,169.482z"/>
		<path style="fill:#FFC3BD;" d="M198.464,214.319c1.939-0.841,4.148-1.637,6.114-0.529c-0.308,4.945-3.164,11.388-3.164,11.388
			l-8.024-6.886L198.464,214.319z"/>
		<path style="fill:#FFC3BD;" d="M193.19,225.388l3.086,2.02c1.407,0.921,3.293,0.536,4.226-0.863l0.912-1.367l-8.024-6.886
			l-1.364,3.39C191.481,223.037,191.968,224.588,193.19,225.388z"/>
		<path style="fill:#FFC3BD;" d="M196.679,412.078c-8.13-0.627-15.025-5.135-13.307-15.303c0.542-3.208-8.5-1.562-8.5-1.562
			c0.307,10.292-0.338,12.756-0.89,15.358c-0.555,2.614-0.25,5.479,1.901,5.533c2.577,0.065,3.75-0.427,6.953-0.303
			c3.745,0.146,6.269,0.292,12.914,0.303C198.405,416.109,200.294,412.357,196.679,412.078z"/>
		<path style="fill:#FFC3BD;" d="M142.897,412.078c-8.025-0.627-11.96-7.322-10.691-13.216c0.7-3.249-7.746-3.429-7.746-3.429
			c-1.278,10.004-3.024,12.536-4.009,15.138c-0.989,2.614-1.161,5.479,0.981,5.533c2.566,0.065,3.821-0.427,7.004-0.303
			c3.721,0.146,6.221,0.292,12.863,0.303C143.954,416.109,146.467,412.357,142.897,412.078z"/>
		<path style="fill:#FFC3BD;" d="M195.194,226.111c0,0,0.953,48.889-2.468,84.667c-0.192,30.092-10.237,91.567-10.237,91.567
			c-3.86,0.757-3.996,0.155-7.265-0.824c0,0-3.454-48.564,3.057-91.41c-9.751-48.654-10.113-65.935-10.291-79.901L195.194,226.111z"
			/>
		<path style="opacity:0.2;" d="M170.027,246.935c2.531,1.895,5.007,3.273,6.978,3.714
			C172.951,252.001,170.027,246.935,170.027,246.935z"/>
		<path style="fill:#FFC3BD;" d="M170.685,234.637c0,0-6.959,48.696-13.316,76.704c-9.609,29.388-26.086,90.126-26.19,92.333
			c-4.158,0.778-4.564-0.785-7.257-3.532c0,0,5.851-63.358,20.555-91.364c-2.624-67.817,1.544-81.567,1.544-81.567L170.685,234.637z
			"/>
		<path style="opacity:0.2;" d="M158.267,249.492c3.926-0.415,6.241-1.471,7.525-2.42
			C163.938,250.922,158.267,249.492,158.267,249.492z"/>
		<path style="fill:#FFC3BD;" d="M192.31,173.167c-0.168,3.839,5.583,10.583-1.667,15c-2.428,2.849-1.417,10.25-6.5,12
			c-0.5,9.583,10.127,17.024,11.051,22.171c-4.129,3.035-27.19,3.191-45.727,0.746c-2.451-5.559,10.291-11.626,10.592-19.972
			c0.222-6.167-5.322-13.713-8.333-25.944c-1.401-5.691-0.444-14.355,5.388-14.942c1.559-0.157,3.209-0.288,4.899-0.369
			c6.57-0.317,11.953-0.526,17.728,0.001c1.914,0.175,3.893,0.417,5.783,0.682C192.343,163.495,192.61,166.288,192.31,173.167z"/>
		<path style="fill:#FFC3BD;" d="M161.469,141.893c1.413,5.704,2.792,15.009,0.544,19.963c0,0,7.539,0.372,18.301,8.965
			c5.067-7.442,0.082-8.902,0.082-8.902c-4.473-1.05-5.18-6.491-5.175-10.733L161.469,141.893z"/>
		<path style="fill:#263238;" d="M183.854,131.093c0.135,0.763,0.649,1.311,1.148,1.222c0.499-0.088,0.794-0.779,0.659-1.542
			c-0.135-0.763-0.649-1.311-1.148-1.222C184.014,129.639,183.719,130.329,183.854,131.093z"/>
		<path style="fill:#263238;" d="M184.3,129.632l1.74-0.853C186.04,128.778,185.353,130.377,184.3,129.632z"/>
		<path style="fill:#ED847E;" d="M183.865,131.714c0,0,1.878,3.057,3.585,4.391c-0.841,1.119-2.631,0.993-2.631,0.993
			L183.865,131.714z"/>
		<path style="fill:#263238;" d="M184.374,125.368c0.112-0.018,0.217-0.077,0.291-0.174c0.152-0.2,0.113-0.486-0.087-0.638
			c-2.005-1.524-3.993-0.84-4.077-0.81c-0.237,0.085-0.36,0.345-0.276,0.582c0.084,0.236,0.344,0.359,0.581,0.276
			c0.078-0.028,1.626-0.536,3.22,0.676C184.13,125.359,184.256,125.387,184.374,125.368z"/>
		<path style="fill:#FFC3BD;" d="M157.753,131.431c2.225,9.277,2.973,13.25,8.47,17.24c8.268,6.002,18.951,1.265,19.487-8.483
			c0.483-8.774-3.238-22.471-12.9-24.608C163.291,113.474,155.527,122.154,157.753,131.431z"/>
		<path style="fill:#407BFF;" d="M182.588,182.001c-0.399,0-0.776-0.241-0.931-0.635l-0.074-0.188
			c-1.563-3.975-5.223-13.285,0.245-19.672c0.361-0.42,0.993-0.467,1.41-0.109c0.42,0.359,0.469,0.991,0.109,1.41
			c-4.686,5.474-1.334,13.999,0.097,17.64l0.074,0.188c0.202,0.514-0.051,1.094-0.566,1.296
			C182.833,181.978,182.71,182.001,182.588,182.001z"/>
		<path style="fill:#407BFF;" d="M157.369,182.001c-0.398,0-0.776-0.241-0.931-0.635l-0.072-0.183
			c-1.563-3.976-5.227-13.287,0.243-19.677c0.361-0.42,0.992-0.467,1.41-0.109c0.42,0.359,0.469,0.991,0.109,1.41
			c-4.688,5.476-1.334,14.003,0.099,17.644l0.072,0.184c0.202,0.514-0.051,1.095-0.565,1.296
			C157.614,181.978,157.491,182.001,157.369,182.001z"/>
		<path style="fill:#407BFF;" d="M148.102,220.312c-2.4,3.289-3.625,7.574-3.625,10.021c1.135,3.43,13,19.285,23.694,19.278
			c11.333,0.373,19.454-14.306,26.733-14.203c0.579,0.008,1.085-0.361,1.255-0.914c2.081-6.749-0.919-13.604-0.919-13.604
			c-9.916,2.661-36.782,1.327-45.393-1.17C149.196,219.532,148.501,219.764,148.102,220.312z"/>
		<path style="fill:#263238;" d="M179.97,116c-1.892-1.275-4.84-2.002-8.14-2.015c-3.5-2.911-11.085-2.299-15.893,3.126
			c-1.511,1.705-2.92,4.647-3.213,7.773c-4.314,7.762-0.317,12.319,2.49,15.866c-2.5,6,7.333,12.417,17.583,7.917
			s11.083-11.564,11.083-11.564C187.549,129.75,182.382,117.625,179.97,116z"/>
		<path style="fill:#407BFF;" d="M149.116,127.556c2.356,4.444,10.389,4.722,13.555-2.556c2.887-6.636,0.656-11.31-4.298-11.081
			C153.419,114.148,149.116,127.556,149.116,127.556z"/>
		<path style="fill:#263238;" d="M159.835,115.706c-4.417-5.095-15.722-6.65-17.75,2.572c-2.605,11.846,11.701,10.028,11.701,10.028
			S160.502,121.551,159.835,115.706z"/>
		<path style="fill:#263238;" d="M151.209,124.814c-2.357,0-5.752-0.426-7.795-2.591c-1.626-1.724-2.091-4.247-1.379-7.499
			c0.554-2.534,2.515-4.151,5.518-4.555c4.234-0.569,10.186,1.526,12.292,5.55c0.063,0.122,0.017,0.273-0.105,0.337
			c-0.122,0.063-0.273,0.017-0.338-0.106c-2.01-3.839-7.716-5.833-11.782-5.286c-2.78,0.373-4.591,1.853-5.097,4.166
			c-0.674,3.081-0.252,5.452,1.254,7.049c3.116,3.303,9.903,2.273,9.971,2.262c0.138-0.021,0.266,0.072,0.286,0.208
			c0.021,0.136-0.071,0.264-0.208,0.286C153.716,124.653,152.658,124.814,151.209,124.814z"/>
		<path style="fill:#263238;" d="M151.802,122.843c-0.007,0-0.014-0.001-0.021-0.001c-0.256-0.021-6.307-0.575-8.177-4.294
			c-1.01-2.007-0.587-4.534,1.256-7.51c1.145-1.849,4.021-2.623,7.32-1.969c3.138,0.62,7.034,2.754,7.691,6.726
			c0.023,0.136-0.07,0.265-0.206,0.288c-0.134,0.021-0.266-0.07-0.288-0.205c-0.615-3.72-4.313-5.729-7.294-6.318
			c-3.048-0.603-5.779,0.097-6.798,1.742c-1.745,2.817-2.161,5.18-1.235,7.021c1.743,3.469,7.713,4.017,7.773,4.022
			c0.138,0.012,0.239,0.133,0.228,0.27C152.04,122.745,151.931,122.843,151.802,122.843z"/>
		<path style="fill:#407BFF;" d="M190.449,189.222c-5.111,0.722-15-2.555-23.333-2.222c-8.333,0.333-11.607,1.542-11.607,1.542
			c-1.338-0.653-3.568-8.598-3.564-10.514c0.004-1.917,2.226-5.083,3.282-4.583c1.055,0.5,4.64,4.945,12.764,4.945
			s10.39-3.497,11.946-4.997c1.555-1.5,7.957,4.442,13.123,2.608C195.602,182.667,195.63,188.028,190.449,189.222z"/>
		<path style="fill:#FFC3BD;" d="M191.135,164.714c2.15,2.253,4.153,4.532,6.178,6.845c2.007,2.319,3.95,4.698,5.871,7.113
			c1.92,2.417,3.784,4.895,5.547,7.514c0.882,1.309,1.749,2.651,2.559,4.086c0.806,1.451,1.592,2.923,2.221,4.843l0.042,0.128
			c0.147,0.447,0.181,0.918,0.122,1.355c-0.32,2.325-1.008,4.177-1.717,6.012c-0.723,1.812-1.561,3.518-2.432,5.185
			c-0.897,1.655-1.834,3.267-2.803,4.852c-1.003,1.574-2.004,3.108-3.137,4.628c-0.659,0.883-1.909,1.066-2.792,0.407
			c-0.742-0.553-0.989-1.523-0.66-2.343l0.017-0.042c0.658-1.636,1.358-3.308,1.996-4.968c0.671-1.651,1.302-3.312,1.879-4.973
			c0.598-1.65,1.132-3.306,1.596-4.923c0.444-1.599,0.804-3.248,0.865-4.538l0.165,1.484c-0.365-0.942-1.032-2.146-1.764-3.296
			c-0.744-1.162-1.548-2.346-2.406-3.511c-1.721-2.331-3.565-4.641-5.444-6.934c-1.886-2.291-3.847-4.537-5.811-6.786
			c-1.947-2.252-3.976-4.488-5.939-6.675l-0.025-0.027c-1.476-1.644-1.339-4.173,0.305-5.649
			C187.181,163.051,189.649,163.159,191.135,164.714z"/>
		<path style="opacity:0.2;" d="M182.235,189.917c2.433,0.833,4.48,1.583,5.825,1.949
			C185.11,192.833,182.235,189.917,182.235,189.917z"/>
		<path style="opacity:0.2;" d="M182.235,193.157c2.185,0.378,4.031,0.744,5.223,0.86
			C185.137,195.501,182.235,193.157,182.235,193.157z"/>
		<path style="opacity:0.2;" d="M182.143,196.556c1.935-0.112,3.58-0.162,4.614-0.31
			C185.161,198.17,182.143,196.556,182.143,196.556z"/>
		<path style="opacity:0.2;" d="M173.066,220.981c1.262-1.471,2.368-2.69,2.979-3.538
			C176.322,219.928,173.066,220.981,173.066,220.981z"/>
		<path style="opacity:0.2;" d="M167.351,187.688c-0.151,1.629,0.012,2.836,0.413,3.469
			C165.937,190.131,167.227,187.681,167.351,187.688z"/>
		<path style="opacity:0.2;" d="M166.511,173.995c-0.255,1.616-0.171,2.831,0.188,3.489
			C164.943,176.342,166.388,173.98,166.511,173.995z"/>
		<path style="opacity:0.2;" d="M166.444,168.852c-0.317,1.605-0.279,2.823,0.055,3.493
			C164.788,171.137,166.322,168.833,166.444,168.852z"/>
		<path style="opacity:0.2;" d="M167.321,163.735c-0.503,1.413-0.516,2.49-0.57,3.174
			C165.975,165.152,167.213,163.701,167.321,163.735z"/>
		<path style="opacity:0.2;" d="M167.674,159.281c-0.237,1.342-0.209,2.096-0.241,2.719
			C166.685,160.422,167.571,159.266,167.674,159.281z"/>
		<path style="opacity:0.2;" d="M168.017,155.206c-0.243,1.068-0.242,1.884-0.031,2.34
			C166.864,156.704,167.936,155.191,168.017,155.206z"/>
		<path style="opacity:0.2;" d="M168.179,192.926c0.038,1.635,0.339,2.816,0.809,3.399
			C167.057,195.515,168.056,192.933,168.179,192.926z"/>
		<path style="opacity:0.2;" d="M169.227,198.121c0.119,1.19,0.454,2.496,0.689,3.168
			C168.446,199.948,169.11,198.13,169.227,198.121z"/>
		<path style="opacity:0.2;" d="M169.879,203.38c-0.27,1.531-0.209,2.687,0.12,3.317
			C168.351,205.583,169.763,203.364,169.879,203.38z"/>
		<path style="opacity:0.2;" d="M169.855,208.853c-0.396,1.201-0.265,2.107-0.291,2.686
			C168.859,210.081,169.462,209.176,169.855,208.853z"/>
		<path style="opacity:0.2;" d="M169.367,213.959c-0.396,1.201-0.265,2.107-0.291,2.686
			C168.371,215.187,168.974,214.281,169.367,213.959z"/>
		<path style="opacity:0.2;" d="M163.936,220.344c-0.71-1.409-1.356-2.592-1.655-3.374
			C161.205,218.726,163.936,220.344,163.936,220.344z"/>
	</g>
</g>
<g id="Flower">
	<g>
		<g>
			<path style="fill:#407BFF;" d="M384.844,370.844c-0.011,0-0.021,0-0.031-0.001c-0.295-0.017-0.521-0.27-0.504-0.565l4.54-78.801
				c0.018-0.295,0.309-0.533,0.564-0.503c0.295,0.017,0.521,0.27,0.504,0.564l-4.54,78.801
				C385.36,370.624,385.125,370.844,384.844,370.844z"/>
			<path style="fill:#407BFF;" d="M369.494,376.127c-0.253,0-0.478-0.18-0.525-0.438l-10.258-55.843
				c-0.053-0.29,0.14-0.569,0.43-0.623c0.292-0.052,0.569,0.139,0.623,0.429l10.258,55.843c0.053,0.29-0.14,0.569-0.43,0.623
				C369.559,376.124,369.526,376.127,369.494,376.127z"/>
			<g>
				<path style="fill:#407BFF;" d="M387.179,329.771c7.031-15.317,24.902-36.07,30.227-29.6
					C422.731,306.642,408.511,323.193,387.179,329.771z"/>
				<path style="fill:#407BFF;" d="M387.179,330.306c-0.151,0-0.299-0.064-0.402-0.182c-0.139-0.159-0.172-0.384-0.084-0.576
					c6.049-13.175,19.874-30.105,27.388-31.08c1.565-0.202,2.826,0.255,3.738,1.364c1.303,1.583,1.587,3.769,0.821,6.321
					c-2.353,7.842-14.706,19.011-31.304,24.129C387.284,330.298,387.231,330.306,387.179,330.306z M414.777,299.491
					c-0.179,0-0.365,0.013-0.56,0.038c-6.867,0.892-19.956,16.841-26.03,29.36c15.665-5.16,27.209-15.652,29.428-23.043
					c0.668-2.226,0.458-4.021-0.623-5.334C416.43,299.827,415.701,299.491,414.777,299.491z"/>
			</g>
			<g>
				<path style="fill:#407BFF;" d="M388.049,314.671c-7.511-9.727-15.02-22.815-19.431-18.586
					C364.206,300.314,371.812,313.502,388.049,314.671z"/>
				<path style="fill:#407BFF;" d="M388.049,315.206c-0.013,0-0.025,0-0.038-0.001c-11.236-0.809-18.555-7.278-20.599-12.946
					c-0.981-2.719-0.677-5.11,0.835-6.56c0.751-0.72,1.62-1.04,2.591-0.951c3.642,0.332,7.999,6.375,13.044,13.372
					c1.501,2.082,3.053,4.234,4.59,6.225c0.129,0.167,0.148,0.394,0.049,0.58C388.427,315.099,388.245,315.206,388.049,315.206z
					 M370.53,295.803c-0.568,0-1.075,0.22-1.543,0.668c-1.193,1.143-1.4,3.121-0.569,5.425c1.857,5.151,8.39,11.006,18.466,12.132
					c-1.302-1.722-2.603-3.527-3.869-5.283c-4.482-6.216-9.117-12.645-12.274-12.933C370.67,295.806,370.6,295.803,370.53,295.803z"
					/>
			</g>
			<g>
				<path style="fill:#407BFF;" d="M363.314,341.945c-7.511-9.727-15.057-23.372-19.468-19.143
					C339.435,327.031,347.078,340.776,363.314,341.945z"/>
				<path style="fill:#407BFF;" d="M363.315,342.479c-0.013,0-0.025,0-0.038-0.001c-11.148-0.803-18.492-7.45-20.598-13.287
					c-1.023-2.839-0.733-5.309,0.797-6.776c0.734-0.703,1.594-1.01,2.529-0.925c3.563,0.339,7.816,6.337,12.742,13.283
					c1.632,2.301,3.319,4.68,4.99,6.845c0.129,0.167,0.148,0.393,0.049,0.58C363.692,342.372,363.511,342.479,363.315,342.479z
					 M345.695,322.545c-0.544,0-1.03,0.211-1.48,0.643c-1.212,1.161-1.405,3.217-0.531,5.64c1.916,5.311,8.471,11.337,18.466,12.472
					c-1.439-1.908-2.878-3.936-4.275-5.908c-4.374-6.167-8.897-12.544-11.972-12.836
					C345.833,322.549,345.764,322.545,345.695,322.545z"/>
			</g>
			<g>
				<path style="fill:#407BFF;" d="M386.296,345.101c-3.913-9.959-7.725-23.732-12.441-21.27
					C369.138,326.294,373.007,340.174,386.296,345.101z"/>
				<path style="fill:#407BFF;" d="M386.296,345.636c-0.063,0-0.125-0.011-0.185-0.033c-9.157-3.395-14.325-11.142-14.697-17.038
					c-0.157-2.499,0.642-4.397,2.194-5.207c0.785-0.411,1.592-0.461,2.393-0.15c3.268,1.265,5.904,8.47,8.696,16.099
					c0.687,1.878,1.397,3.82,2.098,5.6c0.077,0.196,0.031,0.42-0.116,0.57C386.575,345.581,386.436,345.636,386.296,345.636z
					 M374.967,324.078c-0.287,0-0.573,0.076-0.865,0.228c-1.16,0.605-1.751,2.133-1.621,4.191
					c0.327,5.176,4.929,12.241,12.873,15.652c-0.558-1.46-1.117-2.988-1.662-4.476c-2.466-6.739-5.262-14.379-8.078-15.469
					C375.397,324.12,375.182,324.078,374.967,324.078z"/>
			</g>
			<g>
				<path style="fill:#407BFF;" d="M389.383,291.508c5.543-12.47,17.799-26.555,24.184-24.26
					C420.419,269.71,406.591,285.974,389.383,291.508z"/>
				<path style="fill:#407BFF;" d="M389.383,292.043c-0.149,0-0.295-0.063-0.397-0.177c-0.142-0.157-0.177-0.382-0.091-0.575
					c5.811-13.074,18.192-26.946,24.853-24.547c1.429,0.513,2.17,1.581,2.145,3.086c-0.103,6.078-12.528,17.743-26.346,22.188
					C389.493,292.035,389.438,292.043,389.383,292.043z M412.086,267.535c-6.013,0-16.412,11.905-21.7,23.071
					c13.479-4.752,24.353-15.794,24.438-20.794c0.017-1.033-0.453-1.708-1.437-2.061
					C412.981,267.605,412.546,267.535,412.086,267.535z"/>
			</g>
			<g>
				<path style="fill:#407BFF;" d="M388.593,305.227c3.296-4.427,9.526-10.573,11.841-9.1
					C402.919,297.707,395.874,304.573,388.593,305.227z"/>
				<path style="fill:#407BFF;" d="M388.593,305.761c-0.192,0-0.371-0.103-0.467-0.273c-0.103-0.184-0.088-0.411,0.038-0.581
					c2.838-3.813,9.643-11.083,12.558-9.231c0.647,0.412,0.891,1.105,0.685,1.952c-0.685,2.82-6.678,7.585-12.767,8.132
					C388.625,305.761,388.608,305.761,388.593,305.761z M399.574,296.43c-2.006,0-6.42,3.891-9.762,8.089
					c5.409-1.005,10.061-5.111,10.556-7.144c0.138-0.568-0.113-0.728-0.221-0.796C399.989,296.478,399.796,296.43,399.574,296.43z"
					/>
			</g>
			<g>
				<path style="fill:#407BFF;" d="M360.412,326.148c1.182-5.391,3.45-17.429,6.19-17.572
					C369.543,308.422,366.78,322.557,360.412,326.148z"/>
				<path style="fill:#407BFF;" d="M360.412,326.683c-0.112,0-0.224-0.035-0.318-0.104c-0.169-0.126-0.249-0.339-0.204-0.545
					c0.117-0.536,0.246-1.137,0.384-1.786c1.805-8.46,3.645-16.067,6.301-16.206c0.418-0.02,1.181,0.124,1.538,1.355
					c1.016,3.496-1.916,14.104-7.438,17.218C360.593,326.66,360.502,326.683,360.412,326.683z M366.644,309.11
					c-0.004,0-0.009,0-0.013,0.001c-2.059,0.108-4.338,10.796-5.311,15.361c-0.035,0.165-0.07,0.326-0.104,0.484
					c4.498-3.614,6.653-12.56,5.868-15.26C366.973,309.307,366.824,309.11,366.644,309.11z"/>
			</g>
		</g>
		<g>
			<path style="fill:#407BFF;" d="M395.795,356.667h-38.581c-1.122,0-2.009,0.953-1.927,2.072l2.073,28.42
				c0.074,1.01,0.915,1.792,1.927,1.792h34.435c1.013,0,1.853-0.782,1.927-1.792l2.073-28.42
				C397.804,357.62,396.918,356.667,395.795,356.667z"/>
			<path style="opacity:0.6;fill:#FFFFFF;" d="M395.795,356.667h-38.581c-1.122,0-2.009,0.953-1.927,2.072l2.073,28.42
				c0.074,1.01,0.915,1.792,1.927,1.792h34.435c1.013,0,1.853-0.782,1.927-1.792l2.073-28.42
				C397.804,357.62,396.918,356.667,395.795,356.667z"/>
		</g>
		<path style="fill:#263238;" d="M401.057,416.238h2.991l-7.734-32.398c0.811-0.228,1.415-0.968,1.415-1.85
			c0-1.061-0.868-1.929-1.929-1.929h-38.587c-1.061,0-1.929,0.868-1.929,1.929c0,0.882,0.603,1.623,1.414,1.85l-7.734,32.398h2.991
			l7.716-32.319h15.341v32.319H378v-32.319h15.341L401.057,416.238z"/>
	</g>
</g>
</svg>
