<?xml version="1.0" encoding="utf-8"?>
<!-- Generator: Adobe Illustrator 27.5.0, SVG Export Plug-In . SVG Version: 6.00 Build 0)  -->
<svg version="1.1" xmlns="http://www.w3.org/2000/svg" xmlns:xlink="http://www.w3.org/1999/xlink" x="0px" y="0px"
	 viewBox="0 0 500 500" style="enable-background:new 0 0 500 500;" xml:space="preserve">
<g id="Floor">
	<path id="Floor_00000034798903276701588350000004642178727220899775_" style="fill:#F5F5F5;" d="M90.32,249.276
		C2.134,300.191,2.136,382.74,90.325,433.654s231.169,50.914,319.355,0s88.184-133.463-0.005-184.378S178.506,198.362,90.32,249.276
		z"/>
</g>
<g id="Shadows">
	<polygon id="Shadow_00000082366271757735911950000011798866353669842068_" style="fill:#E0E0E0;" points="350.065,356.006 
		276.947,313.793 398.809,243.436 471.924,285.651 	"/>
	<path id="Shadow_33_" style="fill:#E0E0E0;" d="M163.786,480.704L28.438,402.561c-3.485-2.012-3.485-5.274,0-7.286l181.301-104.67
		c3.485-2.011,9.134-2.011,12.619,0l135.344,78.141c3.485,2.012,3.485,5.274,0,7.286L176.404,480.704
		C172.92,482.715,167.27,482.715,163.786,480.704z"/>
</g>
<g id="Picture_00000059311888881579274530000001126759524961023675_">
	<g id="Picture_00000121961059574178031800000011775540858490537382_">
		<g id="Frame_00000097493858198873710070000011230214394416035991_">
			<polygon id="XMLID_00000156584858435673397950000004291206728523932599_" style="fill:#37474F;" points="352.407,329.943 
				357.43,332.362 450.434,278.666 445.413,276.244 			"/>
			<g id="XMLID_00000095298159596441277060000009627473606066373784_">
				<g id="XMLID_00000066495045587803527060000017430501575739875235_">
					<g id="XMLID_00000075154222826253648580000005207449802721078663_">
						<polygon id="XMLID_00000165942761727101924810000003377190957127624617_" style="fill:#FAFAFA;" points="445.413,276.244 
							356.94,327.314 344.071,194.978 432.547,143.94 						"/>
					</g>
				</g>
			</g>
			<path id="XMLID_00000176031568453207457330000010468454905988214912_" style="fill:#3CA3F4;" d="M444.719,126.995
				l-110.112,63.573l15.181,156.081l110.111-63.572L444.719,126.995z M450.434,278.666l-93.003,53.696l-13.359-137.384
				l93.002-53.695L450.434,278.666z"/>
			<path id="XMLID_00000032632999805379148070000010078761193469548960_" style="fill:#455A64;" d="M444.719,126.995
				l-110.112,63.573l15.181,156.081l110.111-63.572L444.719,126.995z M450.434,278.666l-93.003,53.696l-13.359-137.384
				l93.002-53.695L450.434,278.666z"/>
			<polygon id="XMLID_00000119087769355041471220000006177207118094152858_" style="fill:#263238;" points="450.434,278.666 
				445.413,276.244 432.547,143.94 437.073,141.283 			"/>
			<polygon id="XMLID_00000016761596198904019950000011848243102231390357_" style="fill:#37474F;" points="444.719,126.995 
				439.628,124.64 329.518,188.213 334.607,190.567 			"/>
			<polygon id="XMLID_00000096774395462585438550000010106448036983179154_" style="fill:#263238;" points="329.518,188.213 
				334.607,190.567 349.787,346.648 344.698,344.295 			"/>
		</g>
		<path style="fill:#3CA3F4;" d="M379.283,217.036c4.506-2.603,7.772-8.707,7.293-13.637c-0.479-4.928-4.522-6.814-9.029-4.212
			c-4.51,2.603-7.774,8.708-7.294,13.637C370.732,217.752,374.774,219.639,379.283,217.036z M439.353,251.436l-30.814-46.71
			l-24.115,69.484l2.994-18.827l-14.462-22.349l-15.169,65.492l2.169,22.294l81.563-47.091L439.353,251.436z"/>
		<path style="opacity:0.3;fill:#FFFFFF;" d="M379.283,217.036c4.506-2.603,7.772-8.707,7.293-13.637
			c-0.479-4.928-4.522-6.814-9.029-4.212c-4.51,2.603-7.774,8.708-7.294,13.637C370.732,217.752,374.774,219.639,379.283,217.036z
			 M439.353,251.436l-30.814-46.71l-24.115,69.484l2.994-18.827l-14.462-22.349l-15.169,65.492l2.169,22.294l81.563-47.091
			L439.353,251.436z"/>
	</g>
</g>
<g id="Books_00000008144299491151453260000013139543927698022566_">
	<g id="Books">
		<g id="Book_59_">
			<path id="XMLID_00000164490572573801174110000002601796141516407437_" style="fill:#3CA3F4;" d="M48.068,400.369l4.802-2.563
				l-4.373-1.046C47.606,397.773,47.551,398.999,48.068,400.369z"/>
			<path id="XMLID_00000160899292480999094870000003562816692537097124_" style="opacity:0.5;" d="M48.068,400.369l4.802-2.563
				l-4.373-1.046C47.606,397.773,47.551,398.999,48.068,400.369z"/>
			<g id="XMLID_7671_">
				<path id="XMLID_00000086678884002269252470000004676496428396648336_" style="fill:#3CA3F4;" d="M175.228,464.407
					c-2.697,1.557-7.066,1.557-9.762,0.001L55.88,401.135l164.045-93.184l3.832-2.217l109.583,61.735
					c2.687,1.559,2.687,4.095,0,5.636L175.228,464.407z"/>
				<path id="XMLID_00000176026681902468431970000014058342286122805174_" style="fill:#3CA3F4;" d="M134.08,346.421l-38.215,21.995
					l-24.74-14.283l-28.778,16.626c0,0,0,16.689,0,19.203s2.819,6.096,3.844,5.506c0,0,2.253,0.46,5.502,1.952
					c3.248,1.494,7.942,5.876,7.942,5.876l87.811-49.158L134.08,346.421z"/>
				<path id="XMLID_00000049913679208201659260000013728713599060357046_" style="opacity:0.15;" d="M134.08,346.421l-38.215,21.995
					l-24.74-14.283l-28.778,16.626c0,0,0,16.689,0,19.203s2.819,6.096,3.844,5.506c0,0,2.253,0.46,5.502,1.952
					c3.248,1.494,7.942,5.876,7.942,5.876l87.811-49.158L134.08,346.421z"/>
				<path style="fill:#37474F;" d="M58.137,373.07v20.845c-0.116-0.083-0.232-0.147-0.337-0.21c-1.168-0.673-2.913-1.462-4.68-1.462
					c-1.209,0-2.261,0.094-3.082,0.725V368.39L58.137,373.07z"/>
				<path style="fill:#E0E0E0;" d="M63.512,401.077c-0.042-1.241-0.569-2.461-1.378-3.555c-0.39-0.546-0.852-1.061-1.347-1.546
					c-0.148-0.147-0.305-0.294-0.463-0.442c-0.201-0.168-0.4-0.336-0.6-0.504c-0.168-0.127-0.337-0.253-0.505-0.379
					c-0.357-0.262-0.725-0.505-1.083-0.725v-20.76l5.353,3.102v-0.106L63.512,401.077z"/>
				<path style="opacity:0.4;" d="M42.347,389.962c0,2.514,2.819,6.096,3.844,5.506h0.001l3.845-2.497v-15.847l-3.852-6.626
					l-2.098-0.745l-1.74,1.006C42.347,370.759,42.347,387.448,42.347,389.962z"/>
			</g>
			<path id="XMLID_1130_" style="fill:#EBEBEB;" d="M170.347,437.855v23.786c-1.184,0-2.367-0.244-3.25-0.77l-12.023-6.933
				l-91.567-52.865l-0.019-24.914L170.347,437.855z"/>
			<path id="XMLID_00000011746514666790886600000002166631194817777826_" style="fill:#F5F5F5;" d="M330.597,348.505v17.962
				c0,2.067-1.466,4.603-3.249,5.636l-141.746,81.836l-12.005,6.933c-0.882,0.525-2.066,0.77-3.249,0.77v-21.1L330.597,348.505z"/>
			<g id="XMLID_1113_">
				<path id="XMLID_7668_" style="fill:#3CA3F4;" d="M219.925,277.041L55.88,371.763c0,0,0,0.977,0,2.198
					c0,1.222-1.71,1.672-3.814,0.451c-2.123-1.221-3.833-2.744-3.833-4.848l-0.206-2.086l167.146-96.489l0.676-0.394
					c0.169,0.319,0.282,0.677,0.282,1.014v1.015C216.13,273.847,217.821,275.8,219.925,277.041z"/>
				<path id="XMLID_00000124148966735265804530000013624749775548767366_" style="opacity:0.1;" d="M219.925,277.041L55.88,371.763
					c0,0,0,0.977,0,2.198c0,1.222-1.71,1.672-3.814,0.451c-2.123-1.221-3.833-2.744-3.833-4.848l-0.206-2.086l167.146-96.489
					l0.676-0.394c0.169,0.319,0.282,0.677,0.282,1.014v1.015C216.13,273.847,217.821,275.8,219.925,277.041z"/>
				<path id="XMLID_7666_" style="fill:#3CA3F4;" d="M165.466,435.037L58.308,373.165c-1.362-0.713-2.605-1.286-3.13-1.011
					l0.701-0.392l164.045-94.722c0,0,0.963-0.553,1.917-1.106c1.058-0.613,3.372-0.27,5.169,0.767l106.329,61.394
					c2.687,1.56,2.687,4.096,0,5.636l-158.113,91.304C172.531,436.593,168.162,436.593,165.466,435.037z"/>
				<path id="XMLID_00000174560237559106990510000018093569350288025013_" style="fill:#3CA3F4;" d="M215.848,270.596l-0.676,0.394
					L48.026,367.479c0,0-0.113-0.263-0.358-0.451c-0.149-0.093-0.338-0.188-0.563-0.319l-1.202-0.695
					c-0.451-0.263-0.958-0.563-1.485-0.865c-0.694-0.394-1.333-0.32-1.897,0.17c-0.075,0.037-0.132,0.094-0.188,0.169
					c-0.187,0.188-0.356,0.432-0.507,0.695c-0.169,0.282-0.32,0.601-0.432,0.939c-0.131,0.339-0.244,0.714-0.339,1.089
					c-0.093,0.413-0.168,0.827-0.244,1.278c-0.056,0.244-0.075,0.507-0.093,0.77c-0.019,0.207-0.037,0.395-0.056,0.62
					c-0.038,0.469-0.056,0.957-0.056,1.465v-4.696c0-2.593,2.197-5.955,4.884-7.515l158.128-91.304
					c2.705-1.559,6.594-1.822,8.698-0.62l1.992,1.165l0.075,0.037c0.131,0.094,0.47,0.282,0.846,0.489c0,0,0.018,0,0.018,0.019
					C215.473,270.052,215.697,270.296,215.848,270.596z"/>
				<path id="XMLID_00000001624628666940160320000001225738685480742328_" style="fill:#3CA3F4;" d="M165.462,464.402l-6.614-3.832
					l-99.212-57.281c-0.037-1.24-0.545-2.461-1.353-3.551c-1.127-1.578-2.818-2.931-4.34-3.814
					c-1.165-0.676-2.912-1.465-4.678-1.465c-1.202,0-2.254,0.376-3.081,1.014c-0.639-0.865-1.822-4.189-1.822-8.21h-3.757
					c0,5.185,1.709,10.39,3.813,11.591l1.898,1.109c1.071,0.62,1.916,0.658,1.916,0.075v-1.014c0-1.127,1.71-1.071,3.833,0.15
					c2.104,1.221,3.814,3.119,3.814,4.246v1.015c0,0.582,1.465,1.878,3.25,2.911l95.945,55.402l10.389,5.993
					c0,0,0.019,0,0.019,0.019c1.352,0.751,3.1,1.147,4.866,1.147v-4.34C168.581,465.567,166.815,465.192,165.462,464.402z"/>
				<path id="XMLID_00000069380448280407870520000006175712168172263815_" style="opacity:0.3;" d="M165.462,464.402l-6.614-3.832
					l-99.212-57.281c-0.037-1.24-0.545-2.461-1.353-3.551c-1.127-1.578-2.818-2.931-4.34-3.814
					c-1.165-0.676-2.912-1.465-4.678-1.465c-1.202,0-2.254,0.376-3.081,1.014c-0.639-0.865-1.822-4.189-1.822-8.21h-3.757
					c0,5.185,1.709,10.39,3.813,11.591l1.898,1.109c1.071,0.62,1.916,0.658,1.916,0.075v-1.014c0-1.127,1.71-1.071,3.833,0.15
					c2.104,1.221,3.814,3.119,3.814,4.246v1.015c0,0.582,1.465,1.878,3.25,2.911l95.945,55.402l10.389,5.993
					c0,0,0.019,0,0.019,0.019c1.352,0.751,3.1,1.147,4.866,1.147v-4.34C168.581,465.567,166.815,465.192,165.462,464.402z"/>
				<path id="XMLID_00000036225303375530568120000003602563517954034826_" style="fill:#3CA3F4;" d="M165.501,435.056
					c0,0-0.02-0.019-0.038-0.019l-6.614-3.833l-76.217-43.979l-24.329-14.052c-1.728-1.016-3.137-1.373-3.231-0.846
					c-0.018,0.018-0.018,0.038-0.018,0.057v1.107c0,1.222-1.71,1.222-3.815,0c-2.065-1.183-2.967-2.649-3.006-3.832v-1.202
					c0-0.62-0.243-1.259-0.564-1.428c-0.149-0.093-0.356-0.206-0.563-0.319c-0.338-0.188-0.752-0.432-1.202-0.695
					c-0.451-0.263-0.958-0.563-1.485-0.865c-0.694-0.394-1.333-0.32-1.897,0.17c-0.075,0.037-0.132,0.094-0.188,0.169
					c-0.131,0.131-0.244,0.282-0.339,0.45c-0.075,0.076-0.112,0.151-0.169,0.245c-0.169,0.282-0.32,0.601-0.432,0.939
					c-0.131,0.339-0.244,0.714-0.339,1.089c-0.093,0.413-0.168,0.827-0.244,1.278c-0.056,0.244-0.075,0.507-0.093,0.77
					c-0.019,0.207-0.037,0.395-0.056,0.62c-0.038,0.469-0.056,0.957-0.056,1.465v14.919h3.757v-14.919
					c0-0.394,0.02-0.789,0.037-1.165l0.094-0.939c0-0.038,0-0.057,0.019-0.094c0.338,2.987,3.194,5.654,5.673,7.064
					c1.109,0.657,2.819,1.427,4.585,1.427c1.315,0,2.498-0.469,3.362-1.24l0.339,0.188c0.225,0.132,0.431,0.262,0.657,0.395
					l95.945,55.402l10.389,5.993c0,0,0.019,0,0.019,0.018c0.02,0.019,0.038,0.019,0.076,0.037c1.333,0.733,3.061,1.108,4.79,1.108
					v-4.336C168.407,436.205,166.863,435.774,165.501,435.056z"/>
				<path id="XMLID_00000064322439005809658960000012153363173431370116_" style="opacity:0.3;" d="M165.501,435.056
					c0,0-0.02-0.019-0.038-0.019l-6.614-3.833l-76.217-43.979l-24.329-14.052c-1.728-1.016-3.137-1.373-3.231-0.846
					c-0.018,0.018-0.018,0.038-0.018,0.057v1.107c0,1.222-1.71,1.222-3.815,0c-2.065-1.183-2.967-2.649-3.006-3.832v-1.202
					c0-0.62-0.243-1.259-0.564-1.428c-0.149-0.093-0.356-0.206-0.563-0.319c-0.338-0.188-0.752-0.432-1.202-0.695
					c-0.451-0.263-0.958-0.563-1.485-0.865c-0.694-0.394-1.333-0.32-1.897,0.17c-0.075,0.037-0.132,0.094-0.188,0.169
					c-0.131,0.131-0.244,0.282-0.339,0.45c-0.075,0.076-0.112,0.151-0.169,0.245c-0.169,0.282-0.32,0.601-0.432,0.939
					c-0.131,0.339-0.244,0.714-0.339,1.089c-0.093,0.413-0.168,0.827-0.244,1.278c-0.056,0.244-0.075,0.507-0.093,0.77
					c-0.019,0.207-0.037,0.395-0.056,0.62c-0.038,0.469-0.056,0.957-0.056,1.465v14.919h3.757v-14.919
					c0-0.394,0.02-0.789,0.037-1.165l0.094-0.939c0-0.038,0-0.057,0.019-0.094c0.338,2.987,3.194,5.654,5.673,7.064
					c1.109,0.657,2.819,1.427,4.585,1.427c1.315,0,2.498-0.469,3.362-1.24l0.339,0.188c0.225,0.132,0.431,0.262,0.657,0.395
					l95.945,55.402l10.389,5.993c0,0,0.019,0,0.019,0.018c0.02,0.019,0.038,0.019,0.076,0.037c1.333,0.733,3.061,1.108,4.79,1.108
					v-4.336C168.407,436.205,166.863,435.774,165.501,435.056z"/>
				<path id="XMLID_00000021821551975242193060000007381206259150828437_" style="fill:#3CA3F4;" d="M335.35,340.862v4.415
					c0,1.014-0.638,2.01-1.934,2.78l-0.075,0.038l-147.739,85.292l-10.37,5.993v0.019c0,0-0.019-0.019-0.019,0
					c-1.353,0.752-3.1,1.146-4.865,1.146v-4.34c1.765,0,3.531-0.376,4.884-1.165l6.594-3.814h0.018l151.496-87.49
					C334.775,342.902,335.346,341.927,335.35,340.862z"/>
				<path id="XMLID_00000015325784760778918010000006745428781902472118_" style="opacity:0.2;" d="M335.35,340.862v4.415
					c0,1.014-0.638,2.01-1.934,2.78l-0.075,0.038l-147.739,85.292l-10.37,5.993v0.019c0,0-0.019-0.019-0.019,0
					c-1.353,0.752-3.1,1.146-4.865,1.146v-4.34c1.765,0,3.531-0.376,4.884-1.165l6.594-3.814h0.018l151.496-87.49
					C334.775,342.902,335.346,341.927,335.35,340.862z"/>
				<path id="XMLID_1120_" style="fill:#3CA3F4;" d="M335.35,370.224v4.415c0,1.015-0.638,2.01-1.934,2.781l-0.075,0.037
					l-147.739,85.292l-10.37,5.993v0.019c0,0-0.019-0.019-0.019,0c-1.353,0.751-3.1,1.147-4.865,1.147v-4.34
					c1.765,0,3.531-0.375,4.884-1.165l6.594-3.814h0.018l151.496-87.489C334.775,372.266,335.346,371.29,335.35,370.224z"/>
				<path id="XMLID_00000085969590918950110830000000327667109393048978_" style="opacity:0.2;" d="M335.35,370.224v4.415
					c0,1.015-0.638,2.01-1.934,2.781l-0.075,0.037l-147.739,85.292l-10.37,5.993v0.019c0,0-0.019-0.019-0.019,0
					c-1.353,0.751-3.1,1.147-4.865,1.147v-4.34c1.765,0,3.531-0.375,4.884-1.165l6.594-3.814h0.018l151.496-87.489
					C334.775,372.266,335.346,371.29,335.35,370.224z"/>
			</g>
		</g>
		<g id="Book_57_">
			<g id="XMLID_1100_">
				<polygon id="XMLID_1112_" style="fill:#3CA3F4;" points="48.026,353.115 174.732,425.289 343.24,328.585 216.544,256.405 				
					"/>
				<polygon id="XMLID_7677_" style="opacity:0.2;fill:#FFFFFF;" points="48.026,353.115 174.732,425.289 343.24,328.585 
					216.544,256.405 				"/>
				<path id="XMLID_00000054947071973190606920000007385683820395645061_" style="fill:#F5F5F5;" d="M175.895,420.867
					L52.797,350.378c2.57-7.295,2.377-15.807-0.532-25.517l122.469,69.893C174.734,394.753,176.602,400.913,175.895,420.867z"/>
				<path id="XMLID_00000173862736647437368650000001079704782867987633_" style="fill:#3CA3F4;" d="M169.713,386.782
					c5.221,2.997,9.453,10.283,9.453,16.277v19.014c0,5.994-4.233,8.423-9.454,5.428L48.038,357.825l-0.012-4.71l120.381,68.582
					c3.133,1.798,5.668,0.34,5.666-3.256l-0.089-17.621c-0.003-3.596-2.545-7.968-5.679-9.767L48.038,322.447v-5.339
					L169.713,386.782z"/>
				<path id="XMLID_00000155842596398584551990000013088477847737343911_" style="opacity:0.4;fill:#FFFFFF;" d="M169.713,386.782
					c5.221,2.997,9.453,10.283,9.453,16.277v19.014c0,5.994-4.233,8.423-9.454,5.428L48.038,357.825l-0.012-4.71l120.381,68.582
					c3.133,1.798,5.668,0.34,5.666-3.256l-0.089-17.621c-0.003-3.596-2.545-7.968-5.679-9.767L48.038,322.447v-5.339
					L169.713,386.782z"/>
				<path id="XMLID_1108_" style="fill:#3CA3F4;" d="M48.037,317.119l168.509-96.706l121.667,69.668
					c5.218,2.995,9.454,10.288,9.454,16.277l0.003,19.018c-0.006,2.985-1.053,5.09-2.773,6.077l-168.509,96.706
					c1.72-0.987,2.767-3.092,2.773-6.077l0.014-19.03c0-5.989-4.235-13.282-9.452-16.276L48.037,317.119z"/>
				<path id="XMLID_1103_" style="opacity:0.85;fill:#FFFFFF;" d="M48.037,317.119l168.509-96.706l121.667,69.668
					c5.218,2.995,9.454,10.288,9.454,16.277l0.003,19.018c-0.006,2.985-1.053,5.09-2.773,6.077l-168.509,96.706
					c1.72-0.987,2.767-3.092,2.773-6.077l0.014-19.03c0-5.989-4.235-13.282-9.452-16.276L48.037,317.119z"/>
				<path id="XMLID_1101_" style="fill:#3CA3F4;" d="M176.407,393.792c1.709,2.946,2.768,6.266,2.768,9.26l-0.014,19.03
					c-0.006,2.985-1.053,5.089-2.773,6.077l168.509-96.706c1.72-0.987,2.767-3.092,2.773-6.077l-0.003-19.018
					c-0.001-2.995-1.059-6.314-2.77-9.261L176.407,393.792z"/>
				<path id="XMLID_7639_" style="opacity:0.6;fill:#FFFFFF;" d="M176.407,393.792c1.709,2.946,2.768,6.266,2.768,9.26l-0.014,19.03
					c-0.006,2.985-1.053,5.089-2.773,6.077l168.509-96.706c1.72-0.987,2.767-3.092,2.773-6.077l-0.003-19.018
					c-0.001-2.995-1.059-6.314-2.77-9.261L176.407,393.792z"/>
				<g>
					<path style="fill:#FFFFFF;" d="M322.686,309.709c3.064,13.31,3.02,24.807,0.001,34.568l-7.828,4.52
						c3.02-9.761,3.063-21.258-0.001-34.568L322.686,309.709z"/>
					<path style="fill:#FFFFFF;" d="M210.764,374.328c3.064,13.309,3.02,24.806,0.001,34.567l-7.828,4.52
						c3.019-9.761,3.063-21.259-0.001-34.568L210.764,374.328z"/>
				</g>
			</g>
		</g>
	</g>
</g>
<g id="Alarm_Clock_00000106828274707193583840000009406497569726827444_">
	<path id="Shadow_00000126313618719480006120000011269795528503352226_" style="opacity:0.2;fill:#3CA3F4;" d="M137.817,359.998
		l-52.418-30.263c-8.731-5.041-8.731-13.213,0-18.254l121.621-70.218c8.731-5.041,22.886-5.041,31.616,0l52.418,30.263
		c8.731,5.041,8.731,13.213,0,18.254l-121.621,70.218C160.702,365.039,146.547,365.039,137.817,359.998z"/>
	<g id="Alarm_Clock">
		<g>
			<path d="M133.597,325.035c2.23,1.288,2.23,3.376,0,4.663s-5.847,1.288-8.077,0c-2.23-1.288-2.23-3.376,0-4.663
				C127.75,323.747,131.367,323.747,133.597,325.035z"/>
			<polygon points="123.934,326.792 134.501,293.12 149.332,301.69 135.012,328.348 			"/>
		</g>
		<g>
			<path d="M253.87,271.518c-2.23,1.288-2.23,3.376,0,4.663c2.23,1.288,5.847,1.288,8.077,0c2.23-1.288,2.23-3.376,0-4.663
				C259.716,270.23,256.1,270.23,253.87,271.518z"/>
			<polygon points="263.533,273.275 252.966,239.603 238.135,248.173 252.455,274.831 			"/>
		</g>
		<path id="XMLID_00000039829265224755880020000014306835797613736344_" style="fill:#263238;" d="M231.272,124.483l6.788-11.777
			c1.917-3.435,6.255-4.665,9.689-2.749c3.435,1.917,4.665,6.255,2.748,9.689l-6.874,11.928c-1.45,2.526-5.391,2.986-8.802,1.027
			C231.412,130.643,229.822,127.008,231.272,124.483z"/>
		<g id="Clock_2_">
			<g id="Clock_00000093137006040925608340000011172451566714163850_">
				<g>
					<path id="XMLID_361_" style="fill:#3CA3F4;" d="M264.935,141.04l-55.23-31.874c-12.769-7.232-30.331-6.118-49.723,5.077
						c-39.026,22.532-70.663,77.329-70.663,122.393c0,22.392,7.817,38.158,20.465,45.6l55.221,31.889l4.492-11.823
						c6.208-1.525,12.759-4.181,19.54-8.096c39.027-22.532,70.663-77.329,70.663-122.393c0-7.766-0.96-14.714-2.714-20.816
						L264.935,141.04z"/>
					<path style="opacity:0.1;" d="M89.939,225.619c-0.394,3.719-0.62,7.401-0.62,11.017c0,22.392,7.818,38.158,20.465,45.6
						l55.221,31.889l4.493-11.823c1.467-0.361,2.956-0.795,4.46-1.284l6.68-23.036L89.939,225.619z"/>
				</g>
				<g>
					<g id="XMLID_358_">
						
							<ellipse transform="matrix(0.5 -0.866 0.866 0.5 -89.607 300.2358)" style="fill:#3CA3F4;" cx="215.21" cy="227.72" rx="99.933" ry="57.697"/>
					</g>
					
						<ellipse id="XMLID_00000127749084318898502010000015058139681126615968_" transform="matrix(0.5 -0.866 0.866 0.5 -89.607 300.2358)" style="opacity:0.3;fill:#FFFFFF;" cx="215.21" cy="227.72" rx="99.933" ry="57.697"/>
				</g>
				<path style="fill:#3CA3F4;" d="M269.803,160.889c-9.929-15.851-29.154-18.287-51.428-6.519
					c-36.859,19.473-66.674,71.113-65.107,112.765c0.412,10.915,2.952,20.396,7.35,27.415c9.929,15.851,29.154,18.287,51.428,6.519
					c36.858-19.469,66.671-71.108,65.107-112.766c-0.412-10.915-2.953-20.396-7.348-27.413
					C269.803,160.889,269.803,160.889,269.803,160.889z"/>
				<path style="fill:#FAFAFA;" d="M204.865,297.035c-14.183,7.493-27.117,9.203-37.214,5.382c-2.678-2.09-5.049-4.697-7.034-7.866
					c-4.397-7.02-6.938-16.5-7.35-27.416c-1.567-41.652,28.249-93.293,65.107-112.766c14.183-7.493,27.116-9.203,37.214-5.382
					c2.678,2.09,5.049,4.697,7.034,7.866c0,0,0,0,0.002,0.003c4.395,7.017,6.936,16.498,7.348,27.413
					C271.536,225.926,241.723,277.566,204.865,297.035z"/>
			</g>
			<g>
				<path id="XMLID_00000157310348879205355650000003703164534228410267_" style="fill:#455A64;" d="M215.333,166.387
					c0,2.368-1.663,5.247-3.713,6.432c-2.051,1.184-3.713,0.224-3.713-2.144c0-2.368,1.663-5.248,3.713-6.432
					C213.671,163.059,215.333,164.018,215.333,166.387z"/>
				
					<ellipse id="XMLID_00000167359344037641487370000001927852062406410123_" transform="matrix(0.5 -0.866 0.866 0.5 -39.494 323.3135)" style="fill:#455A64;" cx="260.251" cy="195.86" rx="5.251" ry="3.032"/>
				<path id="XMLID_00000183207047526758051750000011672049175938596512_" style="fill:#455A64;" d="M241.619,158.403
					c0,1.001-0.702,2.217-1.569,2.718c-0.867,0.5-1.569,0.095-1.569-0.906c0-1.001,0.702-2.217,1.569-2.718
					C240.917,156.996,241.619,157.402,241.619,158.403z"/>
				<path id="XMLID_00000063622441805106152480000007682090197245962168_" style="fill:#455A64;" d="M259.218,172.012
					c0,1.001-0.702,2.217-1.569,2.718c-0.867,0.5-1.569,0.095-1.569-0.906c0-1.001,0.702-2.217,1.569-2.718
					C258.516,170.606,259.218,171.012,259.218,172.012z"/>
				<path id="XMLID_00000000219819974206229660000017619842007130932917_" style="fill:#455A64;" d="M257.1,222.272
					c0,1.001-0.703,2.217-1.569,2.718c-0.867,0.5-1.569,0.095-1.569-0.906c0-1.001,0.702-2.217,1.569-2.718
					C256.398,220.866,257.1,221.272,257.1,222.272z"/>
				<path id="XMLID_00000092458242101965552780000004083756900275645577_" style="fill:#455A64;" d="M239.518,255.456
					c0,1.001-0.702,2.217-1.569,2.718c-0.867,0.5-1.569,0.095-1.569-0.906c0-1.001,0.702-2.217,1.569-2.718
					C238.816,254.05,239.518,254.456,239.518,255.456z"/>
				<path id="XMLID_00000012455487424473080450000017707212960188006046_" style="fill:#455A64;" d="M169.548,224.674
					c0,1.001-0.702,2.217-1.569,2.718c-0.867,0.5-1.569,0.095-1.569-0.906c0-1.001,0.702-2.217,1.569-2.718
					C168.845,223.268,169.548,223.673,169.548,224.674z"/>
				<path id="XMLID_00000096054921089107830140000015869230004633494699_" style="fill:#455A64;" d="M186.393,192.324
					c0,1.001-0.702,2.217-1.569,2.718c-0.867,0.5-1.569,0.095-1.569-0.906c0-1.001,0.702-2.217,1.569-2.718
					C185.691,190.918,186.393,191.324,186.393,192.324z"/>
				<path id="XMLID_00000114763715863620388390000010357667632137899455_" style="fill:#455A64;" d="M184.885,291.271
					c0,1.001-0.702,2.217-1.569,2.718c-0.867,0.5-1.569,0.095-1.569-0.906c0-1.001,0.702-2.217,1.569-2.718
					C184.182,289.865,184.885,290.27,184.885,291.271z"/>
				<path id="XMLID_00000124154236477052768680000016811787652839324569_" style="fill:#455A64;" d="M167.631,274.847
					c0,1.001-0.702,2.217-1.569,2.718c-0.867,0.5-1.569,0.095-1.569-0.906c0-1.001,0.702-2.217,1.569-2.718
					C166.929,273.441,167.631,273.846,167.631,274.847z"/>
				<path id="XMLID_00000060003044402882542280000003760959426473673393_" style="fill:#455A64;" d="M167.018,249.687
					c0,2.368-1.663,5.248-3.713,6.432c-2.051,1.184-3.713,0.224-3.713-2.144c0-2.368,1.663-5.248,3.713-6.432
					C165.356,246.359,167.018,247.319,167.018,249.687z"/>
				<path id="XMLID_00000009554128989438669820000001192290374593164191_" style="fill:#455A64;" d="M215.333,277.941
					c0,2.368-1.663,5.248-3.713,6.432c-2.051,1.184-3.713,0.224-3.713-2.144c0-2.368,1.663-5.248,3.713-6.432
					C213.671,274.613,215.333,275.573,215.333,277.941z"/>
			</g>
			<g>
				<g>
					<g id="XMLID_00000124132842625653722380000009615124710603393411_">
						<path style="fill:#455A64;" d="M210.028,222.95c1.122-1.943,2.941-2.993,4.063-2.346c1.122,0.648,1.122,2.748,0,4.691
							c-1.122,1.943-2.941,2.993-4.063,2.346C208.906,226.993,208.906,224.893,210.028,222.95z"/>
					</g>
					<g>
						<polygon style="fill:#263238;" points="214.325,215.19 212.059,178.272 211.363,177.872 209.097,217.407 211.363,223.218 
							212.059,223.617 						"/>
						<polygon style="fill:#37474F;" points="209.793,217.807 209.097,217.407 211.363,177.872 212.059,178.272 						"/>
						<polygon style="fill:#455A64;" points="212.059,223.617 214.325,215.19 212.059,178.272 209.793,217.807 						"/>
					</g>
					<g>
						<polygon style="fill:#263238;" points="211.186,224.029 204.822,231.26 191.281,258.504 191.978,258.904 208.803,233.556 
							211.883,224.429 						"/>
						<polygon style="fill:#37474F;" points="204.822,231.26 205.518,231.66 191.978,258.904 191.281,258.504 						"/>
						<polygon style="fill:#455A64;" points="191.978,258.904 208.803,233.556 211.883,224.429 205.518,231.66 						"/>
					</g>
				</g>
				<g>
					<path id="XMLID_00000088841595389280846610000010016239534436769944_" style="fill:#37474F;" d="M216.847,219.949l-2.022-1.168
						c-0.002-0.001-0.004-0.002-0.006-0.003l-0.011-0.006l0,0c-0.746-0.422-1.771-0.357-2.903,0.296
						c-2.279,1.316-4.126,4.515-4.126,7.146c0,1.307,0.456,2.228,1.195,2.663l0,0l0.011,0.007c0.002,0.001,0.004,0.002,0.005,0.003
						l2.022,1.168l0.262-0.69c0.363-0.089,0.745-0.244,1.141-0.473c2.279-1.315,4.126-4.515,4.126-7.146
						c0-0.453-0.056-0.859-0.158-1.215L216.847,219.949z"/>
					<path style="fill:#263238;" d="M207.815,225.572c-0.023,0.217-0.036,0.432-0.036,0.643c0,1.307,0.456,2.228,1.195,2.663l0,0
						l0.011,0.007c0.002,0.001,0.004,0.002,0.005,0.003l2.022,1.168l0.262-0.69c0.086-0.021,0.173-0.047,0.26-0.075l0.39-1.345
						L207.815,225.572z"/>
					<g id="XMLID_00000146473954835514763070000011312675155612452235_">
						<path style="fill:#455A64;" d="M218.07,222.628c0,2.631-1.847,5.831-4.126,7.146c-2.279,1.315-4.126,0.249-4.126-2.382
							c0-2.631,1.847-5.831,4.126-7.146C216.223,218.93,218.07,219.997,218.07,222.628z"/>
					</g>
				</g>
				
					<rect x="229.995" y="209.033" transform="matrix(0.0671 -0.9977 0.9977 0.0671 -10.5301 440.4368)" style="fill:#3CA3F4;" width="0.524" height="33.633"/>
				<g>
					<path id="Sphere_1_x2F_2_00000063635258338095134100000014848126146806860196_" style="fill:#3CA3F4;" d="M212.081,228.784
						c-0.529-0.305-0.855-0.959-0.855-1.891c0-1.863,1.308-4.128,2.921-5.059c0.807-0.466,1.537-0.51,2.066-0.205
						c1.976,1.141,2.653,3.667,1.512,5.643C216.583,229.247,214.056,229.924,212.081,228.784z"/>
					<path style="opacity:0.3;fill:#FFFFFF;" d="M213.733,223.362c-0.062,0.14-0.104,0.304-0.043,0.445
						c0.04,0.092,0.119,0.161,0.204,0.215c0.503,0.318,1.133,0.156,1.69,0.183c0.609,0.03,1.157,0.155,1.715,0.418
						c0.523,0.246,0.564-0.282,0.444-0.655c-0.276-0.857-1.054-1.678-1.989-1.752C214.976,222.154,214.053,222.635,213.733,223.362z
						"/>
					<path style="opacity:0.2;" d="M217.724,227.272c0.093-0.162,0.17-0.328,0.239-0.496c-0.641,0.512-1.386,0.875-2.197,0.908
						c-1.237,0.05-2.453-0.739-2.954-1.871c-0.433-0.979-0.326-2.159,0.218-3.079c-1.059,1.118-1.805,2.753-1.805,4.158
						c0,0.932,0.327,1.586,0.855,1.891C214.056,229.924,216.583,229.247,217.724,227.272z"/>
				</g>
			</g>
		</g>
		<g>
			<g>
				<path style="fill:#455A64;" d="M194.588,113.277c0-0.709-0.469-1.419-1.406-1.96c-1.875-1.082-4.914-1.082-6.789,0
					c-0.938,0.541-1.406,1.251-1.406,1.96c0,0.333,0,18.074,0,18.407c0,0.709,0.469,1.418,1.406,1.96
					c1.874,1.082,4.914,1.082,6.789,0c0.937-0.541,1.406-1.25,1.406-1.96C194.588,131.351,194.588,113.61,194.588,113.277z"/>
				<path style="fill:#263238;" d="M193.182,111.318c-1.875-1.082-4.914-1.082-6.789,0c-0.937,0.541-1.406,1.251-1.406,1.96
					c0,0.172,0,4.973,0,9.629c3.091,0.667,6.509,0.668,9.601,0.002c0-4.657,0-9.459,0-9.631
					C194.588,112.568,194.119,111.859,193.182,111.318z"/>
				<path style="fill:#37474F;" d="M186.393,115.237c-0.937-0.541-1.406-1.25-1.406-1.96c0-0.709,0.469-1.419,1.406-1.96
					c1.875-1.082,4.914-1.082,6.789,0c0.937,0.541,1.406,1.251,1.406,1.96c0,0.709-0.469,1.419-1.406,1.96
					C191.307,116.319,188.267,116.319,186.393,115.237z"/>
			</g>
			<g>
				<path style="fill:#37474F;" d="M203.5,105.758c0-2.025-1.339-4.051-4.015-5.596c-5.353-3.091-14.032-3.091-19.385,0
					c-2.677,1.545-4.015,3.571-4.015,5.596c0,0.951,0,5.998,0,6.949c0,2.025,1.338,4.05,4.015,5.596
					c5.353,3.091,14.032,3.091,19.385,0c2.676-1.545,4.015-3.571,4.015-5.596C203.5,111.756,203.5,106.709,203.5,105.758z"/>
				<path style="fill:#455A64;" d="M180.1,111.354c-2.676-1.545-4.015-3.571-4.015-5.596c0-2.025,1.338-4.051,4.015-5.596
					c5.353-3.09,14.032-3.09,19.385,0c2.676,1.545,4.015,3.571,4.015,5.596c0,2.025-1.338,4.051-4.015,5.596
					C194.132,114.445,185.454,114.445,180.1,111.354z"/>
				<path style="opacity:0.2;" d="M180.697,111.654v6.934c0.382,0.191,0.788,0.382,1.193,0.549v-6.934
					C181.485,112.036,181.079,111.869,180.697,111.654z M184.897,113.133v6.958c0.382,0.072,0.788,0.143,1.193,0.191v-6.934
					C185.684,113.3,185.278,113.229,184.897,113.133z M177.357,109.053v6.935c0.334,0.429,0.74,0.835,1.193,1.217v-6.934
					C178.072,109.888,177.667,109.483,177.357,109.053z M197.543,112.274v6.934c0.429-0.167,0.811-0.358,1.193-0.549v-6.935
					C198.354,111.94,197.949,112.107,197.543,112.274z M200.884,110.389v6.935c0.453-0.382,0.859-0.764,1.193-1.169v-6.887
					C201.743,109.674,201.337,110.055,200.884,110.389z M193.344,113.372v6.935c0.405-0.048,0.811-0.119,1.193-0.191v-6.958
					C194.131,113.253,193.749,113.324,193.344,113.372z M189.192,113.635v6.958h1.193v-6.958
					C189.98,113.682,189.597,113.682,189.192,113.635z"/>
			</g>
		</g>
		<g id="XMLID_00000178207166753040577600000003397141976611765128_">
			<path id="XMLID_00000076594561987152539210000015939508064667530375_" style="fill:#455A64;" d="M148.496,201.299
				c-10.936,18.975-31.554,27.574-47.084,18.632c-18.979-10.928-25.491-35.183-14.555-54.158
				c10.936-18.975,35.249-25.605,54.158-14.555C156.487,160.26,159.432,182.324,148.496,201.299z"/>
			<path style="opacity:0.1;fill:#FFFFFF;" d="M109.526,164.962c2,1.751,4.914,3.246,7.167,4.658c3.41,2.137,5.53,5.068,7.919,8.307
				c2.881,3.906,5.27,8.787,9.87,10.337c4.682,1.577,10.073-1.32,12.369-5.695c2.296-4.375,2.516-10.722,0.834-15.367
				c-4.807-13.277-21.945-20.867-35.233-14.526C108.227,154.693,105.753,161.66,109.526,164.962z"/>
			<path id="XMLID_00000181068091325224008490000010247188567822117545_" style="fill:#37474F;" d="M101.411,219.93
				c15.531,8.942,36.149,0.343,47.085-18.632c2.554-4.43,4.319-9.028,5.376-13.59c-0.634,0.823-18.836,24.106-41.518,17.594
				c-23.09-6.629-27.466-24.407-25.497-39.53C75.921,184.747,82.432,209.003,101.411,219.93z"/>
			<path id="XMLID_00000139255922942816473420000012334283421166647450_" style="fill:#3CA3F4;" d="M94.95,161.903l-5.755-3.341
				c-3.376-2.009-7.741-0.901-9.75,2.475c-2.009,3.376-0.901,7.741,2.475,9.75l5.904,3.429c2.518,1.457,6.154-0.118,8.122-3.518
				C97.913,167.297,97.467,163.36,94.95,161.903z"/>
			<path style="opacity:0.2;fill:#FFFFFF;" d="M81.405,160.178c-0.11,0.128-0.204,0.268-0.266,0.425
				c-0.479,1.218,1.072,1.851,1.994,1.923c2.414,0.187,4.768-0.094,7.171,0.38c1.01,0.199,2.023,0.478,3.049,0.41
				c0.547-0.036,0.716-0.502,0.368-0.915c-0.142-0.168-0.332-0.287-0.519-0.403c-1.966-1.222-3.929-2.469-6.133-3.214
				c-1.732-0.585-4.188-0.069-5.502,1.219C81.512,160.058,81.457,160.117,81.405,160.178z"/>
			<path style="opacity:0.2;" d="M95.945,170.697c1.025-1.771,1.381-3.68,1.145-5.316c-0.164,0.835-0.434,1.645-0.858,2.383
				c-0.926,1.61-2.562,2.853-4.407,3.073c-2.237,0.267-3.962-0.923-5.875-1.83c-1.653-0.784-3.245-1.61-4.522-2.985
				c-1.364-1.468-2.197-3.587-1.638-5.505c-0.121,0.168-0.238,0.339-0.346,0.519c-2.009,3.376-0.901,7.741,2.475,9.751l5.904,3.429
				C90.341,175.673,93.977,174.097,95.945,170.697z"/>
		</g>
		<g id="XMLID_00000176754185675102210700000014932656965088754875_">
			<path id="XMLID_00000087397564391487726370000011100053630237754293_" style="fill:#3CA3F4;" d="M249.94,92.104l6.788-11.777
				c1.917-3.435,6.255-4.665,9.689-2.748c3.435,1.917,4.665,6.255,2.748,9.689l-6.874,11.928c-1.451,2.526-5.391,2.985-8.802,1.027
				C250.079,98.264,248.49,94.629,249.94,92.104z"/>
			<path style="opacity:0.2;fill:#FFFFFF;" d="M264.21,79.42c0.109,0.37,0.362,0.679,0.628,0.958c0.565,0.593,1.213,1.1,1.779,1.692
				c0.616,0.644,0.975,1.282,1.29,2.106c0.101,0.264,0.411,0.695,0.761,0.568c0.14-0.051,0.214-0.201,0.261-0.342
				c0.362-1.076-0.019-2.257-0.524-3.274c-0.507-1.02-1.19-2.02-2.174-2.63c-0.43-0.267-0.823-0.474-1.338-0.342
				C264.308,78.305,264.04,78.844,264.21,79.42z"/>
			<path style="opacity:0.2;" d="M267.863,88.565c-0.496-0.665-1.063-1.276-1.689-1.821c-0.375-0.327-0.77-0.629-1.174-0.92
				c-0.99-0.715-2.031-1.367-2.953-2.167c-1.315-1.141-2.07-2.853-1.293-4.557c0.424-0.931,1.183-1.438,2.123-1.729
				c0.838-0.259,1.727-0.321,2.598-0.223c-3.251-1.24-7.002,0.051-8.747,3.179l-2.488,4.316c0.107,0.3,0.245,0.58,0.452,0.761
				c1.104,0.963,2.4,1.792,3.605,2.628c2.046,1.42,4.087,2.92,6.443,3.727c0.392,0.134,0.833,0.192,1.211,0.356
				c0.13,0.056,0.229,0.116,0.331,0.155l1.861-3.229C268.069,88.88,267.98,88.721,267.863,88.565z"/>
			<path id="XMLID_00000068670185386554673850000010699933750061029022_" style="fill:#455A64;" d="M276.719,139.566
				c10.952-18.996,4.431-43.273-14.564-54.225c-18.996-10.952-43.273-4.431-54.225,14.564L276.719,139.566z"/>
			<path style="opacity:0.1;fill:#FFFFFF;" d="M251.825,95.689c-0.211,1.911,0.832,3.73,1.995,5.261
				c2.764,3.638,6.379,6.524,9.562,9.801c3.975,4.093,7.289,8.826,9.776,13.96c0.479,0.988,1.181,2.154,2.277,2.097
				c1.142-0.06,1.706-1.396,1.946-2.514c1.434-6.693,0.621-13.847-2.278-20.047c-2.335-4.996-6.321-10.869-11.49-13.137
				C256.247,87.878,252.356,90.868,251.825,95.689z"/>
			<path id="XMLID_00000152249090523009977570000011797965186795191718_" style="fill:#37474F;" d="M255.599,82.347
				c-15.549-0.215-21.885,5.724-25.474,14.73c-5.351,13.429,33.294,34.821,33.294,34.821L207.93,99.905
				C217.656,83.035,237.886,76.037,255.599,82.347z"/>
		</g>
	</g>
	<g id="Lines">
		<path style="fill:#E0E0E0;" d="M65.689,212.483c-0.122-0.276-0.246-0.558-0.385-0.846c-0.246-0.509-0.504-1.012-0.763-1.514
			c-0.189-0.37-0.38-0.74-0.565-1.112c-0.901-1.814-1.649-3.602-2.222-5.311c-0.589-1.758-1.042-3.554-1.346-5.338
			c-0.13-0.758-0.218-1.54-0.302-2.295l-0.04-0.358c-0.028-0.247-0.047-0.502-0.066-0.76c-0.051-0.674-0.104-1.371-0.306-2.02
			c-0.164-0.528-0.815-0.876-1.276-0.831c-0.446,0.01-0.792,0.276-0.901,0.694c-0.511,1.95-0.133,4.282,0.171,6.156l0.031,0.188
			c0.322,1.992,0.824,3.962,1.492,5.856c0.657,1.866,1.43,3.551,2.364,5.151c0.516,0.881,1.038,1.646,1.595,2.336
			c0.459,0.57,0.997,1.094,1.518,1.6c0.324,0.316,0.647,0.63,0.949,0.953c0.132,0.143,0.288,0.201,0.437,0.201
			c0.129,0,0.252-0.045,0.346-0.119c0.286-0.227,0.306-0.687,0.133-0.944C66.189,213.622,65.946,213.069,65.689,212.483z
			 M79.785,215.508L79.785,215.508c-0.365-1.151-0.99-2.24-1.596-3.294c-0.22-0.383-0.438-0.762-0.639-1.138
			c-0.607-1.133-1.315-2.48-1.964-3.868c-1.218-2.613-2.215-5.253-2.964-7.849c-1.611-5.581-1.921-11.39-2.1-16.862
			c-0.021-0.644-0.634-1.03-1.199-1.068c-0.597-0.039-1.056,0.29-1.144,0.817c-0.86,5.168-0.315,11.24,1.624,18.047
			c0.814,2.861,1.845,5.578,3.063,8.076c0.725,1.484,1.448,2.786,2.213,3.979c0.719,1.122,1.839,2.751,3.252,3.938
			c0.167,0.141,0.423,0.233,0.681,0.233c0.174,0,0.348-0.042,0.496-0.141C79.79,216.192,79.896,215.858,79.785,215.508z"/>
		<path style="fill:#E0E0E0;" d="M298.826,169.917c-0.189-1.59-0.385-3.026-0.596-4.392c-0.112-0.733-0.235-1.464-0.362-2.196
			c-0.101-0.577-0.26-1.131-0.413-1.667l-0.167-0.595c-0.134-0.493-0.712-0.758-1.139-0.683c-0.398,0.066-0.656,0.401-0.628,0.815
			c0.124,1.784,0.35,3.58,0.567,5.316c0.122,0.972,0.244,1.945,0.35,2.92c0.275,2.544,0.501,5.155,0.669,7.761
			c0.329,5.087,0.401,10.267,0.212,15.396c-0.375,10.184-1.753,20.39-4.093,30.336c-0.849,3.604-1.914,7.216-2.944,10.709
			c-0.613,2.082-1.228,4.164-1.803,6.26c-0.117,0.431,0.19,0.872,0.537,0.998c0.077,0.027,0.155,0.041,0.23,0.041
			c0.25,0,0.477-0.146,0.594-0.401c2.373-5.144,3.931-10.622,5.143-15.303c1.309-5.057,2.368-10.253,3.147-15.443
			c1.53-10.183,2.017-20.668,1.446-31.164C299.414,175.633,299.161,172.703,298.826,169.917z M310.279,185.912
			c-0.037-1.897-0.103-3.77-0.196-5.565c-0.016-0.316-0.029-0.635-0.042-0.956c-0.065-1.587-0.133-3.227-0.59-4.767
			c-0.138-0.465-0.675-0.716-1.093-0.678c-0.396,0.033-0.681,0.304-0.727,0.689c-0.165,1.367-0.086,2.754-0.009,4.096
			c0.02,0.339,0.039,0.678,0.055,1.015c0.076,1.696,0.135,3.394,0.179,5.091c0.087,3.339,0.08,6.678-0.02,9.924
			c-0.218,7.088-0.875,13.892-1.953,20.221c-0.369,2.169-0.854,4.355-1.322,6.47c-0.352,1.591-0.717,3.235-1.031,4.867
			c-0.085,0.444,0.294,0.904,0.689,1.02c0.069,0.02,0.138,0.029,0.204,0.029c0.272,0,0.511-0.16,0.619-0.433
			c1.313-3.319,2.072-6.845,2.798-10.466c0.641-3.201,1.171-6.57,1.576-10.016C310.144,200.23,310.426,193.511,310.279,185.912z"/>
		<path style="fill:#E0E0E0;" d="M293.825,110.175c-0.287-2.127-0.741-4.259-1.35-6.334c-1.186-4.05-3.032-7.949-5.485-11.591
			c-1.15-1.706-2.74-3.892-4.849-5.664c-0.47-0.395-1.123-0.282-1.48,0.059c-0.363,0.344-0.398,0.854-0.086,1.269
			c0.482,0.638,0.976,1.265,1.471,1.892c0.836,1.058,1.7,2.154,2.473,3.279c1.106,1.611,2.13,3.356,3.041,5.186
			c1.899,3.817,3.227,7.821,3.944,11.902c0.171,0.977,0.328,2.044,0.48,3.264c0.043,0.344,0.076,0.69,0.11,1.035
			c0.074,0.749,0.15,1.525,0.316,2.289c0.081,0.37,0.481,0.697,0.857,0.7c0.002,0,0.003,0,0.005,0c0.317,0,0.571-0.21,0.647-0.538
			c0.271-1.178,0.225-2.429,0.188-3.435C294.065,112.354,293.973,111.271,293.825,110.175z M301.054,101.787
			c-0.325-1.672-0.858-3.437-1.586-5.247c-0.692-1.721-1.513-3.342-2.439-4.82c-0.465-0.742-0.971-1.475-1.502-2.176l-0.146-0.192
			c-0.535-0.709-1.142-1.514-1.931-2.051c-0.397-0.271-0.939-0.249-1.289,0.052c-0.315,0.27-0.397,0.701-0.208,1.099
			c0.275,0.58,0.687,1.084,1.084,1.571c0.18,0.22,0.358,0.438,0.518,0.659c0.511,0.704,0.999,1.44,1.45,2.19
			c0.905,1.502,1.675,3.05,2.287,4.602c0.574,1.453,1.055,3.041,1.47,4.856c0.162,0.708,0.29,1.424,0.419,2.141
			c0.188,1.042,0.381,2.121,0.677,3.164c0.098,0.344,0.418,0.604,0.745,0.604c0.001,0,0.001,0,0.002,0
			c0.293,0,0.54-0.198,0.629-0.504C301.774,105.88,301.424,103.692,301.054,101.787z"/>
	</g>
</g>
<g id="Speech_Bubble">
	<g id="Speech_Bubble_6_">
		<g id="Speech_Bubble_8_">
			<path id="XMLID_1322_" style="fill:#3CA3F4;" d="M403.871,40.335l-63.995,37.068c-0.665,0.384-1.205,1.318-1.205,3.124v65.256
				c0,0.803,0.543,1.711,1.212,2.089l4.793,2.725c0.669,0.378,1.751,0.372,2.417-0.012l63.996-37.068
				c0.665-0.384,1.205-1.318,1.205-2.087V45.123c0-0.768-0.543-1.697-1.212-2.075l-4.793-2.725
				C405.618,39.945,404.537,39.95,403.871,40.335z"/>
			<path id="XMLID_1321_" style="opacity:0.15;" d="M347.092,150.585c-0.641,0.372-1.813,0.385-2.418,0.014l-4.79-2.73
				c-0.668-0.373-1.213-1.257-1.213-2.087V80.526c0-1.438,0.28-1.907,0.423-2.245l7.15,4.115c-0.139,0.265-0.36,0.602-0.356,1.186
				v66.307C345.887,150.609,346.383,150.996,347.092,150.585z"/>
			<g>
				<path id="XMLID_1319_" style="fill:#3CA3F4;" d="M335.369,110.081c-0.757-0.451-6.527-3.702-6.71-3.808
					c-0.556-0.34-0.757-1.163-0.239-1.72l10.251-11.753l7.216,4.138l-10.722,11.453
					C334.663,108.926,334.862,109.714,335.369,110.081z"/>
				<path style="fill:#3CA3F4;" d="M411.087,44.427l-63.996,37.068c-0.665,0.384-1.205,1.318-1.205,2.087v13.359l-10.725,11.449
					c-0.694,0.745-0.185,1.767,0.689,1.847l10.036-0.733l0,0v40.385c0,0.768,0.54,1.08,1.205,0.695l63.996-37.068
					c0.666-0.384,1.205-1.318,1.205-2.087V45.123C412.292,44.355,411.753,44.043,411.087,44.427z"/>
				<path style="opacity:0.35;fill:#FFFFFF;" d="M411.087,44.427l-63.996,37.068c-0.665,0.384-1.205,1.318-1.205,2.087v13.359
					l-10.725,11.449c-0.694,0.745-0.185,1.767,0.689,1.847l10.036-0.733l0,0v40.385c0,0.768,0.54,1.08,1.205,0.695l63.996-37.068
					c0.666-0.384,1.205-1.318,1.205-2.087V45.123C412.292,44.355,411.753,44.043,411.087,44.427z"/>
			</g>
		</g>
		<g id="Wake_Up">
			<path style="fill:#FFFFFF;" d="M359.711,92.435l-1.8,9.389c-0.07,0.32-0.157,0.598-0.262,0.837
				c-0.104,0.236-0.261,0.415-0.47,0.536l-1.698,0.98c-0.21,0.121-0.373,0.127-0.491,0.019c-0.119-0.108-0.199-0.29-0.242-0.545
				l-2.681-16.073c-0.014-0.085-0.02-0.155-0.02-0.212c0-0.204,0.056-0.413,0.167-0.627c0.113-0.214,0.245-0.364,0.399-0.453
				l1.549-0.895c0.14-0.081,0.273-0.102,0.399-0.063c0.125,0.041,0.21,0.187,0.251,0.442l1.759,10.826l1.551-8.352
				c0.027-0.146,0.094-0.352,0.198-0.618c0.106-0.265,0.283-0.47,0.535-0.616l1.716-0.991c0.252-0.146,0.429-0.146,0.535-0.002
				c0.104,0.146,0.17,0.274,0.198,0.389l1.551,6.561l1.759-12.857c0.041-0.302,0.126-0.547,0.251-0.731
				c0.126-0.184,0.259-0.317,0.399-0.397l1.549-0.895c0.153-0.089,0.286-0.091,0.399-0.007c0.111,0.086,0.167,0.23,0.167,0.434
				c0,0.057-0.007,0.135-0.021,0.236l-2.681,19.169c-0.043,0.304-0.123,0.579-0.242,0.825c-0.118,0.244-0.281,0.427-0.491,0.548
				l-1.698,0.98c-0.21,0.121-0.366,0.123-0.47,0.007c-0.106-0.116-0.193-0.294-0.263-0.534L359.711,92.435z"/>
			<path style="fill:#FFFFFF;" d="M375.839,72.875c0.223-0.129,0.39-0.146,0.503-0.053c0.112,0.093,0.21,0.274,0.293,0.542
				l5.132,14.686c0.014,0.049,0.02,0.11,0.02,0.184c0,0.206-0.056,0.414-0.167,0.627c-0.112,0.215-0.246,0.366-0.399,0.454
				l-1.508,0.871c-0.278,0.16-0.474,0.194-0.586,0.101c-0.111-0.094-0.188-0.203-0.23-0.327l-0.9-2.58l-6.618,3.821l-0.902,3.62
				c-0.041,0.173-0.118,0.37-0.23,0.593c-0.111,0.222-0.307,0.415-0.586,0.576l-1.507,0.87c-0.155,0.09-0.286,0.091-0.399,0.006
				c-0.112-0.084-0.167-0.229-0.167-0.434c0-0.074,0.007-0.142,0.021-0.207l5.132-20.612c0.083-0.364,0.181-0.658,0.293-0.881
				c0.111-0.222,0.278-0.398,0.503-0.528L375.839,72.875z M376.991,84.469l-2.304-6.628l-2.303,9.288L376.991,84.469z"/>
			<path style="fill:#FFFFFF;" d="M394.815,80.295c0.07,0.053,0.112,0.112,0.126,0.178c0.014,0.067,0.02,0.119,0.02,0.155
				c0,0.206-0.055,0.413-0.167,0.627c-0.113,0.215-0.244,0.365-0.397,0.453l-1.991,1.149c-0.28,0.161-0.503,0.193-0.67,0.094
				c-0.167-0.099-0.266-0.158-0.293-0.18l-4.923-4.559v7.288c0,0.206-0.055,0.413-0.167,0.627c-0.113,0.215-0.244,0.365-0.397,0.453
				l-1.698,0.98c-0.153,0.089-0.286,0.091-0.397,0.005c-0.112-0.084-0.169-0.228-0.169-0.433v-18.04
				c0-0.205,0.056-0.413,0.169-0.628c0.111-0.213,0.244-0.363,0.397-0.452l1.698-0.98c0.153-0.089,0.285-0.09,0.397-0.007
				c0.112,0.085,0.167,0.23,0.167,0.434v6.563l4.566-9.339c0.126-0.258,0.259-0.484,0.399-0.677c0.138-0.191,0.32-0.352,0.544-0.481
				l1.928-1.113c0.153-0.089,0.285-0.09,0.397-0.007c0.112,0.085,0.167,0.23,0.167,0.434c0,0.15-0.041,0.313-0.124,0.491
				l-5.635,11.436L394.815,80.295z"/>
			<path style="fill:#FFFFFF;" d="M406.606,71.169c0.153-0.089,0.285-0.089,0.397-0.005c0.113,0.084,0.167,0.229,0.167,0.434v1.982
				c0,0.206-0.055,0.413-0.167,0.627c-0.112,0.215-0.244,0.365-0.397,0.453l-9.195,5.309c-0.153,0.089-0.286,0.091-0.397,0.005
				c-0.113-0.084-0.169-0.228-0.169-0.433v-18.04c0-0.205,0.056-0.413,0.169-0.628c0.111-0.213,0.244-0.363,0.397-0.452l9.027-5.212
				c0.153-0.088,0.286-0.091,0.399-0.007c0.111,0.086,0.167,0.23,0.167,0.434v1.983c0,0.206-0.056,0.414-0.167,0.627
				c-0.112,0.215-0.245,0.366-0.399,0.454l-6.765,3.906v4.44l6.305-3.64c0.153-0.089,0.286-0.09,0.399-0.006
				c0.111,0.085,0.167,0.23,0.167,0.434v1.983c0,0.205-0.056,0.414-0.167,0.627c-0.112,0.214-0.245,0.364-0.399,0.453l-6.305,3.64
				v4.636L406.606,71.169z"/>
			<path style="fill:#FFFFFF;" d="M372.411,99.516c0.24-0.139,0.447-0.141,0.623-0.01c0.175,0.132,0.262,0.359,0.262,0.679v17.883
				c0,2.07-0.262,4.007-0.787,5.81c-0.524,1.805-1.252,3.471-2.18,4.997c-0.93,1.528-2.044,2.901-3.345,4.118
				c-1.301,1.217-2.727,2.274-4.28,3.17c-1.574,0.909-3.017,1.508-4.329,1.8c-1.311,0.291-2.432,0.209-3.361-0.246
				c-0.93-0.454-1.656-1.28-2.181-2.479c-0.525-1.197-0.787-2.831-0.787-4.901v-17.883c0-0.32,0.087-0.647,0.262-0.982
				c0.175-0.334,0.383-0.571,0.624-0.71l6.427-3.711c0.24-0.139,0.447-0.141,0.623-0.01c0.175,0.132,0.262,0.359,0.262,0.679v17.708
				c0,2.245,0.809,2.9,2.427,1.966c1.618-0.934,2.427-2.523,2.427-4.768v-17.708c0-0.32,0.087-0.647,0.262-0.982
				c0.175-0.334,0.383-0.571,0.624-0.71L372.411,99.516z"/>
			<path style="fill:#FFFFFF;" d="M387.528,90.788c1.486-0.858,2.836-1.418,4.049-1.682c1.213-0.263,2.252-0.199,3.115,0.191
				c0.864,0.391,1.53,1.121,2.001,2.19c0.47,1.07,0.705,2.508,0.705,4.315c0,1.808-0.236,3.503-0.705,5.086
				c-0.47,1.583-1.137,3.047-2.001,4.391c-0.864,1.344-1.902,2.562-3.115,3.657c-1.213,1.094-2.563,2.07-4.049,2.928l-2.296,1.326
				v8.351c0,0.321-0.087,0.648-0.262,0.982c-0.175,0.335-0.383,0.571-0.623,0.709l-6.755,3.9c-0.241,0.139-0.448,0.143-0.624,0.01
				c-0.175-0.132-0.261-0.358-0.261-0.68V98.217c0-0.32,0.086-0.647,0.261-0.982c0.175-0.334,0.383-0.571,0.624-0.71L387.528,90.788
				z M385.068,105.195l2.295-1.325c0.35-0.202,0.688-0.58,1.017-1.134c0.328-0.554,0.492-1.253,0.492-2.099
				c0-0.553-0.104-1.047-0.311-1.481c-0.208-0.433-0.607-0.481-1.197-0.14l-2.295,1.325V105.195z"/>
			<path style="fill:#FFFFFF;" d="M406.285,79.959c0.24-0.139,0.447-0.142,0.623-0.01c0.175,0.132,0.262,0.359,0.262,0.679v16.527
				c0,0.321-0.087,0.648-0.262,0.982c-0.175,0.335-0.383,0.571-0.623,0.709l-5.707,3.295c-0.24,0.139-0.448,0.143-0.623,0.01
				c-0.175-0.132-0.262-0.358-0.262-0.679V84.945c0-0.32,0.087-0.648,0.262-0.982c0.174-0.334,0.382-0.571,0.623-0.709
				L406.285,79.959z M406.285,100.597c0.24-0.139,0.447-0.142,0.623-0.01c0.175,0.132,0.262,0.359,0.262,0.679v7.608
				c0,0.321-0.087,0.648-0.262,0.982c-0.175,0.335-0.383,0.571-0.623,0.709l-5.707,3.295c-0.24,0.139-0.448,0.143-0.623,0.01
				c-0.175-0.132-0.262-0.358-0.262-0.679v-7.607c0-0.321,0.087-0.647,0.262-0.982c0.174-0.334,0.382-0.571,0.623-0.709
				L406.285,100.597z"/>
		</g>
	</g>
</g>
</svg>
