<?xml version="1.0" encoding="utf-8"?>
<!-- Uploaded to: SVG Repo, www.svgrepo.com, Generator: SVG Repo Mixer Tools -->
<svg fill="#ffffff" version="1.1" id="Layer_1" xmlns="http://www.w3.org/2000/svg" xmlns:xlink="http://www.w3.org/1999/xlink" 
	 width="800px" height="800px" viewBox="0 0 260 260" enable-background="new 0 0 260 260" xml:space="preserve">
<path d="M164.58,64H95.42C78.1,64,64,78.1,64,95.42v69.16C64,181.9,78.1,196,95.42,196h69.16c17.32,0,31.42-14.1,31.42-31.42V95.42
	C196,78.1,181.9,64,164.58,64z M130,171.1c-22.66,0-41.1-18.44-41.1-41.1s18.44-41.1,41.1-41.1s41.1,18.44,41.1,41.1
	S152.66,171.1,130,171.1z M172.22,97.3c-5.3,0-9.6-4.3-9.6-9.61c0-5.3,4.3-9.6,9.6-9.6c5.31,0,9.61,4.3,9.61,9.6
	C181.83,93,177.53,97.3,172.22,97.3z M130,102.9c-14.94,0-27.1,12.16-27.1,27.1s12.16,27.1,27.1,27.1s27.1-12.16,27.1-27.1
	S144.94,102.9,130,102.9z M130,2C59.31,2,2,59.31,2,130s57.31,128,128,128s128-57.31,128-128S200.69,2,130,2z M210,164.58
	c0,25.04-20.38,45.42-45.42,45.42H95.42C70.38,210,50,189.62,50,164.58V95.42C50,70.38,70.38,50,95.42,50h69.16
	C189.62,50,210,70.38,210,95.42V164.58z"/>
</svg>