<svg xmlns="http://www.w3.org/2000/svg" viewBox="0 0 500 500"><g id="freepik--background-complete--inject-20"><rect y="382.4" width="500" height="0.25" style="fill:#ebebeb"></rect><rect x="416.78" y="398.49" width="33.12" height="0.25" style="fill:#ebebeb"></rect><rect x="322.53" y="401.21" width="8.69" height="0.25" style="fill:#ebebeb"></rect><rect x="396.59" y="389.21" width="19.19" height="0.25" style="fill:#ebebeb"></rect><rect x="52.46" y="390.89" width="43.19" height="0.25" style="fill:#ebebeb"></rect><rect x="104.56" y="390.89" width="6.33" height="0.25" style="fill:#ebebeb"></rect><rect x="131.47" y="395.11" width="93.68" height="0.25" style="fill:#ebebeb"></rect><path d="M237,337.8H43.91a5.71,5.71,0,0,1-5.7-5.71V60.66A5.71,5.71,0,0,1,43.91,55H237a5.71,5.71,0,0,1,5.71,5.71V332.09A5.71,5.71,0,0,1,237,337.8ZM43.91,55.2a5.46,5.46,0,0,0-5.45,5.46V332.09a5.46,5.46,0,0,0,5.45,5.46H237a5.47,5.47,0,0,0,5.46-5.46V60.66A5.47,5.47,0,0,0,237,55.2Z" style="fill:#ebebeb"></path><path d="M453.31,337.8H260.21a5.72,5.72,0,0,1-5.71-5.71V60.66A5.72,5.72,0,0,1,260.21,55h193.1A5.71,5.71,0,0,1,459,60.66V332.09A5.71,5.71,0,0,1,453.31,337.8ZM260.21,55.2a5.47,5.47,0,0,0-5.46,5.46V332.09a5.47,5.47,0,0,0,5.46,5.46h193.1a5.47,5.47,0,0,0,5.46-5.46V60.66a5.47,5.47,0,0,0-5.46-5.46Z" style="fill:#ebebeb"></path><rect x="66.58" y="66.37" width="366.84" height="266.47" style="fill:#f5f5f5"></rect><rect x="71" y="71.36" width="357" height="256" style="fill:#fafafa"></rect><polygon points="71 265.36 71 327.36 428 327.36 428 257.36 418 257.36 418 236.36 412 236.36 412 222.36 404 222.36 404 201.36 402 201.36 402 222.36 394 222.36 394 236.36 388 236.36 388 257.36 377 257.36 377 263.36 372 263.36 372 286.36 371 286.36 371 253.36 368 253.36 368 274.36 365 274.36 365 224.36 363 224.36 363 245.36 355 245.36 355 238.36 352 238.36 352 209.36 350.22 209.36 350.22 209.36 346 209.36 346 180.36 344 180.36 344 184.36 303 184.36 303 172.36 296 172.36 296 126.36 293 126.36 293 172.36 283 172.36 283 184.36 279 184.36 279 244.36 258 244.36 258 226.36 265 226.36 265 223.36 258 223.36 258 218.36 238 218.36 238 172.36 233 172.36 233 165.36 209 165.36 209 172.36 206 172.36 206 236.36 195 236.36 195 265.36 189 265.36 189 242.36 184 242.36 184 236.36 173 236.36 173 215.36 167 215.36 167 201.36 160 201.36 160 180.36 157 180.36 157 201.36 150 201.36 150 215.36 144 215.36 144 236.36 133 236.36 133 242.36 128 242.36 128 265.36 121 265.36 121 204.36 118 204.36 118 225.36 109 225.36 109 265.36 105 265.36 105 188.36 102 188.36 102 159.36 99 159.36 99 169.77 81 178.19 81 188.36 73 188.36 73 265.36 71 265.36" style="fill:#f0f0f0"></polygon><rect x="318.31" y="187.49" width="2.83" height="2.83" style="fill:#f5f5f5"></rect><rect x="318.31" y="192.24" width="2.83" height="2.83" style="fill:#f5f5f5"></rect><rect x="318.31" y="211.24" width="2.83" height="2.83" style="fill:#f5f5f5"></rect><rect x="318.31" y="215.99" width="2.83" height="2.83" style="fill:#f5f5f5"></rect><rect x="318.31" y="220.74" width="2.83" height="2.83" style="fill:#f5f5f5"></rect><rect x="318.31" y="234.99" width="2.83" height="2.83" style="fill:#f5f5f5"></rect><rect x="318.31" y="239.74" width="2.83" height="2.83" style="fill:#f5f5f5"></rect><rect x="313.81" y="206.49" width="2.83" height="2.83" style="fill:#f5f5f5"></rect><rect x="313.81" y="211.24" width="2.83" height="2.83" style="fill:#f5f5f5"></rect><rect x="313.81" y="215.99" width="2.83" height="2.83" style="fill:#f5f5f5"></rect><rect x="313.81" y="220.74" width="2.83" height="2.83" style="fill:#f5f5f5"></rect><rect x="313.81" y="225.49" width="2.83" height="2.83" style="fill:#f5f5f5"></rect><rect x="313.81" y="234.99" width="2.83" height="2.83" style="fill:#f5f5f5"></rect><rect x="313.81" y="239.74" width="2.83" height="2.83" style="fill:#f5f5f5"></rect><rect x="309.31" y="187.49" width="2.83" height="2.83" style="fill:#f5f5f5"></rect><rect x="309.31" y="192.24" width="2.83" height="2.83" style="fill:#f5f5f5"></rect><rect x="309.31" y="196.99" width="2.83" height="2.83" style="fill:#f5f5f5"></rect><rect x="309.31" y="201.74" width="2.83" height="2.83" style="fill:#f5f5f5"></rect><rect x="309.31" y="206.49" width="2.83" height="2.83" style="fill:#f5f5f5"></rect><rect x="309.31" y="211.24" width="2.83" height="2.83" style="fill:#f5f5f5"></rect><rect x="309.31" y="215.99" width="2.83" height="2.83" style="fill:#f5f5f5"></rect><rect x="309.31" y="220.74" width="2.83" height="2.83" style="fill:#f5f5f5"></rect><rect x="309.31" y="225.49" width="2.83" height="2.83" style="fill:#f5f5f5"></rect><rect x="309.31" y="230.24" width="2.83" height="2.83" style="fill:#f5f5f5"></rect><rect x="309.31" y="239.74" width="2.83" height="2.83" style="fill:#f5f5f5"></rect><rect x="304.81" y="187.49" width="2.83" height="2.83" style="fill:#f5f5f5"></rect><rect x="304.81" y="192.24" width="2.83" height="2.83" style="fill:#f5f5f5"></rect><rect x="304.81" y="196.99" width="2.83" height="2.83" style="fill:#f5f5f5"></rect><rect x="304.81" y="201.74" width="2.83" height="2.83" style="fill:#f5f5f5"></rect><rect x="304.81" y="206.49" width="2.83" height="2.83" style="fill:#f5f5f5"></rect><rect x="304.81" y="211.24" width="2.83" height="2.83" style="fill:#f5f5f5"></rect><rect x="304.81" y="215.99" width="2.83" height="2.83" style="fill:#f5f5f5"></rect><rect x="304.81" y="258.74" width="2.83" height="2.83" style="fill:#f5f5f5"></rect><rect x="300.31" y="187.49" width="2.83" height="2.83" style="fill:#f5f5f5"></rect><rect x="300.31" y="192.24" width="2.83" height="2.83" style="fill:#f5f5f5"></rect><rect x="300.31" y="196.99" width="2.83" height="2.83" style="fill:#f5f5f5"></rect><rect x="300.31" y="201.74" width="2.83" height="2.83" style="fill:#f5f5f5"></rect><rect x="300.31" y="206.49" width="2.83" height="2.83" style="fill:#f5f5f5"></rect><rect x="300.31" y="211.24" width="2.83" height="2.83" style="fill:#f5f5f5"></rect><rect x="300.31" y="215.99" width="2.83" height="2.83" style="fill:#f5f5f5"></rect><rect x="300.31" y="220.74" width="2.83" height="2.83" style="fill:#f5f5f5"></rect><rect x="300.31" y="249.24" width="2.83" height="2.83" style="fill:#f5f5f5"></rect><rect x="300.31" y="253.99" width="2.83" height="2.83" style="fill:#f5f5f5"></rect><rect x="300.31" y="258.74" width="2.83" height="2.83" style="fill:#f5f5f5"></rect><rect x="300.31" y="263.49" width="2.83" height="2.83" style="fill:#f5f5f5"></rect><rect x="300.31" y="282.49" width="2.83" height="2.83" style="fill:#f5f5f5"></rect><rect x="295.81" y="187.49" width="2.83" height="2.83" style="fill:#f5f5f5"></rect><rect x="295.81" y="192.24" width="2.83" height="2.83" style="fill:#f5f5f5"></rect><rect x="295.81" y="196.99" width="2.83" height="2.83" style="fill:#f5f5f5"></rect><rect x="295.81" y="201.74" width="2.83" height="2.83" style="fill:#f5f5f5"></rect><rect x="295.81" y="206.49" width="2.83" height="2.83" style="fill:#f5f5f5"></rect><rect x="295.81" y="211.24" width="2.83" height="2.83" style="fill:#f5f5f5"></rect><rect x="295.81" y="215.99" width="2.83" height="2.83" style="fill:#f5f5f5"></rect><rect x="295.81" y="220.74" width="2.83" height="2.83" style="fill:#f5f5f5"></rect><rect x="295.81" y="225.49" width="2.83" height="2.83" style="fill:#f5f5f5"></rect><rect x="295.81" y="230.24" width="2.83" height="2.83" style="fill:#f5f5f5"></rect><rect x="295.81" y="244.49" width="2.83" height="2.83" style="fill:#f5f5f5"></rect><rect x="295.81" y="249.24" width="2.83" height="2.83" style="fill:#f5f5f5"></rect><rect x="295.81" y="253.99" width="2.83" height="2.83" style="fill:#f5f5f5"></rect><rect x="295.81" y="258.74" width="2.83" height="2.83" style="fill:#f5f5f5"></rect><rect x="295.81" y="263.49" width="2.83" height="2.83" style="fill:#f5f5f5"></rect><rect x="295.81" y="282.49" width="2.83" height="2.83" style="fill:#f5f5f5"></rect><rect x="291.31" y="187.49" width="2.83" height="2.83" style="fill:#f5f5f5"></rect><rect x="291.31" y="192.24" width="2.83" height="2.83" style="fill:#f5f5f5"></rect><rect x="291.31" y="196.99" width="2.83" height="2.83" style="fill:#f5f5f5"></rect><rect x="291.31" y="201.74" width="2.83" height="2.83" style="fill:#f5f5f5"></rect><rect x="291.31" y="206.49" width="2.83" height="2.83" style="fill:#f5f5f5"></rect><rect x="291.31" y="211.24" width="2.83" height="2.83" style="fill:#f5f5f5"></rect><rect x="291.31" y="215.99" width="2.83" height="2.83" style="fill:#f5f5f5"></rect><rect x="291.31" y="220.74" width="2.83" height="2.83" style="fill:#f5f5f5"></rect><rect x="291.31" y="225.49" width="2.83" height="2.83" style="fill:#f5f5f5"></rect><rect x="291.31" y="230.24" width="2.83" height="2.83" style="fill:#f5f5f5"></rect><rect x="291.31" y="234.99" width="2.83" height="2.83" style="fill:#f5f5f5"></rect><rect x="291.31" y="239.74" width="2.83" height="2.83" style="fill:#f5f5f5"></rect><rect x="291.31" y="244.49" width="2.83" height="2.83" style="fill:#f5f5f5"></rect><rect x="291.31" y="249.24" width="2.83" height="2.83" style="fill:#f5f5f5"></rect><rect x="291.31" y="253.99" width="2.83" height="2.83" style="fill:#f5f5f5"></rect><rect x="291.31" y="258.74" width="2.83" height="2.83" style="fill:#f5f5f5"></rect><rect x="291.31" y="263.49" width="2.83" height="2.83" style="fill:#f5f5f5"></rect><rect x="291.31" y="268.24" width="2.83" height="2.83" style="fill:#f5f5f5"></rect><rect x="286.81" y="187.49" width="2.83" height="2.83" style="fill:#f5f5f5"></rect><rect x="286.81" y="192.24" width="2.83" height="2.83" style="fill:#f5f5f5"></rect><rect x="286.81" y="196.99" width="2.83" height="2.83" style="fill:#f5f5f5"></rect><rect x="286.81" y="201.74" width="2.83" height="2.83" style="fill:#f5f5f5"></rect><rect x="286.81" y="206.49" width="2.83" height="2.83" style="fill:#f5f5f5"></rect><rect x="286.81" y="211.24" width="2.83" height="2.83" style="fill:#f5f5f5"></rect><rect x="286.81" y="215.99" width="2.83" height="2.83" style="fill:#f5f5f5"></rect><rect x="286.81" y="220.74" width="2.83" height="2.83" style="fill:#f5f5f5"></rect><rect x="286.81" y="225.49" width="2.83" height="2.83" style="fill:#f5f5f5"></rect><rect x="286.81" y="230.24" width="2.83" height="2.83" style="fill:#f5f5f5"></rect><rect x="286.81" y="244.49" width="2.83" height="2.83" style="fill:#f5f5f5"></rect><rect x="286.81" y="249.24" width="2.83" height="2.83" style="fill:#f5f5f5"></rect><rect x="286.81" y="253.99" width="2.83" height="2.83" style="fill:#f5f5f5"></rect><rect x="286.81" y="258.74" width="2.83" height="2.83" style="fill:#f5f5f5"></rect><rect x="282.31" y="187.49" width="2.83" height="2.83" style="fill:#f5f5f5"></rect><rect x="282.31" y="192.24" width="2.83" height="2.83" style="fill:#f5f5f5"></rect><rect x="282.31" y="196.99" width="2.83" height="2.83" style="fill:#f5f5f5"></rect><rect x="282.31" y="201.74" width="2.83" height="2.83" style="fill:#f5f5f5"></rect><rect x="282.31" y="206.49" width="2.83" height="2.83" style="fill:#f5f5f5"></rect><rect x="282.31" y="211.24" width="2.83" height="2.83" style="fill:#f5f5f5"></rect><rect x="282.31" y="215.99" width="2.83" height="2.83" style="fill:#f5f5f5"></rect><rect x="282.31" y="220.74" width="2.83" height="2.83" style="fill:#f5f5f5"></rect><rect x="282.31" y="225.49" width="2.83" height="2.83" style="fill:#f5f5f5"></rect><rect x="282.31" y="230.24" width="2.83" height="2.83" style="fill:#f5f5f5"></rect><rect x="282.31" y="244.49" width="2.83" height="2.83" style="fill:#f5f5f5"></rect><rect x="282.31" y="249.24" width="2.83" height="2.83" style="fill:#f5f5f5"></rect><rect x="282.31" y="253.99" width="2.83" height="2.83" style="fill:#f5f5f5"></rect><rect x="231.65" y="175.16" width="2.83" height="2.83" style="fill:#f5f5f5"></rect><rect x="231.65" y="179.91" width="2.83" height="2.83" style="fill:#f5f5f5"></rect><rect x="231.65" y="184.66" width="2.83" height="2.83" style="fill:#f5f5f5"></rect><rect x="231.65" y="189.41" width="2.83" height="2.83" style="fill:#f5f5f5"></rect><rect x="231.65" y="194.16" width="2.83" height="2.83" style="fill:#f5f5f5"></rect><rect x="231.65" y="198.91" width="2.83" height="2.83" style="fill:#f5f5f5"></rect><rect x="231.65" y="203.66" width="2.83" height="2.83" style="fill:#f5f5f5"></rect><rect x="231.65" y="208.41" width="2.83" height="2.83" style="fill:#f5f5f5"></rect><rect x="231.65" y="222.66" width="2.83" height="2.83" style="fill:#f5f5f5"></rect><rect x="231.65" y="227.41" width="2.83" height="2.83" style="fill:#f5f5f5"></rect><rect x="227.15" y="175.16" width="2.83" height="2.83" style="fill:#f5f5f5"></rect><rect x="227.15" y="179.91" width="2.83" height="2.83" style="fill:#f5f5f5"></rect><rect x="227.15" y="184.66" width="2.83" height="2.83" style="fill:#f5f5f5"></rect><rect x="227.15" y="189.41" width="2.83" height="2.83" style="fill:#f5f5f5"></rect><rect x="227.15" y="194.16" width="2.83" height="2.83" style="fill:#f5f5f5"></rect><rect x="227.15" y="198.91" width="2.83" height="2.83" style="fill:#f5f5f5"></rect><rect x="227.15" y="203.66" width="2.83" height="2.83" style="fill:#f5f5f5"></rect><rect x="227.15" y="208.41" width="2.83" height="2.83" style="fill:#f5f5f5"></rect><rect x="227.15" y="227.41" width="2.83" height="2.83" style="fill:#f5f5f5"></rect><rect x="222.65" y="175.16" width="2.83" height="2.83" style="fill:#f5f5f5"></rect><rect x="222.65" y="179.91" width="2.83" height="2.83" style="fill:#f5f5f5"></rect><rect x="222.65" y="184.66" width="2.83" height="2.83" style="fill:#f5f5f5"></rect><rect x="222.65" y="189.41" width="2.83" height="2.83" style="fill:#f5f5f5"></rect><rect x="222.65" y="194.16" width="2.83" height="2.83" style="fill:#f5f5f5"></rect><rect x="222.65" y="198.91" width="2.83" height="2.83" style="fill:#f5f5f5"></rect><rect x="222.65" y="203.66" width="2.83" height="2.83" style="fill:#f5f5f5"></rect><rect x="222.65" y="208.41" width="2.83" height="2.83" style="fill:#f5f5f5"></rect><rect x="218.15" y="175.16" width="2.83" height="2.83" style="fill:#f5f5f5"></rect><rect x="218.15" y="179.91" width="2.83" height="2.83" style="fill:#f5f5f5"></rect><rect x="218.15" y="184.66" width="2.83" height="2.83" style="fill:#f5f5f5"></rect><rect x="218.15" y="189.41" width="2.83" height="2.83" style="fill:#f5f5f5"></rect><rect x="218.15" y="194.16" width="2.83" height="2.83" style="fill:#f5f5f5"></rect><rect x="218.15" y="198.91" width="2.83" height="2.83" style="fill:#f5f5f5"></rect><rect x="218.15" y="208.41" width="2.83" height="2.83" style="fill:#f5f5f5"></rect><rect x="218.15" y="213.16" width="2.83" height="2.83" style="fill:#f5f5f5"></rect><rect x="218.15" y="227.41" width="2.83" height="2.83" style="fill:#f5f5f5"></rect><rect x="218.15" y="232.16" width="2.83" height="2.83" style="fill:#f5f5f5"></rect><rect x="218.15" y="236.91" width="2.83" height="2.83" style="fill:#f5f5f5"></rect><rect x="218.15" y="241.66" width="2.83" height="2.83" style="fill:#f5f5f5"></rect><rect x="218.15" y="246.41" width="2.83" height="2.83" style="fill:#f5f5f5"></rect><rect x="218.15" y="251.16" width="2.83" height="2.83" style="fill:#f5f5f5"></rect><rect x="218.15" y="255.91" width="2.83" height="2.83" style="fill:#f5f5f5"></rect><rect x="213.65" y="175.16" width="2.83" height="2.83" style="fill:#f5f5f5"></rect><rect x="213.65" y="179.91" width="2.83" height="2.83" style="fill:#f5f5f5"></rect><rect x="213.65" y="184.66" width="2.83" height="2.83" style="fill:#f5f5f5"></rect><rect x="213.65" y="189.41" width="2.83" height="2.83" style="fill:#f5f5f5"></rect><rect x="213.65" y="194.16" width="2.83" height="2.83" style="fill:#f5f5f5"></rect><rect x="213.65" y="198.91" width="2.83" height="2.83" style="fill:#f5f5f5"></rect><rect x="213.65" y="213.16" width="2.83" height="2.83" style="fill:#f5f5f5"></rect><rect x="213.65" y="217.91" width="2.83" height="2.83" style="fill:#f5f5f5"></rect><rect x="213.65" y="222.66" width="2.83" height="2.83" style="fill:#f5f5f5"></rect><rect x="213.65" y="227.41" width="2.83" height="2.83" style="fill:#f5f5f5"></rect><rect x="213.65" y="232.16" width="2.83" height="2.83" style="fill:#f5f5f5"></rect><rect x="213.65" y="236.91" width="2.83" height="2.83" style="fill:#f5f5f5"></rect><rect x="213.65" y="241.66" width="2.83" height="2.83" style="fill:#f5f5f5"></rect><rect x="213.65" y="246.41" width="2.83" height="2.83" style="fill:#f5f5f5"></rect><rect x="213.65" y="251.16" width="2.83" height="2.83" style="fill:#f5f5f5"></rect><rect x="213.65" y="255.91" width="2.83" height="2.83" style="fill:#f5f5f5"></rect><rect x="213.65" y="260.66" width="2.83" height="2.83" style="fill:#f5f5f5"></rect><rect x="213.65" y="270.16" width="2.83" height="2.83" style="fill:#f5f5f5"></rect><rect x="209.15" y="175.16" width="2.83" height="2.83" style="fill:#f5f5f5"></rect><rect x="209.15" y="179.91" width="2.83" height="2.83" style="fill:#f5f5f5"></rect><rect x="209.15" y="184.66" width="2.83" height="2.83" style="fill:#f5f5f5"></rect><rect x="209.15" y="189.41" width="2.83" height="2.83" style="fill:#f5f5f5"></rect><rect x="209.15" y="194.16" width="2.83" height="2.83" style="fill:#f5f5f5"></rect><rect x="209.15" y="198.91" width="2.83" height="2.83" style="fill:#f5f5f5"></rect><rect x="209.15" y="213.16" width="2.83" height="2.83" style="fill:#f5f5f5"></rect><rect x="209.15" y="217.91" width="2.83" height="2.83" style="fill:#f5f5f5"></rect><rect x="209.15" y="222.66" width="2.83" height="2.83" style="fill:#f5f5f5"></rect><rect x="209.15" y="227.41" width="2.83" height="2.83" style="fill:#f5f5f5"></rect><rect x="209.15" y="241.66" width="2.83" height="2.83" style="fill:#f5f5f5"></rect><rect x="209.15" y="246.41" width="2.83" height="2.83" style="fill:#f5f5f5"></rect><rect x="209.15" y="251.16" width="2.83" height="2.83" style="fill:#f5f5f5"></rect><rect x="209.15" y="255.91" width="2.83" height="2.83" style="fill:#f5f5f5"></rect><rect x="209.15" y="260.66" width="2.83" height="2.83" style="fill:#f5f5f5"></rect><rect x="209.15" y="270.16" width="2.83" height="2.83" style="fill:#f5f5f5"></rect><rect x="209.15" y="274.91" width="2.83" height="2.83" style="fill:#f5f5f5"></rect><rect x="168.31" y="219.33" width="2.83" height="2.83" style="fill:#f5f5f5"></rect><rect x="168.31" y="224.08" width="2.83" height="2.83" style="fill:#f5f5f5"></rect><rect x="168.31" y="228.83" width="2.83" height="2.83" style="fill:#f5f5f5"></rect><rect x="168.31" y="233.58" width="2.83" height="2.83" style="fill:#f5f5f5"></rect><rect x="168.31" y="238.33" width="2.83" height="2.83" style="fill:#f5f5f5"></rect><rect x="168.31" y="243.08" width="2.83" height="2.83" style="fill:#f5f5f5"></rect><rect x="168.31" y="247.83" width="2.83" height="2.83" style="fill:#f5f5f5"></rect><rect x="168.31" y="262.08" width="2.83" height="2.83" style="fill:#f5f5f5"></rect><rect x="168.31" y="266.83" width="2.83" height="2.83" style="fill:#f5f5f5"></rect><rect x="168.31" y="271.58" width="2.83" height="2.83" style="fill:#f5f5f5"></rect><rect x="163.81" y="219.33" width="2.83" height="2.83" style="fill:#f5f5f5"></rect><rect x="163.81" y="224.08" width="2.83" height="2.83" style="fill:#f5f5f5"></rect><rect x="163.81" y="228.83" width="2.83" height="2.83" style="fill:#f5f5f5"></rect><rect x="163.81" y="233.58" width="2.83" height="2.83" style="fill:#f5f5f5"></rect><rect x="163.81" y="238.33" width="2.83" height="2.83" style="fill:#f5f5f5"></rect><rect x="163.81" y="243.08" width="2.83" height="2.83" style="fill:#f5f5f5"></rect><rect x="163.81" y="247.83" width="2.83" height="2.83" style="fill:#f5f5f5"></rect><rect x="159.31" y="219.33" width="2.83" height="2.83" style="fill:#f5f5f5"></rect><rect x="159.31" y="224.08" width="2.83" height="2.83" style="fill:#f5f5f5"></rect><rect x="159.31" y="228.83" width="2.83" height="2.83" style="fill:#f5f5f5"></rect><rect x="159.31" y="233.58" width="2.83" height="2.83" style="fill:#f5f5f5"></rect><rect x="159.31" y="238.33" width="2.83" height="2.83" style="fill:#f5f5f5"></rect><rect x="159.31" y="243.08" width="2.83" height="2.83" style="fill:#f5f5f5"></rect><rect x="159.31" y="247.83" width="2.83" height="2.83" style="fill:#f5f5f5"></rect><rect x="154.81" y="219.33" width="2.83" height="2.83" style="fill:#f5f5f5"></rect><rect x="154.81" y="224.08" width="2.83" height="2.83" style="fill:#f5f5f5"></rect><rect x="154.81" y="228.83" width="2.83" height="2.83" style="fill:#f5f5f5"></rect><rect x="154.81" y="233.58" width="2.83" height="2.83" style="fill:#f5f5f5"></rect><rect x="154.81" y="238.33" width="2.83" height="2.83" style="fill:#f5f5f5"></rect><rect x="154.81" y="243.08" width="2.83" height="2.83" style="fill:#f5f5f5"></rect><rect x="154.81" y="247.83" width="2.83" height="2.83" style="fill:#f5f5f5"></rect><rect x="154.81" y="252.58" width="2.83" height="2.83" style="fill:#f5f5f5"></rect><rect x="154.81" y="257.33" width="2.83" height="2.83" style="fill:#f5f5f5"></rect><rect x="154.81" y="262.08" width="2.83" height="2.83" style="fill:#f5f5f5"></rect><rect x="154.81" y="266.83" width="2.83" height="2.83" style="fill:#f5f5f5"></rect><rect x="150.31" y="219.33" width="2.83" height="2.83" style="fill:#f5f5f5"></rect><rect x="150.31" y="224.08" width="2.83" height="2.83" style="fill:#f5f5f5"></rect><rect x="150.31" y="228.83" width="2.83" height="2.83" style="fill:#f5f5f5"></rect><rect x="150.31" y="233.58" width="2.83" height="2.83" style="fill:#f5f5f5"></rect><rect x="150.31" y="238.33" width="2.83" height="2.83" style="fill:#f5f5f5"></rect><rect x="150.31" y="243.08" width="2.83" height="2.83" style="fill:#f5f5f5"></rect><rect x="150.31" y="247.83" width="2.83" height="2.83" style="fill:#f5f5f5"></rect><rect x="150.31" y="252.58" width="2.83" height="2.83" style="fill:#f5f5f5"></rect><rect x="150.31" y="257.33" width="2.83" height="2.83" style="fill:#f5f5f5"></rect><rect x="150.31" y="262.08" width="2.83" height="2.83" style="fill:#f5f5f5"></rect><rect x="150.31" y="266.83" width="2.83" height="2.83" style="fill:#f5f5f5"></rect><rect x="150.31" y="271.58" width="2.83" height="2.83" style="fill:#f5f5f5"></rect><rect x="150.31" y="285.83" width="2.83" height="2.83" style="fill:#f5f5f5"></rect><rect x="150.31" y="290.58" width="2.83" height="2.83" style="fill:#f5f5f5"></rect><rect x="145.81" y="219.33" width="2.83" height="2.83" style="fill:#f5f5f5"></rect><rect x="145.81" y="224.08" width="2.83" height="2.83" style="fill:#f5f5f5"></rect><rect x="145.81" y="228.83" width="2.83" height="2.83" style="fill:#f5f5f5"></rect><rect x="145.81" y="243.08" width="2.83" height="2.83" style="fill:#f5f5f5"></rect><rect x="145.81" y="247.83" width="2.83" height="2.83" style="fill:#f5f5f5"></rect><rect x="145.81" y="252.58" width="2.83" height="2.83" style="fill:#f5f5f5"></rect><rect x="145.81" y="257.33" width="2.83" height="2.83" style="fill:#f5f5f5"></rect><rect x="145.81" y="262.08" width="2.83" height="2.83" style="fill:#f5f5f5"></rect><rect x="145.81" y="266.83" width="2.83" height="2.83" style="fill:#f5f5f5"></rect><rect x="145.81" y="271.58" width="2.83" height="2.83" style="fill:#f5f5f5"></rect><rect x="145.81" y="285.83" width="2.83" height="2.83" style="fill:#f5f5f5"></rect><rect x="145.81" y="290.58" width="2.83" height="2.83" style="fill:#f5f5f5"></rect><rect x="145.81" y="295.33" width="2.83" height="2.83" style="fill:#f5f5f5"></rect><rect x="98.65" y="190.83" width="2.83" height="2.83" style="fill:#f5f5f5"></rect><rect x="98.65" y="195.58" width="2.83" height="2.83" style="fill:#f5f5f5"></rect><rect x="98.65" y="200.33" width="2.83" height="2.83" style="fill:#f5f5f5"></rect><rect x="98.65" y="205.08" width="2.83" height="2.83" style="fill:#f5f5f5"></rect><rect x="98.65" y="209.83" width="2.83" height="2.83" style="fill:#f5f5f5"></rect><rect x="98.65" y="214.58" width="2.83" height="2.83" style="fill:#f5f5f5"></rect><rect x="98.65" y="219.33" width="2.83" height="2.83" style="fill:#f5f5f5"></rect><rect x="98.65" y="224.08" width="2.83" height="2.83" style="fill:#f5f5f5"></rect><rect x="98.65" y="228.83" width="2.83" height="2.83" style="fill:#f5f5f5"></rect><rect x="98.65" y="233.58" width="2.83" height="2.83" style="fill:#f5f5f5"></rect><rect x="98.65" y="238.33" width="2.83" height="2.83" style="fill:#f5f5f5"></rect><rect x="98.65" y="243.08" width="2.83" height="2.83" style="fill:#f5f5f5"></rect><rect x="98.65" y="247.83" width="2.83" height="2.83" style="fill:#f5f5f5"></rect><rect x="98.65" y="252.58" width="2.83" height="2.83" style="fill:#f5f5f5"></rect><rect x="98.65" y="257.33" width="2.83" height="2.83" style="fill:#f5f5f5"></rect><rect x="98.65" y="262.08" width="2.83" height="2.83" style="fill:#f5f5f5"></rect><rect x="98.65" y="266.83" width="2.83" height="2.83" style="fill:#f5f5f5"></rect><rect x="98.65" y="271.58" width="2.83" height="2.83" style="fill:#f5f5f5"></rect><rect x="98.65" y="276.33" width="2.83" height="2.83" style="fill:#f5f5f5"></rect><rect x="98.65" y="281.08" width="2.83" height="2.83" style="fill:#f5f5f5"></rect><rect x="98.65" y="285.83" width="2.83" height="2.83" style="fill:#f5f5f5"></rect><rect x="98.65" y="290.58" width="2.83" height="2.83" style="fill:#f5f5f5"></rect><rect x="98.65" y="295.33" width="2.83" height="2.83" style="fill:#f5f5f5"></rect><rect x="94.15" y="190.83" width="2.83" height="2.83" style="fill:#f5f5f5"></rect><rect x="94.15" y="195.58" width="2.83" height="2.83" style="fill:#f5f5f5"></rect><rect x="94.15" y="200.33" width="2.83" height="2.83" style="fill:#f5f5f5"></rect><rect x="94.15" y="205.08" width="2.83" height="2.83" style="fill:#f5f5f5"></rect><rect x="94.15" y="209.83" width="2.83" height="2.83" style="fill:#f5f5f5"></rect><rect x="94.15" y="214.58" width="2.83" height="2.83" style="fill:#f5f5f5"></rect><rect x="94.15" y="219.33" width="2.83" height="2.83" style="fill:#f5f5f5"></rect><rect x="94.15" y="224.08" width="2.83" height="2.83" style="fill:#f5f5f5"></rect><rect x="94.15" y="228.83" width="2.83" height="2.83" style="fill:#f5f5f5"></rect><rect x="94.15" y="233.58" width="2.83" height="2.83" style="fill:#f5f5f5"></rect><rect x="94.15" y="238.33" width="2.83" height="2.83" style="fill:#f5f5f5"></rect><rect x="94.15" y="243.08" width="2.83" height="2.83" style="fill:#f5f5f5"></rect><rect x="94.15" y="247.83" width="2.83" height="2.83" style="fill:#f5f5f5"></rect><rect x="94.15" y="252.58" width="2.83" height="2.83" style="fill:#f5f5f5"></rect><rect x="94.15" y="257.33" width="2.83" height="2.83" style="fill:#f5f5f5"></rect><rect x="94.15" y="262.08" width="2.83" height="2.83" style="fill:#f5f5f5"></rect><rect x="94.15" y="266.83" width="2.83" height="2.83" style="fill:#f5f5f5"></rect><rect x="94.15" y="271.58" width="2.83" height="2.83" style="fill:#f5f5f5"></rect><rect x="94.15" y="276.33" width="2.83" height="2.83" style="fill:#f5f5f5"></rect><rect x="89.65" y="190.83" width="2.83" height="2.83" style="fill:#f5f5f5"></rect><rect x="89.65" y="195.58" width="2.83" height="2.83" style="fill:#f5f5f5"></rect><rect x="89.65" y="200.33" width="2.83" height="2.83" style="fill:#f5f5f5"></rect><rect x="89.65" y="205.08" width="2.83" height="2.83" style="fill:#f5f5f5"></rect><rect x="89.65" y="209.83" width="2.83" height="2.83" style="fill:#f5f5f5"></rect><rect x="89.65" y="214.58" width="2.83" height="2.83" style="fill:#f5f5f5"></rect><rect x="89.65" y="219.33" width="2.83" height="2.83" style="fill:#f5f5f5"></rect><rect x="89.65" y="224.08" width="2.83" height="2.83" style="fill:#f5f5f5"></rect><rect x="89.65" y="228.83" width="2.83" height="2.83" style="fill:#f5f5f5"></rect><rect x="89.65" y="233.58" width="2.83" height="2.83" style="fill:#f5f5f5"></rect><rect x="89.65" y="238.33" width="2.83" height="2.83" style="fill:#f5f5f5"></rect><rect x="89.65" y="243.08" width="2.83" height="2.83" style="fill:#f5f5f5"></rect><rect x="89.65" y="247.83" width="2.83" height="2.83" style="fill:#f5f5f5"></rect><rect x="89.65" y="252.58" width="2.83" height="2.83" style="fill:#f5f5f5"></rect><rect x="89.65" y="257.33" width="2.83" height="2.83" style="fill:#f5f5f5"></rect><rect x="89.65" y="262.08" width="2.83" height="2.83" style="fill:#f5f5f5"></rect><rect x="89.65" y="266.83" width="2.83" height="2.83" style="fill:#f5f5f5"></rect><rect x="89.65" y="271.58" width="2.83" height="2.83" style="fill:#f5f5f5"></rect><rect x="89.65" y="276.33" width="2.83" height="2.83" style="fill:#f5f5f5"></rect><rect x="85.15" y="190.83" width="2.83" height="2.83" style="fill:#f5f5f5"></rect><rect x="85.15" y="195.58" width="2.83" height="2.83" style="fill:#f5f5f5"></rect><rect x="85.15" y="200.33" width="2.83" height="2.83" style="fill:#f5f5f5"></rect><rect x="85.15" y="205.08" width="2.83" height="2.83" style="fill:#f5f5f5"></rect><rect x="85.15" y="209.83" width="2.83" height="2.83" style="fill:#f5f5f5"></rect><rect x="85.15" y="214.58" width="2.83" height="2.83" style="fill:#f5f5f5"></rect><rect x="85.15" y="219.33" width="2.83" height="2.83" style="fill:#f5f5f5"></rect><rect x="85.15" y="224.08" width="2.83" height="2.83" style="fill:#f5f5f5"></rect><rect x="85.15" y="228.83" width="2.83" height="2.83" style="fill:#f5f5f5"></rect><rect x="85.15" y="233.58" width="2.83" height="2.83" style="fill:#f5f5f5"></rect><rect x="85.15" y="238.33" width="2.83" height="2.83" style="fill:#f5f5f5"></rect><rect x="85.15" y="243.08" width="2.83" height="2.83" style="fill:#f5f5f5"></rect><rect x="85.15" y="247.83" width="2.83" height="2.83" style="fill:#f5f5f5"></rect><rect x="85.15" y="252.58" width="2.83" height="2.83" style="fill:#f5f5f5"></rect><rect x="85.15" y="257.33" width="2.83" height="2.83" style="fill:#f5f5f5"></rect><rect x="80.65" y="190.83" width="2.83" height="2.83" style="fill:#f5f5f5"></rect><rect x="80.65" y="195.58" width="2.83" height="2.83" style="fill:#f5f5f5"></rect><rect x="80.65" y="200.33" width="2.83" height="2.83" style="fill:#f5f5f5"></rect><rect x="80.65" y="205.08" width="2.83" height="2.83" style="fill:#f5f5f5"></rect><rect x="80.65" y="209.83" width="2.83" height="2.83" style="fill:#f5f5f5"></rect><rect x="80.65" y="214.58" width="2.83" height="2.83" style="fill:#f5f5f5"></rect><rect x="80.65" y="219.33" width="2.83" height="2.83" style="fill:#f5f5f5"></rect><rect x="80.65" y="224.08" width="2.83" height="2.83" style="fill:#f5f5f5"></rect><rect x="80.65" y="228.83" width="2.83" height="2.83" style="fill:#f5f5f5"></rect><rect x="80.65" y="233.58" width="2.83" height="2.83" style="fill:#f5f5f5"></rect><rect x="80.65" y="238.33" width="2.83" height="2.83" style="fill:#f5f5f5"></rect><rect x="80.65" y="243.08" width="2.83" height="2.83" style="fill:#f5f5f5"></rect><rect x="80.65" y="247.83" width="2.83" height="2.83" style="fill:#f5f5f5"></rect><rect x="76.15" y="190.83" width="2.83" height="2.83" style="fill:#f5f5f5"></rect><rect x="76.15" y="195.58" width="2.83" height="2.83" style="fill:#f5f5f5"></rect><rect x="76.15" y="200.33" width="2.83" height="2.83" style="fill:#f5f5f5"></rect><rect x="76.15" y="205.08" width="2.83" height="2.83" style="fill:#f5f5f5"></rect><rect x="76.15" y="209.83" width="2.83" height="2.83" style="fill:#f5f5f5"></rect><rect x="76.15" y="214.58" width="2.83" height="2.83" style="fill:#f5f5f5"></rect><rect x="76.15" y="219.33" width="2.83" height="2.83" style="fill:#f5f5f5"></rect><rect x="76.15" y="224.08" width="2.83" height="2.83" style="fill:#f5f5f5"></rect><rect x="76.15" y="228.83" width="2.83" height="2.83" style="fill:#f5f5f5"></rect><rect x="76.15" y="233.58" width="2.83" height="2.83" style="fill:#f5f5f5"></rect><rect x="76.15" y="238.33" width="2.83" height="2.83" style="fill:#f5f5f5"></rect><rect x="76.15" y="243.08" width="2.83" height="2.83" style="fill:#f5f5f5"></rect><rect x="406.81" y="225.49" width="2.83" height="2.83" style="fill:#f5f5f5"></rect><rect x="406.81" y="230.24" width="2.83" height="2.83" style="fill:#f5f5f5"></rect><rect x="406.81" y="234.99" width="2.83" height="2.83" style="fill:#f5f5f5"></rect><rect x="406.81" y="239.74" width="2.83" height="2.83" style="fill:#f5f5f5"></rect><rect x="406.81" y="244.49" width="2.83" height="2.83" style="fill:#f5f5f5"></rect><rect x="406.81" y="249.24" width="2.83" height="2.83" style="fill:#f5f5f5"></rect><rect x="406.81" y="253.99" width="2.83" height="2.83" style="fill:#f5f5f5"></rect><rect x="406.81" y="258.74" width="2.83" height="2.83" style="fill:#f5f5f5"></rect><rect x="406.81" y="263.49" width="2.83" height="2.83" style="fill:#f5f5f5"></rect><rect x="406.81" y="268.24" width="2.83" height="2.83" style="fill:#f5f5f5"></rect><rect x="406.81" y="272.99" width="2.83" height="2.83" style="fill:#f5f5f5"></rect><rect x="406.81" y="277.74" width="2.83" height="2.83" style="fill:#f5f5f5"></rect><rect x="406.81" y="282.49" width="2.83" height="2.83" style="fill:#f5f5f5"></rect><rect x="406.81" y="287.24" width="2.83" height="2.83" style="fill:#f5f5f5"></rect><rect x="406.81" y="291.99" width="2.83" height="2.83" style="fill:#f5f5f5"></rect><rect x="406.81" y="296.74" width="2.83" height="2.83" style="fill:#f5f5f5"></rect><rect x="406.81" y="301.49" width="2.83" height="2.83" style="fill:#f5f5f5"></rect><rect x="406.81" y="306.24" width="2.83" height="2.83" style="fill:#f5f5f5"></rect><rect x="406.81" y="310.99" width="2.83" height="2.83" style="fill:#f5f5f5"></rect><rect x="406.81" y="315.74" width="2.83" height="2.83" style="fill:#f5f5f5"></rect><rect x="402.31" y="225.49" width="2.83" height="2.83" style="fill:#f5f5f5"></rect><rect x="402.31" y="230.24" width="2.83" height="2.83" style="fill:#f5f5f5"></rect><rect x="402.31" y="234.99" width="2.83" height="2.83" style="fill:#f5f5f5"></rect><rect x="402.31" y="239.74" width="2.83" height="2.83" style="fill:#f5f5f5"></rect><rect x="402.31" y="244.49" width="2.83" height="2.83" style="fill:#f5f5f5"></rect><rect x="402.31" y="249.24" width="2.83" height="2.83" style="fill:#f5f5f5"></rect><rect x="402.31" y="253.99" width="2.83" height="2.83" style="fill:#f5f5f5"></rect><rect x="402.31" y="258.74" width="2.83" height="2.83" style="fill:#f5f5f5"></rect><rect x="402.31" y="263.49" width="2.83" height="2.83" style="fill:#f5f5f5"></rect><rect x="402.31" y="268.24" width="2.83" height="2.83" style="fill:#f5f5f5"></rect><rect x="402.31" y="272.99" width="2.83" height="2.83" style="fill:#f5f5f5"></rect><rect x="402.31" y="277.74" width="2.83" height="2.83" style="fill:#f5f5f5"></rect><rect x="402.31" y="282.49" width="2.83" height="2.83" style="fill:#f5f5f5"></rect><rect x="402.31" y="287.24" width="2.83" height="2.83" style="fill:#f5f5f5"></rect><rect x="402.31" y="291.99" width="2.83" height="2.83" style="fill:#f5f5f5"></rect><rect x="402.31" y="296.74" width="2.83" height="2.83" style="fill:#f5f5f5"></rect><rect x="402.31" y="301.49" width="2.83" height="2.83" style="fill:#f5f5f5"></rect><rect x="402.31" y="306.24" width="2.83" height="2.83" style="fill:#f5f5f5"></rect><rect x="397.81" y="225.49" width="2.83" height="2.83" style="fill:#f5f5f5"></rect><rect x="397.81" y="230.24" width="2.83" height="2.83" style="fill:#f5f5f5"></rect><rect x="397.81" y="234.99" width="2.83" height="2.83" style="fill:#f5f5f5"></rect><rect x="397.81" y="239.74" width="2.83" height="2.83" style="fill:#f5f5f5"></rect><rect x="397.81" y="244.49" width="2.83" height="2.83" style="fill:#f5f5f5"></rect><rect x="397.81" y="249.24" width="2.83" height="2.83" style="fill:#f5f5f5"></rect><rect x="397.81" y="253.99" width="2.83" height="2.83" style="fill:#f5f5f5"></rect><rect x="397.81" y="258.74" width="2.83" height="2.83" style="fill:#f5f5f5"></rect><rect x="397.81" y="263.49" width="2.83" height="2.83" style="fill:#f5f5f5"></rect><rect x="397.81" y="268.24" width="2.83" height="2.83" style="fill:#f5f5f5"></rect><rect x="397.81" y="272.99" width="2.83" height="2.83" style="fill:#f5f5f5"></rect><rect x="397.81" y="277.74" width="2.83" height="2.83" style="fill:#f5f5f5"></rect><rect x="397.81" y="282.49" width="2.83" height="2.83" style="fill:#f5f5f5"></rect><rect x="397.81" y="287.24" width="2.83" height="2.83" style="fill:#f5f5f5"></rect><rect x="397.81" y="291.99" width="2.83" height="2.83" style="fill:#f5f5f5"></rect><rect x="397.81" y="296.74" width="2.83" height="2.83" style="fill:#f5f5f5"></rect><rect x="397.81" y="301.49" width="2.83" height="2.83" style="fill:#f5f5f5"></rect><rect x="397.81" y="306.24" width="2.83" height="2.83" style="fill:#f5f5f5"></rect><rect x="423.65" y="260.16" width="2.83" height="2.83" style="fill:#f5f5f5"></rect><rect x="423.65" y="264.91" width="2.83" height="2.83" style="fill:#f5f5f5"></rect><rect x="423.65" y="269.66" width="2.83" height="2.83" style="fill:#f5f5f5"></rect><rect x="423.65" y="274.41" width="2.83" height="2.83" style="fill:#f5f5f5"></rect><rect x="423.65" y="279.16" width="2.83" height="2.83" style="fill:#f5f5f5"></rect><rect x="423.65" y="283.91" width="2.83" height="2.83" style="fill:#f5f5f5"></rect><rect x="423.65" y="288.66" width="2.83" height="2.83" style="fill:#f5f5f5"></rect><rect x="423.65" y="293.41" width="2.83" height="2.83" style="fill:#f5f5f5"></rect><rect x="423.65" y="298.16" width="2.83" height="2.83" style="fill:#f5f5f5"></rect><rect x="423.65" y="302.91" width="2.83" height="2.83" style="fill:#f5f5f5"></rect><rect x="423.65" y="307.66" width="2.83" height="2.83" style="fill:#f5f5f5"></rect><rect x="423.65" y="312.41" width="2.83" height="2.83" style="fill:#f5f5f5"></rect><rect x="423.65" y="317.16" width="2.83" height="2.83" style="fill:#f5f5f5"></rect><rect x="419.15" y="260.16" width="2.83" height="2.83" style="fill:#f5f5f5"></rect><rect x="419.15" y="264.91" width="2.83" height="2.83" style="fill:#f5f5f5"></rect><rect x="419.15" y="269.66" width="2.83" height="2.83" style="fill:#f5f5f5"></rect><rect x="419.15" y="274.41" width="2.83" height="2.83" style="fill:#f5f5f5"></rect><rect x="419.15" y="279.16" width="2.83" height="2.83" style="fill:#f5f5f5"></rect><rect x="419.15" y="283.91" width="2.83" height="2.83" style="fill:#f5f5f5"></rect><rect x="419.15" y="288.66" width="2.83" height="2.83" style="fill:#f5f5f5"></rect><rect x="419.15" y="293.41" width="2.83" height="2.83" style="fill:#f5f5f5"></rect><rect x="419.15" y="298.16" width="2.83" height="2.83" style="fill:#f5f5f5"></rect><rect x="419.15" y="302.91" width="2.83" height="2.83" style="fill:#f5f5f5"></rect><rect x="419.15" y="307.66" width="2.83" height="2.83" style="fill:#f5f5f5"></rect><rect x="419.15" y="312.41" width="2.83" height="2.83" style="fill:#f5f5f5"></rect><rect x="419.15" y="317.16" width="2.83" height="2.83" style="fill:#f5f5f5"></rect><rect x="414.65" y="260.16" width="2.83" height="2.83" style="fill:#f5f5f5"></rect><rect x="414.65" y="264.91" width="2.83" height="2.83" style="fill:#f5f5f5"></rect><rect x="414.65" y="269.66" width="2.83" height="2.83" style="fill:#f5f5f5"></rect><rect x="414.65" y="274.41" width="2.83" height="2.83" style="fill:#f5f5f5"></rect><rect x="414.65" y="279.16" width="2.83" height="2.83" style="fill:#f5f5f5"></rect><rect x="414.65" y="283.91" width="2.83" height="2.83" style="fill:#f5f5f5"></rect><rect x="414.65" y="288.66" width="2.83" height="2.83" style="fill:#f5f5f5"></rect><rect x="414.65" y="293.41" width="2.83" height="2.83" style="fill:#f5f5f5"></rect><rect x="414.65" y="298.16" width="2.83" height="2.83" style="fill:#f5f5f5"></rect><rect x="414.65" y="302.91" width="2.83" height="2.83" style="fill:#f5f5f5"></rect><rect x="414.65" y="307.66" width="2.83" height="2.83" style="fill:#f5f5f5"></rect><rect x="414.65" y="312.41" width="2.83" height="2.83" style="fill:#f5f5f5"></rect><rect x="414.65" y="317.16" width="2.83" height="2.83" style="fill:#f5f5f5"></rect><rect x="414.65" y="321.91" width="2.83" height="2.83" style="fill:#f5f5f5"></rect><rect x="389.65" y="261.58" width="2.83" height="2.83" style="fill:#f5f5f5"></rect><rect x="389.65" y="266.33" width="2.83" height="2.83" style="fill:#f5f5f5"></rect><rect x="389.65" y="271.08" width="2.83" height="2.83" style="fill:#f5f5f5"></rect><rect x="389.65" y="275.83" width="2.83" height="2.83" style="fill:#f5f5f5"></rect><rect x="389.65" y="280.58" width="2.83" height="2.83" style="fill:#f5f5f5"></rect><rect x="389.65" y="285.33" width="2.83" height="2.83" style="fill:#f5f5f5"></rect><rect x="389.65" y="290.08" width="2.83" height="2.83" style="fill:#f5f5f5"></rect><rect x="389.65" y="294.83" width="2.83" height="2.83" style="fill:#f5f5f5"></rect><rect x="389.65" y="299.58" width="2.83" height="2.83" style="fill:#f5f5f5"></rect><rect x="389.65" y="304.33" width="2.83" height="2.83" style="fill:#f5f5f5"></rect><rect x="389.65" y="318.58" width="2.83" height="2.83" style="fill:#f5f5f5"></rect><rect x="385.15" y="261.58" width="2.83" height="2.83" style="fill:#f5f5f5"></rect><rect x="385.15" y="266.33" width="2.83" height="2.83" style="fill:#f5f5f5"></rect><rect x="385.15" y="271.08" width="2.83" height="2.83" style="fill:#f5f5f5"></rect><rect x="385.15" y="275.83" width="2.83" height="2.83" style="fill:#f5f5f5"></rect><rect x="385.15" y="280.58" width="2.83" height="2.83" style="fill:#f5f5f5"></rect><rect x="385.15" y="285.33" width="2.83" height="2.83" style="fill:#f5f5f5"></rect><rect x="385.15" y="290.08" width="2.83" height="2.83" style="fill:#f5f5f5"></rect><rect x="385.15" y="294.83" width="2.83" height="2.83" style="fill:#f5f5f5"></rect><rect x="385.15" y="299.58" width="2.83" height="2.83" style="fill:#f5f5f5"></rect><rect x="385.15" y="313.83" width="2.83" height="2.83" style="fill:#f5f5f5"></rect><rect x="385.15" y="318.58" width="2.83" height="2.83" style="fill:#f5f5f5"></rect><rect x="380.65" y="261.58" width="2.83" height="2.83" style="fill:#f5f5f5"></rect><rect x="380.65" y="266.33" width="2.83" height="2.83" style="fill:#f5f5f5"></rect><rect x="380.65" y="271.08" width="2.83" height="2.83" style="fill:#f5f5f5"></rect><rect x="380.65" y="275.83" width="2.83" height="2.83" style="fill:#f5f5f5"></rect><rect x="380.65" y="280.58" width="2.83" height="2.83" style="fill:#f5f5f5"></rect><rect x="380.65" y="285.33" width="2.83" height="2.83" style="fill:#f5f5f5"></rect><rect x="380.65" y="290.08" width="2.83" height="2.83" style="fill:#f5f5f5"></rect><rect x="380.65" y="294.83" width="2.83" height="2.83" style="fill:#f5f5f5"></rect><rect x="380.65" y="309.08" width="2.83" height="2.83" style="fill:#f5f5f5"></rect><rect x="380.65" y="313.83" width="2.83" height="2.83" style="fill:#f5f5f5"></rect><rect x="380.65" y="318.58" width="2.83" height="2.83" style="fill:#f5f5f5"></rect><rect x="338.81" y="189.41" width="2.83" height="2.83" style="fill:#f5f5f5"></rect><rect x="338.81" y="194.16" width="2.83" height="2.83" style="fill:#f5f5f5"></rect><rect x="338.81" y="198.91" width="2.83" height="2.83" style="fill:#f5f5f5"></rect><rect x="338.81" y="203.66" width="2.83" height="2.83" style="fill:#f5f5f5"></rect><rect x="338.81" y="208.41" width="2.83" height="2.83" style="fill:#f5f5f5"></rect><rect x="338.81" y="213.16" width="2.83" height="2.83" style="fill:#f5f5f5"></rect><rect x="338.81" y="217.91" width="2.83" height="2.83" style="fill:#f5f5f5"></rect><rect x="338.81" y="222.66" width="2.83" height="2.83" style="fill:#f5f5f5"></rect><rect x="338.81" y="227.41" width="2.83" height="2.83" style="fill:#f5f5f5"></rect><rect x="338.81" y="232.16" width="2.83" height="2.83" style="fill:#f5f5f5"></rect><rect x="338.81" y="236.91" width="2.83" height="2.83" style="fill:#f5f5f5"></rect><rect x="338.81" y="241.66" width="2.83" height="2.83" style="fill:#f5f5f5"></rect><rect x="338.81" y="246.41" width="2.83" height="2.83" style="fill:#f5f5f5"></rect><rect x="338.81" y="251.16" width="2.83" height="2.83" style="fill:#f5f5f5"></rect><rect x="338.81" y="255.91" width="2.83" height="2.83" style="fill:#f5f5f5"></rect><rect x="338.81" y="260.66" width="2.83" height="2.83" style="fill:#f5f5f5"></rect><rect x="338.81" y="265.41" width="2.83" height="2.83" style="fill:#f5f5f5"></rect><rect x="338.81" y="274.91" width="2.83" height="2.83" style="fill:#f5f5f5"></rect><rect x="338.81" y="279.66" width="2.83" height="2.83" style="fill:#f5f5f5"></rect><rect x="338.81" y="284.41" width="2.83" height="2.83" style="fill:#f5f5f5"></rect><rect x="338.81" y="289.16" width="2.83" height="2.83" style="fill:#f5f5f5"></rect><rect x="338.81" y="293.91" width="2.83" height="2.83" style="fill:#f5f5f5"></rect><rect x="334.31" y="189.41" width="2.83" height="2.83" style="fill:#f5f5f5"></rect><rect x="334.31" y="194.16" width="2.83" height="2.83" style="fill:#f5f5f5"></rect><rect x="334.31" y="198.91" width="2.83" height="2.83" style="fill:#f5f5f5"></rect><rect x="334.31" y="203.66" width="2.83" height="2.83" style="fill:#f5f5f5"></rect><rect x="334.31" y="208.41" width="2.83" height="2.83" style="fill:#f5f5f5"></rect><rect x="334.31" y="213.16" width="2.83" height="2.83" style="fill:#f5f5f5"></rect><rect x="334.31" y="217.91" width="2.83" height="2.83" style="fill:#f5f5f5"></rect><rect x="334.31" y="222.66" width="2.83" height="2.83" style="fill:#f5f5f5"></rect><rect x="334.31" y="227.41" width="2.83" height="2.83" style="fill:#f5f5f5"></rect><rect x="334.31" y="232.16" width="2.83" height="2.83" style="fill:#f5f5f5"></rect><rect x="334.31" y="236.91" width="2.83" height="2.83" style="fill:#f5f5f5"></rect><rect x="334.31" y="241.66" width="2.83" height="2.83" style="fill:#f5f5f5"></rect><rect x="334.31" y="246.41" width="2.83" height="2.83" style="fill:#f5f5f5"></rect><rect x="334.31" y="251.16" width="2.83" height="2.83" style="fill:#f5f5f5"></rect><rect x="334.31" y="255.91" width="2.83" height="2.83" style="fill:#f5f5f5"></rect><rect x="334.31" y="260.66" width="2.83" height="2.83" style="fill:#f5f5f5"></rect><rect x="334.31" y="289.16" width="2.83" height="2.83" style="fill:#f5f5f5"></rect><rect x="334.31" y="293.91" width="2.83" height="2.83" style="fill:#f5f5f5"></rect><rect x="329.81" y="189.41" width="2.83" height="2.83" style="fill:#f5f5f5"></rect><rect x="329.81" y="194.16" width="2.83" height="2.83" style="fill:#f5f5f5"></rect><rect x="329.81" y="198.91" width="2.83" height="2.83" style="fill:#f5f5f5"></rect><rect x="329.81" y="203.66" width="2.83" height="2.83" style="fill:#f5f5f5"></rect><rect x="329.81" y="208.41" width="2.83" height="2.83" style="fill:#f5f5f5"></rect><rect x="329.81" y="213.16" width="2.83" height="2.83" style="fill:#f5f5f5"></rect><rect x="329.81" y="217.91" width="2.83" height="2.83" style="fill:#f5f5f5"></rect><rect x="329.81" y="222.66" width="2.83" height="2.83" style="fill:#f5f5f5"></rect><rect x="329.81" y="227.41" width="2.83" height="2.83" style="fill:#f5f5f5"></rect><rect x="329.81" y="232.16" width="2.83" height="2.83" style="fill:#f5f5f5"></rect><rect x="329.81" y="236.91" width="2.83" height="2.83" style="fill:#f5f5f5"></rect><rect x="329.81" y="241.66" width="2.83" height="2.83" style="fill:#f5f5f5"></rect><rect x="329.81" y="246.41" width="2.83" height="2.83" style="fill:#f5f5f5"></rect><rect x="329.81" y="251.16" width="2.83" height="2.83" style="fill:#f5f5f5"></rect><rect x="329.81" y="255.91" width="2.83" height="2.83" style="fill:#f5f5f5"></rect><rect x="329.81" y="260.66" width="2.83" height="2.83" style="fill:#f5f5f5"></rect><rect x="329.81" y="270.16" width="2.83" height="2.83" style="fill:#f5f5f5"></rect><rect x="329.81" y="274.91" width="2.83" height="2.83" style="fill:#f5f5f5"></rect><rect x="329.81" y="279.66" width="2.83" height="2.83" style="fill:#f5f5f5"></rect><rect x="329.81" y="284.41" width="2.83" height="2.83" style="fill:#f5f5f5"></rect><rect x="329.81" y="293.91" width="2.83" height="2.83" style="fill:#f5f5f5"></rect><rect x="355.15" y="249.24" width="2.83" height="2.83" style="fill:#f5f5f5"></rect><rect x="355.15" y="253.99" width="2.83" height="2.83" style="fill:#f5f5f5"></rect><rect x="355.15" y="258.74" width="2.83" height="2.83" style="fill:#f5f5f5"></rect><rect x="355.15" y="263.49" width="2.83" height="2.83" style="fill:#f5f5f5"></rect><rect x="355.15" y="268.24" width="2.83" height="2.83" style="fill:#f5f5f5"></rect><rect x="355.15" y="272.99" width="2.83" height="2.83" style="fill:#f5f5f5"></rect><rect x="355.15" y="277.74" width="2.83" height="2.83" style="fill:#f5f5f5"></rect><rect x="355.15" y="287.24" width="2.83" height="2.83" style="fill:#f5f5f5"></rect><rect x="355.15" y="291.99" width="2.83" height="2.83" style="fill:#f5f5f5"></rect><rect x="355.15" y="296.74" width="2.83" height="2.83" style="fill:#f5f5f5"></rect><rect x="355.15" y="301.49" width="2.83" height="2.83" style="fill:#f5f5f5"></rect><rect x="355.15" y="306.24" width="2.83" height="2.83" style="fill:#f5f5f5"></rect><rect x="355.15" y="310.99" width="2.83" height="2.83" style="fill:#f5f5f5"></rect><rect x="355.15" y="315.74" width="2.83" height="2.83" style="fill:#f5f5f5"></rect><rect x="355.15" y="320.49" width="2.83" height="2.83" style="fill:#f5f5f5"></rect><rect x="350.65" y="249.24" width="2.83" height="2.83" style="fill:#f5f5f5"></rect><rect x="350.65" y="253.99" width="2.83" height="2.83" style="fill:#f5f5f5"></rect><rect x="350.65" y="258.74" width="2.83" height="2.83" style="fill:#f5f5f5"></rect><rect x="350.65" y="263.49" width="2.83" height="2.83" style="fill:#f5f5f5"></rect><rect x="350.65" y="268.24" width="2.83" height="2.83" style="fill:#f5f5f5"></rect><rect x="350.65" y="272.99" width="2.83" height="2.83" style="fill:#f5f5f5"></rect><rect x="350.65" y="287.24" width="2.83" height="2.83" style="fill:#f5f5f5"></rect><rect x="350.65" y="291.99" width="2.83" height="2.83" style="fill:#f5f5f5"></rect><rect x="350.65" y="296.74" width="2.83" height="2.83" style="fill:#f5f5f5"></rect><rect x="350.65" y="301.49" width="2.83" height="2.83" style="fill:#f5f5f5"></rect><rect x="350.65" y="306.24" width="2.83" height="2.83" style="fill:#f5f5f5"></rect><rect x="350.65" y="310.99" width="2.83" height="2.83" style="fill:#f5f5f5"></rect><rect x="350.65" y="315.74" width="2.83" height="2.83" style="fill:#f5f5f5"></rect><rect x="350.65" y="320.49" width="2.83" height="2.83" style="fill:#f5f5f5"></rect><rect x="346.15" y="249.24" width="2.83" height="2.83" style="fill:#f5f5f5"></rect><rect x="346.15" y="253.99" width="2.83" height="2.83" style="fill:#f5f5f5"></rect><rect x="346.15" y="258.74" width="2.83" height="2.83" style="fill:#f5f5f5"></rect><rect x="346.15" y="263.49" width="2.83" height="2.83" style="fill:#f5f5f5"></rect><rect x="346.15" y="268.24" width="2.83" height="2.83" style="fill:#f5f5f5"></rect><rect x="346.15" y="272.99" width="2.83" height="2.83" style="fill:#f5f5f5"></rect><rect x="346.15" y="282.49" width="2.83" height="2.83" style="fill:#f5f5f5"></rect><rect x="346.15" y="287.24" width="2.83" height="2.83" style="fill:#f5f5f5"></rect><rect x="346.15" y="291.99" width="2.83" height="2.83" style="fill:#f5f5f5"></rect><rect x="346.15" y="296.74" width="2.83" height="2.83" style="fill:#f5f5f5"></rect><rect x="346.15" y="301.49" width="2.83" height="2.83" style="fill:#f5f5f5"></rect><rect x="346.15" y="306.24" width="2.83" height="2.83" style="fill:#f5f5f5"></rect><rect x="346.15" y="310.99" width="2.83" height="2.83" style="fill:#f5f5f5"></rect><rect x="346.15" y="315.74" width="2.83" height="2.83" style="fill:#f5f5f5"></rect><rect x="346.15" y="320.49" width="2.83" height="2.83" style="fill:#f5f5f5"></rect><rect x="251.31" y="222.66" width="2.83" height="2.83" style="fill:#f5f5f5"></rect><rect x="251.31" y="227.41" width="2.83" height="2.83" style="fill:#f5f5f5"></rect><rect x="251.31" y="232.16" width="2.83" height="2.83" style="fill:#f5f5f5"></rect><rect x="251.31" y="236.91" width="2.83" height="2.83" style="fill:#f5f5f5"></rect><rect x="251.31" y="241.66" width="2.83" height="2.83" style="fill:#f5f5f5"></rect><rect x="251.31" y="246.41" width="2.83" height="2.83" style="fill:#f5f5f5"></rect><rect x="251.31" y="251.16" width="2.83" height="2.83" style="fill:#f5f5f5"></rect><rect x="251.31" y="255.91" width="2.83" height="2.83" style="fill:#f5f5f5"></rect><rect x="251.31" y="260.66" width="2.83" height="2.83" style="fill:#f5f5f5"></rect><rect x="251.31" y="265.41" width="2.83" height="2.83" style="fill:#f5f5f5"></rect><rect x="251.31" y="270.16" width="2.83" height="2.83" style="fill:#f5f5f5"></rect><rect x="251.31" y="274.91" width="2.83" height="2.83" style="fill:#f5f5f5"></rect><rect x="251.31" y="279.66" width="2.83" height="2.83" style="fill:#f5f5f5"></rect><rect x="251.31" y="289.16" width="2.83" height="2.83" style="fill:#f5f5f5"></rect><rect x="251.31" y="293.91" width="2.83" height="2.83" style="fill:#f5f5f5"></rect><rect x="251.31" y="298.66" width="2.83" height="2.83" style="fill:#f5f5f5"></rect><rect x="251.31" y="303.41" width="2.83" height="2.83" style="fill:#f5f5f5"></rect><rect x="251.31" y="312.91" width="2.83" height="2.83" style="fill:#f5f5f5"></rect><rect x="251.31" y="317.66" width="2.83" height="2.83" style="fill:#f5f5f5"></rect><rect x="251.31" y="322.41" width="2.83" height="2.83" style="fill:#f5f5f5"></rect><rect x="246.81" y="222.66" width="2.83" height="2.83" style="fill:#f5f5f5"></rect><rect x="246.81" y="227.41" width="2.83" height="2.83" style="fill:#f5f5f5"></rect><rect x="246.81" y="232.16" width="2.83" height="2.83" style="fill:#f5f5f5"></rect><rect x="246.81" y="236.91" width="2.83" height="2.83" style="fill:#f5f5f5"></rect><rect x="246.81" y="241.66" width="2.83" height="2.83" style="fill:#f5f5f5"></rect><rect x="246.81" y="246.41" width="2.83" height="2.83" style="fill:#f5f5f5"></rect><rect x="246.81" y="251.16" width="2.83" height="2.83" style="fill:#f5f5f5"></rect><rect x="246.81" y="255.91" width="2.83" height="2.83" style="fill:#f5f5f5"></rect><rect x="246.81" y="260.66" width="2.83" height="2.83" style="fill:#f5f5f5"></rect><rect x="246.81" y="265.41" width="2.83" height="2.83" style="fill:#f5f5f5"></rect><rect x="246.81" y="270.16" width="2.83" height="2.83" style="fill:#f5f5f5"></rect><rect x="246.81" y="274.91" width="2.83" height="2.83" style="fill:#f5f5f5"></rect><rect x="246.81" y="279.66" width="2.83" height="2.83" style="fill:#f5f5f5"></rect><rect x="246.81" y="293.91" width="2.83" height="2.83" style="fill:#f5f5f5"></rect><rect x="246.81" y="298.66" width="2.83" height="2.83" style="fill:#f5f5f5"></rect><rect x="246.81" y="308.16" width="2.83" height="2.83" style="fill:#f5f5f5"></rect><rect x="246.81" y="312.91" width="2.83" height="2.83" style="fill:#f5f5f5"></rect><rect x="246.81" y="317.66" width="2.83" height="2.83" style="fill:#f5f5f5"></rect><rect x="246.81" y="322.41" width="2.83" height="2.83" style="fill:#f5f5f5"></rect><rect x="242.31" y="222.66" width="2.83" height="2.83" style="fill:#f5f5f5"></rect><rect x="242.31" y="227.41" width="2.83" height="2.83" style="fill:#f5f5f5"></rect><rect x="242.31" y="232.16" width="2.83" height="2.83" style="fill:#f5f5f5"></rect><rect x="242.31" y="236.91" width="2.83" height="2.83" style="fill:#f5f5f5"></rect><rect x="242.31" y="241.66" width="2.83" height="2.83" style="fill:#f5f5f5"></rect><rect x="242.31" y="246.41" width="2.83" height="2.83" style="fill:#f5f5f5"></rect><rect x="242.31" y="251.16" width="2.83" height="2.83" style="fill:#f5f5f5"></rect><rect x="242.31" y="255.91" width="2.83" height="2.83" style="fill:#f5f5f5"></rect><rect x="242.31" y="260.66" width="2.83" height="2.83" style="fill:#f5f5f5"></rect><rect x="242.31" y="265.41" width="2.83" height="2.83" style="fill:#f5f5f5"></rect><rect x="242.31" y="270.16" width="2.83" height="2.83" style="fill:#f5f5f5"></rect><rect x="242.31" y="274.91" width="2.83" height="2.83" style="fill:#f5f5f5"></rect><rect x="242.31" y="279.66" width="2.83" height="2.83" style="fill:#f5f5f5"></rect><rect x="242.31" y="284.41" width="2.83" height="2.83" style="fill:#f5f5f5"></rect><rect x="242.31" y="293.91" width="2.83" height="2.83" style="fill:#f5f5f5"></rect><rect x="242.31" y="303.41" width="2.83" height="2.83" style="fill:#f5f5f5"></rect><rect x="242.31" y="308.16" width="2.83" height="2.83" style="fill:#f5f5f5"></rect><rect x="242.31" y="312.91" width="2.83" height="2.83" style="fill:#f5f5f5"></rect><rect x="242.31" y="317.66" width="2.83" height="2.83" style="fill:#f5f5f5"></rect><rect x="242.31" y="322.41" width="2.83" height="2.83" style="fill:#f5f5f5"></rect><rect x="269.65" y="249.74" width="2.83" height="2.83" style="fill:#f5f5f5"></rect><rect x="269.65" y="254.49" width="2.83" height="2.83" style="fill:#f5f5f5"></rect><rect x="269.65" y="259.24" width="2.83" height="2.83" style="fill:#f5f5f5"></rect><rect x="269.65" y="263.99" width="2.83" height="2.83" style="fill:#f5f5f5"></rect><rect x="269.65" y="268.74" width="2.83" height="2.83" style="fill:#f5f5f5"></rect><rect x="269.65" y="273.49" width="2.83" height="2.83" style="fill:#f5f5f5"></rect><rect x="269.65" y="287.74" width="2.83" height="2.83" style="fill:#f5f5f5"></rect><rect x="269.65" y="292.49" width="2.83" height="2.83" style="fill:#f5f5f5"></rect><rect x="269.65" y="297.24" width="2.83" height="2.83" style="fill:#f5f5f5"></rect><rect x="269.65" y="301.99" width="2.83" height="2.83" style="fill:#f5f5f5"></rect><rect x="269.65" y="306.74" width="2.83" height="2.83" style="fill:#f5f5f5"></rect><rect x="269.65" y="311.49" width="2.83" height="2.83" style="fill:#f5f5f5"></rect><rect x="269.65" y="316.24" width="2.83" height="2.83" style="fill:#f5f5f5"></rect><rect x="265.15" y="249.74" width="2.83" height="2.83" style="fill:#f5f5f5"></rect><rect x="265.15" y="254.49" width="2.83" height="2.83" style="fill:#f5f5f5"></rect><rect x="265.15" y="259.24" width="2.83" height="2.83" style="fill:#f5f5f5"></rect><rect x="265.15" y="263.99" width="2.83" height="2.83" style="fill:#f5f5f5"></rect><rect x="265.15" y="268.74" width="2.83" height="2.83" style="fill:#f5f5f5"></rect><rect x="265.15" y="273.49" width="2.83" height="2.83" style="fill:#f5f5f5"></rect><rect x="265.15" y="287.74" width="2.83" height="2.83" style="fill:#f5f5f5"></rect><rect x="265.15" y="292.49" width="2.83" height="2.83" style="fill:#f5f5f5"></rect><rect x="265.15" y="297.24" width="2.83" height="2.83" style="fill:#f5f5f5"></rect><rect x="265.15" y="301.99" width="2.83" height="2.83" style="fill:#f5f5f5"></rect><rect x="265.15" y="306.74" width="2.83" height="2.83" style="fill:#f5f5f5"></rect><rect x="265.15" y="311.49" width="2.83" height="2.83" style="fill:#f5f5f5"></rect><rect x="265.15" y="320.99" width="2.83" height="2.83" style="fill:#f5f5f5"></rect><rect x="115.65" y="228.83" width="2.83" height="2.83" style="fill:#f5f5f5"></rect><rect x="115.65" y="233.58" width="2.83" height="2.83" style="fill:#f5f5f5"></rect><rect x="115.65" y="238.33" width="2.83" height="2.83" style="fill:#f5f5f5"></rect><rect x="115.65" y="243.08" width="2.83" height="2.83" style="fill:#f5f5f5"></rect><rect x="115.65" y="247.83" width="2.83" height="2.83" style="fill:#f5f5f5"></rect><rect x="115.65" y="252.58" width="2.83" height="2.83" style="fill:#f5f5f5"></rect><rect x="115.65" y="257.33" width="2.83" height="2.83" style="fill:#f5f5f5"></rect><rect x="115.65" y="262.08" width="2.83" height="2.83" style="fill:#f5f5f5"></rect><rect x="115.65" y="266.83" width="2.83" height="2.83" style="fill:#f5f5f5"></rect><rect x="115.65" y="271.58" width="2.83" height="2.83" style="fill:#f5f5f5"></rect><rect x="115.65" y="276.33" width="2.83" height="2.83" style="fill:#f5f5f5"></rect><rect x="115.65" y="285.83" width="2.83" height="2.83" style="fill:#f5f5f5"></rect><rect x="115.65" y="290.58" width="2.83" height="2.83" style="fill:#f5f5f5"></rect><rect x="115.65" y="295.33" width="2.83" height="2.83" style="fill:#f5f5f5"></rect><rect x="115.65" y="300.08" width="2.83" height="2.83" style="fill:#f5f5f5"></rect><rect x="115.65" y="304.83" width="2.83" height="2.83" style="fill:#f5f5f5"></rect><rect x="115.65" y="309.58" width="2.83" height="2.83" style="fill:#f5f5f5"></rect><rect x="115.65" y="314.33" width="2.83" height="2.83" style="fill:#f5f5f5"></rect><rect x="115.65" y="319.08" width="2.83" height="2.83" style="fill:#f5f5f5"></rect><rect x="111.15" y="228.83" width="2.83" height="2.83" style="fill:#f5f5f5"></rect><rect x="111.15" y="233.58" width="2.83" height="2.83" style="fill:#f5f5f5"></rect><rect x="111.15" y="238.33" width="2.83" height="2.83" style="fill:#f5f5f5"></rect><rect x="111.15" y="243.08" width="2.83" height="2.83" style="fill:#f5f5f5"></rect><rect x="111.15" y="247.83" width="2.83" height="2.83" style="fill:#f5f5f5"></rect><rect x="111.15" y="252.58" width="2.83" height="2.83" style="fill:#f5f5f5"></rect><rect x="111.15" y="257.33" width="2.83" height="2.83" style="fill:#f5f5f5"></rect><rect x="111.15" y="262.08" width="2.83" height="2.83" style="fill:#f5f5f5"></rect><rect x="111.15" y="266.83" width="2.83" height="2.83" style="fill:#f5f5f5"></rect><rect x="111.15" y="271.58" width="2.83" height="2.83" style="fill:#f5f5f5"></rect><rect x="111.15" y="276.33" width="2.83" height="2.83" style="fill:#f5f5f5"></rect><rect x="111.15" y="281.08" width="2.83" height="2.83" style="fill:#f5f5f5"></rect><rect x="111.15" y="285.83" width="2.83" height="2.83" style="fill:#f5f5f5"></rect><rect x="111.15" y="290.58" width="2.83" height="2.83" style="fill:#f5f5f5"></rect><rect x="111.15" y="295.33" width="2.83" height="2.83" style="fill:#f5f5f5"></rect><rect x="111.15" y="300.08" width="2.83" height="2.83" style="fill:#f5f5f5"></rect><rect x="111.15" y="304.83" width="2.83" height="2.83" style="fill:#f5f5f5"></rect><rect x="111.15" y="309.58" width="2.83" height="2.83" style="fill:#f5f5f5"></rect><rect x="111.15" y="314.33" width="2.83" height="2.83" style="fill:#f5f5f5"></rect><rect x="111.15" y="319.08" width="2.83" height="2.83" style="fill:#f5f5f5"></rect><rect x="137.81" y="247.33" width="2.83" height="2.83" style="fill:#f5f5f5"></rect><rect x="137.81" y="252.08" width="2.83" height="2.83" style="fill:#f5f5f5"></rect><rect x="137.81" y="256.83" width="2.83" height="2.83" style="fill:#f5f5f5"></rect><rect x="137.81" y="261.58" width="2.83" height="2.83" style="fill:#f5f5f5"></rect><rect x="137.81" y="266.33" width="2.83" height="2.83" style="fill:#f5f5f5"></rect><rect x="137.81" y="271.08" width="2.83" height="2.83" style="fill:#f5f5f5"></rect><rect x="137.81" y="275.83" width="2.83" height="2.83" style="fill:#f5f5f5"></rect><rect x="137.81" y="280.58" width="2.83" height="2.83" style="fill:#f5f5f5"></rect><rect x="137.81" y="285.33" width="2.83" height="2.83" style="fill:#f5f5f5"></rect><rect x="137.81" y="290.08" width="2.83" height="2.83" style="fill:#f5f5f5"></rect><rect x="133.31" y="247.33" width="2.83" height="2.83" style="fill:#f5f5f5"></rect><rect x="133.31" y="252.08" width="2.83" height="2.83" style="fill:#f5f5f5"></rect><rect x="133.31" y="256.83" width="2.83" height="2.83" style="fill:#f5f5f5"></rect><rect x="133.31" y="261.58" width="2.83" height="2.83" style="fill:#f5f5f5"></rect><rect x="133.31" y="266.33" width="2.83" height="2.83" style="fill:#f5f5f5"></rect><rect x="133.31" y="271.08" width="2.83" height="2.83" style="fill:#f5f5f5"></rect><rect x="133.31" y="275.83" width="2.83" height="2.83" style="fill:#f5f5f5"></rect><rect x="133.31" y="280.58" width="2.83" height="2.83" style="fill:#f5f5f5"></rect><rect x="133.31" y="285.33" width="2.83" height="2.83" style="fill:#f5f5f5"></rect><rect x="158.16" y="67.07" width="4.76" height="265.77" style="fill:#f5f5f5"></rect><rect x="247.62" y="67.07" width="4.76" height="265.77" style="fill:#f5f5f5"></rect><rect x="337.08" y="67.07" width="4.76" height="265.77" style="fill:#f5f5f5"></rect><path d="M306.86,359h-77a9.41,9.41,0,0,0-9.41,9.41v4.23a9.41,9.41,0,0,0,9.41,9.41h93.24a9.42,9.42,0,0,0,9.41-9.41h0a9.42,9.42,0,0,0-9.41-9.42H308.24v-2.84A1.38,1.38,0,0,0,306.86,359Z" style="fill:#ebebeb"></path><path d="M247.49,359H229.85a9.41,9.41,0,0,0-9.41,9.41v4.23a9.41,9.41,0,0,0,9.41,9.41h33.87a9.41,9.41,0,0,0,9.41-9.41h0a9.41,9.41,0,0,0-9.41-9.42H248.87v-2.84A1.38,1.38,0,0,0,247.49,359Z" style="fill:#f5f5f5;isolation:isolate"></path><path d="M248.87,363.17l-10.06-.29-5-.12c-.85,0-1.65-.07-2.56,0a8.57,8.57,0,0,0-2.59.65,8.24,8.24,0,0,0-4.73,8.92,8.37,8.37,0,0,0,7.63,6.88c6.8.18,13.44.12,20.17.18l10.06.05a17.92,17.92,0,0,0,2.68-.08,6.43,6.43,0,0,0,2.75-1.11,6.61,6.61,0,0,0,.59-10.41,6.47,6.47,0,0,0-2.61-1.42,9.93,9.93,0,0,0-2.78-.24l-10.06,0c-6.71.05-13.41,0-20.12.16a3.49,3.49,0,0,0-2.86,1.23,3.3,3.3,0,0,0,1.63,5.28,4.9,4.9,0,0,0,1.46.12l1.26,0,10.06-.15c6.7-.19,13.41-.29,20.12-.54-6.71-.25-13.42-.36-20.12-.54l-10.06-.16a14,14,0,0,1-2.3-.11,1.8,1.8,0,0,1-1.18-1.22,1.76,1.76,0,0,1,2-2.2c6.71.13,13.41.1,20.12.15l10.06.05a7.78,7.78,0,0,1,2.21.19,4.28,4.28,0,0,1,1.75,1,4.51,4.51,0,0,1-2.25,7.82,18.68,18.68,0,0,1-2.34.08l-10.06.05-20.07.13a6.84,6.84,0,0,1-6.37-5.46,7,7,0,0,1,3.82-7.69,7.49,7.49,0,0,1,2.23-.68c.76-.08,1.64-.07,2.47-.1l5-.12Z" style="fill:#e0e0e0"></path><polygon points="308.24 363.17 248.87 363.17 308.24 360.98 308.24 363.17" style="fill:#e0e0e0"></polygon><circle cx="96.28" cy="324.55" r="57.45" transform="translate(-116.87 61.55) rotate(-22.5)" style="fill:#e6e6e6"></circle><path d="M154.36,361.75h3.91c4.43,0,8,4.53,8,10.12s-3.59,10.13-8,10.13h-3.91c-4.43,0-8-4.53-8-10.13S149.93,361.75,154.36,361.75Z" style="fill:#ebebeb"></path><ellipse cx="154.36" cy="371.87" rx="8.01" ry="10.13" style="fill:#f5f5f5;isolation:isolate"></ellipse><path d="M138.36,367.94h14.57c1.72,0,3.11,1.76,3.11,3.93s-1.39,3.94-3.11,3.94H138.36c-1.72,0-3.11-1.76-3.11-3.94S136.64,367.94,138.36,367.94Z" style="fill:#e0e0e0"></path><path d="M133.48,361.75h3.92c4.42,0,8,4.53,8,10.12s-3.59,10.13-8,10.13h-3.92c-4.42,0-8-4.53-8-10.13S129.06,361.75,133.48,361.75Z" style="fill:#ebebeb"></path><ellipse cx="133.48" cy="371.87" rx="8.01" ry="10.13" style="fill:#f5f5f5;isolation:isolate"></ellipse><path d="M426.41,349.65c-.16-1-3.65-25.18,3.36-33.51a7.59,7.59,0,0,1,5.82-2.87c14.15-.33,16.09,11,16.1,11.15l-1.67.26c-.06-.41-1.74-10-14.39-9.72a5.87,5.87,0,0,0-4.57,2.26c-6.53,7.76-3,31.93-3,32.18Z" style="fill:#ebebeb"></path><path d="M425.55,348.54l-1.69-.05c0-.22.56-22.25-10.29-26.8-10.64-4.46-15.42,4.71-15.62,5.1l-1.51-.76c.06-.11,5.67-11,17.78-5.9C426.15,325.13,425.58,347.59,425.55,348.54Z" style="fill:#ebebeb"></path><path d="M425.6,350.27c0-.35-.1-35.19-6.89-45.37-6.53-9.79-17-5.18-17.49-5l-.7-1.54c.12-.05,12.26-5.41,19.59,5.58,7.08,10.61,7.18,44.86,7.18,46.31Z" style="fill:#ebebeb"></path><path d="M437.61,314.11s-6.18,2.27-4.34,7.65S454.65,336,454.65,336s8.18-7.5.67-19.7S437.78,310.26,437.61,314.11Z" style="fill:#e0e0e0"></path><path d="M418.4,303.06s4.39-.47,4-3.14-17.05-9.55-26.9,1.57c0,0,6.3,10.84,15.43,11S418.4,303.06,418.4,303.06Z" style="fill:#e0e0e0"></path><path d="M413.9,320.91s3-2.44-.24-3.64-19.3-.85-19.47,15c0,0,18.67,3.11,21-2.94S413.9,320.91,413.9,320.91Z" style="fill:#e0e0e0"></path><polygon points="440.93 382 411.96 382 408.83 350.27 444.06 350.27 440.93 382" style="fill:#ebebeb"></polygon><rect x="407.28" y="346.77" width="38.32" height="7" style="fill:#e0e0e0"></rect></g><g id="freepik--Shadow--inject-20"><ellipse id="freepik--path--inject-20" cx="250" cy="416.24" rx="193.89" ry="11.32" style="fill:#f5f5f5"></ellipse></g><g id="freepik--Screen--inject-20"><path d="M434.9,84.12v288a4.2,4.2,0,0,1-4.27,4.21h-134a3.74,3.74,0,0,1-2.68-1.07,3.88,3.88,0,0,1-1.14-2.79V83.77a3.4,3.4,0,0,1,3.27-3.53h38.06A2.68,2.68,0,0,1,336.58,82l1.57,3.88a2.67,2.67,0,0,0,2.45,1.7h46.58a2.66,2.66,0,0,0,2.45-1.67L391.2,82a2.69,2.69,0,0,1,2.45-1.72h37.51A3.84,3.84,0,0,1,434.9,84.12Z" style="fill:#407BFF"></path><rect x="310.47" y="89.2" width="1.98" height="2.64" transform="translate(622.91 181.04) rotate(180)" style="fill:#fff;opacity:0.6000000000000001;isolation:isolate"></rect><rect x="307.24" y="88.32" width="1.98" height="3.52" transform="translate(616.46 180.16) rotate(180)" style="fill:#fff;opacity:0.6000000000000001;isolation:isolate"></rect><rect x="304.01" y="87.44" width="1.98" height="4.4" transform="translate(610.01 179.28) rotate(180)" style="fill:#fff;opacity:0.6000000000000001;isolation:isolate"></rect><rect x="300.79" y="86.56" width="1.98" height="5.28" transform="translate(603.55 178.4) rotate(180)" style="fill:#fff;opacity:0.6000000000000001;isolation:isolate"></rect><rect x="415.58" y="88.24" width="1.17" height="2.64" style="fill:#fff;opacity:0.6000000000000001;isolation:isolate"></rect><rect x="417.56" y="87.27" width="9.35" height="4.57" transform="translate(844.48 179.11) rotate(180)" style="fill:#fff;opacity:0.6000000000000001;isolation:isolate"></rect><rect x="300.12" y="176.95" width="117.45" height="33.11" rx="3.33" style="fill:#fff;opacity:0.2;isolation:isolate"></rect><g style="opacity:0.5"><path d="M406.15,186.83h-61.5a1.27,1.27,0,0,1-1.27-1.27h0a1.27,1.27,0,0,1,1.27-1.26h61.5a1.27,1.27,0,0,1,1.27,1.26h0A1.27,1.27,0,0,1,406.15,186.83Z" style="fill:#fff"></path><path d="M376.15,194.77h-31.5a1.26,1.26,0,0,1-1.27-1.26h0a1.27,1.27,0,0,1,1.27-1.27h31.5a1.27,1.27,0,0,1,1.27,1.27h0A1.26,1.26,0,0,1,376.15,194.77Z" style="fill:#fff"></path><path d="M398.15,202.72h-53.5a1.27,1.27,0,0,1-1.27-1.27h0a1.27,1.27,0,0,1,1.27-1.26h53.5a1.27,1.27,0,0,1,1.27,1.26h0A1.27,1.27,0,0,1,398.15,202.72Z" style="fill:#fff"></path></g><rect x="300.12" y="256.95" width="117.45" height="33.11" rx="3.33" style="fill:#fff;opacity:0.2;isolation:isolate"></rect><g style="opacity:0.5"><path d="M386.15,266.83h-41.5a1.27,1.27,0,0,1-1.27-1.27h0a1.27,1.27,0,0,1,1.27-1.26h41.5a1.27,1.27,0,0,1,1.27,1.26h0A1.27,1.27,0,0,1,386.15,266.83Z" style="fill:#fff"></path><path d="M406.15,274.77h-61.5a1.26,1.26,0,0,1-1.27-1.26h0a1.27,1.27,0,0,1,1.27-1.27h61.5a1.27,1.27,0,0,1,1.27,1.27h0A1.26,1.26,0,0,1,406.15,274.77Z" style="fill:#fff"></path><path d="M398.15,282.72h-53.5a1.27,1.27,0,0,1-1.27-1.27h0a1.26,1.26,0,0,1,1.27-1.26h53.5a1.26,1.26,0,0,1,1.27,1.26h0A1.27,1.27,0,0,1,398.15,282.72Z" style="fill:#fff"></path></g><rect x="300.12" y="216.95" width="117.45" height="33.11" rx="3.33" style="fill:#fff;opacity:0.2;isolation:isolate"></rect><g style="opacity:0.5"><path d="M396.15,226.83h-51.5a1.27,1.27,0,0,1-1.27-1.27h0a1.27,1.27,0,0,1,1.27-1.26h51.5a1.27,1.27,0,0,1,1.27,1.26h0A1.27,1.27,0,0,1,396.15,226.83Z" style="fill:#fff"></path><path d="M406.15,234.77h-61.5a1.26,1.26,0,0,1-1.27-1.26h0a1.27,1.27,0,0,1,1.27-1.27h61.5a1.27,1.27,0,0,1,1.27,1.27h0A1.26,1.26,0,0,1,406.15,234.77Z" style="fill:#fff"></path><path d="M368.15,242.72h-23.5a1.27,1.27,0,0,1-1.27-1.27h0a1.26,1.26,0,0,1,1.27-1.26h23.5a1.26,1.26,0,0,1,1.27,1.26h0A1.27,1.27,0,0,1,368.15,242.72Z" style="fill:#fff"></path></g><path d="M329.12,242.28c4.53-5.78-.19-11.75-.19-11.75a9.69,9.69,0,0,1-.49,3.41c-1.24-8-9.56-12-9.56-12,1.36,2,1.12,5.36,1.12,5.36a4.87,4.87,0,0,0-2.47-3.69,7.78,7.78,0,0,1-2.56,6,8.74,8.74,0,0,0-3,6.91c-1.06-1.32-.69-3.93-.69-3.93a8.2,8.2,0,0,0,.16,9.82,5.73,5.73,0,0,1-2.81-1.34s1,4.07,4.89,4.07h13.93c3.7,0,5-4.84,5-4.84A9.78,9.78,0,0,1,329.12,242.28Zm-8.19,2a5.66,5.66,0,0,1-1.37-3.41,5,5,0,0,0,0,3.41,4.78,4.78,0,0,1-4-3.41,3.35,3.35,0,0,0,1.43.68s-1.31-1.43.18-4.34,3-2.94,3.32-4.85c0,0,2.39,2.67,2,5.34a5.69,5.69,0,0,0,.74-2.56s2.12,3.25.87,6.35a2.79,2.79,0,0,0,1.43-1.06A4.47,4.47,0,0,1,320.93,244.31Z" style="fill:#fff;isolation:isolate"></path><rect x="300.12" y="136.95" width="117.45" height="33.11" rx="3.33" style="fill:#fff;opacity:0.2;isolation:isolate"></rect><g style="opacity:0.5"><path d="M386.15,146.83h-41.5a1.27,1.27,0,0,1-1.27-1.27h0a1.27,1.27,0,0,1,1.27-1.26h41.5a1.27,1.27,0,0,1,1.27,1.26h0A1.27,1.27,0,0,1,386.15,146.83Z" style="fill:#fff"></path><path d="M406.15,154.77h-61.5a1.26,1.26,0,0,1-1.27-1.26h0a1.27,1.27,0,0,1,1.27-1.27h61.5a1.27,1.27,0,0,1,1.27,1.27h0A1.26,1.26,0,0,1,406.15,154.77Z" style="fill:#fff"></path><path d="M398.15,162.72h-53.5a1.27,1.27,0,0,1-1.27-1.27h0a1.27,1.27,0,0,1,1.27-1.26h53.5a1.27,1.27,0,0,1,1.27,1.26h0A1.27,1.27,0,0,1,398.15,162.72Z" style="fill:#fff"></path></g><path d="M312.58,152l1.45-2.7a.52.52,0,0,1,.46-.27.52.52,0,0,1,.44.3l2,4.6,1.44-3.88a.51.51,0,0,1,.46-.33.49.49,0,0,1,.47.31l1.3,3,1.43-3.7a.51.51,0,0,1,.47-.32h0a.51.51,0,0,1,.47.32l1.67,4.42,1.24-3.8a.48.48,0,0,1,.43-.34.52.52,0,0,1,.49.26l1.05,2H333a8.06,8.06,0,0,0-1-6.47c-2.91-4.76-8.5-2.95-11.4.73-2.88-3.7-8.46-5.55-11.4-.81a8.12,8.12,0,0,0-1,6.65Z" style="fill:#fff;isolation:isolate"></path><path d="M327.52,152.88a.49.49,0,0,1-.44-.27l-.64-1.22-1.31,4a.5.5,0,0,1-.46.35.51.51,0,0,1-.48-.32l-1.72-4.52-1.4,3.63a.5.5,0,0,1-.93,0l-1.29-3-1.44,3.87a.51.51,0,0,1-.46.33h0a.51.51,0,0,1-.46-.3l-2.06-4.79-1.09,2.05a.5.5,0,0,1-.45.27h-4.43c1.88,4.8,7.45,8.77,10.65,10.71.54.34,1,.62,1.37.83.37-.21.82-.48,1.37-.82,3.25-1.95,9-5.95,10.79-10.82Z" style="fill:#fff;isolation:isolate"></path><rect x="300.12" y="296.95" width="117.45" height="33.11" rx="3.33" style="fill:#fff;opacity:0.2;isolation:isolate"></rect><g style="opacity:0.5"><path d="M386.15,306.83h-41.5a1.27,1.27,0,0,1-1.27-1.27h0a1.27,1.27,0,0,1,1.27-1.26h41.5a1.27,1.27,0,0,1,1.27,1.26h0A1.27,1.27,0,0,1,386.15,306.83Z" style="fill:#fff"></path><path d="M406.15,314.77h-61.5a1.26,1.26,0,0,1-1.27-1.26h0a1.27,1.27,0,0,1,1.27-1.27h61.5a1.27,1.27,0,0,1,1.27,1.27h0A1.26,1.26,0,0,1,406.15,314.77Z" style="fill:#fff"></path><path d="M398.15,322.72h-53.5a1.27,1.27,0,0,1-1.27-1.27h0a1.26,1.26,0,0,1,1.27-1.26h53.5a1.26,1.26,0,0,1,1.27,1.26h0A1.27,1.27,0,0,1,398.15,322.72Z" style="fill:#fff"></path></g><path d="M330,321.47V302l-1.55.69-7.17,3.19L314,302.71l-1.55-.68v16.59a3.42,3.42,0,0,0-1.92-.58,3.48,3.48,0,1,0,3.48,3.48s0,0,0,0V309l7.28,3.19,7.17-3.19v9.6a3.42,3.42,0,0,0-1.92-.58,3.48,3.48,0,1,0,3.48,3.48S330,321.49,330,321.47Z" style="fill:#fff"></path><rect x="300.12" y="106.32" width="127.45" height="22.78" style="fill:#fff;opacity:0.5;isolation:isolate"></rect><circle cx="313.11" cy="117.62" r="8.43" style="opacity:0.30000000000000004;isolation:isolate"></circle><g style="opacity:0.5"><path d="M392.26,115h-61.5a1.27,1.27,0,0,1-1.27-1.27h0a1.27,1.27,0,0,1,1.27-1.26h61.5a1.26,1.26,0,0,1,1.26,1.26h0A1.26,1.26,0,0,1,392.26,115Z" style="fill:#fff"></path><path d="M384.26,122.9h-53.5a1.27,1.27,0,0,1-1.27-1.27h0a1.27,1.27,0,0,1,1.27-1.27h53.5a1.26,1.26,0,0,1,1.26,1.27h0A1.26,1.26,0,0,1,384.26,122.9Z" style="fill:#fff"></path></g><g style="opacity:0.4"><path d="M422.92,110a.84.84,0,0,1-1.68,0,.84.84,0,0,1,1.68,0Z" style="fill:#fff"></path><path d="M422.92,113a.84.84,0,0,1-1.68,0,.84.84,0,0,1,1.68,0Z" style="fill:#fff"></path><path d="M422.92,116a.84.84,0,0,1-1.68,0,.84.84,0,0,1,1.68,0Z" style="fill:#fff"></path></g><rect x="422.08" y="136.95" width="5.49" height="193.11" style="opacity:0.30000000000000004;isolation:isolate"></rect><path d="M424.83,159.7h0a2.75,2.75,0,0,1-2.75-2.74V146.68a2.75,2.75,0,0,1,2.75-2.75h0a2.75,2.75,0,0,1,2.74,2.75V157A2.74,2.74,0,0,1,424.83,159.7Z" style="fill:#407BFF"></path><path d="M424.83,159.7h0a2.75,2.75,0,0,1-2.75-2.74V146.68a2.75,2.75,0,0,1,2.75-2.75h0a2.75,2.75,0,0,1,2.74,2.75V157A2.74,2.74,0,0,1,424.83,159.7Z" style="fill:#fff;opacity:0.2;isolation:isolate"></path><path d="M300.12,336.88H427.57a0,0,0,0,1,0,0v30.3a3.08,3.08,0,0,1-3.08,3.08H303.2a3.08,3.08,0,0,1-3.08-3.08v-30.3A0,0,0,0,1,300.12,336.88Z" style="opacity:0.30000000000000004;isolation:isolate"></path><g style="opacity:0.2;isolation:isolate"><path d="M398.71,354.68H329a1.27,1.27,0,0,1-1.27-1.27h0a1.26,1.26,0,0,1,1.27-1.26h69.72a1.25,1.25,0,0,1,1.26,1.26h0A1.26,1.26,0,0,1,398.71,354.68Z" style="fill:#fff"></path><path d="M380.49,362.27H347.21a1.26,1.26,0,0,1-1.27-1.26h0a1.27,1.27,0,0,1,1.27-1.27h33.28a1.27,1.27,0,0,1,1.27,1.27h0A1.26,1.26,0,0,1,380.49,362.27Z" style="fill:#fff"></path></g><g style="opacity:0.1;isolation:isolate"><path d="M356.73,87.53,315.82,240.76h0l-.46,1.72h0l-.74,2.76h0l-.46,1.72L292.8,327V230.16l40-149.92h1.31A2.68,2.68,0,0,1,336.58,82l1.57,3.88a2.67,2.67,0,0,0,2.45,1.7Z" style="fill:#fff"></path><polygon points="434.9 165.78 434.9 262.62 409.38 358.19 408.77 360.51 404.56 376.28 378.71 376.28 382.91 360.52 383.59 357.99 386.97 345.33 387.64 342.8 389 337.73 389.67 335.2 391.02 330.13 391.69 327.6 412.96 247.94 412.96 247.94 413.95 244.26 413.95 244.25 434.9 165.78" style="fill:#fff"></polygon><path d="M370.74,87.53,330.08,239.8l-.24.91-2.23,8.35-.24.91L293.94,375.21a3.88,3.88,0,0,1-1.14-2.79V357.69L321.56,250l.24-.91,2.23-8.35.24-.91L364.92,87.53Z" style="fill:#fff"></path></g><rect x="318.64" y="181.92" width="3.76" height="1.71" rx="0.43" style="fill:#fff"></rect><path d="M320.52,184.53a10.29,10.29,0,1,0,10.28,10.28A10.29,10.29,0,0,0,320.52,184.53Zm4.88,6.58-4.55,4.07a.46.46,0,0,1-.33.13.52.52,0,0,1-.21,0,.5.5,0,0,1-.29-.46v-8.14a.5.5,0,0,1,.5-.5.5.5,0,0,1,.5.5v7l3.71-3.32a.5.5,0,1,1,.67.74Z" style="fill:#fff"></path><path d="M322.88,274.83V263.64a2.11,2.11,0,0,0-2.11-2.11h0a2.1,2.1,0,0,0-2.11,2.11v11.19a5.54,5.54,0,1,0,4.22,0Z" style="fill:#fff"></path><path d="M317.47,263.63h-2.24a.5.5,0,0,1,0-1h2.24a.5.5,0,0,1,0,1Z" style="fill:#fff"></path><path d="M317.47,266.1h-2.24a.5.5,0,0,1-.5-.5.5.5,0,0,1,.5-.5h2.24a.5.5,0,0,1,.5.5A.5.5,0,0,1,317.47,266.1Z" style="fill:#fff"></path><path d="M317.47,268.58h-2.24a.5.5,0,0,1-.5-.5.5.5,0,0,1,.5-.5h2.24a.5.5,0,0,1,.5.5A.5.5,0,0,1,317.47,268.58Z" style="fill:#fff"></path><path d="M317.47,271.05h-2.24a.5.5,0,0,1,0-1h2.24a.5.5,0,0,1,0,1Z" style="fill:#fff"></path><path d="M317.47,273.52h-2.24a.5.5,0,0,1,0-1h2.24a.5.5,0,0,1,0,1Z" style="fill:#fff"></path></g><g id="freepik--Character--inject-20"><g id="freepik--group--inject-20"><path d="M167.56,201.84c-1.44-1.56.6-3.24,0-5.41s-5-8.21-5.63-9.07-9.42,5.2-9.36,6.47,4.95,9.85,10,12.52Z" style="fill:#ebb376"></path><path d="M185.38,179.4s-4.92,29.57-5.42,30-12-5.9-15.74-10.68l-4.84,5.24s15.52,18.89,26,18.89c5.14,0,10-38.74,10-38.74Z" style="fill:#ebb376"></path><path d="M210.68,348.26c1.7,9.44,3.51,21.43,5.19,36.85l-8.43.62s-4.92-16.66-9.9-34.81c-4.82-17.48-9.69-36.33-10.29-43-1.23-13.56,28.4-59.09,28.4-59.09l24.22,2.23c-3.3,8.55-35.55,51.73-36.63,59.6C202.45,316.36,206.23,323.66,210.68,348.26Z" style="fill:#ebb376"></path><path d="M215.87,385.11l-8.43.62s-2.11-7.14-5-17.16l11.07-2.2C214.34,372,215.12,378.2,215.87,385.11Z" style="fill:#407BFF"></path><path d="M215.87,385.11l-8.43.62s-2.11-7.14-5-17.16l11.07-2.2C214.34,372,215.12,378.2,215.87,385.11Z" style="opacity:0.2;isolation:isolate"></path><path d="M214.4,372.69l-10.2,1.89-.62-2.16,10.5-2.17C214.19,371.05,214.3,371.87,214.4,372.69Z" style="fill:#fff;opacity:0.7000000000000001;isolation:isolate"></path><path d="M215.87,385.11l-8.43.62s-1.14-3.87-2.88-9.89l10-1.95Q215.23,379.17,215.87,385.11Z" style="fill:#fff;opacity:0.7000000000000001;isolation:isolate"></path><path d="M322.61,311.23l-.39,7.95s-8.48-.42-19.84-1.28l-3.34-.26c-21.35-1.68-50.28-4.77-54.09-9.3-6.13-7.28-33.57-60.4-33.57-60.4l28.3-1.83S253,294,257.05,296.06c3.35,1.66,14.31,2,43.26,9.22l3.28.82C309.26,307.54,315.58,309.23,322.61,311.23Z" style="fill:#ebb376"></path><path d="M228.5,286.07s15.51-4.22,23.92-10.14l-8.55-29.82-31.72,10.73Z" style="fill:#263238"></path><path d="M228.5,286.07s15.51-4.22,23.92-10.14l-8.55-29.82-31.72,10.73Z" style="opacity:0.2;isolation:isolate"></path><path d="M206.64,384l9.54-.31a.7.7,0,0,1,.69.52l1.77,6.95a1.16,1.16,0,0,1-.85,1.4,1.09,1.09,0,0,1-.26,0c-3.09,0-5.34-.07-9.22.06-2.39.07-9.59.55-12.88.66s-3.84-3.14-2.5-3.49c6-1.51,10.52-3.48,12.4-5.28A1.89,1.89,0,0,1,206.64,384Z" style="fill:#263238"></path><path d="M204.08,385.47a2.39,2.39,0,0,1-1.52-.35,1.12,1.12,0,0,1-.42-1,.54.54,0,0,1,.3-.53c.86-.48,3.44,1,3.73,1.17a.15.15,0,0,1,.09.18.18.18,0,0,1-.13.16A9.58,9.58,0,0,1,204.08,385.47Zm-1.22-1.59a.4.4,0,0,0-.24.05c-.05,0-.11.08-.11.23a.76.76,0,0,0,.27.66,3.81,3.81,0,0,0,2.8.05A7.55,7.55,0,0,0,202.86,383.88Z" style="fill:#263238"></path><path d="M206.08,385.12H206c-.82-.42-2.45-2.1-2.31-2.93a.6.6,0,0,1,.58-.51,1,1,0,0,1,.8.21c.93.71,1.19,3,1.21,3.08a.2.2,0,0,1-.09.17A.19.19,0,0,1,206.08,385.12ZM204.4,382h-.09c-.24,0-.26.15-.26.2-.09.51.95,1.79,1.78,2.37a4.39,4.39,0,0,0-1-2.43A.58.58,0,0,0,204.4,382Z" style="fill:#263238"></path><path d="M197.5,277.41a50.26,50.26,0,0,0,27.84,4.74s2.08-2.83,5.32-7.2C241.31,260.59,249.12,246,243.87,226l-41.4,7.19h0l7.83,20.81A248.79,248.79,0,0,0,197.5,277.41Z" style="fill:#263238"></path><path d="M202.44,233.24l7.83,20.81a93.46,93.46,0,0,1,6.91-11.19c-.27.15-4.59,2.53-5.56,3.83,0,0-4.85-4-9.15-13.46Z" style="opacity:0.2;isolation:isolate"></path><path d="M322.61,311.23l-.39,7.95s-8.48-.42-19.84-1.28l1.21-11.8C309.26,307.54,315.58,309.23,322.61,311.23Z" style="fill:#407BFF"></path><path d="M322.61,311.23l-.39,7.95s-8.48-.42-19.84-1.28l1.21-11.8C309.26,307.54,315.58,309.23,322.61,311.23Z" style="opacity:0.2;isolation:isolate"></path><path d="M309.28,307.57,307.1,307l-1.43,11.14,2.4.17Z" style="fill:#fff;opacity:0.7000000000000001;isolation:isolate"></path><path d="M310.38,307.86,309,318.38c7.87.53,13.22.8,13.22.8l.39-7.95C318.27,310,314.19,308.88,310.38,307.86Z" style="fill:#fff;opacity:0.7000000000000001;isolation:isolate"></path><path d="M321.29,319.66l-.3-9.31a.66.66,0,0,1,.49-.69l6.66-1.57a1.18,1.18,0,0,1,1.36,1,1,1,0,0,1,0,.24c.05,3.21,0,4.88.07,8.93.08,2.48-.33,12.58-1.8,15.53s-4.34,1.69-4.09.28c1.27-7.1-.16-11-1.9-13A2.27,2.27,0,0,1,321.29,319.66Z" style="fill:#263238"></path><path d="M322.7,322.38a2.6,2.6,0,0,1-.34,1.57,1,1,0,0,1-.93.4.64.64,0,0,1-.53-.31c-.45-.92,1-3.56,1.12-3.85a.15.15,0,0,1,.17-.09.18.18,0,0,1,.15.15A11,11,0,0,1,322.7,322.38Zm-1.53,1.21a.54.54,0,0,0,.06.25.22.22,0,0,0,.2.13.68.68,0,0,0,.65-.26,4.28,4.28,0,0,0,0-2.91A8.17,8.17,0,0,0,321.17,323.59Z" style="fill:#263238"></path><path d="M322.37,320.28l-.05.08c-.39.84-2,2.47-2.85,2.29A.62.62,0,0,1,319,322a1.08,1.08,0,0,1,.19-.82c.7-.95,2.87-1.13,3-1.12a.15.15,0,0,1,.16.1A.13.13,0,0,1,322.37,320.28Zm-3,1.63V322c0,.25.14.27.19.29.49.1,1.71-.94,2.27-1.77a4,4,0,0,0-2.33.94.67.67,0,0,0-.14.45Z" style="fill:#263238"></path><path d="M197.68,191.89c-.62,1.21-1,1.93-1,1.93l-9.78-3.17-6.9-2.24a83.21,83.21,0,0,1,5.67-15.83c4.48-9.61,12.52-9.92,16.92-2C205.43,175.83,200.05,187.32,197.68,191.89Z" style="fill:#407BFF"></path><path d="M197.68,191.89c-.62,1.21-1,1.93-1,1.93l-9.78-3.17-6.9-2.24a83.21,83.21,0,0,1,5.67-15.83c4.48-9.61,12.52-9.92,16.92-2C205.43,175.83,200.05,187.32,197.68,191.89Z" style="fill:#fff;opacity:0.6000000000000001;isolation:isolate"></path><path d="M197.68,191.89c-.62,1.21-1,1.93-1,1.93l-9.78-3.17a26.41,26.41,0,0,1,5.93-11.25Z" style="opacity:0.2;isolation:isolate"></path><path d="M243.87,226c-6.07,1.07-29,5.07-41.43,7.2-12-31-12.37-52.73-11.74-62a8,8,0,0,1,5.13-6.94c1.44-.55,3.11-1.16,4.89-1.71.7-.17,1.38-.41,2.09-.59a154.55,154.55,0,0,1,17.62-3.07c1.11-.14,2.26-.25,3.37-.34a102.56,102.56,0,0,1,10.8-.36,177,177,0,0,0,.51,18.28q.31,4,.82,8c.59,4.93,1.33,9.64,2.13,14,.18,1,.37,2,.56,3C240.94,213.75,243.46,222.83,243.87,226Z" style="fill:#407BFF"></path><path d="M243.87,226c-6.07,1.07-29,5.07-41.43,7.2-12-31-12.37-52.73-11.74-62a8,8,0,0,1,5.13-6.94c1.44-.55,3.11-1.16,4.89-1.71.7-.17,1.38-.41,2.09-.59a154.55,154.55,0,0,1,17.62-3.07c1.11-.14,2.26-.25,3.37-.34a102.56,102.56,0,0,1,10.8-.36,177,177,0,0,0,.51,18.28q.31,4,.82,8c.59,4.93,1.33,9.64,2.13,14,.18,1,.37,2,.56,3C240.94,213.75,243.46,222.83,243.87,226Z" style="fill:#fff;opacity:0.6000000000000001;isolation:isolate"></path><path d="M238.06,198.57c-7.44-6.83-9.45-26.15-9.45-26.15l6.5,4.1q.31,4,.82,8C236.52,189.49,237.26,194.2,238.06,198.57Z" style="opacity:0.2;isolation:isolate"></path><path d="M215.23,139.36c-.12,5.87.57,16.44,5.19,19.53a17.84,17.84,0,0,1-12.64,7.76c-4.89.74-5.73-2.62-5-4.7,6.07-2.6,5.09-7.26,3.22-11.48Z" style="fill:#ebb376"></path><path d="M211.48,143.9,206,150.46a20.38,20.38,0,0,1,1.09,3c2.35-.77,5.19-4,5-6.56A8.55,8.55,0,0,0,211.48,143.9Z" style="opacity:0.2;isolation:isolate"></path><path d="M192.31,126.05s-2.79,2.11-1.79,4.49,4.41,2.22,4.41,2.22V126Z" style="fill:#263238"></path><path d="M214.43,130.72c.88,7.74,1.76,12.24-1.45,16.83-4.79,6.94-14.88,5.07-18.06-2.27-2.85-6.61-3.77-18.19,3.21-22.54a10.65,10.65,0,0,1,16.3,8Z" style="fill:#ebb376"></path><path d="M203.16,134.88c.15.62-.13,1.19-.55,1.26s-.82-.38-.93-1,.14-1.19.54-1.26S203.05,134.25,203.16,134.88Z" style="fill:#263238"></path><path d="M196.1,136.11c.15.61-.14,1.19-.55,1.26s-.82-.39-.94-1,.14-1.19.55-1.26S196,135.52,196.1,136.11Z" style="fill:#263238"></path><path d="M198.39,136a22.55,22.55,0,0,1-2,5.86,3.69,3.69,0,0,0,3.1,0Z" style="fill:#d58745"></path><path d="M205,132.22a.41.41,0,0,1-.38-.08,3,3,0,0,0-2.56-.83.37.37,0,0,1-.45-.26.38.38,0,0,1,.27-.45h0a3.67,3.67,0,0,1,3.24,1,.37.37,0,0,1,0,.52h0A.56.56,0,0,1,205,132.22Z" style="fill:#263238"></path><path d="M202.85,144.27h0a5.7,5.7,0,0,0,3.89-3.55.2.2,0,0,0-.13-.25.21.21,0,0,0-.25.12h0a5.45,5.45,0,0,1-3.63,3.29.19.19,0,0,0-.14.23v0a.19.19,0,0,0,.23.14Z" style="fill:#263238"></path><path d="M192.64,134.2a.31.31,0,0,1-.21.05.36.36,0,0,1-.26-.45h0a3.69,3.69,0,0,1,2.28-2.52.36.36,0,0,1,.46.25h0a.37.37,0,0,1-.24.46h0a3,3,0,0,0-1.78,2A.37.37,0,0,1,192.64,134.2Z" style="fill:#263238"></path><path d="M224.75,131.82a5.37,5.37,0,0,0,1.88-4.64,4.08,4.08,0,0,0-3.15-3.76,3.42,3.42,0,0,0,1.76-3.5c-.29-2.51-5.59-3.82-5.59-3.82s1.34-2.08-3-3.66a8.57,8.57,0,0,0-7.55.69s-.17-2-4.42-1.88-4.75,3.46-4.75,3.46-2.57-2-5.33.8-1.08,6.62-1.08,6.62-3.8-1-4.14,2.23c-.38,3.56,4.34,4.22,4.34,4.22a16.77,16.77,0,0,1,13-2.93c.12,9.12,7,11.72,7,11.72a20,20,0,0,1,1.5,9.65,11.66,11.66,0,0,0,3.07-2.8,5.65,5.65,0,0,0,3.86-1.85c1.48-2,.09-3,.09-3a6.88,6.88,0,0,0,3.66-4.26C226.63,132.14,224.75,131.82,224.75,131.82Z" style="fill:#263238"></path><path d="M219.36,138.58a7.43,7.43,0,0,1-4,4c-2.41,1-3.91-1.1-3.5-3.53.39-2.15,2.09-5.33,4.63-5.26S220.25,136.34,219.36,138.58Z" style="fill:#ebb376"></path><path d="M192.15,130l.16-3.94c2.28-3.37,21.06-6.34,29,5.34l-.87,2.41S203.2,124.06,192.15,130Z" style="fill:#407BFF"></path><path d="M214.66,129.34a32.43,32.43,0,0,0-8.6-2.69,24.36,24.36,0,0,0-8.89.08,17,17,0,0,0-4.22,1.38c-.25.11-.49.24-.74.37l-.06,1.51c11-5.93,28.27,3.81,28.27,3.81l.31-.87A39.05,39.05,0,0,0,214.66,129.34Z" style="fill:#fff;opacity:0.6000000000000001;isolation:isolate"></path><path d="M196.78,125a21.14,21.14,0,0,1,4.81-.56h1.21l1.2.09a19.29,19.29,0,0,1,2.39.31,30.43,30.43,0,0,1,9,3.13,32.24,32.24,0,0,1,5.75,3.92l.17-.46c-7.92-11.68-26.7-8.71-29-5.34l0,.61A18.69,18.69,0,0,1,196.78,125Z" style="fill:#fff;opacity:0.6000000000000001;isolation:isolate"></path><path d="M214.79,137c.37-.56,1.45-1.12,1.78,0s-1.07,1.78-1.32,1.78l-1.05.93-.46-.6.92-1.09A1.39,1.39,0,0,1,214.79,137Z" style="fill:#407BFF"></path><path d="M231.92,173.5c3.07,4.27,6.24,8.41,9.45,12.52s6.54,8.17,9.88,12.18l1.26,1.51.63.76.08.09h0a.72.72,0,0,1-.12-.21,1.62,1.62,0,0,1-.2-.42c-.19-.61-.07-.87-.06-.8a1.66,1.66,0,0,1-.1.7,13.33,13.33,0,0,1-1.21,2.63,34.58,34.58,0,0,1-1.84,2.95c-2.73,4-6.05,8-9.31,11.83l3.9,4.53a75.69,75.69,0,0,0,12.59-10.47c1-1,1.92-2.13,2.84-3.32a23.82,23.82,0,0,0,2.57-4.21,13,13,0,0,0,1-3,8.83,8.83,0,0,0-.38-4.64,9.21,9.21,0,0,0-.62-1.31l-.41-.61-.18-.25-.57-.8L260,191.53q-4.55-6.37-9.14-12.65c-3.09-4.18-6.21-8.36-9.36-12.45Z" style="fill:#ebb376"></path><path d="M243.1,214.25c-1.54,1.46-3.24-.57-5.4.08s-8.16,5.11-9,5.72,5.29,9.36,6.56,9.29,9.8-5,12.41-10.16Z" style="fill:#ebb376"></path><path d="M242.67,214.06a8.65,8.65,0,0,1,5,6l1.81-1.28s0-4.56-5.29-6.56Z" style="fill:#263238"></path><path d="M244.32,214.6l1.43-1.51a.64.64,0,0,1,.78-.12,6.4,6.4,0,0,1,2.92,3.91.66.66,0,0,1-.21.67l-1.49,1.25a.63.63,0,0,1-.95-.17,13.12,13.12,0,0,0-2.43-3.13A.63.63,0,0,1,244.32,214.6Z" style="fill:#263238"></path><path d="M244.32,214.6l1.43-1.51a.64.64,0,0,1,.78-.12,6.4,6.4,0,0,1,2.92,3.91.66.66,0,0,1-.21.67l-1.49,1.25a.63.63,0,0,1-.95-.17,13.12,13.12,0,0,0-2.43-3.13A.63.63,0,0,1,244.32,214.6Z" style="fill:#fff;opacity:0.2"></path><path d="M247.34,218.45a.13.13,0,0,1-.11-.07,13.52,13.52,0,0,0-2.52-3.25.14.14,0,0,1-.06-.11l1.47-1.59a.1.1,0,0,1,.09,0A5.79,5.79,0,0,1,249,217a.17.17,0,0,1-.05.15l-1.49,1.24Z" style="fill:#407BFF"></path><path d="M234.6,158.24c5.38,0,17.94,21.16,17.94,21.16l-10.78,9.29c-4.12-3.82-11.9-10.13-15.16-14.71C220.37,165.4,225.5,158.23,234.6,158.24Z" style="fill:#407BFF"></path><path d="M234.6,158.24c5.38,0,17.94,21.16,17.94,21.16l-10.78,9.29c-4.12-3.82-11.9-10.13-15.16-14.71C220.37,165.4,225.5,158.23,234.6,158.24Z" style="fill:#fff;opacity:0.6000000000000001;isolation:isolate"></path><path d="M231.3,179.21a27.05,27.05,0,0,1,13.77-11.83l4.45,6.53s-8.06,4.84-12.51,11C237,184.88,231.43,180.12,231.3,179.21Z" style="fill:#263238"></path><path d="M234.62,168.61l4.7-3.51a1.09,1.09,0,0,1,1.51.21L249.05,176a1.08,1.08,0,0,1-.2,1.51l-4.55,3.57a1.09,1.09,0,0,1-1.53-.19l-8.36-10.77A1.08,1.08,0,0,1,234.62,168.61Z" style="fill:#263238"></path><path d="M234.62,168.61l4.7-3.51a1.09,1.09,0,0,1,1.51.21L249.05,176a1.08,1.08,0,0,1-.2,1.51l-4.55,3.57a1.09,1.09,0,0,1-1.53-.19l-8.36-10.77A1.08,1.08,0,0,1,234.62,168.61Z" style="fill:#fff;opacity:0.2"></path><path d="M243.63,180.83a.56.56,0,0,1-.46-.23l-8.37-10.76a.59.59,0,0,1-.11-.44.55.55,0,0,1,.23-.39l4.7-3.51a.61.61,0,0,1,.35-.11.58.58,0,0,1,.46.22l8.22,10.71a.59.59,0,0,1-.1.82L244,180.7A.55.55,0,0,1,243.63,180.83Z" style="fill:#fff;opacity:0.2"></path><path d="M213.58,179h0a1.36,1.36,0,0,1,.09.41.42.42,0,0,1,.09.16h0s0,0,0,0h0l0,0a2.9,2.9,0,0,1-.23,1.21,1.16,1.16,0,0,1-1.24.69l-.06.17a1,1,0,0,0,0,.3,3.09,3.09,0,0,1,1.35.86,4.27,4.27,0,0,1,.62.29.06.06,0,0,0,0,0,2,2,0,0,1,.19.12,9.09,9.09,0,0,1,1.38,1.17l-.24.27.18.13,1.32,1,.16.14,0,0,.27-.13a3.28,3.28,0,0,0,.31-.2c.42-.3.85-.66,1.26-1l0,0s0,0,0-.07l.52-.39h0l.46-.1a12.51,12.51,0,0,0-6.39-5.4A.77.77,0,0,1,213.58,179Z" style="fill:#407BFF"></path><path d="M198.84,197.72c.06-.44.07-.61.11-1v0a.12.12,0,0,1,.15-.09l.7.25a.06.06,0,0,1,0,.08v.08l.74.06h0l.23,0,.06-.45.52.05,0,.15c1.09-.11,4.79-.52,5.39-.89a10.51,10.51,0,0,0,1.7-3.07,5,5,0,0,1-.27-3.43h0c0-.15.08-.43.17-.79a6.45,6.45,0,0,1-1.06-.4,5.14,5.14,0,0,1-1.71.83,1.72,1.72,0,0,1,.85-1.29,5.69,5.69,0,0,0,2.35-3.41,2.86,2.86,0,0,1,.07-.28,10,10,0,0,1-1.53.37l-.07-.35-.22.07-1.62.47-.2.06h0a1.57,1.57,0,0,0-.05.3c0,.12,0,.25,0,.37,0,.52,0,1.08.1,1.62h0s0,.05,0,.08l0,.64h0l-.25.56-.71-.19.09-.71a.88.88,0,0,1,.13-.47,7.93,7.93,0,0,1-.38-1.45,3.41,3.41,0,0,1,0-.46,2.33,2.33,0,0,1,0-.53,1.15,1.15,0,0,1,.1-.33.94.94,0,0,1,.32-.39l.13-.08.07,0h0l.1,0,.19-.07,1.59-.56.34-.11-.06-.25a5,5,0,0,1,2.3-.47,5,5,0,0,1,.89-.06A1.38,1.38,0,0,0,210,182l.5-.17a2.7,2.7,0,0,1,.56,0,3.34,3.34,0,0,0,.17-.8,1.28,1.28,0,0,1-.55-1.14,1.15,1.15,0,0,1-.5-.53.49.49,0,0,0,.4-.07,1.71,1.71,0,0,1-.58-.65,1.59,1.59,0,0,0,.71-.16.86.86,0,0,0-.55-.14,1.06,1.06,0,0,1,.21-.11l-.2,0c-6.78,0-12.28,6.72-12.28,15a17.7,17.7,0,0,0,.9,5.62A8.41,8.41,0,0,1,198.84,197.72Z" style="fill:#407BFF"></path><path d="M220.35,184.76l0,.07-.63.34a.92.92,0,0,1-.46.17,7.51,7.51,0,0,1-1,1.15,3.52,3.52,0,0,1-.35.31,2.6,2.6,0,0,1-.45.28,1.21,1.21,0,0,1-.32.11.94.94,0,0,1-.5,0l-.14-.07-.07,0,0,0-.08-.06-.18-.12-1.37-1-.29-.21-.16.19-.16-.1-.07,0-.06-.05a11.45,11.45,0,0,1-.7,2.26h0a22.86,22.86,0,0,1-.77,2.36h0l-.84,2.23a34.69,34.69,0,0,1,4.43,12.71l.1,0,.1.58-.54.16.11.41c3.85-2.53,6.46-7.49,6.46-13.2A17.28,17.28,0,0,0,220.35,184.76Z" style="fill:#407BFF"></path><path d="M215.12,206.35h0l0-.16-.39.12-.42-.61.25-.06a25.17,25.17,0,0,0-4.47-10.29,12.25,12.25,0,0,1-2.05,2.5c-1.23.93-6,.64-6.81.58l0,.27-.54-.13.08-.56-1-.08v0s0,0,0,.05a.37.37,0,0,1,.23.14.09.09,0,0,1,0,.09s0,.05-.06.06a.32.32,0,0,1-.19-.14c0,.1.06.22,0,.27a.06.06,0,0,1-.06,0,.1.1,0,0,1-.09-.06.25.25,0,0,1,0-.17,1.89,1.89,0,0,0-.24,1.23.16.16,0,0,1-.19.14c2,5,6.19,8.54,11.07,8.54a10.36,10.36,0,0,0,5.07-1.35Z" style="fill:#407BFF"></path></g></g><g id="freepik--Treadmill--inject-20"><path d="M358.21,393.32H143.54v5.17H365.76A8.09,8.09,0,0,0,358.21,393.32Z" style="fill:#263238"></path><path d="M69.23,230.58,89.81,245H156a3.41,3.41,0,0,1,3.41,3.41h0a3.41,3.41,0,0,1-3.41,3.41H88.31l-21.1-11.05S63.3,233.15,69.23,230.58Z" style="fill:#263238"></path><path d="M69.23,230.58,89.81,245H156a3.41,3.41,0,0,1,3.41,3.41h0a3.41,3.41,0,0,1-3.41,3.41H88.31l-21.1-11.05S63.3,233.15,69.23,230.58Z" style="fill:#fff;opacity:0.1;isolation:isolate"></path><polygon points="137.73 417.71 122.15 417.71 67.15 227.96 82.73 227.96 137.73 417.71" style="fill:#263238"></polygon><polygon points="67.15 227.96 82.73 227.96 137.73 417.71 122.15 417.71 67.15 227.96" style="fill:#fff;opacity:0.1;isolation:isolate"></polygon><polygon points="137.73 417.71 126.15 417.71 71.15 227.96 82.73 227.96 137.73 417.71" style="fill:#fff;opacity:0.1;isolation:isolate"></polygon><path d="M287,403.67a13.21,13.21,0,0,0-12.48-8.86H203.2l-1.8-3h-100A3.28,3.28,0,0,0,98.27,396l6.7,21.67h11.34L118,412a3.14,3.14,0,0,1,3-2.25H268.77a7.19,7.19,0,0,1,4.74,1.78l7.13,6.22h11.23Z" style="fill:#407BFF"></path><path d="M287,403.67a13.21,13.21,0,0,0-12.48-8.86H203.2l-1.8-3h-100A3.28,3.28,0,0,0,98.27,396l6.7,21.67h11.34L118,412a3.14,3.14,0,0,1,3-2.25H268.77a7.19,7.19,0,0,1,4.74,1.78l7.13,6.22h11.23Z" style="opacity:0.2;isolation:isolate"></path><path d="M391.87,417.71H380.64l-7.13-6.22a7.19,7.19,0,0,0-4.74-1.78H221a3.14,3.14,0,0,0-3,2.25l-1.7,5.75H205L198.27,396a3.28,3.28,0,0,1,3.13-4.23h31.79l14.33,3h127A13.21,13.21,0,0,1,387,403.67Z" style="fill:#407BFF"></path><polygon points="270.46 412.36 99.96 412.36 97.96 417.71 274.46 417.71 270.46 412.36" style="fill:#263238"></polygon><polygon points="241.73 417.71 226.15 417.71 171.15 227.96 186.73 227.96 241.73 417.71" style="fill:#263238"></polygon><polygon points="171.15 227.96 186.73 227.96 241.73 417.71 226.15 417.71 171.15 227.96" style="fill:#fff;opacity:0.2;isolation:isolate"></polygon><polygon points="241.73 417.71 230.15 417.71 175.15 227.96 186.73 227.96 241.73 417.71" style="fill:#fff;opacity:0.2;isolation:isolate"></polygon><path d="M193.69,235.66l-2.62-8.78a4,4,0,0,0-3.86-2.88h-69l.3-2a179.24,179.24,0,0,0,20.19-1.56,1.93,1.93,0,0,0,1.62-2.31l-5.8-27.88a3.05,3.05,0,0,0-2.58-2.41,186.62,186.62,0,0,0-49.19,0,1.93,1.93,0,0,0-1.62,2.31L86.91,218a3,3,0,0,0,2.58,2.4c2.21.29,4.42.53,6.62.74L95,224H67.48A4,4,0,0,0,64,226l-3.77,6.24A4,4,0,0,0,60,235.8l4.21,10.28a4,4,0,0,0,3.72,2.5H185a4,4,0,0,0,3.42-1.89l4.85-7.75A4,4,0,0,0,193.69,235.66Z" style="fill:#407BFF"></path><path d="M95.89,225.9l1.88-9.32a1.7,1.7,0,0,1,1.68-1.38h13.1a1.72,1.72,0,0,1,1.71,1.72v9.32a1.72,1.72,0,0,1-1.71,1.72h-15A1.71,1.71,0,0,1,95.89,225.9Z" style="opacity:0.2;isolation:isolate"></path><path d="M88.93,216.14,84,192.33a1.7,1.7,0,0,1,1.66-2.05h44.2a1.7,1.7,0,0,1,1.66,1.36l4.88,23.89a1.69,1.69,0,0,1-1.5,2L119.56,219a1.7,1.7,0,0,1-1.52-.67l-3.27-4.31a1.68,1.68,0,0,0-1.35-.68H99.29a1.72,1.72,0,0,0-1.63,1.19l-.91,2.85a1.71,1.71,0,0,1-2,1.14l-4.54-1.1A1.69,1.69,0,0,1,88.93,216.14Z" style="opacity:0.2;isolation:isolate"></path><path d="M65.76,234.93H178.3a2.34,2.34,0,0,1,2.21,1.57l2.48,7a2.34,2.34,0,0,1-2.21,3.12H68.71a2.33,2.33,0,0,1-2.16-1.43l-2.95-7A2.35,2.35,0,0,1,65.76,234.93Z" style="opacity:0.2;isolation:isolate"></path><path d="M189.23,230.58,209.81,245H276a3.41,3.41,0,0,1,3.41,3.41h0a3.41,3.41,0,0,1-3.41,3.41H208.31l-21.1-11.05S183.3,233.15,189.23,230.58Z" style="fill:#263238"></path><path d="M189.23,230.58,209.81,245H276a3.41,3.41,0,0,1,3.41,3.41h0a3.41,3.41,0,0,1-3.41,3.41H208.31l-21.1-11.05S183.3,233.15,189.23,230.58Z" style="fill:#fff;opacity:0.2;isolation:isolate"></path></g></svg>