<?xml version="1.0" encoding="utf-8"?>
<!-- Generator: Adobe Illustrator 27.5.0, SVG Export Plug-In . SVG Version: 6.00 Build 0)  -->
<svg version="1.1" xmlns="http://www.w3.org/2000/svg" xmlns:xlink="http://www.w3.org/1999/xlink" x="0px" y="0px"
	 viewBox="0 0 500 500" style="enable-background:new 0 0 500 500;" xml:space="preserve">
<g id="Background_Simple">
	<g>
		<path style="fill:#3CA3F4;" d="M467.605,251.913c-4.936,41.801-24.022,90.403-62.141,112.73
			c-57.595,33.742-52.774,85.638-165.193,108.199c-17.527,3.519-34.161,5-49.846,4.708c-8.432-0.156-16.593-0.836-24.465-1.995
			C94.512,465.119,46.43,415.455,28.79,355.505C5.576,276.66,51.928,225.042,82.652,193.941
			c30.724-31.1,53.226-128.004,163.567-151.052c16.824-3.507,34.029-5.296,51.229-4.867c39.259,0.963,82.08,13.855,111.71,40.761
			c2.225,2.022,4.388,4.118,6.497,6.278C456.838,127.332,474.338,194.925,467.605,251.913z"/>
		<path style="opacity:0.7;fill:#FFFFFF;" d="M467.605,251.913c-4.936,41.801-24.022,90.403-62.141,112.73
			c-57.595,33.742-52.774,85.638-165.193,108.199c-17.527,3.519-34.161,5-49.846,4.708c-8.432-0.156-16.593-0.836-24.465-1.995
			C94.512,465.119,46.43,415.455,28.79,355.505C5.576,276.66,51.928,225.042,82.652,193.941
			c30.724-31.1,53.226-128.004,163.567-151.052c16.824-3.507,34.029-5.296,51.229-4.867c39.259,0.963,82.08,13.855,111.71,40.761
			c2.225,2.022,4.388,4.118,6.497,6.278C456.838,127.332,474.338,194.925,467.605,251.913z"/>
	</g>
</g>
<g id="Plants">
	<g>
		<path style="fill:#3CA3F4;stroke:#263238;stroke-linecap:round;stroke-linejoin:round;stroke-miterlimit:10;" d="M257.687,174.041
			c0,0-1.34-7.275,16.492-17.541c17.832-10.266,20.885-13.499,16.103-16.042c-4.782-2.543-9.384-0.458-9.384-0.458
			s6.814-5.442,2.098-8.435c-4.716-2.993-8.321,1.079-8.321,1.079s6.676-13.285,0.5-15.112c-6.176-1.827-7.834,0.69-10.244,5.398
			c-2.41,4.708-5.589,17.585-5.589,17.585s-2.065-12.267-1.65-20.949c0.416-8.682,0.345-16.975-4.834-16.815
			c-5.179,0.16-7.451,12.711-7.451,12.711s-3.303-9.688-7.683-6.19c-4.38,3.498-3.624,10.052-3.624,10.052s-5.382-7.232-8.189,0.178
			s3.284,15.667,3.284,15.667s-2.145,2.906,0.402,6.041c2.547,3.135,11.071,9.448,11.071,9.448s-11.733-4.944-17.578-9.023
			c-5.845-4.079-9.823,5.46-7.985,7.57c1.838,2.111,5.004,3.956,5.004,3.956s-7.612,2.103-4.711,5.75
			c2.901,3.647,5.358,4.468,5.358,4.468s-3.827,2.659-0.661,4.505c3.166,1.845,7.371,2.463,11.709,2.179
			c4.338-0.283,11.198-0.196,11.198-0.196s4.494,1.58,6.422,6.005c1.928,4.424,1.928,4.424,1.928,4.424l3.719,1.006L257.687,174.041
			z"/>
		<path style="fill:#3CA3F4;stroke:#263238;stroke-linecap:round;stroke-linejoin:round;stroke-miterlimit:10;" d="M240.293,130.235
			c-0.671-3.385-0.963-6.248-1.057-7.856"/>
		<path style="fill:#3CA3F4;stroke:#263238;stroke-linecap:round;stroke-linejoin:round;stroke-miterlimit:10;" d="M255.421,173.072
			c0,0-2.179-17.346-8.27-25.602c-2.996-4.062-4.9-9.187-6.091-13.845"/>
		<path style="fill:#3CA3F4;stroke:#263238;stroke-linecap:round;stroke-linejoin:round;stroke-miterlimit:10;" d="M260.519,150.452
			c-3.326,4.961-5.02,8.1-5.26,12.013"/>
		<path style="fill:#3CA3F4;stroke:#263238;stroke-linecap:round;stroke-linejoin:round;stroke-miterlimit:10;" d="M269.34,130.941
			c0,0-0.151,6.88-5.613,14.821c-0.468,0.681-0.916,1.331-1.344,1.953"/>
		<path style="fill:#3CA3F4;stroke:#263238;stroke-linecap:round;stroke-linejoin:round;stroke-miterlimit:10;" d="M241.858,162.004
			c-0.616-0.172-1.262-0.312-1.936-0.411c-7.149-1.05-13.037-1.914-16.425-5.173"/>
		<path style="fill:#3CA3F4;stroke:#263238;stroke-linecap:round;stroke-linejoin:round;stroke-miterlimit:10;" d="M250.969,168.277
			c0,0-1.799-2.599-5.193-4.596"/>
	</g>
	<g>
		<path style="fill:#3CA3F4;stroke:#263238;stroke-linecap:round;stroke-linejoin:round;stroke-miterlimit:10;" d="M73.103,402.584
			c0,0,5.85,3.196,2.899,21.501c-2.951,18.305-2.423,22.277,2.072,20.377c4.495-1.9,5.651-6.304,5.651-6.304
			s-0.065,7.857,4.708,6.259c4.773-1.598,3.973-6.433,3.973-6.433s5.499,12.217,10.286,8.935c4.787-3.282,3.968-5.872,2.044-10.232
			c-1.924-4.36-9.125-13.9-9.125-13.9s9.754,5.525,15.59,10.748c5.837,5.223,11.678,9.885,14.508,6.172
			c2.83-3.713-4.657-12.433-4.657-12.433s8.653,3.194,8.694-1.857c0.042-5.051-4.972-8.245-4.972-8.245s8.117,0.344,4.528-5.829
			c-3.589-6.173-12.825-6.604-12.825-6.604s-0.814-3.151-4.454-3.151c-3.64,0-12.899,2.376-12.899,2.376s10.124-5.398,16.298-7.168
			c6.174-1.771,1.762-9.973-0.759-9.886c-2.521,0.087-5.61,1.253-5.61,1.253s2.854-6.519-1.346-6.562
			c-4.199-0.043-6.169,1.21-6.169,1.21s0.314-4.188-2.775-3.022c-3.089,1.166-5.911,3.757-8.177,6.952
			c-2.266,3.195-6.225,7.944-6.225,7.944s-3.658,2.245-7.848,1.08c-4.19-1.165-4.19-1.165-4.19-1.165l-2.816,2.03L73.103,402.584z"
			/>
		<path style="fill:#3CA3F4;stroke:#263238;stroke-linecap:round;stroke-linejoin:round;stroke-miterlimit:10;" d="M113.625,415.305
			c2.749,1.454,4.917,2.877,6.096,3.724"/>
		<path style="fill:#3CA3F4;stroke:#263238;stroke-linecap:round;stroke-linejoin:round;stroke-miterlimit:10;" d="M75.068,401.549
			c0,0,13.37,8.331,22.606,8.761c4.543,0.212,9.21,1.792,13.145,3.605"/>
		<path style="fill:#3CA3F4;stroke:#263238;stroke-linecap:round;stroke-linejoin:round;stroke-miterlimit:10;" d="M87.993,417.967
			c-1.58-5.145-2.813-8.113-5.415-10.504"/>
		<path style="fill:#3CA3F4;stroke:#263238;stroke-linecap:round;stroke-linejoin:round;stroke-miterlimit:10;" d="M96.629,435.221
			c0,0-4.727-4.014-7.178-12.346c-0.21-0.714-0.41-1.397-0.603-2.05"/>
		<path style="fill:#3CA3F4;stroke:#263238;stroke-linecap:round;stroke-linejoin:round;stroke-miterlimit:10;" d="M90.515,398.351
			c0.47-0.333,0.935-0.705,1.387-1.121c4.796-4.404,8.745-8.031,12.949-8.55"/>
		<path style="fill:#3CA3F4;stroke:#263238;stroke-linecap:round;stroke-linejoin:round;stroke-miterlimit:10;" d="M80.951,401.16
			c0,0,2.84,0.219,6.165-1.021"/>
	</g>
	<g>
		<path style="fill:#3CA3F4;stroke:#263238;stroke-linecap:round;stroke-linejoin:round;stroke-miterlimit:10;" d="M57.336,276.371
			c0,0-0.964-5.235,11.867-12.622c12.832-7.387,15.028-9.714,11.587-11.543c-3.441-1.83-6.753-0.329-6.753-0.329
			s4.903-3.916,1.509-6.069c-3.393-2.154-5.987,0.776-5.987,0.776s4.804-9.559,0.36-10.874c-4.444-1.315-5.637,0.497-7.371,3.884
			c-1.734,3.388-4.022,12.654-4.022,12.654s-1.486-8.827-1.187-15.074c0.299-6.247,0.248-12.215-3.479-12.1
			c-3.726,0.115-5.362,9.146-5.362,9.146s-2.377-6.971-5.529-4.454c-3.152,2.517-2.608,7.233-2.608,7.233s-3.873-5.204-5.892,0.128
			s2.363,11.274,2.363,11.274s-1.544,2.091,0.289,4.347c1.833,2.256,7.966,6.799,7.966,6.799s-8.442-3.557-12.648-6.493
			c-4.206-2.935-7.068,3.929-5.746,5.448c1.323,1.519,3.601,2.846,3.601,2.846s-5.477,1.513-3.39,4.138
			c2.088,2.624,3.856,3.215,3.856,3.215s-2.754,1.914-0.476,3.241c2.278,1.328,5.304,1.772,8.425,1.568
			c3.121-0.204,8.058-0.141,8.058-0.141s3.233,1.137,4.621,4.321c1.387,3.184,1.387,3.184,1.387,3.184l2.676,0.724L57.336,276.371z"
			/>
		<path style="fill:#3CA3F4;stroke:#263238;stroke-linecap:round;stroke-linejoin:round;stroke-miterlimit:10;" d="M44.82,244.851
			c-0.483-2.436-0.693-4.496-0.761-5.653"/>
		<path style="fill:#3CA3F4;stroke:#263238;stroke-linecap:round;stroke-linejoin:round;stroke-miterlimit:10;" d="M55.705,275.674
			c0,0-1.568-12.481-5.951-18.423c-2.156-2.922-3.526-6.611-4.383-9.962"/>
		<path style="fill:#3CA3F4;stroke:#263238;stroke-linecap:round;stroke-linejoin:round;stroke-miterlimit:10;" d="M59.374,259.398
			c-2.393,3.569-3.612,5.828-3.785,8.644"/>
		<path style="fill:#3CA3F4;stroke:#263238;stroke-linecap:round;stroke-linejoin:round;stroke-miterlimit:10;" d="M65.721,245.358
			c0,0-0.109,4.951-4.039,10.665c-0.337,0.49-0.659,0.958-0.967,1.406"/>
		<path style="fill:#3CA3F4;stroke:#263238;stroke-linecap:round;stroke-linejoin:round;stroke-miterlimit:10;" d="M45.946,267.711
			c-0.443-0.124-0.908-0.225-1.393-0.296c-5.144-0.755-9.381-1.377-11.819-3.722"/>
		<path style="fill:#3CA3F4;stroke:#263238;stroke-linecap:round;stroke-linejoin:round;stroke-miterlimit:10;" d="M52.502,272.224
			c0,0-1.294-1.87-3.736-3.307"/>
	</g>
</g>
<g id="Dish">
	<g>
		
			<ellipse transform="matrix(0.7071 -0.7071 0.7071 0.7071 -126.5939 240.3374)" style="fill:#263238;" cx="226.816" cy="272.981" rx="158.293" ry="158.293"/>
		
			<ellipse transform="matrix(0.7071 -0.7071 0.7071 0.7071 -126.5939 240.3374)" style="fill:none;stroke:#8A8A8A;stroke-miterlimit:10;" cx="226.816" cy="272.981" rx="105.237" ry="105.237"/>
	</g>
</g>
<g id="Tomatoes_2">
	<g>
		<circle style="fill:#BFBFBF;stroke:#263238;stroke-miterlimit:10;" cx="440.868" cy="255.927" r="21.139"/>
		<g>
			<path style="fill:#3CA3F4;stroke:#263238;stroke-miterlimit:10;" d="M442.914,246.621c0,0-2.775-4.791-3.888-3.21
				c-1.113,1.581,0.972,3.994,0.667,5.435c-0.305,1.441-4.978,1.698-4.428,3.267c0.55,1.57,5.603,3.814,5.603,3.814
				s-0.252,3.028,0.873,3.11c1.124,0.082,3.526-3.666,3.526-3.666s2.752,1.464,3.772-0.655c1.019-2.12-2.038-2.144-2.002-3.538
				c0.035-1.394,2.729-1.862,2.226-3.162C448.759,246.715,443.874,248.952,442.914,246.621z"/>
			<path style="fill:#3CA3F4;stroke:#263238;stroke-miterlimit:10;" d="M443.077,250.756c0,0,5.625-18.74,12.408-26.024
				c6.783-7.285,8.482-8.69,10.964-7.178c2.483,1.511,1.054,2.87-0.246,3.373c-1.3,0.503-13.178,5.62-20.912,31.388
				C445.291,252.314,440.887,252.524,443.077,250.756z"/>
		</g>
	</g>
	<g>
		
			<ellipse transform="matrix(0.9259 -0.3778 0.3778 0.9259 -87.0457 180.5035)" style="fill:#BFBFBF;stroke:#263238;stroke-miterlimit:10;" cx="416.552" cy="312.117" rx="21.138" ry="21.139"/>
		<g>
			<path style="fill:#3CA3F4;stroke:#263238;stroke-miterlimit:10;" d="M419.887,304.666c0,0-8.75-3.281-7.383-0.273
				s3.555,0.82,2.734,3.828c-0.82,3.008-1.641,5.742-0.547,6.016c1.094,0.273,3.281-5.195,3.828-3.281
				c0.547,1.914,1.367,6.016,2.734,3.828c1.367-2.188-0.273-5.469,0.547-5.469c0.82,0,6.563,2.188,5.742-1.914
				c-0.82-4.102-3.828-2.188-4.648-2.461c-0.82-0.273,0-5.195-2.188-4.375C418.52,301.385,419.887,304.666,419.887,304.666z"/>
			<path style="fill:#3CA3F4;stroke:#263238;stroke-miterlimit:10;" d="M420.592,306.147c0,0-9.57,1.367-13.399,8.75
				c-3.828,7.383-5.469,13.399-5.742,15.039c-0.273,1.641,1.641,3.008,2.461,1.914c0.82-1.094,3.555-11.211,5.469-15.039
				c1.914-3.828,2.268-4.999,6.145-6.879C419.403,308.053,421.898,307.53,420.592,306.147z"/>
		</g>
	</g>
	<g>
		
			<ellipse transform="matrix(0.9259 -0.3778 0.3778 0.9259 -60.1169 165.1693)" style="fill:#BFBFBF;stroke:#263238;stroke-miterlimit:10;" cx="390.931" cy="235.813" rx="21.138" ry="21.139"/>
		<g>
			<path style="fill:#3CA3F4;stroke:#263238;stroke-miterlimit:10;" d="M394.267,228.362c0,0-8.75-3.281-7.383-0.273
				c1.367,3.008,3.555,0.82,2.734,3.828c-0.82,3.008-1.641,5.742-0.547,6.016c1.094,0.273,3.281-5.195,3.828-3.281
				c0.547,1.914,1.367,6.016,2.734,3.828c1.367-2.188-0.273-5.469,0.547-5.469c0.82,0,6.563,2.188,5.742-1.914
				c-0.82-4.102-3.828-2.188-4.648-2.461c-0.82-0.274,0-5.195-2.188-4.375S394.267,228.362,394.267,228.362z"/>
			<path style="fill:#3CA3F4;stroke:#263238;stroke-miterlimit:10;" d="M394.972,229.842c0,0-9.57,1.367-13.399,8.75
				c-3.828,7.383-5.469,13.399-5.742,15.039c-0.273,1.641,1.641,3.008,2.461,1.914c0.82-1.094,3.555-11.211,5.469-15.039
				c1.914-3.828,2.268-4.999,6.145-6.879S396.279,231.226,394.972,229.842z"/>
		</g>
	</g>
</g>
<g id="Tomatoes_1">
	<g>
		<path style="fill:#3CA3F4;stroke:#263238;stroke-linecap:round;stroke-linejoin:round;stroke-miterlimit:10;" d="M97.344,283.462
			c0,0-22.993-9.396-41.605,13.204c-18.612,22.6,2.387,51.937,2.387,51.937s10.441-5.005,21.741-16.305
			c11.3-11.3,28.307-30.875,30.301-36.193S97.344,283.462,97.344,283.462z"/>
		<path style="opacity:0.34;" d="M84.357,324.722c0,0-14.309-15.712-22.726-15.712c-8.417,0-10.661,10.1-8.136,21.884
			c2.525,11.784,8.136,13.186,9.259,13.186C63.875,344.081,80.429,331.456,84.357,324.722z"/>
		<path style="opacity:0.34;" d="M86.321,322.478c0,0-7.295-9.259-11.503-18.517c-4.208-9.259-1.683-14.87,6.173-18.237
			s23.568,7.014,26.373,8.698l0.842,2.245C108.205,296.666,91.09,317.989,86.321,322.478z"/>
		<path style="fill:#3CA3F4;stroke:#263238;stroke-linecap:round;stroke-linejoin:round;stroke-miterlimit:10;" d="M69.206,318.55
			c0,0-7.575-1.122-9.259,3.086C58.264,325.845,68.926,321.917,69.206,318.55z"/>
		<path style="fill:#3CA3F4;stroke:#263238;stroke-linecap:round;stroke-linejoin:round;stroke-miterlimit:10;" d="M72.012,322.197
			c0,0-6.734,2.806-6.734,7.014C65.278,333.42,72.573,328.37,72.012,322.197z"/>
		<path style="fill:#3CA3F4;stroke:#263238;stroke-linecap:round;stroke-linejoin:round;stroke-miterlimit:10;" d="M85.198,297.788
			c0,0-3.367,0.842-4.209,4.208s0.561,6.734,0.561,6.734S87.162,303.96,85.198,297.788z"/>
		<path style="fill:#3CA3F4;stroke:#263238;stroke-linecap:round;stroke-linejoin:round;stroke-miterlimit:10;" d="M91.09,305.924
			c0,0-1.964,0-3.647,2.245c-1.683,2.245-1.683,3.928-1.683,4.77S91.651,312.658,91.09,305.924z"/>
	</g>
	<g>
		<path style="fill:#3CA3F4;stroke:#263238;stroke-linecap:round;stroke-linejoin:round;stroke-miterlimit:10;" d="M172.537,392.288
			c0,0,18.74-16.303,6.937-43.095c-11.804-26.792-47.453-21.246-47.453-21.246s-0.23,11.577,4.774,26.754
			c5.004,15.177,14.829,39.175,18.68,43.349C159.326,402.224,172.537,392.288,172.537,392.288z"/>
		<path style="fill:#3CA3F4;stroke:#263238;stroke-linecap:round;stroke-linejoin:round;stroke-miterlimit:10;" d="M170.972,390.201
			c0,0,18.74-16.303,6.937-43.095s-47.453-21.246-47.453-21.246s-0.23,11.577,4.774,26.754c5.004,15.177,14.829,39.175,18.68,43.349
			C157.761,400.137,170.972,390.201,170.972,390.201z"/>
		<path style="opacity:0.34;" d="M139.974,360.032c0,0,20.471-5.705,24.259-13.221c3.789-7.516-4.221-14.067-15.88-17.116
			c-11.659-3.049-15.438,1.33-15.943,2.332C131.906,333.03,135.729,353.494,139.974,360.032z"/>
		<path style="opacity:0.34;" d="M141.094,362.797c0,0,11.551-2.346,21.713-1.937c10.162,0.409,14.036,5.19,13.507,13.72
			c-0.53,8.53-16.871,17.888-19.638,19.636l-2.383-0.259C154.293,393.957,142.956,369.076,141.094,362.797z"/>
		<path style="fill:#3CA3F4;stroke:#263238;stroke-linecap:round;stroke-linejoin:round;stroke-miterlimit:10;" d="M152.305,349.282
			c0,0,4.412-6.259,1.411-9.657C150.716,336.227,149.425,347.516,152.305,349.282z"/>
		<path style="fill:#3CA3F4;stroke:#263238;stroke-linecap:round;stroke-linejoin:round;stroke-miterlimit:10;" d="M147.785,350.145
			c0,0,0.526-7.276-3.232-9.17C140.795,339.081,142.021,347.868,147.785,350.145z"/>
		<path style="fill:#3CA3F4;stroke:#263238;stroke-linecap:round;stroke-linejoin:round;stroke-miterlimit:10;" d="M163.647,372.908
			c0,0,0.764-3.385-1.864-5.652c-2.627-2.267-6.265-2.53-6.265-2.53S157.251,371.883,163.647,372.908z"/>
		<path style="fill:#3CA3F4;stroke:#263238;stroke-linecap:round;stroke-linejoin:round;stroke-miterlimit:10;" d="M153.729,374.507
			c0,0,0.884-1.754-0.363-4.267c-1.246-2.513-2.75-3.271-3.501-3.65C149.113,366.21,147.464,371.977,153.729,374.507z"/>
	</g>
</g>
<g id="Sauce">
	<g>
		<g>
			<circle style="fill:#FFFFFF;stroke:#263238;stroke-miterlimit:10;" cx="362.918" cy="126.74" r="47.389"/>
			<circle style="fill:#FFFFFF;stroke:#263238;stroke-miterlimit:10;" cx="359.174" cy="115.113" r="55.308"/>
			
				<ellipse transform="matrix(0.2339 -0.9722 0.9722 0.2339 163.2287 437.3898)" style="fill:#263238;" cx="359.174" cy="115.113" rx="41.918" ry="41.918"/>
		</g>
		<g>
			<path style="fill:#3CA3F4;stroke:#263238;stroke-linecap:round;stroke-linejoin:round;stroke-miterlimit:10;" d="M375.522,88.047
				c0,0,14.528-21.409,21.41-39.761c2.452-6.537,3.091-14.642,8.018-20.113c5.336-5.924,14.798-4.272,15.697,4.001
				c0.505,4.648-1.489,8.13-5.133,12.971c-5.113,6.792-15.43,15.798-19.867,23.089c-7.848,12.893-12.991,20.157-15.177,23.116
				c-0.971,1.314-2.677,1.969-4.221,1.434C374.93,92.328,373.992,91.106,375.522,88.047z"/>
			<path style="fill:none;stroke:#263238;stroke-linecap:round;stroke-linejoin:round;stroke-miterlimit:10;" d="M408.534,29.843
				c0,0,5.906-2.685,7.249,4.564"/>
		</g>
	</g>
</g>
<g id="Shawarma">
	<g>
		<path style="fill:#FFFFFF;stroke:#263238;stroke-miterlimit:10;" d="M254.17,436.99c0,0,27.892-0.715,50.778-34.329
			c0,0-6.437-28.607-12.158-29.323c-5.721-0.715-23.601,25.031-30.753,39.335C254.885,426.978,254.17,436.99,254.17,436.99z"/>
		<g>
			<path style="fill:#D6D6D6;stroke:#263238;stroke-miterlimit:10;" d="M196.39,132.988c0,0-3.707,12.709-7.414,33.891
				c-3.707,21.182-2.648,47.659-1.059,51.896c1.589,4.236,7.943,5.825,11.12,4.766c3.177-1.059,3.177-2.648,3.707-23.83
				c0.53-21.182,0.53-30.714,6.355-46.6s3.707-22.77-0.53-26.477C204.333,122.927,200.627,121.338,196.39,132.988z"/>
			<path style="fill:#FFFFFF;stroke:#263238;stroke-miterlimit:10;" d="M209.099,138.284c0,0-7.414,13.239-9.532,32.302
				c-2.118,19.064,3.347,37.433,0.614,43.076c-2.732,5.643-8.028,3.525-8.028,3.525"/>
		</g>
		<g>
			<path style="fill:#3CA3F4;stroke:#263238;stroke-linecap:round;stroke-linejoin:round;stroke-miterlimit:10;" d="M234.408,200.58
				c0,0-2.126-7.144,15.909-18.828s20.981-15.156,15.637-17.302s-10.053,0.307-10.053,0.307s6.746-5.979,1.429-8.58
				c-5.317-2.601-8.771,1.752-8.771,1.752s5.848-13.787-0.914-15.106c-6.762-1.32-8.29,1.325-10.409,6.214
				c-2.119,4.889-4.276,17.986-4.276,17.986s-3.378-12.062-3.767-20.751c-0.389-8.689-1.259-16.952-6.768-16.371
				c-5.508,0.58-6.729,13.278-6.729,13.278s-4.451-9.39-8.788-5.547c-4.337,3.844-2.902,10.316-2.902,10.316
				s-6.433-6.773-8.717,0.843c-2.283,7.616,5.004,15.353,5.004,15.353s-2.009,3.072,1.007,5.99c3.017,2.918,12.714,8.52,12.714,8.52
				s-12.987-3.975-19.613-7.567c-6.625-3.592-9.954,6.242-7.791,8.197c2.163,1.955,5.716,3.537,5.716,3.537
				s-7.917,2.716-4.473,6.116c3.444,3.4,6.143,4.019,6.143,4.019s-3.827,2.962-0.274,4.545c3.553,1.582,8.098,1.856,12.697,1.221
				c4.599-0.635,11.925-1.106,11.925-1.106s4.944,1.21,7.424,5.464l1.773,3.041c0.449,0.769,1.214,1.301,2.091,1.452l0,0
				c1.522,0.263,2.996-0.668,3.414-2.155L234.408,200.58z"/>
			<path style="fill:#3CA3F4;stroke:#263238;stroke-linecap:round;stroke-linejoin:round;stroke-miterlimit:10;" d="
				M211.658,158.322c-1.04-3.32-1.625-6.151-1.88-7.746"/>
			<path style="fill:#3CA3F4;stroke:#263238;stroke-linecap:round;stroke-linejoin:round;stroke-miterlimit:10;" d="
				M231.898,199.799c0,0-3.986-17.116-11.274-24.852c-3.585-3.806-6.107-8.761-7.824-13.308"/>
			<path style="fill:#3CA3F4;stroke:#263238;stroke-linecap:round;stroke-linejoin:round;stroke-miterlimit:10;" d="
				M235.169,176.833c-3.072,5.216-4.578,8.484-4.459,12.404"/>
			<path style="fill:#3CA3F4;stroke:#263238;stroke-linecap:round;stroke-linejoin:round;stroke-miterlimit:10;" d="
				M242.706,156.664c0,0,0.498,6.872-4.566,15.232c-0.434,0.717-0.85,1.401-1.246,2.057"/>
			<path style="fill:#3CA3F4;stroke:#263238;stroke-linecap:round;stroke-linejoin:round;stroke-miterlimit:10;" d="
				M216.372,189.867c-0.674-0.121-1.376-0.208-2.105-0.252c-7.726-0.465-14.088-0.849-18.014-3.822"/>
			<path style="fill:#3CA3F4;stroke:#263238;stroke-linecap:round;stroke-linejoin:round;stroke-miterlimit:10;" d="M226.691,195.38
				c0,0-2.167-2.445-5.979-4.16"/>
		</g>
		<g>
			<path style="fill:#3CA3F4;stroke:#263238;stroke-linecap:round;stroke-linejoin:round;stroke-miterlimit:10;" d="M188.34,203.283
				c0,0-7.453-0.111-13.198-20.818c-5.745-20.707-8.175-24.558-11.824-20.102c-3.648,4.456-2.719,9.683-2.719,9.683
				s-3.684-8.227-7.758-3.933c-4.074,4.293-0.956,8.894-0.956,8.894s-11.402-9.709-14.687-3.653
				c-3.285,6.056-1.219,8.306,2.811,11.792c4.03,3.486,15.88,9.467,15.88,9.467s-12.52-0.39-20.927-2.622
				c-8.407-2.232-16.55-3.876-17.647,1.553c-1.096,5.429,10.652,10.397,10.652,10.397s-10.292,1.434-7.924,6.723
				c2.368,5.289,8.973,5.859,8.973,5.859s-8.389,4.109-1.807,8.569c6.583,4.46,16.147-0.176,16.147-0.176s2.329,2.837,6.017,0.833
				c3.688-2.004,11.937-9.578,11.937-9.578s-7.683,11.201-13.094,16.445c-5.411,5.245,2.974,11.367,5.486,9.889
				c2.513-1.478,5.087-4.394,5.087-4.394s0.219,8.367,4.495,6.1c4.276-2.267,5.674-4.657,5.674-4.657s1.68,4.539,4.254,1.622
				s4.197-7.17,4.968-11.749c0.772-4.578,2.517-11.709,2.517-11.709s2.635-4.355,7.437-5.447c4.802-1.092,4.802-1.092,4.802-1.092
				l1.886-3.666L188.34,203.283z"/>
			<path style="fill:#3CA3F4;stroke:#263238;stroke-linecap:round;stroke-linejoin:round;stroke-miterlimit:10;" d="
				M167.415,194.913c0,0-7.453-0.111-13.198-20.818c-5.745-20.707-8.175-24.558-11.824-20.102c-3.648,4.456-2.719,9.683-2.719,9.683
				s-3.684-8.227-7.758-3.933c-4.074,4.293-0.956,8.893-0.956,8.893s-11.402-9.709-14.687-3.652
				c-3.284,6.056-1.219,8.306,2.811,11.792c4.03,3.486,15.88,9.467,15.88,9.467s-12.52-0.39-20.927-2.622s-16.55-3.876-17.647,1.553
				c-1.096,5.429,10.652,10.397,10.652,10.397s-10.292,1.434-7.924,6.723c2.368,5.289,8.973,5.859,8.973,5.859
				s-8.389,4.109-1.807,8.569c6.583,4.46,16.147-0.176,16.147-0.176s2.329,2.837,6.017,0.833c3.688-2.004,11.937-9.578,11.937-9.578
				s-7.683,11.201-13.094,16.446c-5.411,5.245,2.974,11.367,5.486,9.889c2.513-1.478,5.087-4.394,5.087-4.394s0.219,8.367,4.495,6.1
				c4.276-2.267,5.674-4.657,5.674-4.657s1.68,4.539,4.254,1.622c2.574-2.916,4.196-7.17,4.968-11.749
				c0.772-4.578,2.517-11.709,2.517-11.709s2.635-4.355,7.437-5.447c4.802-1.092,4.802-1.092,4.802-1.092l1.885-3.666
				L167.415,194.913z"/>
			<path style="fill:#3CA3F4;stroke:#263238;stroke-linecap:round;stroke-linejoin:round;stroke-miterlimit:10;" d="M141.207,212.33
				c-3.479-0.003-6.356-0.292-7.954-0.526"/>
			<path style="fill:#3CA3F4;stroke:#263238;stroke-linecap:round;stroke-linejoin:round;stroke-miterlimit:10;" d="
				M186.842,205.443c0,0-17.524-1.324-27.088,3.312c-4.705,2.28-10.188,3.202-15.04,3.478"/>
			<path style="fill:#3CA3F4;stroke:#263238;stroke-linecap:round;stroke-linejoin:round;stroke-miterlimit:10;" d="M165.91,195.444
				c4.056,4.493,6.723,6.909,10.499,7.969"/>
			<path style="fill:#3CA3F4;stroke:#263238;stroke-linecap:round;stroke-linejoin:round;stroke-miterlimit:10;" d="
				M148.926,182.211c0,0,6.705,1.583,13.165,8.919c0.554,0.629,1.082,1.23,1.589,1.805"/>
			<path style="fill:#3CA3F4;stroke:#263238;stroke-linecap:round;stroke-linejoin:round;stroke-miterlimit:10;" d="
				M172.716,217.282c-0.318,0.606-0.611,1.25-0.871,1.932c-2.758,7.231-5.029,13.187-9.042,16.042"/>
			<path style="fill:#3CA3F4;stroke:#263238;stroke-linecap:round;stroke-linejoin:round;stroke-miterlimit:10;" d="
				M181.067,209.088c0,0-2.982,1.335-5.76,4.458"/>
		</g>
		<g>
			<path style="fill:#3CA3F4;stroke:#263238;stroke-linecap:round;stroke-linejoin:round;stroke-miterlimit:10;" d="
				M253.298,176.939c0,0-6.698-3.14-4.679-23.617c2.019-20.477,1.164-24.84-3.686-22.429c-4.85,2.411-5.829,7.368-5.829,7.368
				s-0.465-8.707-5.642-6.612c-5.177,2.096-3.961,7.397-3.961,7.397s-6.925-13.157-12.003-9.195
				c-5.078,3.962-3.994,6.775-1.566,11.473c2.429,4.698,11.056,14.774,11.056,14.774s-11.181-5.454-18.002-10.841
				c-6.821-5.387-13.609-10.152-16.491-5.846c-2.882,4.306,6.007,13.454,6.007,13.454s-9.802-2.947-9.504,2.651
				c0.299,5.598,6.07,8.794,6.07,8.794s-9.014,0.172-4.617,6.765c4.396,6.593,14.656,6.439,14.656,6.439s1.117,3.435,5.148,3.186
				c4.031-0.249,14.125-3.512,14.125-3.512s-10.845,6.67-17.563,9.052c-6.718,2.383-1.271,11.167,1.515,10.899
				s6.128-1.77,6.128-1.77s-2.716,7.416,1.939,7.176c4.654-0.239,6.751-1.761,6.751-1.761s-0.062,4.66,3.28,3.158
				c3.342-1.502,6.29-4.564,8.582-8.258c2.292-3.694,6.353-9.224,6.353-9.224s3.899-2.737,8.619-1.732
				c4.721,1.005,4.721,1.005,4.721,1.005l2.981-2.44L253.298,176.939z"/>
			<path style="fill:#3CA3F4;stroke:#263238;stroke-linecap:round;stroke-linejoin:round;stroke-miterlimit:10;" d="
				M207.547,165.615c-3.144-1.423-5.643-2.851-7.006-3.709"/>
			<path style="fill:#3CA3F4;stroke:#263238;stroke-linecap:round;stroke-linejoin:round;stroke-miterlimit:10;" d="M251.192,178.22
				c0,0-15.378-8.315-25.637-8.162c-5.046,0.075-10.324-1.356-14.805-3.096"/>
			<path style="fill:#3CA3F4;stroke:#263238;stroke-linecap:round;stroke-linejoin:round;stroke-miterlimit:10;" d="
				M235.755,160.917c2.101,5.59,3.67,8.795,6.714,11.265"/>
			<path style="fill:#3CA3F4;stroke:#263238;stroke-linecap:round;stroke-linejoin:round;stroke-miterlimit:10;" d="
				M225.013,142.395c0,0,5.509,4.124,8.793,13.185c0.281,0.777,0.55,1.519,0.807,2.23"/>
			<path style="fill:#3CA3F4;stroke:#263238;stroke-linecap:round;stroke-linejoin:round;stroke-miterlimit:10;" d="
				M234.301,182.816c-0.498,0.401-0.988,0.845-1.46,1.336c-5.012,5.205-9.139,9.492-13.76,10.354"/>
			<path style="fill:#3CA3F4;stroke:#263238;stroke-linecap:round;stroke-linejoin:round;stroke-miterlimit:10;" d="
				M244.703,179.052c0,0-3.161-0.049-6.759,1.552"/>
		</g>
		<g>
			<path style="fill:#919191;stroke:#263238;stroke-miterlimit:10;" d="M172.695,214.316c0,0-20.666-26.71-20.666-31.857
				s9.607-34.998,15.097-31.223c5.49,3.774,22.645,36.37,21.273,49.408C187.027,213.682,178.95,219.066,172.695,214.316z"/>
			<path style="fill:#919191;stroke:#263238;stroke-miterlimit:10;" d="M166.783,156.383c0,0-7.205,21.616-4.46,26.077
				c2.745,4.46,9.264,26.077,12.352,27.106c3.088,1.029,6.519,2.059,8.578-3.774"/>
		</g>
		<path style="fill:#FFFFFF;stroke:#263238;stroke-miterlimit:10;" d="M172.274,195.285c0,0-0.432,2.58-6.476,8.025
			c-6.044,5.445-22.785,8.339-16.423,22.439c6.362,14.1,18.871,27.175,23.839,15.427c4.968-11.749,3.529-30.017,7.853-32.088
			c4.324-2.071,17.85-0.266,21.678-9.377c3.828-9.11-6.44-26.981-16.133-20.428C176.918,185.835,172.274,195.285,172.274,195.285z"
			/>
		<g>
			<path style="fill:#D6D6D6;stroke:#263238;stroke-miterlimit:10;" d="M180.141,244.633c0,0-7.867-27.892-7.867-49.348
				c0-21.456-2.146-39.335,2.861-41.481s10.013-3.576,12.873-1.43c2.861,2.146,1.43,31.468,1.43,52.924
				c0,21.456,8.582,38.62,8.582,45.772c0,7.152-8.582,11.443-13.589,10.013C179.426,259.652,180.141,244.633,180.141,244.633z"/>
			<path style="fill:none;stroke:#263238;stroke-miterlimit:10;" d="M184.861,160.946c0,0-1.589,31.243,0.53,46.071
				c2.118,14.827,6.354,32.832,6.884,39.716c0.53,6.884,1.589,7.943-3.707,9.002"/>
		</g>
		<g>
			<path style="fill:#3CA3F4;stroke:#263238;stroke-linecap:round;stroke-linejoin:round;stroke-miterlimit:10;" d="
				M252.132,246.486c0,0-6.456-3.725-1.392-24.61c5.063-20.885,4.816-25.431-0.54-23.315c-5.356,2.115-7.089,7.134-7.089,7.134
				s0.788-8.98-4.861-7.213c-5.649,1.767-5.165,7.303-5.165,7.303s-5.233-14.032-11.05-10.341s-5.109,6.662-3.286,11.669
				c1.823,5.007,9.261,16.001,9.261,16.001s-10.746-6.436-17.003-12.479c-6.257-6.042-12.569-11.443-16.17-7.235
				c-3.601,4.208,4.242,14.268,4.242,14.268s-9.689-3.758-10.195,2.014c-0.506,5.772,4.985,9.486,4.985,9.486
				s-9.328-0.495-5.75,6.605s14.19,7.708,14.19,7.708s0.653,3.612,4.85,3.657c4.197,0.045,15.09-2.555,15.09-2.555
				s-12.164,6.043-19.444,7.99c-7.28,1.947-2.937,11.376-0.022,11.309c2.914-0.068,6.583-1.362,6.583-1.362
				s-3.882,7.415,0.957,7.517s7.224-1.305,7.224-1.305s-0.742,4.782,2.926,3.488c3.668-1.294,7.157-4.22,10.06-7.843
				c2.903-3.623,7.899-9.002,7.899-9.002s4.422-2.521,9.148-1.137c4.726,1.384,4.726,1.384,4.726,1.384l3.432-2.284L252.132,246.486
				z"/>
			<path style="fill:#3CA3F4;stroke:#263238;stroke-linecap:round;stroke-linejoin:round;stroke-miterlimit:10;" d="
				M206.558,231.442c-3.038-1.696-5.41-3.349-6.691-4.332"/>
			<path style="fill:#3CA3F4;stroke:#263238;stroke-linecap:round;stroke-linejoin:round;stroke-miterlimit:10;" d="
				M249.772,247.645c0,0-14.662-9.688-25.273-10.296c-5.219-0.299-10.458-2.163-14.83-4.285"/>
			<path style="fill:#3CA3F4;stroke:#263238;stroke-linecap:round;stroke-linejoin:round;stroke-miterlimit:10;" d="
				M236.357,228.719c1.355,5.9,2.508,9.308,5.291,12.073"/>
			<path style="fill:#3CA3F4;stroke:#263238;stroke-linecap:round;stroke-linejoin:round;stroke-miterlimit:10;" d="
				M227.964,208.891c0,0,5.086,4.647,7.157,14.201c0.178,0.819,0.346,1.602,0.509,2.35"/>
			<path style="fill:#3CA3F4;stroke:#263238;stroke-linecap:round;stroke-linejoin:round;stroke-miterlimit:10;" d="M231.67,251.107
				c-0.573,0.375-1.142,0.794-1.702,1.264c-5.93,4.974-10.814,9.07-15.708,9.61"/>
			<path style="fill:#3CA3F4;stroke:#263238;stroke-linecap:round;stroke-linejoin:round;stroke-miterlimit:10;" d="
				M235.752,249.106c3.947-1.375,7.202-1.09,7.202-1.09"/>
		</g>
		<g>
			<path style="fill:#919191;stroke:#263238;stroke-miterlimit:10;" d="M233.593,272.036c0,0-20.666-26.71-20.666-31.856
				c0-5.147,9.607-34.998,15.097-31.223c5.49,3.774,22.646,36.37,21.273,49.408C247.925,271.403,239.848,276.787,233.593,272.036z"
				/>
			<path style="fill:#919191;stroke:#263238;stroke-miterlimit:10;" d="M227.681,214.103c0,0-7.205,21.616-4.46,26.077
				c2.745,4.461,9.264,26.077,12.352,27.106c3.088,1.029,6.519,2.059,8.578-3.774"/>
		</g>
		<g>
			<path style="fill:#D6D6D6;stroke:#263238;stroke-miterlimit:10;" d="M207.102,179.48c0,0-3.707,12.709-7.414,33.891
				c-3.707,21.182-2.648,47.659-1.059,51.896c1.589,4.236,7.943,5.825,11.12,4.766c3.177-1.059,3.177-2.648,3.707-23.83
				c0.53-21.182,0.53-30.714,6.355-46.6s3.707-22.771-0.53-26.477C215.046,169.419,211.339,167.831,207.102,179.48z"/>
			<path style="fill:none;stroke:#263238;stroke-miterlimit:10;" d="M219.812,184.776c0,0-7.414,13.239-9.532,32.302
				c-2.118,19.064,3.346,37.433,0.614,43.076c-2.732,5.643-8.028,3.525-8.028,3.525"/>
		</g>
		<g>
			<path style="fill:#D6D6D6;stroke:#263238;stroke-miterlimit:10;" d="M111.356,194.985c0,0,5.141,12.2,15.626,30.974
				c10.486,18.774,28.009,38.651,31.915,40.936c3.905,2.285,9.838-0.491,11.635-3.317c1.797-2.826,0.795-4.059-12.156-20.828
				s-18.964-24.166-24.465-40.167c-5.502-16.001-11.488-20.007-17.113-20.211C111.173,182.167,107.295,183.273,111.356,194.985z"/>
			<path style="fill:none;stroke:#263238;stroke-miterlimit:10;" d="M124.558,191.077c0,0,2.599,14.949,12.981,31.077
				c10.382,16.128,26.21,26.934,27.649,33.036c1.439,6.102-4.006,7.799-4.006,7.799"/>
		</g>
		<g>
			<path style="fill:#C2C2C2;stroke:#263238;stroke-miterlimit:10;" d="M271.178,233.494c0,0-9.532-19.064-19.064-40.246
				c-9.532-21.182-19.064-35.48-23.83-28.596c-4.766,6.884-4.766,27.007-1.589,37.598c3.177,10.591,1.059,4.766,3.177,10.591
				c2.118,5.825-0.53,1.059,5.296,12.709c5.825,11.65,7.414,15.886,11.12,16.945C249.996,243.556,272.237,253.617,271.178,233.494z"
				/>
			<path style="fill:#C2C2C2;stroke:#263238;stroke-miterlimit:10;" d="M239.405,185.835c0,0,1.589,4.236,1.589,22.241
				s-0.53,20.123-0.53,20.123"/>
			<path style="fill:#C2C2C2;stroke:#263238;stroke-miterlimit:10;" d="M245.23,231.376c3.177-12.709,0.53-37.068,0.53-37.068"/>
			<path style="fill:#C2C2C2;stroke:#263238;stroke-miterlimit:10;" d="M251.584,205.958c0,0,1.059,17.475-2.118,31.243"/>
			<path style="fill:#C2C2C2;stroke:#263238;stroke-miterlimit:10;" d="M256.35,219.726c0,0-0.53,11.65-2.118,19.064"/>
			<path style="fill:#C2C2C2;stroke:#263238;stroke-miterlimit:10;" d="M234.639,171.008c0,0,21.712,37.068,30.184,60.368"/>
		</g>
		<g>
			<path style="fill:#C2C2C2;stroke:#263238;stroke-miterlimit:10;" d="M275.77,209.427c0,0-9.532-19.064-19.064-40.246
				c-9.532-21.182-19.064-35.48-23.83-28.596c-4.766,6.884-4.766,27.007-1.589,37.598c3.177,10.591,1.059,4.766,3.177,10.591
				c2.118,5.825-0.53,1.059,5.295,12.709c5.825,11.65,7.414,15.886,11.12,16.945C254.588,219.489,276.829,229.55,275.77,209.427z"/>
			<path style="fill:#C2C2C2;stroke:#263238;stroke-miterlimit:10;" d="M243.997,161.768c0,0,1.589,4.236,1.589,22.241
				s-0.53,20.123-0.53,20.123"/>
			<path style="fill:#C2C2C2;stroke:#263238;stroke-miterlimit:10;" d="M250.351,170.241c0,0,2.648,24.359-0.53,37.068"/>
			<path style="fill:#C2C2C2;stroke:#263238;stroke-miterlimit:10;" d="M256.176,181.891c0,0,1.059,17.475-2.118,31.243"/>
			<path style="fill:#C2C2C2;stroke:#263238;stroke-miterlimit:10;" d="M260.942,195.659c0,0-0.53,11.65-2.118,19.064"/>
			<path style="fill:#C2C2C2;stroke:#263238;stroke-miterlimit:10;" d="M239.231,146.941c0,0,21.711,37.068,30.184,60.368"/>
		</g>
		<path style="fill:#FFFFFF;stroke:#263238;stroke-miterlimit:10;" d="M224.133,259.624c0,0-2.146-25.747,13.589-45.057
			s14.304-39.335,11.443-51.493c-2.861-12.158-3.576-17.88,2.146-13.589c5.721,4.291,17.88,12.158,23.601,44.342
			s19.31,81.531,22.171,112.284c2.861,30.753,5.006,56.5,10.728,72.949c5.721,16.449-2.146,29.323-10.013,35.759
			c-7.867,6.437-17.88,0-21.456-13.589S224.133,259.624,224.133,259.624z"/>
		<g>
			<path style="fill:#C2C2C2;stroke:#263238;stroke-miterlimit:10;" d="M179.036,254.147c0,0-9.532-19.064-19.064-40.246
				c-9.532-21.182-19.064-35.48-23.83-28.596c-4.766,6.884-4.766,27.007-1.589,37.598c3.177,10.591,1.059,4.766,3.177,10.591
				c2.118,5.825-0.529,1.059,5.296,12.709s7.414,15.886,11.12,16.945C157.855,264.208,180.096,274.269,179.036,254.147z"/>
			<path style="fill:#C2C2C2;stroke:#263238;stroke-miterlimit:10;" d="M147.264,206.487c0,0,1.589,4.236,1.589,22.241
				s-0.529,20.123-0.529,20.123"/>
			<path style="fill:#C2C2C2;stroke:#263238;stroke-miterlimit:10;" d="M153.618,214.96c0,0,2.648,24.359-0.529,37.068"/>
			<path style="fill:#C2C2C2;stroke:#263238;stroke-miterlimit:10;" d="M159.443,226.61c0,0,1.059,17.475-2.118,31.243"/>
			<path style="fill:#C2C2C2;stroke:#263238;stroke-miterlimit:10;" d="M164.209,240.378c0,0-0.53,11.65-2.118,19.064"/>
			<path style="fill:#C2C2C2;stroke:#263238;stroke-miterlimit:10;" d="M142.498,191.66c0,0,21.711,37.068,30.184,60.368"/>
		</g>
		<path style="fill:#FFFFFF;stroke:#263238;stroke-miterlimit:10;" d="M261.322,288.947c0,0-1.527-19.062-29.323-37.19
			c-32.898-21.456-95.835-17.164-115.145-35.759c-19.31-18.595-18.595-40.05-20.74-30.038c-2.146,10.013,1.43,41.481,15.734,75.81
			s69.373,66.512,84.392,77.955c15.019,11.443,41.481,55.069,42.196,65.797c0.715,10.728,5.721,27.177,15.734,31.468
			c10.013,4.291,26.462-17.88,30.753-55.784C289.214,343.301,261.322,288.947,261.322,288.947z"/>
		<path style="fill:#3CA3F4;stroke:#263238;stroke-linecap:round;stroke-linejoin:round;stroke-miterlimit:10;" d="M201.247,345.447
			c0,0,57.93-2.861,94.404-46.487l12.158,80.101c0,0-7.152,12.158-31.468,22.171c-24.316,10.013-37.905,4.291-37.905,4.291
			L201.247,345.447z"/>
		<path style="fill:#FFFFFF;stroke:#263238;stroke-miterlimit:10;" d="M200.218,144.001c0,0-6.679-4.718-4.928,4.79
			c1.751,9.508,4.317,11.386,6.517,5.271c2.2-6.115,11.65-10.061,13.768-4.236c2.118,5.825,5.825,19.064,8.473,19.064
			c2.648,0-0.439-6.607,4.236-4.236c4.676,2.37-1.059,11.65,2.648,19.064c3.707,7.414,15.357,0,14.298-5.825
			c-1.059-5.825-7.993-28.855-7.993-28.855s-10.541,9.791-10.011,2.377c0.529-7.414-1.656-19.727-4.799-21.514
			c-3.144-1.787-2.371,16.162-6.729,13.278c-4.358-2.885-4.745-8.208-8.788-5.547C202.866,140.294,200.218,144.001,200.218,144.001z
			"/>
		<g>
			<line style="fill:none;stroke:#263238;stroke-miterlimit:10;" x1="239.395" y1="363.493" x2="275.265" y2="367.08"/>
			<line style="fill:none;stroke:#263238;stroke-miterlimit:10;" x1="263.309" y1="371.265" x2="277.657" y2="373.058"/>
		</g>
		<g>
			<path style="fill:#263238;" d="M195.221,299.276c1.68,1.336,2.209,3.466,1.181,4.758c-1.028,1.292-3.222,1.257-4.902-0.079
				c-1.68-1.336-2.209-3.466-1.181-4.758C191.347,297.905,193.542,297.941,195.221,299.276z"/>
			<path style="fill:#263238;" d="M214.491,312.611c0.84,0.668,1.104,1.733,0.591,2.379c-0.514,0.646-1.611,0.628-2.451-0.039
				c-0.84-0.668-1.104-1.733-0.591-2.379C212.554,311.926,213.651,311.943,214.491,312.611z"/>
			<path style="fill:#263238;" d="M225.054,292.96c0.84,0.668,1.104,1.733,0.591,2.379c-0.514,0.646-1.611,0.628-2.451-0.039
				c-0.84-0.668-1.105-1.733-0.591-2.379C223.117,292.274,224.214,292.292,225.054,292.96z"/>
			<path style="fill:#263238;" d="M288.425,285.188c0.84,0.668,1.104,1.733,0.591,2.379c-0.514,0.646-1.611,0.629-2.451-0.039
				c-0.84-0.668-1.104-1.733-0.591-2.379C286.488,284.502,287.585,284.52,288.425,285.188z"/>
			<path style="fill:#263238;" d="M280.404,299.335c0.546,0.924,0.413,2.013-0.298,2.433c-0.711,0.42-1.729,0.012-2.275-0.912
				c-0.546-0.924-0.413-2.013,0.298-2.433C278.84,298.003,279.858,298.411,280.404,299.335z"/>
			<path style="fill:#263238;" d="M275.265,262.457c0.546,0.924,0.413,2.013-0.298,2.433c-0.711,0.42-1.729,0.012-2.275-0.912
				c-0.546-0.924-0.413-2.013,0.298-2.433C273.701,261.125,274.719,261.534,275.265,262.457z"/>
			<path style="fill:#263238;" d="M268.573,415.221c0.546,0.924,0.413,2.013-0.298,2.433c-0.711,0.42-1.729,0.012-2.275-0.912
				c-0.546-0.924-0.413-2.013,0.298-2.433C267.008,413.889,268.027,414.297,268.573,415.221z"/>
			<path style="fill:#263238;" d="M292.005,398.765c0.546,0.924,0.413,2.013-0.298,2.433c-0.711,0.42-1.729,0.012-2.275-0.912
				c-0.546-0.924-0.413-2.013,0.298-2.433C290.44,397.433,291.459,397.841,292.005,398.765z"/>
			<path style="fill:#263238;" d="M289.016,408.331c0.546,0.924,0.413,2.013-0.298,2.433c-0.711,0.42-1.729,0.012-2.275-0.912
				c-0.546-0.924-0.413-2.013,0.298-2.433C287.451,406.999,288.47,407.407,289.016,408.331z"/>
			<path style="fill:#263238;" d="M295.592,405.341c0.546,0.924,0.413,2.013-0.298,2.433c-0.711,0.42-1.729,0.012-2.275-0.912
				c-0.546-0.924-0.413-2.013,0.298-2.433C294.027,404.009,295.046,404.418,295.592,405.341z"/>
			<path style="fill:#263238;" d="M158.686,247.511c0.546,0.924,0.413,2.013-0.298,2.433c-0.711,0.42-1.729,0.012-2.275-0.912
				c-0.546-0.924-0.413-2.013,0.298-2.433C157.121,246.179,158.14,246.588,158.686,247.511z"/>
			<path style="fill:#263238;" d="M141.947,283.382c0.84,0.668,1.104,1.733,0.591,2.379c-0.514,0.646-1.611,0.629-2.451-0.039
				c-0.84-0.668-1.104-1.733-0.591-2.379C140.009,282.697,141.107,282.714,141.947,283.382z"/>
			<path style="fill:#263238;" d="M192.232,277.455c0.84,0.668,1.104,1.733,0.591,2.379c-0.514,0.646-1.611,0.629-2.451-0.039
				c-0.84-0.668-1.104-1.733-0.591-2.379C190.295,276.77,191.392,276.787,192.232,277.455z"/>
		</g>
		<path style="fill:#C2C2C2;stroke:#263238;stroke-miterlimit:10;" d="M257.33,205.065l-6.591,16.812c0,0-7.437,10.403-9.092,18.916
			c-1.655,8.513,0.736,15.687,0.736,15.687"/>
		<path style="fill:#C2C2C2;stroke:#263238;stroke-miterlimit:10;" d="M242.982,295.937c0,0-15.544,15.544-14.946,30.49"/>
		<path style="fill:#C2C2C2;stroke:#263238;stroke-miterlimit:10;" d="M221.46,321.644c0,0-4.185,10.163-13.75,12.555"/>
	</g>
</g>
</svg>
