<?xml version="1.0" encoding="utf-8"?>
<!-- Generator: Adobe Illustrator 27.5.0, SVG Export Plug-In . SVG Version: 6.00 Build 0)  -->
<svg version="1.1" xmlns="http://www.w3.org/2000/svg" xmlns:xlink="http://www.w3.org/1999/xlink" x="0px" y="0px"
	 viewBox="0 0 500 500" style="enable-background:new 0 0 500 500;" xml:space="preserve">
<g id="Background_Complete">
	<g>
		<rect y="382.398" style="fill:#EBEBEB;" width="500" height="0.25"/>
		<rect x="416.779" y="398.494" style="fill:#EBEBEB;" width="33.122" height="0.25"/>
		<rect x="239.645" y="395.444" style="fill:#EBEBEB;" width="30.22" height="0.25"/>
		<rect x="345.889" y="389.208" style="fill:#EBEBEB;" width="69.889" height="0.25"/>
		<rect x="52.459" y="390.888" style="fill:#EBEBEB;" width="167.138" height="0.25"/>
		<rect x="228.5" y="390.888" style="fill:#EBEBEB;" width="6.333" height="0.25"/>
		<path style="fill:#EBEBEB;" d="M237.014,337.8H43.915c-3.147,0-5.708-2.561-5.708-5.708V60.66c0-3.147,2.561-5.708,5.708-5.708
			h193.099c3.146,0,5.707,2.561,5.707,5.708v271.432C242.721,335.239,240.16,337.8,237.014,337.8z M43.915,55.203
			c-3.01,0-5.458,2.448-5.458,5.458v271.432c0,3.01,2.448,5.458,5.458,5.458h193.099c3.009,0,5.457-2.448,5.457-5.458V60.66
			c0-3.009-2.448-5.458-5.457-5.458H43.915z"/>
		<path style="fill:#EBEBEB;" d="M453.31,337.8H260.212c-3.147,0-5.707-2.561-5.707-5.708V60.66c0-3.147,2.561-5.708,5.707-5.708
			H453.31c3.148,0,5.708,2.561,5.708,5.708v271.432C459.019,335.239,456.458,337.8,453.31,337.8z M260.212,55.203
			c-3.009,0-5.457,2.448-5.457,5.458v271.432c0,3.01,2.448,5.458,5.457,5.458H453.31c3.01,0,5.458-2.448,5.458-5.458V60.66
			c0-3.009-2.448-5.458-5.458-5.458H260.212z"/>
	</g>
	<g>
		<g>
			<rect x="336.844" y="81.438" style="fill:#F5F5F5;" width="107.8" height="119.069"/>
			
				<rect x="335.629" y="81.438" transform="matrix(-1 -1.224647e-16 1.224647e-16 -1 672.4724 281.9447)" style="fill:#EBEBEB;" width="1.215" height="119.069"/>
			<path style="fill:#FFFFFF;" d="M416.507,117.62c-7.114-7.114-18.649-7.114-25.763,0c-7.114-7.114-18.649-7.114-25.763,0
				c-7.114,7.114-7.114,18.649,0,25.763l25.763,25.763l25.763-25.763C423.621,136.269,423.621,124.735,416.507,117.62z"/>
		</g>
		<g>
			<path style="opacity:0.3;fill:#E6E6E6;" d="M194.088,188.482c0-40.982-33.232-74.214-74.215-74.214
				c-40.982,0-74.205,33.232-74.205,74.214c0,37.059,27.168,67.768,62.672,73.309c-1.174,0.872-1.945,2.257-1.945,3.832
				c0,2.643,2.143,4.785,4.785,4.785h2.053l-6.651,111.991h26.591l-6.651-111.991h2.053c2.643,0,4.785-2.142,4.785-4.785
				c0-1.576-0.772-2.962-1.947-3.833C166.917,256.245,194.088,225.538,194.088,188.482z M119.873,250.944
				c-34.494,0-62.462-27.968-62.462-62.462c0-34.504,27.968-62.472,62.462-62.472c34.504,0,62.472,27.968,62.472,62.472
				C182.345,222.977,154.378,250.944,119.873,250.944z"/>
			<g>
				<path style="opacity:0.6;fill:#FAFAFA;" d="M99.957,245.722c-31.611,0-54.359-25.63-50.804-57.24
					c3.555-31.62,32.066-57.249,63.677-57.249c31.62,0,54.367,25.63,50.812,57.249C160.088,220.092,131.577,245.722,99.957,245.722z
					"/>
				<g>
					<path style="fill:#FFFFFF;" d="M112.83,131.236c-0.362,0-0.714,0-1.078,0.01l-62.464,56.15
						c-0.051,0.362-0.091,0.724-0.132,1.086c-1.454,12.927,1.501,24.856,7.655,34.446l89.178-80.164
						C137.222,135.532,125.766,131.236,112.83,131.236z"/>
					<path style="fill:#FFFFFF;" d="M151.236,147.793L61.187,228.74c2.705,3.092,5.803,5.832,9.24,8.161l87.828-78.951
						C156.342,154.252,153.985,150.846,151.236,147.793z"/>
				</g>
				<path style="fill:#F0F0F0;" d="M180.607,188.482c4.608-40.982-24.888-74.214-65.87-74.214S36.796,147.5,32.188,188.482
					c-4.167,37.059,19.549,67.768,54.43,73.309c-1.272,0.872-2.199,2.257-2.376,3.832c-0.297,2.643,1.605,4.785,4.247,4.785h2.053
					L71.299,382.398H97.89l5.941-111.991h2.053c2.643,0,5.026-2.142,5.323-4.785c0.177-1.576-0.439-2.962-1.516-3.833
					C145.817,256.245,176.441,225.538,180.607,188.482z M99.37,250.944c-34.494,0-59.317-27.968-55.439-62.462
					c3.88-34.504,34.992-62.472,69.486-62.472c34.504,0,59.327,27.968,55.448,62.472C164.986,222.977,133.874,250.944,99.37,250.944
					z"/>
			</g>
		</g>
		<g>
			<path style="fill:#EBEBEB;" d="M353.236,300.712c-9.699-11.811-5.059-32.186,6.483-35.906
				c11.543-3.72,19.815-13.701,23.595-23.163s19.136-28.57,37.531-31.541c18.396-2.971,17.346-7.191,35.883-12.381
				c18.537-5.189,35.001,12.572,13.16,18.858c-21.841,6.286-6.224,34.471-29.119,45.157c-22.895,10.686-22.106,23.521-24.225,38.12
				C414.427,314.455,374.666,326.807,353.236,300.712z"/>
			<path style="fill:#FAFAFA;" d="M351.39,338.789l-0.967-0.254c13.371-50.736,43.932-84.713,67.214-104.281
				c25.225-21.201,47.595-30.533,47.818-30.625l0.381,0.924c-0.222,0.092-22.474,9.38-47.584,30.49
				C395.092,254.516,364.691,288.322,351.39,338.789z"/>
			<path style="fill:#E6E6E6;" d="M327.764,315.104c-14.576-7.252-21.051-30.38-12.888-39.916
				c8.163-9.536,10.234-23.846,8.646-35.393s1.956-38.704,16.494-50.879s11.439-15.967,24.954-30.479
				c13.515-14.512,37.077-4.54,21.242,12.734c-15.835,17.274,12.373,38.32-2.108,60.615s-7.161,35.019-1.468,50.992
				C388.328,298.752,359.972,331.128,327.764,315.104z"/>
			<path style="fill:#FAFAFA;" d="M341.251,337.168c-13.027-37.165-4.884-80.995,4.241-111.221
				c10.028-33.215,24.684-60.528,29.977-64.019l0.551,0.834c-8.937,5.894-58.382,104.014-33.825,174.075L341.251,337.168z"/>
			<polygon style="fill:#F5F5F5;" points="380.26,324.444 317.19,324.444 323.56,382.398 373.889,382.398 			"/>
		</g>
		<path style="fill:#E6E6E6;" d="M190.966,241.957c-14.542,4.126-36.777,12.241-48.643,18.37
			c12.633-13.294,39.52-22.084,50.052-24.979c-13.523-0.306-46.242,1.737-46.242,1.737s16.83-4.764,32.346-6.83
			c-8.172-2.063-16.5-3.685-22.236-3.904c15.876-4.972,42.105,2.112,44.751,3.066c2.365-2.77,9.873-10.204,16.812-8.406
			c-3.229,1.459-7.755,6.124-11.219,10.515c4.252-1.832,12.34-4.205,21.287-1.757c-6.517,0.599-19.108,5.167-21.473,13.766
			c3.452,19.035,5.454,57.396,5.706,84.854h4.422c4.428-39.557,14.302-100.911,22.513-124.824
			c0.161-2.344,3.525-11.896,7.524-13.289c3.609-1.257,39.662-10.724,60.113-4.09c-7.678,0.292-19.017,2.454-30.213,5.204
			c20.379,2.754,42.113,9.105,42.113,9.105s-43.313-2.723-61.384-2.316c13.612,3.858,48.165,15.575,63.054,33.296
			c-21.196-11.609-69.715-28.567-78.96-27.999c-0.347,0.76-0.723,1.704-1.196,2.904c-2.581,6.547-10.475,42.689-13.359,61.238
			c-1.95,12.542-5.774,41.358-7.999,60.773h17.895h3.947l-3.38,8.319h-1.804l-6.794,45.69h-34l-6.794-45.69h-1.804l-3.38-8.319
			h3.947h23.878c-0.133-14.194-0.566-32.494-0.95-40.947c-0.501-11.025-2.449-30.323-3.93-40.313
			c-2.988,0.841-13.559,9.611-18.332,17.073c2.937-8.235,7.604-14.749,11.216-18.916c-7.416,2.397-18.989,7.598-25.52,12.772
			C178.18,251.027,185.109,245.65,190.966,241.957z"/>
	</g>
</g>
<g id="Background_Simple" style="display:none;">
	<g style="display:inline;">
		<path style="fill:#407BFF;" d="M304.874,144.105C224.373,104.171,158.925,43.153,88.67,110.168
			c-83.838,79.97-24.708,171.546,79.528,210.644c56.319,21.125,165.711,3.64,208.439-34.745
			c21.549-19.359,53.68-69.873,39.23-97.334C393.195,145.65,344.693,163.858,304.874,144.105z"/>
		<path style="opacity:0.9;fill:#FFFFFF;" d="M304.874,144.105C224.373,104.171,158.925,43.153,88.67,110.168
			c-83.838,79.97-24.708,171.546,79.528,210.644c56.319,21.125,165.711,3.64,208.439-34.745
			c21.549-19.359,53.68-69.873,39.23-97.334C393.195,145.65,344.693,163.858,304.874,144.105z"/>
	</g>
</g>
<g id="Shadow_1_">
	<ellipse id="_x3C_Path_x3E__262_" style="fill:#F5F5F5;" cx="250" cy="416.238" rx="193.889" ry="11.323"/>
</g>
<g id="Character_1">
	<g>
		<circle style="fill:#263238;" cx="165.801" cy="96.89" r="21.148"/>
		<polygon style="fill:#7F3E3B;" points="189.931,390.535 182.615,395.371 170.888,379.403 178.203,374.566 		"/>
		<path style="fill:#263238;" d="M182.017,394.585l7.98-5.275c0.299-0.198,0.661-0.146,0.872,0.124l4.696,6.012
			c0.487,0.623,0.295,1.646-0.4,2.089c-2.903,1.851-7.147,4.419-10.765,6.811c-4.23,2.797-3.618,4.739-9.3,6.37
			c-3.436,0.986-4.823-2.332-3.424-3.07c6.37-3.36,5.453-4.754,8.867-11.286C180.913,395.649,181.387,395.001,182.017,394.585z"/>
		<polygon style="opacity:0.2;" points="170.892,379.406 176.936,387.638 184.255,382.8 178.211,374.568 		"/>
		<path style="fill:#263238;" d="M171.932,132.901c-11.025-2.45-22.279-2.684-33.741-1.637c-3.886,0.355-7.242,3.19-8.181,7.007
			c-2.613,10.612-7.136,34.536-6.423,70.973c0,0.004,46.258,0.75,46.258,0.75c0.945-6.506,0.197-36.643,8.037-67.06
			C179.062,138.354,176.425,133.899,171.932,132.901z"/>
		<path style="fill:#407BFF;" d="M144.084,139.415l1.211,3.455c0.121,0.346,0.421,0.594,0.785,0.65l1.757,0.269
			c0.315,0.048,0.639-0.015,0.919-0.179l3.35-1.97l-3.411-3.13L144.084,139.415z"/>
		<path style="fill:#407BFF;" d="M148.029,142.74c-1.26-0.449-2.046-0.27-2.046-0.27c-2.067,3.55-5.434,13.931-6.382,18.559
			c2.816,9.482,4.089,10.515,4.089,10.515l4.101-10.875C147.79,160.67,147.22,149.211,148.029,142.74z"/>
		<path style="fill:#7F3E3B;" d="M165.134,109.791c-1.871,6.224-4.268,17.703-0.281,22.246c-3.769,3.156-8.644,6.765-16.155,6.47
			c-7.512-0.295-5.685-5.355-3.435-7.93c7.198-1.158,7.542-6.397,6.811-11.395L165.134,109.791z"/>
		<path style="fill:#FFFFFF;" d="M166.83,131.672c-0.551-0.324-1.161-0.561-1.573-0.701c-0.274-0.097-0.582-0.011-0.759,0.227
			c-0.883,1.154-3.785,6.396-15.804,7.312c1.78,1.337,3.886,5.155,4.774,6.967c3.761-1.478,13.641-6.04,13.692-13.222
			C167.154,132.017,167.038,131.79,166.83,131.672z"/>
		<path style="fill:#FFFFFF;" d="M145.29,130.874c0.16-0.474-0.198-0.938-0.687-0.895c-0.499,0.043-1.002,0.151-1.243,0.205
			c-0.098,0.022-0.176,0.065-0.266,0.119c-1.008,0.744-6.841,7.35-3,13.562c1.225-1.456,4.973-4.673,8.601-5.355
			C145.587,136.676,144.32,133.732,145.29,130.874z"/>
		<path style="opacity:0.2;" d="M159.809,113.624l-7.73,5.554c0.177,1.183,0.287,2.378,0.254,3.529
			c2.724-0.189,6.71-2.867,7.278-5.663C159.895,115.65,159.972,114.295,159.809,113.624z"/>
		<path style="fill:#7F3E3B;" d="M171.253,101.875c-2.758,8.287-3.959,13.255-9.295,16.661c-8.026,5.124-17.213-0.931-16.942-9.74
			c0.244-7.929,4.713-20.149,13.711-21.739C167.592,85.49,174.011,93.588,171.253,101.875z"/>
		<path style="fill:#263238;" d="M168.079,107.704l-4.934-1.989c0,0,5.903-6.472,6.244-10.393
			c-9.149-1.406-21.894-1.13-16.609-9.667c3.562-5.755,7.736-5.747,15.472-3.111c12.673,4.317,10.996,15.386,8.141,21.694
			C173.537,110.545,168.079,107.704,168.079,107.704z"/>
		<path style="fill:#FFFFFF;" d="M170.362,107.668c-0.064,0-0.128-0.023-0.177-0.071c-3.557-3.41-7.951-4.875-7.995-4.89
			c-0.134-0.044-0.208-0.188-0.164-0.322c0.044-0.136,0.188-0.208,0.323-0.164c0.045,0.015,4.545,1.513,8.189,5.007
			c0.102,0.098,0.105,0.26,0.008,0.361C170.496,107.642,170.43,107.668,170.362,107.668z"/>
		<path style="fill:#263238;" d="M152.318,110.058c2.562,0.684,4.48-0.544,4.568-0.602c0.097-0.064,0.128-0.19,0.069-0.284
			c-0.059-0.093-0.186-0.117-0.283-0.054c-0.022,0.014-2.257,1.436-5.026,0.27c-0.103-0.043-0.226,0.006-0.275,0.111
			c-0.049,0.104-0.006,0.224,0.097,0.267C151.758,109.888,152.042,109.984,152.318,110.058z"/>
		<path style="fill:#7F3E3B;" d="M171.723,111.622c-1.661,1.706-3.915,2.531-5.823,2.583c-2.869,0.078-3.458-2.648-1.953-4.985
			c1.355-2.104,4.48-4.68,7.019-3.644C173.468,106.597,173.622,109.671,171.723,111.622z"/>
		<path style="fill:#407BFF;" d="M148.202,295.173c0.996-43.535,11.923-85.344,11.923-85.344l-36.083-0.582
			c0,0,2.209,62.877,2.839,89.213c0.652,27.384,45.909,89.563,45.909,89.563l12.388-8.198
			C185.177,379.825,149.167,329.529,148.202,295.173z"/>
		<path style="opacity:0.2;" d="M151.531,233.783c-10.724,14.085-6.916,40.583-3.278,59.306c0.708-23.274,4.156-45.868,7.156-61.636
			L151.531,233.783z"/>
		<polygon style="fill:#263238;" points="172.19,388.806 186.92,379.068 183.732,374.507 168.238,384.374 		"/>
		<path style="fill:#263238;" d="M158.476,101.099c-0.183,0.684-0.689,1.161-1.13,1.066c-0.441-0.095-0.649-0.727-0.466-1.41
			s0.689-1.161,1.13-1.066C158.45,99.784,158.659,100.415,158.476,101.099z"/>
		<path style="fill:#263238;" d="M150.664,99.647c-0.183,0.684-0.689,1.161-1.129,1.065c-0.441-0.095-0.649-0.727-0.466-1.41
			s0.689-1.161,1.13-1.065S150.847,98.963,150.664,99.647z"/>
		<path style="fill:#630F0F;" d="M152.802,100.45c0,0-2.603,3.129-4.806,4.469c0.884,1.186,3.05,1.101,3.05,1.101L152.802,100.45z"
			/>
		<path style="fill:#263238;" d="M161.673,99.212c0.068,0.005,0.139-0.007,0.206-0.038c0.21-0.096,0.312-0.34,0.228-0.546
			c-0.846-2.057-2.7-2.343-2.779-2.354c-0.223-0.032-0.438,0.125-0.482,0.349c-0.044,0.224,0.1,0.431,0.321,0.464l0,0
			c0.061,0.009,1.503,0.248,2.178,1.889C161.403,99.116,161.531,99.201,161.673,99.212z"/>
		<path style="fill:#263238;" d="M147.682,95.704c0.123,0.045,0.27,0.03,0.39-0.054c1.527-1.064,2.904-0.58,2.962-0.558
			c0.209,0.076,0.453-0.031,0.543-0.241c0.09-0.21-0.005-0.443-0.213-0.522c-0.076-0.027-1.833-0.668-3.746,0.665
			c-0.191,0.133-0.244,0.388-0.119,0.569C147.545,95.63,147.609,95.677,147.682,95.704z"/>
		<g>
			<path style="fill:#407BFF;" d="M181.104,396.129c0.048-0.061,0.061-0.145,0.031-0.216c-0.033-0.08-0.113-0.127-0.199-0.118
				c-0.435,0.047-4.268,0.495-4.861,1.58c-0.114,0.209-0.118,0.435-0.01,0.652c0,0,0,0,0,0c0.18,0.364,0.459,0.577,0.829,0.632
				c1.227,0.183,3.152-1.493,4.191-2.508C181.092,396.144,181.098,396.137,181.104,396.129z M176.472,397.497
				c0.438-0.557,2.396-1,3.887-1.212c-1.455,1.338-2.702,2.064-3.39,1.961c-0.242-0.036-0.42-0.174-0.542-0.422
				c-0.047-0.096-0.048-0.173-0.001-0.258C176.439,397.544,176.454,397.521,176.472,397.497z"/>
			<path style="fill:#407BFF;" d="M181.104,396.129c0.012-0.016,0.023-0.033,0.031-0.052c0.029-0.069,0.02-0.147-0.022-0.205
				c-0.058-0.079-1.433-1.928-2.821-2.08c-0.423-0.046-0.806,0.067-1.139,0.337l0,0c-0.448,0.364-0.441,0.697-0.356,0.913
				c0.361,0.92,3.056,1.352,4.176,1.166C181.025,396.199,181.072,396.171,181.104,396.129z M177.238,394.605
				c0.036-0.045,0.086-0.096,0.156-0.153v0c0.246-0.2,0.52-0.28,0.838-0.246c0.912,0.1,1.877,1.111,2.314,1.627
				c-1.225,0.052-3.158-0.41-3.374-0.962C177.159,394.837,177.124,394.75,177.238,394.605z M177.274,394.29l-0.003,0.004
				L177.274,394.29z"/>
		</g>
		<polygon style="fill:#7F3E3B;" points="174.395,402.041 165.742,401.905 164.171,381.825 172.824,381.96 		"/>
		<path style="fill:#263238;" d="M165.365,400.904l9.428,0.148c0.353,0.006,0.615,0.256,0.629,0.603l0.328,7.721
			c0.034,0.8-0.705,1.547-1.518,1.52c-3.391-0.111-4.442-0.389-8.717-0.456c-4.998-0.079-8.877,0.127-14.739,0.035
			c-3.544-0.056-3.883-3.648-2.343-3.966c4.872-1.007,12.431-2.921,14.73-4.963C163.767,401.011,164.62,400.892,165.365,400.904z"/>
		<polygon style="opacity:0.2;" points="164.173,381.83 164.981,392.181 173.638,392.317 172.829,381.966 		"/>
		<path style="fill:#407BFF;" d="M172.961,294.569c-0.503-39.039,2.03-69.414-3.116-84.575l-30.568-0.493
			c0,0,10.742,60.811,13.769,86.948c3.144,27.176,8.317,91.119,8.317,91.119l13.945,0.198
			C175.309,387.765,178.699,325.033,172.961,294.569z"/>
		<polygon style="fill:#263238;" points="159.252,390.443 176.657,390.717 178.003,385.074 158.618,384.471 		"/>
		<g>
			<path style="fill:#407BFF;" d="M164.865,401.185c0.072-0.027,0.126-0.092,0.14-0.17c0.015-0.088-0.026-0.172-0.101-0.211
				c-0.383-0.196-3.77-1.894-4.828-1.275c-0.204,0.12-0.326,0.313-0.352,0.561c0,0,0,0,0,0c-0.043,0.414,0.074,0.75,0.349,1
				c0.913,0.827,3.377,0.42,4.765,0.104C164.848,401.191,164.857,401.188,164.865,401.185z M160.337,399.851
				c0.652-0.245,2.496,0.436,3.834,1.064c-1.9,0.369-3.307,0.321-3.819-0.144c-0.18-0.163-0.254-0.379-0.224-0.661
				c0.011-0.109,0.052-0.176,0.135-0.224C160.285,399.872,160.31,399.861,160.337,399.851z"/>
			<path style="fill:#407BFF;" d="M164.865,401.185c0.018-0.007,0.036-0.017,0.053-0.029c0.06-0.044,0.094-0.117,0.09-0.19
				c-0.006-0.1-0.165-2.453-1.226-3.341c-0.324-0.271-0.698-0.381-1.114-0.327l0,0c-0.559,0.072-0.729,0.365-0.773,0.599
				c-0.187,0.995,1.803,2.837,2.822,3.285C164.763,401.203,164.817,401.203,164.865,401.185z M162.487,397.757
				c0.053-0.02,0.121-0.037,0.208-0.048h0c0.308-0.04,0.575,0.04,0.818,0.243c0.697,0.583,0.959,1.986,1.048,2.672
				c-1.035-0.622-2.381-2.075-2.269-2.672C162.3,397.915,162.317,397.821,162.487,397.757z M162.682,397.503l-0.005,0.002
				L162.682,397.503z"/>
		</g>
		<g>
			<path style="fill:#407BFF;" d="M165.5,131.716c-5.051,6.318-18.324,14.988-21.826,30.168
				c-3.826-15.099,1.336-31.306,1.336-31.306c-2.823-0.209-8.671-0.465-12.78,0.678c-2.659,0.74-4.713,2.983-5.271,5.67
				c-1.622,7.816-4.892,26.482-4.952,50.123c-0.08,31.756-2.684,80.886-2.684,80.886s32.157,1.889,57.513-0.844
				c0.116-24.266-4.938-65.472-3.626-76.24c1.688-13.854,5.541-40.886,7.452-52.138c0.566-3.33-1.31-6.413-4.447-7.402
				c-3.143-0.99-7.088-0.738-8.993-0.529C166.546,130.857,165.926,131.183,165.5,131.716z"/>
			<path style="opacity:0.7;fill:#FFFFFF;" d="M165.495,131.722c-5.055,6.317-18.32,14.987-21.821,30.162
				c-3.826-15.099,1.336-31.306,1.336-31.306c-2.823-0.209-8.671-0.465-12.78,0.678c-2.659,0.74-4.713,2.983-5.271,5.67
				c-1.622,7.816-4.892,26.482-4.952,50.123c-0.08,31.756-2.684,80.886-2.684,80.886s32.157,1.889,57.513-0.844
				c0.116-24.266-4.938-65.472-3.626-76.24c1.688-13.857,5.542-40.898,7.454-52.145c0.546-3.212-1.143-6.303-4.152-7.299
				c-3.22-1.066-7.319-0.825-9.277-0.62C166.551,130.859,165.924,131.185,165.495,131.722z"/>
		</g>
		<path style="opacity:0.5;fill:#407BFF;" d="M142.038,264.953c-1.52-30.886,0.762-95.515,1.132-101.289l0.538,0.035
			c-0.37,5.77-2.65,70.361-1.131,101.227L142.038,264.953z"/>
		<g>
			<g>
				<path style="fill:#407BFF;" d="M141.126,142.042c-3.189,5.583-6.247,11.475-8.984,17.313c-1.379,2.922-2.673,5.865-3.782,8.777
					c-0.558,1.452-1.065,2.893-1.489,4.273c-0.421,1.355-0.752,2.743-0.853,3.595l-0.014,0.084c0.005-0.046,0.023-0.296,0.018-0.436
					c-0.01-0.323-0.048-0.662-0.122-1.036c-0.089-0.363-0.197-0.698-0.339-1.018c-0.165-0.337-0.299-0.58-0.468-0.82
					c-0.68-0.918-1.131-1.105-1.299-1.212c-0.322-0.14,0.072,0.06,0.536,0.143c0.984,0.221,2.42,0.372,3.867,0.445
					c2.941,0.148,6.133,0.076,9.321-0.094c3.197-0.197,6.43-0.489,9.666-0.837c1.618-0.176,3.235-0.391,4.85-0.606l2.419-0.338
					l1.201-0.186l0.595-0.095l0.293-0.048l0.143-0.024l0.067-0.012l0.032-0.005c0.043-0.006-0.025,0.003-0.151,0.023l-0.296,0.058
					l2.905,13.334l-0.335,0.063l-0.189,0.029l-0.046,0.006l-0.088,0.01l-0.167,0.019l-0.326,0.037l-0.645,0.072l-1.279,0.138
					l-2.547,0.274l-5.096,0.49c-3.401,0.323-6.817,0.591-10.281,0.763c-3.472,0.188-6.957,0.326-10.682,0.169
					c-1.881-0.094-3.781-0.222-6.063-0.694c-1.161-0.274-2.392-0.528-4.183-1.467c-0.891-0.515-2.035-1.202-3.198-2.804
					c-0.555-0.779-1.08-1.851-1.31-2.97c-0.132-0.576-0.188-1.122-0.191-1.655c-0.005-0.244,0.005-0.599,0.017-0.749l0.021-0.227
					c0.227-2.47,0.706-4.335,1.203-6.182c0.507-1.823,1.069-3.544,1.662-5.223c1.197-3.348,2.481-6.561,3.797-9.741
					c1.323-3.174,2.718-6.29,4.123-9.395c1.403-3.124,2.833-6.15,4.34-9.309L141.126,142.042z"/>
			</g>
			<g style="opacity:0.7;">
				<path style="fill:#FFFFFF;" d="M141.126,142.042c-3.189,5.583-6.247,11.475-8.984,17.313c-1.379,2.922-2.673,5.865-3.782,8.777
					c-0.558,1.452-1.065,2.893-1.489,4.273c-0.421,1.355-0.752,2.743-0.853,3.595l-0.014,0.084c0.005-0.046,0.023-0.296,0.018-0.436
					c-0.01-0.323-0.048-0.662-0.122-1.036c-0.089-0.363-0.197-0.698-0.339-1.018c-0.165-0.337-0.299-0.58-0.468-0.82
					c-0.68-0.918-1.131-1.105-1.299-1.212c-0.322-0.14,0.072,0.06,0.536,0.143c0.984,0.221,2.42,0.372,3.867,0.445
					c2.941,0.148,6.133,0.076,9.321-0.094c3.197-0.197,6.43-0.489,9.666-0.837c1.618-0.176,3.235-0.391,4.85-0.606l2.419-0.338
					l1.201-0.186l0.595-0.095l0.293-0.048l0.143-0.024l0.067-0.012l0.032-0.005c0.043-0.006-0.025,0.003-0.151,0.023l-0.296,0.058
					l2.905,13.334l-0.335,0.063l-0.189,0.029l-0.046,0.006l-0.088,0.01l-0.167,0.019l-0.326,0.037l-0.645,0.072l-1.279,0.138
					l-2.547,0.274l-5.096,0.49c-3.401,0.323-6.817,0.591-10.281,0.763c-3.472,0.188-6.957,0.326-10.682,0.169
					c-1.881-0.094-3.781-0.222-6.063-0.694c-1.161-0.274-2.392-0.528-4.183-1.467c-0.891-0.515-2.035-1.202-3.198-2.804
					c-0.555-0.779-1.08-1.851-1.31-2.97c-0.132-0.576-0.188-1.122-0.191-1.655c-0.005-0.244,0.005-0.599,0.017-0.749l0.021-0.227
					c0.227-2.47,0.706-4.335,1.203-6.182c0.507-1.823,1.069-3.544,1.662-5.223c1.197-3.348,2.481-6.561,3.797-9.741
					c1.323-3.174,2.718-6.29,4.123-9.395c1.403-3.124,2.833-6.15,4.34-9.309L141.126,142.042z"/>
			</g>
		</g>
		<g>
			<path style="fill:#7F3E3B;" d="M132.118,171.344l-6.528-6.245l-4.44,9.285c0,0,6.544,4.969,9.497,2.028L132.118,171.344z"/>
			<g>
				<path style="fill:#7F3E3B;" d="M155.986,174.515l5.98-6.766l5.186,8.905c0,0-6.102,5.493-9.283,2.799L155.986,174.515z"/>
				<path style="fill:#7F3E3B;" d="M170.948,166.939l1.286,3.467c0.512,1.38-0.047,2.997-1.322,3.82l-3.76,2.428l-5.186-8.905
					l5.067-2.362C168.596,164.659,170.361,165.359,170.948,166.939z"/>
			</g>
			<path style="fill:#7F3E3B;" d="M116.559,165.025l-0.998,3.555c-0.397,1.415,0.295,2.979,1.635,3.694l3.954,2.11l4.44-9.285
				l-5.253-1.937C118.718,162.564,117.013,163.405,116.559,165.025z"/>
		</g>
		<g>
			<g>
				<path style="fill:#407BFF;" d="M180.665,137.26c0.36,1.939,0.638,3.674,0.928,5.503c0.28,1.808,0.533,3.619,0.76,5.438
					c0.471,3.637,0.854,7.304,1.045,11.065c0.163,3.773,0.266,7.591-0.247,11.803c-0.29,2.123-0.666,4.34-1.769,6.954
					c-0.272,0.645-0.632,1.34-1.051,2.035c-0.237,0.363-0.449,0.706-0.738,1.075l-0.209,0.27c-0.085,0.105-0.1,0.136-0.274,0.331
					c-0.277,0.312-0.601,0.648-0.887,0.896c-1.189,1.025-2.121,1.436-2.963,1.807c-0.852,0.358-1.531,0.539-2.217,0.72
					c-2.595,0.591-4.612,0.705-6.627,0.783c-1.992,0.062-3.891,0.023-5.764-0.055c-3.737-0.157-7.357-0.516-10.955-0.879
					c-3.596-0.372-7.156-0.82-10.703-1.319c-3.567-0.467-7.049-1.001-10.673-1.562l2.465-13.422
					c3.292,0.68,6.749,1.255,10.133,1.808c3.406,0.517,6.813,0.982,10.202,1.369c3.386,0.393,6.771,0.645,10.054,0.775
					c1.637,0.058,3.254,0.074,4.773,0.015c1.49-0.055,2.998-0.206,3.822-0.443c0.16-0.052,0.331-0.107,0.283-0.102
					c-0.04,0.023-0.174,0.034-0.707,0.469c-0.12,0.105-0.302,0.271-0.425,0.427c-0.093,0.12-0.049,0.057-0.066,0.076l-0.01,0.008
					c-0.012,0.028-0.007-0.013,0.002-0.014c0.021-0.064,0.074-0.148,0.132-0.317c0.256-0.634,0.527-1.91,0.652-3.268
					c0.261-2.778,0.172-6.015-0.15-9.246c-0.312-3.247-0.791-6.559-1.385-9.867c-0.308-1.653-0.642-3.306-1-4.952
					c-0.349-1.625-0.752-3.337-1.154-4.828L180.665,137.26z"/>
			</g>
			<g style="opacity:0.7;">
				<path style="fill:#FFFFFF;" d="M180.665,137.26c0.36,1.939,0.638,3.674,0.928,5.503c0.28,1.808,0.533,3.619,0.76,5.438
					c0.471,3.637,0.854,7.304,1.045,11.065c0.163,3.773,0.266,7.591-0.247,11.803c-0.29,2.123-0.666,4.34-1.769,6.954
					c-0.272,0.645-0.632,1.34-1.051,2.035c-0.237,0.363-0.449,0.706-0.738,1.075l-0.209,0.27c-0.085,0.105-0.1,0.136-0.274,0.331
					c-0.277,0.312-0.601,0.648-0.887,0.896c-1.189,1.025-2.121,1.436-2.963,1.807c-0.852,0.358-1.531,0.539-2.217,0.72
					c-2.595,0.591-4.612,0.705-6.627,0.783c-1.992,0.062-3.891,0.023-5.764-0.055c-3.737-0.157-7.357-0.516-10.955-0.879
					c-3.596-0.372-7.156-0.82-10.703-1.319c-3.567-0.467-7.049-1.001-10.673-1.562l2.465-13.422
					c3.292,0.68,6.749,1.255,10.133,1.808c3.406,0.517,6.813,0.982,10.202,1.369c3.386,0.393,6.771,0.645,10.054,0.775
					c1.637,0.058,3.254,0.074,4.773,0.015c1.49-0.055,2.998-0.206,3.822-0.443c0.16-0.052,0.331-0.107,0.283-0.102
					c-0.04,0.023-0.174,0.034-0.707,0.469c-0.12,0.105-0.302,0.271-0.425,0.427c-0.093,0.12-0.049,0.057-0.066,0.076l-0.01,0.008
					c-0.012,0.028-0.007-0.013,0.002-0.014c0.021-0.064,0.074-0.148,0.132-0.317c0.256-0.634,0.527-1.91,0.652-3.268
					c0.261-2.778,0.172-6.015-0.15-9.246c-0.312-3.247-0.791-6.559-1.385-9.867c-0.308-1.653-0.642-3.306-1-4.952
					c-0.349-1.625-0.752-3.337-1.154-4.828L180.665,137.26z"/>
			</g>
		</g>
		<g>
			<path style="fill:#407BFF;" d="M158.058,208.65l14.972,10.931c0,0,1.698,14.682-6.728,16.12
				C157.875,237.139,156.244,219.226,158.058,208.65z"/>
			<path style="opacity:0.5;fill:#FFFFFF;" d="M158.058,208.65l14.972,10.931c0,0,1.698,14.682-6.728,16.12
				C157.875,237.139,156.244,219.226,158.058,208.65z"/>
		</g>
		<g>
			<path style="fill:#407BFF;" d="M125.601,208.65l-5.492,10.931c0,0-1.747,14.682,0.709,16.12
				C123.274,237.139,125.271,219.226,125.601,208.65z"/>
			<path style="opacity:0.5;fill:#FFFFFF;" d="M125.601,208.65l-5.492,10.931c0,0-1.747,14.682,0.709,16.12
				C123.274,237.139,125.271,219.226,125.601,208.65z"/>
		</g>
		<path style="fill:#FFFFFF;" d="M146.998,104.472c-0.182,0-0.361-0.02-0.538-0.06c-0.679-0.155-1.245-0.604-1.638-1.294
			c-0.745-1.312-0.799-3.308-0.144-5.341c1.026-3.187,3.489-5.408,5.491-4.947c0.679,0.155,1.245,0.604,1.638,1.294
			c0.745,1.311,0.799,3.308,0.144,5.341l0,0C151.015,102.37,148.884,104.472,146.998,104.472z M149.62,93.025
			c-1.773,0-3.797,2.03-4.699,4.83c-0.624,1.937-0.577,3.904,0.123,5.136c0.357,0.627,0.866,1.032,1.472,1.171
			c1.88,0.436,4.204-1.714,5.191-4.775l0,0c0.624-1.938,0.577-3.905-0.123-5.136c-0.357-0.628-0.866-1.032-1.472-1.171
			C149.951,93.043,149.786,93.025,149.62,93.025z M151.829,99.426h0.003H151.829z"/>
		<path style="fill:#FFFFFF;" d="M157.645,106.77c-0.249,0-0.498-0.027-0.746-0.083c-1.169-0.266-2.126-1.128-2.694-2.428
			c-0.563-1.286-0.678-2.851-0.325-4.404c0.732-3.222,3.277-5.394,5.676-4.854c1.169,0.266,2.125,1.128,2.694,2.428
			c0.563,1.286,0.678,2.851,0.325,4.404C161.919,104.721,159.803,106.77,157.645,106.77z M158.807,95.172
			c-2.04,0-4.047,1.969-4.677,4.739c-0.341,1.501-0.232,3.009,0.309,4.245c0.536,1.224,1.429,2.033,2.517,2.28
			c2.259,0.519,4.669-1.576,5.371-4.661c0.341-1.501,0.231-3.009-0.31-4.245c-0.535-1.224-1.429-2.033-2.516-2.28
			C159.27,95.197,159.038,95.172,158.807,95.172z"/>
		<path style="fill:#FFFFFF;" d="M153.826,101.363c-0.061,0-0.121-0.021-0.169-0.064c-1.034-0.915-2.074-0.729-2.117-0.719
			c-0.142,0.026-0.272-0.063-0.3-0.201c-0.028-0.139,0.061-0.272,0.199-0.301c0.053-0.01,1.325-0.254,2.557,0.838
			c0.106,0.094,0.116,0.255,0.022,0.361C153.966,101.334,153.896,101.363,153.826,101.363z"/>
		<g>
			<path style="fill:#263238;" d="M156.627,165.961l-0.544-1.232c8.519-3.762,14.117-11.362,13.249-15.391
				c-0.459-2.129-2.705-2.579-4.528-2.543c-8.79,0.077-11.736,8.779-14.103,15.772c-0.305,0.9-0.597,1.765-0.889,2.566l-1.266-0.459
				c0.288-0.794,0.577-1.648,0.879-2.539c2.372-7.007,5.62-16.602,15.367-16.686c0.036-0.001,0.072-0.001,0.108-0.001
				c4.322,0,5.456,2.254,5.748,3.605C171.643,153.672,165.859,161.884,156.627,165.961z"/>
			<path style="fill:#263238;" d="M154.518,164.506c-0.675,1.48-0.4,3.055,0.614,3.518c1.015,0.463,2.385-0.361,3.061-1.841
				c0.675-1.48,0.4-3.055-0.614-3.518C156.563,162.202,155.193,163.026,154.518,164.506z"/>
			<path style="fill:#263238;" d="M146.91,164.506c-0.675,1.48-0.4,3.055,0.614,3.518c1.015,0.463,2.385-0.361,3.06-1.841
				c0.676-1.48,0.4-3.055-0.614-3.518C148.956,162.202,147.585,163.026,146.91,164.506z"/>
			<path style="fill:#263238;" d="M127.635,149.224c-0.176,1.872,1.162,3.529,2.989,3.701c1.827,0.172,3.451-1.206,3.627-3.078
				c0.176-1.872-1.162-3.529-2.989-3.701C129.435,145.974,127.811,147.352,127.635,149.224z"/>
			<path style="fill:#263238;" d="M165.447,146.815c-0.08,0-0.161-0.015-0.24-0.045c-0.347-0.132-0.521-0.52-0.389-0.868
				c0.021-0.057,2.131-5.826-1.221-14.475c-0.134-0.347,0.038-0.736,0.385-0.871c0.347-0.137,0.736,0.037,0.871,0.385
				c3.553,9.169,1.319,15.191,1.222,15.443C165.972,146.651,165.717,146.815,165.447,146.815z"/>
			<path style="fill:#263238;" d="M129.651,149.19c-0.046,0-0.092-0.005-0.138-0.015c-0.364-0.076-0.598-0.433-0.521-0.797
				c0.132-0.633,3.381-15.519,15.864-18.456c0.365-0.089,0.725,0.141,0.809,0.501c0.086,0.362-0.139,0.725-0.501,0.81
				c-11.657,2.743-14.824,17.274-14.854,17.421C130.243,148.972,129.963,149.19,129.651,149.19z"/>
		</g>
	</g>
</g>
<g id="Character_2">
	<g>
		<polygon style="fill:#FF8B7B;" points="245.384,406.806 236.186,406.662 235.255,385.307 244.452,385.451 		"/>
		<path style="fill:#263238;" d="M236.123,405.597l10.031,0.158c0.376,0.006,0.662,0.272,0.688,0.641l0.595,8.211
			c0.062,0.851-0.701,1.645-1.566,1.617c-3.609-0.118-8.807-0.413-13.355-0.485c-5.318-0.084-4.808,0.135-11.044,0.037
			c-3.771-0.059-4.248-3.896-2.618-4.217c7.421-1.462,8.167-1.539,14.948-5.278C234.54,405.873,235.33,405.585,236.123,405.597z"/>
		<polygon style="opacity:0.2;" points="235.257,385.313 235.736,396.32 244.937,396.465 244.458,385.457 		"/>
		<path style="fill:#407BFF;" d="M268.409,120.585c-11.803-2.605-23.778-2.854-35.934-1.741c-4.121,0.377-7.599,3.393-8.477,7.451
			c-2.441,11.286-6.487,36.728-4.566,75.477c0,0.005,49.218,0.798,49.218,0.798c0.798-6.919-0.959-38.968,6.407-71.316
			C276.166,126.384,273.22,121.646,268.409,120.585z"/>
		<path style="fill:#263238;" d="M239.002,127.513l1.398,3.674c0.14,0.368,0.467,0.632,0.856,0.691l1.877,0.286
			c0.336,0.051,0.68-0.016,0.971-0.191l3.499-2.095l-3.727-3.329L239.002,127.513z"/>
		<path style="fill:#263238;" d="M243.303,131.049c-1.354-0.478-2.185-0.287-2.185-0.287c-2.084,3.775-5.334,14.815-6.195,19.737
			c3.298,10.084,4.684,11.183,4.684,11.183l4.014-11.565C243.622,150.117,242.65,137.93,243.303,131.049z"/>
		<path style="fill:#FF8B7B;" d="M260.443,96.009c-1.791,6.618-3.974,18.827,0.411,23.658c-3.908,3.357-8.977,7.194-16.974,6.881
			c-7.998-0.313-6.217-5.695-3.906-8.434c7.618-1.231,7.816-6.803,6.88-12.118L260.443,96.009z"/>
		<path style="fill:#FFFFFF;" d="M262.945,119.278c-0.596-0.344-1.253-0.597-1.695-0.746c-0.294-0.103-0.619-0.011-0.799,0.241
			c-0.902,1.227-3.821,6.802-16.574,7.776c1.936,1.422,4.298,5.482,5.299,7.409c3.953-1.571,14.314-6.423,14.139-14.062
			C263.3,119.645,263.171,119.404,262.945,119.278z"/>
		<path style="fill:#FFFFFF;" d="M240.012,118.429c0.155-0.505-0.241-0.998-0.759-0.952c-0.529,0.046-1.061,0.161-1.315,0.218
			c-0.104,0.023-0.185,0.069-0.279,0.126c-1.048,0.791-7.041,7.816-2.758,14.423c1.257-1.548,5.139-4.97,8.976-5.695
			C240.514,124.599,239.072,121.468,240.012,118.429z"/>
		<path style="opacity:0.2;" d="M254.902,100.084l-8.043,5.907c0.226,1.258,0.381,2.529,0.382,3.753
			c2.891-0.201,7.045-3.049,7.56-6.022C255.058,102.239,255.097,100.798,254.902,100.084z"/>
		<path style="fill:#263238;" d="M244.07,91.953c-4.681,1.519-5.398-2.174-4.442-5.801c0.595-2.257-0.223-3.704-0.553-6.184
			c-0.54-4.072,0.479-7.668,8.064-10.31c9.844-3.428,7.667,2.356,8.06,4.747c0.393,2.39-3.702,3.825-3.496,6.281
			C251.911,83.142,250.933,89.726,244.07,91.953z"/>
		<path style="fill:#FF8B7B;" d="M266.697,87.59c-2.669,8.813-3.787,14.096-9.353,17.718c-8.372,5.449-18.335-0.99-18.329-10.358
			c0.006-8.432,4.37-21.428,13.888-23.119C262.281,70.165,269.366,78.777,266.697,87.59z"/>
		<path style="fill:#263238;" d="M264.019,78.481c-4.751-0.841-10.373,1.179-15.108-0.032c-3.76-0.961-3.724-3.464-3.174-5.99
			c0.812-3.728,3.911-4.946,5.77-5.639c1.859-0.693,2.827,1.625,5.391-0.143c1.73-1.193,8.329-1.493,12.243,0
			c3.914,1.493-0.563,4.332,1.53,5.639C277.108,76.337,272.99,80.068,264.019,78.481z"/>
		<path style="opacity:0.3;fill:#FFFFFF;" d="M249.145,77.46c-1.685-3.834,0.087-8.947,7.146-9.441
			C250.103,69.879,249.145,77.46,249.145,77.46z"/>
		<path style="fill:#263238;" d="M262.674,96.511c-3.977-0.632-3.772-5.155-1.82-8.281c1.852-2.966-0.888-6.241-1.079-8.506
			c-0.191-2.266,1.912-4.588,5.974-4.397c4.062,0.191,10.562,2.787,10.673,5.769c0.111,2.982-4.076,2.624-3.425,5.515
			C274.446,93.052,268.504,97.437,262.674,96.511z"/>
		<path style="opacity:0.3;fill:#FFFFFF;" d="M271.021,80.898c-1.688,3.009-5.202,3.65-9.754-0.024
			C266.69,83.154,271.021,80.898,271.021,80.898z"/>
		<path style="fill:#263238;" d="M240.779,94.729c-1.824,1.931-1.673,5.814-1.567,7.675c0.106,1.861,1.679,4.915,7.526,5.8
			c5.848,0.884,7.221-1.196,7.505-3.152s-0.025-7.53-1.895-9.389C250.576,93.902,242.847,92.54,240.779,94.729z"/>
		<path style="fill:#FF8B7B;" d="M244.586,97.548c2.747,0.727,4.747-0.578,4.839-0.64c0.101-0.068,0.13-0.203,0.064-0.302
			c-0.066-0.099-0.201-0.124-0.303-0.057c-0.023,0.015-2.355,1.527-5.336,0.287c-0.111-0.045-0.24,0.007-0.289,0.118
			c-0.049,0.111,0.001,0.238,0.111,0.284C243.986,97.368,244.29,97.47,244.586,97.548z"/>
		<path style="fill:#FF8B7B;" d="M267.509,97.956c-1.711,1.815-4.083,2.692-6.11,2.747c-3.048,0.083-3.762-2.816-2.236-5.302
			c1.373-2.237,4.615-4.977,7.348-3.875C269.204,92.611,269.466,95.881,267.509,97.956z"/>
		<path style="fill:#263238;" d="M244.87,293.156c1.204-46.298,12.964-90.76,12.964-90.76l-38.371-0.619
			c0,0,2.14,66.867,2.722,94.875c0.602,29.121,9.71,97.488,9.71,97.488l15.578,0.237
			C247.473,394.378,245.783,329.692,244.87,293.156z"/>
		<path style="opacity:0.2;" d="M248.615,227.87c-11.452,14.979-7.49,43.159-3.683,63.07c0.831-24.751,4.573-48.779,7.816-65.548
			L248.615,227.87z"/>
		<polygon style="fill:#263238;" points="230.916,394.472 249.434,394.763 249.309,388.762 230.05,388.121 		"/>
		<path style="fill:#263238;" d="M253.085,86.765c-0.173,0.727-0.696,1.234-1.167,1.133c-0.471-0.101-0.714-0.773-0.541-1.5
			c0.173-0.727,0.696-1.235,1.167-1.133C253.016,85.366,253.258,86.038,253.085,86.765z"/>
		<path style="fill:#263238;" d="M244.731,85.22c-0.173,0.727-0.696,1.234-1.167,1.133c-0.472-0.101-0.714-0.773-0.541-1.5
			c0.173-0.727,0.696-1.235,1.167-1.133C244.662,83.821,244.904,84.493,244.731,85.22z"/>
		<path style="fill:#FF5652;" d="M247.016,86.366c0,0-2.668,3.327-4.968,4.753c0.978,1.261,3.279,1.171,3.279,1.171L247.016,86.366z
			"/>
		<path style="fill:#263238;" d="M256.647,83.852c0.072,0.006,0.147-0.007,0.218-0.04c0.22-0.102,0.321-0.362,0.225-0.581
			c-0.966-2.188-2.946-2.492-3.03-2.504c-0.238-0.034-0.462,0.133-0.501,0.371c-0.039,0.238,0.12,0.458,0.356,0.493l0,0
			c0.065,0.01,1.606,0.263,2.377,2.009C256.357,83.749,256.496,83.84,256.647,83.852z"/>
		<path style="fill:#263238;" d="M242.381,81.239c0.138,0.027,0.288-0.014,0.396-0.123c1.381-1.376,2.918-1.101,2.983-1.089
			c0.234,0.045,0.467-0.109,0.519-0.345c0.052-0.236-0.094-0.464-0.328-0.511c-0.085-0.015-2.05-0.39-3.78,1.334
			c-0.173,0.172-0.177,0.449-0.01,0.617C242.223,81.185,242.3,81.223,242.381,81.239z"/>
		<g>
			<path style="fill:#407BFF;" d="M234.427,406.418c0.078-0.025,0.138-0.092,0.153-0.173c0.018-0.091-0.024-0.182-0.104-0.226
				c-0.407-0.223-4.011-2.156-5.16-1.551c-0.222,0.117-0.356,0.316-0.389,0.575c0,0,0,0,0,0c-0.055,0.434,0.065,0.793,0.355,1.067
				c0.964,0.91,3.619,0.589,5.116,0.316C234.408,406.423,234.418,406.421,234.427,406.418z M229.59,404.818
				c0.706-0.229,2.672,0.567,4.096,1.286c-2.048,0.306-3.558,0.194-4.099-0.317c-0.19-0.18-0.265-0.41-0.227-0.705
				c0.014-0.114,0.059-0.183,0.149-0.23C229.534,404.838,229.561,404.827,229.59,404.818z"/>
			<path style="fill:#407BFF;" d="M234.427,406.418c0.02-0.007,0.039-0.016,0.057-0.028c0.065-0.044,0.103-0.119,0.1-0.196
				c-0.005-0.105-0.127-2.588-1.249-3.568c-0.342-0.299-0.742-0.431-1.189-0.393l0,0c-0.602,0.051-0.791,0.353-0.842,0.596
				c-0.221,1.038,1.879,3.064,2.964,3.579C234.317,406.432,234.375,406.435,234.427,406.418z M231.943,402.708
				c0.057-0.019,0.131-0.034,0.225-0.042h0c0.331-0.028,0.617,0.067,0.874,0.291c0.737,0.644,0.99,2.132,1.071,2.857
				c-1.099-0.699-2.515-2.287-2.383-2.91C231.738,402.866,231.759,402.768,231.943,402.708z M232.157,402.449l-0.005,0.002
				L232.157,402.449z"/>
		</g>
		<polygon style="fill:#FF8B7B;" points="286.182,406.806 276.976,406.662 274.663,385.307 283.87,385.451 		"/>
		<path style="fill:#263238;" d="M276.543,405.597l10.031,0.158c0.375,0.006,0.662,0.272,0.688,0.641l0.595,8.211
			c0.062,0.851-0.701,1.645-1.566,1.617c-3.609-0.118-4.736-0.413-9.284-0.485c-5.318-0.084-2.87,0.135-9.107,0.037
			c-3.771-0.059-4.245-3.879-2.618-4.217c5.149-1.071,6.561-3.106,8.94-5.278C274.846,405.711,275.75,405.585,276.543,405.597z"/>
		<polygon style="opacity:0.2;" points="274.666,385.313 275.856,396.32 285.066,396.465 283.876,385.457 		"/>
		<path style="fill:#263238;" d="M277.002,291.996c-3.818-41.379-2.395-73.302-8.351-89.425l-32.523-0.525
			c0,0,14.467,65.421,19.88,92.984c5.625,28.659,15.854,96.384,15.854,96.384l14.837,0.211
			C286.698,391.624,285.659,324.007,277.002,291.996z"/>
		<polygon style="fill:#263238;" points="269.708,394.472 288.226,394.763 289.477,388.762 268.842,388.121 		"/>
		<g>
			<path style="fill:#407BFF;" d="M278.338,406.294c0.081,0.003,0.159-0.04,0.202-0.112c0.048-0.081,0.04-0.181-0.019-0.251
				c-0.301-0.352-2.979-3.428-4.252-3.247c-0.246,0.035-0.439,0.178-0.559,0.413v0c-0.2,0.394-0.213,0.776-0.038,1.136
				c0.581,1.196,3.154,1.802,4.637,2.057C278.318,406.293,278.328,406.294,278.338,406.294z M274.402,403.112
				c0.733,0.024,2.284,1.457,3.357,2.629c-2.005-0.412-3.367-1.037-3.693-1.709c-0.115-0.236-0.104-0.481,0.032-0.749
				c0.053-0.103,0.118-0.153,0.218-0.168C274.342,403.112,274.371,403.111,274.402,403.112z"/>
			<path style="fill:#407BFF;" d="M278.338,406.294c0.021,0.001,0.042-0.001,0.063-0.007c0.076-0.02,0.137-0.078,0.16-0.152
				c0.032-0.102,0.772-2.505,0.068-3.822c-0.215-0.402-0.54-0.665-0.968-0.782l0,0c-0.576-0.158-0.854,0.064-0.986,0.278
				c-0.562,0.911,0.689,3.558,1.518,4.421C278.231,406.27,278.283,406.292,278.338,406.294z M277.309,401.914
				c0.06,0.002,0.133,0.013,0.223,0.038h0c0.317,0.087,0.549,0.276,0.71,0.577c0.462,0.865,0.185,2.367,0.011,3.085
				c-0.779-1.042-1.547-3.038-1.21-3.585C277.064,401.994,277.118,401.908,277.309,401.914z M277.596,401.741l-0.005,0
				L277.596,401.741z"/>
		</g>
		<g>
			<path style="fill:#FF8B7B;" d="M201.845,206.178l-5.333,7.824l10.57,3.227c0,0,3.991-7.643,0.354-10.29L201.845,206.178z"/>
			<path style="fill:#FF8B7B;" d="M198.121,223.5l3.916,0.498c1.559,0.198,3.07-0.771,3.57-2.289l1.475-4.48l-10.57-3.227
				l-1.052,5.818C195.136,221.613,196.337,223.273,198.121,223.5z"/>
		</g>
		<g>
			<g>
				<path style="fill:#407BFF;" d="M236.539,129.688c-2.032,6.798-3.981,13.633-5.875,20.47c-1.923,6.82-3.739,13.711-5.474,20.483
					c-0.341,1.455-1.023,3.962-1.61,5.64c-0.597,1.802-1.196,3.534-1.813,5.247c-1.232,3.421-2.498,6.783-3.78,10.132l-7.568,20.087
					l-13.469-5.404c2.785-6.475,5.394-13.075,7.927-19.648c1.231-3.3,2.442-6.601,3.591-9.878c0.571-1.637,1.129-3.266,1.623-4.846
					c0.517-1.702,0.745-2.633,1.185-4.645c1.594-7.049,3.312-13.929,4.911-20.882c1.641-6.933,3.257-13.861,4.817-20.818
					L236.539,129.688z"/>
			</g>
			<g style="opacity:0.6;">
				<path style="fill:#FFFFFF;" d="M236.539,129.688c-2.032,6.798-3.981,13.633-5.875,20.47c-1.923,6.82-3.739,13.711-5.474,20.483
					c-0.341,1.455-1.023,3.962-1.61,5.64c-0.597,1.802-1.196,3.534-1.813,5.247c-1.232,3.421-2.498,6.783-3.78,10.132l-7.568,20.087
					l-13.469-5.404c2.785-6.475,5.394-13.075,7.927-19.648c1.231-3.3,2.442-6.601,3.591-9.878c0.571-1.637,1.129-3.266,1.623-4.846
					c0.517-1.702,0.745-2.633,1.185-4.645c1.594-7.049,3.312-13.929,4.911-20.882c1.641-6.933,3.257-13.861,4.817-20.818
					L236.539,129.688z"/>
			</g>
		</g>
		<path style="fill:#263238;" d="M244.264,222.047l-56.072-3.892c-1.689-0.117-3.059-1.582-3.059-3.271v-38.495
			c0-1.689,1.369-2.963,3.059-2.846l56.072,3.892c1.689,0.117,3.059,1.582,3.059,3.271V219.2
			C247.323,220.889,245.954,222.164,244.264,222.047z"/>
		<path style="fill:#407BFF;" d="M245.234,221.475l-56.072-3.892c-1.689-0.117-3.058-1.582-3.058-3.271v-38.495
			c0-1.689,1.369-2.964,3.058-2.846l56.072,3.892c1.689,0.117,3.059,1.582,3.059,3.271v38.495
			C248.292,220.318,246.923,221.592,245.234,221.475z"/>
		<g>
			<path style="fill:#407BFF;" d="M263.406,117.473c-4.593,6.79-20.747,17.113-24.123,33.934
				c-4.551-16.057-0.169-34.344-0.169-34.344c-3.009-0.222-8.645,0.557-12.978,1.773c-2.804,0.787-4.917,3.172-5.424,6.03
				c-1.475,8.312-4.358,28.162-3.667,53.304c0.928,33.771-0.273,86.02-0.273,86.02s34.259,2.009,61.137-0.898
				c-0.651-25.806-7.341-69.627-6.29-81.079c1.353-14.733,4.588-43.481,6.262-55.447c0.495-3.542-1.598-6.821-4.965-7.871
				C268.29,117.451,263.406,117.473,263.406,117.473z"/>
			<path style="opacity:0.7;fill:#FFFFFF;" d="M263.406,117.473c-4.593,6.79-20.747,17.113-24.123,33.934
				c-4.551-16.057-0.169-34.344-0.169-34.344c-3.009-0.222-8.645,0.557-12.978,1.773c-2.804,0.787-4.917,3.172-5.424,6.03
				c-1.475,8.312-4.358,28.162-3.667,53.304c0.928,33.771-0.273,86.02-0.273,86.02s34.259,2.009,61.137-0.898
				c-0.651-25.806-7.341-69.627-6.29-81.079c1.353-14.736,4.589-43.493,6.263-55.454c0.478-3.416-1.417-6.703-4.649-7.762
				C268.516,117.45,263.406,117.473,263.406,117.473z"/>
		</g>
		<g>
			<path style="fill:#FF8B7B;" d="M266.186,199.611l-5.735,7.534l10.387,3.776c0,0,4.385-7.424,0.892-10.257L266.186,199.611z"/>
			<path style="fill:#FF8B7B;" d="M261.56,216.714l3.884,0.702c1.546,0.279,3.106-0.609,3.685-2.099l1.708-4.396l-10.387-3.776
				l-1.355,5.755C258.678,214.673,259.79,216.394,261.56,216.714z"/>
		</g>
		<g>
			<g>
				<path style="fill:#407BFF;" d="M277.211,123.352c1.503,3.293,2.897,6.417,4.263,9.664c1.365,3.224,2.712,6.463,3.967,9.777
					c1.247,3.32,2.454,6.678,3.528,10.223c0.533,1.774,1.027,3.595,1.432,5.562c0.202,0.985,0.383,2.005,0.52,3.103
					c0.135,1.111,0.23,2.259,0.188,3.711c-0.025,0.423-0.058,0.849-0.102,1.269l-0.163,0.993c-0.114,0.68-0.254,1.162-0.387,1.751
					c-0.283,1.04-0.58,2.013-0.882,2.936c-0.611,1.843-1.27,3.542-1.949,5.216c-1.356,3.341-2.81,6.527-4.282,9.691
					c-1.452,3.171-2.949,6.295-4.475,9.399c-1.507,3.127-3.03,6.182-4.594,9.339l-12.807-6.827
					c3.251-5.785,6.323-11.835,9.162-17.831c1.401-3.01,2.729-6.044,3.914-9.023c0.589-1.486,1.146-2.97,1.594-4.365l0.313-1.019
					l0.243-0.946c0.039-0.245,0.13-0.585,0.14-0.747l0.039-0.268c-0.012-0.005-0.017-0.004-0.011-0.005l-0.034-0.564
					c-0.043-0.275-0.047-0.504-0.106-0.816c-0.092-0.59-0.225-1.244-0.384-1.923c-0.319-1.361-0.753-2.821-1.242-4.295
					c-0.966-2.955-2.165-5.975-3.47-8.968c-1.303-2.999-2.682-6.003-4.145-8.975c-1.471-2.945-3.007-5.971-4.571-8.759
					L277.211,123.352z"/>
			</g>
			<g style="opacity:0.7;">
				<path style="fill:#FFFFFF;" d="M277.211,123.352c1.503,3.293,2.897,6.417,4.263,9.664c1.365,3.224,2.712,6.463,3.967,9.777
					c1.247,3.32,2.454,6.678,3.528,10.223c0.533,1.774,1.027,3.595,1.432,5.562c0.202,0.985,0.383,2.005,0.52,3.103
					c0.135,1.111,0.23,2.259,0.188,3.711c-0.025,0.423-0.058,0.849-0.102,1.269l-0.163,0.993c-0.114,0.68-0.254,1.162-0.387,1.751
					c-0.283,1.04-0.58,2.013-0.882,2.936c-0.611,1.843-1.27,3.542-1.949,5.216c-1.356,3.341-2.81,6.527-4.282,9.691
					c-1.452,3.171-2.949,6.295-4.475,9.399c-1.507,3.127-3.03,6.182-4.594,9.339l-12.807-6.827
					c3.251-5.785,6.323-11.835,9.162-17.831c1.401-3.01,2.729-6.044,3.914-9.023c0.589-1.486,1.146-2.97,1.594-4.365l0.313-1.019
					l0.243-0.946c0.039-0.245,0.13-0.585,0.14-0.747l0.039-0.268c-0.012-0.005-0.017-0.004-0.011-0.005l-0.034-0.564
					c-0.043-0.275-0.047-0.504-0.106-0.816c-0.092-0.59-0.225-1.244-0.384-1.923c-0.319-1.361-0.753-2.821-1.242-4.295
					c-0.966-2.955-2.165-5.975-3.47-8.968c-1.303-2.999-2.682-6.003-4.145-8.975c-1.471-2.945-3.007-5.971-4.571-8.759
					L277.211,123.352z"/>
			</g>
		</g>
		<g>
			<path style="fill:#407BFF;" d="M256.072,201.141l16.271,11.625c0,0,2.274,15.614-6.641,17.143
				C256.787,231.439,254.481,212.389,256.072,201.141z"/>
			<path style="opacity:0.5;fill:#FFFFFF;" d="M256.072,201.141l16.271,11.625c0,0,2.274,15.614-6.641,17.143
				C256.787,231.439,254.481,212.389,256.072,201.141z"/>
		</g>
		<g>
			<path style="fill:#407BFF;" d="M221.555,201.141l-5.491,11.625c0,0-1.389,15.614,1.269,17.143
				C219.991,231.439,221.542,212.389,221.555,201.141z"/>
			<path style="opacity:0.5;fill:#FFFFFF;" d="M221.555,201.141l-5.491,11.625c0,0-1.389,15.614,1.269,17.143
				C219.991,231.439,221.542,212.389,221.555,201.141z"/>
		</g>
		<path style="opacity:0.5;fill:#407BFF;" d="M240.833,261.025c-2.601-32.82-2.238-101.571-2.029-107.717l0.573,0.02
			c-0.209,6.142-0.571,74.853,2.027,107.652L240.833,261.025z"/>
	</g>
</g>
<g id="Character_3">
	<g>
		<path style="fill:#263238;" d="M317.508,101.925c-7.352,5.316-13.461,26.186,4.072,34.613
			c17.533,8.427,42.248,7.748,34.782-10.576c-7.466-18.324-4.801-29.107-22.444-31.197
			C316.276,92.675,317.508,101.925,317.508,101.925z"/>
		<path style="fill:#FFB573;" d="M364.754,211.735l3.541,1.222l4.5,6.823c0.657,0.996,0.949,2.196,0.822,3.379l-0.259,2.42
			c-0.09,0.844-0.761,1.484-1.584,1.512l-4.709,0.16c-0.862,0.029-1.62-0.619-1.755-1.501l-0.596-5.528
			C364.714,220.223,362.428,214.703,364.754,211.735z"/>
		<g>
			<path style="fill:#407BFF;" d="M359.165,156.163c-0.08,2.537-0.101,5.253-0.089,7.889c0.014,2.654,0.069,5.309,0.163,7.958
				c0.19,5.295,0.559,10.566,1.208,15.72l0.068,0.632c0.008-0.046-0.028-0.202-0.022-0.152c0.01,0.048-0.003,0.048,0.015,0.137
				l0.047,0.25l0.075,0.317c0.11,0.44,0.25,0.94,0.4,1.457c0.304,1.033,0.663,2.116,1.038,3.201c0.754,2.174,1.589,4.374,2.45,6.561
				c0.866,2.188,1.763,4.373,2.694,6.529c0.925,2.138,1.903,4.332,2.878,6.23l-7.492,4.359c-1.409-2.273-2.553-4.395-3.72-6.58
				c-1.153-2.173-2.262-4.354-3.346-6.557c-1.08-2.207-2.135-4.426-3.145-6.72c-0.505-1.15-1-2.314-1.477-3.552
				c-0.241-0.619-0.47-1.262-0.69-1.977l-0.165-0.552l-0.162-0.626c-0.053-0.203-0.108-0.5-0.156-0.747
				c-0.05-0.245-0.1-0.703-0.128-1.046l0.068,0.632c-1.099-5.569-1.87-11.112-2.457-16.651c-0.292-2.77-0.543-5.538-0.75-8.31
				c-0.205-2.791-0.377-5.506-0.488-8.4H359.165z"/>
			<path style="opacity:0.5;fill:#FFFFFF;" d="M359.165,156.163c-0.08,2.537-0.101,5.253-0.089,7.889
				c0.014,2.654,0.069,5.309,0.163,7.958c0.19,5.295,0.559,10.566,1.208,15.72l0.068,0.632c0.008-0.046-0.028-0.202-0.022-0.152
				c0.01,0.048-0.003,0.048,0.015,0.137l0.047,0.25l0.075,0.317c0.11,0.44,0.25,0.94,0.4,1.457c0.304,1.033,0.663,2.116,1.038,3.201
				c0.754,2.174,1.589,4.374,2.45,6.561c0.866,2.188,1.763,4.373,2.694,6.529c0.925,2.138,1.903,4.332,2.878,6.23l-7.492,4.359
				c-1.409-2.273-2.553-4.395-3.72-6.58c-1.153-2.173-2.262-4.354-3.346-6.557c-1.08-2.207-2.135-4.426-3.145-6.72
				c-0.505-1.15-1-2.314-1.477-3.552c-0.241-0.619-0.47-1.262-0.69-1.977l-0.165-0.552l-0.162-0.626
				c-0.053-0.203-0.108-0.5-0.156-0.747c-0.05-0.245-0.1-0.703-0.128-1.046l0.068,0.632c-1.099-5.569-1.87-11.112-2.457-16.651
				c-0.292-2.77-0.543-5.538-0.75-8.31c-0.205-2.791-0.377-5.506-0.488-8.4H359.165z"/>
		</g>
		<path style="fill:#FFB573;" d="M352.912,202.061c0,0-1.167,68.213-3.948,95.824c-3.622,35.96-13.335,66.399-15.628,91.265
			l-8.086-1.177c0,0-0.515-60.897,6.794-90.012c-6.631-30.873-6.794-95.899-6.794-95.899H352.912z"/>
		<path style="fill:#263238;" d="M348.15,409.114c-0.935-0.768-2.422-1.403-3.734-1.862h0.003c0,0-6.629-3.694-10.288-14.805
			l-5.088-1.265c-1.66-0.413-3.421,0.241-4.136,1.728c-0.103,0.215-0.174,0.431-0.198,0.641c-0.118,1.03,0.042,2.592,0.083,3.611
			c0.15,3.755,0.761,12.196,0.761,12.196h0.878c0,0-0.09-5.19,0.291-7.663c0.381-2.473,2.194,0.456,3.237,3.253
			c1.043,2.798,5.044,5.783,10.766,5.922C347.424,411.034,350.131,410.741,348.15,409.114z"/>
		<path style="fill:#263238;" d="M325.784,393.022c-0.766-2.602-1.118-7.126-1.118-7.126l9.5,1.188c0,0-0.062,5.771,1.671,9.644
			C330.151,395.285,325.784,393.022,325.784,393.022z"/>
		<path style="fill:#FFB573;" d="M345.923,202.061c0,0-11.404,68.916-17.824,96.612c-8.368,36.096-9.524,92.951-9.524,92.951
			l-7.557-0.735c0,0-8.682-51.824,0.66-92.216c-0.698-31.016,5.344-96.612,5.344-96.612H345.923z"/>
		<path style="fill:#263238;" d="M327.972,409.114c-0.806-0.768-2.186-1.403-3.42-1.862h0.003c0,0-3.718-3.694-5.504-14.805
			l-4.874-1.265c-1.59-0.413-3.461,0.241-4.428,1.728c-0.139,0.215-0.246,0.431-0.306,0.641c-0.292,1.03-0.395,2.592-0.526,3.611
			c-0.483,3.755-0.064,12.196-0.064,12.196h0.878c0,0,0.226-5.025,0.352-7.663c0.124-2.595,2.117,0.456,2.688,3.253
			c0.572,2.798,1.781,5.783,7.479,5.922C326.922,411.034,329.679,410.741,327.972,409.114z"/>
		<path style="fill:#263238;" d="M309.604,393.022c-0.327-2.602-0.426-7.126-0.426-7.126l10.812,1.188c0,0-1.31,5.138-0.23,9.011
			C314.317,394.652,309.604,393.022,309.604,393.022z"/>
		<path style="fill:#FFFFFF;" d="M357.714,153.056c0.398,6.621,0.709,25.331-2.851,53.943l-38.77,0
			c0.042-13.861,1.178-27.131-5.139-53.193c-0.992-4.093,1.664-8.02,5.789-8.546c2.188-0.279,4.691-0.529,7.299-0.655
			c6.23-0.301,11.336-0.5,16.841,0.001c3.64,0.331,7.533,0.918,10.51,1.421C354.86,146.613,357.504,149.564,357.714,153.056z"/>
		<path style="fill:#FFB573;" d="M326.945,126.286c1.269,5.419,2.709,15.347-0.944,18.963c0,0,3.384,5.37,13.847,9.895
			c5.776-3.496,2.994-9.894,2.994-9.894c-6.098-1.443-6.113-5.926-5.221-10.137L326.945,126.286z"/>
		<path style="opacity:0.2;" d="M331.297,129.888l6.319,5.221c-0.215,0.996-0.372,2.007-0.405,2.989
			c-2.321-0.334-5.589-2.868-5.927-5.285C331.116,131.608,331.122,130.45,331.297,129.888z"/>
		<path style="fill:#FFB573;" d="M320.849,116.347c2.446,8.813,3.3,12.588,8.622,16.387c8.005,5.714,17.875,1.233,18.009-8.024
			c0.121-8.332-3.899-21.345-13.068-23.391C325.377,99.304,318.403,107.534,320.849,116.347z"/>
		<path style="fill:#263238;" d="M322.655,120.984c2.149-1.866,4.288-10.01,3.162-13.46c7.697,0.622,14.104-2.088,17.207,0.539
			c0.331-3.989-3.232-9.419-9.566-9.362C327.122,98.758,311.909,106.393,322.655,120.984z"/>
		<path style="fill:#263238;" d="M333.077,116.642c0.156,0.725,0.665,1.245,1.135,1.161c0.471-0.084,0.726-0.74,0.57-1.465
			c-0.156-0.725-0.665-1.245-1.135-1.161C333.176,115.26,332.921,115.916,333.077,116.642z"/>
		<path style="fill:#263238;" d="M341.775,115.052c0.156,0.725,0.665,1.245,1.135,1.161c0.471-0.084,0.726-0.74,0.57-1.465
			c-0.156-0.725-0.664-1.245-1.135-1.161C341.874,113.671,341.619,114.327,341.775,115.052z"/>
		<path style="fill:#263238;" d="M342.146,113.664l1.622-0.811C343.768,112.854,343.173,114.372,342.146,113.664z"/>
		<path style="fill:#ED893E;" d="M340.504,116.621c0,0,1.895,2.904,3.565,4.171c-0.759,1.063-2.464,0.943-2.464,0.943
			L340.504,116.621z"/>
		<path style="fill:#263238;" d="M338.686,125.385c0.388,0,0.798-0.034,1.231-0.111c0.117-0.021,0.191-0.133,0.166-0.251
			c-0.025-0.117-0.137-0.195-0.258-0.175c-3.159,0.565-5.117-1.396-5.136-1.416c-0.085-0.088-0.222-0.092-0.306-0.01
			c-0.084,0.082-0.084,0.219,0.001,0.306C334.459,123.804,336.034,125.385,338.686,125.385z"/>
		<path style="fill:#FFB573;" d="M318.862,122.463c1.02,1.609,2.68,2.629,4.202,2.988c2.29,0.54,3.266-1.489,2.488-3.565
			c-0.701-1.868-2.737-4.4-4.968-4.016C318.387,118.249,317.697,120.623,318.862,122.463z"/>
		<path style="fill:#263238;" d="M331.153,112.895c0.114-0.01,0.221-0.065,0.295-0.162c1.142-1.511,2.733-1.381,2.751-1.379
			c0.236,0.02,0.442-0.152,0.456-0.391c0.013-0.238-0.17-0.448-0.409-0.471c-0.083-0.007-2.08-0.172-3.497,1.703
			c-0.141,0.187-0.099,0.459,0.093,0.608C330.935,112.875,331.047,112.905,331.153,112.895z"/>
		<path style="fill:#263238;" d="M344.637,110.219c0.1-0.037,0.184-0.111,0.231-0.215c0.097-0.215-0.001-0.474-0.22-0.579
			c-2.188-1.055-3.878-0.055-3.949-0.011c-0.201,0.122-0.258,0.387-0.128,0.593c0.129,0.205,0.397,0.272,0.598,0.152
			c0.066-0.04,1.388-0.796,3.127,0.043C344.409,110.256,344.532,110.258,344.637,110.219z"/>
		<path style="fill:#263238;" d="M333.447,115.254l1.622-0.811C335.069,114.443,334.475,115.962,333.447,115.254z"/>
		<path style="fill:#263238;" d="M354.863,207l0.767,106.051c-17.989,1.473-35.214,0.92-51.449-2.262
			c-1.069-39.816-8.849-83.635,11.912-103.789L354.863,207z"/>
		<polygon style="opacity:0.2;" points="334.813,278.766 330.754,243.87 340.504,233.803 		"/>
		<g>
			<path style="fill:#407BFF;" d="M359.462,159.637c-0.488-9.309-1.999-12.953-8.121-14.119c-6.122-1.166-11.876-1.761-11.876-1.761
				c8.018,5.025,11.032,17.031,3.55,25.974c-4.124-7.661-19.752-19.663-15.976-25.912c0,0-4.874-0.389-10.907,0.778
				c-6.033,1.166-7.766,5.308-6.277,14.549c3.806,23.603,0.891,52.269,0.891,52.269s22.331,10.515,29.758,12.526
				c11.807-2.884,14.402-11.145,14.402-11.145S359.95,168.946,359.462,159.637z"/>
			<path style="opacity:0.6;fill:#FFFFFF;" d="M359.462,159.637c-0.488-9.309-1.999-12.953-8.121-14.119
				c-6.122-1.166-11.876-1.761-11.876-1.761c8.018,5.025,11.032,17.031,3.55,25.974c-4.124-7.661-19.752-19.663-15.976-25.912
				c0,0-4.874-0.389-10.907,0.778c-6.033,1.166-7.766,5.308-6.277,14.549c3.806,23.603,0.891,52.269,0.891,52.269
				s22.331,10.515,29.758,12.526c11.807-2.884,14.402-11.145,14.402-11.145S359.95,168.946,359.462,159.637z"/>
		</g>
		<g>
			<path style="fill:#263238;" d="M326.189,177.716c-4.16-6.069-7.277-14.971-4.859-19.511c0.898-1.688,2.488-2.545,4.675-2.551
				c1.709,0.015,3.154,0.652,4.292,1.896c2.703,2.953,3.642,9.077,2.871,18.723l-1.015-0.082c0.737-9.218-0.14-15.258-2.607-17.953
				c-0.953-1.042-2.114-1.554-3.55-1.566c-1.801,0.028-3.049,0.662-3.768,2.012c-1.924,3.614,0.184,11.722,4.801,18.456
				L326.189,177.716z"/>
			<ellipse style="fill:#263238;" cx="327.038" cy="177.266" rx="1.527" ry="2.227"/>
			<path style="fill:#263238;" d="M334.346,176.672c0,1.23-0.684,2.227-1.527,2.227c-0.843,0-1.527-0.997-1.527-2.227
				s0.684-2.227,1.527-2.227C333.663,174.445,334.346,175.442,334.346,176.672z"/>
			<path style="fill:#263238;" d="M354.097,158.508c0.133,1.415-0.879,2.668-2.26,2.798c-1.381,0.13-2.609-0.912-2.742-2.327
				c-0.133-1.415,0.879-2.668,2.26-2.798C352.737,156.051,353.964,157.093,354.097,158.508z"/>
			<path style="fill:#263238;" d="M325.51,156.686c-0.204,0-0.396-0.122-0.474-0.323c-0.082-0.21-2.002-5.225-1.17-12.658
				c0.032-0.278,0.279-0.474,0.563-0.449c0.279,0.031,0.48,0.283,0.449,0.563c-0.802,7.167,1.088,12.125,1.107,12.174
				c0.102,0.262-0.027,0.558-0.289,0.659C325.635,156.676,325.572,156.686,325.51,156.686z"/>
			<path style="fill:#263238;" d="M352.573,158.481c-0.269,0-0.493-0.21-0.508-0.481c-0.006-0.112-0.716-11.297-9.461-13.355
				c-0.273-0.064-0.443-0.338-0.379-0.611c0.064-0.273,0.341-0.45,0.612-0.379c9.492,2.234,10.238,14.171,10.244,14.291
				c0.015,0.281-0.2,0.521-0.481,0.535C352.591,158.481,352.582,158.481,352.573,158.481z"/>
		</g>
		<path style="fill:#263238;" d="M327.254,196.743l8.788-33.338c0.265-1.004,1.327-1.787,2.372-1.748l23.822,0.89
			c1.045,0.039,1.678,0.885,1.413,1.889l-8.788,33.338c-0.265,1.004-1.327,1.787-2.372,1.748l-23.822-0.89
			C327.622,198.593,326.989,197.748,327.254,196.743z"/>
		<path style="fill:#407BFF;" d="M327.497,197.334l8.788-33.338c0.265-1.004,1.327-1.787,2.372-1.748l23.822,0.89
			c1.045,0.039,1.678,0.885,1.413,1.889l-8.788,33.338c-0.265,1.004-1.327,1.787-2.372,1.748l-23.822-0.89
			C327.866,199.184,327.233,198.339,327.497,197.334z"/>
		<path style="fill:#FFB573;" d="M324.372,186.085l0.421-3.722l5.679-5.878c0.829-0.858,1.936-1.405,3.119-1.539l2.418-0.275
			c0.844-0.096,1.614,0.419,1.821,1.217l1.182,4.561c0.216,0.835-0.251,1.715-1.083,2.04l-5.265,1.786
			C332.665,184.275,327.775,187.708,324.372,186.085z"/>
		<g>
			<path style="fill:#407BFF;" d="M321.579,155.384c-0.358,0.461-0.824,1.103-1.233,1.679l-1.251,1.806
				c-0.823,1.218-1.623,2.457-2.393,3.71c-1.542,2.505-2.964,5.066-4.211,7.656c-1.238,2.587-2.307,5.213-3.039,7.786
				c-0.742,2.564-1.103,5.092-0.929,7.17l-2.251-3.708l0,0c-0.636-0.407-0.613-0.262-0.467-0.236
				c0.152,0.053,0.424,0.129,0.761,0.186c0.663,0.122,1.488,0.197,2.337,0.231c1.714,0.068,3.555-0.008,5.387-0.167
				c1.836-0.162,3.68-0.419,5.483-0.762c1.797-0.349,3.571-0.786,5.175-1.344l3.322,8.006c-2.106,0.971-4.184,1.691-6.276,2.315
				c-2.092,0.614-4.191,1.116-6.327,1.516c-2.14,0.395-4.299,0.705-6.597,0.843c-1.155,0.064-2.339,0.091-3.671-0.003
				c-0.66-0.043-1.38-0.133-2.203-0.313c-0.825-0.21-1.771-0.39-3.239-1.362l-0.001,0l-1.883-1.245l-0.368-2.463
				c-0.619-4.143-0.158-7.926,0.596-11.416c0.771-3.499,1.892-6.755,3.161-9.892c1.281-3.13,2.723-6.136,4.286-9.058
				c0.781-1.462,1.591-2.903,2.435-4.33l1.293-2.133c0.455-0.726,0.866-1.379,1.415-2.191L321.579,155.384z"/>
			<path style="opacity:0.6;fill:#FFFFFF;" d="M321.579,155.384c-0.358,0.461-0.824,1.103-1.233,1.679l-1.251,1.806
				c-0.823,1.218-1.623,2.457-2.393,3.71c-1.542,2.505-2.964,5.066-4.211,7.656c-1.238,2.587-2.307,5.213-3.039,7.786
				c-0.742,2.564-1.103,5.092-0.929,7.17l-2.251-3.708l0,0c-0.636-0.407-0.613-0.262-0.467-0.236
				c0.152,0.053,0.424,0.129,0.761,0.186c0.663,0.122,1.488,0.197,2.337,0.231c1.714,0.068,3.555-0.008,5.387-0.167
				c1.836-0.162,3.68-0.419,5.483-0.762c1.797-0.349,3.571-0.786,5.175-1.344l3.322,8.006c-2.106,0.971-4.184,1.691-6.276,2.315
				c-2.092,0.614-4.191,1.116-6.327,1.516c-2.14,0.395-4.299,0.705-6.597,0.843c-1.155,0.064-2.339,0.091-3.671-0.003
				c-0.66-0.043-1.38-0.133-2.203-0.313c-0.825-0.21-1.771-0.39-3.239-1.362l-0.001,0l-1.883-1.245l-0.368-2.463
				c-0.619-4.143-0.158-7.926,0.596-11.416c0.771-3.499,1.892-6.755,3.161-9.892c1.281-3.13,2.723-6.136,4.286-9.058
				c0.781-1.462,1.591-2.903,2.435-4.33l1.293-2.133c0.455-0.726,0.866-1.379,1.415-2.191L321.579,155.384z"/>
		</g>
	</g>
</g>
</svg>
