<?xml version="1.0" encoding="utf-8"?>
<!-- Generator: Adobe Illustrator 27.5.0, SVG Export Plug-In . SVG Version: 6.00 Build 0)  -->
<svg version="1.1" xmlns="http://www.w3.org/2000/svg" xmlns:xlink="http://www.w3.org/1999/xlink" x="0px" y="0px"
	 viewBox="0 0 500 500" style="enable-background:new 0 0 500 500;" xml:space="preserve">
<g id="Background_Simple">
	<g>
		<path style="opacity:0.7;fill:#FFFFFF;" d="M67.931,167.086c0,0-27.877,71.988,11.297,144.503
			c39.174,72.516,119.879,110.802,184.469,143.548c64.59,32.746,131.661,16.799,163.534-36.838
			c31.873-53.637-11.845-91.928-11.897-168.418c-0.051-76.49,11.447-96.742-29.963-161.364
			c-41.41-64.623-143.059-78.925-219.9-30.996C88.631,105.45,67.931,167.086,67.931,167.086z"/>
	</g>
	<g>
		<path style="fill:#3CA3F4;" d="M109.599,442h290.874c86.197-106.335,68.132-189.307,25.246-215.113
			c-27.861-16.765-58.466,0.036-79.631-26.086c-21.165-26.122,3.363-80.691-27.425-124.558
			c-30.788-43.867-84.333-23.781-111.824,8.37s-38.971,119.76-91.297,105.776S10.022,230.484,57.534,300.3
			C101.966,365.59,108.888,433.47,109.599,442z"/>
		<path style="opacity:0.7;fill:#FFFFFF;" d="M109.599,442h290.874c86.197-106.335,68.132-189.307,25.246-215.113
			c-27.861-16.765-58.466,0.036-79.631-26.086c-21.165-26.122,3.363-80.691-27.425-124.558
			c-30.788-43.867-84.333-23.781-111.824,8.37s-38.971,119.76-91.297,105.776S10.022,230.484,57.534,300.3
			C101.966,365.59,108.888,433.47,109.599,442z"/>
	</g>
</g>
<g id="Floor">
	
		<line style="fill:none;stroke:#263238;stroke-linecap:round;stroke-linejoin:round;stroke-miterlimit:10;" x1="46.156" y1="442" x2="453.844" y2="442"/>
</g>
<g id="Banners">
	<g>
		<g>
			<path style="fill:none;stroke:#263238;stroke-linecap:round;stroke-linejoin:round;stroke-miterlimit:10;" d="M129.725,85.948
				c0,0,59.914-15.972,120.926-15.339c61.012,0.633,119.981,23.996,119.981,23.996l-4.756,31.529c0,0-48.827-22.122-113.665-24.541
				c-64.838-2.418-118.788,19.874-118.788,19.874L129.725,85.948z"/>
			<path style="fill:none;stroke:#263238;stroke-linecap:round;stroke-linejoin:round;stroke-miterlimit:10;" d="M133.424,121.468
				c0,0-2.904,23.724-21.95,21.348c-19.046-2.376-31.814,20.563-31.814,20.563"/>
			<path style="fill:none;stroke:#263238;stroke-linecap:round;stroke-linejoin:round;stroke-miterlimit:10;" d="M129.725,85.948
				c0,0-9.889,7.135-17.659-4.791c-7.77-11.926-26.143-6.258-26.143-6.258"/>
			<path style="fill:none;stroke:#263238;stroke-linecap:round;stroke-linejoin:round;stroke-miterlimit:10;" d="M370.632,94.606
				c11.379,0.734,18.913,15.199,23.849,7.571c4.937-7.628,16.266-12.683,16.266-12.683"/>
			<path style="fill:none;stroke:#263238;stroke-linecap:round;stroke-linejoin:round;stroke-miterlimit:10;" d="M365.876,126.135
				c10.596,12.722,9.841,10.139,13.384,20.53c3.542,10.39,12.426,8.109,17.874,12.019c5.448,3.91,5.173,14.307,5.173,14.307"/>
			<g>
				<g>
					<path style="fill:#3CA3F4;" d="M150.665,90.025c2.123-0.579,3.302,0.446,3.445,2.725c0.009,0.149,0.019,0.298,0.028,0.447
						c-0.688,0.18-1.375,0.362-2.061,0.546c-0.013-0.196-0.025-0.392-0.038-0.588c-0.066-1.016-0.487-1.296-1.18-1.107
						c-0.693,0.189-1.062,0.684-0.994,1.699c0.069,1.034,0.553,1.681,2.057,2.57c1.92,1.147,2.568,2.17,2.668,3.774
						c0.141,2.242-0.881,3.797-2.996,4.365c-2.112,0.57-3.289-0.391-3.443-2.625c-0.02-0.286-0.039-0.573-0.059-0.859
						c0.678-0.191,1.357-0.38,2.036-0.566c0.022,0.334,0.045,0.667,0.067,1c0.067,0.999,0.521,1.24,1.207,1.054
						c0.687-0.185,1.095-0.659,1.031-1.659c-0.066-1.021-0.549-1.671-2.048-2.55c-1.919-1.133-2.567-2.138-2.678-3.757
						C147.551,92.223,148.546,90.606,150.665,90.025z"/>
				</g>
				<g>
					<path style="fill:#3CA3F4;" d="M163.086,101.419c-0.735,0.17-1.47,0.342-2.203,0.517c-0.174-0.816-0.348-1.634-0.522-2.452
						c-0.893,0.215-1.785,0.433-2.676,0.655c-0.075,0.879-0.149,1.756-0.223,2.632c-0.664,0.166-1.328,0.334-1.99,0.503
						c0.448-4.859,0.901-9.76,1.359-14.703c1.073-0.271,2.148-0.537,3.225-0.798C161.073,92.358,162.083,96.906,163.086,101.419z
						 M157.848,98.162c0.701-0.174,1.402-0.346,2.105-0.516c-0.483-2.298-0.967-4.604-1.454-6.92
						c-0.013,0.003-0.027,0.007-0.04,0.01C158.254,93.222,158.05,95.697,157.848,98.162z"/>
				</g>
				<g>
					<path style="fill:#3CA3F4;" d="M163.337,86.998c0.739-0.171,1.48-0.34,2.221-0.506c0.213,4.096,0.423,8.161,0.633,12.195
						c1.207-0.267,2.415-0.527,3.626-0.781c0.033,0.671,0.065,1.34,0.097,2.009c-1.943,0.406-3.881,0.83-5.812,1.27
						C163.849,96.498,163.594,91.769,163.337,86.998z"/>
				</g>
				<g>
					<path style="fill:#3CA3F4;" d="M172.714,91.074c1.02-0.205,2.041-0.405,3.064-0.601c0.029,0.68,0.058,1.359,0.087,2.037
						c-1.021,0.195-2.041,0.394-3.059,0.598c0.063,1.386,0.126,2.769,0.189,4.148c1.276-0.255,2.555-0.502,3.836-0.743
						c0.028,0.673,0.056,1.344,0.085,2.015c-2.018,0.378-4.031,0.773-6.038,1.187c-0.224-4.702-0.449-9.445-0.677-14.229
						c2.033-0.425,4.072-0.832,6.116-1.221c0.029,0.688,0.058,1.375,0.086,2.061c-1.293,0.245-2.583,0.498-3.871,0.757
						C172.593,88.417,172.653,89.747,172.714,91.074z"/>
				</g>
				<g>
					<path style="fill:#3CA3F4;" d="M187.546,82.326c0.021,0.663,0.042,1.325,0.063,1.986c-0.979,4.313-1.948,8.597-2.91,12.853
						c-0.745,0.122-1.49,0.246-2.235,0.372c0.945-4.232,1.898-8.492,2.859-12.78c-1.502,0.244-3.002,0.497-4.499,0.761
						c-0.026-0.687-0.052-1.375-0.078-2.064C183.007,83.056,185.273,82.679,187.546,82.326z"/>
				</g>
				<g>
					<path style="fill:#3CA3F4;" d="M188.976,85.594c-0.07-2.311,1.11-3.827,3.349-4.145c2.241-0.316,3.501,0.857,3.557,3.173
						c0.06,2.499,0.12,4.986,0.18,7.462c0.055,2.277-1.125,3.724-3.337,4.031c-2.21,0.308-3.453-0.8-3.522-3.073
						C189.127,90.57,189.052,88.088,188.976,85.594z M191.461,92.854c0.029,1.016,0.49,1.337,1.208,1.236
						c0.718-0.1,1.159-0.546,1.133-1.563c-0.067-2.569-0.135-5.151-0.203-7.744c-0.027-1.032-0.493-1.363-1.218-1.261
						c-0.725,0.102-1.168,0.561-1.139,1.593C191.316,87.706,191.389,90.286,191.461,92.854z"/>
				</g>
				<g>
					<path style="fill:#3CA3F4;" d="M197.202,83.188c-0.034-1.491,0.717-2.422,2.155-2.596c1.439-0.173,2.227,0.573,2.255,2.066
						c0.03,1.586,0.06,3.167,0.089,4.744c0.028,1.478-0.723,2.38-2.149,2.55c-1.426,0.17-2.208-0.549-2.242-2.025
						C197.274,86.352,197.238,84.772,197.202,83.188z M198.761,87.851c0.014,0.636,0.288,0.869,0.764,0.812
						c0.455-0.054,0.74-0.355,0.727-0.991c-0.033-1.645-0.066-3.294-0.1-4.949c-0.013-0.642-0.31-0.878-0.768-0.823
						c-0.479,0.058-0.744,0.361-0.73,1.003C198.69,84.558,198.725,86.207,198.761,87.851z M205.122,80.051
						c0.453-0.047,0.907-0.093,1.36-0.138c-1.848,5.027-3.676,10.024-5.486,14.991c-0.446,0.051-0.892,0.103-1.338,0.156
						C201.461,90.087,203.282,85.085,205.122,80.051z M204.512,87.632c-0.024-1.479,0.732-2.387,2.17-2.529
						c1.438-0.141,2.22,0.615,2.238,2.096c0.019,1.573,0.038,3.142,0.057,4.706c0.018,1.466-0.738,2.345-2.163,2.484
						c-1.425,0.139-2.202-0.59-2.225-2.055C204.563,90.771,204.538,89.203,204.512,87.632z M206.038,92.288
						c0.01,0.631,0.282,0.868,0.758,0.821c0.455-0.044,0.741-0.336,0.733-0.967c-0.022-1.632-0.044-3.268-0.066-4.909
						c-0.008-0.637-0.304-0.877-0.762-0.832c-0.479,0.047-0.745,0.342-0.736,0.979C205.989,89.021,206.013,90.657,206.038,92.288z"
						/>
				</g>
				<g>
					<path style="fill:#3CA3F4;" d="M213.475,82.782c-0.019-2.324,1.21-3.761,3.481-3.92c2.272-0.156,3.518,1.11,3.521,3.437
						c0.004,2.511,0.008,5.01,0.012,7.498c0.004,2.288-1.221,3.656-3.463,3.808c-2.241,0.153-3.474-1.047-3.492-3.333
						C213.515,87.786,213.495,85.29,213.475,82.782z M215.824,90.243c0.006,1.021,0.465,1.376,1.193,1.326
						c0.728-0.05,1.184-0.466,1.18-1.488c-0.01-2.582-0.019-5.177-0.029-7.784c-0.004-1.038-0.467-1.403-1.202-1.352
						c-0.735,0.051-1.194,0.48-1.188,1.517C215.794,85.068,215.809,87.662,215.824,90.243z"/>
				</g>
				<g>
					<path style="fill:#3CA3F4;" d="M224.276,85.055c0.992-0.048,1.985-0.091,2.978-0.13c-0.003,0.688-0.006,1.374-0.009,2.06
						c-0.991,0.039-1.982,0.082-2.972,0.129c-0.004,1.977-0.007,3.947-0.011,5.91c-0.763,0.036-1.525,0.075-2.288,0.116
						c-0.001-4.765-0.002-9.572-0.003-14.422c2.044-0.112,4.09-0.207,6.137-0.283c-0.004,0.696-0.007,1.391-0.011,2.085
						c-1.271,0.048-2.542,0.102-3.812,0.163C224.281,82.144,224.279,83.601,224.276,85.055z"/>
				</g>
				<g>
					<path style="fill:#3CA3F4;" d="M231.495,84.783c0.994-0.027,1.988-0.05,2.983-0.069c-0.008,0.688-0.015,1.375-0.023,2.061
						c-0.992,0.019-1.985,0.042-2.977,0.069c-0.017,1.979-0.033,3.95-0.05,5.914c-0.764,0.021-1.529,0.044-2.292,0.069
						c0.03-4.769,0.061-9.579,0.092-14.433c2.048-0.07,4.098-0.123,6.148-0.157c-0.008,0.696-0.017,1.392-0.025,2.086
						c-1.273,0.021-2.545,0.049-3.817,0.085C231.519,81.87,231.507,83.329,231.495,84.783z"/>
				</g>
				<g>
					<path style="fill:#3CA3F4;" d="M239.527,81.692c0.037-2.33,1.306-3.678,3.59-3.668c2.284,0.013,3.503,1.374,3.451,3.704
						c-0.056,2.515-0.111,5.018-0.167,7.51c-0.051,2.292-1.311,3.572-3.565,3.559c-2.254-0.011-3.464-1.304-3.428-3.596
						C239.448,86.71,239.487,84.207,239.527,81.692z M241.709,89.342c-0.018,1.024,0.435,1.412,1.166,1.416
						c0.732,0.004,1.199-0.38,1.22-1.404c0.052-2.587,0.104-5.187,0.156-7.799c0.021-1.04-0.436-1.44-1.174-1.444
						c-0.739-0.004-1.21,0.392-1.229,1.431C241.802,84.155,241.755,86.755,241.709,89.342z"/>
				</g>
				<g>
					<path style="fill:#3CA3F4;" d="M250.161,82.32c-0.014,0-0.028-0.001-0.042-0.001c-0.089,3.496-0.177,6.97-0.265,10.423
						c-0.689-0.017-1.377-0.033-2.066-0.046c0.112-4.772,0.225-9.586,0.34-14.443c0.973,0.019,1.945,0.041,2.918,0.068
						c0.704,2.934,1.404,5.854,2.1,8.762c0.014,0,0.028,0.001,0.042,0.001c0.082-2.881,0.164-5.778,0.246-8.69
						c0.691,0.024,1.381,0.049,2.072,0.077c-0.147,4.856-0.292,9.669-0.437,14.44c-0.786-0.031-1.571-0.06-2.357-0.086
						C251.868,89.342,251.017,85.84,250.161,82.32z"/>
				</g>
				<g>
					<path style="fill:#3CA3F4;" d="M263.582,78.72c2.258,0.143,3.362,1.568,3.267,3.896c-0.006,0.152-0.012,0.304-0.019,0.456
						c-0.728-0.053-1.456-0.103-2.184-0.152c0.008-0.201,0.016-0.401,0.023-0.602c0.04-1.039-0.366-1.463-1.103-1.509
						c-0.737-0.046-1.172,0.324-1.211,1.363c-0.039,1.059,0.394,1.871,1.856,3.271c1.862,1.797,2.42,3.037,2.353,4.675
						c-0.093,2.289-1.31,3.503-3.559,3.361c-2.249-0.139-3.372-1.499-3.293-3.79c0.01-0.293,0.02-0.587,0.03-0.881
						c0.725,0.038,1.451,0.079,2.176,0.122c-0.012,0.342-0.025,0.683-0.037,1.024c-0.037,1.023,0.409,1.417,1.138,1.463
						c0.73,0.046,1.203-0.291,1.242-1.314c0.04-1.044-0.389-1.857-1.848-3.244c-1.87-1.785-2.437-3.013-2.379-4.673
						C260.116,79.859,261.323,78.579,263.582,78.72z"/>
				</g>
				<g>
					<path style="fill:#3CA3F4;" d="M270.39,85.529c1.054,0.087,2.107,0.18,3.159,0.276c-0.032,0.687-0.065,1.374-0.097,2.059
						c-1.051-0.097-2.102-0.188-3.153-0.275c-0.062,1.403-0.124,2.803-0.185,4.2c1.318,0.109,2.635,0.225,3.952,0.349
						c-0.032,0.679-0.065,1.358-0.097,2.036c-2.075-0.195-4.152-0.371-6.231-0.529c0.2-4.766,0.401-9.574,0.605-14.424
						c2.107,0.161,4.212,0.342,6.314,0.541c-0.033,0.695-0.066,1.389-0.099,2.082c-1.329-0.126-2.659-0.244-3.989-0.354
						C270.508,82.839,270.449,84.186,270.39,85.529z"/>
				</g>
				<g>
					<path style="fill:#3CA3F4;" d="M276.088,79.9c0.77,0.076,1.54,0.155,2.31,0.236c-0.212,4.154-0.423,8.277-0.632,12.369
						c1.252,0.131,2.502,0.269,3.752,0.413c-0.037,0.679-0.074,1.356-0.111,2.033c-2.006-0.231-4.014-0.445-6.025-0.642
						C275.615,89.548,275.851,84.745,276.088,79.9z"/>
				</g>
				<g>
					<path style="fill:#3CA3F4;" d="M285.149,87.067c1.046,0.131,2.092,0.267,3.137,0.408c-0.042,0.685-0.083,1.37-0.124,2.054
						c-1.043-0.14-2.086-0.276-3.131-0.407c-0.081,1.4-0.161,2.796-0.241,4.189c1.309,0.164,2.617,0.335,3.924,0.513
						c-0.042,0.678-0.083,1.354-0.124,2.03c-2.059-0.281-4.122-0.543-6.188-0.787c0.264-4.755,0.53-9.552,0.799-14.391
						c2.093,0.25,4.183,0.519,6.27,0.806c-0.042,0.693-0.085,1.385-0.127,2.077c-1.319-0.181-2.639-0.355-3.961-0.522
						C285.304,84.383,285.226,85.727,285.149,87.067z"/>
				</g>
				<g>
					<path style="fill:#3CA3F4;" d="M296.901,91.727c-0.043,0.632-0.087,1.264-0.13,1.895c-0.157,2.276-1.391,3.383-3.607,3.05
						c-2.218-0.331-3.29-1.785-3.147-4.065c0.155-2.479,0.31-4.969,0.466-7.471c0.145-2.318,1.396-3.489,3.644-3.149
						c2.245,0.341,3.315,1.862,3.156,4.177c-0.032,0.468-0.064,0.935-0.096,1.401c-0.716-0.115-1.433-0.228-2.15-0.339
						c0.034-0.515,0.069-1.031,0.103-1.547c0.069-1.033-0.361-1.497-1.088-1.608c-0.726-0.11-1.209,0.216-1.276,1.25
						c-0.168,2.597-0.334,5.182-0.5,7.755c-0.065,1.018,0.364,1.45,1.083,1.557c0.72,0.108,1.196-0.187,1.264-1.205
						c0.045-0.679,0.091-1.359,0.136-2.039C295.474,91.5,296.188,91.612,296.901,91.727z"/>
				</g>
				<g>
					<path style="fill:#3CA3F4;" d="M298.249,82.805c2.349,0.385,4.693,0.794,7.03,1.226c-0.052,0.69-0.105,1.379-0.157,2.068
						c-0.789-0.146-1.579-0.289-2.369-0.429c-0.303,4.115-0.604,8.199-0.902,12.253c-0.748-0.131-1.496-0.26-2.245-0.387
						c0.29-4.056,0.583-8.143,0.877-12.261c-0.792-0.135-1.585-0.268-2.378-0.397C298.154,84.188,298.201,83.497,298.249,82.805z"/>
				</g>
				<g>
					<path style="fill:#3CA3F4;" d="M308.055,90.72c1.029,0.2,2.056,0.404,3.082,0.613c-0.056,0.681-0.111,1.361-0.167,2.04
						c-1.024-0.208-2.05-0.412-3.077-0.61c-0.11,1.391-0.219,2.779-0.328,4.164c1.287,0.248,2.572,0.504,3.855,0.767
						c-0.055,0.673-0.111,1.346-0.166,2.017c-2.022-0.414-4.05-0.81-6.083-1.188c0.363-4.727,0.729-9.496,1.098-14.307
						c2.059,0.387,4.113,0.793,6.162,1.217c-0.057,0.688-0.113,1.376-0.17,2.063c-1.295-0.268-2.592-0.528-3.891-0.781
						C308.266,88.053,308.16,89.389,308.055,90.72z"/>
				</g>
				<g>
					<path style="fill:#3CA3F4;" d="M313.826,85.724c1.186,0.251,2.37,0.507,3.552,0.77c2.24,0.5,3.222,2.016,3.015,4.312
						c-0.217,2.41-0.434,4.809-0.649,7.198c-0.204,2.259-1.396,3.229-3.607,2.742c-1.167-0.257-2.336-0.507-3.507-0.752
						C313.025,95.28,313.424,90.523,313.826,85.724z M315.896,88.267c-0.293,3.416-0.585,6.811-0.875,10.184
						c0.417,0.09,0.834,0.181,1.25,0.273c0.705,0.155,1.16-0.112,1.249-1.123c0.217-2.458,0.434-4.927,0.653-7.407
						c0.09-1.025-0.304-1.491-1.015-1.649C316.738,88.451,316.317,88.359,315.896,88.267z"/>
				</g>
				<g>
					<path style="fill:#3CA3F4;" d="M325.274,88.35c0.741,0.183,1.48,0.369,2.219,0.557c-0.461,4.772-0.918,9.503-1.371,14.192
						c-0.729-0.184-1.46-0.365-2.191-0.544C324.375,97.862,324.822,93.127,325.274,88.35z"/>
				</g>
				<g>
					<path style="fill:#3CA3F4;" d="M328.459,89.155c2.279,0.588,4.549,1.199,6.81,1.833c-0.071,0.682-0.142,1.363-0.212,2.043
						c-0.763-0.214-1.527-0.425-2.292-0.633c-0.414,4.067-0.825,8.105-1.232,12.112c-0.724-0.195-1.45-0.388-2.176-0.578
						c0.4-4.011,0.803-8.053,1.208-12.124c-0.768-0.204-1.536-0.404-2.306-0.603C328.326,90.522,328.393,89.839,328.459,89.155z"/>
				</g>
				<g>
					<path style="fill:#3CA3F4;" d="M337.773,97.882c0.993,0.288,1.985,0.58,2.975,0.876c-0.074,0.672-0.147,1.343-0.221,2.014
						c-0.988-0.296-1.978-0.587-2.969-0.873c-0.147,1.374-0.293,2.745-0.44,4.112c1.243,0.358,2.483,0.723,3.72,1.095
						c-0.073,0.664-0.147,1.328-0.22,1.991c-1.95-0.586-3.908-1.154-5.873-1.705c0.49-4.67,0.983-9.382,1.482-14.135
						c1.99,0.565,3.973,1.147,5.948,1.748c-0.075,0.679-0.15,1.358-0.225,2.036c-1.248-0.379-2.5-0.75-3.754-1.115
						C338.055,95.248,337.914,96.567,337.773,97.882z"/>
				</g>
				<g>
					<path style="fill:#3CA3F4;" d="M346.911,104.869c0.013,0.004,0.025,0.008,0.038,0.012c0.865-3.161,1.734-6.34,2.609-9.536
						c0.995,0.328,1.987,0.661,2.978,0.998c-0.567,4.71-1.129,9.38-1.686,14.009c-0.665-0.224-1.331-0.445-1.998-0.665
						c0.393-3.32,0.789-6.66,1.187-10.021c-0.013-0.004-0.026-0.009-0.039-0.013c-0.875,3.203-1.746,6.389-2.612,9.557
						c-0.669-0.217-1.339-0.431-2.009-0.644c-0.14-3.444-0.281-6.91-0.424-10.396c-0.013-0.004-0.026-0.008-0.039-0.012
						c-0.377,3.323-0.752,6.626-1.125,9.909c-0.621-0.193-1.242-0.385-1.865-0.574c0.52-4.653,1.044-9.347,1.573-14.082
						c1.005,0.31,2.007,0.624,3.007,0.944C346.642,97.881,346.778,101.386,346.911,104.869z"/>
				</g>
			</g>
		</g>
		<g>
			<g>
				<g>
					<g>
						<path style="fill:#3CA3F4;" d="M379.074,215.252l-0.539,2.118c-0.415,1.629,0.152,2.397,1.292,2.688
							c1.14,0.29,2.006-0.113,2.421-1.742l1.278-5.016c0.415-1.629-0.145-2.43-1.285-2.721c-1.14-0.29-2.014,0.146-2.429,1.775
							l-0.174,0.684l-3.388-0.863l4.02-13.059l9.447,2.406l-0.83,3.258l-6.254-1.593l-1.678,5.365l0.065,0.017
							c0.925-0.909,2.085-1.238,3.518-0.873c2.639,0.672,3.501,2.868,2.647,6.224L385.89,219c-0.929,3.649-3.284,5.269-6.803,4.373
							c-3.518-0.896-4.811-3.445-3.882-7.094l0.481-1.889L379.074,215.252z"/>
					</g>
					<g>
						<path style="fill:#3CA3F4;" d="M390.993,207.673c0.929-3.648,3.382-5.243,6.9-4.348c3.518,0.896,4.909,3.47,3.98,7.118
							l-3.02,11.857c-0.929,3.648-3.382,5.244-6.9,4.348c-3.518-0.896-4.909-3.47-3.98-7.119L390.993,207.673z M391.498,220.671
							c-0.415,1.628,0.145,2.43,1.285,2.72c1.14,0.29,2.014-0.146,2.429-1.774l3.136-12.313c0.415-1.629-0.145-2.43-1.285-2.721
							c-1.14-0.29-2.015,0.146-2.429,1.775L391.498,220.671z"/>
					</g>
				</g>
				<g>
					<g>
						<path style="fill:#3CA3F4;" d="M405.294,207.465c0.346-1.361,1.238-1.939,2.543-1.607c1.305,0.332,1.811,1.267,1.465,2.628
							l-1.108,4.348c-0.347,1.361-1.238,1.939-2.543,1.607c-1.304-0.332-1.811-1.266-1.464-2.627L405.294,207.465z M405.486,212.245
							c-0.149,0.586,0.034,0.895,0.469,1.006c0.416,0.106,0.744-0.073,0.893-0.659l1.155-4.537c0.149-0.586-0.053-0.9-0.469-1.006
							c-0.435-0.111-0.743,0.073-0.892,0.659L405.486,212.245z M413.031,207.281l1.229,0.313l-8.588,11.905l-1.229-0.313
							L413.031,207.281z M410.621,213.975c0.347-1.361,1.239-1.939,2.543-1.607c1.304,0.332,1.811,1.266,1.465,2.628l-1.108,4.348
							c-0.347,1.361-1.239,1.939-2.543,1.607c-1.304-0.332-1.812-1.267-1.465-2.628L410.621,213.975z M410.814,218.755
							c-0.149,0.586,0.033,0.895,0.469,1.006c0.416,0.106,0.743-0.073,0.892-0.659l1.155-4.537c0.149-0.586-0.053-0.9-0.469-1.006
							c-0.435-0.111-0.743,0.073-0.892,0.659L410.814,218.755z"/>
					</g>
				</g>
				<g>
					<g>
						<path style="fill:#3CA3F4;" d="M400.996,222.664c0.312-1.225,1.135-1.76,2.316-1.46c1.182,0.301,1.648,1.165,1.336,2.39
							l-1.014,3.98c-0.312,1.225-1.135,1.76-2.316,1.459c-1.18-0.301-1.647-1.165-1.336-2.39L400.996,222.664z M401.165,227.027
							c-0.139,0.546,0.049,0.816,0.431,0.913c0.383,0.098,0.677-0.049,0.816-0.596l1.053-4.134c0.139-0.546-0.049-0.816-0.432-0.913
							c-0.382-0.097-0.676,0.049-0.815,0.596L401.165,227.027z"/>
					</g>
					<g>
						<path style="fill:#3CA3F4;" d="M406.228,225.662l1.553,0.395l-0.279,1.094l-1.553-0.396l-0.805,3.16l-1.203-0.306l1.949-7.654
							l3.182,0.81l-0.279,1.094l-1.98-0.504L406.228,225.662z"/>
					</g>
					<g>
						<path style="fill:#3CA3F4;" d="M409.99,226.62l1.553,0.395l-0.279,1.094l-1.553-0.395l-0.805,3.16l-1.203-0.306l1.949-7.654
							l3.182,0.81l-0.278,1.094l-1.98-0.504L409.99,226.62z"/>
					</g>
				</g>
			</g>
			<polyline style="fill:none;stroke:#263238;stroke-linecap:round;stroke-linejoin:round;stroke-miterlimit:10;" points="
				377.539,237.643 417.515,247.206 419.393,240.607 			"/>
			<polyline style="fill:none;stroke:#263238;stroke-linecap:round;stroke-linejoin:round;stroke-miterlimit:10;" points="
				362.525,196.848 355.439,232.356 369.642,235.754 			"/>
			<polyline style="fill:none;stroke:#263238;stroke-linecap:round;stroke-linejoin:round;stroke-miterlimit:10;" points="
				420.873,235.404 431.155,199.269 365.025,184.316 363.517,191.875 			"/>
			
				<line style="fill:none;stroke:#263238;stroke-linecap:round;stroke-linejoin:round;stroke-miterlimit:10;" x1="348.326" y1="392.782" x2="347.231" y2="397.927"/>
			
				<line style="fill:none;stroke:#263238;stroke-linecap:round;stroke-linejoin:round;stroke-miterlimit:10;" x1="375.876" y1="263.289" x2="350.006" y2="384.881"/>
			
				<line style="fill:none;stroke:#263238;stroke-linecap:round;stroke-linejoin:round;stroke-miterlimit:10;" x1="380.632" y1="240.937" x2="377.539" y2="255.476"/>
			
				<line style="fill:none;stroke:#263238;stroke-linecap:round;stroke-linejoin:round;stroke-miterlimit:10;" x1="369.879" y1="313.116" x2="355.088" y2="384.225"/>
			
				<line style="fill:none;stroke:#263238;stroke-linecap:round;stroke-linejoin:round;stroke-miterlimit:10;" x1="384.691" y1="241.908" x2="371.439" y2="305.616"/>
		</g>
		<g>
			<g>
				<g>
					<g>
						<g>
							<path style="fill:#3CA3F4;" d="M89.41,232.001l-2.633,0.404l-2.138-13.944l2.633-0.404l0.916,5.976l2.992-0.459l-0.916-5.976
								l2.681-0.411l2.138,13.944l-2.681,0.411l-0.916-5.976l-2.992,0.459L89.41,232.001z"/>
						</g>
						<g>
							<path style="fill:#3CA3F4;" d="M105.515,229.532l-2.657,0.407l-0.842-2.46l-3.232,0.495l-0.067,2.6l-2.417,0.371
								l0.543-14.355l3.854-0.591L105.515,229.532z M98.828,226.031l2.538-0.389l-2.326-6.861l-0.048,0.007L98.828,226.031z"/>
						</g>
						<g>
							<path style="fill:#3CA3F4;" d="M104.595,215.401l2.633-0.404l1.832,11.952l4.333-0.664l0.305,1.992l-6.966,1.068
								L104.595,215.401z"/>
						</g>
						<g>
							<path style="fill:#3CA3F4;" d="M116.288,219.949l3.399-0.521l0.305,1.992l-3.399,0.521l0.883,5.757l-2.633,0.404
								l-2.138-13.944l6.966-1.068l0.305,1.992l-4.333,0.664L116.288,219.949z"/>
						</g>
					</g>
					<g>
						<g>
							<path style="fill:#3CA3F4;" d="M94.6,236.926l0.244,1.592c0.3,1.959-0.672,3.2-2.983,3.555l-1.094,0.168l0.705,4.601
								l-2.312,0.354l-1.877-12.246l3.406-0.522C93,234.073,94.3,234.967,94.6,236.926z M89.863,236.345l0.636,4.147l1.094-0.168
								c0.735-0.113,1.092-0.454,0.958-1.329l-0.282-1.837c-0.134-0.875-0.577-1.094-1.312-0.981L89.863,236.345z"/>
						</g>
						<g>
							<path style="fill:#3CA3F4;" d="M101.925,245.239c-0.175-0.295-0.288-0.475-0.441-1.472l-0.295-1.924
								c-0.174-1.137-0.701-1.486-1.752-1.325l-0.799,0.122l0.764,4.986l-2.313,0.355l-1.877-12.246l3.49-0.535
								c2.396-0.367,3.569,0.402,3.859,2.292l0.148,0.962c0.193,1.259-0.167,2.138-1.136,2.699l0.005,0.035
								c1.218,0.225,1.736,1.077,1.932,2.354l0.29,1.89c0.091,0.595,0.18,1.029,0.48,1.449L101.925,245.239z M97.793,235.129
								l0.577,3.761l0.905-0.139c0.862-0.132,1.339-0.527,1.189-1.507l-0.185-1.207c-0.134-0.875-0.551-1.205-1.371-1.079
								L97.793,235.129z"/>
						</g>
						<g>
							<path style="fill:#3CA3F4;" d="M103.668,232.438l2.313-0.355l1.877,12.246l-2.313,0.355L103.668,232.438z"/>
						</g>
						<g>
							<path style="fill:#3CA3F4;" d="M115.548,238.477l0.249,1.628c0.3,1.959-0.706,3.259-2.975,3.607
								c-2.271,0.348-3.62-0.591-3.92-2.55l-0.976-6.368c-0.3-1.959,0.706-3.26,2.976-3.608c2.27-0.348,3.619,0.591,3.92,2.551
								l0.182,1.189l-2.187,0.335l-0.201-1.312c-0.134-0.875-0.647-1.136-1.383-1.023c-0.735,0.113-1.147,0.516-1.013,1.391
								l1.014,6.612c0.134,0.875,0.646,1.119,1.381,1.007c0.736-0.113,1.15-0.498,1.016-1.374l-0.268-1.749L115.548,238.477z"/>
						</g>
						<g>
							<path style="fill:#3CA3F4;" d="M118.886,235.387l3.174-0.487l0.268,1.749l-3.174,0.487l0.55,3.587l3.994-0.612l0.268,1.749
								l-6.306,0.967l-1.877-12.246l6.306-0.967l0.268,1.749l-3.994,0.612L118.886,235.387z"/>
						</g>
					</g>
				</g>
			</g>
			<polyline style="fill:none;stroke:#263238;stroke-linecap:round;stroke-linejoin:round;stroke-miterlimit:10;" points="
				100.204,257.223 140.864,251.188 140.145,244.364 			"/>
			<polyline style="fill:none;stroke:#263238;stroke-linecap:round;stroke-linejoin:round;stroke-miterlimit:10;" points="
				71.06,224.971 77.728,260.56 92.173,258.416 			"/>
			<polyline style="fill:none;stroke:#263238;stroke-linecap:round;stroke-linejoin:round;stroke-miterlimit:10;" points="
				139.578,238.986 135.642,201.623 68.707,212.41 70.126,219.987 			"/>
			
				<line style="fill:none;stroke:#263238;stroke-linecap:round;stroke-linejoin:round;stroke-miterlimit:10;" x1="130.955" y1="412.065" x2="131.858" y2="417.247"/>
			
				<line style="fill:none;stroke:#263238;stroke-linecap:round;stroke-linejoin:round;stroke-miterlimit:10;" x1="108.226" y1="281.64" x2="129.569" y2="404.108"/>
			
				<line style="fill:none;stroke:#263238;stroke-linecap:round;stroke-linejoin:round;stroke-miterlimit:10;" x1="104.303" y1="259.126" x2="106.855" y2="273.77"/>
			
				<line style="fill:none;stroke:#263238;stroke-linecap:round;stroke-linejoin:round;stroke-miterlimit:10;" x1="121.244" y1="330.108" x2="134.039" y2="401.603"/>
			
				<line style="fill:none;stroke:#263238;stroke-linecap:round;stroke-linejoin:round;stroke-miterlimit:10;" x1="108.432" y1="258.514" x2="119.895" y2="322.568"/>
		</g>
	</g>
</g>
<g id="Character_1">
	<g>
		<path style="fill:#3CA3F4;stroke:#263238;stroke-linecap:round;stroke-linejoin:round;stroke-miterlimit:10;" d="M97.6,401.384
			c-0.41,3.22-0.68,5.77-0.62,6.54c0.2,2.61,0.79,23.71,0.79,23.71s0,0-0.79,0.83c-0.79,0.83-2.18-1.31-2.18-1.31s0-1.3-3.88-19.93
			c-1.09-5.23-2.81-11.32-4.22-17.22c-1.22-5.07-2.2-10.01-2.38-14.13c-0.35-8.18,3.02-12.99,3.02-12.99l12.41-6.27
			c0,0,1.79,2.39,3.01,3.87c1.23,1.49-2.42,17.7-2.42,17.7S98.57,393.694,97.6,401.384z"/>
		<path style="fill:#263238;" d="M97.77,431.634c0,0,0,0-0.79,0.83c-0.79,0.83-2.18-1.31-2.18-1.31s0-1.3-3.88-19.93
			c-1.09-5.23-2.81-11.32-4.22-17.22c2.62,2.44,6.38,5.4,10.9,7.38c-0.41,3.22-0.68,5.77-0.62,6.54
			C97.18,410.535,97.77,431.634,97.77,431.634z"/>
		<path style="fill:#FFFFFF;stroke:#263238;stroke-linecap:round;stroke-linejoin:round;stroke-miterlimit:10;" d="M81.803,344.413
			c-1.539,0.382-6.979,19.47-6.979,19.47s1.879,3.226,2.077,2.998c0.198-0.229,7.392-14.767,7.392-14.767L81.803,344.413z"/>
		<path style="fill:#263238;" d="M98.695,325.36c2.108,3.982,4.663,5.053,6.352,5.915s-0.355,4.883,1.096,7.455
			c1.451,2.571,5.209,0.344,5.209,0.344s-0.333,5.854-4.881,5.788c0,0,0.529,1.055,1.848,1.055c0,0-11.011,6.659-21.758,1.912
			c-10.747-4.747-5.868-14.967-5.868-14.967s-3.758,3.89-2.967,8.44c0,0-5.341-7.517,1.912-11.011
			c7.253-3.495,8.081-8.967,11.458-8.44C94.473,322.378,98.695,325.36,98.695,325.36z"/>
		<path style="fill:#FFFFFF;stroke:#263238;stroke-linecap:round;stroke-linejoin:round;stroke-miterlimit:10;" d="M95.923,333.52
			c0,0-1.385,5.538-0.396,7.319c0.989,1.78-8.637,2.308-8.637,2.308s3.56-2.835,2.176-6.923
			C87.681,332.136,95.923,333.52,95.923,333.52z"/>
		<path style="fill:#263238;" d="M97.752,431.013c0,0,0.945,4.112,0.943,5.431c-0.002,1.319-0.134,6.857-2.771,5.275
			c-2.637-1.582-1.121-10.56-1.121-10.56L97.752,431.013z"/>
		<path style="fill:#757575;stroke:#263238;stroke-linecap:round;stroke-linejoin:round;stroke-miterlimit:10;" d="M103.015,391.872
			c0,0,2.534,5.259,2.138,7.838c-0.396,2.579-4.352,2.637-4.484-3.919C100.538,389.235,103.015,391.872,103.015,391.872z"/>
		<path style="fill:#FFFFFF;stroke:#263238;stroke-linecap:round;stroke-linejoin:round;stroke-miterlimit:10;" d="M84.859,326.049
			c0.41-6.631,15.504-8.194,12.559,4.215C94.472,342.674,83.98,340.244,84.859,326.049z"/>
		<path style="fill:#757575;stroke:#263238;stroke-linecap:round;stroke-linejoin:round;stroke-miterlimit:10;" d="M82.657,343.651
			c0,0,14.629-6.367,18.047-5.435c3.419,0.932,2.321,21.625,0,23.93c-4.781,4.747-13.363,4.735-13.363,4.735
			S74.554,349.708,82.657,343.651z"/>
		<path style="fill:#3CA3F4;stroke:#263238;stroke-linecap:round;stroke-linejoin:round;stroke-miterlimit:10;" d="M98.695,374.202
			c-1.717-0.527-5.673,5.011-5.673,5.011c-2.967,11.67-1.927,23.685-1.927,23.685c1.634,3.707,4.103,1.831,7.511-1.333
			c3.409-3.165,5.294-15.626,7.47-24.07c2.176-8.443-5.373-15.349-5.373-15.349"/>
		<path style="fill:#3CA3F4;stroke:#263238;stroke-linecap:round;stroke-linejoin:round;stroke-miterlimit:10;" d="M88.275,375.939
			c0,0,2.374,3.009,4.747,3.273"/>
		<path style="fill:#263238;" d="M93.614,324.494c-2.814-1.451-5.67,3.429-10.813,6.593c-5.143,3.165-6.725-0.791-6.725-0.791
			s2.637,0.523,3.033-0.661c0,0-0.315-6.515,6.963-9.586c7.278-3.071,10.443-1.148,11.234,0c0.791,1.148,1.582,1.943,2.374,5.304
			c0.791,3.361,2.524,7.231,0.793,6.962C94.67,331.41,93.614,324.494,93.614,324.494z"/>
		<path style="fill:#FFFFFF;stroke:#263238;stroke-linecap:round;stroke-linejoin:round;stroke-miterlimit:10;" d="M100.704,338.216
			c1.519,0.072,10.648,14.286,10.648,14.286l-1.714,3.37l-8.933-8.828c0,0-2.469-2.536-2.009-4.469
			C99.154,340.641,100.704,338.216,100.704,338.216z"/>
		<g>
			<polygon style="fill:#263238;" points="104.752,361.799 108.856,376.74 109.137,381.503 122.892,377.714 128.33,372.391 
				125.57,369.89 118.472,353.341 106.208,358.121 			"/>
			<path style="fill:none;stroke:#263238;stroke-linecap:round;stroke-linejoin:round;stroke-miterlimit:10;" d="M108.679,358.509
				c0,0-3.284-4.134-0.408-6.949c2.876-2.815,5.881,4.099,5.881,4.099"/>
		</g>
		<g>
			<polygon style="fill:#757575;stroke:#263238;stroke-linecap:round;stroke-linejoin:round;stroke-miterlimit:10;" points="
				108.622,360.63 115.813,374.355 117.102,378.948 129.736,372.318 133.915,365.959 130.686,364.103 120.227,349.445 
				109.262,356.727 			"/>
			<path style="fill:none;stroke:#263238;stroke-linecap:round;stroke-linejoin:round;stroke-miterlimit:10;" d="M111.759,356.58
				c0,0-4.089-3.34-1.879-6.703s6.619,2.753,6.619,2.753"/>
			<polyline style="fill:none;stroke:#263238;stroke-linecap:round;stroke-linejoin:round;stroke-miterlimit:10;" points="
				133.915,365.959 120.451,372.026 119.396,375.087 			"/>
			<polyline style="fill:none;stroke:#263238;stroke-linecap:round;stroke-linejoin:round;stroke-miterlimit:10;" points="
				120.451,372.026 118.209,369.982 111.352,359.169 			"/>
		</g>
		<g>
			<polygon style="fill:#757575;stroke:#263238;stroke-linecap:round;stroke-linejoin:round;stroke-miterlimit:10;" points="
				81.737,369.759 78.58,384.929 78.598,389.699 64.632,386.782 58.871,381.811 61.468,379.141 67.513,362.18 80.053,366.18 			"/>
			<path style="fill:none;stroke:#263238;stroke-linecap:round;stroke-linejoin:round;stroke-miterlimit:10;" d="M77.611,366.723
				c0,0,3.018-4.332-0.029-6.961c-3.047-2.629-5.612,4.46-5.612,4.46"/>
			<polyline style="fill:none;stroke:#263238;stroke-linecap:round;stroke-linejoin:round;stroke-miterlimit:10;" points="
				58.871,381.811 73.582,384.544 75.824,387.65 			"/>
			<polyline style="fill:none;stroke:#263238;stroke-linecap:round;stroke-linejoin:round;stroke-miterlimit:10;" points="
				73.582,384.544 74.901,381.933 78.944,369.531 			"/>
		</g>
		<g>
			<polygon style="fill:#3CA3F4;stroke:#263238;stroke-linecap:round;stroke-linejoin:round;stroke-miterlimit:10;" points="
				77.801,368.835 71.486,382.985 70.488,387.65 57.463,381.826 52.893,375.742 55.999,373.687 65.517,358.401 76.918,364.98 			"/>
			<path style="fill:none;stroke:#263238;stroke-linecap:round;stroke-linejoin:round;stroke-miterlimit:10;" d="M74.416,364.99
				c0,0,3.871-3.59,1.454-6.808c-2.417-3.218-6.433,3.163-6.433,3.163"/>
			<polyline style="fill:none;stroke:#263238;stroke-linecap:round;stroke-linejoin:round;stroke-miterlimit:10;" points="
				52.893,375.742 66.066,381.004 68.176,384.544 			"/>
			<polyline style="fill:none;stroke:#263238;stroke-linecap:round;stroke-linejoin:round;stroke-miterlimit:10;" points="
				66.066,381.004 68.176,378.495 74.242,367.685 			"/>
		</g>
		<g>
			<polygon style="fill:#BFBFBF;stroke:#263238;stroke-linecap:round;stroke-linejoin:round;stroke-miterlimit:10;" points="
				65.22,359.199 51.611,366.608 47.985,369.709 41.173,357.173 41.235,349.565 44.951,349.817 61.794,343.451 66.858,355.6 			"/>
			<path style="fill:none;stroke:#263238;stroke-linecap:round;stroke-linejoin:round;stroke-miterlimit:10;" d="M64.865,354.089
				c0,0,5.256-0.502,5.289-4.526c0.033-4.024-7.032-1.393-7.032-1.393"/>
			<polyline style="fill:none;stroke:#263238;stroke-linecap:round;stroke-linejoin:round;stroke-miterlimit:10;" points="
				41.235,349.565 48.507,361.743 48.034,365.837 			"/>
			<polyline style="fill:none;stroke:#263238;stroke-linecap:round;stroke-linejoin:round;stroke-miterlimit:10;" points="
				48.507,361.743 51.707,361.031 63.09,356.125 			"/>
		</g>
		<path style="fill:#FFFFFF;stroke:#263238;stroke-linecap:round;stroke-linejoin:round;stroke-miterlimit:10;" d="M76.582,358.761
			l-5.612-6.038l-3.069,0.618c0,0,3.304,9.439,6.923,10.542C78.443,364.986,76.582,358.761,76.582,358.761z"/>
		<path style="fill:#FFFFFF;stroke:#263238;stroke-linecap:round;stroke-linejoin:round;stroke-miterlimit:10;" d="M109.386,350.922
			c0.549-1.017,4.306-7.776,4.306-7.776l2.849,0.363c0,0-2.849,14.143-6.903,12.363C109.637,355.872,107.925,353.63,109.386,350.922
			z"/>
		<path style="fill:#FFFFFF;stroke:#263238;stroke-linecap:round;stroke-linejoin:round;stroke-miterlimit:10;" d="M68.692,354.698
			c-1.286-1.524-2.777-5.22-2.378-5.831c0.4-0.611,2.674-3.182,2.922-2.885c0.247,0.297,1.068,1.343,1.068,1.343
			s0.465-1.442,1.009-0.651c0.544,0.791,1.154,6.223-0.231,6.923"/>
		<path style="fill:none;stroke:#263238;stroke-linecap:round;stroke-linejoin:round;stroke-miterlimit:10;" d="M70.304,347.325
			c0,0,0.91,2.074,0.762,3.382c-0.148,1.308-2.054,2.562-3.165,2.835"/>
		<g>
			<polygon style="fill:#3CA3F4;stroke:#263238;stroke-linecap:round;stroke-linejoin:round;stroke-miterlimit:10;" points="
				119.376,349.944 132.985,357.353 136.611,360.454 143.424,347.918 143.362,340.31 139.645,340.562 122.802,334.196 
				117.738,346.345 			"/>
			<path style="fill:none;stroke:#263238;stroke-linecap:round;stroke-linejoin:round;stroke-miterlimit:10;" d="M119.731,344.834
				c0,0-5.256-0.502-5.289-4.526c-0.033-4.024,7.032-1.393,7.032-1.393"/>
			<polyline style="fill:none;stroke:#263238;stroke-linecap:round;stroke-linejoin:round;stroke-miterlimit:10;" points="
				143.362,340.31 136.089,352.489 136.562,356.582 			"/>
			<polyline style="fill:none;stroke:#263238;stroke-linecap:round;stroke-linejoin:round;stroke-miterlimit:10;" points="
				136.089,352.489 132.889,351.776 121.506,346.87 			"/>
		</g>
		<path style="fill:#FFFFFF;stroke:#263238;stroke-linecap:round;stroke-linejoin:round;stroke-miterlimit:10;" d="M115.904,345.443
			c1.286-1.524,2.777-5.22,2.377-5.831c-0.399-0.61-2.674-3.182-2.921-2.885c-0.247,0.297-1.068,1.343-1.068,1.343
			s-0.465-1.442-1.009-0.651c-0.544,0.791-1.154,6.223,0.231,6.923"/>
		<path style="fill:none;stroke:#263238;stroke-linecap:round;stroke-linejoin:round;stroke-miterlimit:10;" d="M114.292,338.07
			c0,0-0.91,2.074-0.762,3.382c0.148,1.308,2.054,2.562,3.165,2.835"/>
	</g>
</g>
<g id="Character_3">
	<g>
		<path style="fill:#FFFFFF;stroke:#263238;stroke-linecap:round;stroke-linejoin:round;stroke-miterlimit:10;" d="M379.352,431.193
			c0,0-1.582,2.927-1.582,5.696c0,2.769-0.894,4.654,0.839,4.889c1.733,0.235,4.502,0.466,4.502-0.332c0-0.798,0-1.985,0-1.985
			s1.385-7.436,0-8.267C381.725,430.361,379.352,431.193,379.352,431.193z"/>
		<path style="fill:#999999;stroke:#263238;stroke-linecap:round;stroke-linejoin:round;stroke-miterlimit:10;" d="M403.36,369.774
			c0,0,1.179,25.445-1.063,32.698c-2.242,7.253-17.67,28.352-17.67,28.352s-0.791,3.164-2.901,2.901
			c-2.11-0.264-3.56-3.165-2.769-4.615c0.791-1.451,3.033-5.934,3.033-5.934s8.44-18.959,9.758-21.546
			c1.319-2.586-4.879-14.576-4.879-14.576l-3.143-8.307l-0.128-8.318L403.36,369.774z"/>
		<path style="fill:#FFFFFF;stroke:#263238;stroke-linecap:round;stroke-linejoin:round;stroke-miterlimit:10;" d="M398.761,410.906
			l-1.596,5.063c0,0,1.258,4.052,2.236,6.137c0.979,2.085,4.343,3.257,4.835,1.697c0.492-1.56-0.742-8.171-0.742-8.171
			s1.815-3.785,0.524-4.295C402.726,410.827,398.761,410.906,398.761,410.906z"/>
		<path style="fill:#FFFFFF;stroke:#263238;stroke-linecap:round;stroke-linejoin:round;stroke-miterlimit:10;" d="M385.681,317.122
			c-4.22,1.025-8.034,2.2-6.857,11.439c0.36,2.83,1.388,4.59,2.736,5.611l0,0c0,0,1.153,1.837,0,3.815s7.946,1.187,7.946,1.187
			s-1.451-2.635,0-4.68c0.003-0.004,0.004-0.008,0.007-0.012c1.405-0.573,2.578-1.331,3.197-2.005
			C395.055,329.922,389.901,316.098,385.681,317.122z"/>
		<path style="fill:#263238;" d="M378.608,318.907c0,0-0.443-2.678-2.223-3.469c-1.78-0.791,4.747,0.396,4.747,0
			s-0.989-3.15-0.989-3.15s3.56-0.368,4.549,2.233c0.989,2.601,1.978-0.954,2.769-0.711c0.791,0.243,1.055,3.258,1.055,3.258
			l1.846-1.48c0,0,3.179,6.291,1.59,8.609c0,0-2.959-3.267-6-3.442c-3.04-0.174-4.494,1.123-4.494,1.123l0.217,5.675
			c0,0-0.544-2.647-1.879-0.94c-0.751,0.96,0.544,5.093,0.544,5.093s-3.187-0.58-4.264-4.864
			C375,322.559,378.608,318.907,378.608,318.907z"/>
		<path style="fill:#263238;" d="M374.077,340.131c1.319-2.803,16.615-3.99,22.945-3.33c6.33,0.659,8.835,40.352,8.835,40.352
			s-1.258-3.044-8.693-2.396c-7.824,0.682-14.121,4.242-14.121,4.242l-1.585-13.275c0,0-8.014-17.13-8.437-19.077
			C372.231,342.999,374.077,340.131,374.077,340.131z"/>
		<path style="fill:#263238;" d="M383.555,333.933c0,0,3.264,1.335,6.082,0.247c2.819-1.088,0.989-2.077,0.989-2.077
			S384.791,334.625,383.555,333.933z"/>
		<g>
			<g>
				<polyline style="fill:#999999;stroke:#263238;stroke-linecap:round;stroke-linejoin:round;stroke-miterlimit:10;" points="
					389.271,290.634 404.507,288.325 425.135,292.499 425.128,295.985 405.609,297.205 389.26,295.91 389.269,291.435 				"/>
				<polygon style="fill:#999999;stroke:#263238;stroke-linecap:round;stroke-linejoin:round;stroke-miterlimit:10;" points="
					394.269,295.727 407.84,296.57 424.577,303.917 422.593,312.061 405.866,309.412 391.772,305.98 				"/>
				
					<line style="fill:#757575;stroke:#263238;stroke-linecap:round;stroke-linejoin:round;stroke-miterlimit:10;" x1="407.84" y1="296.57" x2="406.555" y2="301.844"/>
				<polyline style="fill:#999999;stroke:#263238;stroke-linecap:round;stroke-linejoin:round;stroke-miterlimit:10;" points="
					389.26,295.91 405.451,292.765 422.132,294.614 				"/>
				<polyline style="fill:#999999;stroke:#263238;stroke-linecap:round;stroke-linejoin:round;stroke-miterlimit:10;" points="
					391.772,305.98 405.696,303.894 420.747,309.662 				"/>
			</g>
			<g>
				<polygon style="fill:#3CA3F4;stroke:#263238;stroke-linecap:round;stroke-linejoin:round;stroke-miterlimit:10;" points="
					389.363,315.262 399.385,316.258 424.906,316.258 424.906,310.586 402.549,305.616 389.363,311.407 				"/>
				<polygon style="fill:#3CA3F4;stroke:#263238;stroke-linecap:round;stroke-linejoin:round;stroke-miterlimit:10;" points="
					391.709,314.173 393.846,325.991 423.385,325.991 423.385,313.229 403.868,310.586 				"/>
				<polyline style="fill:#3CA3F4;stroke:#263238;stroke-linecap:round;stroke-linejoin:round;stroke-miterlimit:10;" points="
					403.868,310.586 404.725,322.852 420.747,324.907 				"/>
				
					<line style="fill:#3CA3F4;stroke:#263238;stroke-linecap:round;stroke-linejoin:round;stroke-miterlimit:10;" x1="402.747" y1="308.651" x2="402.747" y2="306.616"/>
			</g>
			<polyline style="fill:#999999;stroke:#263238;stroke-linecap:round;stroke-linejoin:round;stroke-miterlimit:10;" points="
				387.516,325.991 402.747,323.65 423.385,327.781 423.385,331.267 403.868,332.528 387.516,331.267 387.516,326.792 			"/>
			<polygon style="fill:#999999;stroke:#263238;stroke-linecap:round;stroke-linejoin:round;stroke-miterlimit:10;" points="
				389.363,330.482 402.747,328.089 420.747,331.267 420.747,339.649 403.868,341.034 389.363,341.034 			"/>
			<polygon style="fill:#757575;stroke:#263238;stroke-linecap:round;stroke-linejoin:round;stroke-miterlimit:10;" points="
				393.846,344.396 393.253,338.717 403.868,335.894 426.483,340.145 426.483,344.396 409.868,346.131 			"/>
			<path style="fill:#757575;stroke:#263238;stroke-linecap:round;stroke-linejoin:round;stroke-miterlimit:10;" d="
				M396.615,342.814l7.253-1.78l21.038,3.527v10.225c0,0-19.917,0.687-21.038,0.687c-1.121,0-8.637-0.687-8.637-0.687
				L396.615,342.814z"/>
			<polyline style="fill:#757575;stroke:#263238;stroke-linecap:round;stroke-linejoin:round;stroke-miterlimit:10;" points="
				403.868,341.034 403.868,352.374 422.132,353.076 			"/>
			
				<line style="fill:#757575;stroke:#263238;stroke-linecap:round;stroke-linejoin:round;stroke-miterlimit:10;" x1="402.747" y1="328.089" x2="402.747" y2="333.517"/>
			<g>
				<polygon style="fill:#3CA3F4;stroke:#263238;stroke-linecap:round;stroke-linejoin:round;stroke-miterlimit:10;" points="
					389.976,361.292 399.998,362.288 425.519,362.288 425.519,356.617 403.162,351.647 389.976,357.438 				"/>
				<polygon style="fill:#3CA3F4;stroke:#263238;stroke-linecap:round;stroke-linejoin:round;stroke-miterlimit:10;" points="
					392.322,360.203 394.459,372.022 423.998,372.022 423.998,359.26 404.481,356.617 				"/>
				<polyline style="fill:#3CA3F4;stroke:#263238;stroke-linecap:round;stroke-linejoin:round;stroke-miterlimit:10;" points="
					404.481,356.617 405.338,368.883 421.36,370.938 				"/>
				
					<line style="fill:#3CA3F4;stroke:#263238;stroke-linecap:round;stroke-linejoin:round;stroke-miterlimit:10;" x1="403.36" y1="354.681" x2="403.36" y2="352.647"/>
			</g>
		</g>
		<path style="fill:#FFFFFF;stroke:#263238;stroke-linecap:round;stroke-linejoin:round;stroke-miterlimit:10;" d="M375.876,350.449
			c0,0,0.766-7.503,5.582-7.411l6.058,11.432l13.989-8.967c0,0,5.228-1.78,6.669-1.187c1.441,0.593,1.694,1.814,1.694,1.814h-1.694
			l2.826,2.122c0,0-0.904,2.196-2.826,1.998c-1.922-0.198-4.815,0.198-4.815,0.198s-14.008,10.228-15.843,11.839
			C385.681,363.9,375.876,350.449,375.876,350.449z"/>
		<path style="fill:#FFFFFF;stroke:#263238;stroke-linecap:round;stroke-linejoin:round;stroke-miterlimit:10;" d="M423.998,366.076
			c0,0,2.343-0.791,2.486,0c0.143,0.791,0.104,7.969-0.965,7.742c-1.068-0.226-3.728-0.238-3.387-1.017
			C422.473,372.022,423.998,366.076,423.998,366.076z"/>
		<path style="fill:#999999;stroke:#263238;stroke-linecap:round;stroke-linejoin:round;stroke-miterlimit:10;" d="M383.725,378.746
			c0,0-0.93,10.363,2.227,13.814c3.158,3.45,15.421-2.22,15.421-2.22l-2.613,20.566c0,0,2.745,2.643,5.599,1.588
			c1.534-0.567,12.706-32.261,10.596-36.366c-2.11-4.105-23.746,2.321-23.746,2.321"/>
		<path style="fill:none;stroke:#263238;stroke-linecap:round;stroke-linejoin:round;stroke-miterlimit:10;" d="M401.374,390.339
			c0,0-1.893-3.033-0.551-5.275"/>
		<path style="fill:none;stroke:#263238;stroke-linecap:round;stroke-linejoin:round;stroke-miterlimit:10;" d="M397.165,387.702
			c0,0,0.959,2.482,3.177,3.087"/>
	</g>
</g>
<g id="Character_2">
	<g>
		<g>
			<path style="fill:#263238;" d="M306.504,162.606c0,0-3.956,6.066-8.703,2.637c-4.747-3.429-6.33-7.114-12.132-6.063
				c0,0,4.22-1.843,8.176,0c3.956,1.843,9.635-5.278,9.635-5.278l-5.152-3.275c0,0-3.16,6.177-6.063,4.067
				c-2.904-2.11-5.805-7.078-11.08-4.067c-1.023,0.584-1.734,0.193-2.287-0.836c1.945-3.604,5.573-11.36,4.397-17.243
				c-0.409-2.047-0.978-3.646-1.595-4.902c2.474,2.255,5.722,4.375,8.584,3.489l-3.56-4.661c0,0-4.909,1.278-13.216-9.495
				c-2.857-3.704-9.333-11.604-23.575-6.159c-9.974,3.814-21.417,8.005-23.434,15.653c-2.017,7.648,0.255,16.421-8.529,19.156
				c-8.784,2.734-13.795-0.388-14.85,4.997c-1.055,5.385,1.953,5.979,1.953,5.979l3.849-0.982c0,0-4.22-3.04-2.374-3.831
				c1.846-0.791,7.172-1.166,7.172-1.166s-3.48,2.484-3.216,3.539s1.846,6.593-2.11,6.857c-3.956,0.264-12.598-2.374-15.002,2.11
				c0,0,4.453,0.791,5.244,2.374c0,0,1.533-0.791,6.437,0c4.904,0.791,11.864,1.055,11.681-4.747c0,0,4.036,7.385-8.887,6.857
				c0,0,3.395,5.275,4.335,7.385c0.94,2.11,28.999,8.437,37.123,8.438c8.124,0.001,29.381-9.493,30.225-9.493
				c0.844,0,4.009,0,4.009,0l7.885-2.374c0,0-0.321-4.434-10.768-5.446c-0.363-0.035-0.739-0.066-1.127-0.093
				c-11.551-0.791,10.339-1.846,15.35,2.637c5.011,4.483,14.218,1.055,14.218,1.055L306.504,162.606z M269.486,126.474
				c0,0,4.568-0.441,8.266,6.373c2.037,3.754,1.11,8.766-0.133,12.513C276.387,139.05,275.32,129.257,269.486,126.474z"/>
			<path style="fill:#FFFFFF;stroke:#263238;stroke-linecap:round;stroke-linejoin:round;stroke-miterlimit:10;" d="M261.142,145.63
				c0,0-8.328,18.295,5.067,20.141c0,0-9.792,6.961-15.473,6.961c-5.681,0-14.385-6.961-14.385-6.961s6.237-1.571,6.215-6.59
				c-0.021-5.019-2.787-11.801-2.787-11.801L261.142,145.63z"/>
			<g>
				<g>
					<path style="fill:#FFFFFF;stroke:#263238;stroke-linecap:round;stroke-linejoin:round;stroke-miterlimit:10;" d="
						M232.736,134.367c0,0-2.021-2.062-3.013-1.384c-0.992,0.678-2.165,2.599-1.624,4.35c0.541,1.751,2.887,4.802,3.067,6.582
						c0.18,1.78,1.397,3.796,2.728,2.618C235.225,145.357,232.736,134.367,232.736,134.367z"/>
					<path style="fill:#FFFFFF;stroke:#263238;stroke-linecap:round;stroke-linejoin:round;stroke-miterlimit:10;" d="
						M268.734,134.367c0,0,2.021-2.062,3.013-1.384c0.992,0.678,2.165,2.599,1.624,4.35c-0.541,1.751-2.887,4.802-3.067,6.582
						c-0.18,1.78-1.397,3.796-2.728,2.618C266.244,145.357,268.734,134.367,268.734,134.367z"/>
				</g>
				<path style="fill:#FFFFFF;stroke:#263238;stroke-linecap:round;stroke-linejoin:round;stroke-miterlimit:10;" d="
					M251.162,108.096c-25.403,0-18.531,30.715-13.856,41.578c1.641,3.814,9.924,6.932,14.037,6.932
					c3.826,0,11.294-2.807,12.847-6.391C268.917,139.299,275.375,108.096,251.162,108.096z"/>
				<g>
					<path style="fill:none;stroke:#263238;stroke-linecap:round;stroke-linejoin:round;stroke-miterlimit:10;" d="M246.856,126.985
						c0,0-6.616-2.045-8.66,2.045"/>
					<ellipse style="fill:#263238;" cx="242.843" cy="132.548" rx="0.885" ry="1.413"/>
					<path style="fill:none;stroke:#263238;stroke-linecap:round;stroke-linejoin:round;stroke-miterlimit:10;" d="M254.614,126.985
						c0,0,6.615-2.045,8.66,2.045"/>
					<path style="fill:#263238;" d="M259.512,132.548c0,0.781-0.396,1.413-0.885,1.413c-0.489,0-0.885-0.633-0.885-1.413
						c0-0.781,0.396-1.413,0.885-1.413C259.116,131.135,259.512,131.768,259.512,132.548z"/>
				</g>
				<path style="fill:#FFFFFF;stroke:#263238;stroke-linecap:round;stroke-linejoin:round;stroke-miterlimit:10;" d="
					M252.398,131.465c-0.87,1.478,1.864,5.92,0.87,6.66c-0.994,0.74-2.533,0.74-2.533,0.74"/>
				<path style="fill:#FFFFFF;stroke:#263238;stroke-linecap:round;stroke-linejoin:round;stroke-miterlimit:10;" d="
					M257.244,141.885c0,0-5.132,2-11.802,0c0,0-0.062,4.083,3.286,5.04C253.031,148.155,256.746,147.023,257.244,141.885z"/>
				<path style="fill:#263238;" d="M250.735,106.594c-26.748,0-17.488,31.021-17.488,31.021c0.006-4.551,2.368-9.098,1.774-11.142
					s1.131-7.695,1.131-7.695s6.41-4.507,14.583-4.507c8.173,0,14.177,4.507,14.177,4.507s1.725,5.651,1.131,7.695
					c-0.593,2.044,1.768,6.591,1.774,11.142C267.818,137.616,277.483,106.594,250.735,106.594z"/>
				<path style="fill:#263238;" d="M266.208,114.869c-1.254-2.179-4.813-3.67-7.582-3.711c0,0-0.401-0.238-0.932-0.516
					c-0.855-1.184-2.482-2.31-5.583-2.527c-6.969-0.488-6.399-2.871-6.671-3.531c-0.272-0.659,1.415-2.242,1.415-2.242h-2.198
					c-3.033,0-2.7,4.252-2.7,4.252c-2.173-1.55-6.531-2.274-6.531-2.274c-2.11,0-3.699,2.274-3.699,2.274
					c2.895,0.296,7.523,3.001,7.523,3.001c-5.802-1.319-10.418,0-10.418,0c-3.033,3.56-2.242,5.275-2.242,5.275
					c3.165-0.923,8.176-1.187,8.176-1.187s-12,2.87-16.747,15.347c0,0,0.527,5.958,0.923,4.932c0.311-0.807,1.081-5.453,5.045-9.15
					c-4.191,8.444-4.247,17.811-4.247,17.811l1.839,3.58c0,0,3.338-22.075,14.056-27.768c-2.078,2.736-2.621,5.838-2.621,5.838
					l4.258-0.963c1.013-4.458,4.736-6.218,7.999-6.929c1.785-0.211,3.444-0.39,4.423-0.493c0.385-0.011,0.672-0.015,0.827-0.028
					c-1.626,1.403-6.129,1.384-6.129,1.384l-1.551,1.714c4.736,1.16,9.333-0.854,12.335-2.718c-0.747,1.385-1.689,2.386-1.689,2.386
					l2.642,0.683c1.1-0.734,1.765-1.722,2.167-2.755c2.583,0.867,6.365,2.863,7.911,7.329
					C268.658,130.957,268.689,119.182,266.208,114.869z"/>
			</g>
			<path style="fill:#757575;stroke:#263238;stroke-linecap:round;stroke-linejoin:round;stroke-miterlimit:10;" d="
				M195.702,172.732c2.797-4.551,15.694-2.001,17.818-5.562c2.124-3.56,8.72-4.432,11.489-4.432c2.769,0,26.333,4.549,26.333,4.549
				s23.964-4.549,26.409-4.549c2.445,0,10.357,6.923,10.357,6.923s14.637,1.79,16.418,3.071c1.78,1.281-1.582,8.402-5.143,12.555
				c-3.56,4.154-18.363,9.451-18.363,9.451l-4.385,48.561h-48.117l-7.498-50.011C221.021,193.287,187.13,186.68,195.702,172.732z"/>
			<path style="fill:#263238;" d="M200.79,182.44c0,0-4.088-1.246-4.088-5.977c0-4.731,2.842,0.527,6.762,0.527
				s8.509-0.253,9.478,0.633s5.189,7.411,6.079,8.598c0.89,1.187,4.319,2.769,3.923,3.824
				C222.548,191.1,206.149,189.992,200.79,182.44z"/>
			<path style="fill:#FFFFFF;stroke:#263238;stroke-linecap:round;stroke-linejoin:round;stroke-miterlimit:10;" d="
				M217.299,186.298c0,0-4.04-8.308-6.866-8.308c-2.826,0-7.969,0-7.969,0s-6.72,11.473-8.008,13.055
				c-1.288,1.583-7.265,2.769-9.222,4.945s-14.059,31.385-14.059,31.385l14.059,2.767c0,0,18.813-19.317,18.813-22.878
				C204.046,203.705,217.299,186.298,217.299,186.298z"/>
			<path style="fill:#263238;" d="M278.438,191.303c1.637,1.933,11.473-1.5,13.582-3.346c2.11-1.846,11.549-10.508,11.549-13.468
				c0-2.96-3.835,2.787-7.56,2.787c-3.725,0-8.363-0.526-9.63,0.749C285.114,179.301,277.251,189.902,278.438,191.303z"/>
			<path style="fill:#FFFFFF;stroke:#263238;stroke-linecap:round;stroke-linejoin:round;stroke-miterlimit:10;" d="
				M282.174,186.298c0,0,4.04-8.308,6.866-8.308s7.969,0,7.969,0s6.72,11.473,8.008,13.055c1.289,1.583,7.265,2.769,9.222,4.945
				c1.957,2.176,14.059,31.385,14.059,31.385l-14.059,2.767c0,0-18.813-19.317-18.813-22.878
				C295.427,203.705,282.174,186.298,282.174,186.298z"/>
			<g>
				<g>
					<path style="fill:#3CA3F4;" d="M233.811,185.06c0.9-0.228,1.804-0.437,2.711-0.628c0.037,0.557,0.077,1.113,0.118,1.669
						c-0.898,0.192-1.793,0.402-2.684,0.632c0.155,1.712,0.332,3.42,0.529,5.124c-0.665,0.18-1.328,0.372-1.988,0.575
						c-0.512-3.886-0.903-7.798-1.173-11.73c1.881-0.513,3.778-0.95,5.685-1.309c0.022,0.508,0.046,1.016,0.072,1.524
						c-1.178,0.226-2.353,0.481-3.521,0.767C233.634,182.81,233.718,183.936,233.811,185.06z"/>
					<path style="fill:#3CA3F4;" d="M243.008,190.187c-0.126-0.318-0.213-0.509-0.261-1.543c-0.03-0.647-0.058-1.295-0.085-1.943
						c-0.043-1.116-0.48-1.478-1.439-1.344c-0.243,0.034-0.485,0.07-0.727,0.107c0.085,1.68,0.183,3.359,0.293,5.037
						c-0.677,0.108-1.352,0.228-2.025,0.36c-0.317-3.876-0.552-7.763-0.706-11.658c1.09-0.189,2.184-0.353,3.28-0.491
						c2.267-0.278,3.252,0.468,3.272,2.123c0.005,0.289,0.01,0.578,0.016,0.867c0.02,1.158-0.414,1.943-1.344,2.424
						c0,0.011,0.001,0.022,0.001,0.033c1.08,0.271,1.441,1.123,1.475,2.375c0.018,0.636,0.037,1.271,0.057,1.907
						c0.019,0.614,0.055,1.067,0.274,1.527C244.393,190.029,243.7,190.102,243.008,190.187z M240.277,180.38
						c0.04,1.14,0.086,2.28,0.138,3.419c0.277-0.041,0.554-0.081,0.831-0.119c0.792-0.108,1.264-0.456,1.238-1.362
						c-0.011-0.365-0.022-0.73-0.032-1.095c-0.02-0.779-0.364-1.084-1.133-0.985C240.972,180.282,240.624,180.33,240.277,180.38z"/>
					<path style="fill:#3CA3F4;" d="M246.026,178.273c0.73-0.045,1.46-0.078,2.19-0.101c-0.008,3.867,0.004,7.733,0.036,11.599
						c-0.683,0.025-1.366,0.061-2.048,0.109C246.112,186.012,246.052,182.143,246.026,178.273z"/>
					<path style="fill:#3CA3F4;" d="M249.813,178.14c1.156-0.01,2.312,0.007,3.467,0.052c2.2,0.091,3.24,1.123,3.164,2.843
						c-0.077,1.951-0.161,3.901-0.253,5.851c-0.106,1.993-1.167,2.988-3.203,2.898c-1.08-0.045-2.161-0.061-3.242-0.048
						C249.757,185.87,249.78,182.005,249.813,178.14z M251.979,179.663c-0.049,2.756-0.098,5.513-0.149,8.269
						c0.39,0.008,0.78,0.02,1.17,0.036c0.66,0.027,1.067-0.268,1.098-1.149c0.067-2.005,0.129-4.01,0.186-6.015
						c0.024-0.775-0.385-1.077-1.078-1.104C252.796,179.684,252.388,179.672,251.979,179.663z"/>
					<path style="fill:#3CA3F4;" d="M263.886,191.224c-0.677-0.152-1.355-0.293-2.036-0.422c-0.04-0.786-0.088-1.572-0.142-2.359
						c-0.842-0.152-1.687-0.286-2.534-0.404c-0.175,0.748-0.347,1.496-0.516,2.244c-0.623-0.084-1.247-0.159-1.872-0.224
						c0.842-3.798,1.768-7.582,2.777-11.35c1.064,0.134,2.125,0.292,3.183,0.473C263.327,183.203,263.706,187.222,263.886,191.224z
						 M259.552,186.419c0.671,0.095,1.342,0.2,2.011,0.316c-0.157-1.977-0.357-3.956-0.602-5.936
						c-0.013-0.002-0.027-0.004-0.04-0.006C260.45,182.665,259.993,184.541,259.552,186.419z"/>
					<path style="fill:#3CA3F4;" d="M266.296,187.561c-0.534-2.701-1.204-5.404-2.011-8.098c0.753,0.146,1.505,0.304,2.254,0.474
						c0.438,1.801,0.819,3.604,1.143,5.404c0.012,0.003,0.025,0.007,0.037,0.01c0.679-1.537,1.376-3.068,2.091-4.592
						c0.679,0.187,1.355,0.385,2.03,0.592c-1.211,2.234-2.374,4.488-3.488,6.76c-0.171,1.38-0.355,2.757-0.552,4.131
						c-0.662-0.196-1.327-0.38-1.993-0.553C265.98,190.315,266.144,188.939,266.296,187.561z"/>
				</g>
				<g>
					<path style="fill:#3CA3F4;" d="M245.741,170.797c0.404-0.024,0.807-0.045,1.211-0.062c-0.011,1.703-0.016,3.407-0.016,5.11
						c-0.398,0.019-0.796,0.041-1.195,0.066C245.734,174.206,245.734,172.502,245.741,170.797z"/>
					<path style="fill:#3CA3F4;" d="M247.482,170.713c1.248-0.046,2.498-0.064,3.747-0.052c-0.003,0.232-0.007,0.465-0.01,0.697
						c-0.422-0.004-0.844-0.005-1.265-0.002c-0.018,1.469-0.034,2.938-0.048,4.407c-0.399,0.003-0.797,0.009-1.196,0.018
						c0.009-1.469,0.02-2.939,0.034-4.409c-0.422,0.009-0.844,0.022-1.266,0.037C247.478,171.179,247.48,170.946,247.482,170.713z"
						/>
					<path style="fill:#3CA3F4;" d="M251.748,171.408c0.004-0.247,0.008-0.493,0.012-0.739c0.389,0.006,0.779,0.016,1.168,0.028
						c-0.004,0.221-0.008,0.441-0.012,0.662c-0.182,0.256-0.363,0.513-0.541,0.77c-0.165-0.004-0.33-0.007-0.495-0.01
						c0.109-0.234,0.219-0.468,0.33-0.702C252.056,171.413,251.902,171.41,251.748,171.408z"/>
					<path style="fill:#3CA3F4;" d="M255.386,170.754c1.181,0.074,1.773,0.576,1.748,1.363c-0.001,0.052-0.003,0.105-0.004,0.157
						c-0.38-0.032-0.76-0.062-1.141-0.089c0.002-0.069,0.004-0.138,0.005-0.206c0.009-0.353-0.206-0.502-0.592-0.526
						c-0.384-0.024-0.607,0.098-0.615,0.451c-0.009,0.364,0.23,0.646,1.003,1.153c0.996,0.662,1.293,1.122,1.274,1.717
						c-0.03,0.848-0.654,1.278-1.823,1.202c-1.171-0.073-1.769-0.581-1.753-1.428c0.002-0.107,0.005-0.214,0.007-0.321
						c0.379,0.015,0.757,0.033,1.136,0.053c-0.003,0.124-0.006,0.249-0.009,0.373c-0.009,0.376,0.227,0.525,0.608,0.549
						c0.38,0.024,0.623-0.094,0.634-0.471c0.01-0.381-0.217-0.682-0.996-1.193c-0.987-0.645-1.304-1.071-1.292-1.643
						C253.591,171.11,254.207,170.683,255.386,170.754z"/>
				</g>
			</g>
			<path style="fill:none;stroke:#263238;stroke-linecap:round;stroke-linejoin:round;stroke-miterlimit:10;" d="M221.021,193.287
				c0,0,2.769,0.752,4.022-2.063c1.253-2.816-3.159-11.244-2.602-12.568c0.558-1.324,2.806-5.619,1.481-10.687"/>
			<path style="fill:none;stroke:#263238;stroke-linecap:round;stroke-linejoin:round;stroke-miterlimit:10;" d="M281.021,194.738
				c-3.692-0.527-4.483-1.505-4.747-2.862c-0.264-1.357,1.451-13.357,0.791-13.885c-0.659-0.527-3.192-8.44-2.849-10.022"/>
			<path style="fill:none;stroke:#263238;stroke-linecap:round;stroke-linejoin:round;stroke-miterlimit:10;" d="M232.795,210.826
				c1.412-0.923,19.859-12,28.768-13.978"/>
			<path style="fill:none;stroke:#263238;stroke-linecap:round;stroke-linejoin:round;stroke-miterlimit:10;" d="M241.958,167.968
				c0,0,13.254,0.923,18.378,0"/>
			<path style="fill:#999999;stroke:#263238;stroke-linecap:round;stroke-linejoin:round;stroke-miterlimit:10;" d="
				M351.085,336.228c-5.54,1.98-10.68,24.53-11.25,37.81c-0.57,13.28-13.67,8.08-23.72,3.73c-10.04-4.35-33.07,11.48-56.8,14.69
				c-23.73,3.22-29.68-18.64-47.24-18.42c-17.57,0.23-56.42,2.15-61.56-5.76s0.79-18.99-0.79-30.86
				c-1.58-11.87-17.01-2.77-24.53-14.73c-6.92-11.03-1.08-32.92,5.15-31.9c0.52,0.08,1.06,0.33,1.58,0.76
				c6.72,5.57,27.69-5.95,26.52-15c-1.18-9.04,53.63-34.64,53.63-34.64s76.4,1.05,77.69,7.05c1.29,6,26.11,15.27,37.54,16.27
				c11.42,1,13.1,31.44,15.21,34.04c1.75,2.16,14.2,7.97,19.23,15.55c0.01,0.01,0.01,0.01,0.02,0.01c1.01,1.52,1.72,3.11,1.98,4.76
				C365.325,329.448,356.625,334.258,351.085,336.228z"/>
			<path style="fill:#263238;" d="M351.085,336.228c-5.54,1.98-10.68,24.53-11.25,37.81c-0.57,13.28-13.67,8.08-23.72,3.73
				c-10.04-4.35-33.07,11.48-56.8,14.69c-23.73,3.22-29.68-18.64-47.24-18.42c-17.57,0.23-56.42,2.15-61.56-5.76
				s0.79-18.99-0.79-30.86c-1.58-11.87-17.01-2.77-24.53-14.73c-6.92-11.03-1.08-32.92,5.15-31.9c2.62,3.58,12.97,18.32,17.75,23.96
				c5.15,6.06,31.76-13.65,37.18-9.37c5.42,4.27,57,26.56,68.46,24.36c11.46-2.21,33.36-12.51,44.29-9.34
				c10.93,3.16,8.34,27.7,29.69,15.83c21.35-11.86,25.35-28.19,34.03-21.41c0.01,0.01,0.01,0.01,0.02,0.01
				c1.01,1.52,1.72,3.11,1.98,4.76C365.325,329.448,356.625,334.258,351.085,336.228z"/>
			<g>
				<path style="fill:#FFFFFF;stroke:#263238;stroke-linecap:round;stroke-linejoin:round;stroke-miterlimit:10;" d="
					M248.114,385.244l1.882,36.124h8.939l7.863-36.09c0,0-5.919-2.829-9.127-2.829C256.085,382.448,248.114,385.244,248.114,385.244
					z"/>
				<g>
					<path style="fill:#3CA3F4;stroke:#263238;stroke-linecap:round;stroke-linejoin:round;stroke-miterlimit:10;" d="
						M252.39,440.209c-3.831-0.169-7.007-3.573-7.131-4.731c-0.144-1.341-0.251-3.374-1.981-8.881
						c-1.73-5.507,3.911-11.094,3.911-11.094s0.824-3.825,0.794-5.966c-0.03-2.142,6.09-5.048,9.608-3.824
						c3.519,1.224,4.133,3.458,4.82,4.243c0.687,0.785,0,6.795,0,6.795s3.135,3.495,3.135,7.932c0,4.436-1.227,5.062-3.39,8.149
						C259.994,435.918,258.28,440.469,252.39,440.209z"/>
					<path style="fill:#263238;" d="M245.812,435.305c0.612-8.176-4.59-10.983,1.53-13.96c6.119-2.977,14.455-2.946,17.018,2.031
						c2.563,4.977-5.715,14.182-5.715,14.182s-2.851,2.116-6.618,1.81C248.259,439.061,245.812,435.305,245.812,435.305z"/>
					<path style="fill:none;stroke:#263238;stroke-linecap:round;stroke-linejoin:round;stroke-miterlimit:10;" d="M247.188,415.502
						c0,0,4.232-2.83,8.274-1.759c4.041,1.071,5.632,1.142,6.949,3.007"/>
					<path style="fill:none;stroke:#263238;stroke-linecap:round;stroke-linejoin:round;stroke-miterlimit:10;" d="M245.582,419.938
						c0,0,4.538-3.136,9.88-2.601c5.342,0.535,7.407,1.989,7.407,1.989"/>
					<path style="fill:none;stroke:#263238;stroke-linecap:round;stroke-linejoin:round;stroke-miterlimit:10;" d="M251.013,411.677
						c0,0,0.765-4.088-0.608-4.798"/>
					<path style="fill:none;stroke:#263238;stroke-linecap:round;stroke-linejoin:round;stroke-miterlimit:10;" d="M259.198,412.595
						c0,0,0.102-5.69,1.755-4.722"/>
					<path style="fill:none;stroke:#263238;stroke-linecap:round;stroke-linejoin:round;stroke-miterlimit:10;" d="M249.942,409.279
						c0,0,2.32-1.516,5.52-1.516s5.189,2.416,5.189,2.416"/>
					<path style="fill:none;stroke:#263238;stroke-linecap:round;stroke-linejoin:round;stroke-miterlimit:10;" d="M249.483,410.912
						c0,0,2.907-0.734,5.813-0.734s5.354,1.805,5.354,1.805"/>
					<path style="opacity:0.2;fill:none;stroke:#FFFFFF;stroke-linecap:round;stroke-linejoin:round;stroke-miterlimit:10;" d="
						M246.423,425.359c0,0,11.321-0.143,15.604,0.699"/>
					<path style="opacity:0.2;fill:none;stroke:#FFFFFF;stroke-linecap:round;stroke-linejoin:round;stroke-miterlimit:10;" d="
						M246.882,429.362c0,0,9.783-0.168,14.071,0.75"/>
					<path style="opacity:0.2;fill:none;stroke:#FFFFFF;stroke-linecap:round;stroke-linejoin:round;stroke-miterlimit:10;" d="
						M247.647,432.483c0,0,10.062,0.994,10.997,0.918"/>
					<path style="opacity:0.2;fill:none;stroke:#FFFFFF;stroke-linecap:round;stroke-linejoin:round;stroke-miterlimit:10;" d="
						M248.489,435.925c0,0,5.227,0.688,6.973,0.688"/>
				</g>
			</g>
			<path style="fill:#263238;" d="M225.96,368.591l9.523,26.959c0,0,2.094,5.847,1.506,9.857c-0.588,4.01-0.143,12.159,4.564,11.533
				c4.707-0.626,2.379-9.311,3.844-12.818c1.465-3.507-0.29-8.442-1.506-9.857c-1.217-1.415-0.349-13.475-1.839-19.59
				C240.562,368.56,225.96,368.591,225.96,368.591z"/>
		</g>
		<g>
			<g>
				<defs>
					<polygon id="XMLID_711_" points="308.195,368 320.085,265.67 179.915,267.589 180.747,366.399 					"/>
				</defs>
				<use xlink:href="#XMLID_711_"  style="overflow:visible;fill:#3CA3F4;"/>
				<clipPath id="XMLID_00000039822263480383550750000016553105683173235385_">
					<use xlink:href="#XMLID_711_"  style="overflow:visible;"/>
				</clipPath>
				
					<polygon style="opacity:0.5;clip-path:url(#XMLID_00000039822263480383550750000016553105683173235385_);fill-opacity:0.7;" points="
					308.195,368 320.085,265.67 179.915,267.589 180.747,366.399 				"/>
				
					<polygon style="opacity:0.4;clip-path:url(#XMLID_00000039822263480383550750000016553105683173235385_);fill-opacity:0.7;" points="
					180.747,332.396 197.735,335.824 197.735,356.779 296.803,356.779 300.149,338.087 310.899,338.087 320.085,265.67 
					179.915,267.589 				"/>
				
					<use xlink:href="#XMLID_711_"  style="overflow:visible;fill:none;stroke:#263238;stroke-linecap:round;stroke-linejoin:round;stroke-miterlimit:10;"/>
			</g>
			<g>
				<g>
					<path style="fill:none;stroke:#263238;stroke-width:2;stroke-linecap:round;stroke-linejoin:round;stroke-miterlimit:10;" d="
						M193.828,215.083c0,0-0.992-10.779,10.975-13.535c11.967-2.756,12.367,7.551,12.367,7.551"/>
					<g>
						<defs>
							<polygon id="XMLID_710_" points="166.749,314.509 172.405,292.809 169.988,215.579 234.767,202.342 263.958,271.21 
								278.167,289.14 268.278,306.287 191.055,322.688 							"/>
						</defs>
						<use xlink:href="#XMLID_710_"  style="overflow:visible;fill:#3CA3F4;"/>
						<clipPath id="XMLID_00000167386567222965965620000016273752744816436146_">
							<use xlink:href="#XMLID_710_"  style="overflow:visible;"/>
						</clipPath>
						
							<polygon style="opacity:0.3;clip-path:url(#XMLID_00000167386567222965965620000016273752744816436146_);fill-opacity:0.7;" points="
							278.171,289.138 268.28,306.288 191.05,322.688 166.75,314.508 166.86,314.098 171.44,296.508 172.4,292.808 172.32,290.188 
							169.99,215.578 234.77,202.338 241.36,217.888 263.96,271.208 						"/>
						<g style="clip-path:url(#XMLID_00000167386567222965965620000016273752744816436146_);">
							<polygon style="fill:#263238;" points="209.236,223.212 212.609,221.723 215.157,224.387 218.794,223.784 220.6,226.997 
								224.272,227.318 225.222,230.88 228.699,232.103 228.734,235.789 231.797,237.839 230.914,241.418 233.371,244.166 
								231.626,247.412 233.323,250.685 230.825,253.395 231.655,256.987 228.561,258.991 228.472,262.676 224.977,263.848 
								223.974,267.395 220.297,267.661 218.443,270.847 214.816,270.19 212.229,272.815 208.879,271.277 205.719,273.177 
								202.857,270.853 199.325,271.907 197.13,268.945 193.447,269.088 192.058,265.673 188.455,264.895 187.959,261.242 
								184.662,259.592 185.09,255.931 182.308,253.513 183.633,250.074 181.539,247.04 183.677,244.037 182.404,240.578 
								185.222,238.202 184.849,234.535 188.169,232.934 188.72,229.289 192.334,228.565 193.774,225.171 197.455,225.368 
								199.693,222.439 203.209,223.546 206.106,221.266 							"/>
							<g>
								<path style="fill:#FFFFFF;" d="M196.909,246.095c-0.286-1.362-0.838-1.631-1.596-1.472c-0.757,0.159-1.147,0.67-0.92,1.751
									l0.204,0.973l-2.249,0.472l-0.172-0.821c-0.509-2.422,0.412-4.06,2.748-4.549c2.335-0.49,3.836,0.64,4.344,3.061l0.082,0.39
									c0.34,1.621,0.03,2.725-1.016,3.441l0.009,0.043c1.298,0.27,2.005,1.273,2.327,2.809l0.249,1.189
									c0.508,2.422-0.413,4.06-2.748,4.55c-2.336,0.489-3.837-0.641-4.345-3.063l-0.264-1.254l2.25-0.472l0.294,1.405
									c0.228,1.081,0.789,1.392,1.546,1.233c0.758-0.159,1.155-0.626,0.874-1.967l-0.249-1.189
									c-0.295-1.405-0.879-1.825-1.96-1.598l-0.801,0.168l-0.453-2.162l0.93-0.195c0.887-0.187,1.345-0.689,1.091-1.9
									L196.909,246.095z"/>
								<path style="fill:#FFFFFF;" d="M200.675,245.215c-0.508-2.422,0.478-4.073,2.814-4.563c2.335-0.489,3.9,0.627,4.408,3.048
									l1.651,7.87c0.508,2.422-0.477,4.074-2.813,4.564c-2.336,0.49-3.902-0.626-4.41-3.048L200.675,245.215z M204.736,252.738
									c0.228,1.081,0.789,1.392,1.546,1.232c0.757-0.158,1.146-0.668,0.92-1.75l-1.715-8.174
									c-0.227-1.081-0.789-1.393-1.545-1.233c-0.757,0.159-1.146,0.67-0.92,1.751L204.736,252.738z"/>
								<path style="fill:#FFFFFF;" d="M209.026,242.086c-0.326-1.557,0.293-2.59,1.785-2.903c1.492-0.313,2.474,0.384,2.801,1.941
									l1.043,4.973c0.326,1.557-0.293,2.59-1.785,2.902c-1.491,0.314-2.474-0.384-2.8-1.94L209.026,242.086z M211.606,246.85
									c0.141,0.671,0.48,0.894,0.978,0.789c0.476-0.1,0.719-0.444,0.578-1.115l-1.088-5.189c-0.141-0.67-0.502-0.888-0.977-0.788
									c-0.498,0.105-0.72,0.444-0.579,1.115L211.606,246.85z M216.802,238.04l1.405-0.295l-2.793,16.388l-1.406,0.295
									L216.802,238.04z M217.691,246.048c-0.326-1.557,0.292-2.59,1.785-2.903c1.491-0.313,2.474,0.385,2.8,1.941l1.043,4.975
									c0.326,1.557-0.292,2.589-1.784,2.902c-1.492,0.313-2.474-0.385-2.8-1.941L217.691,246.048z M220.271,250.812
									c0.141,0.671,0.48,0.894,0.979,0.789c0.476-0.1,0.719-0.444,0.578-1.115l-1.088-5.189c-0.141-0.67-0.503-0.888-0.978-0.788
									c-0.498,0.105-0.72,0.444-0.579,1.114L220.271,250.812z"/>
							</g>
						</g>
						
							<polygon style="opacity:0.2;clip-path:url(#XMLID_00000167386567222965965620000016273752744816436146_);fill-opacity:0.7;" points="
							278.171,289.138 268.28,306.288 191.05,322.688 166.75,314.508 166.86,314.098 188.11,309.648 171.44,296.508 172.4,292.808 
							172.32,290.188 213.19,270.958 241.36,217.888 263.96,271.208 						"/>
						
							<use xlink:href="#XMLID_710_"  style="overflow:visible;fill:none;stroke:#263238;stroke-linecap:round;stroke-linejoin:round;stroke-miterlimit:10;"/>
					</g>
					
						<line style="fill:#3CA3F4;stroke:#263238;stroke-linecap:round;stroke-linejoin:round;stroke-miterlimit:10;" x1="166.749" y1="314.509" x2="273.797" y2="290.178"/>
					<path style="fill:none;stroke:#263238;stroke-width:2;stroke-linecap:round;stroke-linejoin:round;stroke-miterlimit:10;" d="
						M190.196,213.848c0,0-6.946-15.112,4.545-19.814c11.491-4.701,18.118,4.04,17.869,14.796"/>
					<polyline style="fill:none;stroke:#263238;stroke-linecap:round;stroke-linejoin:round;stroke-miterlimit:10;" points="
						176.285,314.309 197.276,314.898 191.508,320.16 					"/>
					<polyline style="fill:none;stroke:#263238;stroke-linecap:round;stroke-linejoin:round;stroke-miterlimit:10;" points="
						201.85,314.073 258.82,302.455 269.33,293.706 					"/>
					
						<line style="fill:#3CA3F4;stroke:#263238;stroke-linecap:round;stroke-linejoin:round;stroke-miterlimit:10;" x1="258.82" y1="302.455" x2="265.603" y2="304.474"/>
					
						<line style="fill:#3CA3F4;stroke:#263238;stroke-linecap:round;stroke-linejoin:round;stroke-miterlimit:10;" x1="172.405" y1="292.809" x2="255.867" y2="273.518"/>
				</g>
				<g>
					<path style="fill:none;stroke:#263238;stroke-width:2;stroke-linecap:round;stroke-linejoin:round;stroke-miterlimit:10;" d="
						M291.86,215.799c0,0,4.939-9.632,16.52-5.544c11.58,4.087,6.393,13.003,6.393,13.003"/>
					<g>
						<defs>
							<polygon id="XMLID_709_" points="215.71,285.224 232.115,269.935 271.468,203.44 333.25,226.986 320.983,300.772 
								323.369,323.525 305.83,332.7 231.845,305.157 							"/>
						</defs>
						<use xlink:href="#XMLID_709_"  style="overflow:visible;fill:#3CA3F4;"/>
						<clipPath id="XMLID_00000012430664714633495360000005061092895906931081_">
							<use xlink:href="#XMLID_709_"  style="overflow:visible;"/>
						</clipPath>
						
							<polygon style="opacity:0.2;clip-path:url(#XMLID_00000012430664714633495360000005061092895906931081_);fill-opacity:0.7;" points="
							324.35,280.518 320.98,300.768 323.37,323.528 305.83,332.698 231.84,305.158 215.84,285.388 215.71,285.228 215.81,285.138 
							216.55,284.448 232.11,269.938 239.78,256.978 271.47,203.438 331.68,226.388 333.25,226.988 						"/>
						<g style="clip-path:url(#XMLID_00000012430664714633495360000005061092895906931081_);">
							<polygon style="fill:#263238;" points="302.846,232.034 306.481,232.643 307.147,236.269 310.517,237.763 310.26,241.441 
								313.152,243.726 311.989,247.224 314.222,250.157 312.226,253.256 313.659,256.652 310.955,259.157 311.499,262.802 
								308.257,264.556 307.877,268.223 304.3,269.115 303.02,272.572 299.334,272.547 297.235,275.577 293.671,274.636 
								290.884,277.048 287.666,275.25 284.366,276.894 281.697,274.353 278.092,275.124 276.138,271.999 272.455,271.85 
								271.34,268.336 267.81,267.276 267.603,263.595 264.448,261.69 265.163,258.074 262.58,255.445 264.172,252.12 
								262.325,248.93 264.694,246.106 263.697,242.557 266.694,240.411 266.611,236.726 270.048,235.392 270.884,231.802 
								274.545,231.365 276.248,228.096 279.902,228.583 282.364,225.84 285.782,227.22 288.849,225.176 291.817,227.363 
								295.296,226.146 297.626,229.002 301.299,228.688 							"/>
							<g>
								<path style="fill:#FFFFFF;" d="M275.205,249.676l-0.525,1.336c-0.404,1.028-0.098,1.576,0.621,1.859
									c0.721,0.283,1.318,0.092,1.723-0.938l1.246-3.166c0.404-1.027,0.105-1.596-0.613-1.88c-0.721-0.283-1.326-0.07-1.73,0.958
									l-0.17,0.432l-2.139-0.842l3.697-8.186l5.962,2.347l-0.81,2.057l-3.947-1.554l-1.536,3.36l0.041,0.016
									c0.679-0.516,1.462-0.635,2.366-0.278c1.664,0.655,2.047,2.158,1.213,4.276l-1.262,3.207
									c-0.906,2.303-2.576,3.166-4.797,2.291c-2.219-0.873-2.853-2.643-1.947-4.945l0.47-1.192L275.205,249.676z"/>
								<path style="fill:#FFFFFF;" d="M283.603,245.716c0.906-2.303,2.637-3.142,4.857-2.268c2.221,0.874,2.915,2.667,2.009,4.97
									l-2.945,7.483c-0.906,2.303-2.638,3.141-4.856,2.268c-2.221-0.875-2.916-2.668-2.01-4.971L283.603,245.716z
									 M282.863,254.233c-0.404,1.028-0.106,1.597,0.613,1.88c0.719,0.283,1.326,0.071,1.73-0.957l3.059-7.771
									c0.404-1.027,0.105-1.598-0.613-1.88c-0.721-0.284-1.326-0.07-1.73,0.957L282.863,254.233z"/>
								<path style="fill:#FFFFFF;" d="M301.02,248.58l1.337,0.526l-11.34,12.158l-1.336-0.525L301.02,248.58z M292.301,247.689
									c0.582-1.48,1.668-2.003,3.086-1.444c1.418,0.558,1.855,1.681,1.273,3.16l-1.861,4.73c-0.582,1.48-1.668,2.003-3.086,1.445
									c-1.418-0.559-1.855-1.681-1.273-3.161L292.301,247.689z M291.838,253.087c-0.25,0.639-0.088,1.011,0.385,1.197
									c0.451,0.178,0.846,0.024,1.096-0.614l1.943-4.935c0.25-0.637,0.066-1.018-0.385-1.195
									c-0.474-0.187-0.846-0.024-1.096,0.613L291.838,253.087z M297.363,255.761c0.582-1.48,1.667-2.004,3.086-1.445
									c1.418,0.559,1.855,1.68,1.273,3.16l-1.861,4.729c-0.583,1.48-1.668,2.004-3.086,1.445c-1.418-0.559-1.855-1.68-1.273-3.16
									L297.363,255.761z M296.9,261.158c-0.25,0.638-0.088,1.011,0.385,1.196c0.452,0.178,0.846,0.024,1.096-0.613l1.943-4.935
									c0.25-0.637,0.066-1.018-0.385-1.195c-0.473-0.187-0.846-0.025-1.096,0.612L296.9,261.158z"/>
							</g>
						</g>
						
							<polygon style="opacity:0.2;clip-path:url(#XMLID_00000012430664714633495360000005061092895906931081_);fill-opacity:0.7;" points="
							320.98,300.768 323.37,323.528 305.83,332.698 231.84,305.158 215.71,285.228 232.11,269.938 239.78,256.978 331.68,226.388 
							333.25,226.988 						"/>
						<path style="opacity:0.2;clip-path:url(#XMLID_00000012430664714633495360000005061092895906931081_);fill-opacity:0.7;" d="
							M320.98,300.768l2.39,22.76l-17.54,9.17l-73.99-27.54l-16-19.77c-0.01-0.09-0.02-0.17-0.03-0.25c-0.06-0.63-0.1-0.98-0.1-0.98
							l0.84,0.29l102.57,35.71l-73.54-46.64l78.77,7L320.98,300.768z"/>
						
							<use xlink:href="#XMLID_709_"  style="overflow:visible;fill:none;stroke:#263238;stroke-linecap:round;stroke-linejoin:round;stroke-miterlimit:10;"/>
					</g>
					
						<line style="fill:#3CA3F4;stroke:#263238;stroke-linecap:round;stroke-linejoin:round;stroke-miterlimit:10;" x1="215.71" y1="285.224" x2="319.124" y2="322.058"/>
					<path style="fill:none;stroke:#263238;stroke-width:2;stroke-linecap:round;stroke-linejoin:round;stroke-miterlimit:10;" d="
						M289.456,212.809c0,0,2.236-16.481,14.457-14.291c12.22,2.19,13.13,13.122,7.155,22.069"/>
					<polyline style="fill:none;stroke:#263238;stroke-linecap:round;stroke-linejoin:round;stroke-miterlimit:10;" points="
						223.866,290.166 241.272,301.914 233.582,303.265 					"/>
					<polyline style="fill:none;stroke:#263238;stroke-linecap:round;stroke-linejoin:round;stroke-miterlimit:10;" points="
						245.576,303.67 299.899,324.396 313.461,322.642 					"/>
					
						<line style="fill:none;stroke:#263238;stroke-linecap:round;stroke-linejoin:round;stroke-miterlimit:10;" x1="299.899" y1="324.396" x2="304.543" y2="329.736"/>
					
						<line style="fill:#3CA3F4;stroke:#263238;stroke-linecap:round;stroke-linejoin:round;stroke-miterlimit:10;" x1="232.115" y1="269.935" x2="312.916" y2="298.383"/>
				</g>
				<g>
					<path style="fill:none;stroke:#263238;stroke-width:2;stroke-linecap:round;stroke-linejoin:round;stroke-miterlimit:10;" d="
						M222.458,270.957c0,0,0.892-10.788,13.156-11.427c12.264-0.639,10.87,9.581,10.87,9.581"/>
					<g>
						<defs>
							<polygon id="XMLID_706_" points="292.68,358.518 279.96,373.688 201.07,376.448 178.55,364.178 178.75,363.748 
								187.88,343.788 198.89,267.308 264.99,265.508 271.56,293.998 281.79,338.398 292.64,358.438 							"/>
						</defs>
						<use xlink:href="#XMLID_706_"  style="overflow:visible;fill:#3CA3F4;"/>
						<clipPath id="XMLID_00000132810852335544197170000011492331373008184485_">
							<use xlink:href="#XMLID_706_"  style="overflow:visible;"/>
						</clipPath>
						
							<polygon style="opacity:0.2;clip-path:url(#XMLID_00000132810852335544197170000011492331373008184485_);fill-opacity:0.7;" points="
							292.68,358.518 279.96,373.688 201.07,376.448 178.55,364.178 178.75,363.748 292.64,358.438 						"/>
						<g style="clip-path:url(#XMLID_00000132810852335544197170000011492331373008184485_);">
							<polygon style="fill:#263238;" points="239.417,283.457 243.003,282.602 245.028,285.682 248.714,285.747 249.909,289.234 
								253.463,290.213 253.753,293.888 256.952,295.72 256.32,299.351 258.962,301.921 257.447,305.281 259.367,308.428 
								257.064,311.305 258.141,314.831 255.194,317.045 255.362,320.727 251.957,322.139 251.203,325.748 247.553,326.268 
								245.926,329.576 242.262,329.173 239.863,331.972 236.414,330.67 233.395,332.784 230.378,330.666 226.927,331.963 
								224.532,329.161 220.867,329.559 219.244,326.249 215.596,325.723 214.847,322.114 211.444,320.697 211.616,317.015 
								208.672,314.797 209.755,311.273 207.455,308.392 209.38,305.248 207.869,301.886 210.515,299.32 209.888,295.687 
								213.089,293.86 213.385,290.185 216.94,289.211 218.14,285.726 221.826,285.667 223.855,282.589 227.44,283.448 
								230.17,280.972 233.429,282.696 236.69,280.977 							"/>
							<g>
								<path style="fill:#FFFFFF;" d="M225.513,299.873l0.053,2.121l-3.244,13.432l-2.43,0.061l3.225-13.342l-4.837,0.121
									l-0.056-2.21L225.513,299.873z"/>
								<path style="fill:#FFFFFF;" d="M227.02,303.55c-0.062-2.474,1.206-3.919,3.592-3.978c2.385-0.06,3.724,1.32,3.786,3.794
									l0.2,8.04c0.063,2.474-1.206,3.92-3.591,3.98c-2.386,0.06-3.725-1.321-3.786-3.795L227.02,303.55z M229.654,311.684
									c0.027,1.104,0.523,1.512,1.297,1.492c0.773-0.02,1.249-0.45,1.221-1.555l-0.208-8.35c-0.028-1.103-0.524-1.512-1.297-1.492
									c-0.773,0.02-1.249,0.451-1.222,1.555L229.654,311.684z"/>
								<path style="fill:#FFFFFF;" d="M235.8,301.983c-0.04-1.591,0.755-2.494,2.279-2.532c1.523-0.038,2.363,0.824,2.403,2.415
									l0.127,5.08c0.04,1.591-0.756,2.494-2.28,2.532c-1.523,0.038-2.363-0.824-2.402-2.415L235.8,301.983z M237.476,307.134
									c0.018,0.686,0.311,0.966,0.819,0.953c0.485-0.013,0.788-0.308,0.771-0.993l-0.132-5.301
									c-0.018-0.685-0.334-0.964-0.82-0.951c-0.508,0.013-0.787,0.307-0.771,0.991L237.476,307.134z M244.178,299.408l1.436-0.036
									l-5.71,15.615l-1.436,0.036L244.178,299.408z M243.605,307.445c-0.04-1.591,0.755-2.493,2.279-2.531
									s2.363,0.824,2.403,2.415l0.127,5.08c0.04,1.591-0.756,2.495-2.279,2.533c-1.524,0.038-2.363-0.826-2.403-2.417
									L243.605,307.445z M245.281,312.597c0.018,0.686,0.311,0.966,0.819,0.953c0.486-0.013,0.788-0.308,0.771-0.993l-0.133-5.301
									c-0.018-0.685-0.334-0.964-0.819-0.951c-0.508,0.013-0.788,0.307-0.77,0.991L245.281,312.597z"/>
							</g>
						</g>
						
							<polygon style="opacity:0.2;clip-path:url(#XMLID_00000132810852335544197170000011492331373008184485_);fill-opacity:0.7;" points="
							281.79,338.398 192.19,343.788 271.56,293.998 						"/>
						
							<use xlink:href="#XMLID_706_"  style="overflow:visible;fill:none;stroke:#263238;stroke-linecap:round;stroke-linejoin:round;stroke-miterlimit:10;"/>
					</g>
					
						<line style="fill:#3CA3F4;stroke:#263238;stroke-linecap:round;stroke-linejoin:round;stroke-miterlimit:10;" x1="178.549" y1="364.182" x2="288.194" y2="358.782"/>
					<path style="fill:none;stroke:#263238;stroke-width:2;stroke-linecap:round;stroke-linejoin:round;stroke-miterlimit:10;" d="
						M219.095,269.111c0,0-4.22-16.088,7.912-18.725s17.143,7.121,15.033,17.67"/>
					<polyline style="fill:none;stroke:#263238;stroke-linecap:round;stroke-linejoin:round;stroke-miterlimit:10;" points="
						187.975,365.639 208.546,369.858 201.953,374.041 					"/>
					<polyline style="fill:none;stroke:#263238;stroke-linecap:round;stroke-linejoin:round;stroke-miterlimit:10;" points="
						213.194,369.84 271.315,368.276 283.183,361.482 					"/>
					
						<line style="fill:none;stroke:#263238;stroke-linecap:round;stroke-linejoin:round;stroke-miterlimit:10;" x1="271.315" y1="368.276" x2="277.645" y2="371.441"/>
					
						<line style="fill:#3CA3F4;stroke:#263238;stroke-linecap:round;stroke-linejoin:round;stroke-miterlimit:10;" x1="187.882" y1="343.791" x2="273.425" y2="339.265"/>
				</g>
			</g>
			<g>
				<g>
					
						<polygon style="fill:none;stroke:#263238;stroke-width:3;stroke-linecap:round;stroke-linejoin:round;stroke-miterlimit:10;" points="
						322.98,368.195 177.02,368.195 160.654,230.143 339.346,230.143 					"/>
					
						<polyline style="fill:none;stroke:#263238;stroke-width:3;stroke-linecap:round;stroke-linejoin:round;stroke-miterlimit:10;" points="
						198.578,368.195 187.047,230.143 312.953,230.143 301.422,368.195 					"/>
					
						<polyline style="fill:none;stroke:#263238;stroke-width:3;stroke-linecap:round;stroke-linejoin:round;stroke-miterlimit:10;" points="
						222.73,368.195 216.614,230.143 283.386,230.143 277.27,368.195 					"/>
					
						<line style="fill:none;stroke:#263238;stroke-width:3;stroke-linecap:round;stroke-linejoin:round;stroke-miterlimit:10;" x1="250" y1="230.143" x2="250" y2="368.195"/>
					<path style="fill:#3CA3F4;stroke:#263238;stroke-linecap:round;stroke-linejoin:round;stroke-miterlimit:10;" d="
						M341.411,233.045H158.589c-1.83,0-3.314-1.484-3.314-3.314v-3.229c0-1.83,1.484-3.313,3.314-3.313h182.822
						c1.83,0,3.314,1.484,3.314,3.313v3.229C344.724,231.561,343.241,233.045,341.411,233.045z"/>
					
						<line style="fill:none;stroke:#263238;stroke-width:3;stroke-linecap:round;stroke-linejoin:round;stroke-miterlimit:10;" x1="164.024" y1="257.71" x2="335.976" y2="257.71"/>
					
						<line style="fill:none;stroke:#263238;stroke-width:3;stroke-linecap:round;stroke-linejoin:round;stroke-miterlimit:10;" x1="167.865" y1="286.227" x2="332.134" y2="286.227"/>
					
						<line style="fill:none;stroke:#263238;stroke-width:3;stroke-linecap:round;stroke-linejoin:round;stroke-miterlimit:10;" x1="171.388" y1="314.744" x2="328.612" y2="314.744"/>
					
						<line style="fill:none;stroke:#263238;stroke-width:3;stroke-linecap:round;stroke-linejoin:round;stroke-miterlimit:10;" x1="174.539" y1="343.261" x2="325.461" y2="343.261"/>
				</g>
				<g>
					<g>
						<g>
							<path style="fill:#263238;" d="M175.419,409.5h-7.834c-1.81,0-3.276,1.467-3.276,3.276v15.413
								c0,2.771,2.201,4.453,2.79,2.132l3.986-15.702c0.296-1.165,1.345-1.982,2.548-1.982h2.575v15.551
								c0,2.771,2.201,4.453,2.79,2.132l3.688-14.529c0.461-1.817-0.466-3.7-2.188-4.442l-3.567-1.538
								C176.452,409.606,175.938,409.5,175.419,409.5z"/>
							<g>
								<path style="fill:#757575;stroke:#263238;stroke-linecap:round;stroke-linejoin:round;stroke-miterlimit:10;" d="
									M165.795,417.933c-2.626,0-4.755,5.388-4.755,12.034S163.169,442,165.795,442h10.411v-24.067H165.795z"/>
								
									<ellipse style="fill:#999999;stroke:#263238;stroke-linecap:round;stroke-linejoin:round;stroke-miterlimit:10;" cx="176.206" cy="429.966" rx="4.755" ry="12.034"/>
								<path style="fill:#263238;" d="M179.59,429.966c0,3.323-1.064,6.017-2.378,6.017c-1.313,0-2.377-2.694-2.377-6.017
									c0-3.323,1.064-6.017,2.377-6.017C178.525,423.95,179.59,426.643,179.59,429.966z"/>
							</g>
							<path style="fill:#263238;" d="M180.496,411.349l-3.567-1.538c-0.477-0.206-0.991-0.312-1.51-0.312h-2.499v3.258
								c0.229-0.065,0.464-0.12,0.711-0.12h2.575v15.551c0,2.771,2.201,4.453,2.79,2.132l3.688-14.529
								C183.145,413.975,182.218,412.092,180.496,411.349z"/>
						</g>
						<path style="fill:#263238;" d="M172.135,401.851v8.825l6.178,0.883l1.276-8.825
							C179.59,402.734,178.019,401.851,172.135,401.851z"/>
					</g>
					<g>
						<g>
							<path style="fill:#263238;" d="M324.581,409.5h7.834c1.81,0,3.276,1.467,3.276,3.276v15.413c0,2.771-2.201,4.453-2.79,2.132
								l-3.986-15.702c-0.296-1.165-1.345-1.982-2.548-1.982h-2.575v15.551c0,2.771-2.201,4.453-2.79,2.132l-3.688-14.529
								c-0.461-1.817,0.466-3.7,2.188-4.442l3.567-1.538C323.548,409.606,324.062,409.5,324.581,409.5z"/>
							<g>
								<path style="fill:#757575;stroke:#263238;stroke-linecap:round;stroke-linejoin:round;stroke-miterlimit:10;" d="
									M334.205,417.933c2.626,0,4.755,5.388,4.755,12.034S336.831,442,334.205,442h-10.411v-24.067H334.205z"/>
								
									<ellipse style="fill:#999999;stroke:#263238;stroke-linecap:round;stroke-linejoin:round;stroke-miterlimit:10;" cx="323.794" cy="429.966" rx="4.755" ry="12.034"/>
								<path style="fill:#263238;" d="M320.41,429.966c0,3.323,1.065,6.017,2.378,6.017c1.313,0,2.377-2.694,2.377-6.017
									c0-3.323-1.064-6.017-2.377-6.017C321.475,423.95,320.41,426.643,320.41,429.966z"/>
							</g>
							<path style="fill:#263238;" d="M319.504,411.349l3.567-1.538c0.477-0.206,0.991-0.312,1.51-0.312h2.499v3.258
								c-0.229-0.065-0.464-0.12-0.711-0.12h-2.575v15.551c0,2.771-2.201,4.453-2.79,2.132l-3.688-14.529
								C316.855,413.975,317.782,412.092,319.504,411.349z"/>
						</g>
						<path style="fill:#263238;" d="M327.865,401.851v8.825l-6.178,0.883l-1.277-8.825
							C320.41,402.734,321.981,401.851,327.865,401.851z"/>
					</g>
				</g>
				<g>
					<g>
						<g>
							<path style="fill:#263238;" d="M199.488,419.989h-5.306c-1.225,0-2.219,0.993-2.219,2.219v10.439
								c0,1.877,1.49,3.016,1.889,1.444l2.699-10.634c0.2-0.789,0.911-1.342,1.725-1.342h1.744v10.532
								c0,1.877,1.49,3.016,1.889,1.444l2.498-9.84c0.312-1.231-0.316-2.506-1.482-3.009l-2.416-1.042
								C200.188,420.061,199.84,419.989,199.488,419.989z"/>
							<g>
								<path style="fill:#263238;" d="M192.971,425.7c-1.779,0-3.22,3.649-3.22,8.15c0,4.501,1.442,8.15,3.22,8.15h7.051v-16.3
									H192.971z"/>
								<ellipse style="fill:#263238;" cx="200.022" cy="433.85" rx="3.22" ry="8.15"/>
								<path style="fill:#263238;" d="M202.313,433.85c0,2.25-0.721,4.075-1.61,4.075c-0.889,0-1.61-1.824-1.61-4.075
									c0-2.251,0.721-4.075,1.61-4.075C201.592,429.775,202.313,431.599,202.313,433.85z"/>
							</g>
							<path style="fill:#263238;" d="M202.927,421.241l-2.416-1.042c-0.323-0.139-0.671-0.211-1.023-0.211h-1.692v2.206
								c0.155-0.044,0.314-0.081,0.482-0.081h1.744v10.532c0,1.877,1.49,3.016,1.889,1.444l2.498-9.84
								C204.721,423.019,204.093,421.744,202.927,421.241z"/>
						</g>
						<path style="fill:#263238;" d="M197.265,414.809v5.977l4.184,0.598l0.865-5.977
							C202.313,415.406,201.25,414.809,197.265,414.809z"/>
					</g>
					<g>
						<g>
							<path style="fill:#263238;" d="M300.512,419.989h5.306c1.225,0,2.219,0.993,2.219,2.219v10.439
								c0,1.877-1.49,3.016-1.889,1.444l-2.699-10.634c-0.2-0.789-0.911-1.342-1.725-1.342h-1.744v10.532
								c0,1.877-1.491,3.016-1.889,1.444l-2.498-9.84c-0.312-1.231,0.316-2.506,1.482-3.009l2.416-1.042
								C299.812,420.061,300.16,419.989,300.512,419.989z"/>
							<g>
								<path style="fill:#263238;" d="M307.029,425.7c1.779,0,3.22,3.649,3.22,8.15c0,4.501-1.442,8.15-3.22,8.15h-7.051v-16.3
									H307.029z"/>
								<ellipse style="fill:#263238;" cx="299.978" cy="433.85" rx="3.22" ry="8.15"/>
								<path style="fill:#263238;" d="M297.687,433.85c0,2.25,0.721,4.075,1.61,4.075c0.889,0,1.61-1.824,1.61-4.075
									c0-2.251-0.721-4.075-1.61-4.075C298.408,429.775,297.687,431.599,297.687,433.85z"/>
							</g>
							<path style="fill:#263238;" d="M297.072,421.241l2.416-1.042c0.323-0.139,0.671-0.211,1.023-0.211h1.692v2.206
								c-0.155-0.044-0.314-0.081-0.482-0.081h-1.744v10.532c0,1.877-1.491,3.016-1.889,1.444l-2.498-9.84
								C295.279,423.019,295.907,421.744,297.072,421.241z"/>
						</g>
						<path style="fill:#263238;" d="M302.735,414.809v5.977l-4.184,0.598l-0.865-5.977
							C297.687,415.406,298.75,414.809,302.735,414.809z"/>
					</g>
				</g>
				
					<polygon style="fill:#263238;stroke:#263238;stroke-width:3;stroke-linecap:round;stroke-linejoin:round;stroke-miterlimit:10;" points="
					293.043,379.886 206.764,379.886 177.02,368.195 322.788,368.195 				"/>
				
					<polyline style="fill:none;stroke:#263238;stroke-width:3;stroke-linecap:round;stroke-linejoin:round;stroke-miterlimit:10;" points="
					165.865,401.851 197.265,414.809 302.735,414.809 332.347,401.851 167.653,401.851 				"/>
				
					<polyline style="fill:none;stroke:#263238;stroke-width:3;stroke-linecap:round;stroke-linejoin:round;stroke-miterlimit:10;" points="
					293.043,379.886 293.043,406.705 302.735,414.809 				"/>
				
					<polyline style="fill:none;stroke:#263238;stroke-width:3;stroke-linecap:round;stroke-linejoin:round;stroke-miterlimit:10;" points="
					206.764,379.886 206.764,406.705 197.265,414.809 				"/>
			</g>
		</g>
	</g>
</g>
</svg>
