<?xml version="1.0" encoding="utf-8"?>
<!-- Generator: Adobe Illustrator 27.5.0, SVG Export Plug-In . SVG Version: 6.00 Build 0)  -->
<svg version="1.1" xmlns="http://www.w3.org/2000/svg" xmlns:xlink="http://www.w3.org/1999/xlink" x="0px" y="0px"
	 viewBox="0 0 500 500" style="enable-background:new 0 0 500 500;" xml:space="preserve">
<g id="Background_Complete">
	<g>
		<rect y="382.398" style="fill:#EBEBEB;" width="500" height="0.25"/>
		<rect x="416.779" y="398.494" style="fill:#EBEBEB;" width="33.122" height="0.25"/>
		<rect x="322.527" y="401.208" style="fill:#EBEBEB;" width="8.693" height="0.25"/>
		<rect x="368.111" y="389.208" style="fill:#EBEBEB;" width="47.667" height="0.25"/>
		<rect x="52.459" y="390.888" style="fill:#EBEBEB;" width="23.679" height="0.25"/>
		<rect x="85.041" y="390.888" style="fill:#EBEBEB;" width="25.847" height="0.25"/>
		<rect x="131.471" y="395.111" style="fill:#EBEBEB;" width="64.64" height="0.25"/>
		<path style="fill:#EBEBEB;" d="M237.014,337.8H43.915c-3.147,0-5.708-2.561-5.708-5.708V60.66c0-3.147,2.561-5.708,5.708-5.708
			h193.099c3.146,0,5.707,2.561,5.707,5.708v271.432C242.721,335.239,240.16,337.8,237.014,337.8z M43.915,55.203
			c-3.01,0-5.458,2.448-5.458,5.458v271.432c0,3.01,2.448,5.458,5.458,5.458h193.099c3.009,0,5.457-2.448,5.457-5.458V60.66
			c0-3.009-2.448-5.458-5.457-5.458H43.915z"/>
		<path style="fill:#EBEBEB;" d="M453.31,337.8H260.212c-3.147,0-5.707-2.561-5.707-5.708V60.66c0-3.147,2.561-5.708,5.707-5.708
			H453.31c3.148,0,5.708,2.561,5.708,5.708v271.432C459.019,335.239,456.458,337.8,453.31,337.8z M260.212,55.203
			c-3.009,0-5.457,2.448-5.457,5.458v271.432c0,3.01,2.448,5.458,5.457,5.458H453.31c3.01,0,5.458-2.448,5.458-5.458V60.66
			c0-3.009-2.448-5.458-5.458-5.458H260.212z"/>
	</g>
	<g>
		<rect x="63.792" y="95.115" style="fill:#F0F0F0;" width="372.416" height="5.787"/>
		<rect x="63.792" y="163.168" style="fill:#F0F0F0;" width="372.416" height="5.787"/>
		<rect x="63.792" y="231.221" style="fill:#F0F0F0;" width="372.416" height="5.787"/>
		<rect x="63.792" y="299.274" style="fill:#F0F0F0;" width="372.416" height="5.787"/>
		<g>
			<path style="fill:#EBEBEB;" d="M116.258,77.975h-13.231c-1.288,0-2.332,1.044-2.332,2.332v12.475
				c0,1.288,1.044,2.332,2.332,2.332h13.231c1.288,0,2.332-1.044,2.332-2.332V80.308C118.59,79.019,117.546,77.975,116.258,77.975z"
				/>
			<rect x="100.695" y="81.621" style="fill:#FAFAFA;" width="10.117" height="9.749"/>
			<path style="fill:#F5F5F5;" d="M113.712,77.975h-8.138c-0.401,0-0.727-0.325-0.727-0.726v-2.544c0-0.401,0.325-0.726,0.727-0.726
				h8.138c0.401,0,0.727,0.325,0.727,0.726v2.544C114.438,77.65,114.113,77.975,113.712,77.975z"/>
		</g>
		<g>
			<path style="fill:#EBEBEB;" d="M147.838,77.975h-13.231c-1.288,0-2.332,1.044-2.332,2.332v12.475
				c0,1.288,1.044,2.332,2.332,2.332h13.231c1.288,0,2.332-1.044,2.332-2.332V80.308C150.171,79.019,149.126,77.975,147.838,77.975z
				"/>
			<rect x="132.275" y="81.621" style="fill:#FAFAFA;" width="10.117" height="9.749"/>
			<path style="fill:#F5F5F5;" d="M145.292,77.975h-8.138c-0.401,0-0.726-0.325-0.726-0.726v-2.544c0-0.401,0.325-0.726,0.726-0.726
				h8.138c0.401,0,0.726,0.325,0.726,0.726v2.544C146.018,77.65,145.693,77.975,145.292,77.975z"/>
		</g>
		<g>
			<path style="fill:#EBEBEB;" d="M179.419,77.975h-13.231c-1.288,0-2.332,1.044-2.332,2.332v12.475
				c0,1.288,1.044,2.332,2.332,2.332h13.231c1.288,0,2.332-1.044,2.332-2.332V80.308C181.751,79.019,180.707,77.975,179.419,77.975z
				"/>
			<rect x="163.855" y="81.621" style="fill:#FAFAFA;" width="10.118" height="9.749"/>
			<path style="fill:#F5F5F5;" d="M176.872,77.975h-8.138c-0.401,0-0.726-0.325-0.726-0.726v-2.544c0-0.401,0.325-0.726,0.726-0.726
				h8.138c0.401,0,0.727,0.325,0.727,0.726v2.544C177.599,77.65,177.274,77.975,176.872,77.975z"/>
		</g>
		<g>
			<path style="fill:#EBEBEB;" d="M210.999,77.975h-13.231c-1.288,0-2.332,1.044-2.332,2.332v12.475
				c0,1.288,1.044,2.332,2.332,2.332h13.231c1.288,0,2.332-1.044,2.332-2.332V80.308C213.332,79.019,212.287,77.975,210.999,77.975z
				"/>
			<rect x="195.436" y="81.621" style="fill:#FAFAFA;" width="10.117" height="9.749"/>
			<path style="fill:#F5F5F5;" d="M208.453,77.975h-8.138c-0.401,0-0.727-0.325-0.727-0.726v-2.544c0-0.401,0.325-0.726,0.727-0.726
				h8.138c0.401,0,0.726,0.325,0.726,0.726v2.544C209.179,77.65,208.854,77.975,208.453,77.975z"/>
		</g>
		<g>
			<path style="fill:#EBEBEB;" d="M242.58,77.975h-13.231c-1.288,0-2.332,1.044-2.332,2.332v12.475c0,1.288,1.044,2.332,2.332,2.332
				h13.231c1.288,0,2.332-1.044,2.332-2.332V80.308C244.912,79.019,243.868,77.975,242.58,77.975z"/>
			<rect x="227.016" y="81.621" style="fill:#FAFAFA;" width="10.118" height="9.749"/>
			<path style="fill:#F5F5F5;" d="M240.033,77.975h-8.138c-0.401,0-0.726-0.325-0.726-0.726v-2.544c0-0.401,0.325-0.726,0.726-0.726
				h8.138c0.401,0,0.726,0.325,0.726,0.726v2.544C240.76,77.65,240.435,77.975,240.033,77.975z"/>
		</g>
		<g>
			<path style="fill:#EBEBEB;" d="M242.58,214.081h-13.231c-1.288,0-2.332,1.044-2.332,2.332v12.475
				c0,1.288,1.044,2.332,2.332,2.332h13.231c1.288,0,2.332-1.044,2.332-2.332v-12.475
				C244.912,215.126,243.868,214.081,242.58,214.081z"/>
			<rect x="227.016" y="217.727" style="fill:#FAFAFA;" width="10.118" height="9.749"/>
			<path style="fill:#F5F5F5;" d="M240.033,214.081h-8.138c-0.401,0-0.726-0.325-0.726-0.726v-2.544
				c0-0.401,0.325-0.726,0.726-0.726h8.138c0.401,0,0.726,0.325,0.726,0.726v2.544C240.76,213.756,240.435,214.081,240.033,214.081z
				"/>
		</g>
		<g>
			<path style="fill:#EBEBEB;" d="M274.16,214.081h-13.231c-1.288,0-2.332,1.044-2.332,2.332v12.475
				c0,1.288,1.044,2.332,2.332,2.332h13.231c1.288,0,2.332-1.044,2.332-2.332v-12.475
				C276.492,215.126,275.448,214.081,274.16,214.081z"/>
			<rect x="258.597" y="217.727" style="fill:#FAFAFA;" width="10.117" height="9.749"/>
			<path style="fill:#F5F5F5;" d="M271.614,214.081h-8.138c-0.401,0-0.726-0.325-0.726-0.726v-2.544
				c0-0.401,0.325-0.726,0.726-0.726h8.138c0.401,0,0.727,0.325,0.727,0.726v2.544C272.34,213.756,272.015,214.081,271.614,214.081z
				"/>
		</g>
		<g>
			<path style="fill:#EBEBEB;" d="M305.741,214.081H292.51c-1.288,0-2.332,1.044-2.332,2.332v12.475
				c0,1.288,1.044,2.332,2.332,2.332h13.231c1.288,0,2.332-1.044,2.332-2.332v-12.475
				C308.073,215.126,307.029,214.081,305.741,214.081z"/>
			<rect x="290.177" y="217.727" style="fill:#FAFAFA;" width="10.117" height="9.749"/>
			<path style="fill:#F5F5F5;" d="M303.194,214.081h-8.138c-0.401,0-0.726-0.325-0.726-0.726v-2.544
				c0-0.401,0.325-0.726,0.726-0.726h8.138c0.401,0,0.726,0.325,0.726,0.726v2.544C303.921,213.756,303.595,214.081,303.194,214.081
				z"/>
		</g>
		<g>
			<path style="fill:#EBEBEB;" d="M337.321,214.081H324.09c-1.288,0-2.332,1.044-2.332,2.332v12.475
				c0,1.288,1.044,2.332,2.332,2.332h13.231c1.288,0,2.332-1.044,2.332-2.332v-12.475
				C339.653,215.126,338.609,214.081,337.321,214.081z"/>
			<rect x="321.758" y="217.727" style="fill:#FAFAFA;" width="10.118" height="9.749"/>
			<path style="fill:#F5F5F5;" d="M334.775,214.081h-8.138c-0.401,0-0.726-0.325-0.726-0.726v-2.544
				c0-0.401,0.325-0.726,0.726-0.726h8.138c0.401,0,0.727,0.325,0.727,0.726v2.544C335.501,213.756,335.176,214.081,334.775,214.081
				z"/>
		</g>
		<g>
			<path style="fill:#EBEBEB;" d="M368.901,214.081h-13.231c-1.288,0-2.332,1.044-2.332,2.332v12.475
				c0,1.288,1.044,2.332,2.332,2.332h13.231c1.288,0,2.332-1.044,2.332-2.332v-12.475
				C371.234,215.126,370.19,214.081,368.901,214.081z"/>
			<rect x="353.338" y="217.727" style="fill:#FAFAFA;" width="10.117" height="9.749"/>
			<path style="fill:#F5F5F5;" d="M366.355,214.081h-8.138c-0.401,0-0.727-0.325-0.727-0.726v-2.544
				c0-0.401,0.325-0.726,0.727-0.726h8.138c0.401,0,0.726,0.325,0.726,0.726v2.544C367.082,213.756,366.756,214.081,366.355,214.081
				z"/>
		</g>
		<g>
			<path style="fill:#EBEBEB;" d="M148.877,282.134h13.231c1.288,0,2.332,1.044,2.332,2.332v12.475c0,1.288-1.044,2.332-2.332,2.332
				h-13.231c-1.288,0-2.332-1.044-2.332-2.332v-12.475C146.545,283.178,147.589,282.134,148.877,282.134z"/>
			
				<rect x="154.323" y="285.78" transform="matrix(-1 -1.224647e-16 1.224647e-16 -1 318.7632 581.3088)" style="fill:#FAFAFA;" width="10.117" height="9.749"/>
			<path style="fill:#F5F5F5;" d="M151.423,282.134h8.138c0.401,0,0.726-0.325,0.726-0.727v-2.544c0-0.401-0.325-0.726-0.726-0.726
				h-8.138c-0.401,0-0.726,0.325-0.726,0.726v2.544C150.697,281.809,151.022,282.134,151.423,282.134z"/>
		</g>
		<g>
			<path style="fill:#EBEBEB;" d="M117.297,282.134h13.231c1.288,0,2.332,1.044,2.332,2.332v12.475c0,1.288-1.044,2.332-2.332,2.332
				h-13.231c-1.288,0-2.332-1.044-2.332-2.332v-12.475C114.964,283.178,116.008,282.134,117.297,282.134z"/>
			
				<rect x="122.742" y="285.78" transform="matrix(-1 -1.224647e-16 1.224647e-16 -1 255.6023 581.3088)" style="fill:#FAFAFA;" width="10.118" height="9.749"/>
			<path style="fill:#F5F5F5;" d="M119.843,282.134h8.138c0.401,0,0.726-0.325,0.726-0.727v-2.544c0-0.401-0.325-0.726-0.726-0.726
				h-8.138c-0.401,0-0.727,0.325-0.727,0.726v2.544C119.117,281.809,119.442,282.134,119.843,282.134z"/>
		</g>
		<g>
			<path style="fill:#EBEBEB;" d="M85.716,282.134h13.231c1.288,0,2.332,1.044,2.332,2.332v12.475c0,1.288-1.044,2.332-2.332,2.332
				H85.716c-1.288,0-2.332-1.044-2.332-2.332v-12.475C83.384,283.178,84.428,282.134,85.716,282.134z"/>
			
				<rect x="91.162" y="285.78" transform="matrix(-1 -1.224647e-16 1.224647e-16 -1 192.4414 581.3088)" style="fill:#FAFAFA;" width="10.117" height="9.749"/>
			<path style="fill:#F5F5F5;" d="M88.262,282.134h8.138c0.401,0,0.726-0.325,0.726-0.727v-2.544c0-0.401-0.325-0.726-0.726-0.726
				h-8.138c-0.401,0-0.726,0.325-0.726,0.726v2.544C87.536,281.809,87.861,282.134,88.262,282.134z"/>
		</g>
		<g>
			<rect x="266.96" y="79.839" style="fill:#E0E0E0;" width="9.24" height="15.276"/>
			<rect x="266.96" y="83.403" style="fill:#F5F5F5;" width="7.603" height="8.147"/>
			<path style="fill:#F0F0F0;" d="M276.486,80.703h-9.813c-0.415,0-0.752-0.337-0.752-0.752v-1.738c0-0.415,0.337-0.752,0.752-0.752
				h9.813c0.415,0,0.752,0.337,0.752,0.752v1.738C277.238,80.366,276.901,80.703,276.486,80.703z"/>
		</g>
		<g>
			<rect x="288.013" y="79.839" style="fill:#E0E0E0;" width="9.24" height="15.276"/>
			<rect x="288.013" y="83.403" style="fill:#F5F5F5;" width="7.603" height="8.147"/>
			<path style="fill:#F0F0F0;" d="M297.54,80.703h-9.813c-0.415,0-0.752-0.337-0.752-0.752v-1.738c0-0.415,0.337-0.752,0.752-0.752
				h9.813c0.415,0,0.752,0.337,0.752,0.752v1.738C298.292,80.366,297.955,80.703,297.54,80.703z"/>
		</g>
		<g>
			<rect x="309.067" y="79.839" style="fill:#E0E0E0;" width="9.24" height="15.276"/>
			<rect x="309.067" y="83.403" style="fill:#F5F5F5;" width="7.603" height="8.147"/>
			<path style="fill:#F0F0F0;" d="M318.594,80.703h-9.813c-0.415,0-0.752-0.337-0.752-0.752v-1.738c0-0.415,0.337-0.752,0.752-0.752
				h9.813c0.415,0,0.752,0.337,0.752,0.752v1.738C319.345,80.366,319.009,80.703,318.594,80.703z"/>
		</g>
		<g>
			<rect x="330.121" y="79.839" style="fill:#E0E0E0;" width="9.24" height="15.276"/>
			<rect x="330.121" y="83.403" style="fill:#F5F5F5;" width="7.603" height="8.147"/>
			<path style="fill:#F0F0F0;" d="M339.647,80.703h-9.813c-0.415,0-0.752-0.337-0.752-0.752v-1.738c0-0.415,0.337-0.752,0.752-0.752
				h9.813c0.415,0,0.752,0.337,0.752,0.752v1.738C340.399,80.366,340.063,80.703,339.647,80.703z"/>
		</g>
		<g>
			<rect x="115.783" y="147.891" style="fill:#E0E0E0;" width="9.24" height="15.276"/>
			<rect x="115.783" y="151.456" style="fill:#F5F5F5;" width="7.603" height="8.147"/>
			<path style="fill:#F0F0F0;" d="M125.31,148.756h-9.813c-0.415,0-0.752-0.337-0.752-0.752v-1.737c0-0.415,0.337-0.752,0.752-0.752
				h9.813c0.415,0,0.752,0.337,0.752,0.752v1.737C126.061,148.419,125.725,148.756,125.31,148.756z"/>
		</g>
		<g>
			<rect x="136.837" y="147.891" style="fill:#E0E0E0;" width="9.24" height="15.276"/>
			<rect x="136.837" y="151.456" style="fill:#F5F5F5;" width="7.603" height="8.147"/>
			<path style="fill:#F0F0F0;" d="M146.363,148.756h-9.813c-0.415,0-0.752-0.337-0.752-0.752v-1.737
				c0-0.415,0.337-0.752,0.752-0.752h9.813c0.415,0,0.752,0.337,0.752,0.752v1.737C147.115,148.419,146.778,148.756,146.363,148.756
				z"/>
		</g>
		<g>
			<rect x="157.89" y="147.891" style="fill:#E0E0E0;" width="9.24" height="15.276"/>
			<rect x="157.89" y="151.456" style="fill:#F5F5F5;" width="7.603" height="8.147"/>
			<path style="fill:#F0F0F0;" d="M167.417,148.756h-9.813c-0.415,0-0.752-0.337-0.752-0.752v-1.737
				c0-0.415,0.337-0.752,0.752-0.752h9.813c0.415,0,0.752,0.337,0.752,0.752v1.737C168.169,148.419,167.832,148.756,167.417,148.756
				z"/>
		</g>
		<g>
			<rect x="178.944" y="147.891" style="fill:#E0E0E0;" width="9.24" height="15.276"/>
			<rect x="178.944" y="151.456" style="fill:#F5F5F5;" width="7.603" height="8.147"/>
			<path style="fill:#F0F0F0;" d="M188.47,148.756h-9.813c-0.415,0-0.752-0.337-0.752-0.752v-1.737c0-0.415,0.337-0.752,0.752-0.752
				h9.813c0.415,0,0.752,0.337,0.752,0.752v1.737C189.222,148.419,188.886,148.756,188.47,148.756z"/>
		</g>
		<g>
			<rect x="346.306" y="283.998" style="fill:#E0E0E0;" width="9.24" height="15.276"/>
			<rect x="346.306" y="287.562" style="fill:#F5F5F5;" width="7.603" height="8.147"/>
			<path style="fill:#F0F0F0;" d="M355.832,284.862h-9.813c-0.415,0-0.752-0.337-0.752-0.752v-1.737
				c0-0.415,0.337-0.752,0.752-0.752h9.813c0.415,0,0.752,0.337,0.752,0.752v1.737C356.584,284.525,356.247,284.862,355.832,284.862
				z"/>
		</g>
		<g>
			<rect x="367.359" y="283.998" style="fill:#E0E0E0;" width="9.24" height="15.276"/>
			<rect x="367.359" y="287.562" style="fill:#F5F5F5;" width="7.603" height="8.147"/>
			<path style="fill:#F0F0F0;" d="M376.886,284.862h-9.813c-0.415,0-0.752-0.337-0.752-0.752v-1.737
				c0-0.415,0.337-0.752,0.752-0.752h9.813c0.415,0,0.752,0.337,0.752,0.752v1.737C377.638,284.525,377.301,284.862,376.886,284.862
				z"/>
		</g>
		<g>
			<rect x="388.413" y="283.998" style="fill:#E0E0E0;" width="9.24" height="15.276"/>
			<rect x="388.413" y="287.562" style="fill:#F5F5F5;" width="7.603" height="8.147"/>
			<path style="fill:#F0F0F0;" d="M397.94,284.862h-9.813c-0.415,0-0.752-0.337-0.752-0.752v-1.737c0-0.415,0.337-0.752,0.752-0.752
				h9.813c0.415,0,0.752,0.337,0.752,0.752v1.737C398.691,284.525,398.355,284.862,397.94,284.862z"/>
		</g>
		<g>
			<rect x="409.467" y="283.998" style="fill:#E0E0E0;" width="9.24" height="15.276"/>
			<rect x="409.467" y="287.562" style="fill:#F5F5F5;" width="7.603" height="8.147"/>
			<path style="fill:#F0F0F0;" d="M418.993,284.862h-9.813c-0.415,0-0.752-0.337-0.752-0.752v-1.737
				c0-0.415,0.337-0.752,0.752-0.752h9.813c0.415,0,0.752,0.337,0.752,0.752v1.737C419.745,284.525,419.408,284.862,418.993,284.862
				z"/>
		</g>
		<g>
			<g>
				<rect x="264.136" y="147.477" style="fill:#F5F5F5;" width="16.99" height="15.691"/>
				
					<rect x="281.126" y="147.477" transform="matrix(-1 -1.224647e-16 1.224647e-16 -1 569.102 310.645)" style="fill:#E6E6E6;" width="6.85" height="15.691"/>
				<polygon style="fill:#EBEBEB;" points="264.136,147.477 272.631,155.322 281.126,147.477 				"/>
			</g>
			<g>
				<rect x="282.268" y="147.477" style="fill:#F5F5F5;" width="16.99" height="15.691"/>
				
					<rect x="299.258" y="147.477" transform="matrix(-1 -1.224647e-16 1.224647e-16 -1 605.3649 310.645)" style="fill:#E6E6E6;" width="6.85" height="15.691"/>
				<polygon style="fill:#EBEBEB;" points="282.268,147.477 290.763,155.322 299.258,147.477 				"/>
			</g>
			<g>
				<rect x="300.399" y="147.477" style="fill:#F5F5F5;" width="16.99" height="15.691"/>
				
					<rect x="317.389" y="147.477" transform="matrix(-1 -1.224647e-16 1.224647e-16 -1 641.6277 310.645)" style="fill:#E6E6E6;" width="6.85" height="15.691"/>
				<polygon style="fill:#EBEBEB;" points="300.399,147.477 308.894,155.322 317.389,147.477 				"/>
			</g>
			<g>
				<rect x="272.631" y="131.787" style="fill:#F5F5F5;" width="16.99" height="15.691"/>
				
					<rect x="289.621" y="131.787" transform="matrix(-1 -1.224647e-16 1.224647e-16 -1 586.0919 279.2639)" style="fill:#E6E6E6;" width="6.85" height="15.691"/>
				<polygon style="fill:#EBEBEB;" points="272.631,131.787 281.126,139.632 289.621,131.787 				"/>
			</g>
			<g>
				<rect x="290.763" y="131.787" style="fill:#F5F5F5;" width="16.99" height="15.691"/>
				
					<rect x="307.753" y="131.787" transform="matrix(-1 -1.224647e-16 1.224647e-16 -1 622.3547 279.2639)" style="fill:#E6E6E6;" width="6.85" height="15.691"/>
				<polygon style="fill:#EBEBEB;" points="290.763,131.787 299.258,139.632 307.753,131.787 				"/>
			</g>
		</g>
		<g>
			<g>
				<rect x="339.914" y="147.477" style="fill:#F5F5F5;" width="16.99" height="15.691"/>
				
					<rect x="356.904" y="147.477" transform="matrix(-1 -1.224647e-16 1.224647e-16 -1 720.6573 310.645)" style="fill:#E6E6E6;" width="6.85" height="15.691"/>
				<polygon style="fill:#EBEBEB;" points="339.914,147.477 348.409,155.322 356.904,147.477 				"/>
			</g>
			<g>
				<rect x="358.045" y="147.477" style="fill:#F5F5F5;" width="16.99" height="15.691"/>
				
					<rect x="375.035" y="147.477" transform="matrix(-1 -1.224647e-16 1.224647e-16 -1 756.9201 310.645)" style="fill:#E6E6E6;" width="6.85" height="15.691"/>
				<polygon style="fill:#EBEBEB;" points="358.045,147.477 366.54,155.322 375.035,147.477 				"/>
			</g>
			<g>
				<rect x="376.177" y="147.477" style="fill:#F5F5F5;" width="16.99" height="15.691"/>
				
					<rect x="393.167" y="147.477" transform="matrix(-1 -1.224647e-16 1.224647e-16 -1 793.183 310.645)" style="fill:#E6E6E6;" width="6.85" height="15.691"/>
				<polygon style="fill:#EBEBEB;" points="376.177,147.477 384.672,155.322 393.167,147.477 				"/>
			</g>
			<g>
				<rect x="348.409" y="131.787" style="fill:#F5F5F5;" width="16.99" height="15.691"/>
				
					<rect x="365.399" y="131.787" transform="matrix(-1 -1.224647e-16 1.224647e-16 -1 737.6471 279.2639)" style="fill:#E6E6E6;" width="6.85" height="15.691"/>
				<polygon style="fill:#EBEBEB;" points="348.409,131.787 356.904,139.632 365.399,131.787 				"/>
			</g>
			<g>
				<rect x="366.54" y="131.787" style="fill:#F5F5F5;" width="16.99" height="15.691"/>
				
					<rect x="383.53" y="131.787" transform="matrix(-1 -1.224647e-16 1.224647e-16 -1 773.9099 279.2639)" style="fill:#E6E6E6;" width="6.85" height="15.691"/>
				<polygon style="fill:#EBEBEB;" points="366.54,131.787 375.035,139.632 383.53,131.787 				"/>
			</g>
		</g>
		<g>
			<g>
				<rect x="183.99" y="283.583" style="fill:#F5F5F5;" width="16.99" height="15.691"/>
				
					<rect x="200.98" y="283.583" transform="matrix(-1 -1.224647e-16 1.224647e-16 -1 408.8092 582.8571)" style="fill:#E6E6E6;" width="6.85" height="15.691"/>
				<polygon style="fill:#EBEBEB;" points="183.99,283.583 192.485,291.428 200.98,283.583 				"/>
			</g>
			<g>
				<rect x="202.121" y="283.583" style="fill:#F5F5F5;" width="16.99" height="15.691"/>
				
					<rect x="219.111" y="283.583" transform="matrix(-1 -1.224647e-16 1.224647e-16 -1 445.072 582.8571)" style="fill:#E6E6E6;" width="6.85" height="15.691"/>
				<polygon style="fill:#EBEBEB;" points="202.121,283.583 210.616,291.428 219.111,283.583 				"/>
			</g>
			<g>
				<rect x="220.253" y="283.583" style="fill:#F5F5F5;" width="16.99" height="15.691"/>
				
					<rect x="237.243" y="283.583" transform="matrix(-1 -1.224647e-16 1.224647e-16 -1 481.3348 582.8571)" style="fill:#E6E6E6;" width="6.85" height="15.691"/>
				<polygon style="fill:#EBEBEB;" points="220.253,283.583 228.748,291.428 237.243,283.583 				"/>
			</g>
			<g>
				<rect x="192.485" y="267.893" style="fill:#F5F5F5;" width="16.99" height="15.691"/>
				
					<rect x="209.475" y="267.893" transform="matrix(-1 -1.224647e-16 1.224647e-16 -1 425.799 551.476)" style="fill:#E6E6E6;" width="6.85" height="15.691"/>
				<polygon style="fill:#EBEBEB;" points="192.485,267.893 200.98,275.738 209.475,267.893 				"/>
			</g>
			<g>
				<rect x="210.616" y="267.893" style="fill:#F5F5F5;" width="16.99" height="15.691"/>
				
					<rect x="227.606" y="267.893" transform="matrix(-1 -1.224647e-16 1.224647e-16 -1 462.0618 551.476)" style="fill:#E6E6E6;" width="6.85" height="15.691"/>
				<polygon style="fill:#EBEBEB;" points="210.616,267.893 219.111,275.738 227.606,267.893 				"/>
			</g>
		</g>
		<g>
			<g>
				<rect x="259.768" y="283.583" style="fill:#F5F5F5;" width="16.99" height="15.691"/>
				
					<rect x="276.757" y="283.583" transform="matrix(-1 -1.224647e-16 1.224647e-16 -1 560.3644 582.8571)" style="fill:#E6E6E6;" width="6.85" height="15.691"/>
				<polygon style="fill:#EBEBEB;" points="259.768,283.583 268.263,291.428 276.757,283.583 				"/>
			</g>
			<g>
				<rect x="277.899" y="283.583" style="fill:#F5F5F5;" width="16.99" height="15.691"/>
				
					<rect x="294.889" y="283.583" transform="matrix(-1 -1.224647e-16 1.224647e-16 -1 596.6273 582.8571)" style="fill:#E6E6E6;" width="6.85" height="15.691"/>
				<polygon style="fill:#EBEBEB;" points="277.899,283.583 286.394,291.428 294.889,283.583 				"/>
			</g>
			<g>
				<rect x="296.03" y="283.583" style="fill:#F5F5F5;" width="16.99" height="15.691"/>
				
					<rect x="313.02" y="283.583" transform="matrix(-1 -1.224647e-16 1.224647e-16 -1 632.8901 582.8571)" style="fill:#E6E6E6;" width="6.85" height="15.691"/>
				<polygon style="fill:#EBEBEB;" points="296.03,283.583 304.525,291.428 313.02,283.583 				"/>
			</g>
			<g>
				<rect x="268.263" y="267.893" style="fill:#F5F5F5;" width="16.99" height="15.691"/>
				
					<rect x="285.252" y="267.893" transform="matrix(-1 -1.224647e-16 1.224647e-16 -1 577.3542 551.476)" style="fill:#E6E6E6;" width="6.85" height="15.691"/>
				<polygon style="fill:#EBEBEB;" points="268.263,267.893 276.758,275.738 285.252,267.893 				"/>
			</g>
			<g>
				<rect x="286.394" y="267.893" style="fill:#F5F5F5;" width="16.99" height="15.691"/>
				
					<rect x="303.384" y="267.893" transform="matrix(-1 -1.224647e-16 1.224647e-16 -1 613.6171 551.476)" style="fill:#E6E6E6;" width="6.85" height="15.691"/>
				<polygon style="fill:#EBEBEB;" points="286.394,267.893 294.889,275.738 303.384,267.893 				"/>
			</g>
		</g>
		<g>
			<g>
				<rect x="92.691" y="212.673" style="fill:#F5F5F5;" width="20.084" height="18.548"/>
				
					<rect x="112.775" y="212.673" transform="matrix(-1 -1.224647e-16 1.224647e-16 -1 233.6479 443.8934)" style="fill:#E6E6E6;" width="8.097" height="18.548"/>
				<polygon style="fill:#EBEBEB;" points="92.691,212.673 102.733,221.947 112.775,212.673 				"/>
			</g>
			<g>
				<rect x="114.125" y="212.673" style="fill:#F5F5F5;" width="20.084" height="18.548"/>
				
					<rect x="134.209" y="212.673" transform="matrix(-1 -1.224647e-16 1.224647e-16 -1 276.515 443.8934)" style="fill:#E6E6E6;" width="8.097" height="18.548"/>
				<polygon style="fill:#EBEBEB;" points="114.125,212.673 124.167,221.947 134.209,212.673 				"/>
			</g>
			<g>
				<rect x="135.559" y="212.673" style="fill:#F5F5F5;" width="20.084" height="18.548"/>
				
					<rect x="155.643" y="212.673" transform="matrix(-1 -1.224647e-16 1.224647e-16 -1 319.3821 443.8934)" style="fill:#E6E6E6;" width="8.097" height="18.548"/>
				<polygon style="fill:#EBEBEB;" points="135.559,212.673 145.601,221.947 155.643,212.673 				"/>
			</g>
			<g>
				<rect x="102.733" y="194.124" style="fill:#F5F5F5;" width="20.084" height="18.548"/>
				
					<rect x="122.817" y="194.124" transform="matrix(-1 -1.224647e-16 1.224647e-16 -1 253.7319 406.7971)" style="fill:#E6E6E6;" width="8.097" height="18.548"/>
				<polygon style="fill:#EBEBEB;" points="102.733,194.124 112.775,203.398 122.817,194.124 				"/>
			</g>
			<g>
				<rect x="124.167" y="194.124" style="fill:#F5F5F5;" width="20.084" height="18.548"/>
				
					<rect x="144.251" y="194.124" transform="matrix(-1 -1.224647e-16 1.224647e-16 -1 296.5991 406.7971)" style="fill:#E6E6E6;" width="8.097" height="18.548"/>
				<polygon style="fill:#EBEBEB;" points="124.167,194.124 134.209,203.398 144.251,194.124 				"/>
			</g>
		</g>
		<g>
			<g>
				<rect x="357.9" y="82.454" style="fill:#F5F5F5;" width="13.71" height="12.661"/>
				
					<rect x="371.609" y="82.454" transform="matrix(-1 -1.224647e-16 1.224647e-16 -1 748.7459 177.5684)" style="fill:#E6E6E6;" width="5.527" height="12.661"/>
				<polygon style="fill:#EBEBEB;" points="357.9,82.454 364.755,88.784 371.609,82.454 				"/>
			</g>
			<g>
				<rect x="372.531" y="82.454" style="fill:#F5F5F5;" width="13.709" height="12.661"/>
				
					<rect x="386.24" y="82.454" transform="matrix(-1 -1.224647e-16 1.224647e-16 -1 778.0071 177.5684)" style="fill:#E6E6E6;" width="5.527" height="12.661"/>
				<polygon style="fill:#EBEBEB;" points="372.531,82.454 379.385,88.784 386.24,82.454 				"/>
			</g>
			<g>
				<rect x="387.161" y="82.454" style="fill:#F5F5F5;" width="13.71" height="12.661"/>
				
					<rect x="400.871" y="82.454" transform="matrix(-1 -1.224647e-16 1.224647e-16 -1 807.2685 177.5684)" style="fill:#E6E6E6;" width="5.527" height="12.661"/>
				<polygon style="fill:#EBEBEB;" points="387.161,82.454 394.016,88.784 400.871,82.454 				"/>
			</g>
			<g>
				<rect x="364.755" y="69.793" style="fill:#F5F5F5;" width="13.71" height="12.661"/>
				
					<rect x="378.464" y="69.793" transform="matrix(-1 -1.224647e-16 1.224647e-16 -1 762.4553 152.2463)" style="fill:#E6E6E6;" width="5.527" height="12.661"/>
				<polygon style="fill:#EBEBEB;" points="364.755,69.793 371.609,76.123 378.464,69.793 				"/>
			</g>
			<g>
				<rect x="379.385" y="69.793" style="fill:#F5F5F5;" width="13.709" height="12.661"/>
				
					<rect x="393.095" y="69.793" transform="matrix(-1 -1.224647e-16 1.224647e-16 -1 791.7166 152.2463)" style="fill:#E6E6E6;" width="5.527" height="12.661"/>
				<polygon style="fill:#EBEBEB;" points="379.385,69.793 386.24,76.123 393.095,69.793 				"/>
			</g>
		</g>
	</g>
</g>
<g id="Background_Simple" style="display:none;">
	<g style="display:inline;">
		<path style="fill:#407BFF;" d="M144.396,157.637c79.196,0.809,125.322-145.883,224.37-67.113
			c78.643,62.543-12.135,203.98-62.952,245.582c-64.922,53.149-178.118,35.475-236.329-37.803
			c-28.415-35.769-41.372-69.352-28.43-107.54C66.015,117.114,120.326,157.392,144.396,157.637z"/>
		<path style="opacity:0.9;fill:#FFFFFF;" d="M144.396,157.637c79.196,0.809,125.322-145.883,224.37-67.113
			c78.643,62.543-12.135,203.98-62.952,245.582c-64.922,53.149-178.118,35.475-236.329-37.803
			c-28.415-35.769-41.372-69.352-28.43-107.54C66.015,117.114,120.326,157.392,144.396,157.637z"/>
	</g>
</g>
<g id="Shadow_1_">
	<ellipse id="_x3C_Path_x3E__107_" style="fill:#F5F5F5;" cx="250" cy="416.238" rx="193.889" ry="11.323"/>
</g>
<g id="Pill_Box">
	<g>
		<path style="fill:#407BFF;" d="M334.331,193.887H211.335c-17.306,0-31.335,14.029-31.335,31.335V384.9
			c0,17.306,14.029,31.335,31.335,31.335h122.996c17.306,0,31.336-14.029,31.336-31.335V225.222
			C365.667,207.916,351.637,193.887,334.331,193.887z"/>
		<rect x="214.445" y="179.669" style="fill:#407BFF;" width="116.777" height="34.996"/>
		<polygon style="opacity:0.3;fill:#263238;" points="331.222,185.002 214.445,188.447 214.445,179.669 331.222,179.669 		"/>
		<g>
			<path style="fill:#407BFF;" d="M335.861,144.835H209.806c-1.549,0-2.806,1.256-2.806,2.806v31.333
				c0,1.549,1.256,2.805,2.806,2.805h126.055c1.549,0,2.806-1.256,2.806-2.805v-31.333
				C338.667,146.092,337.41,144.835,335.861,144.835z"/>
			<path style="opacity:0.6;fill:#FFFFFF;" d="M335.861,144.835H209.806c-1.549,0-2.806,1.256-2.806,2.806v31.333
				c0,1.549,1.256,2.805,2.806,2.805h126.055c1.549,0,2.806-1.256,2.806-2.805v-31.333
				C338.667,146.092,337.41,144.835,335.861,144.835z"/>
		</g>
		<path style="opacity:0.9;fill:#FFFFFF;" d="M365.667,366.111H247.5c-8.929,0-16.167-7.238-16.167-16.167v-89.22
			c0-8.929,7.238-16.167,16.167-16.167h118.167V366.111z"/>
		<path style="opacity:0.9;fill:#FFFFFF;" d="M180,366.111h13.5c8.929,0,16.167-7.238,16.167-16.167v-89.22
			c0-8.929-7.238-16.167-16.167-16.167H180V366.111z"/>
	</g>
</g>
<g id="Character_1">
	<g>
		<path style="fill:#FFC3BD;" d="M74.443,274.436l-3.967,0.706c-3.659,2.528-0.134,7.853-0.134,7.853l0.872,3.39
			c0.296,1.149,1.324,1.855,2.429,1.67l2.777-0.467c1.266-0.213,2.173-1.508,2.012-2.871l-0.363-3.063
			c-0.106-0.891-0.387-1.741-0.82-2.472L74.443,274.436z"/>
		<g>
			<g>
				<path style="fill:#407BFF;" d="M94.183,222.977l-3.848,6.885l-3.838,6.939l-3.683,6.942l-1.754,3.454l-0.841,1.712l-0.209,0.428
					l-0.105,0.214c-0.047,0.099-0.02,0.031-0.035,0.054l-0.058,0.018c-0.037,0.012-0.072,0.025-0.106,0.049
					c-0.016,0.034-0.035-0.021-0.046,0.094l0.004,1.027l0.01,4.109c0.012,2.738-0.022,5.479-0.045,8.216l-0.163,8.215
					c-0.092,2.738-0.167,5.474-0.32,8.211l-12.518,0.609c-0.469-2.673-0.861-5.347-1.269-8.019l-1.112-8.017
					c-0.339-2.672-0.69-5.343-0.994-8.015l-0.465-4.007l-0.115-1.001c-0.06-0.56-0.103-1.293-0.097-1.937
					c0.007-1.33,0.168-2.667,0.477-3.965c0.154-0.649,0.346-1.288,0.571-1.913l0.438-1.178l0.761-2.023
					c0.514-1.333,1.055-2.652,1.599-3.952c1.083-2.608,2.216-5.172,3.404-7.69c2.353-5.077,4.781-9.966,7.513-14.92L94.183,222.977z
					"/>
			</g>
			<g style="opacity:0.2;">
				<path style="fill:#FFFFFF;" d="M94.183,222.977l-3.848,6.885l-3.838,6.939l-3.683,6.942l-1.754,3.454l-0.841,1.712l-0.209,0.428
					l-0.105,0.214c-0.047,0.099-0.02,0.031-0.035,0.054l-0.058,0.018c-0.037,0.012-0.072,0.025-0.106,0.049
					c-0.016,0.034-0.035-0.021-0.046,0.094l0.004,1.027l0.01,4.109c0.012,2.738-0.022,5.479-0.045,8.216l-0.163,8.215
					c-0.092,2.738-0.167,5.474-0.32,8.211l-12.518,0.609c-0.469-2.673-0.861-5.347-1.269-8.019l-1.112-8.017
					c-0.339-2.672-0.69-5.343-0.994-8.015l-0.465-4.007l-0.115-1.001c-0.06-0.56-0.103-1.293-0.097-1.937
					c0.007-1.33,0.168-2.667,0.477-3.965c0.154-0.649,0.346-1.288,0.571-1.913l0.438-1.178l0.761-2.023
					c0.514-1.333,1.055-2.652,1.599-3.952c1.083-2.608,2.216-5.172,3.404-7.69c2.353-5.077,4.781-9.966,7.513-14.92L94.183,222.977z
					"/>
			</g>
		</g>
		<g>
			<path style="fill:#407BFF;" d="M158.632,204.333c2.158-17.425,3.991-29.763,14.513-29.766
				c7.821-0.003,15.835,15.604,14.154,33.082c-1.608,16.723-11.284,29.178-21.37,30.147l-6.145,171.522
				c-0.187,3.72-3.41,6.788-7.132,6.788H148.5c-3.722,0-6.478-3.067-6.1-6.788l17.789-174.882
				C156.066,229.073,157.088,216.804,158.632,204.333z"/>
			<path style="opacity:0.8;fill:#FFFFFF;" d="M158.632,204.333c2.158-17.425,3.991-29.763,14.513-29.766
				c7.821-0.003,15.835,15.604,14.154,33.082c-1.608,16.723-11.284,29.178-21.37,30.147l-6.145,171.522
				c-0.187,3.72-3.41,6.788-7.132,6.788H148.5c-3.722,0-6.478-3.067-6.1-6.788l17.789-174.882
				C156.066,229.073,157.088,216.804,158.632,204.333z"/>
		</g>
		<path style="fill:#407BFF;" d="M133.268,412.637c-7.011-0.54-10.698-5.331-10.523-10.408c0.096-2.799-8.866-3.049-8.866-3.049
			c1.959,8.679,0.26,9.917-0.182,12.159c-0.445,2.252-0.146,4.72,1.708,4.767c2.22,0.056,3.225-0.368,5.986-0.261
			c3.228,0.125,5.404,0.251,11.128,0.261C134.807,416.109,136.387,412.877,133.268,412.637z"/>
		<path style="fill:#407BFF;" d="M81.549,412.833c-4.542-1.542-4.768-6.241-4.167-11.088c0.354-2.858-8.555-2.301-8.555-2.301
			c-0.645,6.901-1.906,7.18-3.111,9.278c-1.211,2.107-1.259,4.391,0.472,5.028c2.074,0.763,3.218,0.551,5.917,1.028
			c3.155,0.557,6,1.327,9.848,1.327C84.239,416.105,84.463,413.823,81.549,412.833z"/>
		<path style="fill:#263238;" d="M126.54,260.896c0,0,4.329,35.319,0.325,65.954c0.218,25.923-3.495,76.559-3.495,76.559
			c-3.316,0.652-6.454,0.757-9.283-0.085c0,0-13.769-35.27-10.214-76.915c-13.075-41.742-12.144-64.243-12.144-64.243
			L126.54,260.896z"/>
		<path style="fill:#263238;" d="M112.779,261.397c0,0-7.111,50.664-14.902,74.8c-8.183,25.348-19.931,64.789-20.196,66.675
			c-3.628,0.336-7.01,0.271-9.713-0.901c0,0-4.249-44.4,6.224-71.925c2.634-57.456,8.8-67.563,8.8-67.563L112.779,261.397z"/>
		<path style="fill:#FFC3BD;" d="M93.273,192.763c1.396,4.866,2.875,12.834,1.095,17.168c0,0,6.502,0.083,16.036,7.143
			c4.129-6.566-0.209-7.666-0.209-7.666c-3.883-0.764-4.664-5.425-4.792-9.078L93.273,192.763z"/>
		<path style="fill:#407BFF;" d="M124.973,221.332c0.043-5.932-4.116-10.112-11.67-11.462c-6.979-1.248-16.726-1.427-23.14,0.534
			c-6.414,1.961-8.303,5.559-7.091,10.461c5.224,21.141-0.994,35.048-0.08,41.619c16.034,1.523,40.089,1.154,43.548-1.588
			c2.318-3.35-1.071-21.493-2.373-24.139C130.445,232.093,124.949,224.642,124.973,221.332z"/>
		<path style="fill:#263238;" d="M110.805,183.652c0.14,0.653,0.6,1.108,1.027,1.016c0.427-0.092,0.659-0.695,0.519-1.348
			c-0.14-0.653-0.6-1.108-1.027-1.016C110.897,182.396,110.664,182.999,110.805,183.652z"/>
		<path style="fill:#263238;" d="M111.143,182.381l1.471-0.789C112.614,181.591,112.073,182.99,111.143,182.381z"/>
		<path style="fill:#ED847E;" d="M111.315,184.923c0,0,1.713,2.573,3.224,3.667c-0.689,0.99-2.234,0.937-2.234,0.937
			L111.315,184.923z"/>
		<path style="fill:#263238;" d="M111.201,189.417c-2.107,0-3.837-2.928-3.86-6.538c-0.011-1.729,0.363-3.36,1.053-4.594
			c0.715-1.278,1.688-1.986,2.739-1.993c0.004,0,0.009,0,0.014,0c2.107,0,3.837,2.928,3.86,6.538
			c0.011,1.729-0.363,3.36-1.053,4.594c-0.715,1.278-1.688,1.986-2.739,1.993C111.21,189.417,111.206,189.417,111.201,189.417z
			 M111.147,176.792c-0.004,0-0.008,0-0.012,0c-0.863,0.005-1.682,0.622-2.305,1.737c-0.648,1.159-1,2.703-0.99,4.347
			c0.021,3.336,1.527,6.041,3.36,6.041c0.004,0,0.008,0,0.012,0c0.863-0.005,1.682-0.622,2.305-1.737
			c0.648-1.159,1-2.703,0.99-4.346C114.486,179.498,112.979,176.792,111.147,176.792z"/>
		<path style="fill:#263238;" d="M111.502,179.632c0.059-0.078,0.088-0.178,0.076-0.282c-0.026-0.215-0.221-0.369-0.436-0.343
			c-2.154,0.257-2.976,1.871-3.009,1.941c-0.096,0.195-0.017,0.43,0.178,0.525c0.194,0.096,0.428,0.016,0.525-0.177
			c0.031-0.064,0.686-1.306,2.399-1.51C111.346,179.773,111.44,179.714,111.502,179.632z"/>
		<path style="fill:#FFC3BD;" d="M89.168,187.174c2.207,7.916,2.976,11.313,7.833,14.576c7.306,4.907,16.354,0.494,16.509-7.915
			c0.14-7.569-3.493-19.243-11.878-20.78C93.371,171.542,86.96,179.258,89.168,187.174z"/>
		<path style="fill:#407BFF;" d="M77.521,213c4.374-5.849,24.278-6.391,39.195-4.071c14.917,2.321,13.594,17.101,13.917,27.222
			c0.323,10.121,3.857,81.361-0.685,108.182c-20.648,3.5-53.348,1.5-62.832-1.667c2.016-9.667,9.373-83.551,9.484-102.662
			C76.654,230.666,72.91,219.167,77.521,213z"/>
		<path style="opacity:0.3;fill:#FFFFFF;" d="M77.521,213c4.374-5.849,24.278-6.391,39.195-4.071
			c14.917,2.321,13.594,17.101,13.917,27.222c0.323,10.121,3.857,81.361-0.685,108.182c-20.648,3.5-53.348,1.5-62.832-1.667
			c2.016-9.667,9.373-83.551,9.484-102.662C76.654,230.666,72.91,219.167,77.521,213z"/>
		<path style="opacity:0.5;fill:#407BFF;" d="M131.049,246.93c-3.43-3.24-6.44-6.42-7.55-8.5c-3.98-7.45,3.09,13.48,8.11,24.15
			C131.419,256.63,131.219,251.29,131.049,246.93z"/>
		<path style="fill:#FFC3BD;" d="M155.142,244.753l-0.522,3.995c1.308,4.25,7.448,2.493,7.448,2.493l3.495,0.189
			c1.185,0.064,2.168-0.703,2.324-1.814l0.391-2.789c0.178-1.271-0.783-2.526-2.132-2.783l-3.03-0.577
			c-0.882-0.168-1.776-0.155-2.604,0.037L155.142,244.753z"/>
		<path style="fill:#FFC3BD;" d="M154.051,245.206c1.702-3.04,5.497-2.834,8.391-3.44c0.492-0.103,1.401,0.851,0.856,1.443
			c-0.952,1.036-1.705,1.299-2.719,1.433c-0.011,1.09-1.344,3.93-5.073,3.595C154.079,247.03,154.051,245.206,154.051,245.206z"/>
		<g>
			<g>
				<path style="fill:#407BFF;" d="M127.455,215.955l1.429,2.837l1.525,2.926c1.031,1.948,2.058,3.896,3.14,5.798
					c1.081,1.905,2.192,3.766,3.309,5.596c0.561,0.915,1.142,1.802,1.716,2.68c0.283,0.45,0.578,0.873,0.871,1.299l0.439,0.641
					l0.22,0.321l0.063,0.111c0.332,0.575,0.824,1.072,1.429,1.399c0.059,0.109,1.262,0.381,2.168,0.561
					c0.955,0.197,1.964,0.355,2.996,0.496c2.061,0.295,4.215,0.498,6.396,0.665c1.091,0.078,2.192,0.168,3.293,0.222l3.231,0.157
					l1.369,12.458c-1.335,0.296-2.492,0.521-3.736,0.728c-1.224,0.208-2.452,0.407-3.689,0.564
					c-2.477,0.315-4.987,0.527-7.582,0.607c-1.296,0.041-2.613,0.032-3.974-0.025c-0.67-0.016-1.369-0.07-2.069-0.126
					c-0.57-0.025-1.721-0.186-2.662-0.403c-3.898-0.88-7.526-2.969-10.243-5.922l-0.82-0.922l-0.639-0.735
					c-0.427-0.49-0.856-0.981-1.254-1.476c-0.827-0.984-1.604-1.99-2.368-2.993c-1.531-2.005-2.982-4.04-4.335-6.11
					c-1.362-2.067-2.697-4.137-3.944-6.255c-0.618-1.063-1.229-2.129-1.828-3.208c-0.617-1.096-1.16-2.124-1.786-3.371
					L127.455,215.955z"/>
			</g>
			<g style="opacity:0.3;">
				<path style="fill:#FFFFFF;" d="M127.455,215.955l1.429,2.837l1.525,2.926c1.031,1.948,2.058,3.896,3.14,5.798
					c1.081,1.905,2.192,3.766,3.309,5.596c0.561,0.915,1.142,1.802,1.716,2.68c0.283,0.45,0.578,0.873,0.871,1.299l0.439,0.641
					l0.22,0.321l0.063,0.111c0.332,0.575,0.824,1.072,1.429,1.399c0.059,0.109,1.262,0.381,2.168,0.561
					c0.955,0.197,1.964,0.355,2.996,0.496c2.061,0.295,4.215,0.498,6.396,0.665c1.091,0.078,2.192,0.168,3.293,0.222l3.231,0.157
					l1.369,12.458c-1.335,0.296-2.492,0.521-3.736,0.728c-1.224,0.208-2.452,0.407-3.689,0.564
					c-2.477,0.315-4.987,0.527-7.582,0.607c-1.296,0.041-2.613,0.032-3.974-0.025c-0.67-0.016-1.369-0.07-2.069-0.126
					c-0.57-0.025-1.721-0.186-2.662-0.403c-3.898-0.88-7.526-2.969-10.243-5.922l-0.82-0.922l-0.639-0.735
					c-0.427-0.49-0.856-0.981-1.254-1.476c-0.827-0.984-1.604-1.99-2.368-2.993c-1.531-2.005-2.982-4.04-4.335-6.11
					c-1.362-2.067-2.697-4.137-3.944-6.255c-0.618-1.063-1.229-2.129-1.828-3.208c-0.617-1.096-1.16-2.124-1.786-3.371
					L127.455,215.955z"/>
			</g>
		</g>
		<path style="opacity:0.5;fill:#407BFF;" d="M101.382,261.246c0,0-13.852-0.932-17.89-2.884
			C88.365,261.596,95.041,262.027,101.382,261.246z"/>
		<path style="opacity:0.5;fill:#407BFF;" d="M99.818,262.558c0,0-10.199,0.521-13.39-0.549
			C90.392,263.939,95.306,263.675,99.818,262.558z"/>
		<path style="fill:#263238;" d="M101.965,169.556c-15.889-6.889-30-0.705-24.778,10.703c5.222,11.408-6.778,13.613-9,26.519
			s2.818,22.336,16,26.444c16.934,5.278,32.512,2.89,31.556-13.008c-0.957-15.897-10.302-26.659-7.651-34.326
			S112.854,167,101.965,169.556z"/>
		<path style="fill:#263238;" d="M106.382,186.167c-0.029,0-0.058-0.005-0.086-0.016c-0.129-0.048-0.196-0.191-0.148-0.321
			c0.554-1.505,7.691-3.755,8.504-4.006c0.131-0.041,0.272,0.033,0.313,0.165c0.041,0.132-0.033,0.272-0.165,0.313
			c-2.976,0.922-7.829,2.742-8.183,3.702C106.579,186.104,106.483,186.167,106.382,186.167z"/>
		<path style="fill:#FFC3BD;" d="M104.803,189.752c0.733,1.771,2.019,2.859,3.233,3.21c1.826,0.528,2.735-1.782,2.225-4.085
			c-0.459-2.072-1.963-4.844-3.794-4.337C104.664,185.04,103.965,187.728,104.803,189.752z"/>
	</g>
</g>
<g id="Character_2">
	<g>
		<path style="opacity:0.1;fill:#263238;" d="M351.999,410.778c1.801-1.232,3.463-2.65,4.967-4.222h-55.735l-2.706-50.578h67.141
			v-4.222H298.3l-2.706-50.578h70.073v-4.222h-70.299l-2.706-50.578h73.005v-1.82v-2.402h-73.231l-2.706-50.578h41.492v-4.222
			h-41.719l-2.275-42.52h-6.667l14.521,271.399h6.667l-0.292-5.457H351.999z"/>
		<path style="fill:#263238;" d="M365.241,119.461l1.714,10h-78l-1.714-10h-6.667l51.124,298.222h6.667l-1.714-10h78l1.714,10h6.667
			l-51.124-298.222H365.241z M367.679,133.683l8.67,50.578h-78l-8.67-50.578H367.679z M317.138,293.861l-8.67-50.578h78l8.67,50.578
			H317.138z M395.862,298.083l8.671,50.578h-78l-8.671-50.578H395.862z M307.744,239.061l-8.671-50.578h78l8.671,50.578H307.744z
			 M335.927,403.461l-8.671-50.578h78l8.671,50.578H335.927z"/>
		<g>
			<path style="fill:#B55B52;" d="M361.54,121.097c0.436-1.222,1.863-3.164,3.462-3.926c0.456-1.494,0.389-3.11-0.319-4.947
				l17.957-7.56c-0.942,6.247-1.674,11.182,0.866,13.945c-3.433,2.547-9.732,7.133-17.013,7.583
				C359.211,126.642,360.588,123.767,361.54,121.097z"/>
			<path style="fill:#A02724;" d="M360.664,95.959l0.105,6.084c0,0-2.313,0.564-3.696-0.453
				C357.82,98.448,360.664,95.959,360.664,95.959z"/>
			<path style="fill:#263238;" d="M360.76,95.156c-0.068,0.72-0.505,1.265-0.976,1.216c-0.471-0.049-0.798-0.672-0.73-1.393
				c0.068-0.721,0.505-1.265,0.976-1.216C360.501,93.812,360.828,94.436,360.76,95.156z"/>
			<path style="fill:#263238;" d="M359.976,89.487c0.027,0.135,0.119,0.254,0.256,0.309c1.735,0.697,2.056,2.195,2.069,2.258
				c0.047,0.229,0.269,0.378,0.498,0.331c0.229-0.047,0.379-0.27,0.335-0.5c-0.018-0.083-0.408-2.007-2.582-2.88
				c-0.217-0.087-0.465,0.019-0.553,0.238C359.966,89.323,359.96,89.408,359.976,89.487z"/>
			<path style="fill:#B55B52;" d="M385.387,94.916c-1.379,8.793-2.505,14.735-7.99,17.987c-10.898,6.461-16.566,1.06-17.844-7.993
				c-1.15-8.148,1.299-21.159,10.297-23.784C378.715,78.54,386.766,86.122,385.387,94.916z"/>
			<path style="fill:#263238;" d="M366.648,98.905c-4-0.875-5.21-5.242-2.74-6.897c-1.635-3.561-3.997-4.186-3.941-8.395
				c0.056-4.208,4.431-9.25,13.501-8.458c-1.25,0.708-2.542,1.333-2.542,1.333s6.967-1.164,12.68,2.146
				c5.714,3.31,8.875,1.271,8.875,1.271s-0.042,1.917-1.917,2.75c1.458,0.75,4.917,7.667-0.417,13.583
				c-5.333,5.917-7.144,9.854-5.292,12.222c-2.667,2.819-9.042,2.653-13.135,0.389C367.521,106.527,366.648,98.905,366.648,98.905z"
				/>
			<path style="fill:#B55B52;" d="M371.545,97.902c-0.615,1.989-2.097,3.503-3.632,4.27c-2.308,1.154-3.973-0.788-3.759-3.218
				c0.192-2.188,1.625-5.425,4.147-5.569C370.787,93.244,372.248,95.629,371.545,97.902z"/>
			<g>
				<polygon style="fill:#B55B52;" points="358.885,327.576 372.437,327.706 371.925,343.698 360.602,343.607 				"/>
				<polygon style="opacity:0.2;" points="358.888,327.582 372.445,327.711 372.155,336.666 359.847,336.559 				"/>
			</g>
			<path style="fill:#407BFF;" d="M373.273,263.879c4.729-21.036,12.562-43.254,4.31-62.135l-37.659,3.287
				c0,0,3.725,44.782,4.733,63.705c1.046,19.676,13.813,65.071,13.813,65.071l15.509,0.039
				C373.979,333.846,376.395,285.664,373.273,263.879z"/>
			<path style="fill:#263238;" d="M374.093,348.649h-3.577l-0.864-1.196l-1.481,1.208h-19.977c-0.445-1.768,0.536-4.075,0.536-4.075
				s6.932-1.124,9.618-2.967c0.437-0.3,0.989-0.436,1.58-0.322c2.42,0.468,8.817,1.502,12.276,0.152
				c0.329-0.129,0.748,0.154,0.773,0.528C373.181,345.063,374.093,348.649,374.093,348.649z"/>
			<g>
				<polygon style="fill:#B55B52;" points="416.927,310.48 429.486,305.365 436.208,319.887 425.722,324.177 				"/>
				<polygon style="opacity:0.2;" points="416.932,310.484 429.496,305.366 433.257,313.499 421.855,318.155 				"/>
			</g>
			<path style="fill:#407BFF;" d="M415.633,260.047c-0.761-20.54-2.045-51.252-9.747-60.032l-42.143,2.862
				c0,0,15.744,43.695,21.817,62.159c6.312,19.199,33.841,51.163,33.841,51.163l13.537-5.623
				C432.939,310.575,423.233,282.878,415.633,260.047z"/>
			<path style="fill:#407BFF;" d="M355.436,119.466c11.024-2.167,25.899-3.373,37.578-2.798c7.289,0.358,12.673,6.867,11.903,14.124
				c-3.176,29.912,2.907,65.064,2.831,70.927c0,0-54.929,22.612-69.621,5.483c-7.094-35.644,3.113-66.693,7.882-79.667
				C347.534,123.385,351.099,120.318,355.436,119.466z"/>
			<path style="opacity:0.1;fill:#263238;" d="M373.27,263.88c0.4,2.74,0.7,5.9,0.93,9.33c-9.52,1.57-19.43,2.49-28.87,2.36
				c-0.33-2.5-0.56-4.8-0.67-6.83c-0.15-2.82-0.36-6.21-0.61-9.94c9.93,0.54,20.3,0.38,30.48-0.28
				C374.09,260.31,373.67,262.1,373.27,263.88z"/>
			<path style="opacity:0.1;fill:#263238;" d="M416,261.13c-6.95,3.32-16.94,6.71-28.25,9.37c-0.88-1.9-1.62-3.74-2.19-5.46
				c-0.69-2.1-1.51-4.54-2.41-7.19c11.58-1.06,22.65-2.71,32.21-4.64c0.1,2.37,0.19,4.66,0.27,6.84
				C415.75,260.41,415.88,260.77,416,261.13z"/>
			<g>
				<path style="fill:#407BFF;" d="M418.527,253.655c-7.98,7.97-41.23,17.9-67.21,13.88c-2.23-4.57-3.63-10.38-3.63-10.38
					s-1.04,5.01-0.8,9.53c-2.72-0.62-5.34-1.41-7.8-2.4c-1.77-13.58-6.35-66.59-4.28-94.94c2.07-28.35,11.44-46.21,13.36-47.54
					c1.92-1.33,14.73-4.95,29.45-6.07c13.45-1.02,25.44,2.29,27.77,6.29c3.83,5.98,0.88,50.28,2.36,64.01
					C409.227,199.765,417.347,232.106,418.527,253.655z"/>
				<path style="opacity:0.3;fill:#FFFFFF;" d="M418.527,253.655c-7.98,7.97-41.23,17.9-67.21,13.88
					c-2.23-4.57-3.63-10.38-3.63-10.38s-1.04,5.01-0.8,9.53c-2.72-0.62-5.34-1.41-7.8-2.4c-1.77-13.58-6.35-66.59-4.28-94.94
					c2.07-28.35,11.44-46.21,13.36-47.54c1.92-1.33,14.73-4.95,29.45-6.07c13.45-1.02,25.44,2.29,27.77,6.29
					c3.83,5.98,0.88,50.28,2.36,64.01C409.227,199.765,417.347,232.106,418.527,253.655z"/>
			</g>
			<path style="fill:#263238;" d="M440.529,320.669l-2.23,1.928l-1.386-0.382l-0.38,1.926l-13.456,11.635
				c-1.42-1.109-2.091-3.579-2.091-3.579s3.708-3.845,3.521-7.189c-0.014-0.258,0.1-0.503,0.326-0.628
				c1.583-0.878,7.775-4.474,9.794-8.062c0.219-0.389,0.74-0.463,1.037-0.13C437.703,318.472,440.529,320.669,440.529,320.669z"/>
			<path style="fill:#B55B52;" d="M298.809,160.303l0.244,5.704c-1.884,5.696-8.788,2.008-8.788,2.008l-4.036-0.433
				c-1.368-0.147-2.431-1.419-2.511-3.006l-0.201-3.987c-0.092-1.817,1.126-3.385,2.7-3.475l3.537-0.203
				c1.029-0.059,2.057,0.137,2.991,0.572L298.809,160.303z"/>
			<path style="fill:#B55B52;" d="M300.023,161.155c-1.686-4.601-6.069-5.07-9.343-6.497c-0.556-0.242-1.687,0.913-1.114,1.851
				c1.003,1.643,1.845,2.161,2.999,2.552c-0.084,1.531,1.195,5.777,5.514,6.052C299.828,163.707,300.023,161.155,300.023,161.155z"
				/>
			<path style="opacity:0.5;fill:#407BFF;" d="M338.037,147.725c-1.45,6.25-2.64,13.5-3.23,21.62c-0.07,0.94-0.13,1.91-0.18,2.91
				c7.063-6.433,11.722-16.389,11.73-22.6C346.364,146.641,342.287,145.755,338.037,147.725z"/>
			<path style="opacity:0.5;fill:#407BFF;" d="M379.775,186.015c0,0,16.606-1.366,21.446-4.227
				C395.38,186.527,387.376,187.16,379.775,186.015z"/>
			<path style="opacity:0.5;fill:#407BFF;" d="M381.65,187.938c0,0,12.227,0.764,16.051-0.805
				C392.949,189.962,387.059,189.575,381.65,187.938z"/>
			<g>
				<g>
					<path style="fill:#407BFF;" d="M364.051,137.242c-2.267,2.435-4.573,4.759-6.872,7.126c-2.311,2.348-4.667,4.652-7.015,6.971
						c-4.694,4.646-9.504,9.174-14.502,13.679l-2.06,1.856l-1.825,0.503c-3.579,0.985-6.501,1.335-9.494,1.704
						c-2.96,0.349-5.849,0.546-8.711,0.701c-2.866,0.137-5.71,0.224-8.548,0.234c-2.853-0.014-5.64-0.024-8.548-0.167l-1.021-14.334
						l7.954-1.622c2.658-0.535,5.301-1.073,7.912-1.636c2.616-0.538,5.192-1.145,7.67-1.754c2.438-0.606,4.951-1.317,6.638-2.012
						l-3.885,2.359l13.004-14.32l6.529-7.231c2.2-2.382,4.382-4.818,6.582-7.163L364.051,137.242z"/>
				</g>
				<g style="opacity:0.3;">
					<path style="fill:#FFFFFF;" d="M364.051,137.242c-2.267,2.435-4.573,4.759-6.872,7.126c-2.311,2.348-4.667,4.652-7.015,6.971
						c-4.694,4.646-9.504,9.174-14.502,13.679l-2.06,1.856l-1.825,0.503c-3.579,0.985-6.501,1.335-9.494,1.704
						c-2.96,0.349-5.849,0.546-8.711,0.701c-2.866,0.137-5.71,0.224-8.548,0.234c-2.853-0.014-5.64-0.024-8.548-0.167l-1.021-14.334
						l7.954-1.622c2.658-0.535,5.301-1.073,7.912-1.636c2.616-0.538,5.192-1.145,7.67-1.754c2.438-0.606,4.951-1.317,6.638-2.012
						l-3.885,2.359l13.004-14.32l6.529-7.231c2.2-2.382,4.382-4.818,6.582-7.163L364.051,137.242z"/>
				</g>
			</g>
		</g>
	</g>
</g>
</svg>
