<?xml version="1.0" encoding="utf-8"?>
<!-- Generator: Adobe Illustrator 27.5.0, SVG Export Plug-In . SVG Version: 6.00 Build 0)  -->
<svg version="1.1" xmlns="http://www.w3.org/2000/svg" xmlns:xlink="http://www.w3.org/1999/xlink" x="0px" y="0px"
	 viewBox="0 0 500 500" style="enable-background:new 0 0 500 500;" xml:space="preserve">
<g id="Background_Complete">
	<g>
		<rect y="382.398" style="fill:#EBEBEB;" width="500" height="0.25"/>
		<rect x="416.779" y="398.494" style="fill:#EBEBEB;" width="33.122" height="0.25"/>
		<rect x="322.527" y="401.208" style="fill:#EBEBEB;" width="8.693" height="0.25"/>
		<rect x="396.586" y="389.208" style="fill:#EBEBEB;" width="19.192" height="0.25"/>
		<rect x="52.459" y="390.888" style="fill:#EBEBEB;" width="43.193" height="0.25"/>
		<rect x="104.556" y="390.888" style="fill:#EBEBEB;" width="6.333" height="0.25"/>
		<rect x="131.471" y="395.111" style="fill:#EBEBEB;" width="93.676" height="0.25"/>
		<path style="fill:#EBEBEB;" d="M237.014,337.8H43.915c-3.147,0-5.708-2.561-5.708-5.708V60.66c0-3.147,2.561-5.708,5.708-5.708
			h193.099c3.146,0,5.707,2.561,5.707,5.708v271.432C242.721,335.239,240.16,337.8,237.014,337.8z M43.915,55.203
			c-3.01,0-5.458,2.448-5.458,5.458v271.432c0,3.01,2.448,5.458,5.458,5.458h193.099c3.009,0,5.457-2.448,5.457-5.458V60.66
			c0-3.009-2.448-5.458-5.457-5.458H43.915z"/>
		<path style="fill:#EBEBEB;" d="M453.31,337.8H260.212c-3.147,0-5.707-2.561-5.707-5.708V60.66c0-3.147,2.561-5.708,5.707-5.708
			H453.31c3.148,0,5.708,2.561,5.708,5.708v271.432C459.019,335.239,456.458,337.8,453.31,337.8z M260.212,55.203
			c-3.009,0-5.457,2.448-5.457,5.458v271.432c0,3.01,2.448,5.458,5.457,5.458H453.31c3.01,0,5.458-2.448,5.458-5.458V60.66
			c0-3.009-2.448-5.458-5.458-5.458H260.212z"/>
	</g>
	<g>
		<g>
			<polygon style="fill:#E0E0E0;" points="220.143,290.04 209.659,290.04 202.736,290.04 222.121,306.08 225.681,306.08 
				228.846,306.08 224.325,299.207 237.529,306.08 240.714,306.08 244.473,306.08 			"/>
			<g>
				<polygon style="fill:#E0E0E0;" points="82.736,306.08 89.68,306.08 105.088,298.06 98.363,306.08 105.088,306.08 
					124.473,290.04 107.066,290.04 				"/>
				<polygon style="fill:#F0F0F0;" points="101.527,306.08 117.549,290.04 107.066,290.04 82.736,306.08 86.494,306.08 
					105.088,295.857 98.363,306.08 				"/>
			</g>
			<path style="fill:#E0E0E0;" d="M47.31,306.08v76.09h234.33v-76.09H47.31z M277.81,335.88H89.68v-24.87h188.13V335.88z"/>
			<path style="fill:#EBEBEB;" d="M84.56,306.08v76.09h197.08v-76.09H84.56z M277.81,335.88H89.68v-24.87h188.13V335.88z"/>
			<rect x="243.511" y="311.015" style="fill:#E0E0E0;" width="34.303" height="24.864"/>
			<rect x="89.68" y="323.447" style="fill:#E0E0E0;" width="49.672" height="12.432"/>
			<rect x="142.481" y="328.495" style="fill:#E0E0E0;" width="31.948" height="7.385"/>
			<rect x="181.813" y="320.775" style="fill:#E0E0E0;" width="37.67" height="15.105"/>
			<polygon style="fill:#E0E0E0;" points="127.079,341.295 126.167,344.266 113.951,344.266 113.04,341.295 89.68,341.295 
				89.68,374.306 150.439,374.306 150.439,341.295 			"/>
			<polygon style="fill:#E0E0E0;" points="190.686,341.295 189.775,344.266 177.559,344.266 176.647,341.295 153.288,341.295 
				153.288,374.306 214.046,374.306 214.046,341.295 			"/>
			<polygon style="fill:#E0E0E0;" points="254.294,341.295 253.382,344.266 241.166,344.266 240.255,341.295 216.895,341.295 
				216.895,374.306 277.654,374.306 277.654,341.295 			"/>
			<g>
				<path style="fill:#E0E0E0;" d="M241.225,292.163H78.09c-1.95,0-3.53-1.581-3.53-3.53v-95.778c0-1.95,1.581-3.53,3.53-3.53
					h163.134c1.95,0,3.53,1.581,3.53,3.53v95.778C244.755,290.583,243.174,292.163,241.225,292.163z"/>
				<path style="fill:#E6E6E6;" d="M245.225,292.163H82.09c-1.95,0-3.53-1.581-3.53-3.53v-95.778c0-1.95,1.581-3.53,3.53-3.53
					h163.134c1.95,0,3.53,1.581,3.53,3.53v95.778C248.755,290.583,247.174,292.163,245.225,292.163z"/>
				
					<rect x="117.238" y="160.646" transform="matrix(-1.836970e-16 1 -1 -1.836970e-16 404.4012 77.0862)" style="fill:#F0F0F0;" width="92.839" height="160.195"/>
			</g>
		</g>
		<g>
			<path style="fill:#E0E0E0;" d="M448.873,93.162H289.552c-1.172,0-2.122-0.95-2.122-2.122v-2.268c0-1.172,0.95-2.122,2.122-2.122
				h159.321c1.172,0,2.122,0.95,2.122,2.122v2.268C450.995,92.212,450.045,93.162,448.873,93.162z"/>
			<rect x="297.147" y="91.831" style="fill:#E6E6E6;" width="144.132" height="127.895"/>
			<rect x="300.756" y="95.336" style="fill:#F0F0F0;" width="136.729" height="120.953"/>
			<polygon style="fill:#FFFFFF;" points="332.845,95.336 300.756,216.026 300.756,159.315 317.698,95.336 			"/>
			<polygon style="fill:#FFFFFF;" points="344.21,95.336 311.839,216.289 306.673,216.289 339.043,95.336 			"/>
			<polygon style="fill:#FFFFFF;" points="437.485,171.658 437.485,190.986 430.935,216.289 425.769,216.289 			"/>
			<rect x="346.142" y="93.162" style="fill:#E6E6E6;" width="2.304" height="125.828"/>
			<rect x="390.777" y="93.162" style="fill:#E6E6E6;" width="2.303" height="125.828"/>
			<g>
				<path style="fill:#E0E0E0;" d="M417.789,88.731c0,0,3.314,43.271,22.385,65.324c0,0-13.889,55.686-13.879,75.104l25.813-4.764
					l-9.304-70.017l4.45-65.647H417.789z"/>
				<path style="fill:#E0E0E0;" d="M320.637,88.731c0,0-3.314,43.271-22.385,65.324c0,0,13.889,55.686,13.879,75.104l-25.813-4.764
					l9.304-70.017l-4.45-65.647H320.637z"/>
			</g>
		</g>
		<g>
			
				<ellipse transform="matrix(0.7071 -0.7071 0.7071 0.7071 -33.7311 148.8882)" style="fill:#E0E0E0;" cx="162.858" cy="115.161" rx="23.554" ry="23.554"/>
			
				<ellipse transform="matrix(0.8358 -0.549 0.549 0.8358 -36.4858 108.318)" style="fill:#F0F0F0;" cx="162.858" cy="115.161" rx="20.027" ry="20.027"/>
			
				<polyline style="fill:#F0F0F0;stroke:#E0E0E0;stroke-width:2;stroke-linecap:round;stroke-linejoin:round;stroke-miterlimit:10;" points="
				163.803,101.423 163.803,115.423 173.081,110.173 			"/>
		</g>
		<g>
			<g>
				<g>
					<path style="fill:#E0E0E0;" d="M416.737,345.556c-0.013-0.396-1.344-39.676-7.733-45.889
						c-6.214-6.041-13.347-0.225-13.646,0.025l-0.641-0.768c0.081-0.068,8.13-6.639,14.984,0.025
						c6.676,6.492,7.982,44.94,8.035,46.574L416.737,345.556z"/>
				</g>
				<g>
					<path style="fill:#E0E0E0;" d="M417.286,353.275c-0.046-0.47-4.367-47.156,12.683-66.724l0.754,0.656
						c-16.767,19.243-12.487,65.505-12.442,65.97L417.286,353.275z"/>
				</g>
				<g>
					<path style="fill:#E0E0E0;" d="M416.655,348.337l-0.998-0.066c0.035-0.529,3.337-53.076-9.169-64.579l0.677-0.736
						C420.022,294.781,416.799,346.155,416.655,348.337z"/>
				</g>
				<g>
					<path style="fill:#E0E0E0;" d="M418.283,348.308l-1-0.008c0.012-1.447,0.413-35.493,10.083-41.035
						c2.15-1.233,4.255-1.438,6.257-0.61c5.848,2.419,8.746,12.826,8.866,13.268l-0.965,0.264
						c-0.028-0.103-2.89-10.377-8.285-12.607c-1.701-0.702-3.509-0.517-5.377,0.554
						C418.687,313.391,418.286,347.959,418.283,348.308z"/>
				</g>
				<g>
					<path style="fill:#E0E0E0;" d="M414.517,348.332l-0.998-0.057c0.015-0.269,1.459-26.904-5.729-36.289
						c-1.742-2.273-3.632-3.357-5.63-3.218c-4.71,0.329-8.66,7.222-8.699,7.291l-0.871-0.492c0.171-0.303,4.252-7.429,9.499-7.796
						c2.347-0.167,4.535,1.049,6.495,3.607C415.998,321.058,414.581,347.224,414.517,348.332z"/>
				</g>
				<g>
					<path style="fill:#E0E0E0;" d="M416.093,351.955c-0.196-2.584-4.699-63.402,3.225-74.119l0.804,0.594
						c-7.705,10.421-3.079,72.82-3.031,73.449L416.093,351.955z"/>
				</g>
			</g>
			<g>
				<path style="fill:#EBEBEB;" d="M435.779,312.818c0,0-4.754,1.752-3.34,5.89c1.413,4.137,16.445,10.946,16.445,10.946
					s6.295-5.77,0.514-15.154C443.616,305.116,435.907,309.857,435.779,312.818z"/>
			</g>
			<g>
				<path style="fill:#EBEBEB;" d="M415.114,304.942c0,0,5.062-0.212,5.349,4.151c0.288,4.363-10.966,16.432-10.966,16.432
					s-8.031-2.903-6.306-13.79C404.917,300.849,413.856,302.259,415.114,304.942z"/>
			</g>
			<g>
				<path style="fill:#EBEBEB;" d="M410.828,284.06c0,0,3.375-0.362,3.103-2.418c-0.272-2.056-13.119-7.346-20.699,1.209
					c0,0,4.854,8.337,11.87,8.446C412.118,291.406,410.828,284.06,410.828,284.06z"/>
			</g>
			<g>
				<path style="fill:#EBEBEB;" d="M417.117,279.068c0,0-3.056,1.478-3.912-0.411c-0.857-1.888,7.249-13.173,18.206-9.922
					c0,0,0.29,9.643-5.606,13.446C419.908,285.985,417.117,279.068,417.117,279.068z"/>
			</g>
			<g>
				<path style="fill:#EBEBEB;" d="M401.139,311.155c0,0,2.329-1.881-0.184-2.798c-2.514-0.918-14.847-0.657-14.976,11.56
					c0,0,14.365,2.387,16.143-2.266C403.899,312.996,401.139,311.155,401.139,311.155z"/>
			</g>
			<g>
				<path style="fill:#EBEBEB;" d="M430.431,283.754c0,0-2.329-1.881,0.184-2.799c2.514-0.918,14.847-0.657,14.976,11.56
					c0,0-14.365,2.387-16.143-2.267C427.67,285.595,430.431,283.754,430.431,283.754z"/>
			</g>
			<g>
				<path style="fill:#EBEBEB;" d="M422.837,293.595c0,0-0.205-2.286,1.641-1.39c1.846,0.896,8.275,7.833,1.61,14.415
					c0,0-8.971-6.645-7.354-10.105C420.351,293.055,422.837,293.595,422.837,293.595z"/>
			</g>
			<g>
				<path style="fill:#EBEBEB;" d="M399.056,296.853c0,0,1.392-1.825-0.647-2.051c-2.039-0.226-11.177,2.213-9.049,11.335
					c0,0,11.133-0.837,11.61-4.626C401.448,297.722,399.056,296.853,399.056,296.853z"/>
			</g>
			<polygon style="fill:#F0F0F0;" points="436.668,382.17 398.469,382.17 394.349,340.348 440.789,340.348 			"/>
			<rect x="392.309" y="335.734" style="fill:#E6E6E6;" width="50.519" height="9.228"/>
		</g>
	</g>
</g>
<g id="Background_Simple" style="display:none;">
	<g style="display:inline;">
		<path style="fill:#407BFF;" d="M225.828,99.782c40.564,16.637,59.215,71.643,36.846,109.458
			c-14.855,25.111-76.545,42.873-53.736,81.255c18.326,30.837,51.041,9.512,63.603-13.136
			c17.376-31.328,36.098-75.978,79.817-70.493c38.697,4.855,51.806,42.03,48.063,76.597
			c-11.474,105.951-138.119,143.998-221.85,93.632c-61.174-36.798-97.545-117.679-78.834-187.437
			c9.88-36.834,37.767-73.491,73.397-88.533C192.479,92.956,210.552,93.516,225.828,99.782z"/>
		<path style="opacity:0.9;fill:#FFFFFF;" d="M225.828,99.782c40.564,16.637,59.215,71.643,36.846,109.458
			c-14.855,25.111-76.545,42.873-53.736,81.255c18.326,30.837,51.041,9.512,63.603-13.136
			c17.376-31.328,36.098-75.978,79.817-70.493c38.697,4.855,51.806,42.03,48.063,76.597
			c-11.474,105.951-138.119,143.998-221.85,93.632c-61.174-36.798-97.545-117.679-78.834-187.437
			c9.88-36.834,37.767-73.491,73.397-88.533C192.479,92.956,210.552,93.516,225.828,99.782z"/>
	</g>
</g>
<g id="Shadow_1_">
	<ellipse id="_x3C_Path_x3E__359_" style="fill:#F5F5F5;" cx="250" cy="416.238" rx="193.889" ry="11.323"/>
</g>
<g id="Fitness_mat">
	<g>
		<g>
			<polygon style="fill:#407BFF;" points="93.681,419.747 306.141,405.701 433.34,413.055 234.396,427.525 			"/>
			<polygon style="opacity:0.4;fill:#FFFFFF;enable-background:new    ;" points="93.681,419.747 306.141,405.701 433.34,413.055 
				234.396,427.525 			"/>
		</g>
		<g>
			<path style="fill:#263238;" d="M289.769,384.143h-120c-2.695,0-4.879,4.65-4.879,10.386c0,5.736,2.185,10.386,4.879,10.386h120
				c2.695,0,4.879-4.65,4.879-10.386C294.648,388.793,292.464,384.143,289.769,384.143z"/>
			<path style="opacity:0.2;fill:#FFFFFF;enable-background:new    ;" d="M289.769,384.143h-120c-2.695,0-4.879,4.65-4.879,10.386
				c0,5.736,2.185,10.386,4.879,10.386h120c2.695,0,4.879-4.65,4.879-10.386C294.648,388.793,292.464,384.143,289.769,384.143z"/>
			<path style="opacity:0.2;fill:#FFFFFF;enable-background:new    ;" d="M174.648,394.529c0,5.736-2.185,10.386-4.879,10.386
				c-2.695,0-4.879-4.65-4.879-10.386c0-5.736,2.184-10.386,4.879-10.386C172.464,384.143,174.648,388.793,174.648,394.529z"/>
			<g style="opacity:0.2;enable-background:new    ;">
				<path d="M174.608,395.849c-0.269-1.543-0.627-3.07-1.069-4.566c-0.459-1.482-0.991-2.983-1.882-4.215
					c-0.442-0.599-1.043-1.123-1.714-1.14c-0.691-0.032-1.238,0.486-1.618,1.115c-0.757,1.281-1.081,2.833-1.297,4.344
					c-0.204,1.526-0.239,3.076-0.16,4.609c0.095,1.525,0.321,3.072,0.894,4.432c0.287,0.668,0.692,1.294,1.227,1.61
					c0.532,0.307,1.202,0.279,1.641-0.129c0.467-0.409,0.774-1.097,0.979-1.795c0.209-0.707,0.314-1.459,0.39-2.213
					c0.139-1.513,0.084-3.06-0.125-4.574c-0.226-1.492-0.566-3.058-1.341-4.242c-0.194-0.284-0.434-0.517-0.67-0.617
					c-0.055-0.024-0.127-0.042-0.165-0.048c-0.013-0.004-0.016-0.001-0.042,0.009c-0.051,0.016-0.154,0.123-0.235,0.25
					c-0.339,0.552-0.525,1.329-0.667,2.063c-0.269,1.499-0.382,3.052-0.347,4.591c0.019,0.77,0.077,1.539,0.2,2.29
					c0.131,0.735,0.311,1.518,0.717,2.045c0.199,0.252,0.492,0.375,0.645,0.256c0.205-0.131,0.371-0.496,0.473-0.839
					c0.208-0.712,0.286-1.489,0.331-2.257c0.038-0.771,0.027-1.549-0.038-2.321c-0.083-0.748-0.146-1.593-0.516-2.187
					c-0.083-0.11-0.247-0.119-0.357-0.011c-0.119,0.106-0.2,0.284-0.26,0.46c-0.121,0.358-0.17,0.747-0.204,1.132
					c-0.028,0.387-0.03,0.778,0.006,1.165c0.054,0.371,0.064,0.814,0.365,1.076c-0.32-0.248-0.356-0.697-0.432-1.068
					c-0.059-0.39-0.08-0.785-0.074-1.18c0.01-0.395,0.045-0.793,0.157-1.183c0.06-0.193,0.13-0.393,0.296-0.56
					c0.156-0.184,0.517-0.203,0.683,0.008c0.284,0.358,0.364,0.751,0.469,1.137c0.092,0.388,0.159,0.78,0.21,1.173
					c0.102,0.786,0.149,1.577,0.145,2.371c-0.009,0.794-0.055,1.593-0.268,2.392c-0.124,0.391-0.233,0.823-0.674,1.162
					c-0.228,0.168-0.587,0.188-0.819,0.084c-0.239-0.085-0.444-0.25-0.591-0.423c-0.572-0.718-0.742-1.528-0.916-2.312
					c-0.154-0.791-0.236-1.586-0.279-2.381c-0.074-1.59-0.031-3.184,0.24-4.772c0.156-0.794,0.301-1.585,0.77-2.384
					c0.133-0.195,0.28-0.413,0.587-0.569c0.148-0.075,0.345-0.12,0.527-0.094c0.155,0.021,0.273,0.055,0.4,0.105
					c0.49,0.208,0.814,0.566,1.067,0.918c0.958,1.451,1.277,3.048,1.545,4.624c0.236,1.585,0.31,3.19,0.18,4.799
					c-0.065,0.805-0.201,1.609-0.439,2.405c-0.25,0.784-0.577,1.607-1.299,2.244c-0.359,0.31-0.853,0.531-1.348,0.548
					c-0.485,0.031-0.979-0.102-1.39-0.345c-0.819-0.511-1.262-1.302-1.588-2.057c-0.627-1.543-0.83-3.152-0.917-4.744
					c-0.08-1.596,0.032-3.191,0.287-4.764c0.279-1.563,0.646-3.147,1.532-4.553c0.231-0.343,0.5-0.678,0.863-0.935
					c0.357-0.267,0.827-0.401,1.272-0.379c0.947,0.059,1.596,0.761,2.042,1.406c0.894,1.358,1.354,2.887,1.758,4.403
					C174.157,392.743,174.427,394.292,174.608,395.849z"/>
			</g>
		</g>
		<g>
			<g>
				<path style="fill:#263238;" d="M135.959,395.742c-0.518,0-2.482,0-3,0c-3.391,0-6.14,3.474-6.14,7.76
					c0,4.286,2.749,7.76,6.14,7.76c0.518,0,2.482,0,3,0c3.391,0,6.14-3.474,6.14-7.76
					C142.099,399.216,139.35,395.742,135.959,395.742z"/>
				<path style="opacity:0.1;fill:#FFFFFF;enable-background:new    ;" d="M135.959,395.742c-0.518,0-2.482,0-3,0
					c-3.391,0-6.14,3.474-6.14,7.76c0,4.286,2.749,7.76,6.14,7.76c0.518,0,2.482,0,3,0c3.391,0,6.14-3.474,6.14-7.76
					C142.099,399.216,139.35,395.742,135.959,395.742z"/>
				<ellipse style="opacity:0.2;fill:#FFFFFF;enable-background:new    ;" cx="135.959" cy="403.502" rx="6.14" ry="7.76"/>
			</g>
			<g>
				<path style="fill:#263238;" d="M148.219,400.487c-0.201,0-10.964,0-11.166,0c-1.318,0-2.386,1.35-2.386,3.015
					c0,1.665,1.068,3.015,2.386,3.015c0.201,0,10.964,0,11.166,0c1.318,0,2.386-1.35,2.386-3.015
					C150.604,401.837,149.536,400.487,148.219,400.487z"/>
			</g>
			<g>
				<path style="fill:#263238;" d="M151.959,395.742c-0.518,0-2.482,0-3,0c-3.391,0-6.14,3.474-6.14,7.76
					c0,4.286,2.749,7.76,6.14,7.76c0.518,0,2.482,0,3,0c3.391,0,6.14-3.474,6.14-7.76
					C158.099,399.216,155.35,395.742,151.959,395.742z"/>
				<path style="opacity:0.1;fill:#FFFFFF;enable-background:new    ;" d="M151.959,395.742c-0.518,0-2.482,0-3,0
					c-3.391,0-6.14,3.474-6.14,7.76c0,4.286,2.749,7.76,6.14,7.76c0.518,0,2.482,0,3,0c3.391,0,6.14-3.474,6.14-7.76
					C158.099,399.216,155.35,395.742,151.959,395.742z"/>
				<ellipse style="opacity:0.2;fill:#FFFFFF;enable-background:new    ;" cx="151.959" cy="403.502" rx="6.14" ry="7.76"/>
			</g>
		</g>
		<g>
			<g>
				<path style="fill:#407BFF;" d="M172.744,400.208c0.367,0,1.757,0,2.123,0c2.4,0,4.346,2.459,4.346,5.493
					c0,3.034-1.946,5.493-4.346,5.493c-0.367,0-1.757,0-2.123,0c-2.4,0-4.346-2.459-4.346-5.493
					C168.398,402.667,170.344,400.208,172.744,400.208z"/>
				<path style="opacity:0.2;fill:#FFFFFF;enable-background:new    ;" d="M168.398,405.701c0,3.034,1.946,5.493,4.346,5.493
					c2.4,0,4.346-2.459,4.346-5.493c0-3.034-1.946-5.493-4.346-5.493C170.344,400.208,168.398,402.667,168.398,405.701z"/>
			</g>
			<g>
				<path style="fill:#407BFF;" d="M164.066,403.567c0.142,0,7.76,0,7.903,0c0.933,0,1.689,0.955,1.689,2.134
					c0,1.179-0.756,2.134-1.689,2.134c-0.143,0-7.76,0-7.903,0c-0.933,0-1.689-0.956-1.689-2.134
					C162.378,404.522,163.134,403.567,164.066,403.567z"/>
				<g style="opacity:0.2;enable-background:new    ;">
					<path d="M164.066,403.567c0.142,0,7.76,0,7.903,0c0.933,0,1.689,0.955,1.689,2.134c0,1.179-0.756,2.134-1.689,2.134
						c-0.143,0-7.76,0-7.903,0c-0.933,0-1.689-0.956-1.689-2.134C162.378,404.522,163.134,403.567,164.066,403.567z"/>
				</g>
			</g>
			<g>
				<path style="fill:#407BFF;" d="M161.419,400.208c0.367,0,1.757,0,2.123,0c2.4,0,4.346,2.459,4.346,5.493
					c0,3.034-1.946,5.493-4.346,5.493c-0.367,0-1.757,0-2.123,0c-2.4,0-4.346-2.459-4.346-5.493
					C157.073,402.667,159.019,400.208,161.419,400.208z"/>
				<path style="opacity:0.2;fill:#FFFFFF;enable-background:new    ;" d="M157.073,405.701c0,3.034,1.946,5.493,4.346,5.493
					c2.4,0,4.346-2.459,4.346-5.493c0-3.034-1.946-5.493-4.346-5.493C159.019,400.208,157.073,402.667,157.073,405.701z"/>
			</g>
		</g>
		<g>
			<g>
				<path style="fill:#407BFF;" d="M100.639,383.885v-3.522h-6.162v3.522c0,0.948-0.4,1.851-1.102,2.488l0,0
					c-0.702,0.637-1.102,1.54-1.102,2.488V409.1c0,0.984,0.797,1.781,1.781,1.781h7.008c0.984,0,1.781-0.798,1.781-1.781v-20.238
					c0-0.948-0.4-1.852-1.102-2.488l0,0C101.039,385.736,100.639,384.833,100.639,383.885z"/>
				<path style="opacity:0.2;enable-background:new    ;" d="M100.639,383.885v-3.522h-6.162v3.522c0,0.948-0.4,1.851-1.102,2.488
					l0,0c-0.702,0.637-1.102,1.54-1.102,2.488V409.1c0,0.984,0.797,1.781,1.781,1.781h7.008c0.984,0,1.781-0.798,1.781-1.781
					v-20.238c0-0.948-0.4-1.852-1.102-2.488l0,0C101.039,385.736,100.639,384.833,100.639,383.885z"/>
				<path style="opacity:0.5;fill:#FFFFFF;enable-background:new    ;" d="M102.843,393.726v-4.864c0-0.948-0.4-1.852-1.102-2.488
					c-0.702-0.637-1.103-1.541-1.103-2.488v-3.522h-6.162v3.522c0,0.948-0.4,1.852-1.102,2.488c-0.702,0.637-1.103,1.54-1.103,2.488
					v4.864H102.843z"/>
				<path style="opacity:0.6;fill:#FFFFFF;enable-background:new    ;" d="M92.273,400.802v8.297c0,0.984,0.798,1.781,1.782,1.781
					h7.008c0.984,0,1.781-0.798,1.781-1.781v-8.297H92.273z"/>
				<path style="fill:#407BFF;" d="M100.667,382.165H94.45c-0.291,0-0.527-0.236-0.527-0.527v-1.714
					c0-0.291,0.236-0.527,0.527-0.527h6.217c0.291,0,0.527,0.236,0.527,0.527v1.714
					C101.194,381.929,100.958,382.165,100.667,382.165z"/>
			</g>
			<g>
				<path style="fill:#407BFF;" d="M110.639,375.885v-3.522h-6.162v3.522c0,0.948-0.4,1.851-1.102,2.488l0,0
					c-0.702,0.637-1.102,1.54-1.102,2.488V409.1c0,0.984,0.797,1.781,1.781,1.781h7.008c0.984,0,1.781-0.798,1.781-1.781v-28.238
					c0-0.948-0.4-1.852-1.102-2.488l0,0C111.039,377.736,110.639,376.833,110.639,375.885z"/>
				<path style="opacity:0.6;fill:#FFFFFF;enable-background:new    ;" d="M112.843,389.726v-8.864c0-0.948-0.4-1.852-1.102-2.488
					c-0.702-0.637-1.103-1.541-1.103-2.488v-3.522h-6.162v3.522c0,0.948-0.4,1.852-1.102,2.488c-0.702,0.637-1.103,1.54-1.103,2.488
					v8.864H112.843z"/>
				<path style="opacity:0.6;fill:#FFFFFF;enable-background:new    ;" d="M102.273,400.802v8.297c0,0.984,0.798,1.781,1.782,1.781
					h7.008c0.984,0,1.781-0.798,1.781-1.781v-8.297H102.273z"/>
				<path style="fill:#407BFF;" d="M110.667,374.165h-6.217c-0.291,0-0.527-0.236-0.527-0.527v-1.714
					c0-0.291,0.236-0.527,0.527-0.527h6.217c0.291,0,0.527,0.236,0.527,0.527v1.714
					C111.194,373.929,110.958,374.165,110.667,374.165z"/>
			</g>
		</g>
		<g>
			<path style="fill:#407BFF;" d="M71.89,401.681h35.022c2.365,0,4.282,1.917,4.282,4.282v1.92c0,2.365-1.917,4.282-4.282,4.282
				H64.512c-2.365,0-4.282-1.917-4.282-4.282l0,0c0-2.365,1.917-4.282,4.282-4.282h6.752v-1.294
				C71.264,401.962,71.544,401.681,71.89,401.681z"/>
			<path style="opacity:0.5;fill:#FFFFFF;enable-background:new    ;" d="M98.89,401.681h8.022c2.365,0,4.282,1.917,4.282,4.282
				v1.92c0,2.365-1.917,4.282-4.282,4.282H91.512c-2.365,0-4.282-1.917-4.282-4.282l0,0c0-2.365,1.917-4.282,4.282-4.282h6.752
				v-1.294C98.264,401.962,98.544,401.681,98.89,401.681z"/>
			<path style="opacity:0.2;" d="M98.264,403.601l4.575-0.132l2.287-0.056c0.386-0.005,0.75-0.03,1.165-0.009
				c0.404,0.036,0.803,0.135,1.178,0.298c1.523,0.639,2.464,2.403,2.152,4.054c-0.261,1.657-1.758,3.04-3.471,3.132
				c-3.096,0.083-6.113,0.055-9.173,0.083l-4.575,0.023c-0.384-0.008-0.739,0.031-1.219-0.037c-0.448-0.071-0.883-0.241-1.253-0.504
				c-0.747-0.517-1.245-1.388-1.29-2.303c-0.059-0.911,0.333-1.839,1.021-2.433c0.34-0.302,0.748-0.526,1.188-0.644
				c0.442-0.13,0.915-0.112,1.266-0.11l4.575,0.023c3.05,0.024,6.1,0.01,9.15,0.07c0.415-0.036,1.006,0.164,1.302,0.56
				c0.324,0.388,0.427,0.937,0.275,1.412c-0.148,0.478-0.544,0.861-1.02,0.992c-0.245,0.071-0.492,0.054-0.661,0.052l-0.572-0.009
				l-4.575-0.071c-3.05-0.083-6.1-0.132-9.15-0.245c3.05-0.113,6.1-0.162,9.15-0.245l4.575-0.071
				c0.354-0.018,0.833,0.018,1.045-0.051c0.259-0.08,0.467-0.299,0.537-0.555c0.152-0.536-0.292-1.089-0.907-1.001
				c-3.05,0.061-6.1,0.047-9.15,0.071l-4.575,0.023c-0.409,0.001-0.71-0.005-1.003,0.085c-0.297,0.082-0.572,0.238-0.8,0.445
				c-0.465,0.41-0.716,1.032-0.674,1.646c0.022,0.615,0.351,1.203,0.855,1.561c0.249,0.183,0.542,0.299,0.846,0.35
				c0.275,0.049,0.687,0.028,1.064,0.035l4.575,0.023l9.127,0.061c1.369-0.028,2.639-1.111,2.899-2.483
				c0.303-1.368-0.438-2.891-1.739-3.496c-0.318-0.156-0.662-0.261-1.016-0.311c-0.346-0.035-0.745-0.032-1.122-0.045l-2.287-0.056
				L98.264,403.601z"/>
			<polygon style="opacity:0.2;" points="71.264,403.601 98.264,403.601 71.264,402.604 			"/>
		</g>
	</g>
</g>
<g id="Stability_ball">
	<g>
		<path style="fill:#407BFF;" d="M422.18,361.32c0,29.4-23.84,53.24-53.24,53.24c-29.41,0-53.24-23.84-53.24-53.24
			c0-2.47,0.17-4.9,0.5-7.28c3.54-25.97,25.8-45.96,52.74-45.96c3.6,0,7.13,0.36,10.53,1.04
			C403.83,314.01,422.18,335.52,422.18,361.32z"/>
		<path style="opacity:0.2;enable-background:new    ;" d="M379.47,309.12c-0.99,2.86-2.2,4.81-2.2,4.81s-30.22,38.34-61.07,40.11
			c3.54-25.97,25.8-45.96,52.74-45.96C372.54,308.08,376.07,308.44,379.47,309.12z"/>
	</g>
</g>
<g id="Character">
	<g>
		<path style="fill:#E4897B;" d="M367.082,313.879c0,0-58.46,21.775-62.434,22.913c-2.148,0.612-19.432-2.353-34.815-5.199
			c-12.998-2.406-24.632-4.727-24.632-4.727l0.44-26.426c0,0,13.879,6.231,27.758,11.945c10.613,4.372,21.227,8.433,25.631,9.163
			c10.151,1.697,62.574-13.095,62.574-13.095L367.082,313.879z"/>
		<path style="opacity:0.2;enable-background:new    ;" d="M269.832,331.593c-12.998-2.406-24.632-4.727-24.632-4.727l0.44-26.426
			c0,0,13.879,6.231,27.758,11.945C274.15,315.856,274.15,322.011,269.832,331.593z"/>
		<path style="fill:#E4897B;" d="M210.049,252.887c1.593-4.975,0.464-9.476-7.73-6.212c-11.229,4.473-26.608,9.679-31.447,8.943
			c-4.083-0.621-28.258-0.777-28.258-0.777s-1.442-2.245-2.404-2.363c-0.889-0.109-10.945-3.111-11.538-2.609
			c-0.326,0.276,0.106,8.443,0.86,8.978c0.56,0.397,9.634,2.623,11.008,2.362c0.682-0.129,1.484-0.893,1.484-0.893
			s25.592,4.824,32.263,4.637C180.823,264.769,207.028,262.321,210.049,252.887z"/>
		<path style="opacity:0.2;enable-background:new    ;" d="M210.049,252.887c1.593-4.975,0.464-9.476-7.73-6.212
			c-11.229,4.473-26.608,9.679-31.447,8.943c-4.083-0.621-28.258-0.777-28.258-0.777s-1.442-2.245-2.404-2.363
			c-0.889-0.109-10.945-3.111-11.538-2.609c-0.326,0.276,0.106,8.443,0.86,8.978c0.56,0.397,9.634,2.623,11.008,2.362
			c0.682-0.129,1.484-0.893,1.484-0.893s25.592,4.824,32.263,4.637C180.823,264.769,207.028,262.321,210.049,252.887z"/>
		<path style="fill:#263238;" d="M211.57,227.428c0,0-6.087-8.23-0.548-19.044c5.538-10.813,17.765-8.967,21.608-2.11
			c0,0,3.579-1.451,6.876,9.494c3.297,10.945-2.769,19.952-2.769,19.952s2.11,2.267,1.846,4.278
			c-0.264,2.011-1.846,2.802-1.846,2.802s2.242,1.714,2.242,2.769c0,1.055-1.187,4.22-1.187,4.22s4.17,2.506,3.008,7.253
			c0,0,3.981,0.791,4.772,4.615c0,0,6.066-1.846,7.912,1.187c0,0,4.088-3.297,7.121-1.187c0,0,0.264,1.846,0,3.429
			c0,0-2.11,0.396-3.56,0c0,0,2.476,1.451,3.678,1.451c0,0-5.684,0.527-6.842-1.319c0,0-7.802,3.304-11.022,1.388
			c0,0-5.298,0.853-8.149-4.817c0,0-6.267-1.949-6.679-7.648c0,0-6.928-0.791-6.891-7.516c0,0-2.072-2.209-5.108-6.626
			C212.993,235.582,211.57,227.428,211.57,227.428z"/>
		<path style="fill:#407BFF;" d="M263.17,332.41c-0.63-0.06-1.25-0.12-1.87-0.19c-3.03-0.26-5.86-0.7-8.49-1.3
			c-0.02-0.01-0.03-0.01-0.05-0.01c-31.48-7.21-35.39-37.07-34.68-40.87c0.05-0.27,0.08-0.42,0.08-0.42l1.04,0.58l36.11,4.94
			l12.99,10.65l3.65,3C273.17,324,263.17,332.41,263.17,332.41z"/>
		<path style="opacity:0.2;enable-background:new    ;" d="M263.17,332.41c-0.63-0.06-1.25-0.12-1.87-0.19
			c-3.03-0.33-5.86-0.77-8.49-1.3c-0.02-0.01-0.03-0.01-0.05-0.01c-31.48-7.21-35.39-37.07-34.68-40.87l1.12,0.16
			c0.08,2.9,1.49,15.47,20.25,18.22c12.99,1.9,23.01-0.48,28.85-2.63l3.65,3C273.17,324,263.17,332.41,263.17,332.41z"/>
		<path style="fill:#E4897B;" d="M244.835,407.627l-6.22,0.688c0,0-24.707-54.012-25.277-65.625
			c-0.247-5.146,7.713-15.759,16.64-25.975c11.204-12.816,23.955-25.019,23.955-25.019l14.985,18.992
			c0,0-15.737,13.471-26.974,23.085c-5.296,4.533-9.593,8.196-10.764,9.195C227.507,346.095,244.835,407.627,244.835,407.627z"/>
		<path style="opacity:0.2;enable-background:new    ;" d="M268.919,310.689c0,0-15.737,13.471-26.974,23.085
			c-2.578-10.581-9.023-15.372-11.967-17.059c11.204-12.816,23.955-25.019,23.955-25.019L268.919,310.689z"/>
		<path style="fill:#407BFF;" d="M248.836,286.248c8.392,5.452,25.048,7.598,20.083,27.273
			c-2.326,9.219-23.952,19.511-23.952,19.511s-0.234-5.628-3.839-10.292c-5.926-7.664-12.669-6.794-12.669-6.794l13.088-18.957
			l-15.005-3.505L248.836,286.248z"/>
		<path style="fill:#263238;" d="M356.249,309.264c-0.54,0.592,7.01,6.937,7.01,6.937s8.632-0.27,13.841,2.793
			c5.209,3.063,5.27-1.76,0.517-6.301c-4.753-4.541-8.38-8.007-11.758-11.234C362.482,298.233,361.844,303.126,356.249,309.264z"/>
		<g>
			<path style="fill:#407BFF;" d="M369.208,318.905c-0.025,0.224-0.156,0.497-0.554,0.746c-0.246,0.155-0.529,0.195-0.839,0.118
				c-0.585-0.144-1.217-0.717-1.762-1.349c0.283,0.861,0.431,1.72,0.096,2.115c-0.218,0.257-0.568,0.308-1.039,0.151
				c-0.442-0.147-0.759-0.434-0.944-0.855c-0.583-1.321,0.401-3.541,0.449-3.65c0.014-0.031,0.034-0.06,0.06-0.084l0,0l0.001-0.001
				l0-0.001c0,0,0.002,0,0.001-0.001c0,0,0,0,0,0c0.021-0.019,0.045-0.035,0.072-0.046l0,0c0,0,0,0,0,0
				c0.027-0.011,0.054-0.018,0.081-0.02l0.001,0l0,0c0.034-0.003,0.069,0.001,0.102,0.012c0.688,0.226,4.122,1.419,4.275,2.687
				C369.213,318.782,369.215,318.842,369.208,318.905z M365.47,316.782c0.627,0.939,1.674,2.287,2.468,2.482
				c0.172,0.042,0.316,0.024,0.441-0.054c0.34-0.212,0.321-0.369,0.314-0.421C368.62,318.195,366.941,317.341,365.47,316.782z
				 M364.521,318.416c-0.048,0.436-0.031,0.867,0.119,1.207c0.125,0.284,0.332,0.471,0.633,0.571c0.141,0.047,0.391,0.11,0.48,0.005
				c0.292-0.339-0.2-1.863-0.872-3.27C364.745,317.318,364.582,317.871,364.521,318.416z"/>
		</g>
		<path style="fill:#263238;" d="M246.287,405.279c-0.019-0.801-9.861-0.173-9.861-0.173s-6.055,6.159-11.937,7.542
			c-5.882,1.384-2.595,4.913,3.979,4.913c6.574,0,11.591,0,16.262,0C249.401,417.561,246.481,413.583,246.287,405.279z"/>
		<g>
			<path style="fill:#407BFF;" d="M231.248,407.625c-0.359,0-0.663-0.068-0.868-0.236c-0.19-0.156-0.387-0.466-0.238-1.049
				c0.071-0.282,0.249-0.507,0.525-0.666c0.522-0.299,1.376-0.321,2.207-0.241c-0.8-0.427-1.501-0.946-1.531-1.463
				c-0.019-0.337,0.199-0.615,0.647-0.828c0.421-0.197,0.849-0.211,1.273-0.035c1.329,0.553,2.154,2.831,2.196,2.949
				c0.012,0.032,0.017,0.068,0.015,0.105l0,0c0,0.001,0,0.001,0,0.001l-0.001,0.001l0,0c-0.001,0.028-0.008,0.055-0.019,0.081
				l0,0.001l0,0c-0.011,0.026-0.027,0.05-0.045,0.071l0,0l-0.001,0.001c-0.022,0.025-0.05,0.046-0.082,0.061
				C234.809,406.624,232.623,407.625,231.248,407.625z M232.086,405.909c-0.472,0-0.888,0.059-1.16,0.215
				c-0.153,0.088-0.245,0.2-0.282,0.344c-0.098,0.386,0.025,0.487,0.065,0.52c0.464,0.381,2.266-0.162,3.717-0.775
				C233.747,406.062,232.844,405.909,232.086,405.909z M232.665,403.502c-0.15,0-0.301,0.037-0.453,0.109
				c-0.135,0.063-0.359,0.191-0.351,0.328c0.026,0.443,1.432,1.207,2.89,1.761c-0.307-0.676-0.916-1.795-1.687-2.115
				C232.93,403.53,232.797,403.502,232.665,403.502z"/>
		</g>
		<g>
			<path style="fill:#407BFF;" d="M218.161,289.625c0,0,3.883,4.19,12.327,4.19c5.29,0,18.347-7.567,18.347-7.567
				s-4.029-11.606-0.317-33.756c0.003-0.019,0.006-0.039,0.01-0.058c0.571-3.486-1.826-6.739-5.318-7.269
				c-2.763-0.419-5.533-0.733-8.308-0.942c-5.201-0.443-10.401-0.54-15.551-0.292c-6.632,0.494-14.107,1.829-14.107,1.829
				S198.912,264.226,218.161,289.625z"/>
			<path style="opacity:0.6;fill:#FFFFFF;enable-background:new    ;" d="M248.84,286.25c0,0-13.06,7.56-18.35,7.57
				c-8.45,0-12.33-4.2-12.33-4.2c-2.4-3.17-4.41-6.24-6.07-9.17c-0.01,0-0.01,0-0.01,0c-4.32-7.59-6.38-14.31-7.27-19.76
				c-0.46-2.91-0.6-5.45-0.56-7.57c0-0.01,0-0.01,0-0.02c0.08-4.68,0.99-7.34,0.99-7.34s4.08-0.73,8.89-1.31
				c1.7-0.2,3.49-0.39,5.22-0.52c5.15-0.25,10.35-0.15,15.55,0.29c0.47,0.04,0.95,0.07,1.42,0.12c2.31,0.2,4.6,0.48,6.89,0.83
				c3.49,0.53,5.89,3.78,5.32,7.26c0,0.02-0.01,0.04-0.01,0.06C244.81,274.64,248.84,286.25,248.84,286.25z"/>
		</g>
		<path style="fill:#E4897B;" d="M221.549,251.212c7.832-2.431,9.64-6.276,9.64-6.276c-5.925-3.905-3.16-12.957-3.16-12.957
			l-9.328,3.493c0.533,1.549,0.876,2.867,1.089,3.994c1.1,5.841-1.537,6.362-1.537,6.362
			C217.117,249.295,221.549,251.212,221.549,251.212z"/>
		<path style="opacity:0.2;enable-background:new    ;" d="M218.701,235.471c0.533,1.549,0.876,2.867,1.089,3.994
			c4.46-1.894,8.239-7.487,8.239-7.487L218.701,235.471z"/>
		<g>
			<path style="fill:#E4897B;" d="M222.615,207.271c-8.509-0.503-11.518,3.891-12.659,12.624
				c-1.426,10.913,0.544,18.842,11.322,17.13C235.915,234.7,236.747,208.106,222.615,207.271z"/>
			<path style="fill:#DE5753;" d="M215.485,219.745c0,0-1.31,2.153-2.684,3.383c0,0,0.66,1.2,2.186,1.095L215.485,219.745z"/>
			<g>
				<path style="fill:#263238;" d="M220.734,219.356c-0.058,0.698,0.273,1.295,0.738,1.334c0.465,0.038,0.889-0.496,0.947-1.194
					c0.058-0.698-0.273-1.295-0.738-1.333C221.216,218.124,220.792,218.658,220.734,219.356z"/>
				<path style="fill:#263238;" d="M221.873,218.212l-1.469-0.721C220.404,217.491,221.054,218.831,221.873,218.212z"/>
			</g>
			<g>
				<path style="fill:#263238;" d="M212.069,218.495c-0.058,0.698,0.273,1.295,0.738,1.333c0.465,0.038,0.889-0.496,0.947-1.194
					c0.058-0.698-0.273-1.295-0.738-1.334C212.55,217.262,212.126,217.796,212.069,218.495z"/>
				<path style="fill:#263238;" d="M213.207,217.35l-1.469-0.721C211.738,216.629,212.388,217.969,213.207,217.35z"/>
			</g>
			
				<path style="fill:none;stroke:#263238;stroke-width:0.7247;stroke-linecap:round;stroke-linejoin:round;stroke-miterlimit:10;" d="
				M221.167,213.485c0,0,2.409-0.17,3.614,1.505"/>
			
				<path style="fill:none;stroke:#263238;stroke-width:0.7247;stroke-linecap:round;stroke-linejoin:round;stroke-miterlimit:10;" d="
				M215.003,212.76c0,0-1.47-0.645-3.433,0.499"/>
			<g>
				<path style="fill:#263238;" d="M216.03,227.644c0.431,1.055,0.818,3.014,0.818,3.014c0.184-0.003,0.368-0.006,0.551-0.019
					c2.492-0.104,3.613-0.976,4.101-1.91c0.265-0.512,0.334-1.05,0.333-1.485c0.004-0.504-0.108-0.864-0.108-0.864
					c-1.288,0.844-3.603,1.12-4.846,1.216C216.359,227.64,216.03,227.644,216.03,227.644z"/>
				<path style="fill:#FFFFFF;" d="M216.879,227.595l0.264,0.883c2.346-0.104,3.985-0.492,4.69-1.234
					c0.004-0.504-0.108-0.864-0.108-0.864C220.437,227.223,218.122,227.499,216.879,227.595z"/>
				<path style="fill:#DE5753;" d="M217.399,230.639c2.492-0.104,3.613-0.976,4.101-1.91c-0.848,0.068-1.862,0.245-2.744,0.664
					C218.081,229.71,217.667,230.175,217.399,230.639z"/>
			</g>
			<path style="fill:#263238;" d="M231.068,222.163c0,0-3.566-7.227-2.644-12.588c0,0-16.456-7.885-18.299,9.182
				c0,0-0.75-15.296,13.898-14.77c14.625,0.524,13.322,21.922,5.391,27.852C229.413,231.839,233.271,226.681,231.068,222.163z"/>
			<path style="fill:#E4897B;" d="M229.572,223.877c0.138-1.367,1.689-3.602,4.22-3.174c2.62,0.443,3.557,5.931-3.079,6.845
				C229.761,227.68,229.284,226.729,229.572,223.877z"/>
			<path style="fill:none;stroke:#263238;stroke-width:0.5;stroke-linecap:round;stroke-linejoin:round;stroke-miterlimit:10;" d="
				M229.488,225.33c-5.665-9.494-1.065-15.755-1.065-15.755s-1.483-9.96-11.025-8.872c-9.542,1.088-11.99,10.929-10.333,14.394"/>
		</g>
		<path style="fill:#E4897B;" d="M236.32,244.34c-2.947,6.012-10.562,7.808-16.871,7.781c-5.321-0.023-7.009-3.771-5.319-7.671
			c1.7-0.2,3.49-0.39,5.22-0.52c5.15-0.25,10.35-0.15,15.55,0.29C235.37,244.26,235.85,244.29,236.32,244.34z"/>
		<path style="fill:#E4897B;" d="M246.171,253.781c1.593-4.975,0.464-9.476-7.73-6.212c-11.229,4.473-26.608,9.679-31.447,8.943
			c-4.082-0.621-28.258-0.778-28.258-0.778s-1.442-2.245-2.404-2.363c-0.889-0.109-10.945-3.111-11.538-2.609
			c-0.326,0.276,0.106,8.443,0.86,8.978c0.56,0.397,9.634,2.623,11.008,2.363c0.682-0.129,1.485-0.893,1.485-0.893
			s25.592,4.824,32.263,4.637C216.945,265.664,243.149,263.216,246.171,253.781z"/>
	</g>
</g>
</svg>
