<?xml version="1.0" encoding="utf-8"?>
<!-- Generator: Adobe Illustrator 27.5.0, SVG Export Plug-In . SVG Version: 6.00 Build 0)  -->
<svg version="1.1" xmlns="http://www.w3.org/2000/svg" xmlns:xlink="http://www.w3.org/1999/xlink" x="0px" y="0px"
	 viewBox="0 0 500 500" style="enable-background:new 0 0 500 500;" xml:space="preserve">
<g id="Background_Complete">
	<rect style="fill:#FFFFFF;" width="500" height="500"/>
	<g>
		<g>
			<g>
				<path style="fill:#EBEBEB;" d="M443.92,351.803H263.174c-3.232,0-5.862-2.63-5.862-5.862V82.667c0-3.232,2.63-5.862,5.862-5.862
					H443.92c3.232,0,5.862,2.629,5.862,5.862V345.94C449.783,349.173,447.153,351.803,443.92,351.803z M263.174,77.055
					c-3.095,0-5.612,2.518-5.612,5.612V345.94c0,3.095,2.518,5.612,5.612,5.612H443.92c3.095,0,5.612-2.518,5.612-5.612V82.667
					c0-3.094-2.518-5.612-5.612-5.612H263.174z"/>
			</g>
			<g>
				<path style="fill:#EBEBEB;" d="M235.493,351.803H54.746c-3.232,0-5.862-2.63-5.862-5.862V82.667
					c0-3.232,2.629-5.862,5.862-5.862h180.747c3.232,0,5.862,2.629,5.862,5.862V345.94
					C241.355,349.173,238.725,351.803,235.493,351.803z M54.746,77.055c-3.094,0-5.612,2.518-5.612,5.612V345.94
					c0,3.095,2.518,5.612,5.612,5.612h180.747c3.095,0,5.612-2.518,5.612-5.612V82.667c0-3.094-2.518-5.612-5.612-5.612H54.746z"/>
			</g>
		</g>
		<g>
			<rect y="412.872" style="fill:#E0E0E0;" width="500" height="0.25"/>
		</g>
	</g>
	<g>
		<g>
			<g>
				<path style="fill:#F5F5F5;" d="M399.254,338.096c-11.801,3.356-24.832,3.356-36.633-0.001
					c-13.585-3.863-28.659-11.056-21.926-25.454c5.154-11.023,22.573-22.381,18.656-32.465
					c-3.931-10.073-29.95-20.168-10.808-38.512c19.142-18.343,16.197-58.982,30.436-60.979c0.692-0.097,1.34-0.086,1.958,0.022
					c0.633-0.108,1.281-0.119,1.973-0.022c14.224,1.997,11.279,42.636,30.421,60.979c19.142,18.343-6.862,28.438-10.793,38.512
					c-3.931,10.084,13.503,21.442,18.656,32.465C427.92,327.041,412.841,334.233,399.254,338.096z"/>
			</g>
			<g>
				<polygon style="fill:#E0E0E0;" points="384.683,413 377.203,413 379.883,221.63 382.003,221.63 				"/>
			</g>
		</g>
		<g>
			<path style="fill:#E0E0E0;" d="M380.198,266.343c-11.329-4.279-17.292-19.4-17.54-20.042l0.933-0.361
				c0.059,0.153,6.053,15.348,16.961,19.468L380.198,266.343z"/>
		</g>
		<g>
			<path style="fill:#E0E0E0;" d="M368.363,256.498c-1.327,0-6.957-0.079-9.353-1.392l0.48-0.877
				c2.439,1.338,9.066,1.267,9.135,1.269l0.013,1C368.609,256.497,368.514,256.498,368.363,256.498z"/>
		</g>
		<g>
			<path style="fill:#E0E0E0;" d="M381.926,303.943l-0.353-0.936c10.915-4.123,16.901-19.314,16.96-19.468l0.933,0.361
				C399.217,284.543,393.254,299.664,381.926,303.943z"/>
		</g>
		<g>
			<path style="fill:#E0E0E0;" d="M393.761,294.1c-0.15,0-0.246-0.001-0.275-0.001l0.013-1c0.065-0.002,6.697,0.067,9.134-1.27
				l0.481,0.877C400.719,294.021,395.088,294.1,393.761,294.1z"/>
		</g>
		<g>
			<path style="fill:#E0E0E0;" d="M382.049,247.868l-0.6-0.801c0.084-0.063,8.437-6.398,12.336-16.075l0.928,0.374
				C390.707,241.309,382.135,247.803,382.049,247.868z"/>
		</g>
	</g>
	<g>
		<g>
			<g>
				<path style="fill:#F5F5F5;" d="M106.202,338.096c-11.801,3.356-24.832,3.356-36.634-0.001
					c-13.585-3.863-28.659-11.056-21.926-25.454c5.154-11.023,22.573-22.381,18.656-32.465
					c-3.931-10.073-29.95-20.168-10.808-38.512c19.142-18.343,16.197-58.982,30.436-60.979c0.692-0.097,1.34-0.086,1.959,0.022
					c0.633-0.108,1.281-0.119,1.973-0.022c14.224,1.997,11.279,42.636,30.421,60.979c19.142,18.343-6.862,28.438-10.793,38.512
					c-3.932,10.084,13.503,21.442,18.656,32.465C134.868,327.041,119.789,334.233,106.202,338.096z"/>
			</g>
			<g>
				<polygon style="fill:#E0E0E0;" points="91.631,413 84.151,413 86.831,221.63 88.951,221.63 				"/>
			</g>
		</g>
		<g>
			<path style="fill:#E0E0E0;" d="M87.146,266.343c-11.329-4.279-17.292-19.4-17.54-20.042l0.933-0.361
				c0.059,0.153,6.053,15.348,16.96,19.468L87.146,266.343z"/>
		</g>
		<g>
			<path style="fill:#E0E0E0;" d="M75.311,256.498c-1.327,0-6.957-0.079-9.353-1.392l0.48-0.877
				c2.439,1.338,9.066,1.267,9.135,1.269l0.013,1C75.557,256.497,75.462,256.498,75.311,256.498z"/>
		</g>
		<g>
			<path style="fill:#E0E0E0;" d="M88.874,303.943l-0.354-0.936c10.915-4.123,16.901-19.314,16.96-19.468l0.933,0.361
				C106.165,284.543,100.202,299.664,88.874,303.943z"/>
		</g>
		<g>
			<path style="fill:#E0E0E0;" d="M100.709,294.1c-0.15,0-0.246-0.001-0.274-0.001l0.013-1c0.065-0.002,6.697,0.067,9.134-1.27
				l0.481,0.877C107.667,294.021,102.036,294.1,100.709,294.1z"/>
		</g>
		<g>
			<path style="fill:#E0E0E0;" d="M88.997,247.868l-0.6-0.801c0.084-0.063,8.437-6.398,12.336-16.075l0.928,0.374
				C97.655,241.309,89.083,247.803,88.997,247.868z"/>
		</g>
	</g>
	<path style="fill:#EBEBEB;" d="M239.885,151.53c0.151-2.947-0.558-6.165-3.861-7.633c-6.87-3.053-11.832,2.658-11.832,2.658
		s-2.672-18.688-17.473-18.963c-14.801-0.275-17.045,18.005-17.045,18.005s-5.939-6.281-11.991-4.659
		c-3.879,1.039-6.865,6.676-8.511,10.592H239.885z"/>
	<path style="fill:#EBEBEB;" d="M112.15,113.651c-0.054-2.935-0.918-18.081-12.997-18.055
		c-13.375,0.029-14.875,15.467-14.875,15.467s-3.125-7.632-11.489-6.393c-5.734,0.85-8.482,7.176-9.156,8.981H112.15z"/>
	<path style="fill:#EBEBEB;" d="M322.189,109.984c-0.054-2.935-0.918-18.081-12.997-18.055
		c-13.375,0.029-14.875,15.467-14.875,15.467s-3.125-7.632-11.489-6.393c-5.734,0.85-8.482,7.176-9.156,8.981H322.189z"/>
	
		<ellipse transform="matrix(0.7071 -0.7071 0.7071 0.7071 -26.1196 146.1892)" style="fill:#F5F5F5;" cx="163.406" cy="104.624" rx="18.616" ry="18.616"/>
	<path style="fill:#EBEBEB;" d="M184.188,412.997c0.003-3.93-1.045-24.176-22.79-27.333c-24.102-3.5-34.221,19.5-34.221,19.5
		s-4.202-8.709-11.676-9.5c-11-1.164-16.557,9.5-16.557,9.5S82,386.664,61,390.164c-18.521,3.087-23.816,19.095-24.809,22.833
		H184.188z"/>
	<path style="fill:#EBEBEB;" d="M245.55,413.122c0,0-12.628-12.891-8.419-16.048c4.209-3.157,10.908,10.851,10.908,10.851
		s0.509-11.961,5.719-11.274c5.209,0.686-2.157,16.471-2.157,16.471H245.55z"/>
	<path style="fill:#EBEBEB;" d="M347.061,413.122c0,0,12.628-12.891,8.419-16.048c-4.209-3.157-10.908,10.851-10.908,10.851
		s-0.509-11.961-5.719-11.274c-5.209,0.686,2.157,16.471,2.157,16.471H347.061z"/>
	<path style="fill:#EBEBEB;" d="M452.635,412.872c-1.512-4.88-5.967-12.817-19.093-15.548c-19.458-4.048-26.966,10.46-26.966,10.46
		c-18.759-6.68-29.257-0.195-34.275,5.088H452.635z"/>
</g>
<g id="Background_Simple" style="display:none;">
	<g style="display:inline;">
		<path style="fill:#407BFF;" d="M398.756,197.964C349.609,89.059,223.5,57.402,117.202,110.728
			c-26.506,13.297-44.686,36.893-42.971,58.326C81,253.66,234.1,193.156,239.939,244.248
			C250,332.289,364.316,358.582,404.737,276.749C416.106,253.733,411.397,225.976,398.756,197.964z"/>
		<path style="opacity:0.9;fill:#FFFFFF;" d="M398.756,197.964C349.609,89.059,223.5,57.402,117.202,110.728
			c-26.506,13.297-44.686,36.893-42.971,58.326C81,253.66,234.1,193.156,239.939,244.248
			C250,332.289,364.316,358.582,404.737,276.749C416.106,253.733,411.397,225.976,398.756,197.964z"/>
	</g>
</g>
<g id="Shadow">
	<g>
		<ellipse style="fill:#F5F5F5;" cx="254.711" cy="447.538" rx="215.083" ry="6.173"/>
	</g>
</g>
<g id="Tree">
	<g>
		<g>
			<path style="fill:#407BFF;" d="M372.69,153.607c0,0,11.671,34.698,36.221,29.281c15.446-3.408,12.513-16.621,12.513-16.621
				s20.419,10.264,31.711-6.969c11.189-17.073-2.712-29.719-2.712-29.719s13.901,5.056,18.03-5.546
				c3.328-8.547-17.352-16.052-17.352-16.052L372.69,153.607z"/>
			<path style="opacity:0.3;fill:#FFFFFF;" d="M372.69,153.607c0,0,11.671,34.698,36.221,29.281
				c15.446-3.408,12.513-16.621,12.513-16.621s20.419,10.264,31.711-6.969c11.189-17.073-2.712-29.719-2.712-29.719
				s13.901,5.056,18.03-5.546c3.328-8.547-17.352-16.052-17.352-16.052L372.69,153.607z"/>
			<path style="fill:#407BFF;" d="M390.846,157.893c0,0,11.146,140.92-6.485,289.654h33.388c0,0-17.831-228.846-12.29-300.523
				L390.846,157.893z"/>
			<path style="fill:#407BFF;" d="M404.667,209.665c0,0,11.085-2.715,17.827-9.884c7.971-8.476,13.859-13.244,22.165-23.118
				c0,0-9.493,16.898-16.444,24.934c-6.433,7.437-23.21,21.302-23.21,21.302L404.667,209.665z"/>
			<path style="fill:#407BFF;" d="M395.347,190.867c0,0-10.602-4.223-16.287-12.257c-6.721-9.498-11.892-15.035-18.751-25.964
				c0,0,7.063,18.05,12.834,26.971c5.341,8.256,20.829,23.947,20.829,23.947L395.347,190.867z"/>
			<g>
				<path style="fill:#407BFF;" d="M362.406,100.79c0,0-22.451-10.615-32.656,10.259c-10.205,20.874,16.328,37.929,16.328,37.929
					s-11.743,19.094,8.523,27.7c16.632,7.062,28.322-11.418,28.322-11.418s16.902,13.003,28.468-10.507
					C422.957,131.242,407.26,74.334,362.406,100.79z"/>
				<path style="opacity:0.3;fill:#FFFFFF;" d="M362.406,100.79c0,0-22.451-10.615-32.656,10.259
					c-10.205,20.874,16.328,37.929,16.328,37.929s-11.743,19.094,8.523,27.7c16.632,7.062,28.322-11.418,28.322-11.418
					s16.902,13.003,28.468-10.507C422.957,131.242,407.26,74.334,362.406,100.79z"/>
				<g>
					<path style="fill:#407BFF;" d="M374.607,44.311c0,0-30.948,16.7-33.843,36.584c-2.895,19.884,22.958,23.544,22.958,23.544
						s-18.643,29.935-5.69,41.283c12.953,11.349,34.264-6.507,34.264-6.507s19.385,25.867,38.607,18.888
						c19.222-6.979,14.46-31.928,14.46-31.928s36.342-21.46,17.831-48.261c-18.511-26.801-44.491-16.795-44.491-16.795
						S408.625,25.942,374.607,44.311z"/>
					<path style="opacity:0.5;fill:#FFFFFF;" d="M374.607,44.311c0,0-30.948,16.7-33.843,36.584
						c-2.895,19.884,22.958,23.544,22.958,23.544s-18.643,29.935-5.69,41.283c12.953,11.349,34.264-6.507,34.264-6.507
						s19.385,25.867,38.607,18.888c19.222-6.979,14.46-31.928,14.46-31.928s36.342-21.46,17.831-48.261
						c-18.511-26.801-44.491-16.795-44.491-16.795S408.625,25.942,374.607,44.311z"/>
				</g>
			</g>
		</g>
		<g>
			<path style="fill:#407BFF;" d="M446.962,447.806c-1.371-4.403-5.653-14.809-15.879-16.584
				c-13.034-2.262-20.115,12.029-20.115,12.029s-6.759-8.641-22.529-7.675c-11.953,0.732-17.357,8.507-19.274,12.23H446.962z"/>
			<path style="opacity:0.5;fill:#FFFFFF;" d="M446.962,447.806c-1.371-4.403-5.653-14.809-15.879-16.584
				c-13.034-2.262-20.115,12.029-20.115,12.029s-6.759-8.641-22.529-7.675c-11.953,0.732-17.357,8.507-19.274,12.23H446.962z"/>
		</g>
	</g>
</g>
<g id="Plants">
	<g>
		<path style="fill:#407BFF;" d="M349.392,446.004c0,0-12.238-12.493-8.158-15.552s10.57,10.516,10.57,10.516
			s0.494-11.591,5.542-10.926c5.048,0.665-2.09,15.962-2.09,15.962H349.392z"/>
		<path style="opacity:0.5;fill:#FFFFFF;" d="M349.392,446.001c0,0-12.238-12.492-8.158-15.552
			c4.079-3.059,10.57,10.516,10.57,10.516s0.494-11.591,5.542-10.926c5.048,0.665-2.09,15.962-2.09,15.962H349.392z"/>
	</g>
	<g>
		<g>
			<g>
				<path style="fill:#407BFF;" d="M99.507,439.164c0,0-16.295-20.917-9.196-23.667s11.634,14.167,11.634,14.167
					s1.584-22.378,8.245-20.664c6.477,1.667-4.051,23.414-4.051,23.414s4.589-9.25,10.589-9s-7.083,14.914-7.083,14.914
					L99.507,439.164z"/>
			</g>
			<g style="opacity:0.4;">
				<path style="fill:#FFFFFF;" d="M99.507,439.164c0,0-16.295-20.917-9.196-23.667s11.634,14.167,11.634,14.167
					s1.584-22.378,8.245-20.664c6.477,1.667-4.051,23.414-4.051,23.414s4.589-9.25,10.589-9s-7.083,14.914-7.083,14.914
					L99.507,439.164z"/>
			</g>
		</g>
		<g>
			<g>
				<path style="fill:#407BFF;" d="M170.291,449.313c2.367-2.99,5.583-7.639,2.796-7.756c-4.115-0.171-7.262,6.172-7.262,6.172
					s7.22-14.915,2.778-16.058c-4.568-1.176-5.654,14.172-5.654,14.172s-3.11-11.602-7.979-9.716
					c-3.436,1.331,1.118,8.865,4.096,13.185H170.291z"/>
			</g>
			<g style="opacity:0.4;">
				<path style="fill:#FFFFFF;" d="M170.291,449.313c2.367-2.99,5.583-7.639,2.796-7.756c-4.115-0.171-7.262,6.172-7.262,6.172
					s7.22-14.915,2.778-16.058c-4.568-1.176-5.654,14.172-5.654,14.172s-3.11-11.602-7.979-9.716
					c-3.436,1.331,1.118,8.865,4.096,13.185H170.291z"/>
			</g>
		</g>
		<path style="fill:#407BFF;" d="M58,449.313c0,0,9.614-17.407,22.256-19.794c15.994-3.019,23.994,8.484,23.994,8.484
			s5.375-7.379,14.5-6.211c6.523,0.835,11.047,6.211,11.047,6.211s10.953-8.001,19.703-3.254
			c8.327,4.517,10.284,14.563,10.284,14.563H58z"/>
	</g>
</g>
<g id="Character_2">
	<g>
		<path style="fill:#CE7A63;" d="M298.72,188.86c-1.77,8.92-3.93,17.56-6.41,26.28c-1.24,4.35-2.58,8.68-4.07,13.03
			c-1.48,4.36-3.12,8.67-5.16,13.14c-1.05,2.25-2.13,4.49-3.88,7.05c-0.43,0.63-0.97,1.33-1.59,2.06c-0.68,0.75-1.43,1.56-2.73,2.49
			c-0.78,0.55-1.73,1-2.55,1.25c-0.8,0.25-1.57,0.36-2.18,0.4c-1.29,0.08-2.15-0.06-2.89-0.21c-1.45-0.31-2.37-0.71-3.19-1.09
			c-1.6-0.77-2.76-1.52-3.87-2.29c-1.09-0.77-2.08-1.54-3.03-2.31c-1.9-1.55-3.65-3.11-5.34-4.71c-3.36-3.19-6.51-6.46-9.55-9.81
			c-3.04-3.37-5.96-7.158-8.79-10.748l6.32-5.872c6.91,5.36,13.84,10.9,20.77,15.82c1.73,1.22,3.45,2.41,5.15,3.46
			c0.35,0.22,0.7,0.43,1.04,0.63c0.36-0.82,0.73-1.71,1.07-2.61c1.4-3.7,2.6-7.78,3.79-11.87c1.17-4.11,2.26-8.29,3.33-12.5
			c2.12-8.39,4.13-16.97,6.16-25.36L298.72,188.86z"/>
		<g>
			<path style="fill:#CE7A63;" d="M429.76,327.09c0,0-5.282,1.883-13.21,4.519c-21.418,7.117-61.694,17.14-70.056,12.833
				c-11.201-5.765-25.502-49.981-30.456-61.143l32.406-10.496l12.669,48.243c0,0,12.795-2.462,26.69-1.11
				c5.948,0.579,15.971,0.464,24.537,0.193c8.604-0.28,15.72-0.695,15.72-0.695L429.76,327.09z"/>
		</g>
		<path style="fill:#407BFF;" d="M429.76,327.09c0,0-5.282,1.883-13.21,4.519c-1.188-3.022-2.964-7.706-4.21-11.481
			c8.604-0.28,15.72-0.695,15.72-0.695L429.76,327.09z"/>
		<path style="fill:#263238;" d="M427.077,325.723c0,0-2.367,0.637-2.821,2.61c-0.454,1.972,3.419,5.348,4.925,11.3
			c0.853,3.373,1.321,4.447,1.457,6.066c0.197,2.345,2.076,3.941,4.2,4.954l0,0l5.4-33.768c0,0-4.996-0.853-7.683-0.137
			c-2.687,0.717-7.02,1.412-6.76,2.301C426.956,323.025,428.904,324.708,427.077,325.723z"/>
		<path style="fill:#263238;" d="M291.107,255.514c0,0,20.099,53.327,26.23,58.295c4.198,3.402,40.932-16.841,40.932-16.841
			l-6.349-35.387L291.107,255.514z"/>
		<path style="fill:#407BFF;" d="M317.921,316.461c0,0,32.907-9.671,42.436-19.9l-2.189-7.133c0,0-21.107,13.976-44.205,19.803
			L317.921,316.461z"/>
		<g>
			<path style="fill:#CE7A63;" d="M284.019,339.303c1.735,8.075-5.159,41.955-14.37,81.549c-1.168,5.003-2.34,10.083-3.492,15.181
				L257.509,436c0,0-0.059-6.037-0.053-15.341c0.025-29.395,0.689-91.472,5.821-99.239c6.764-10.228,41.555-62.66,41.555-62.66
				l37.979-2.164C342.811,256.596,351.107,289.281,284.019,339.303z"/>
			<path style="fill:#407BFF;" d="M269.649,420.852c-1.168,5.003-2.34,10.083-3.492,15.181L257.509,436
				c0,0-0.059-6.037-0.053-15.341C259.872,420.61,265.889,420.533,269.649,420.852z"/>
			<path style="fill:#263238;" d="M260.623,435.025c0,0-1.305-2.075-3.324-1.929s-4.107,4.84-9.353,8.029
				c-2.973,1.807-3.863,2.57-5.369,3.176c-2.183,0.878-3.157,3.143-3.5,5.471l0,0l33.863-4.766c0,0-0.653-5.026-2.128-7.384
				c-1.475-2.357-3.414-6.295-4.187-5.785C263.167,434.117,262.13,436.473,260.623,435.025z"/>
			<path style="fill:#263238;" d="M308.149,255.338l-27.933,35.49c0,0,19.743,23.736,31.773,29.246
				c6.355,2.91,41.202-40.508,41.772-48.224c0.57-7.716-3.228-17.427-3.228-17.427L308.149,255.338z"/>
			<path style="fill:none;stroke:#FFFFFF;stroke-width:0.5;stroke-miterlimit:10;" d="M347.178,260.401
				c0,0-14.869,33.667-38.839,52.969"/>
			<path style="fill:#407BFF;" d="M278.367,291.474c0,0,20.888,27.205,33.864,32.404l5.863-4.614c0,0-20.647-14.646-34.412-34.089
				L278.367,291.474z"/>
		</g>
		<path style="fill:#407BFF;" d="M351.641,260.266c-4.799,10.197-61.221,8.739-61.433-2.549c-0.155-7.88-6.422-61.674-9.26-70.047
			c-2.829-8.382,14.842-16.493,14.842-16.493l5.996-2.269c0,0,13.355-2.752,22.219-1.149c0.299,0.058,0.599,0.116,0.888,0.184
			c6.18,1.381,12.679,14.871,17.005,28.36c1.883,5.823,3.36,11.655,4.229,16.503C349.092,229.337,353.611,256.056,351.641,260.266z"
			/>
		<path style="fill:#CE7A63;" d="M341.898,196.303c-0.56,0.039-1.178,0.058-1.825,0.058c-5.523,0.039-13.567-1.188-16.995-8.034
			c-4.162-8.295-0.888-16.898,0.927-20.568c0.299,0.058,0.599,0.116,0.888,0.184c5.128,1.149,10.467,10.612,14.61,21.505
			C340.353,191.687,341.155,193.995,341.898,196.303z"/>
		<path style="opacity:0.2;" d="M341.898,196.303c-0.56,0.039-1.178,0.058-1.825,0.058l-14.745-11.819l14.175,4.905
			C340.353,191.687,341.155,193.995,341.898,196.303z"/>
		<path style="opacity:0.2;fill:none;stroke:#FFFFFF;stroke-width:0.5;stroke-miterlimit:10;" d="M334.362,195.891
			c0,0,13.406,45.495,10.052,68.826"/>
		<path style="opacity:0.2;fill:#FFFFFF;" d="M289.073,196.257l0.91,12.208c0,0,18.927,0.33,29.724-4.29
			c0,0-0.199-10.249-2.332-12.996C317.375,191.18,307.656,195.159,289.073,196.257z"/>
		<g>
			<g>
				<g>
					<g>
						<path style="fill:#CE7A63;" d="M293.772,175.56c1.201,0.661,2.956,2.27,6.125,1.331c4.003-1.185,6.526-7.106,6.264-8.951
							c-3.492-4.916-6.966-10.843-8.236-16.154l-3.082,6.309l-4.475,9.147l-0.005,0.012c0.1,0.113,0.195,0.237,0.295,0.35
							c0.13,0.158,0.243,0.324,0.365,0.486c0.297,0.398,0.565,0.799,0.809,1.211c0.199,0.334,0.378,0.667,0.54,1.007
							c0.51,1.05,0.883,2.122,1.118,3.197C293.641,174.193,293.732,174.88,293.772,175.56z"/>
					</g>
					<g style="opacity:0.2;">
						<path d="M293.489,173.503c2.42-1.754,4.743-5.392,4.51-8.543c-0.151-2.047-1.564-3.577-2.361-3.446l-3.807,7.785
							c0.199,0.334,0.378,0.667,0.54,1.007C292.881,171.357,293.253,172.429,293.489,173.503z"/>
					</g>
					<g>
						<path style="fill:#CE7A63;" d="M295.844,141.8c-3.103-8.296-13.74-10.867-20.117-4.23c-6.472,6.736-2.233,19.214,2.734,25.697
							c5.519,7.202,17.135,6.458,20.492-2.51C301.185,154.794,298.947,150.096,295.844,141.8"/>
						<path style="fill:#263238;" d="M271.463,144.414c0,0-2.618,3.257-3.664,1.406c-1.046-1.851,1.207-3.739,1.207-3.739
							s-5.23-2.618-3.943-4.388c1.288-1.77,4.43-1.288,4.43-1.288s-1.372-5.391,1.123-5.955s4.506,1.127,4.506,1.127
							s-0.161-4.345,2.253-5.311c2.414-0.966,3.738,1.69,3.738,1.69s2.502-3.138,4.814-2.656c2.312,0.483,2.151,3.219,2.151,3.219
							s2.977-3.299,4.748-2.173c1.77,1.127,1.609,3.541,1.609,3.541s2.173-1.288,3.058,0.805c0.885,2.092-0.966,3.107-0.966,3.107
							s1.931,0.71,2.092,2.02c0.161,1.31-2.012,2.517-4.023,0.827C292.582,134.957,277.3,138.984,271.463,144.414z"/>
					</g>
					<path style="fill:#407BFF;" d="M271.097,144.774c0,0-0.292,4.733,1.338,5.713c1.631,0.98,9.703-9.258,23.737-7.928
						c0,0,0.273-4.061-1.578-5.912C292.743,134.796,277.535,138.095,271.097,144.774z"/>
					<path style="fill:#263238;" d="M276.71,140.502c0,0,0.905,2.663,2.515,2.1c1.609-0.563,0-2.495,0-2.495
						s3.638,2.745,4.797,1.292c1.158-1.453-1.904-3.086-1.904-3.086S278.353,137.973,276.71,140.502z"/>
					<path style="fill:#FFFFFF;" d="M286.075,160.859c0.436,0.918,0.18,1.953-0.573,2.31c-0.753,0.358-1.717-0.096-2.153-1.015
						c-0.436-0.918-0.18-1.953,0.573-2.311C284.675,159.487,285.639,159.941,286.075,160.859z"/>
					<g>
						<path style="fill:#CE7A63;" d="M301.71,145.641c0.34,2.364-0.444,4.664-1.645,6.216c-1.807,2.335-4.466,1.142-5.433-1.482
							c-0.871-2.363-0.98-6.424,1.541-7.817C298.656,141.187,301.321,142.938,301.71,145.641"/>
					</g>
					<g>
						<path style="fill:#263238;" d="M284.869,150.666c0.293,0.658,0.182,1.346-0.248,1.537c-0.43,0.191-1.016-0.186-1.309-0.844
							c-0.293-0.658-0.182-1.346,0.248-1.537C283.99,149.631,284.576,150.009,284.869,150.666"/>
					</g>
					<g>
						<path style="fill:#263238;" d="M277.623,153.79c0.293,0.658,0.182,1.346-0.248,1.537c-0.43,0.191-1.016-0.186-1.309-0.844
							c-0.293-0.658-0.182-1.346,0.248-1.538C276.744,152.755,277.33,153.133,277.623,153.79"/>
					</g>
				</g>
				<g>
					<path style="fill:#263238;" d="M274.412,152.544c0.112-0.05,0.194-0.157,0.206-0.288c0.055-0.585,0.261-1.025,0.612-1.309
						c0.578-0.467,1.386-0.385,1.394-0.383c0.188,0.023,0.368-0.113,0.39-0.307c0.023-0.193-0.115-0.368-0.308-0.391
						c-0.044-0.005-1.106-0.123-1.919,0.535c-0.505,0.407-0.797,1.01-0.87,1.791c-0.019,0.193,0.124,0.365,0.317,0.383
						C274.298,152.579,274.359,152.568,274.412,152.544z"/>
				</g>
				<g>
					<path style="fill:#263238;" d="M285.718,147.775c0.047-0.021,0.09-0.054,0.126-0.096c0.124-0.149,0.105-0.37-0.044-0.494
						c-0.035-0.029-0.858-0.708-1.898-0.603c-0.645,0.065-1.22,0.409-1.708,1.023c-0.121,0.152-0.096,0.373,0.056,0.494
						c0.153,0.121,0.374,0.095,0.494-0.056c0.365-0.458,0.775-0.714,1.223-0.761c0.743-0.078,1.376,0.437,1.382,0.442
						C285.456,147.814,285.6,147.828,285.718,147.775z"/>
				</g>
				<g>
					<path style="fill:#BA4D3C;" d="M280.397,152.172c0,0,0.45,2.291-0.581,4.413c-1.031,2.122,2.769,1.904,2.769,1.904
						L280.397,152.172z"/>
				</g>
			</g>
		</g>
		<path style="fill:#CE7A63;" d="M386.59,203.1c-0.07,0.79-0.21,1.57-0.42,2.3c-0.2,0.7-0.51,1.49-0.76,1.98
			c-0.82,1.61-1.63,2.7-2.43,3.79c-0.81,1.04-1.6,1.99-2.41,2.87c-1.62,1.76-3.24,3.35-4.88,4.87c-3.29,3.03-6.64,5.81-10.08,8.45
			c-3.45,2.66-6.92,5.16-10.6,7.55l-5.78-6.78c5.47-6.28,11.16-12.54,16.15-18.84c1.24-1.56,2.43-3.14,3.45-4.67
			c0.39-0.56,0.74-1.1,1.06-1.62c-0.64-0.48-1.53-1.08-2.48-1.62c-1.45-0.84-3.1-1.65-4.82-2.42c-1.72-0.79-3.52-1.53-5.36-2.24
			c-3.69-1.4-7.51-2.73-11.39-3.96c-3.87-1.24-7.8-2.42-11.76-3.55c-3.92-1.13-7.98-2.25-11.81-3.28l4.18-17.51
			c4.38,0.98,8.49,2.07,12.68,3.28c4.17,1.21,8.32,2.52,12.46,3.97c4.13,1.46,8.26,3.03,12.37,4.87c4.14,1.84,8.25,3.83,12.47,6.67
			c1.06,0.71,2.13,1.49,3.22,2.4s2.21,1.93,3.35,3.3c1.12,1.36,2.36,3.09,3.15,5.74C386.53,199.96,386.73,201.53,386.59,203.1z"/>
		<g>
			<g>
				<polygon style="fill:#CE7A63;" points="349.477,228.025 341.603,235.371 352.268,243.454 356.235,233.33 				"/>
			</g>
			<path style="fill:#CE7A63;" d="M347.502,230.22c0,0-3.148,0.309-4.812,1.145c-1.665,0.836-2.302,6.817-2.302,6.817l1.982-3.054
				L347.502,230.22z"/>
			<path style="fill:#CE7A63;" d="M342.338,234.097c0,0-3.671,4.354-2.903,6.279c0.768,1.925,2.951,0.629,2.951,0.629
				s0.036,2.069,0.895,2.525c1.106,0.588,1.824-0.237,1.824-0.237s-0.012,1.762,0.927,2.097c0.939,0.335,1.871-0.007,1.871-0.007
				s-0.351,0.714,1.171,1.142c1.522,0.429,3.193-3.072,3.193-3.072L342.338,234.097z"/>
			<g style="opacity:0.2;">
				<path d="M344.572,231.988c-0.034,0.025-2.239,1.92-3.685,3.301c-0.064,0.346-0.12,0.694-0.193,1.039
					c0.992-0.969,3.145-3.031,4.242-3.851c0.135-0.101,0.163-0.292,0.062-0.426C344.897,231.915,344.705,231.886,344.572,231.988z"
					/>
			</g>
		</g>
		<path style="opacity:0.2;fill:none;stroke:#FFFFFF;stroke-width:0.5;stroke-miterlimit:10;" d="M289.456,174.765
			c0,0-1.255,10.62,8.587,9.722c11.701-1.068,12.91-16.893,12.91-16.893"/>
		<g>
			<path style="fill:#CE7A63;" d="M239.788,218.859c0,0,0.439-6.609-1.011-8.095c-1.45-1.486-8.468,3.709-8.012,5.35
				c0.456,1.641,5.189-1.435,5.189-1.435s-0.358,4.169,1.647,4.898C239.606,220.307,239.788,218.859,239.788,218.859z"/>
			<path style="fill:#CE7A63;" d="M237.874,212.021c0,0-2.432-5.66-4.907-5.751c-2.476-0.091-7.384,5.013-7.983,7.565
				c-0.599,2.552,2.044,5.807,4.687,5.228C232.314,218.484,237.874,212.021,237.874,212.021z"/>
			<path style="fill:#CE7A63;" d="M229.58,217.937c0,0-0.153,4.214,3.387,5.343c3.54,1.129,6.846-4.882,6.846-4.882
				s-1.768-5.64-3.859-6.195C233.864,211.648,229.58,217.937,229.58,217.937z"/>
			<path style="opacity:0.2;" d="M233.398,215.547c0.293,0.12,0.639,0.168,1.005,0.168c1.445,0,3.209-0.748,3.302-0.787
				c0.142-0.061,0.207-0.225,0.147-0.367c-0.062-0.142-0.226-0.206-0.367-0.147c-0.73,0.314-2.848,1.037-3.875,0.616
				c-0.24-0.098-0.399-0.25-0.487-0.465c-0.498-1.213,2.409-3.041,3.467-3.586c0.137-0.07,0.191-0.239,0.121-0.376
				c-0.07-0.138-0.238-0.19-0.376-0.121c-0.243,0.125-1.464,0.774-2.463,1.636c-0.96-0.318-2.026-2.259-2.367-3.017
				c-0.064-0.141-0.231-0.202-0.369-0.14c-0.141,0.064-0.203,0.229-0.14,0.369c0.128,0.283,1.177,2.528,2.433,3.203
				c-0.646,0.66-1.072,1.404-0.853,2.122c-0.017,0.067-0.048,0.13-0.069,0.197c-2.643-0.414-3.519-3.32-3.527-3.35
				c-0.043-0.149-0.198-0.232-0.345-0.191c-0.148,0.043-0.234,0.197-0.191,0.345c0.039,0.136,0.96,3.215,3.878,3.731
				c-0.35,0.771-0.895,1.453-1.404,1.98c-0.001,0-0.001-0.001-0.002-0.001c-2.807-0.286-3.725-3.354-3.733-3.385
				c-0.043-0.149-0.198-0.232-0.345-0.191c-0.148,0.043-0.234,0.197-0.191,0.345c0.038,0.134,0.937,3.144,3.774,3.714
				c-0.449,0.407-0.79,0.646-0.799,0.653c-0.127,0.088-0.159,0.262-0.071,0.389c0.054,0.078,0.141,0.12,0.23,0.12
				c0.055,0,0.11-0.016,0.158-0.05c0.093-0.064,2.015-1.411,2.888-3.334c-0.38,2.558,1.122,3.575,1.192,3.619
				c0.046,0.03,0.098,0.043,0.149,0.043c0.093,0,0.183-0.046,0.236-0.13c0.082-0.13,0.043-0.303-0.087-0.385
				C234.299,218.766,232.984,217.876,233.398,215.547C233.398,215.547,233.398,215.547,233.398,215.547z"/>
		</g>
	</g>
</g>
<g id="Character_1">
	<g>
		<path style="fill:#FF8B7B;" d="M219.64,427.44l-10.11,1.53c0,0,0,0-0.01-0.01c-0.1-0.28-2.22-5.69-5.56-13.7
			c-0.31-0.72-0.62-1.46-0.94-2.22c-6.22-14.82-15.98-36.92-25.03-52.65c-2.52-4.38-5.07-10.5-7.56-17.65
			c-0.08-0.22-0.16-0.45-0.24-0.68c-12.07-34.94-22.8-93.37-22.8-93.37s35.43-11.26,41.54,0c6.12,11.25,4.51,94.86,4.51,94.86
			c7.72,9.85,17.17,45.64,22.35,67.16C218.16,420.57,219.64,427.44,219.64,427.44z"/>
		<path style="fill:#407BFF;" d="M205.69,419.439c2.328,5.664,3.749,9.293,3.83,9.521c0.01,0.01,0.01,0.01,0.01,0.01l10.11-1.53
			c0,0-1.165-5.406-3.081-13.503C212.797,415.5,209.21,417.396,205.69,419.439z"/>
		<path style="opacity:0.2;" d="M190.971,343.175l-2.511,8.922l-18.028-9.357c-0.077-0.222-0.164-0.454-0.241-0.676L190.971,343.175
			z"/>
		<path style="fill:#407BFF;" d="M195.48,296.216l-6.518,0.608l-3.138-7.522l-0.608,8.237c0,0-21.968,6.045-28.969,4.229
			l-0.801-5.05l-2.453-15.344l40.556-28.254L195.48,296.216z"/>
		<path style="opacity:0.2;" d="M193.549,253.12c0.833,3.508-2.648,22.335-21.1,34.888c-8.959,6.095-13.875,7.957-17.003,8.71
			l-2.453-15.344L193.549,253.12z"/>
		<path style="fill:#FF8B7B;" d="M140.75,186.948c0.561,7.575,0.777,14.977,0.651,22.539c-0.055,3.772-0.214,7.56-0.51,11.394
			c-0.29,3.848-0.725,7.695-1.567,11.811c-0.468,2.093-0.917,4.165-2.126,6.791c-0.319,0.667-0.686,1.373-1.243,2.181
			c-0.587,0.813-1.271,1.719-2.593,2.674c-0.454,0.336-1.438,0.872-2.026,1.031c-0.327,0.108-0.717,0.216-1.003,0.266
			c-0.283,0.051-0.57,0.089-0.857,0.116c-0.314,0.031-0.503,0.026-0.74,0.026c-0.224-0.002-0.463-0.01-0.673-0.027
			c-0.348-0.037-0.748-0.089-1.047-0.152c-1.221-0.259-1.996-0.596-2.674-0.907c-1.339-0.638-2.309-1.266-3.231-1.902
			c-0.906-0.639-1.729-1.279-2.521-1.923c-1.575-1.289-3.031-2.583-4.434-3.908c-5.576-5.305-10.492-10.861-15.224-16.741
			l5.269-5.234c2.86,2.216,5.724,4.518,8.616,6.703c2.874,2.21,5.748,4.398,8.63,6.425c1.436,1.013,2.867,2,4.274,2.865
			c0.7,0.431,1.394,0.833,2.046,1.172c0.637,0.336,1.269,0.625,1.619,0.717c0.164,0.054,0.263,0.024-0.054-0.065
			c-0.074-0.019-0.243-0.056-0.364-0.062c-0.095-0.011-0.219-0.022-0.328-0.023c-0.122-0.002-0.196,0.004-0.396,0.013
			c-0.173,0.011-0.346,0.034-0.516,0.069c-0.173,0.034-0.456,0.094-0.673,0.171c-0.115,0.039-0.229,0.083-0.339,0.131
			c-0.13,0.052-0.273,0.114-0.406,0.181c-0.134,0.067-0.266,0.142-0.393,0.222l-0.278,0.186c-0.573,0.413-0.679,0.585-0.748,0.643
			c-0.048,0.041,0-0.076,0.053-0.249c0.253-0.757,0.586-2.309,0.789-3.825c0.431-3.132,0.568-6.634,0.676-10.128
			c0.08-3.512,0.063-7.081,0.019-10.664c-0.122-7.148-0.36-14.457-0.645-21.569L140.75,186.948z"/>
		<g>
			<path style="fill:#FF8B7B;" d="M105.167,216.176c0,0,0.401-6.042-0.925-7.401c-1.325-1.359-7.742,3.391-7.325,4.891
				c0.417,1.5,4.744-1.312,4.744-1.312s-0.328,3.812,1.506,4.478C105,217.5,105.167,216.176,105.167,216.176z"/>
			<path style="fill:#FF8B7B;" d="M103.417,209.925c0,0-2.223-5.175-4.487-5.258c-2.263-0.083-6.751,4.583-7.299,6.917
				c-0.548,2.333,1.869,5.31,4.285,4.78C98.333,215.833,103.417,209.925,103.417,209.925z"/>
			<path style="fill:#FF8B7B;" d="M95.833,215.333c0,0-0.14,3.853,3.097,4.885c3.237,1.032,6.259-4.464,6.259-4.464
				s-1.617-5.157-3.528-5.664C99.75,209.583,95.833,215.333,95.833,215.333z"/>
			<path style="opacity:0.2;" d="M99.324,213.148c0.268,0.11,0.584,0.154,0.919,0.154c1.321,0,2.934-0.684,3.019-0.72
				c0.13-0.056,0.19-0.206,0.134-0.336c-0.056-0.13-0.207-0.188-0.336-0.134c-0.667,0.287-2.604,0.948-3.543,0.563
				c-0.219-0.089-0.365-0.228-0.445-0.425c-0.456-1.109,2.203-2.78,3.17-3.278c0.126-0.064,0.175-0.219,0.11-0.344
				c-0.064-0.126-0.217-0.174-0.344-0.11c-0.222,0.114-1.338,0.708-2.252,1.496c-0.878-0.29-1.852-2.066-2.164-2.758
				c-0.058-0.129-0.212-0.185-0.338-0.128c-0.129,0.058-0.186,0.21-0.128,0.338c0.117,0.259,1.076,2.311,2.225,2.928
				c-0.59,0.604-0.98,1.284-0.78,1.94c-0.016,0.062-0.044,0.119-0.063,0.18c-2.416-0.378-3.217-3.036-3.225-3.063
				c-0.039-0.136-0.181-0.212-0.316-0.175c-0.136,0.039-0.214,0.18-0.175,0.316c0.036,0.124,0.878,2.939,3.545,3.411
				c-0.32,0.705-0.818,1.328-1.284,1.811c-0.001,0-0.001-0.001-0.002-0.001c-2.567-0.262-3.405-3.067-3.413-3.095
				c-0.039-0.136-0.181-0.212-0.316-0.175c-0.136,0.039-0.214,0.18-0.175,0.316c0.035,0.123,0.857,2.875,3.451,3.395
				c-0.411,0.372-0.722,0.591-0.731,0.597c-0.116,0.08-0.145,0.24-0.065,0.355c0.049,0.072,0.129,0.11,0.211,0.11
				c0.05,0,0.1-0.014,0.145-0.045c0.085-0.059,1.842-1.29,2.641-3.048c-0.347,2.339,1.026,3.269,1.089,3.309
				c0.042,0.027,0.089,0.039,0.136,0.039c0.085,0,0.168-0.042,0.216-0.119c0.075-0.119,0.039-0.277-0.08-0.352
				C100.148,216.091,98.946,215.277,99.324,213.148C99.324,213.148,99.324,213.148,99.324,213.148z"/>
		</g>
		<g>
			<path style="fill:#263238;" d="M190.382,241.417c-19.544,10.612-47.76,12.09-47.895,7.271
				c-0.502-18.646-6.441-29.992-11.143-34.985c-9.56-10.168-4.509-11.018-4.606-17.43c-0.019-1.043-0.164-2.24-0.55-3.65
				c-0.077-0.28-0.145-0.56-0.213-0.84c-1.641-6.991,0.01-12.881,6.47-15.643c0.27-0.126,0.55-0.232,0.84-0.338
				c2.066-0.753,1.719-1.207,3.824-1.864c0.039-0.01,0.068-0.019,0.106-0.029c5.494-1.699,10.796-2.713,16.947-3.737
				c0.946-0.164,1.912-0.319,2.897-0.483c1.275-0.203,2.53-0.386,3.756-0.541c0.628-0.077,1.236-0.145,1.844-0.212
				c6.701-0.734,12.563,4.5,12.582,11.24c0.019,4.036,0.203,7.908,0.541,11.626C177.819,214.862,185.255,231.674,190.382,241.417z"
				/>
			<path style="fill:#FF8B7B;" d="M132.445,176.141c-0.801,2.173-2.829,8.044-4.848,12.486c-0.579,1.284-1.111,2.317-1.622,3.158
				C124.333,184.793,125.984,178.902,132.445,176.141z"/>
			<path style="fill:#FF8B7B;" d="M154.161,170.173c-1.169,4.152-4.268,13.432-9.241,16.136c-6.141,3.351-11.752-4.577-7.706-12.399
				C142.709,172.211,148.01,171.197,154.161,170.173z"/>
			<path style="fill:#FF8B7B;" d="M175.782,191.803c-4.944,3.525-10.564,5.359-13.779,3.148c-6.663-4.577-2.462-21.292-1.188-25.802
				c0.628-0.077,1.236-0.145,1.844-0.212c6.701-0.734,12.563,4.5,12.582,11.24c0.01,1.564,0.039,3.09,0.106,4.606
				c0.068,2.095,0.193,4.143,0.367,6.151C175.733,191.224,175.753,191.514,175.782,191.803z"/>
			<path style="opacity:0.2;" d="M175.714,190.934l-9.943-6.972l9.576,0.821C175.415,186.878,175.54,188.926,175.714,190.934z"/>
			<path style="opacity:0.2;fill:#FFFFFF;" d="M130.207,190.604l-1.174,10.587c0,0,15.42,0.359,24.972-3.605
				c0,0,1.447-8.885,0.136-11.275C154.141,186.31,145.57,189.723,130.207,190.604z"/>
			<g>
				<path style="fill:#FF8B7B;" d="M152.94,171.222c0,0-3.538,3.585-6.662,8.101c-0.651,0.941-1.412,1.806-2.254,2.579
					c-2.274,2.087-4.47,3.514-5.452,2.411c-0.217-0.242-0.408-0.516-0.573-0.812c-1.107-1.986-0.922-4.515,0.443-6.332
					c1.54-2.049,1.395-4.139,0.502-6.139c-0.492-1.138-1.239-2.25-2.05-3.309l1.063-2.183l5.893-10.139
					C145.05,160.834,147.972,169.394,152.94,171.222z"/>
				<path style="opacity:0.2;" d="M138.944,171.03c-0.492-1.138-1.239-2.25-2.05-3.309l1.063-2.183l4.532-0.53
					C142.489,165.008,141.815,168.821,138.944,171.03z"/>
				<path style="fill:#FF8B7B;" d="M143.791,145.423c1.985,8.929,3.012,12.666-0.046,18.416c-4.599,8.648-15.795,9.061-20.357,0.888
					c-4.106-7.357-6.662-20.722,0.763-26.627C131.467,132.282,141.806,136.494,143.791,145.423"/>
				<path style="fill:#263238;" d="M119.462,151.181c0,0-7.173-5.317,2.322-13.203c0,0,6.556-8.852,16.856-5.23
					c10.3,3.621,12.74,15.286,6.785,26.562c0,0-0.669-9.141-4.451-11.052s-7.805-3.44-6.84-6.498c0,0-11.262,4.709-12.859,1.812
					C120.583,144.105,119.42,145.329,119.462,151.181z"/>
				<path style="fill:#263238;" d="M181.449,161.277c-16.898,3.731-14.562-8.354-19.554-8.527c-4.992-0.174-2.337,5.813-7.32,7.174
					c-4.992,1.371-9.212-5.89-9.212-5.89l0.483-2.491c0-0.338,2.366-2.25,4.056-1.033c1.69,1.217,4.191-4.258,9.502-6.837
					c5.311-2.578,9.733,1.371,12.225,8.314C174.129,158.929,181.449,161.277,181.449,161.277z"/>
				<path style="fill:#FFFFFF;" d="M125.611,162.332c0,0,4.587-1.65,5.713-3.5c0,0,0.376,3.5-2.045,4.587
					C126.858,164.504,125.611,162.332,125.611,162.332z"/>
				<path style="fill:#263238;" d="M128.955,151.582c0.205,0.715-0.008,1.403-0.475,1.536c-0.467,0.134-1.012-0.337-1.216-1.052
					c-0.205-0.715,0.008-1.402,0.475-1.536C128.206,150.397,128.751,150.868,128.955,151.582"/>
				<path style="fill:#263238;" d="M121.805,153.84c0.205,0.715-0.008,1.403-0.475,1.536c-0.467,0.134-1.012-0.337-1.216-1.052
					c-0.205-0.715,0.008-1.402,0.475-1.536C121.056,152.654,121.6,153.125,121.805,153.84"/>
				<path style="fill:#263238;" d="M120.806,152.768l-1.858-0.003C118.948,152.765,120.213,153.854,120.806,152.768"/>
				<path style="fill:#FF5652;" d="M124.829,154.255c0,0-0.572,1.902-1.292,3.617c-0.234,0.557,0.092,1.203,0.687,1.312
					c1.021,0.187,2.048,0.11,2.048,0.11L124.829,154.255z"/>
				<path style="fill:#FF8B7B;" d="M148.653,150.607c-0.304,1.905-1.377,3.354-2.57,4.088c-1.795,1.103-3.376-0.758-3.451-3.087
					c-0.066-2.096,0.787-5.195,2.864-5.33C147.543,146.144,149.001,148.43,148.653,150.607"/>
				<path style="fill:#263238;" d="M130.796,149.386c-0.115-0.003-0.229-0.053-0.312-0.145c-1.299-1.451-2.889-1.226-2.907-1.224
					c-0.235,0.035-0.461-0.127-0.498-0.365c-0.037-0.239,0.127-0.46,0.365-0.498c0.083-0.012,2.079-0.297,3.691,1.505
					c0.16,0.18,0.145,0.455-0.034,0.617C131.013,149.352,130.905,149.389,130.796,149.386"/>
				<path style="fill:#263238;" d="M118.466,151.442c-0.106,0.024-0.22,0.01-0.321-0.051c-0.207-0.124-0.274-0.392-0.151-0.599
					c1.238-2.073,3.251-2.176,3.337-2.18c0.241-0.009,0.444,0.178,0.453,0.419c0.01,0.24-0.178,0.443-0.418,0.454
					c-0.079,0.003-1.639,0.106-2.622,1.754C118.68,151.347,118.578,151.417,118.466,151.442"/>
				<path style="fill:#263238;" d="M127.957,150.511l-1.858-0.003C126.099,150.508,127.363,151.597,127.957,150.511"/>
			</g>
			<path style="fill:#407BFF;" d="M120.063,139.559c0,0-7.334,0.431-13.128,1.396c-4.502,0.75,0.789,3.935,12.485,3.943
				c11.696,0.008,17.474-4.506,17.474-4.506C129.118,140.433,122.485,140.306,120.063,139.559z"/>
			<path style="opacity:0.2;" d="M120.063,139.559c0,0-7.334,0.431-13.128,1.396c-4.502,0.75,0.789,3.935,12.485,3.943
				c11.696,0.008,17.474-4.506,17.474-4.506C129.118,140.433,122.485,140.306,120.063,139.559z"/>
			<path style="fill:#407BFF;" d="M119.42,139.6c0,0,0.832-3.597,4.916-4.179c0,0,8.912,1.869,18.729,0c0,0,3.832,0.99,4.33,5.475
				C147.395,140.897,134.561,142.993,119.42,139.6z"/>
			<path style="opacity:0.1;fill:#FFFFFF;" d="M119.42,139.6c0,0,0.832-3.597,4.916-4.179c0,0,8.912,1.869,18.729,0
				c0,0,3.832,0.99,4.33,5.475C147.395,140.897,134.561,142.993,119.42,139.6z"/>
		</g>
		<path style="fill:#FF8B7B;" d="M175.37,331.38l15.01,8.89l-5.92,5.39c0,0-4.37-0.92-11.12-2.58h-0.01
			c-23.68-5.81-76.58-20.67-72.57-36.57c4.42-17.53,32.95-45.33,44.16-55.89l45.46-9.2c14.51,25.7-56.74,65.35-59.68,63.51
			L175.37,331.38z"/>
		<path style="fill:#407BFF;" d="M190.38,340.27l-5.92,5.39c0,0-4.37-0.92-11.12-2.58l-1.34-0.328l3.37-11.371L190.38,340.27z"/>
		<path style="fill:#407BFF;" d="M142.489,248.685l-16.538,19.166l20.486,11.708l6.503-2.414l-1.641,5.311l11.105,8.959
			c0,0,43.16-28.024,27.977-49.995C176.924,244.475,157.881,240.451,142.489,248.685z"/>
		<path style="opacity:0.2;fill:none;stroke:#FFFFFF;stroke-width:0.5;stroke-miterlimit:10;" d="M186.586,242.042
			c0,0,12.76,18.276-28.387,43.382"/>
		<path style="fill:#263238;" d="M212.816,427.951c0,0-1.95-1.486-3.789-0.642c-1.84,0.844-2.15,5.973-5.947,10.798
			c-2.152,2.735-2.717,3.76-3.916,4.856c-1.737,1.587-1.855,4.05-1.361,6.351l0,0l30.046-16.33c0,0-2.373-4.478-4.58-6.17
			c-2.208-1.691-5.403-4.699-5.949-3.951C214.88,426.209,214.735,428.779,212.816,427.951z"/>
		<path style="fill:#263238;" d="M186.94,343.16c0,0-2.419-0.396-3.646,1.213c-1.228,1.609,0.908,6.283-0.177,12.326
			c-0.615,3.425-0.632,4.596-1.176,6.126c-0.788,2.218,0.265,4.447,1.782,6.246l0,0l18.853-28.531c0,0-4.199-2.839-6.942-3.295
			c-2.743-0.456-6.977-1.61-7.107-0.694C187.943,340.652,189.023,342.989,186.94,343.16z"/>
		<g>
			<path style="fill:#FF8B7B;" d="M215.92,191.98c-0.02,0.23-0.05,0.47-0.08,0.71c-0.04,0.24-0.08,0.48-0.12,0.64
				c-0.19,0.78-0.42,1.35-0.63,1.83c-0.45,0.95-0.87,1.57-1.27,2.12c-0.8,1.1-1.53,1.87-2.26,2.62c-1.47,1.45-2.89,2.63-4.33,3.78
				c-1.42,1.14-2.86,2.21-4.31,3.23c-5.77,4.1-11.67,7.65-17.82,10.99l-4.21-6.12c2.49-2.25,5.08-4.46,7.55-6.75
				c2.51-2.24,4.98-4.51,7.36-6.78c1.18-1.14,2.35-2.28,3.46-3.42c0.59-0.61,1.16-1.23,1.7-1.84c-0.72-0.31-1.52-0.61-2.34-0.89
				c-1.4-0.5-2.89-0.92-4.4-1.37c-3.04-0.87-6.22-1.59-9.42-2.31c-6.39-1.4-13.04-2.63-19.44-3.83l2.27-14.82
				c7.06,0.97,13.8,2.35,20.67,4.13c3.43,0.88,6.84,1.92,10.3,3.11c1.73,0.6,3.46,1.29,5.23,2.06c1.77,0.79,3.56,1.64,5.49,2.86
				c0.97,0.62,1.97,1.33,3.07,2.37c0.27,0.23,0.57,0.57,0.84,0.86c0.3,0.35,0.58,0.66,0.88,1.1c0.15,0.22,0.29,0.43,0.44,0.66
				c0.14,0.25,0.29,0.51,0.42,0.77c0.13,0.24,0.27,0.59,0.39,0.89l0.17,0.47c0.11,0.34,0.2,0.7,0.27,1.06
				c0.08,0.38,0.1,0.68,0.11,0.97C215.93,191.38,215.93,191.7,215.92,191.98z"/>
			<g>
				<polygon style="fill:#FF8B7B;" points="182.752,210.675 174.406,213.575 179.727,223.178 186.063,216.897 				"/>
			</g>
			<path style="fill:#FF8B7B;" d="M180.542,211.667c0,0-2.464-0.812-3.991-0.737c-1.527,0.075-3.988,4.352-3.988,4.352l2.5-1.634
				L180.542,211.667z"/>
			<path style="fill:#FF8B7B;" d="M175.381,212.863c0,0-4.199,2.049-4.261,3.748c-0.063,1.699,2.006,1.451,2.006,1.451
				s-0.659,1.564-0.166,2.192c0.635,0.808,1.447,0.428,1.447,0.428s-0.594,1.318,0,1.881s1.406,0.615,1.406,0.615
				s-0.5,0.419,0.5,1.246s3.415-1.246,3.415-1.246L175.381,212.863z"/>
			<g style="opacity:0.2;">
				<path d="M177.756,212.021c-0.034,0.008-2.317,0.698-3.86,1.254c-0.163,0.239-0.32,0.481-0.489,0.715
					c1.066-0.398,3.365-1.231,4.461-1.482c0.135-0.031,0.219-0.165,0.188-0.299C178.025,212.075,177.89,211.989,177.756,212.021z"/>
			</g>
		</g>
	</g>
</g>
</svg>
