<?xml version="1.0" encoding="utf-8"?>
<!-- Generator: Adobe Illustrator 27.5.0, SVG Export Plug-In . SVG Version: 6.00 Build 0)  -->
<svg version="1.1" xmlns="http://www.w3.org/2000/svg" xmlns:xlink="http://www.w3.org/1999/xlink" x="0px" y="0px"
	 viewBox="0 0 500 500" style="enable-background:new 0 0 500 500;" xml:space="preserve">
<g id="Background_Complete">
	<g>
		<rect y="382.398" style="fill:#EBEBEB;" width="500" height="0.25"/>
		<rect x="416.779" y="398.494" style="fill:#EBEBEB;" width="33.122" height="0.25"/>
		<rect x="322.527" y="401.208" style="fill:#EBEBEB;" width="8.693" height="0.25"/>
		<rect x="396.586" y="389.208" style="fill:#EBEBEB;" width="19.192" height="0.25"/>
		<rect x="52.459" y="390.888" style="fill:#EBEBEB;" width="43.193" height="0.25"/>
		<rect x="104.556" y="390.888" style="fill:#EBEBEB;" width="6.333" height="0.25"/>
		<rect x="131.471" y="395.111" style="fill:#EBEBEB;" width="93.676" height="0.25"/>
		<path style="fill:#EBEBEB;" d="M237.014,337.8H43.915c-3.147,0-5.708-2.561-5.708-5.708V60.66c0-3.147,2.561-5.708,5.708-5.708
			h193.099c3.146,0,5.707,2.561,5.707,5.708v271.432C242.721,335.239,240.16,337.8,237.014,337.8z M43.915,55.203
			c-3.01,0-5.458,2.448-5.458,5.458v271.432c0,3.01,2.448,5.458,5.458,5.458h193.099c3.009,0,5.457-2.448,5.457-5.458V60.66
			c0-3.009-2.448-5.458-5.457-5.458H43.915z"/>
		<path style="fill:#EBEBEB;" d="M453.31,337.8H260.212c-3.147,0-5.707-2.561-5.707-5.708V60.66c0-3.147,2.561-5.708,5.707-5.708
			H453.31c3.148,0,5.708,2.561,5.708,5.708v271.432C459.019,335.239,456.458,337.8,453.31,337.8z M260.212,55.203
			c-3.009,0-5.457,2.448-5.457,5.458v271.432c0,3.01,2.448,5.458,5.457,5.458H453.31c3.01,0,5.458-2.448,5.458-5.458V60.66
			c0-3.009-2.448-5.458-5.458-5.458H260.212z"/>
	</g>
	<g>
		<g>
			<rect x="140.544" y="225.244" style="fill:#FAFAFA;" width="22.297" height="9.486"/>
			<rect x="167.526" y="225.244" style="fill:#FAFAFA;" width="22.298" height="9.486"/>
			<rect x="194.508" y="225.244" style="fill:#FAFAFA;" width="22.297" height="9.486"/>
			<rect x="127.054" y="238.451" style="fill:#FAFAFA;" width="22.298" height="9.486"/>
			<rect x="154.035" y="238.451" style="fill:#FAFAFA;" width="22.297" height="9.486"/>
			<rect x="181.017" y="238.451" style="fill:#FAFAFA;" width="22.297" height="9.486"/>
			<rect x="207.998" y="238.451" style="fill:#FAFAFA;" width="22.298" height="9.486"/>
			<rect x="83.561" y="251.657" style="fill:#FAFAFA;" width="22.297" height="9.486"/>
			<rect x="110.543" y="251.657" style="fill:#FAFAFA;" width="22.298" height="9.486"/>
			<rect x="167.526" y="251.657" style="fill:#FAFAFA;" width="22.298" height="9.486"/>
			<rect x="194.508" y="251.657" style="fill:#FAFAFA;" width="22.297" height="9.486"/>
			<rect x="221.489" y="251.657" style="fill:#FAFAFA;" width="22.297" height="9.486"/>
			<rect x="97.052" y="264.864" style="fill:#FAFAFA;" width="22.297" height="9.486"/>
			<rect x="154.035" y="264.864" style="fill:#FAFAFA;" width="22.297" height="9.486"/>
			<rect x="181.017" y="264.864" style="fill:#FAFAFA;" width="22.297" height="9.486"/>
			<rect x="207.998" y="264.864" style="fill:#FAFAFA;" width="22.298" height="9.486"/>
			<rect x="313.243" y="90.692" style="fill:#FAFAFA;" width="22.298" height="9.486"/>
			<rect x="340.224" y="90.692" style="fill:#FAFAFA;" width="22.298" height="9.486"/>
			<rect x="299.753" y="103.898" style="fill:#FAFAFA;" width="22.297" height="9.486"/>
			<rect x="326.734" y="103.898" style="fill:#FAFAFA;" width="22.297" height="9.486"/>
			<rect x="380.697" y="103.898" style="fill:#FAFAFA;" width="22.297" height="9.486"/>
			<rect x="407.678" y="103.898" style="fill:#FAFAFA;" width="22.297" height="9.486"/>
			<rect x="340.224" y="117.105" style="fill:#FAFAFA;" width="22.298" height="9.486"/>
			<rect x="94.61" y="167.993" style="fill:#FAFAFA;" width="22.298" height="9.486"/>
			<rect x="141.593" y="167.993" style="fill:#FAFAFA;" width="22.298" height="9.486"/>
			<rect x="81.12" y="181.199" style="fill:#FAFAFA;" width="22.297" height="9.486"/>
			<rect x="108.101" y="181.199" style="fill:#FAFAFA;" width="22.297" height="9.486"/>
			<rect x="338.32" y="154.665" style="fill:#FAFAFA;" width="22.298" height="9.486"/>
			<rect x="395.309" y="154.665" style="fill:#FAFAFA;" width="22.298" height="9.486"/>
			<rect x="324.83" y="167.872" style="fill:#FAFAFA;" width="22.297" height="9.486"/>
			<rect x="361.818" y="167.872" style="fill:#FAFAFA;" width="22.297" height="9.486"/>
			<rect x="94.61" y="194.406" style="fill:#FAFAFA;" width="22.298" height="9.486"/>
			<rect x="141.593" y="194.406" style="fill:#FAFAFA;" width="22.298" height="9.486"/>
			<rect x="394.188" y="117.105" style="fill:#FAFAFA;" width="22.297" height="9.486"/>
			<rect x="78.268" y="91.048" style="fill:#FAFAFA;" width="22.297" height="9.486"/>
			<rect x="105.249" y="91.048" style="fill:#FAFAFA;" width="22.297" height="9.486"/>
			<rect x="91.758" y="104.254" style="fill:#FAFAFA;" width="22.297" height="9.486"/>
			<rect x="199.136" y="91.257" style="fill:#FAFAFA;" width="22.298" height="9.486"/>
			<rect x="226.118" y="91.257" style="fill:#FAFAFA;" width="22.297" height="9.486"/>
			<rect x="185.645" y="104.464" style="fill:#FAFAFA;" width="22.298" height="9.486"/>
			<rect x="212.627" y="104.464" style="fill:#FAFAFA;" width="22.297" height="9.486"/>
			<rect x="239.609" y="104.464" style="fill:#FAFAFA;" width="22.297" height="9.486"/>
			<rect x="172.155" y="117.671" style="fill:#FAFAFA;" width="22.297" height="9.486"/>
			<rect x="199.136" y="117.671" style="fill:#FAFAFA;" width="22.298" height="9.486"/>
			<rect x="226.118" y="117.671" style="fill:#FAFAFA;" width="22.297" height="9.486"/>
			<rect x="185.645" y="130.877" style="fill:#FAFAFA;" width="22.298" height="9.486"/>
			<rect x="212.627" y="130.877" style="fill:#FAFAFA;" width="22.297" height="9.486"/>
			<rect x="367" y="221.657" style="fill:#FAFAFA;" width="22.297" height="9.486"/>
			<rect x="393.982" y="221.657" style="fill:#FAFAFA;" width="22.297" height="9.486"/>
			<rect x="289.54" y="222.863" style="fill:#FAFAFA;" width="22.298" height="9.486"/>
			<rect x="353.509" y="234.863" style="fill:#FAFAFA;" width="22.297" height="9.486"/>
			<rect x="380.491" y="234.863" style="fill:#FAFAFA;" width="22.297" height="9.486"/>
			<rect x="276.049" y="236.069" style="fill:#FAFAFA;" width="22.297" height="9.486"/>
			<rect x="303.031" y="236.069" style="fill:#FAFAFA;" width="22.297" height="9.486"/>
			<rect x="231.432" y="193.372" style="fill:#FAFAFA;" width="22.298" height="9.486"/>
			<rect x="371.326" y="187.085" style="fill:#FAFAFA;" width="22.298" height="9.486"/>
			<rect x="261.843" y="146.536" style="fill:#FAFAFA;" width="22.298" height="9.486"/>
			<rect x="244.923" y="180.165" style="fill:#FAFAFA;" width="22.297" height="9.486"/>
			<rect x="217.941" y="180.165" style="fill:#FAFAFA;" width="22.297" height="9.486"/>
			<rect x="116.651" y="360.462" style="fill:#FAFAFA;" width="22.298" height="9.486"/>
			<rect x="103.161" y="347.256" style="fill:#FAFAFA;" width="22.297" height="9.486"/>
			<rect x="367" y="248.07" style="fill:#FAFAFA;" width="22.297" height="9.486"/>
			<rect x="393.982" y="248.07" style="fill:#FAFAFA;" width="22.297" height="9.486"/>
			<rect x="353.509" y="261.276" style="fill:#FAFAFA;" width="22.297" height="9.486"/>
			<rect x="380.491" y="261.276" style="fill:#FAFAFA;" width="22.297" height="9.486"/>
			<rect x="324.658" y="297.811" style="fill:#FAFAFA;" width="22.297" height="9.486"/>
			<rect x="351.639" y="297.811" style="fill:#FAFAFA;" width="22.297" height="9.486"/>
			<rect x="378.621" y="297.811" style="fill:#FAFAFA;" width="22.297" height="9.486"/>
			<rect x="405.602" y="297.811" style="fill:#FAFAFA;" width="22.297" height="9.486"/>
			<rect x="311.167" y="311.017" style="fill:#FAFAFA;" width="22.298" height="9.486"/>
			<rect x="338.148" y="311.017" style="fill:#FAFAFA;" width="22.297" height="9.486"/>
			<rect x="392.112" y="311.017" style="fill:#FAFAFA;" width="22.297" height="9.486"/>
			<rect x="297.676" y="324.224" style="fill:#FAFAFA;" width="22.297" height="9.486"/>
			<rect x="324.658" y="324.224" style="fill:#FAFAFA;" width="22.297" height="9.486"/>
			<rect x="351.639" y="324.224" style="fill:#FAFAFA;" width="22.297" height="9.486"/>
			<rect x="311.167" y="337.43" style="fill:#FAFAFA;" width="22.298" height="9.486"/>
			<rect x="338.148" y="337.43" style="fill:#FAFAFA;" width="22.297" height="9.486"/>
			<rect x="365.13" y="337.43" style="fill:#FAFAFA;" width="22.297" height="9.486"/>
			<rect x="142.121" y="297.201" style="fill:#FAFAFA;" width="22.297" height="9.486"/>
			<rect x="199.105" y="297.201" style="fill:#FAFAFA;" width="22.297" height="9.486"/>
			<rect x="226.086" y="297.201" style="fill:#FAFAFA;" width="22.297" height="9.486"/>
			<rect x="128.63" y="310.408" style="fill:#FAFAFA;" width="22.298" height="9.486"/>
			<rect x="185.614" y="310.408" style="fill:#FAFAFA;" width="22.297" height="9.486"/>
			<rect x="212.595" y="310.408" style="fill:#FAFAFA;" width="22.298" height="9.486"/>
			<rect x="239.577" y="310.408" style="fill:#FAFAFA;" width="22.297" height="9.486"/>
			<rect x="115.14" y="323.614" style="fill:#FAFAFA;" width="22.297" height="9.486"/>
			<rect x="142.121" y="323.614" style="fill:#FAFAFA;" width="22.297" height="9.486"/>
			<rect x="199.105" y="323.614" style="fill:#FAFAFA;" width="22.297" height="9.486"/>
			<rect x="226.086" y="323.614" style="fill:#FAFAFA;" width="22.297" height="9.486"/>
			<rect x="158.632" y="336.82" style="fill:#FAFAFA;" width="22.298" height="9.486"/>
			<rect x="185.614" y="336.82" style="fill:#FAFAFA;" width="22.297" height="9.486"/>
			<rect x="212.595" y="336.82" style="fill:#FAFAFA;" width="22.298" height="9.486"/>
			<rect x="239.577" y="336.82" style="fill:#FAFAFA;" width="22.297" height="9.486"/>
		</g>
		<g>
			<rect x="99.209" y="142.842" style="fill:#E0E0E0;" width="96.317" height="110.175"/>
			<rect x="102.733" y="142.842" style="fill:#E0E0E0;" width="92.613" height="110.175"/>
			<rect x="102.211" y="142.842" style="fill:#F0F0F0;" width="96.317" height="110.175"/>
			<rect x="106.416" y="146.356" style="fill:#FFFFFF;" width="87.74" height="101.599"/>
			<rect x="191.417" y="146.356" style="fill:#E0E0E0;" width="2.74" height="101.599"/>
			
				<rect x="147.572" y="178.018" transform="matrix(6.123234e-17 -1 1 6.123234e-17 -71.8446 369.728)" style="fill:#E0E0E0;" width="2.74" height="85.536"/>
			<rect x="104.947" y="214.817" style="fill:#F0F0F0;" width="89.21" height="4.6"/>
		</g>
		<g>
			<rect x="302.337" y="142.842" style="fill:#E0E0E0;" width="96.317" height="110.175"/>
			<rect x="305.861" y="142.842" style="fill:#E0E0E0;" width="92.613" height="110.175"/>
			<rect x="305.339" y="142.842" style="fill:#F0F0F0;" width="96.317" height="110.175"/>
			<rect x="309.544" y="146.356" style="fill:#FFFFFF;" width="87.74" height="101.599"/>
			<rect x="394.545" y="146.356" style="fill:#E0E0E0;" width="2.74" height="101.599"/>
			
				<rect x="350.7" y="178.018" transform="matrix(6.123234e-17 -1 1 6.123234e-17 131.2833 572.8559)" style="fill:#E0E0E0;" width="2.74" height="85.536"/>
			<rect x="308.075" y="214.817" style="fill:#F0F0F0;" width="89.21" height="4.6"/>
		</g>
	</g>
</g>
<g id="Background_Simple" style="display:none;">
	<g style="display:inline;">
		<path style="fill:#407BFF;" d="M291.999,205.139c-66.9-16.999-88.59-159.027-188.91-79.888
			c-71.172,56.145-30.064,189.975,58.447,173.034c53.573-10.254,45.341-11.106,90.241,13.814
			c45.502,25.254,95.829,37.529,145.523-9.125c25.717-24.143,36.522-82.231,12.311-111.86
			C379.331,154.058,332.869,215.523,291.999,205.139z"/>
		<path style="opacity:0.9;fill:#FFFFFF;" d="M291.999,205.139c-66.9-16.999-88.59-159.027-188.91-79.888
			c-71.172,56.145-30.064,189.975,58.447,173.034c53.573-10.254,45.341-11.106,90.241,13.814
			c45.502,25.254,95.829,37.529,145.523-9.125c25.717-24.143,36.522-82.231,12.311-111.86
			C379.331,154.058,332.869,215.523,291.999,205.139z"/>
	</g>
</g>
<g id="Shadow_1_">
	<ellipse id="_x3C_Path_x3E__359_" style="fill:#F5F5F5;" cx="250" cy="416.238" rx="193.889" ry="11.323"/>
</g>
<g id="table">
	<g>
		<g>
			<path style="fill:#263238;" d="M87.984,293.226v4.593h6.067v-4.593H93.97c-0.878,0-1.66-0.553-1.952-1.381
				c-0.15-0.424-0.551-0.708-1-0.708l0,0c-0.45,0-0.851,0.284-1.001,0.708c-0.292,0.827-1.074,1.381-1.952,1.381H87.984z
				 M90.349,292.355c0-0.369,0.299-0.668,0.668-0.668c0.369,0,0.668,0.299,0.668,0.668c0,0.369-0.299,0.668-0.668,0.668
				C90.648,293.023,90.349,292.724,90.349,292.355z"/>
			<path style="fill:#407BFF;" d="M85.443,306.794v-7.832c0-0.864,0.7-1.564,1.564-1.564h8.02c0.864,0,1.564,0.7,1.564,1.564v7.832
				c0,0.443-0.359,0.801-0.801,0.801h-9.546C85.802,307.596,85.443,307.237,85.443,306.794z"/>
			<path style="fill:#407BFF;" d="M96.591,311.166v17.783c0,0.864-0.7,1.564-1.564,1.564h-8.02c-0.864,0-1.564-0.7-1.564-1.564
				v-17.783c0-0.442,0.359-0.801,0.801-0.801h9.546C96.233,310.365,96.591,310.724,96.591,311.166z"/>
			
				<rect x="86.369" y="306.409" transform="matrix(-1 -1.224647e-16 1.224647e-16 -1 182.0347 617.5979)" style="fill:#407BFF;" width="9.297" height="4.78"/>
		</g>
		<g>
			<path style="fill:#407BFF;" d="M102.345,319.87h35.022c2.365,0,4.282,1.917,4.282,4.282v1.92c0,2.365-1.917,4.282-4.282,4.282
				H94.966c-2.365,0-4.282-1.917-4.282-4.282l0,0c0-2.365,1.917-4.282,4.282-4.282h6.752v-1.294
				C101.718,320.151,101.999,319.87,102.345,319.87z"/>
			<path style="opacity:0.7;fill:#FFFFFF;" d="M102.345,319.87h35.022c2.365,0,4.282,1.917,4.282,4.282v1.92
				c0,2.365-1.917,4.282-4.282,4.282H94.966c-2.365,0-4.282-1.917-4.282-4.282l0,0c0-2.365,1.917-4.282,4.282-4.282h6.752v-1.294
				C101.718,320.151,101.999,319.87,102.345,319.87z"/>
			<path style="opacity:0.5;fill:#FFFFFF;enable-background:new    ;" d="M129.345,319.87h8.022c2.365,0,4.282,1.917,4.282,4.282
				v1.92c0,2.365-1.917,4.282-4.282,4.282h-15.401c-2.365,0-4.282-1.917-4.282-4.282l0,0c0-2.365,1.917-4.282,4.282-4.282h6.752
				v-1.294C128.718,320.151,128.999,319.87,129.345,319.87z"/>
			<path style="opacity:0.2;" d="M128.718,321.79l4.575-0.132l2.287-0.056c0.385-0.006,0.75-0.03,1.165-0.009
				c0.404,0.036,0.803,0.135,1.178,0.298c1.523,0.639,2.464,2.403,2.152,4.054c-0.261,1.657-1.758,3.04-3.471,3.132
				c-3.096,0.083-6.113,0.055-9.173,0.083l-4.575,0.023c-0.384-0.008-0.739,0.031-1.219-0.036c-0.448-0.071-0.883-0.241-1.253-0.504
				c-0.747-0.517-1.245-1.388-1.29-2.303c-0.059-0.911,0.333-1.839,1.021-2.433c0.34-0.301,0.748-0.526,1.188-0.644
				c0.442-0.13,0.915-0.112,1.266-0.11l4.575,0.023c3.05,0.024,6.1,0.01,9.15,0.07c0.415-0.036,1.006,0.164,1.302,0.56
				c0.324,0.388,0.427,0.937,0.275,1.412c-0.148,0.478-0.543,0.861-1.02,0.992c-0.245,0.071-0.492,0.054-0.661,0.052l-0.572-0.009
				l-4.575-0.071c-3.05-0.083-6.1-0.132-9.15-0.245c3.05-0.113,6.1-0.162,9.15-0.245l4.575-0.071
				c0.354-0.018,0.833,0.018,1.045-0.051c0.259-0.08,0.468-0.299,0.537-0.555c0.152-0.536-0.292-1.089-0.907-1.001
				c-3.05,0.061-6.1,0.047-9.15,0.07l-4.575,0.023c-0.409,0.001-0.71-0.005-1.003,0.085c-0.297,0.082-0.572,0.238-0.8,0.445
				c-0.465,0.41-0.716,1.032-0.674,1.646c0.022,0.615,0.351,1.203,0.855,1.561c0.249,0.183,0.543,0.299,0.846,0.35
				c0.275,0.049,0.687,0.028,1.064,0.035l4.575,0.023l9.127,0.061c1.369-0.028,2.639-1.111,2.899-2.483
				c0.303-1.368-0.438-2.89-1.739-3.496c-0.318-0.156-0.662-0.261-1.016-0.311c-0.346-0.035-0.745-0.032-1.122-0.045l-2.287-0.056
				L128.718,321.79z"/>
			<polygon style="opacity:0.2;" points="101.718,321.79 128.718,321.79 101.718,320.793 			"/>
		</g>
		<polygon style="fill:#263238;" points="141.86,330.11 141.86,413.39 136.82,413.39 136.82,339.78 83.48,339.78 83.48,413.39 
			78.44,413.39 78.44,330.11 		"/>
		<polygon style="opacity:0.5;fill:#FFFFFF;" points="141.86,330.11 141.86,413.39 136.82,413.39 136.82,339.78 83.48,339.78 
			83.48,413.39 78.44,413.39 78.44,330.11 		"/>
		<polygon style="fill:#263238;" points="155.869,330.11 155.869,413.39 150.829,413.39 150.829,339.78 97.489,339.78 
			97.489,413.39 92.449,413.39 92.449,330.11 		"/>
		<polygon style="opacity:0.7;fill:#FFFFFF;" points="155.869,330.11 155.869,413.39 150.829,413.39 150.829,339.78 97.489,339.78 
			97.489,413.39 92.449,413.39 92.449,330.11 		"/>
	</g>
</g>
<g id="Barbells">
	<g>
		<path style="fill:#407BFF;" d="M391.095,294.482c2.728,1.756,2.596,41.946,1.805,42.196c-0.791,0.25-1.187-2.066-3.297-1.143
			c-2.11,0.923-2.769-0.659-7.78-0.659c-5.011,0-4.484,3.824-5.011,0c-0.528-3.824,0-38.765,0-38.765L391.095,294.482z"/>
		<path style="opacity:0.3;fill:#FFFFFF;enable-background:new    ;" d="M391.095,294.482c2.728,1.756,2.596,41.946,1.805,42.196
			c-0.791,0.25-1.187-2.066-3.297-1.143c-2.11,0.923-2.769-0.659-7.78-0.659c-5.011,0-4.484,3.824-5.011,0
			c-0.528-3.824,0-38.765,0-38.765L391.095,294.482z"/>
		<g>
			<g>
				<path style="fill:#263238;" d="M352.181,312.263c-0.991,0-1.058,0-2.049,0c-6.481,0-11.736,6.641-11.736,14.833
					c0,8.192,5.255,14.833,11.736,14.833c0.991,0,1.058,0,2.049,0c6.482,0,11.737-6.641,11.737-14.833
					C363.918,318.904,358.663,312.263,352.181,312.263z"/>
				<path style="opacity:0.2;fill:#FFFFFF;enable-background:new    ;" d="M363.917,327.096c0,8.192-5.255,14.833-11.736,14.833
					c-6.482,0-11.736-6.641-11.736-14.833s5.255-14.833,11.736-14.833C358.663,312.263,363.917,318.904,363.917,327.096z"/>
			</g>
			<g>
				<path style="fill:#263238;" d="M354.131,316.108c-0.734,0-0.784,0-1.518,0c-4.801,0-8.694,4.919-8.694,10.988
					c0,6.068,3.893,10.988,8.694,10.988c0.734,0,0.784,0,1.518,0c4.802,0,8.694-4.919,8.694-10.988
					C362.825,321.027,358.933,316.108,354.131,316.108z"/>
				<path style="opacity:0.1;fill:#FFFFFF;enable-background:new    ;" d="M362.825,327.096c0,6.068-3.893,10.988-8.694,10.988
					c-4.801,0-8.694-4.919-8.694-10.988c0-6.068,3.893-10.988,8.694-10.988C358.933,316.108,362.825,321.028,362.825,327.096z"/>
			</g>
			<g>
				<path style="fill:#263238;" d="M356.08,323.727c-0.225,0-0.24,0-0.465,0c-1.472,0-2.665,1.508-2.665,3.369
					c0,1.86,1.193,3.369,2.665,3.369c0.225,0,0.24,0,0.465,0c1.472,0,2.665-1.508,2.665-3.369
					C358.745,325.236,357.552,323.727,356.08,323.727z"/>
				<path style="opacity:0.2;fill:#FFFFFF;enable-background:new    ;" d="M358.745,327.096c0,1.86-1.193,3.369-2.665,3.369
					c-1.472,0-2.665-1.508-2.665-3.369c0-1.86,1.193-3.369,2.665-3.369C357.552,323.727,358.745,325.236,358.745,327.096z"/>
			</g>
		</g>
		<g>
			<g>
				<path style="fill:#263238;" d="M353.399,285.016c-0.743,0-0.794,0-1.537,0c-4.861,0-8.802,4.981-8.802,11.125
					c0,6.144,3.941,11.125,8.802,11.125c0.743,0,0.794,0,1.537,0c4.862,0,8.802-4.981,8.802-11.125
					C362.201,289.996,358.261,285.016,353.399,285.016z"/>
				<path style="opacity:0.2;fill:#FFFFFF;enable-background:new    ;" d="M362.201,296.14c0,6.144-3.941,11.125-8.802,11.125
					c-4.861,0-8.802-4.981-8.802-11.125s3.941-11.125,8.802-11.125C358.26,285.016,362.201,289.996,362.201,296.14z"/>
			</g>
			<g>
				<path style="fill:#263238;" d="M354.862,287.899c-0.55,0-0.588,0-1.138,0c-3.601,0-6.521,3.69-6.521,8.241
					s2.919,8.241,6.521,8.241c0.55,0,0.588,0,1.138,0c3.601,0,6.521-3.69,6.521-8.241S358.463,287.899,354.862,287.899z"/>
				<path style="opacity:0.1;fill:#FFFFFF;enable-background:new    ;" d="M361.382,296.14c0,4.551-2.919,8.241-6.521,8.241
					c-3.601,0-6.521-3.69-6.521-8.241c0-4.551,2.919-8.241,6.521-8.241C358.463,287.899,361.382,291.589,361.382,296.14z"/>
			</g>
			<g>
				<path style="fill:#263238;" d="M356.323,293.614c-0.169,0-0.18,0-0.349,0c-1.104,0-1.999,1.131-1.999,2.526
					c0,1.395,0.895,2.526,1.999,2.526c0.169,0,0.18,0,0.349,0c1.104,0,1.999-1.131,1.999-2.526
					C358.322,294.745,357.427,293.614,356.323,293.614z"/>
				<path style="opacity:0.2;fill:#FFFFFF;enable-background:new    ;" d="M358.322,296.14c0,1.395-0.895,2.526-1.999,2.526
					s-1.999-1.131-1.999-2.526c0-1.395,0.895-2.526,1.999-2.526S358.322,294.745,358.322,296.14z"/>
			</g>
		</g>
		<g>
			<g>
				<path style="fill:#263238;" d="M351.649,346.149c-1.189,0-1.27,0-2.459,0c-7.778,0-14.084,7.969-14.084,17.799
					c0,9.83,6.306,17.799,14.084,17.799c1.189,0,1.27,0,2.459,0c7.779,0,14.084-7.969,14.084-17.799
					C365.733,354.118,359.427,346.149,351.649,346.149z"/>
				<ellipse style="opacity:0.2;fill:#FFFFFF;enable-background:new    ;" cx="351.649" cy="363.948" rx="14.083" ry="17.799"/>
			</g>
			<g>
				<path style="fill:#263238;" d="M353.989,350.763c-0.881,0-0.941,0-1.821,0c-5.762,0-10.433,5.903-10.433,13.186
					c0,7.282,4.671,13.185,10.433,13.185c0.88,0,0.941,0,1.821,0c5.762,0,10.433-5.903,10.433-13.185
					C364.422,356.666,359.751,350.763,353.989,350.763z"/>
				<ellipse style="opacity:0.1;fill:#FFFFFF;enable-background:new    ;" cx="353.989" cy="363.948" rx="10.433" ry="13.185"/>
			</g>
			<g>
				<path style="fill:#263238;" d="M356.328,359.906c-0.27,0-0.288,0-0.558,0c-1.767,0-3.199,1.81-3.199,4.042
					c0,2.233,1.432,4.042,3.199,4.042c0.27,0,0.288,0,0.558,0c1.766,0,3.198-1.81,3.198-4.042
					C359.526,361.716,358.094,359.906,356.328,359.906z"/>
				<path style="opacity:0.2;fill:#FFFFFF;enable-background:new    ;" d="M359.526,363.948c0,2.233-1.432,4.042-3.198,4.042
					c-1.767,0-3.199-1.81-3.199-4.042c0-2.232,1.432-4.042,3.199-4.042C358.094,359.906,359.526,361.716,359.526,363.948z"/>
			</g>
		</g>
		<g>
			<g>
				<polygon style="fill:#263238;" points="406.572,409.316 404.412,409.62 402.572,409.316 388.33,411.317 388.33,413.39 
					392.331,413.39 414.704,413.39 418.704,413.39 418.704,411.317 				"/>
				<polygon style="opacity:0.2;fill:#FFFFFF;enable-background:new    ;" points="406.572,409.316 404.412,409.62 402.572,409.316 
					388.33,411.317 388.33,413.39 392.331,413.39 414.704,413.39 418.704,413.39 418.704,411.317 				"/>
				<polygon style="opacity:0.2;fill:#FFFFFF;enable-background:new    ;" points="404.417,409.617 392.327,411.317 
					392.327,413.387 388.327,413.387 388.327,411.317 402.577,409.317 				"/>
				<rect x="402.381" y="288.453" style="fill:#263238;" width="4.99" height="121.096"/>
				<rect x="402.381" y="288.453" style="opacity:0.2;fill:#FFFFFF;enable-background:new    ;" width="4.99" height="121.096"/>
				<rect x="402.381" y="288.453" style="opacity:0.2;fill:#FFFFFF;enable-background:new    ;" width="2.495" height="121.096"/>
			</g>
			<g>
				<polygon style="fill:#263238;" points="363.613,409.316 361.453,409.62 359.613,409.316 345.371,411.317 345.371,413.39 
					349.371,413.39 371.745,413.39 375.745,413.39 375.745,411.317 				"/>
				<polygon style="opacity:0.2;fill:#FFFFFF;enable-background:new    ;" points="363.613,409.316 361.453,409.62 359.613,409.316 
					345.371,411.317 345.371,413.39 349.371,413.39 371.745,413.39 375.745,413.39 375.745,411.317 				"/>
				<polygon style="opacity:0.2;fill:#FFFFFF;enable-background:new    ;" points="361.458,409.617 349.368,411.317 
					349.368,413.387 345.368,413.387 345.368,411.317 359.618,409.317 				"/>
				<rect x="359.422" y="288.453" style="fill:#263238;" width="4.99" height="121.096"/>
				<rect x="359.422" y="288.453" style="opacity:0.2;fill:#FFFFFF;enable-background:new    ;" width="4.99" height="121.096"/>
				<rect x="359.422" y="288.453" style="opacity:0.2;fill:#FFFFFF;enable-background:new    ;" width="2.495" height="121.096"/>
			</g>
		</g>
		<g>
			<path style="fill:#263238;" d="M402.331,363.948c0,0.457-0.133,0.877-0.35,1.172c-0.186,0.258-0.425,0.427-0.696,0.472
				c-0.048,0.007-0.096,0.015-0.149,0.015h-44.349c-0.658,0-1.19-0.737-1.19-1.658c0-0.457,0.133-0.87,0.35-1.172
				c0.212-0.302,0.51-0.486,0.839-0.486h44.349c0.053,0,0.101,0.007,0.149,0.015C401.875,362.408,402.331,363.108,402.331,363.948z"
				/>
			<path style="opacity:0.5;fill:#FFFFFF;" d="M402.331,363.948c0,0.457-0.133,0.877-0.35,1.172
				c-0.186,0.258-0.425,0.427-0.696,0.472c-0.048,0.007-0.096,0.015-0.149,0.015h-44.349c-0.658,0-1.19-0.737-1.19-1.658
				c0-0.457,0.133-0.87,0.35-1.172c0.212-0.302,0.51-0.486,0.839-0.486h44.349c0.053,0,0.101,0.007,0.149,0.015
				C401.875,362.408,402.331,363.108,402.331,363.948z"/>
			<g>
				<path style="fill:#263238;" d="M407.638,346.149c-1.189,0-1.27,0-2.459,0c-7.778,0-14.084,7.969-14.084,17.799
					c0,9.83,6.306,17.799,14.084,17.799c1.189,0,1.27,0,2.459,0c7.779,0,14.084-7.969,14.084-17.799
					C421.721,354.118,415.416,346.149,407.638,346.149z"/>
				<ellipse style="opacity:0.2;fill:#FFFFFF;enable-background:new    ;" cx="407.638" cy="363.948" rx="14.083" ry="17.799"/>
			</g>
			<g>
				<path style="fill:#263238;" d="M409.978,350.763c-0.881,0-0.941,0-1.821,0c-5.762,0-10.433,5.903-10.433,13.186
					c0,7.282,4.671,13.185,10.433,13.185c0.881,0,0.941,0,1.821,0c5.762,0,10.433-5.903,10.433-13.185
					C420.411,356.666,415.74,350.763,409.978,350.763z"/>
				<ellipse style="opacity:0.1;fill:#FFFFFF;enable-background:new    ;" cx="409.978" cy="363.948" rx="10.433" ry="13.185"/>
			</g>
			<g>
				<path style="fill:#263238;" d="M412.316,359.906c-0.27,0-0.288,0-0.558,0c-1.766,0-3.198,1.81-3.198,4.042
					c0,2.233,1.432,4.042,3.198,4.042c0.27,0,0.288,0,0.558,0c1.766,0,3.198-1.81,3.198-4.042
					C415.515,361.716,414.083,359.906,412.316,359.906z"/>
				<ellipse style="opacity:0.2;fill:#FFFFFF;enable-background:new    ;" cx="412.316" cy="363.948" rx="3.198" ry="4.042"/>
			</g>
			<g>
				<path style="fill:#263238;" d="M416.335,363.948c0,0.457-0.133,0.877-0.351,1.172c-0.186,0.258-0.425,0.427-0.696,0.472
					c-0.048,0.007-0.096,0.015-0.149,0.015h-2.364c-0.658,0-1.189-0.737-1.189-1.658c0-0.457,0.133-0.87,0.35-1.172
					c0.212-0.302,0.51-0.486,0.839-0.486h2.364c0.053,0,0.101,0.007,0.149,0.015C415.878,362.408,416.335,363.108,416.335,363.948z"
					/>
				<path style="opacity:0.2;fill:#FFFFFF;enable-background:new    ;" d="M416.335,363.948c0,0.457-0.133,0.877-0.351,1.172
					c-0.186,0.258-0.425,0.427-0.696,0.472c-0.595-0.096-1.046-0.796-1.046-1.644c0-0.457,0.133-0.87,0.35-1.172
					c0.181-0.258,0.42-0.428,0.696-0.472C415.878,362.408,416.335,363.108,416.335,363.948z"/>
			</g>
		</g>
		<g>
			<path style="fill:#263238;" d="M402.331,327.096c0,0.457-0.133,0.877-0.35,1.172c-0.186,0.258-0.425,0.427-0.696,0.472
				c-0.048,0.007-0.096,0.015-0.149,0.015h-44.349c-0.658,0-1.19-0.737-1.19-1.658c0-0.457,0.133-0.87,0.35-1.172
				c0.212-0.302,0.51-0.486,0.839-0.486h44.349c0.053,0,0.101,0.007,0.149,0.015C401.875,325.556,402.331,326.256,402.331,327.096z"
				/>
			<path style="opacity:0.5;fill:#FFFFFF;" d="M402.331,327.096c0,0.457-0.133,0.877-0.35,1.172
				c-0.186,0.258-0.425,0.427-0.696,0.472c-0.048,0.007-0.096,0.015-0.149,0.015h-44.349c-0.658,0-1.19-0.737-1.19-1.658
				c0-0.457,0.133-0.87,0.35-1.172c0.212-0.302,0.51-0.486,0.839-0.486h44.349c0.053,0,0.101,0.007,0.149,0.015
				C401.875,325.556,402.331,326.256,402.331,327.096z"/>
			<g>
				<path style="fill:#263238;" d="M408.17,312.263c-0.991,0-1.058,0-2.049,0c-6.482,0-11.736,6.641-11.736,14.833
					c0,8.192,5.255,14.833,11.736,14.833c0.991,0,1.058,0,2.049,0c6.482,0,11.737-6.641,11.737-14.833
					C419.906,318.904,414.652,312.263,408.17,312.263z"/>
				<path style="opacity:0.2;fill:#FFFFFF;enable-background:new    ;" d="M419.906,327.096c0,8.192-5.254,14.833-11.736,14.833
					c-6.482,0-11.736-6.641-11.736-14.833s5.254-14.833,11.736-14.833C414.652,312.263,419.906,318.904,419.906,327.096z"/>
			</g>
			<g>
				<path style="fill:#263238;" d="M410.12,316.108c-0.734,0-0.784,0-1.518,0c-4.801,0-8.694,4.919-8.694,10.988
					c0,6.068,3.893,10.988,8.694,10.988c0.734,0,0.784,0,1.518,0c4.802,0,8.694-4.919,8.694-10.988
					C418.815,321.027,414.922,316.108,410.12,316.108z"/>
				<ellipse style="opacity:0.1;fill:#FFFFFF;enable-background:new    ;" cx="410.12" cy="327.096" rx="8.694" ry="10.988"/>
			</g>
			<g>
				<path style="fill:#263238;" d="M412.069,323.727c-0.225,0-0.24,0-0.465,0c-1.472,0-2.665,1.508-2.665,3.369
					c0,1.86,1.193,3.369,2.665,3.369c0.225,0,0.24,0,0.465,0c1.472,0,2.665-1.508,2.665-3.369
					C414.734,325.236,413.541,323.727,412.069,323.727z"/>
				<ellipse style="opacity:0.2;fill:#FFFFFF;enable-background:new    ;" cx="412.069" cy="327.096" rx="2.665" ry="3.369"/>
			</g>
			<g>
				<path style="fill:#263238;" d="M416.335,327.096c0,0.457-0.133,0.877-0.351,1.172c-0.186,0.258-0.425,0.427-0.696,0.472
					c-0.048,0.007-0.096,0.015-0.149,0.015h-2.364c-0.658,0-1.189-0.737-1.189-1.658c0-0.457,0.133-0.87,0.35-1.172
					c0.212-0.302,0.51-0.486,0.839-0.486h2.364c0.053,0,0.101,0.007,0.149,0.015C415.878,325.556,416.335,326.256,416.335,327.096z"
					/>
				<path style="opacity:0.2;fill:#FFFFFF;enable-background:new    ;" d="M416.335,327.096c0,0.457-0.133,0.877-0.351,1.172
					c-0.186,0.258-0.425,0.427-0.696,0.472c-0.595-0.096-1.046-0.796-1.046-1.644c0-0.457,0.133-0.87,0.35-1.172
					c0.181-0.258,0.42-0.427,0.696-0.472C415.878,325.556,416.335,326.256,416.335,327.096z"/>
			</g>
		</g>
		<g>
			<path style="fill:#263238;" d="M402.331,296.14c0,0.457-0.133,0.877-0.35,1.172c-0.186,0.258-0.425,0.427-0.696,0.472
				c-0.048,0.007-0.096,0.015-0.149,0.015h-44.349c-0.658,0-1.19-0.737-1.19-1.658c0-0.457,0.133-0.87,0.35-1.172
				c0.212-0.302,0.51-0.486,0.839-0.486h44.349c0.053,0,0.101,0.007,0.149,0.015C401.875,294.6,402.331,295.3,402.331,296.14z"/>
			<path style="opacity:0.5;fill:#FFFFFF;" d="M402.331,296.14c0,0.457-0.133,0.877-0.35,1.172
				c-0.186,0.258-0.425,0.427-0.696,0.472c-0.048,0.007-0.096,0.015-0.149,0.015h-44.349c-0.658,0-1.19-0.737-1.19-1.658
				c0-0.457,0.133-0.87,0.35-1.172c0.212-0.302,0.51-0.486,0.839-0.486h44.349c0.053,0,0.101,0.007,0.149,0.015
				C401.875,294.6,402.331,295.3,402.331,296.14z"/>
			<g>
				<path style="fill:#263238;" d="M409.388,285.016c-0.743,0-0.794,0-1.537,0c-4.861,0-8.802,4.981-8.802,11.125
					c0,6.144,3.941,11.125,8.802,11.125c0.743,0,0.794,0,1.537,0c4.862,0,8.802-4.981,8.802-11.125
					C418.19,289.996,414.25,285.016,409.388,285.016z"/>
				<path style="opacity:0.2;fill:#FFFFFF;enable-background:new    ;" d="M418.19,296.14c0,6.144-3.941,11.125-8.802,11.125
					c-4.861,0-8.802-4.981-8.802-11.125s3.941-11.125,8.802-11.125C414.249,285.016,418.19,289.996,418.19,296.14z"/>
			</g>
			<g>
				<path style="fill:#263238;" d="M410.851,287.899c-0.55,0-0.588,0-1.138,0c-3.601,0-6.521,3.69-6.521,8.241
					s2.919,8.241,6.521,8.241c0.55,0,0.588,0,1.138,0c3.602,0,6.521-3.69,6.521-8.241S414.452,287.899,410.851,287.899z"/>
				<path style="opacity:0.1;fill:#FFFFFF;enable-background:new    ;" d="M417.371,296.14c0,4.551-2.919,8.241-6.521,8.241
					c-3.601,0-6.52-3.69-6.52-8.241c0-4.551,2.919-8.241,6.52-8.241C414.452,287.899,417.371,291.589,417.371,296.14z"/>
			</g>
			<g>
				<path style="fill:#263238;" d="M412.312,293.614c-0.169,0-0.18,0-0.349,0c-1.104,0-1.999,1.131-1.999,2.526
					c0,1.395,0.895,2.526,1.999,2.526c0.169,0,0.18,0,0.349,0c1.104,0,1.999-1.131,1.999-2.526
					C414.311,294.745,413.416,293.614,412.312,293.614z"/>
				<path style="opacity:0.2;fill:#FFFFFF;enable-background:new    ;" d="M414.311,296.14c0,1.395-0.895,2.526-1.999,2.526
					c-1.104,0-1.999-1.131-1.999-2.526c0-1.395,0.895-2.526,1.999-2.526C413.416,293.614,414.311,294.745,414.311,296.14z"/>
			</g>
			<g>
				<path style="fill:#263238;" d="M416.335,296.14c0,0.457-0.133,0.877-0.351,1.172c-0.186,0.258-0.425,0.427-0.696,0.472
					c-0.048,0.007-0.096,0.015-0.149,0.015h-2.364c-0.658,0-1.189-0.737-1.189-1.658c0-0.457,0.133-0.87,0.35-1.172
					c0.212-0.302,0.51-0.486,0.839-0.486h2.364c0.053,0,0.101,0.007,0.149,0.015C415.878,294.6,416.335,295.3,416.335,296.14z"/>
				<path style="opacity:0.2;fill:#FFFFFF;enable-background:new    ;" d="M416.335,296.14c0,0.457-0.133,0.877-0.351,1.172
					c-0.186,0.258-0.425,0.427-0.696,0.472c-0.595-0.096-1.046-0.796-1.046-1.643c0-0.457,0.133-0.87,0.35-1.172
					c0.181-0.258,0.42-0.427,0.696-0.472C415.878,294.6,416.335,295.3,416.335,296.14z"/>
			</g>
		</g>
		<g>
			<path style="fill:#263238;" d="M360.665,298.341v4.43h-0.77l-2.62-4.91l0.44-1.75h0.75
				C358.465,298.111,360.665,298.341,360.665,298.341z"/>
			<path style="opacity:0.2;fill:#FFFFFF;enable-background:new    ;" d="M360.665,298.341v4.43h-0.77l-2.62-4.91l0.44-1.75h0.75
				C358.465,298.111,360.665,298.341,360.665,298.341z"/>
			<path style="fill:#263238;" d="M360.665,298.341v4.43h-0.13l-2.62-4.91l0.44-1.75h0.11
				C358.465,298.111,360.665,298.341,360.665,298.341z"/>
		</g>
		<g>
			<path style="fill:#263238;" d="M360.665,329.336v4.43h-0.77l-2.62-4.91l0.44-1.75h0.75
				C358.465,329.106,360.665,329.336,360.665,329.336z"/>
			<path style="opacity:0.2;fill:#FFFFFF;enable-background:new    ;" d="M360.665,329.336v4.43h-0.77l-2.62-4.91l0.44-1.75h0.75
				C358.465,329.106,360.665,329.336,360.665,329.336z"/>
			<path style="fill:#263238;" d="M360.665,329.336v4.43h-0.13l-2.62-4.91l0.44-1.75h0.11
				C358.465,329.106,360.665,329.336,360.665,329.336z"/>
		</g>
		<g>
			<path style="fill:#263238;" d="M360.665,366.331v4.43h-0.77l-2.62-4.91l0.44-1.75h0.75
				C358.465,366.101,360.665,366.331,360.665,366.331z"/>
			<path style="opacity:0.2;fill:#FFFFFF;enable-background:new    ;" d="M360.665,366.331v4.43h-0.77l-2.62-4.91l0.44-1.75h0.75
				C358.465,366.101,360.665,366.331,360.665,366.331z"/>
			<path style="fill:#263238;" d="M360.665,366.331v4.43h-0.13l-2.62-4.91l0.44-1.75h0.11
				C358.465,366.101,360.665,366.331,360.665,366.331z"/>
		</g>
		<path style="fill:#407BFF;" d="M391.095,294.482c-4.195,0-2.019,19.898-2.613,24.739c-0.593,4.841,0.166,21.068-0.72,21.757
			c-0.886,0.688-3.259-1.487-5.238-0.894c-1.978,0.594-2.817,0.396-5.562-0.198c-2.746-0.593-5.515-1.187-6.702-0.791
			c-1.187,0.396-0.57-43.893,0.419-44.99c0.989-1.098,5.736-0.911,5.736-0.911s9.297,0.63,11.077,0.419
			C389.274,293.403,391.095,294.482,391.095,294.482z"/>
		<path style="opacity:0.5;fill:#FFFFFF;enable-background:new    ;" d="M391.095,294.482c-4.195,0-2.019,19.898-2.613,24.739
			c-0.593,4.841,0.166,21.068-0.72,21.757c-0.886,0.688-3.259-1.487-5.238-0.894c-1.978,0.594-2.817,0.396-5.562-0.198
			c-2.746-0.593-5.515-1.187-6.702-0.791c-1.187,0.396-0.57-43.893,0.419-44.99c0.989-1.098,5.736-0.911,5.736-0.911
			s9.297,0.63,11.077,0.419C389.274,293.403,391.095,294.482,391.095,294.482z"/>
	</g>
</g>
<g id="Character_3">
	<g>
		<path style="fill:#B55B52;" d="M379.672,221.415c-2.677,3.493-10.997,3.81-19.125-1.929c-2.044-1.449-4.088-3.282-6.017-5.546
			c-0.806-0.94-1.593-1.958-2.361-3.061c-9.26-13.319,5.105-22.099,5.105-22.099c7.59,4.337,6.324,9.059,8.348,13.031
			c2.025,3.963,5.067,8.377,6.074,9.068c1.008,0.681,1.775-22.099,1.775-22.099l8.348,0.134
			C381.822,188.914,385.871,213.316,379.672,221.415z"/>
		<path style="opacity:0.2;" d="M360.547,219.486c-2.044-1.449-4.088-3.282-6.017-5.546c0.096-3.071,0.662-6.314,1.948-9.126
			C356.479,204.814,361.066,211.752,360.547,219.486z"/>
		<polygon style="fill:#FF8B7B;" points="357.655,412.692 365.023,411.807 363.639,394.625 356.271,395.51 		"/>
		<polygon style="opacity:0.2;" points="363.638,394.629 364.352,403.486 356.982,404.371 356.267,395.515 		"/>
		<path style="fill:#407BFF;" d="M342.711,321.834c-12.945-36.775-23.195-52.249-21.753-71.312l26.079-2.405
			c0,0,15.621,50.232,15.743,72.582c0.129,23.239,2.385,77.124,2.385,77.124l-11.874,1.409
			C353.291,399.233,340.949,347.99,342.711,321.834z"/>
		<path style="opacity:0.2;" d="M340.831,316.601c-6.82-18.728-12.733-31.623-16.323-42.574
			C342.09,278.345,342.841,299.557,340.831,316.601z"/>
		<polygon style="fill:#263238;" points="366.704,394.992 366.247,400.193 353.187,401.791 352.16,397.029 		"/>
		<polygon style="fill:#FF8B7B;" points="301.288,413.224 308.721,413.107 311.173,395.874 303.74,395.991 		"/>
		<polygon style="opacity:0.2;" points="311.171,395.879 309.908,404.762 302.472,404.878 303.735,395.996 		"/>
		<path style="fill:#407BFF;" d="M311.171,321.505c-4.069-37.92-8.855-54.794-2.967-73.604l27.304,0.733
			c0,0,0.741,51.581-4.384,73.824c-5.326,23.127-17.772,76.956-17.772,76.956l-11.979,0.17
			C301.373,399.584,303.306,347.337,311.171,321.505z"/>
		<polygon style="fill:#263238;" points="315.099,396.757 314.315,401.882 300.886,402.117 300.127,397.274 		"/>
		<g>
			<path style="fill:#263238;" d="M364.324,409.289l-8.283-0.223c-0.31-0.009-0.586,0.199-0.664,0.498l-1.74,6.67
				c-0.18,0.691,0.327,1.365,1.043,1.372c2.99,0.03,7.313-0.028,11.069,0.073c4.391,0.118,7.183-0.097,12.333,0.042
				c3.114,0.084,4.091-3.026,2.798-3.345c-5.887-1.452-9.735-1.165-14.749-4.45C365.585,409.57,364.978,409.307,364.324,409.289z"/>
			<path style="fill:#407BFF;" d="M364.919,410.205c-0.008-0.076,0.033-0.148,0.102-0.181c0.351-0.168,3.452-1.633,4.358-1.089
				c0.174,0.104,0.271,0.271,0.279,0.484c0.014,0.358-0.109,0.647-0.368,0.861c-0.858,0.71-3.021,0.355-4.234,0.079
				c-0.008-0.002-0.016-0.004-0.023-0.007C364.97,410.329,364.926,410.272,364.919,410.205z M365.665,410.121
				c1.665,0.322,2.915,0.284,3.397-0.115c0.169-0.14,0.247-0.327,0.237-0.569c-0.004-0.094-0.036-0.152-0.106-0.194
				c-0.02-0.012-0.041-0.021-0.064-0.03C368.563,409,366.888,409.583,365.665,410.121z"/>
			<path style="fill:#407BFF;" d="M364.988,410.328c-0.051-0.038-0.077-0.101-0.069-0.164c0.011-0.086,0.289-2.114,1.282-2.877
				c0.303-0.233,0.642-0.326,1.007-0.28c0.492,0.064,0.625,0.316,0.651,0.518c0.108,0.857-1.764,2.441-2.694,2.825
				c-0.043,0.018-0.09,0.018-0.133,0.002C365.017,410.346,365.001,410.339,364.988,410.328z M367.16,407.362
				c-0.271-0.035-0.513,0.033-0.74,0.207c-0.652,0.5-0.966,1.71-1.085,2.301c0.954-0.534,2.233-1.783,2.168-2.298
				c-0.004-0.032-0.014-0.113-0.161-0.169C367.296,407.387,367.236,407.372,367.16,407.362z"/>
		</g>
		<g>
			<path style="fill:#263238;" d="M308.738,409.289l-8.283-0.223c-0.31-0.009-0.586,0.199-0.664,0.498l-1.74,6.67
				c-0.18,0.691,0.326,1.365,1.043,1.372c2.99,0.03,7.313-0.028,11.069,0.073c4.391,0.118,7.183-0.097,12.332,0.042
				c3.114,0.084,4.091-3.026,2.798-3.345c-5.887-1.452-9.735-1.165-14.749-4.45C309.998,409.57,309.392,409.307,308.738,409.289z"/>
			<path style="fill:#407BFF;" d="M309.333,410.205c-0.008-0.076,0.033-0.148,0.102-0.181c0.351-0.168,3.452-1.633,4.358-1.089
				c0.174,0.104,0.271,0.271,0.28,0.484c0.014,0.358-0.11,0.647-0.368,0.861c-0.858,0.71-3.021,0.355-4.234,0.079
				c-0.008-0.002-0.016-0.004-0.023-0.007C309.384,410.329,309.34,410.272,309.333,410.205z M310.079,410.121
				c1.665,0.322,2.915,0.284,3.397-0.115c0.169-0.14,0.247-0.327,0.237-0.569c-0.004-0.094-0.036-0.152-0.106-0.194
				c-0.019-0.012-0.041-0.021-0.064-0.03C312.977,409,311.302,409.583,310.079,410.121z"/>
			<path style="fill:#407BFF;" d="M309.402,410.328c-0.051-0.038-0.077-0.101-0.068-0.164c0.011-0.086,0.289-2.114,1.282-2.877
				c0.303-0.233,0.642-0.326,1.007-0.28c0.492,0.064,0.625,0.316,0.651,0.518c0.108,0.857-1.764,2.441-2.694,2.825
				c-0.043,0.018-0.091,0.018-0.133,0.002C309.431,410.346,309.415,410.339,309.402,410.328z M311.574,407.362
				c-0.271-0.035-0.513,0.033-0.74,0.207c-0.652,0.5-0.966,1.71-1.085,2.301c0.954-0.534,2.233-1.783,2.168-2.298
				c-0.004-0.032-0.014-0.113-0.161-0.169C311.709,407.387,311.65,407.372,311.574,407.362z"/>
		</g>
		<g>
			<path style="fill:#407BFF;" d="M316.006,181.732c0.478,8.461,0.115,16.9-0.629,24.757c-0.548,5.748-1.313,11.183-2.125,16.088
				c-1.899,11.495-4.057,20.111-4.364,23.118c5.755,0.796,27.443,3.79,39.269,5.417c14.32-40.039,8.927-63.345,8.927-63.345
				s-4.094-1.749-9.007-3.082c-0.646-0.179-1.307-0.342-1.982-0.497c-4.36-1.01-11.646-1.851-16.696-2.304
				c-1.062-0.094-2.142-0.162-3.195-0.212C320.841,181.428,316.006,181.732,316.006,181.732z"/>
			<path style="opacity:0.7;fill:#FFFFFF;" d="M348.15,251.105c-11.822-1.622-33.509-4.606-39.267-5.402
				c0.317-3.013,2.466-11.63,4.376-23.126c0.508-3.109,1.007-6.429,1.439-9.913c0-0.01,0-0.01,0-0.01
				c0.192-1.526,0.374-3.08,0.537-4.664c0.029-0.336,0.067-0.691,0.105-1.036c0.01-0.153,0.029-0.307,0.038-0.461
				c0.105-1.113,0.211-2.236,0.288-3.368c0.23-2.802,0.394-5.661,0.48-8.55c0.134-4.222,0.096-8.54-0.134-12.849
				c0,0,1.209-0.077,3.1-0.125c1.881-0.048,4.414-0.058,7.091,0.067c1.046,0.057,2.14,0.125,3.205,0.211
				c5.047,0.451,12.331,1.305,16.688,2.313c0.681,0.154,1.343,0.307,1.977,0.489c4.923,1.334,9.011,3.08,9.011,3.08
				S362.476,211.071,348.15,251.105z"/>
		</g>
		<g>
			<path style="fill:#B55B52;" d="M337.025,163.714c-0.287,5.5-1.675,15.369-6.245,17.983c0,0,9.018,7.109,11.727,7.08
				c1.902-0.021,4.656-3.131,4.656-3.131c-5.526-2.815-4.282-7.122-2.232-10.955L337.025,163.714z"/>
			<path style="opacity:0.2;" d="M340.247,168.192l4.68,6.493c-0.489,0.906-0.926,1.839-1.234,2.775
				c-2.164-0.864-4.632-4.063-4.281-6.463C339.588,169.801,339.919,168.69,340.247,168.192z"/>
		</g>
		<g>
			<path style="fill:#263238;" d="M352.58,147.47c0,0,3.4,0.475,4.521,3.796c1.121,3.322-2.252,8.979-4.931,7.811
				C349.49,157.909,352.58,147.47,352.58,147.47z"/>
			<path style="fill:#B55B52;" d="M336.821,155.816c-1.067,7.263-2.062,11.463,0.8,15.872c4.304,6.633,13.882,5.125,17.106-1.693
				c2.902-6.136,4.159-16.982-2.288-21.247C346.089,144.547,337.888,148.553,336.821,155.816z"/>
			<path style="fill:#263238;" d="M347.32,160.005c-0.123,0.584,0.088,1.12,0.471,1.196c0.383,0.077,0.793-0.335,0.916-0.919
				c0.123-0.584-0.088-1.12-0.471-1.197C347.853,159.009,347.443,159.421,347.32,160.005z"/>
			<path style="fill:#263238;" d="M353.946,161.33c-0.123,0.584,0.088,1.12,0.471,1.197c0.383,0.077,0.793-0.335,0.916-0.919
				c0.123-0.584-0.088-1.12-0.471-1.197C354.479,160.335,354.069,160.746,353.946,161.33z"/>
			<path style="fill:#A02724;" d="M351.778,161.199c0,0,0.684,3.518,1.833,5.389c-1.215,0.708-2.885-0.087-2.885-0.087
				L351.778,161.199z"/>
			<path style="fill:#263238;" d="M347.049,168.156c0.229,0.092,0.476,0.174,0.741,0.241c0.094,0.024,0.19-0.033,0.215-0.126
				c0.025-0.094-0.034-0.189-0.125-0.213c-2.545-0.648-3.264-2.715-3.271-2.736c-0.03-0.091-0.13-0.14-0.222-0.109
				c-0.092,0.031-0.142,0.131-0.112,0.222C344.303,165.518,344.923,167.301,347.049,168.156z"/>
			<path style="fill:#263238;" d="M346.536,155.509c0.06,0.107,0.174,0.179,0.306,0.18c1.572,0.015,2.288,1.091,2.295,1.102
				c0.105,0.162,0.324,0.21,0.487,0.106c0.163-0.104,0.21-0.32,0.105-0.482c-0.037-0.057-0.934-1.406-2.884-1.424
				c-0.195-0.002-0.353,0.153-0.354,0.346C346.491,155.399,346.507,155.458,346.536,155.509z"/>
			<path style="fill:#263238;" d="M358.106,156.809c0.052-0.041,0.094-0.098,0.117-0.166c0.061-0.185-0.037-0.385-0.219-0.447
				c-1.833-0.621-3.097,0.382-3.16,0.42c-0.151,0.121-0.177,0.343-0.057,0.495c0.119,0.152,0.337,0.178,0.488,0.059
				c0.051-0.044,1.035-0.804,2.506-0.305C357.895,156.904,358.017,156.879,358.106,156.809z"/>
			<path style="fill:#263238;" d="M346.139,147.755c0,0,7.353,5.936,7.772,2.209c0.419-3.727-2.596-6.195-4.125-6.574
				c-1.529-0.38-4.186,1.329-4.186,1.329s-6.928-0.664-8.352,0.38c-1.424,1.044-2.278,5.125-2.278,5.125s-2.336,1.077-2.847,2.562
				c-0.759,2.207,0.658,5.315,0.658,5.315s0.766,4.86,1.999,5.941c1.234,1.081,7.724-4.041,7.373-10.353c0,0-1.613-2.706,0-4.699
				C343.767,146.995,346.139,147.755,346.139,147.755z"/>
			<path style="fill:#B55B52;" d="M332.797,161.21c0.185,1.967,1.267,3.657,2.54,4.662c1.916,1.513,3.835,0.023,4.107-2.279
				c0.245-2.072-0.457-5.355-2.767-5.968C334.401,157.022,332.586,158.962,332.797,161.21z"/>
			<path style="fill:#263238;" d="M348.011,165.976c0,0-1.716-2.61-3.084-3.037c-1.369-0.427-5.833,4.298-6.351,6.833
				c-0.518,2.535,3.259,6.303,6.351,6.473c3.092,0.17,6.935-4.488,7.078-6.667c0.142-2.179-3.511-3.093-3.511-3.093l-0.355,0.396
				c0,0,2.958,1.325,2.938,2.226c-0.02,0.902-3.354,5.837-4.938,5.505c-1.584-0.332-2.441-1.607-0.35-4.081l-1.523-1.281
				c0,0-1.704,2.325-2.796,1.946c-1.091-0.38-1.234-1.376-1.234-2.088c0-0.712,3.369-5.005,4.366-4.923s2.682,2.028,2.682,2.028
				L348.011,165.976z"/>
		</g>
		<g>
			<path style="fill:#407BFF;" d="M384.221,187.235v7.782c0,0-10.623,0.883-13.665-1.075l1.459-6.871l0.019-0.086l0.23-1.075
				l5.134,0.566l3.685,0.413L384.221,187.235z"/>
			<path style="fill:#407BFF;" d="M383.971,165.356l-2.888,21.533l-0.144,1.046l-7.993-0.854l-0.911-0.096
				c0,0-1.977-5.758-1.478-9.193c0.067-0.413,0.163-0.902,0.298-1.449c0.96-3.934,3.608-10.603,5.278-10.987
				C378.022,164.915,383.971,165.356,383.971,165.356z"/>
			<path style="fill:#263238;" d="M377.398,186.477c-0.01,0.163-0.01,0.249-0.01,0.249s-2.37,0.326-4.443,0.355
				c-0.317,0.01-0.633,0.01-0.931-0.01l0.019-0.086c0,0-1.977-5.758-1.478-9.193c0.067-0.413,0.163-0.902,0.298-1.449
				c1.449-0.278,4.126-0.71,5.335-0.384C377.734,176.382,377.465,184.893,377.398,186.477z"/>
			<path style="fill:#263238;" d="M389.383,176.247c0,0-0.221,12.772-1.487,14.317c-0.556,0.691-2.168,1.19-3.925,1.43
				c-2.198,0.307-4.596,0.182-5.441-0.518c-1.516-1.267-3.8-4.999-3.292-14.02c0.23-4.069,5.825-13.156,8.358-13.741
				c2.524-0.585,7.207-0.365,8.723,1.487c0.24,0.288,0.374,0.71,0.432,1.219C393.058,169.185,390.957,174.606,389.383,176.247z"/>
			<path style="opacity:0.2;fill:#FFFFFF;" d="M389.383,176.247c0,0-0.221,12.772-1.487,14.317c-0.556,0.691-2.168,1.19-3.925,1.43
				c-2.198,0.307-4.596,0.182-5.441-0.518c-1.516-1.267-3.8-4.999-3.292-14.02c0.23-4.069,5.825-13.156,8.358-13.741
				c2.524-0.585,7.207-0.365,8.723,1.487c0.24,0.288,0.374,0.71,0.432,1.219C393.058,169.185,390.957,174.606,389.383,176.247z"/>
			<path style="opacity:0.3;" d="M389.383,176.247c0,0-0.221,12.772-1.487,14.317c-0.556,0.691-2.168,1.19-3.925,1.43
				c-6.189-1.382-5.316-9.5-5.441-12.292c-0.125-2.783,2.783-11.889,4.587-12.897c1.785-0.998,8.608-2.495,9.634-0.384
				C393.058,169.185,390.957,174.606,389.383,176.247z"/>
		</g>
		<path style="fill:#407BFF;" d="M356.476,187.515c0,0,0.797-1.979,3.328,0.42c2.531,2.4,0.411,20.643-2.255,22.942
			C357.549,210.877,358.969,191.274,356.476,187.515z"/>
		<path style="opacity:0.6;fill:#FFFFFF;" d="M356.476,187.515c0,0,0.797-1.979,3.328,0.42c2.531,2.4,0.411,20.643-2.255,22.942
			C357.549,210.877,358.969,191.274,356.476,187.515z"/>
		<path style="fill:#407BFF;" d="M315.609,207.228c0,0,5.527-2.974,6.892-13.097c1.365-10.123-1.608-13.033-6.892-13.287
			S304.442,196.283,315.609,207.228z"/>
		<path style="opacity:0.6;fill:#FFFFFF;" d="M322.5,194.134c-0.604,4.472-2.025,7.562-3.416,9.596c0,0,0,0.01-0.009,0.019
			c-1.756,2.562-3.464,3.483-3.464,3.483c-0.096-0.096-0.182-0.182-0.269-0.278c-1.151-1.151-2.102-2.361-2.888-3.589
			c-6.688-10.431-1.535-22.742,3.157-22.522c1.324,0.067,2.505,0.298,3.502,0.758C322.106,183.003,323.517,186.544,322.5,194.134z"
			/>
		<path style="opacity:0.2;" d="M319.125,200.535c0,0,0,8.45-4.427,12.119c0.192-1.526,0.374-3.08,0.537-4.664
			c0.029-0.336,0.067-0.691,0.105-1.036c-1.151-1.151-2.102-2.361-2.888-3.589C313.47,203.154,319.125,200.535,319.125,200.535z"/>
		<path style="fill:#B55B52;" d="M317.499,183.249c-5.654-0.633-12.867,6.724-13.246,11.967
			c-0.38,5.243-11.895,15.999-11.515,23.211c0.38,7.213,11.395,9.207,21.512,7.339c10.652-1.966,13.493-4.186,13.493-4.186
			l-1.978-7.316c0,0-13.994-0.009-15.259-0.96c0,0,5.182-5.79,6.994-8.306c1.812-2.516,3.077-11.705,2.824-16.221
			C320.07,184.261,317.499,183.249,317.499,183.249z"/>
		<polygon style="fill:#407BFF;" points="307.83,249.154 307.83,243.608 349.06,250.48 348.419,252.699 		"/>
		
			<path style="fill:none;stroke:#FFFFFF;stroke-width:0.4798;stroke-linecap:round;stroke-linejoin:round;stroke-miterlimit:10;" d="
			M334.875,256.041c0,0-0.063-3.165,1.36-5.157c0,0-2.594,4.017-4.207,2.689c-1.613-1.328,0.981-3.258,4.207-2.689
			c3.227,0.569,4.239,2.689,2.91,3.354c-1.329,0.664-2.91-3.354-2.91-3.354s0.224,4.493,1.14,5.726"/>
		<g style="opacity:0.2;">
			<path d="M322.72,208.366c0.118-0.356,0.237-0.712,0.355-1.068c0.308,0.606,0.826,1.12,1.354,1.259
				c0.666,0.177,0.98-0.196,1.021-0.786c0.119-1.708-2.506-1.263-2.301-4.22c0.087-1.282,0.714-2.215,1.89-1.914
				c0.514,0.133,1.036,0.516,1.379,1.063c-0.111,0.363-0.221,0.725-0.331,1.087c-0.356-0.516-0.765-0.827-1.139-0.924
				c-0.663-0.172-0.965,0.232-1.005,0.834c-0.118,1.701,2.498,1.252,2.298,4.168c-0.087,1.274-0.721,2.231-1.897,1.917
				C323.675,209.604,323.034,209.033,322.72,208.366z"/>
			<path d="M330.826,205.968c-0.123,1.761-0.896,2.708-2.024,2.456c-0.323-0.072-0.646-0.146-0.969-0.221
				c-0.053,0.768-0.106,1.535-0.159,2.303c-0.266-0.063-0.531-0.126-0.797-0.191c0.184-2.657,0.368-5.315,0.552-7.976
				c0.589,0.138,1.177,0.27,1.767,0.398C330.324,202.98,330.948,204.192,330.826,205.968z M330.022,205.801
				c0.068-1.006-0.253-1.664-0.951-1.816c-0.311-0.068-0.621-0.138-0.932-0.209c-0.073,1.057-0.146,2.114-0.219,3.171
				c0.311,0.072,0.621,0.143,0.932,0.212C329.551,207.314,329.953,206.808,330.022,205.801z"/>
			<path d="M333.966,209.918c-0.715-0.125-1.43-0.258-2.146-0.397c-0.183,0.591-0.367,1.181-0.551,1.77
				c-0.274-0.055-0.548-0.112-0.822-0.169c0.828-2.533,1.656-5.08,2.485-7.641c0.262,0.048,0.523,0.094,0.785,0.14
				c0.462,2.792,0.923,5.584,1.384,8.373c-0.278-0.046-0.556-0.093-0.834-0.141C334.167,211.209,334.066,210.563,333.966,209.918z
				 M333.783,208.701c-0.189-1.219-0.379-2.438-0.568-3.658c-0.348,1.123-0.697,2.243-1.045,3.361
				C332.708,208.507,333.245,208.606,333.783,208.701z"/>
			<path d="M338.455,212.498c-0.238-0.828-0.476-1.656-0.714-2.485c-0.057,0.004-0.112-0.004-0.166-0.012
				c-0.323-0.046-0.646-0.092-0.969-0.141c-0.054,0.783-0.107,1.567-0.161,2.35c-0.265-0.041-0.531-0.082-0.797-0.125
				c0.184-2.685,0.368-5.371,0.552-8.059c0.588,0.089,1.176,0.173,1.764,0.252c1.127,0.151,1.749,1.316,1.628,3.11
				c-0.083,1.226-0.475,2.088-1.085,2.439c0.268,0.928,0.536,1.856,0.804,2.783C339.026,212.573,338.74,212.536,338.455,212.498z
				 M337.842,205.542c-0.31-0.042-0.621-0.086-0.931-0.131c-0.073,1.072-0.146,2.144-0.22,3.215c0.31,0.046,0.621,0.091,0.931,0.135
				c0.698,0.097,1.101-0.458,1.169-1.475C338.861,206.27,338.54,205.637,337.842,205.542z"/>
			<path d="M342.927,213.003c-0.237-0.82-0.475-1.64-0.712-2.46c-0.055,0.006-0.111,0.001-0.166-0.004
				c-0.322-0.032-0.643-0.066-0.965-0.101c-0.053,0.788-0.107,1.575-0.16,2.362c-0.265-0.029-0.53-0.059-0.795-0.09
				c0.184-2.699,0.367-5.4,0.55-8.102c0.587,0.064,1.174,0.123,1.76,0.176c1.123,0.103,1.746,1.245,1.624,3.048
				c-0.081,1.232-0.476,2.114-1.082,2.491c0.267,0.919,0.535,1.838,0.802,2.756C343.497,213.055,343.212,213.03,342.927,213.003z
				 M342.315,206.057c-0.309-0.029-0.619-0.059-0.929-0.091c-0.073,1.078-0.146,2.155-0.219,3.232
				c0.31,0.033,0.619,0.065,0.929,0.096c0.698,0.067,1.097-0.506,1.166-1.528C343.33,206.745,343.012,206.123,342.315,206.057z"/>
			<path d="M345.142,205.001c0.264,0.017,0.528,0.034,0.792,0.049c-0.181,2.719-0.364,5.436-0.546,8.152
				c-0.264-0.018-0.528-0.037-0.792-0.057C344.778,210.432,344.961,207.717,345.142,205.001z"/>
			<path d="M350.859,205.226c-0.18,2.735-0.36,5.468-0.54,8.199c-0.216-0.005-0.433-0.011-0.649-0.017
				c-0.659-1.87-1.317-3.744-1.976-5.623c-0.123,1.845-0.246,3.689-0.368,5.532c-0.261-0.013-0.523-0.027-0.785-0.043
				c0.182-2.719,0.363-5.44,0.545-8.163c0.216,0.01,0.434,0.02,0.651,0.029c0.659,1.878,1.318,3.751,1.975,5.621
				c0.123-1.849,0.245-3.698,0.367-5.548C350.338,205.219,350.598,205.223,350.859,205.226z"/>
			<path d="M354.62,209.223c0.247-0.006,0.493-0.012,0.74-0.019c-0.071,1.095-0.142,2.191-0.214,3.285
				c-0.486,0.706-1.121,1.071-1.719,1.075c-1.309,0.01-2.163-1.777-2.002-4.226c0.16-2.45,1.245-4.214,2.565-4.239
				c0.707-0.014,1.265,0.428,1.604,1.298c-0.185,0.32-0.37,0.639-0.555,0.958c-0.288-0.638-0.649-0.923-1.1-0.915
				c-0.896,0.016-1.612,1.201-1.722,2.902c-0.111,1.666,0.447,2.891,1.339,2.882c0.3-0.002,0.604-0.125,0.896-0.435
				C354.508,210.933,354.564,210.078,354.62,209.223z"/>
		</g>
		<g>
			<path style="fill:#407BFF;" d="M331.538,221.525c-0.284,2.859-10.962,4.178-10.962,4.178s-4.127-4.745-4.127-12.908l5.988-0.103
				l0.064-0.061l0.788-0.766l2.995,4.282l2.836,2.389C329.12,218.535,331.616,220.74,331.538,221.525z"/>
			<path style="fill:#407BFF;" d="M343.478,202.23l-14.358,16.305l-0.701,0.79l-5.213-6.109l-0.705-0.586
				c0,0,0.593-4.926,2.915-7.506c0.285-0.306,0.637-0.66,1.052-1.04c2.983-2.739,8.888-6.816,10.49-6.208
				C338.776,198.559,343.478,202.23,343.478,202.23z"/>
			<path style="fill:#263238;" d="M326.284,216.146c-0.098,0.13-0.146,0.202-0.146,0.202s-1.192-2.005-2.932-3.132
				c-0.269-0.168-0.532-0.344-0.769-0.525l0.064-0.061c0,0,0.593-4.926,2.915-7.506c0.285-0.306,0.637-0.66,1.052-1.04
				c1.359,0.573,3.826,1.7,4.65,2.643C332.169,207.937,327.22,214.866,326.284,216.146z"/>
			<path style="fill:#263238;" d="M341.932,214.293c0,0-7.275,10.5-9.187,11.081c-0.846,0.266-2.464-0.214-4.058-0.99
				c-1.998-0.965-3.924-2.401-4.237-3.452c-0.558-1.895-0.384-6.268,5.047-13.488c2.451-3.256,12.149-7.707,14.581-6.788
				c2.424,0.915,6.196,3.698,6.429,6.08c0.04,0.373-0.083,0.798-0.317,1.253C348.91,210.46,344.152,213.802,341.932,214.293z"/>
			<path style="opacity:0.2;fill:#FFFFFF;" d="M341.932,214.293c0,0-7.275,10.5-9.187,11.081c-0.846,0.266-2.464-0.214-4.058-0.99
				c-1.998-0.965-3.924-2.401-4.237-3.452c-0.558-1.895-0.384-6.268,5.047-13.488c2.451-3.256,12.149-7.707,14.581-6.788
				c2.424,0.915,6.196,3.698,6.429,6.08c0.04,0.373-0.083,0.798-0.317,1.253C348.91,210.46,344.152,213.802,341.932,214.293z"/>
			<path style="opacity:0.3;" d="M341.932,214.293c0,0-7.275,10.5-9.187,11.081c-0.846,0.266-2.464-0.214-4.058-0.99
				c-4.38-4.586,0.853-10.853,2.3-13.244c1.441-2.384,8.916-8.343,10.976-8.18c2.039,0.161,8.544,2.704,8.226,5.03
				C348.91,210.46,344.152,213.802,341.932,214.293z"/>
		</g>
	</g>
</g>
<g id="Character_1">
	<g>
		
			<path style="fill:none;stroke:#263238;stroke-width:0.9395;stroke-linecap:round;stroke-linejoin:round;stroke-miterlimit:10;" d="
			M148.781,201.638c1.881,0,4.743,2.852,8.646,2.541c3.903-0.311,11.41-3.516,12.704-1.507"/>
		<g>
			<path style="fill:#E4897B;" d="M124.244,226.597c0,0,1.646-11.688,3.47-15.764l-4.715-1.39c0,0-4.813,10.399-5.694,15.657
				C116.747,228.436,124.244,226.597,124.244,226.597z"/>
			<path style="fill:#407BFF;" d="M144.175,221.523c0,0-1.475,1.841-3.786,4.237c-1.306,1.372-2.884,2.922-4.623,4.425
				c-2.152,1.851-4.538,3.636-6.934,4.895c-0.009,0-0.019,0.009-0.019,0.009c-1.776,0.93-3.561,1.569-5.252,1.738
				c0,0-0.009,0-0.019,0c-1.099,0.113-2.161,0.019-3.157-0.31c-9.292-3.101-2.236-17.842-2.236-17.842l7.479,2.199l0.545,1.766
				c0,0,0.949-1.654,2.452-3.984c3.213-5.008,8.963-13.126,13.191-14.479L144.175,221.523z"/>
			<polygon style="fill:#407BFF;" points="125.79,221.329 125.927,218.267 118.444,216.318 117.427,219.819 			"/>
			<polygon style="opacity:0.6;fill:#FFFFFF;enable-background:new    ;" points="125.927,218.267 118.445,216.318 117.427,219.819 
				125.79,221.329 			"/>
			<path style="opacity:0.2;" d="M127.723,228.795c0.263-2.772-1.55-6.154-1.55-6.154s0.949-1.654,2.452-3.984
				C128.898,221.795,127.846,228.1,127.723,228.795z"/>
			<g>
				<path style="opacity:0.6;fill:#FFFFFF;enable-background:new    ;" d="M141.009,223.148c-0.056,0.066-0.244,0.31-0.554,0.686
					c-0.827,1.005-2.49,2.96-4.604,5.111c-2.039,2.095-4.5,4.369-7.018,6.135c-0.009,0-0.019,0.009-0.019,0.009
					c-1.776,0.93-3.561,1.569-5.252,1.738c4.2-1.362,9.142-5.938,12.562-9.536c2.443-2.584,4.096-4.67,4.143-4.726l0.16,0.122
					L141.009,223.148z"/>
			</g>
			<path style="opacity:0.2;" d="M140.454,223.834c0,0.648-0.019,1.287-0.066,1.926c-1.306,1.372-2.884,2.922-4.623,4.425
				c0-0.413,0.038-0.827,0.085-1.24c0.056-0.554,0.16-1.109,0.273-1.654c0.996-4.51,3.645-8.465,3.645-8.465
				c0.376,1.165,0.583,2.49,0.648,3.861h0.009C140.445,223.064,140.454,223.449,140.454,223.834z"/>
		</g>
		<polygon style="fill:#263238;" points="138.185,256.099 138.712,251.661 171.223,251.661 172.411,255.538 		"/>
		<path style="fill:#407BFF;" d="M108.504,417.718c6.169,0,6.984-0.095,10.45-0.212c2.968-0.106,3.678,0.265,6.063,0.212
			c1.993-0.042,1.919-1.95,1.304-4.145c-0.307-1.102-0.781-3.432-1.205-5.212l-9.038-0.656c-1.272,2.427-4.141,5.89-7.618,6.357
			C105.142,414.506,106.045,417.718,108.504,417.718z"/>
		<path style="fill:#407BFF;" d="M153.196,417.718c6.169,0,6.984-0.095,10.45-0.212c2.968-0.106,3.678,0.265,6.063,0.212
			c1.993-0.042,1.919-1.95,1.304-4.145c-0.307-1.102-0.781-3.432-1.205-5.212l-9.038-0.656c-1.272,2.427-4.142,5.89-7.618,6.357
			C149.835,414.506,150.737,417.718,153.196,417.718z"/>
		<path style="opacity:0.4;fill:#FFFFFF;" d="M108.504,417.718c6.169,0,6.984-0.095,10.45-0.212
			c2.968-0.106,3.678,0.265,6.063,0.212c1.993-0.042,1.919-1.95,1.304-4.145c-0.307-1.102-0.781-3.432-1.205-5.212l-9.038-0.656
			c-1.272,2.427-4.141,5.89-7.618,6.357C105.142,414.506,106.045,417.718,108.504,417.718z"/>
		<path style="opacity:0.4;fill:#FFFFFF;" d="M153.196,417.718c6.169,0,6.984-0.095,10.45-0.212
			c2.968-0.106,3.678,0.265,6.063,0.212c1.993-0.042,1.919-1.95,1.304-4.145c-0.307-1.102-0.781-3.432-1.205-5.212l-9.038-0.656
			c-1.272,2.427-4.142,5.89-7.618,6.357C149.835,414.506,150.737,417.718,153.196,417.718z"/>
		<g>
			<path style="fill:#263238;" d="M161.711,252.959h-23.02c-1.386,8.53-7.862,49.192-9.037,71.327
				c-1.385,26.064-9.74,67.807-14.158,84.117c1.243,1.117,7.086,1.583,9.848,0.204c0,0,24.112-48.143,20.976-78.24
				C164.557,279.015,162.306,256.741,161.711,252.959z"/>
		</g>
		<path style="opacity:0.2;" d="M152.289,312.305c2.868-9.455,4.935-17.644,6.395-24.667c-1.449-5.493-3.506-10.195-6.303-13.022
			C152.38,274.616,148.357,289.918,152.289,312.305z"/>
		<g>
			<path style="fill:#263238;" d="M171.136,252.959h-23.953c1.646,12.621,6.709,51.137,9.84,71.484
				c3.97,25.797,4.474,67.189,3.481,84.058c1.445,0.839,6.712,1.855,9.559,0.965c0,0,13.452-52.172,4.517-82.475
				C182.093,271.879,172.63,255.193,171.136,252.959z"/>
		</g>
		<g>
			<path style="fill:#407BFF;" d="M137.096,259.813l-0.978,4.3c0,0,2.449,1.399,12.747,1.644
				c10.298,0.245,25.987-2.972,25.987-2.972l-1.07-4.464L137.096,259.813z"/>
			<path style="opacity:0.6;fill:#FFFFFF;enable-background:new    ;" d="M137.096,259.813l-0.978,4.3c0,0,2.449,1.399,12.747,1.644
				c10.298,0.245,25.987-2.972,25.987-2.972l-1.07-4.464L137.096,259.813z"/>
		</g>
		<g>
			<path style="fill:#263238;" d="M169.406,171.531c0,0,4.423-1.112,6.537,0.977s0.259,6.175,2.72,8.592
				c2.46,2.417-1.442,2.431-0.699,5.444c0.743,3.013,3.624,2.084,3.345,5.151c-0.279,3.066-3.527,3.677-2.646,5.323
				c0.881,1.646-1.302,4.102-2.72,3.524c0,0,1.742-0.391,0.627-1.692c-1.115-1.301-3.159-1.673-2.23-4.367
				c0.929-2.695-1.586-2.148-3.116-4.744c-1.53-2.596,0.043-5.602,0-6.701c-0.043-1.099-1.809-2.119-3.203-4.582
				C166.627,175.991,169.406,171.531,169.406,171.531z"/>
			<g>
				<path style="fill:#407BFF;" d="M138.007,173.769c0,0,1.948,3.038,7.705,2.29c3.539-0.46,1.836-4.957,1.836-4.957
					L138.007,173.769z"/>
				<path style="opacity:0.2;" d="M138.007,173.769c0,0,1.948,3.038,7.705,2.29c3.539-0.46,1.836-4.957,1.836-4.957L138.007,173.769
					z"/>
			</g>
			<path style="fill:#E4897B;" d="M167.019,174.9c0.142,7.893,0.368,11.222-3.215,15.762c-5.389,6.829-14.948,5.78-17.405-1.789
				c-2.211-6.813-2.072-18.576,5.239-22.702C158.841,162.106,166.877,167.008,167.019,174.9z"/>
			<path style="fill:#263238;" d="M159.352,170.761c5.311,4.544-2.015,12.545,6.522,10.405c8.537-2.14,2.526-13.577-3.158-15.285
				C157.032,164.175,159.352,170.761,159.352,170.761z"/>
			<path style="fill:#263238;" d="M155.245,178.653c0.04,0.662-0.265,1.243-0.683,1.298c-0.418,0.055-0.79-0.438-0.83-1.1
				c-0.041-0.662,0.265-1.243,0.683-1.298C154.833,177.499,155.204,177.991,155.245,178.653z"/>
			<path style="fill:#263238;" d="M147.39,179.799c0.041,0.662-0.265,1.243-0.683,1.298c-0.418,0.055-0.79-0.437-0.83-1.099
				c-0.041-0.662,0.265-1.243,0.683-1.298C146.978,178.645,147.349,179.137,147.39,179.799z"/>
			<path style="fill:#263238;" d="M146.747,178.712l-1.564-0.257C145.183,178.455,146.047,179.593,146.747,178.712z"/>
			<path style="fill:#DE5753;" d="M149.648,180.598c0,0-0.91,2.992-2.02,4.523c0.894,0.705,2.306,0.145,2.306,0.145L149.648,180.598
				z"/>
			<path style="fill:#E4897B;" d="M169.271,182.075c-0.456,1.719-1.535,2.943-2.646,3.497c-1.671,0.834-2.857-1.034-2.687-3.18
				c0.153-1.932,1.208-4.694,3.026-4.611C168.756,177.864,169.793,180.109,169.271,182.075z"/>
			<path style="fill:#263238;" d="M154.698,174.868c-0.074,0.069-0.173,0.106-0.278,0.094c-1.64-0.181-2.502,0.947-2.512,0.96
				c-0.127,0.168-0.36,0.197-0.52,0.059c-0.159-0.138-0.185-0.388-0.057-0.56c0.045-0.059,1.125-1.476,3.161-1.252
				c0.203,0.022,0.352,0.218,0.332,0.437C154.814,174.712,154.768,174.804,154.698,174.868z"/>
			<path style="fill:#263238;" d="M147.979,176.052c-0.039-0.053-0.981-1.262-2.587-0.864c-0.16,0.04-0.267,0.234-0.239,0.435
				c0.014,0.097,0.057,0.178,0.116,0.231c0.063,0.056,0.143,0.081,0.226,0.061c1.277-0.316,2.018,0.608,2.055,0.655
				c0.112,0.145,0.298,0.148,0.416,0.006C148.084,176.433,148.09,176.199,147.979,176.052z"/>
			<path style="fill:#263238;" d="M154.602,177.566l-1.564-0.257C153.038,177.309,153.902,178.448,154.602,177.566z"/>
			<g>
				<path style="fill:#407BFF;" d="M170.423,177.379c0,0-3.243-3.553-8.998-4.87c-5.746-1.308-15.603-2.25-15.603-2.25
					s2.415-7.033,3.517-7.926c1.045-0.848,9.88-1.605,13.188-1.02c0.168,0.025,0.318,0.058,0.457,0.091
					c2.86,0.757,6.975,6.013,7.734,7.985C171.477,171.37,170.423,177.379,170.423,177.379z"/>
				<path style="opacity:0.2;fill:#FFFFFF;enable-background:new    ;" d="M162.811,166.163c-0.042,1.23-1.385,6.345-1.385,6.345
					c-5.746-1.308-15.603-2.25-15.603-2.25s0.47-1.366,1.09-2.971c0.093-0.241,0.186-0.482,0.289-0.733
					c0.279-0.714,0.586-1.437,0.881-2.085c0.102-0.231,0.204-0.454,0.305-0.657l0.009,0c0.354-0.721,0.683-1.274,0.944-1.481
					c1.045-0.848,9.88-1.605,13.188-1.02C162.654,162.802,162.849,165.319,162.811,166.163z"/>
				<path style="fill:#407BFF;" d="M161.426,172.511c0,0-5.711-4.193-13.384-3.251l-10.035,4.509
					C138.007,173.769,149.678,177.033,161.426,172.511z"/>
				<g>
					<path style="fill:#FFFFFF;" d="M148.952,164.857c0.127-0.146,0.254-0.283,0.381-0.429c-0.174-0.41-0.514-0.629-0.938-0.615
						l-0.009,0c-0.101,0.203-0.203,0.425-0.305,0.657c0.076-0.035,0.152-0.051,0.237-0.048
						C148.591,164.412,148.802,164.561,148.952,164.857z M147.879,167.058c-0.329,0.007-0.577-0.18-0.678-0.503
						c-0.102,0.25-0.196,0.492-0.289,0.733c0.208,0.252,0.494,0.393,0.842,0.386c0.433-0.013,0.835-0.234,1.15-0.637
						c-0.08-0.144-0.169-0.288-0.248-0.432C148.411,166.907,148.152,167.058,147.879,167.058z"/>
					<path style="fill:#FFFFFF;" d="M151.074,163.849c-0.807-0.037-1.55,0.774-1.729,1.886c-0.189,1.112,0.281,1.937,1.097,1.984
						c0.807,0.037,1.548-0.717,1.727-1.83C152.358,164.777,151.89,163.896,151.074,163.849z M151.682,165.845
						c-0.13,0.766-0.609,1.286-1.143,1.258c-0.526-0.027-0.826-0.593-0.705-1.359c0.13-0.766,0.619-1.304,1.144-1.277
						C151.503,164.494,151.811,165.078,151.682,165.845z"/>
					<path style="fill:#FFFFFF;" d="M154.229,164.222c-0.15-0.024-0.309-0.039-0.468-0.063c-0.596,1.202-1.192,2.403-1.798,3.623
						c0.169,0.015,0.337,0.03,0.506,0.046c0.132-0.277,0.263-0.555,0.395-0.832c0.431,0.052,0.871,0.105,1.301,0.176
						c0.037,0.302,0.073,0.604,0.11,0.906c0.168,0.034,0.336,0.059,0.504,0.093C154.599,166.848,154.418,165.535,154.229,164.222z
						 M153.117,166.468l0.76-1.581c0.074,0.567,0.148,1.143,0.214,1.709C153.773,166.547,153.445,166.507,153.117,166.468z"/>
					<path style="fill:#FFFFFF;" d="M156.376,167.915c-0.532-0.122-0.83-0.743-0.7-1.51c0.13-0.776,0.598-1.248,1.129-1.127
						c0.271,0.056,0.47,0.261,0.609,0.604c0.126-0.118,0.252-0.236,0.378-0.344c-0.171-0.476-0.49-0.778-0.91-0.878
						c-0.784-0.178-1.504,0.531-1.693,1.652c-0.18,1.122,0.268,2.03,1.052,2.208c0.42,0.099,0.81-0.038,1.113-0.385
						c-0.079-0.163-0.148-0.334-0.227-0.506C156.895,167.886,156.637,167.981,156.376,167.915z"/>
					<path style="fill:#FFFFFF;" d="M160.094,165.609c-0.084,0.523-0.167,1.038-0.251,1.552c-0.437-0.137-0.865-0.274-1.302-0.402
						c0.093-0.514,0.176-1.028,0.26-1.552c-0.159-0.043-0.307-0.086-0.466-0.129c-0.212,1.252-0.416,2.505-0.619,3.758
						c0.149,0.043,0.307,0.086,0.466,0.129c0.084-0.533,0.178-1.075,0.262-1.608c0.437,0.128,0.865,0.256,1.293,0.402
						c-0.084,0.533-0.178,1.075-0.263,1.608c0.158,0.053,0.307,0.105,0.465,0.157c0.203-1.253,0.406-2.505,0.619-3.758
						C160.401,165.714,160.252,165.661,160.094,165.609z"/>
				</g>
			</g>
			<g>
				<path style="fill:#263238;" d="M150.57,187.161c0.893,0.83,2.151,2.559,2.151,2.559c0.177-0.086,0.354-0.171,0.527-0.266
					c2.373-1.222,3.07-2.573,3.123-3.7c0.027-0.617-0.148-1.17-0.345-1.592c-0.223-0.491-0.494-0.791-0.494-0.791
					c-0.871,1.4-2.995,2.709-4.159,3.361C150.887,187.01,150.57,187.161,150.57,187.161z"/>
				<path style="fill:#FFFFFF;" d="M151.372,186.731l0.654,0.738c2.232-1.157,3.648-2.271,3.999-3.309
					c-0.223-0.491-0.494-0.791-0.494-0.791C154.66,184.769,152.536,186.079,151.372,186.731z"/>
				<path style="fill:#DE5753;" d="M153.247,189.453c2.373-1.222,3.07-2.573,3.123-3.7c-0.793,0.448-1.698,1.076-2.366,1.879
					C153.491,188.245,153.298,188.882,153.247,189.453z"/>
			</g>
		</g>
		<g>
			<path style="fill:#407BFF;" d="M173.216,227.245l-2.424,19.918c0,0,4.472,8.935,3.1,12.139c0,0-33.748,3.796-36.389,1.146
				c-2.152-2.152,0.874-12.12,0.874-12.12s-2.781-35.158,3.439-44.149c0,0,16.78-7.629,34.124,0.742l-1.569,12.872l-1.156,9.442
				V227.245z"/>
			<g>
				<path style="opacity:0.6;fill:#FFFFFF;enable-background:new    ;" d="M176.74,207.266c-3.631-2.458-9.708-3.98-9.769-3.995
					l0.226-0.912c0.256,0.063,6.298,1.576,10.07,4.129L176.74,207.266z"/>
			</g>
			<g>
				<path style="opacity:0.6;fill:#FFFFFF;enable-background:new    ;" d="M173.49,260.234l-0.933-0.11
					c0.703-5.98-3.334-13.993-3.375-14.073l-0.074-0.146l0.032-0.16c2.409-11.972,3.605-28.55,3.616-28.716l0.937,0.067
					c-0.012,0.166-1.201,16.657-3.6,28.676C170.669,246.942,174.18,254.355,173.49,260.234z"/>
			</g>
			<g>
				<path style="fill:#E4897B;" d="M155.249,206.098l10.416-2.739c-3.123-3.206-1.527-12.01-0.227-16.815l-9.75,7.827
					c0.655,3.733,0.497,7.708-4.956,8.988C150.732,203.36,155.261,206.068,155.249,206.098z"/>
				<path style="opacity:0.2;" d="M161.463,189.738l-5.771,4.629c0.158,0.884,0.266,1.78,0.263,2.651
					c2.069-0.296,5.048-2.543,5.425-4.686C161.568,191.263,161.6,190.236,161.463,189.738z"/>
				<path style="fill:#407BFF;" d="M155.692,205.479c0,0,1.068-5.389,3.446-6.381c2.378-0.991,7.318-2.053,7.946-2.08
					c0.627-0.026,1.742,5.425,1.742,5.425s-8.641,5.204-13.675,4.336c-5.034-0.867-5.217-4.832-5.217-4.832l3.183-3.841
					c0,0,2.079,0.339,2.575,1.099C156.189,199.965,155.692,205.479,155.692,205.479z"/>
				<path style="opacity:0.6;fill:#FFFFFF;enable-background:new    ;" d="M155.692,205.479c0,0,1.068-5.389,3.446-6.381
					c2.378-0.991,7.318-2.053,7.946-2.08c0.627-0.026,1.742,5.425,1.742,5.425s-8.641,5.204-13.675,4.336
					c-5.034-0.867-5.217-4.832-5.217-4.832l3.183-3.841c0,0,2.079,0.339,2.575,1.099
					C156.189,199.965,155.692,205.479,155.692,205.479z"/>
			</g>
			<g>
				<path style="fill:#263238;" d="M149.934,266.005c-0.003,0-0.007,0-0.011,0c-0.13-0.006-0.23-0.116-0.224-0.246l0.203-4.478
					c-1.423-4.43,0.284-13.178,0.425-13.879c-2.073-26.895,4.518-39.838,4.924-40.605c0.074-0.387,0.732-3.699,2.06-6.277
					c0.06-0.116,0.201-0.162,0.316-0.101c0.116,0.059,0.161,0.201,0.101,0.317c-1.373,2.664-2.016,6.148-2.023,6.183
					c-0.005,0.025-0.013,0.049-0.026,0.072c-0.07,0.126-7.005,12.94-4.883,40.407c0.002,0.022,0.001,0.044-0.004,0.065
					c-0.019,0.093-1.869,9.327-0.432,13.712c0.009,0.027,0.012,0.056,0.011,0.084l-0.206,4.521
					C150.163,265.907,150.059,266.005,149.934,266.005z"/>
			</g>
			<g style="opacity:0.4;enable-background:new    ;">
				<path style="fill:#FFFFFF;" d="M149.934,266.005c-0.003,0-0.007,0-0.011,0c-0.13-0.006-0.23-0.116-0.224-0.246l0.203-4.478
					c-1.423-4.43,0.284-13.178,0.425-13.879c-2.073-26.895,4.518-39.838,4.924-40.605c0.074-0.387,0.732-3.699,2.06-6.277
					c0.06-0.116,0.201-0.162,0.316-0.101c0.116,0.059,0.161,0.201,0.101,0.317c-1.373,2.664-2.016,6.148-2.023,6.183
					c-0.005,0.025-0.013,0.049-0.026,0.072c-0.07,0.126-7.005,12.94-4.883,40.407c0.002,0.022,0.001,0.044-0.004,0.065
					c-0.019,0.093-1.869,9.327-0.432,13.712c0.009,0.027,0.012,0.056,0.011,0.084l-0.206,4.521
					C150.163,265.907,150.059,266.005,149.934,266.005z"/>
			</g>
			<path style="opacity:0.6;fill:#FFFFFF;enable-background:new    ;" d="M142.374,245.311l1.239,1.363c0,0-4.475,4.398-5.428,9.912
				l-0.519-1.487C137.666,255.099,138.905,249.152,142.374,245.311z"/>
			<path style="opacity:0.2;" d="M174.372,217.793l-1.156,9.442c-2.123-4.5-1.607-10.918-1.607-10.918
				C172.568,216.581,173.498,217.097,174.372,217.793z"/>
		</g>
		<g>
			<path style="fill:#E4897B;" d="M178.943,239.612c0,0-9.066,7.558-13.155,9.354l3.037,4.914
				c12.632-5.719,12.144-6.262,15.487-8.073C187.286,244.196,178.943,239.612,178.943,239.612z"/>
			<path style="fill:#407BFF;" d="M178.582,249.541l-0.038-0.066l-0.526-0.789l-3.543-5.854c0,0,2.377-5.572,6.849-7.554
				c0,0-4.679-7.037-7.291-11.246c-5.017-8.061-1.005-15.211,0.968-17.936c0.226-0.31,0.423-0.564,0.583-0.752
				c0.216-0.273,0.357-0.423,0.357-0.423c5.402,2.603,15.061,19.327,16.179,30.357C193.238,246.298,178.582,249.541,178.582,249.541
				z"/>
			<path style="fill:#407BFF;" d="M163.808,244.754c0,0,3.991,3.966,7.141,9.839l-1.256,1.746c0,0-3.469-6.268-7.249-9.997
				L163.808,244.754z"/>
			<path style="opacity:0.6;fill:#FFFFFF;enable-background:new    ;" d="M163.808,244.754c0,0,3.991,3.966,7.141,9.839
				l-1.256,1.746c0,0-3.469-6.268-7.249-9.997L163.808,244.754z"/>
			<g>
				<path style="opacity:0.6;fill:#FFFFFF;enable-background:new    ;" d="M191.255,238.641l-0.009,0.16l-0.094,0.122
					c-0.141,0.169-2.546,6.005-12.608,10.552l-0.526-0.789c9.01-4.068,11.678-9.575,12.307-10.252
					c0.526-13.877-11.904-28.572-15.324-32.339c0.226-0.31,0.423-0.564,0.583-0.752
					C178.919,209.008,191.904,224.219,191.255,238.641z"/>
			</g>
			<polygon style="fill:#407BFF;" points="174.723,242.314 172.411,244.258 176.333,251.218 179.484,249.431 			"/>
			<polygon style="opacity:0.6;fill:#FFFFFF;enable-background:new    ;" points="174.723,242.314 172.411,244.258 176.333,251.218 
				179.484,249.431 			"/>
		</g>
		<path style="opacity:0.6;fill:#FFFFFF;" d="M158.198,220.284l6.105,0.242c0,0,0,4.776-4.027,6.077
			C160.277,226.603,157.18,224.506,158.198,220.284z"/>
		<g>
			
				<polygon style="fill:none;stroke:#263238;stroke-width:0.9395;stroke-linecap:round;stroke-linejoin:round;stroke-miterlimit:10;" points="
				127.313,206.705 128.574,209.51 130.731,209.154 131.096,206.08 			"/>
			<path style="fill:#263238;" d="M133.139,201.929c0.493,2.987-1.16,5.748-3.691,6.166c-2.532,0.418-4.984-1.665-5.477-4.653
				c-0.493-2.987,1.16-5.748,3.691-6.166S132.646,198.941,133.139,201.929z"/>
			
				<rect x="126.579" y="195.341" transform="matrix(0.9867 -0.1628 0.1628 0.9867 -30.2265 23.3739)" style="fill:#263238;" width="1.765" height="1.44"/>
			
				<rect x="127.044" y="196.304" transform="matrix(0.9867 -0.1628 0.1628 0.9867 -30.3779 23.4072)" style="fill:#263238;" width="1.161" height="1.487"/>
			
				<rect x="129.814" y="195.667" transform="matrix(0.977 0.2133 -0.2133 0.977 44.8987 -23.3586)" style="fill:#263238;" width="1.766" height="1.44"/>
			
				<rect x="129.902" y="196.62" transform="matrix(0.977 0.2133 -0.2133 0.977 45.1089 -23.2934)" style="fill:#263238;" width="1.162" height="1.487"/>
			
				<rect x="123.742" y="196.76" transform="matrix(-0.8566 0.5159 -0.5159 -0.8566 333.2698 302.3492)" style="fill:#263238;" width="1.766" height="1.44"/>
			
				<rect x="124.56" y="197.593" transform="matrix(-0.8566 0.516 -0.516 -0.8566 334.67 303.6683)" style="fill:#263238;" width="1.162" height="1.487"/>
			<path style="opacity:0.2;fill:#FFFFFF;enable-background:new    ;" d="M132.133,202.095c0.493,2.988-0.934,5.711-3.188,6.083
				c-2.254,0.372-4.481-1.748-4.974-4.736c-0.493-2.987,0.935-5.711,3.188-6.083C129.413,196.987,131.64,199.107,132.133,202.095z"
				/>
		</g>
		<path style="fill:#E4897B;" d="M124.646,200.694l-1.908,1.542c-0.718,0.58-1.111,1.471-1.055,2.392l0.26,4.305
			c0.104,1.721,1.035,3.285,2.498,4.197l0.906,0.565c3.34-2.342,5.224-7.333,5.224-7.333l0.695-1.363
			c0.618-1.214,0.197-2.623-0.968-3.237l-2.683-1.412C126.686,199.862,125.506,199.999,124.646,200.694z"/>
		
			<path style="fill:none;stroke:#263238;stroke-width:0.9395;stroke-linecap:round;stroke-linejoin:round;stroke-miterlimit:10;" d="
			M170.131,202.671c2.789,4.329-8.244,15.507-20.791,15.602s-19.461-9.48-19.461-9.48s7.217,1.581,11.129,0.403
			c4.649-1.4,5.467-7.558,7.773-7.558"/>
	</g>
</g>
<g id="Character_2">
	<g>
		<g>
			<polygon style="fill:#EBB376;" points="201.126,394.806 214.781,395.162 213.507,411.266 202.096,410.987 			"/>
			<polygon style="opacity:0.2;" points="201.129,394.812 214.789,395.167 214.073,404.185 201.67,403.873 			"/>
		</g>
		<path style="fill:#407BFF;" d="M223.055,337.541c9.145-19.088,32.711-47.552,28.863-68.74l-46.65,0.599
			c0,0-7.729,44.736-10.879,63.614c-3.278,19.628,5.795,68.06,5.795,68.06l15.637,0.296
			C215.822,401.37,221.321,359.911,223.055,337.541z"/>
		<path style="fill:#263238;" d="M215.437,416.299l-3.606-0.059l-0.758-1.218l-1.607,1.192l-6.95,1.224
			c-2.547,0.448-5.159,0.369-7.673-0.234l-5.171-1.239c0.113-1.806,1.792-3.795,1.792-3.795s5.198,0.324,8.764-3.209
			c0.393-0.39,1.038-0.423,1.623-0.298c2.396,0.511,8.746,1.659,12.361,0.357c0.344-0.124,0.74,0.167,0.729,0.544
			C214.856,412.674,215.437,416.299,215.437,416.299z"/>
		<path style="opacity:0.6;fill:#FFFFFF;" d="M244.37,300.112c-4.616,9.145-10.46,18.261-15.315,26.475
			c-2.303,3.886-4.376,7.561-5.997,10.949c-1.737,22.378-7.235,63.832-7.235,63.832l-15.641-0.298c0,0-9.068-48.431-5.786-68.054
			c3.148-18.885,10.872-63.621,10.872-63.621l46.655-0.595C253.639,278.282,249.878,289.211,244.37,300.112z"/>
		<path style="opacity:0.2;" d="M244.37,300.112c-4.616,9.145-10.46,18.261-15.315,26.475
			C230.216,307.434,235.561,285.402,244.37,300.112z"/>
		<g>
			<polygon style="fill:#EBB376;" points="261.065,396.465 274.737,396.596 275.336,412.719 263.914,412.628 			"/>
			<polygon style="opacity:0.2;" points="261.069,396.471 274.745,396.601 275.078,405.63 262.661,405.522 			"/>
		</g>
		<path style="fill:#407BFF;" d="M275.937,333.688c1.102-20.694,2.603-51.649-4.333-61.164l-42.577-0.955
			c0,0,11.839,45.305,16.26,64.397c4.594,19.852,15.854,66.782,15.854,66.782l14.779,0.039
			C275.92,402.786,281.493,357.303,275.937,333.688z"/>
		<path style="fill:#263238;" d="M277.271,417.711H274.3l-0.805-1.206l-1.56,1.218h-17.935c-0.352-1.782,0.765-4.108,0.765-4.108
			s5.363-0.487,7.426-3.161c0.159-0.206,0.408-0.318,0.662-0.265c1.786,0.374,8.88,1.715,12.786,0.31
			c0.423-0.152,0.87,0.135,0.877,0.585C276.564,414.172,277.271,417.711,277.271,417.711z"/>
		<path style="opacity:0.6;fill:#FFFFFF;" d="M275.937,333.688c1.102-20.694,2.603-51.649-4.333-61.164l-42.577-0.955
			c0,0,11.839,45.305,16.26,64.397c4.594,19.852,15.854,66.782,15.854,66.782l14.779,0.039
			C275.92,402.786,281.493,357.303,275.937,333.688z"/>
		<g>
			<g>
				<path style="fill:#E9B376;" d="M221.606,210.463c-3.456,3.077-7.228,6.212-10.715,9.236c-1.737,1.531-3.462,3.033-4.969,4.481
					c-0.733,0.72-1.434,1.422-1.955,1.964l-0.337,0.356c-0.089,0.092-0.15,0.156-0.205,0.191c-0.095,0.111,0.116-0.492,0.088-0.669
					c0.001-0.464-0.194-0.243-0.21,0.274c-0.029,0.516,0.069,1.297,0.27,2.148c0.372,1.734,1.1,3.753,1.943,5.795
					c1.699,4.081,3.96,8.443,6.07,12.63l0.123,0.244c1.251,2.481,0.253,5.506-2.228,6.757c-1.788,0.901-3.863,0.631-5.348-0.517
					c-2.222-1.723-4.102-3.469-6.018-5.38c-0.932-0.959-1.852-1.943-2.757-2.96c-0.884-1.032-1.754-2.095-2.605-3.206
					c-1.687-2.239-3.277-4.645-4.66-7.569c-0.671-1.477-1.296-3.088-1.75-5.024c-0.436-1.927-0.763-4.241-0.21-7.14
					c0.236-1.394,0.938-3.152,1.445-4.129c0.256-0.502,0.512-0.975,0.761-1.404c0.236-0.391,0.495-0.837,0.724-1.178
					c0.942-1.47,1.848-2.672,2.771-3.807c1.823-2.248,3.627-4.258,5.5-6.15c1.847-1.917,3.755-3.695,5.682-5.439
					c1.963-1.734,3.867-3.368,6.04-5.002c4.405-3.311,10.66-2.424,13.971,1.981c3.135,4.171,2.506,10.001-1.309,13.419
					L221.606,210.463z"/>
			</g>
		</g>
		<g>
			<path style="fill:#263238;" d="M223.335,214.565c-2.687,3.253-6.861,6.257-10.498,8.512c-1.977,1.219-3.781,2.226-5.124,2.936
				c-1.391,0.739-2.274,1.152-2.274,1.152c-1.161-1.18-2.361-2.735-3.522-4.472c-4.453-6.679-8.291-16.217-7.274-19.019
				c0,0,0.71-0.528,1.919-1.391c5.643-4.03,22.253-15.363,29.853-14.922c0.019,0,0.029,0,0.048,0.01
				c2.054,0.125,3.368,1.075,4.117,2.572C233.401,195.527,228.21,208.692,223.335,214.565z"/>
		</g>
		<path style="opacity:0.2;" d="M214.152,212.991c-0.038,3.733-0.528,7.12-1.315,10.085c-1.977,1.219-3.781,2.226-5.124,2.936
			c-1.391,0.739-2.274,1.152-2.274,1.152c-1.161-1.18-2.361-2.735-3.522-4.472C205.938,216.599,214.152,212.991,214.152,212.991z"/>
		<g style="opacity:0.2;">
			<path style="fill:#FFFFFF;" d="M223.335,214.565c-2.687,3.253-6.861,6.257-10.498,8.512c-1.977,1.219-3.781,2.226-5.124,2.936
				c-1.391,0.739-2.274,1.152-2.274,1.152c-1.161-1.18-2.361-2.735-3.522-4.472c-4.453-6.679-8.291-16.217-7.274-19.019
				c0,0,0.71-0.528,1.919-1.391c5.643-4.03,22.253-15.363,29.853-14.922c0.019,0,0.029,0,0.048,0.01
				c2.054,0.125,3.368,1.075,4.117,2.572C233.401,195.527,228.21,208.692,223.335,214.565z"/>
		</g>
		<path style="fill:#263238;" d="M276.919,202.925c-1.027,5.182-1.737,10.46-2.236,15.689c-0.47,4.932-0.758,9.817-0.921,14.519
			c-0.701,18.962,0.374,34.987-2.159,39.391c0,0-42.136,0.739-66.692-0.96c-3.762-18.05-1.286-32.185,2.802-45.552
			c3.215-10.536,7.418-20.593,10.354-31.705c0.163-0.605,0.384-1.171,0.681-1.698c1.468-2.754,4.51-4.52,7.715-5.239
			c0.595-0.144,1.199-0.24,1.804-0.307c2.236-0.23,4.616-0.413,7.101-0.537c9.999-0.528,21.524-0.173,30.88,1.142
			C273.541,188.685,278.349,195.709,276.919,202.925z"/>
		<path style="opacity:0.2;fill:#FFFFFF;" d="M276.919,202.925c-1.027,5.182-1.737,10.46-2.236,15.689
			c-0.47,4.932-0.758,9.817-0.921,14.519c-0.701,18.962,0.374,34.987-2.159,39.391c0,0-42.136,0.739-66.692-0.96
			c-3.762-18.05-1.286-32.185,2.802-45.552c3.215-10.536,7.418-20.593,10.354-31.705c0.163-0.605,0.384-1.171,0.681-1.698
			c1.468-2.754,4.51-4.52,7.715-5.239c0.595-0.144,1.199-0.24,1.804-0.307c2.236-0.23,4.616-0.413,7.101-0.537
			c9.999-0.528,21.524-0.173,30.88,1.142C273.541,188.685,278.349,195.709,276.919,202.925z"/>
		<path style="opacity:0.2;" d="M274.683,218.614c-0.47,4.932-0.758,9.817-0.921,14.519c-5.201-4.664-6.65-16.812-6.65-16.812
			C270,216.542,272.534,217.386,274.683,218.614z"/>
		<g>
			<g>
				<path style="fill:#E9B376;" d="M274.387,190.892l1.28,0.977l1.15,0.911c0.755,0.609,1.481,1.236,2.206,1.864
					c1.454,1.252,2.838,2.575,4.214,3.924c2.723,2.723,5.349,5.616,7.755,8.857c2.417,3.233,4.677,6.767,6.454,10.981
					c0.875,2.114,1.671,4.389,2.12,6.935c0.455,2.533,0.615,5.339,0.183,8.24l-0.094,0.629c-0.032,0.217-0.089,0.45-0.152,0.653
					c-0.691,2.151-1.57,3.853-2.527,5.337c-0.954,1.481-1.954,2.761-2.968,3.944c-2.027,2.34-4.195,4.242-6.361,6.009
					c-2.199,1.731-4.436,3.293-6.744,4.703c-2.336,1.415-4.61,2.672-7.211,3.828c-2.542,1.129-5.518-0.016-6.647-2.558
					c-0.807-1.817-0.452-3.856,0.744-5.283l0.176-0.208l4.656-5.534c1.535-1.848,3.024-3.687,4.382-5.526
					c0.675-0.918,1.345-1.814,1.942-2.72c0.593-0.905,1.139-1.799,1.637-2.645c0.951-1.659,1.574-3.406,1.531-4.013l-0.246,1.282
					c-0.037-1.12-0.578-2.982-1.719-5.14c-0.572-1.07-1.274-2.188-2.078-3.311c-0.786-1.135-1.665-2.278-2.617-3.409
					c-1.915-2.255-4.03-4.518-6.297-6.687c-1.12-1.098-2.295-2.156-3.459-3.219l-1.765-1.557l-0.871-0.758l-0.772-0.653
					l-0.381-0.322c-4.203-3.553-4.73-9.841-1.177-14.044C264.171,188.312,270.194,187.705,274.387,190.892z"/>
			</g>
		</g>
		<path style="fill:#263238;" d="M299.066,218.653l-19.451,11.045c0,0-7.063-4.932-13.262-9.778c0,0-4.174-13.559-13.079-25.89
			l3.397-5.259l1.689-2.62c11.937,2.341,20.382,0.355,37.885,27.934C297.167,215.525,298.097,217.041,299.066,218.653z"/>
		<path style="opacity:0.2;fill:#FFFFFF;" d="M299.066,218.653l-19.451,11.045c0,0-7.063-4.932-13.262-9.778
			c0,0-4.174-13.559-13.079-25.89l3.397-5.259l1.689-2.62c11.937,2.341,20.382,0.355,37.885,27.934
			C297.167,215.525,298.097,217.041,299.066,218.653z"/>
		<path style="opacity:0.5;fill:#FFFFFF;" d="M296.245,214.085l-5.345,2.946c0,0-8.413-16.661-19.612-22.994
			c-3.381-1.912-13.331-4.997-14.617-5.266l1.689-2.62C270.298,188.493,278.742,186.506,296.245,214.085z"/>
		<path style="opacity:0.5;fill:#FFFFFF;" d="M235.369,186.526l-2.84,3.215c0,0-0.768,0.086-1.948,0.201
			c-1.9,0.192-4.856,0.47-7.312,0.624c-0.845,0.057-2.476,0.835-4.52,2.044c-7.552,4.452-20.727,14.653-20.727,14.653
			c-1.238-1.766-1.468-3.694-1.459-4.98c5.643-4.03,22.253-15.363,29.853-14.922c0.019,0,0.029,0,0.048,0.01
			c0.595-0.144,1.199-0.24,1.804-0.307C230.503,186.833,232.883,186.65,235.369,186.526z"/>
		<g>
			<path style="fill:#EBB376;" d="M234.244,189.252c0.733-1.083,2.159-3.008,3.833-3.628c0.594-1.458,0.674-3.087,0.129-4.996
				l18.718-5.96c-1.514,6.187-2.697,11.076-0.397,14.081c-4.125,6.219-20.416,12.067-20.416,12.067S230.1,195.374,234.244,189.252z"
				/>
			<path style="opacity:0.2;" d="M238.355,181.206l14.047-0.824c-4.394,4.693-11.049,6.458-14.086,4.55
				C238.634,183.805,238.664,182.582,238.355,181.206z"/>
		</g>
		<g>
			<path style="fill:#263238;" d="M245.193,194.192l-0.098,2.511C245.095,196.703,250.911,195.782,245.193,194.192z"/>
			<path style="fill:#263238;" d="M233.913,192.678l-1.231,3.076c0,0-2.24-0.696-1.304-2.467
				C232.314,191.514,233.913,192.678,233.913,192.678z"/>
			<path style="fill:#263238;" d="M232.125,191.867c0,0,1.38,4.631,3.917,7.707c0,0,9.876-3.649,14.052-7.499l2.308,2.477
				c0,0-10.292,7.088-16.36,8.163c0,0-4.17-2.251-5.941-9.762L232.125,191.867z"/>
			<path style="opacity:0.5;fill:#FFFFFF;" d="M232.125,191.867c0,0,1.38,4.631,3.917,7.707c0,0,9.876-3.649,14.052-7.499
				l2.308,2.477c0,0-10.292,7.088-16.36,8.163c0,0-4.17-2.251-5.941-9.762L232.125,191.867z"/>
			<path style="fill:#263238;" d="M255.242,184.577c0,0-4.564,7.498-10.049,9.615c4.576,2.168,5.347,5.382,5.347,5.382
				s5.964-2.988,7.817-13.42C257.188,184.479,255.242,184.577,255.242,184.577z"/>
			<path style="fill:#263238;" d="M238.077,185.624c0,0-4.019,4.501-4.163,7.054c-3.678,1.04-6.407,5.466-6.407,5.466
				s1.249-7.703,7.018-11.856C235.925,185.365,238.077,185.624,238.077,185.624z"/>
		</g>
		<g>
			<path style="fill:#263238;" d="M248.66,155.32c0,0-5.55,10.59-9.6,12.35c-1.01,0.44-1.93,0.33-2.65-0.63
				c-1.85-2.48-2.63-6.14-2.29-9.51c0.32-3.17,1.63-6.09,3.96-7.56C242.89,146.95,248.43,149.58,248.66,155.32z"/>
			<path style="opacity:0.5;fill:#FFFFFF;" d="M239.78,166.98c-0.23,0.29-0.47,0.52-0.72,0.69c-1.01,0.44-1.93,0.33-2.65-0.63
				c-1.85-2.48-2.63-6.14-2.29-9.51c0.85-0.96,1.92-0.73,1.92-0.73c-0.98,0.62-1.42,2.11-1.47,2.29c0.8-1.83,4.11-1.96,4.11-1.96
				C241.47,158.05,242.76,163.33,239.78,166.98z"/>
			<path style="fill:#EBB376;" d="M260.572,165.195c-2.232,8.054-3.936,13.482-9.752,16.071
				c-11.556,5.145-16.721-0.312-17.129-8.815c-0.368-7.653,3.345-19.539,12.625-21.272
				C255.46,149.473,262.805,157.141,260.572,165.195z"/>
			<path style="fill:#263238;" d="M254.172,161.003c-2.491,2.375-3.482,12.838,0.28,12.667c3.762-0.171,7.639-0.985,7.639-0.985
				s4.788-1.808,2.166-8.99C261.634,156.511,254.172,161.003,254.172,161.003z"/>
			<path style="fill:#263238;" d="M247.911,164.75c-0.134,0.717-0.622,1.225-1.091,1.133c-0.469-0.092-0.74-0.748-0.606-1.465
				c0.134-0.717,0.622-1.225,1.091-1.133C247.773,163.377,248.045,164.033,247.911,164.75z"/>
			<path style="fill:#263238;" d="M238.925,163.756c-0.134,0.717-0.622,1.224-1.091,1.133c-0.469-0.092-0.74-0.748-0.607-1.465
				c0.134-0.717,0.622-1.225,1.091-1.133S239.059,163.038,238.925,163.756z"/>
			<path style="fill:#D58745;" d="M239.78,163.963l-1.076,6.04c0,0-1.072,0.049-2.133-0.3c-0.61-0.201-0.718-1.038-0.191-1.405
				C238.221,167.013,239.78,163.963,239.78,163.963z"/>
			<path style="fill:#263238;" d="M249.07,162.795c0.071,0.004,0.144-0.009,0.213-0.043c0.212-0.104,0.298-0.361,0.192-0.574
				c-1.059-2.134-3.021-2.4-3.104-2.41c-0.235-0.029-0.448,0.138-0.474,0.373c-0.027,0.235,0.141,0.448,0.375,0.479l0,0
				c0.065,0.009,1.592,0.232,2.437,1.935C248.78,162.699,248.921,162.786,249.07,162.795z"/>
			<path style="fill:#263238;" d="M234.923,160.443c0.137,0.024,0.282-0.019,0.384-0.128c1.289-1.375,2.814-1.13,2.878-1.119
				c0.233,0.04,0.453-0.115,0.493-0.348c0.039-0.233-0.115-0.455-0.348-0.497c-0.085-0.013-2.035-0.35-3.65,1.373
				c-0.161,0.172-0.152,0.444,0.021,0.607C234.765,160.392,234.842,160.429,234.923,160.443z"/>
			<g>
				<path style="fill:#263238;" d="M237.538,172.612c0,0,3.054-0.675,11.614-0.6c-1.026,2.564-2.915,4.648-7.299,4.568
					C237.469,176.501,237.538,172.612,237.538,172.612z"/>
				<path style="fill:#A02724;" d="M243.904,174.576c-2.115-0.039-3.648,0.43-4.786,1.202c0.619,0.458,1.507,0.776,2.732,0.798
					c2.115,0.038,3.639-0.419,4.776-1.202C246.006,174.917,245.129,174.598,243.904,174.576z"/>
				<path style="fill:#FFFFFF;" d="M237.927,172.542c0.238,0.551,0.474,1.102,1.33,1.288c1.783,0.137,6.352-0.33,7.58-0.575
					c0.786-0.122,1.458-0.384,1.945-1.246C242.19,171.968,238.967,172.375,237.927,172.542z"/>
			</g>
			<path style="opacity:0.5;fill:#FFFFFF;" d="M254.172,161.003c-2.491,2.375-3.482,12.838,0.28,12.667
				c3.762-0.171,7.639-0.985,7.639-0.985s4.788-1.808,2.166-8.99C261.634,156.511,254.172,161.003,254.172,161.003z"/>
			<path style="fill:#EBB376;" d="M262.229,174.63c-1.623,1.784-3.924,2.643-5.912,2.693c-2.99,0.075-3.781-2.782-2.361-5.227
				c1.279-2.201,4.375-4.893,7.092-3.802C263.726,169.368,264.085,172.59,262.229,174.63z"/>
			<path style="fill:#263238;" d="M264.698,153.818c-2.907-6.969-10.816-4.019-17.377-9.235c-2.811-2.235-6.898,1.232-6.17,5.165
				l-0.004-0.003c0.004,0.014,0.008,0.027,0.012,0.041c0.064,0.33,0.159,0.663,0.295,0.997c1.248,3.943,2.715,5,4.088,6.166
				c-0.671-0.988-1.169-2.11-1.521-3.071c0.418,0.306,0.881,0.602,1.403,0.885c11.096,6.005,9.76,15.699,24.105,12.863
				C263.388,163.321,267.295,160.043,264.698,153.818z"/>
		</g>
		<g style="opacity:0.5;">
			<path style="fill:#FFFFFF;" d="M212.89,227.162c0.483-2.411,2.692-4.439,5.189-4.698c1.324-0.138,2.367,0.241,2.945,1.058
				c-0.385,0.327-0.771,0.656-1.157,0.986c-0.464-0.583-1.134-0.827-1.982-0.738c-1.685,0.175-3.141,1.52-3.473,3.179
				c-0.335,1.663,0.651,2.668,2.336,2.487c0.849-0.091,1.642-0.471,2.364-1.166c0.264,0.279,0.526,0.559,0.79,0.84
				c-0.931,0.931-2.164,1.502-3.498,1.648C213.916,231.029,212.408,229.579,212.89,227.162z"/>
			<path style="fill:#FFFFFF;" d="M221.165,226.265c0.478-2.377,2.689-4.277,5.199-4.344c2.512-0.067,4.002,1.715,3.523,4.091
				c-0.48,2.382-2.672,4.087-5.185,4.166C222.189,230.257,220.685,228.648,221.165,226.265z M228.376,226.005
				c0.329-1.636-0.645-2.821-2.275-2.777c-1.632,0.044-3.086,1.3-3.417,2.942c-0.33,1.644,0.65,2.751,2.281,2.701
				C226.597,228.82,228.045,227.643,228.376,226.005z"/>
			<path style="fill:#FFFFFF;" d="M236.138,228.452c-1.333-0.101-2.67-0.176-4.01-0.225c-0.389,0.608-0.777,1.216-1.166,1.827
				c-0.513-0.015-1.028-0.025-1.543-0.033c1.748-2.653,3.493-5.28,5.234-7.881c0.489,0.026,0.978,0.054,1.466,0.087
				c0.668,2.742,1.334,5.501,1.996,8.275c-0.516-0.05-1.033-0.097-1.55-0.139C236.422,229.726,236.28,229.089,236.138,228.452z
				 M235.881,227.254c-0.268-1.199-0.537-2.396-0.806-3.59c-0.735,1.135-1.471,2.275-2.207,3.419
				C233.874,227.125,234.878,227.182,235.881,227.254z"/>
			<path style="fill:#FFFFFF;" d="M239.254,226.551c0.48-2.377,2.645-3.92,5.072-3.559c1.285,0.191,2.289,0.846,2.844,1.838
				c-0.374,0.242-0.748,0.486-1.122,0.731c-0.447-0.721-1.093-1.143-1.915-1.265c-1.636-0.243-3.062,0.782-3.391,2.419
				c-0.331,1.64,0.628,2.933,2.263,3.17c0.822,0.119,1.594-0.074,2.294-0.613c0.253,0.355,0.506,0.712,0.759,1.07
				c-0.902,0.733-2.097,1.014-3.393,0.827C240.248,230.822,238.773,228.934,239.254,226.551z"/>
			<path style="fill:#FFFFFF;" d="M255.687,225.482c-0.531,2.633-1.061,5.267-1.592,7.902c-0.475-0.126-0.95-0.249-1.427-0.368
				c0.228-1.13,0.455-2.26,0.683-3.389c-1.326-0.335-2.661-0.643-4.003-0.923c-0.228,1.132-0.457,2.265-0.686,3.397
				c-0.482-0.099-0.965-0.195-1.449-0.287c0.533-2.644,1.067-5.288,1.6-7.932c0.483,0.094,0.966,0.192,1.447,0.294
				c-0.22,1.091-0.44,2.182-0.66,3.273c1.342,0.281,2.676,0.589,4.003,0.924c0.219-1.088,0.439-2.177,0.658-3.265
				C254.738,225.228,255.213,225.353,255.687,225.482z"/>
		</g>
		<path style="opacity:0.2;" d="M215.802,207.806l7.713-0.262c0,0-1.113,8.323-6.596,10.22
			C216.919,217.764,214.283,213.603,215.802,207.806z"/>
		<path style="opacity:0.2;" d="M259.755,212.801c0,2.336-1.894,4.23-4.23,4.23c-2.336,0-4.23-1.894-4.23-4.23
			c0-2.336,1.894-4.23,4.23-4.23C257.861,208.57,259.755,210.464,259.755,212.801z"/>
		<g>
			<path style="fill:#407BFF;" d="M274.473,291.11l-36.662-15.3c-0.91-0.38-1.34-1.426-0.96-2.336l10.859-26.022
				c0.38-0.91,1.426-1.34,2.336-0.96l36.662,15.3c0.91,0.38,1.34,1.426,0.96,2.336l-10.859,26.022
				C276.429,291.06,275.383,291.49,274.473,291.11z"/>
			<path style="fill:#263238;" d="M241.522,267.757l-2.102-0.877c-0.355-0.148-0.522-0.556-0.374-0.91l4.873-11.678
				c0.148-0.355,0.556-0.522,0.91-0.374l2.102,0.877c0.355,0.148,0.522,0.556,0.374,0.91l-4.873,11.678
				C242.284,267.737,241.877,267.905,241.522,267.757z"/>
			
				<rect x="242.941" y="255.326" transform="matrix(0.9229 0.3851 -0.3851 0.9229 123.7529 -80.269)" style="fill:#FFFFFF;" width="38.637" height="26.949"/>
			<g>
				<path style="fill:#263238;" d="M243.861,266.834l-2.044-0.853c-0.637-0.266-0.939-1-0.673-1.638l0.443,0.185
					c-0.164,0.393,0.022,0.846,0.415,1.01l2.044,0.853c0.393,0.164,0.847-0.022,1.01-0.415l3.095-7.416
					c0.164-0.393-0.023-0.846-0.416-1.01l-2.044-0.853c-0.393-0.164-0.846,0.023-1.01,0.415l-0.443-0.185
					c0.266-0.637,1.001-0.939,1.637-0.673l2.044,0.853c0.637,0.266,0.94,1,0.674,1.638l-3.095,7.416
					C245.233,266.798,244.499,267.1,243.861,266.834z"/>
			</g>
			<g style="opacity:0.5;">
				<path style="fill:#FFFFFF;" d="M243.861,266.834l-2.044-0.853c-0.637-0.266-0.939-1-0.673-1.638l0.443,0.185
					c-0.164,0.393,0.022,0.846,0.415,1.01l2.044,0.853c0.393,0.164,0.847-0.022,1.01-0.415l3.095-7.416
					c0.164-0.393-0.023-0.846-0.416-1.01l-2.044-0.853c-0.393-0.164-0.846,0.023-1.01,0.415l-0.443-0.185
					c0.266-0.637,1.001-0.939,1.637-0.673l2.044,0.853c0.637,0.266,0.94,1,0.674,1.638l-3.095,7.416
					C245.233,266.798,244.499,267.1,243.861,266.834z"/>
			</g>
		</g>
		<path style="fill:#EBB376;" d="M268.127,250.397l5.254,2.352c4.288,4.267-2.152,8.83-2.152,8.83l-2.21,3.445
			c-0.749,1.168-2.375,1.552-3.843,0.909l-3.686-1.616c-1.68-0.736-2.545-2.541-1.917-4.001l1.411-3.281
			c0.411-0.955,1.051-1.793,1.865-2.44L268.127,250.397z"/>
	</g>
</g>
</svg>
