<svg xmlns="http://www.w3.org/2000/svg" viewBox="0 0 500 500"><g id="freepik--Floor--inject-3"><path d="M404.91,269.55c86.12,48.8,86.58,127.91,1,176.7S181.2,495,95.08,446.25s-86.57-127.9-1-176.69S318.8,220.76,404.91,269.55Z" style="fill:#f5f5f5"></path></g><g id="freepik--Window--inject-3"><polygon points="321.69 49.23 326.1 46.67 325.84 137.8 321.44 140.37 321.69 49.23" style="fill:#f0f0f0"></polygon><polygon points="321.44 140.37 325.84 137.8 452.98 211.2 448.57 213.76 321.44 140.37" style="fill:#f5f5f5"></polygon><path d="M316.64,40.48l137.27,79.25-.29,102.79L316.35,143.26ZM448.57,213.76l.26-91.13L321.69,49.23l-.25,91.13,127.13,73.4" style="fill:#e0e0e0"></path><polygon points="316.64 40.48 321.05 37.91 458.32 117.17 453.91 119.73 316.64 40.48" style="fill:#f5f5f5"></polygon><polygon points="453.91 119.73 458.32 117.17 458.03 219.96 453.62 222.52 453.91 119.73" style="fill:#f0f0f0"></polygon><polygon points="382.72 84.47 382.46 175.6 387.53 178.53 387.79 87.39 382.72 84.47" style="fill:#e0e0e0"></polygon><polygon points="387.79 87.39 387.79 87.39 387.53 178.53 391.94 175.97 392.19 89.93 387.79 87.39" style="fill:#f0f0f0"></polygon><rect x="385.26" y="83" height="5.86" transform="translate(118.21 376.61) rotate(-60)" style="fill:#e0e0e0"></rect><polygon points="387.79 91.49 387.8 87.39 382.73 84.47 382.71 88.56 387.79 91.49 387.79 91.49" style="opacity:0.2"></polygon><polygon points="387.78 91.49 391.34 89.44 387.79 87.39 387.79 87.39 387.78 91.49" style="opacity:0.2"></polygon></g><g id="freepik--Charts--inject-3"><polygon points="397.11 279.36 397.1 282.77 340.96 250.35 340.97 246.94 397.11 279.36" style="fill:#407BFF"></polygon><polygon points="377.11 273.24 377.1 276.65 340.94 255.77 340.95 252.36 377.11 273.24" style="fill:#407BFF"></polygon><path d="M360.71,225.93a5.43,5.43,0,0,1,1.53,1.32c1.78,2.13,2.22,5,2.46,7.49.34,3.45.69,6.9,1,10.35a23.69,23.69,0,0,0,1,5.34,10.56,10.56,0,0,0,3.15,4.86,4.22,4.22,0,0,0,.54.36,3.14,3.14,0,0,0,3.49,0,9.26,9.26,0,0,0,2.3-3.23,7.92,7.92,0,0,1,3.07-3.49,4.55,4.55,0,0,1,4.29.36,6.85,6.85,0,0,1,.76.52c2.91,2.23,4.63,6.61,6,10.41s3.12,8.21,6.05,10.34a7,7,0,0,0,.6.4,4.93,4.93,0,0,0,5.75-.47c1.61-1.23,2.91-3,4.92-3.54a4.87,4.87,0,0,1,3.14.44l0,16.6L341,243.74l.08-27.59a23.65,23.65,0,0,1,2.74,7.29c.6,3.32.46,6.93,2.7,9.86a6.81,6.81,0,0,0,2,1.76,4,4,0,0,0,2.83.56c1.38-.36,2.25-1.65,2.82-3.17.77-2,1.12-4.5,2.34-6A3.23,3.23,0,0,1,360.71,225.93Z" style="fill:#407BFF"></path><path d="M360.71,225.93a5.43,5.43,0,0,1,1.53,1.32c1.78,2.13,2.22,5,2.46,7.49.34,3.45.69,6.9,1,10.35a23.69,23.69,0,0,0,1,5.34,10.56,10.56,0,0,0,3.15,4.86,4.22,4.22,0,0,0,.54.36,3.14,3.14,0,0,0,3.49,0,9.26,9.26,0,0,0,2.3-3.23,7.92,7.92,0,0,1,3.07-3.49,4.55,4.55,0,0,1,4.29.36,6.85,6.85,0,0,1,.76.52c2.91,2.23,4.63,6.61,6,10.41s3.12,8.21,6.05,10.34a7,7,0,0,0,.6.4,4.93,4.93,0,0,0,5.75-.47c1.61-1.23,2.91-3,4.92-3.54a4.87,4.87,0,0,1,3.14.44l0,16.6L341,243.74l.08-27.59a23.65,23.65,0,0,1,2.74,7.29c.6,3.32.46,6.93,2.7,9.86a6.81,6.81,0,0,0,2,1.76,4,4,0,0,0,2.83.56c1.38-.36,2.25-1.65,2.82-3.17.77-2,1.12-4.5,2.34-6A3.23,3.23,0,0,1,360.71,225.93Z" style="fill:#fff;opacity:0.4"></path><path d="M421.8,138.77,343.15,93.36a2.26,2.26,0,0,0-2.06-.26v0l-.06,0-.12.07L337.73,95l-.07,0-.05,0a2.23,2.23,0,0,0-.83,1.93l-.06,21.2a6.78,6.78,0,0,0,3.08,5.34L418.45,169a2.18,2.18,0,0,0,2.21.21h0l3.24-1.87,0,0,0,0h0a2.23,2.23,0,0,0,.87-2l.06-21.2A6.83,6.83,0,0,0,421.8,138.77Z" style="fill:#407BFF"></path><path d="M421.8,138.77,343.15,93.36a2.26,2.26,0,0,0-2.06-.26v0l-.06,0-.12.07L337.73,95a2.2,2.2,0,0,1,2.15.23l78.65,45.41a6.79,6.79,0,0,1,2.73,3.51l3.28-1.87A6.77,6.77,0,0,0,421.8,138.77Z" style="fill:#fff;opacity:0.30000000000000004"></path><path d="M421.26,144.17a5.29,5.29,0,0,1,.35,1.83l-.06,21.21a2.17,2.17,0,0,1-.89,2h0l3.24-1.87,0,0,0,0h0a2.23,2.23,0,0,0,.87-2l.06-21.2a5.43,5.43,0,0,0-.35-1.82Z" style="opacity:0.2"></path><path d="M358.76,114.41c1.71,3,1.85,6.15.43,7.51l-5.62-3.24-.39-3.4a.73.73,0,0,0-.3-.49c-.16-.09-.29,0-.31.13l-.82,5-1.06-8a.73.73,0,0,0-.31-.48.18.18,0,0,0-.3.13l-.77,5.49-.77-4.12a.73.73,0,0,0-.3-.45c-.15-.08-.27,0-.3.09l-.7,2.43-4.59-2.65c-1.41-3-1.25-6,.48-7a3.44,3.44,0,0,1,3.43.35,9.83,9.83,0,0,1,3.41,3.6l1,1.68,1-.56a3.45,3.45,0,0,1,3.42.35A9.85,9.85,0,0,1,358.76,114.41Zm-5.91,3-.8,4.92c0,.15-.15.2-.3.11a.66.66,0,0,1-.31-.47l-1-7.88-.71,5.08c0,.16-.15.21-.31.14a.68.68,0,0,1-.3-.46l-.87-4.63-.43,1.53c0,.13-.16.17-.3.09l-4.28-2.47.88,1.53,6.82,11.81,6.86-3.92.88-.5-5.33-3.08a.69.69,0,0,1-.31-.48Z" style="fill:#407BFF"></path><path d="M350.38,111.45a.73.73,0,0,1,.31.48l1.06,8,.82-5c0-.16.15-.22.31-.13a.73.73,0,0,1,.3.49l.39,3.4,5.62,3.24,3.19,1.84a.69.69,0,0,1,.31.54c0,.19-.14.27-.32.17l-3.73-2.15-5.33-3.08a.69.69,0,0,1-.31-.48l-.15-1.32-.8,4.92c0,.15-.15.2-.3.11a.66.66,0,0,1-.31-.47l-1-7.88-.71,5.08a.18.18,0,0,1-.29.14.64.64,0,0,1-.32-.46l-.87-4.63-.43,1.53c0,.13-.16.17-.3.09l-4.28-2.47-3.73-2.16a.66.66,0,0,1-.31-.52c0-.2.14-.28.31-.19l3.18,1.84,4.59,2.65.7-2.43c0-.13.15-.17.28-.1a.73.73,0,0,1,.32.46l.77,4.12.77-5.49A.18.18,0,0,1,350.38,111.45Z" style="fill:#fff"></path><path d="M358.76,114.41c1.71,3,1.85,6.15.43,7.51l-5.62-3.24-.39-3.4a.73.73,0,0,0-.3-.49c-.16-.09-.29,0-.31.13l-.82,5-1.06-8a.73.73,0,0,0-.31-.48.18.18,0,0,0-.3.13l-.77,5.49-.77-4.12a.73.73,0,0,0-.3-.45c-.15-.08-.27,0-.3.09l-.7,2.43-4.59-2.65c-1.41-3-1.25-6,.48-7a3.44,3.44,0,0,1,3.43.35,9.83,9.83,0,0,1,3.41,3.6l1,1.68,1-.56a3.45,3.45,0,0,1,3.42.35A9.85,9.85,0,0,1,358.76,114.41Zm-5.91,3-.8,4.92c0,.15-.15.2-.3.11a.66.66,0,0,1-.31-.47l-1-7.88-.71,5.08c0,.16-.15.21-.31.14a.68.68,0,0,1-.3-.46l-.87-4.63-.43,1.53c0,.13-.16.17-.3.09l-4.28-2.47.88,1.53,6.82,11.81,6.86-3.92.88-.5-5.33-3.08a.69.69,0,0,1-.31-.48Z" style="fill:#fff;opacity:0.4"></path><polygon points="405.6 153.57 405.59 157.07 364.82 133.53 364.83 130.03 405.6 153.57" style="fill:#fff"></polygon><polygon points="413.45 151.23 413.44 154.74 364.84 126.68 364.85 123.17 413.45 151.23" style="fill:#fff"></polygon><polygon points="381.57 125.95 381.56 129.45 364.86 119.81 364.87 116.31 381.57 125.95" style="fill:#fff"></polygon><path d="M421.8,180.11,343.15,134.7a2.26,2.26,0,0,0-2.06-.26v0l-.06,0-.12.07-3.18,1.83-.07,0-.05,0a2.23,2.23,0,0,0-.83,1.93l-.06,21.2a6.78,6.78,0,0,0,3.08,5.34l78.65,45.41a2.18,2.18,0,0,0,2.21.21h0l3.24-1.87,0,0,0,0h0a2.2,2.2,0,0,0,.87-2l.06-21.21A6.82,6.82,0,0,0,421.8,180.11Z" style="fill:#407BFF"></path><path d="M421.8,180.11,343.15,134.7a2.26,2.26,0,0,0-2.06-.26v0l-.06,0-.12.07-3.18,1.83a2.2,2.2,0,0,1,2.15.23L418.53,182a6.79,6.79,0,0,1,2.73,3.51l3.28-1.87A6.77,6.77,0,0,0,421.8,180.11Z" style="fill:#fff;opacity:0.30000000000000004"></path><path d="M421.26,185.51a5.25,5.25,0,0,1,.35,1.83l-.06,21.21a2.17,2.17,0,0,1-.89,2h0l3.24-1.87,0,0,0,0h0a2.2,2.2,0,0,0,.87-2l.06-21.21a5.42,5.42,0,0,0-.35-1.81Z" style="opacity:0.2"></path><polygon points="409.7 197.19 409.69 200.69 387.43 187.84 387.44 184.33 409.7 197.19" style="fill:#fff"></polygon><polygon points="412.51 191.93 412.5 195.44 387.44 180.97 387.45 177.47 412.51 191.93" style="fill:#fff"></polygon><polygon points="398.61 177.04 398.6 180.54 387.46 174.11 387.47 170.61 398.61 177.04" style="fill:#fff"></polygon><path d="M353.12,156.79a2.72,2.72,0,0,1,1.24,2.14v2.37c0,.78-.57,1.1-1.25.71l-2.06-1.19a2.75,2.75,0,0,1-1.23-2.14v-2.37c0-.79.56-1.1,1.24-.71Z" style="fill:#fff"></path><path d="M352.12,147.73l.3.19v2.85a3.28,3.28,0,0,0-.31-.2c-3.95-2.28-7.17-.45-7.19,4.1a13.83,13.83,0,0,0,1.46,5.83l-2.12.27a18.37,18.37,0,0,1-1.81-7.53C342.46,147.13,346.8,144.66,352.12,147.73Z" style="fill:#fff;opacity:0.4"></path><path d="M352.42,147.92c5.18,3.18,9.33,10.46,9.31,16.45s-4.36,8.58-9.67,5.51a20.58,20.58,0,0,1-7.8-9.11l2.12-.27a15.3,15.3,0,0,0,5.68,6.54c4,2.28,7.18.44,7.19-4.1a15.83,15.83,0,0,0-6.83-12.17Z" style="fill:#fff"></path><path d="M373.56,160.11l.31.19v2.85a3.28,3.28,0,0,0-.31-.2c-3.95-2.28-7.17-.45-7.18,4.1a13.81,13.81,0,0,0,1.45,5.83l-2.11.27a18.23,18.23,0,0,1-1.82-7.53C363.91,159.51,368.25,157,373.56,160.11Z" style="fill:#fff;opacity:0.4"></path><path d="M374.57,169.17a2.74,2.74,0,0,1,1.23,2.14v2.36c0,.79-.55,1.11-1.24.72l-2.06-1.19a2.73,2.73,0,0,1-1.23-2.14v-2.37c0-.79.56-1.1,1.25-.71Z" style="fill:#fff"></path><path d="M373.87,160.3c5.17,3.18,9.32,10.46,9.3,16.45s-4.35,8.58-9.67,5.51a20.51,20.51,0,0,1-7.79-9.11l2.11-.27a15.32,15.32,0,0,0,5.69,6.54c3.95,2.28,7.17.44,7.19-4.1a15.82,15.82,0,0,0-6.84-12.17Z" style="fill:#fff"></path><path d="M346.44,181.29a3.77,3.77,0,0,1,1.72,3v3.29c0,1.09-.77,1.53-1.73,1l-2.86-1.65a3.81,3.81,0,0,1-1.71-3v-3.29c0-1.09.78-1.53,1.72-1Z" style="fill:#407BFF"></path><path d="M346.42,190.55a3.76,3.76,0,0,1,1.71,3v3.29c0,1.09-.77,1.53-1.72,1l-2.86-1.65a3.76,3.76,0,0,1-1.71-3v-3.3c0-1.09.77-1.53,1.72-1Z" style="fill:#407BFF"></path><path d="M346.39,199.82a3.78,3.78,0,0,1,1.72,3v3.29c0,1.09-.78,1.53-1.73,1l-2.86-1.65a3.77,3.77,0,0,1-1.71-3v-3.29c0-1.08.77-1.52,1.72-1Z" style="fill:#407BFF"></path><polygon points="394.52 229.59 394.51 232.86 351.05 207.76 351.06 204.49 394.52 229.59" style="fill:#407BFF"></polygon><polygon points="411.85 230.31 411.84 233.59 351.07 198.51 351.08 195.23 411.85 230.31" style="fill:#407BFF"></polygon><polygon points="403.83 216.41 403.82 219.68 351.1 189.25 351.11 185.97 403.83 216.41" style="fill:#407BFF"></polygon></g><g id="freepik--Device--inject-3"><path d="M244.3,71.51c0-8.43-3-14.35-7.81-17.14h0L225.7,48l-.15-.08a11.1,11.1,0,0,0-1.34-.66,2.67,2.67,0,0,0-.26-.09l-.46-.16c-.23-.08-.45-.18-.69-.25s-.52-.12-.77-.18l-.48-.1a1.83,1.83,0,0,0-.25-.06,14.33,14.33,0,0,0-1.62-.19h-.49c-.42,0-.84,0-1.28,0l-.44.05-.8.08c-.25,0-.5,0-.75.07l-.67.15c-.36.06-.72.14-1.09.23-.2,0-.39.07-.59.13-.45.12-.9.26-1.36.41l-.14,0c-.55.18-1.09.39-1.65.62l-.66.3-.63.29c-.81.38-1.62.79-2.45,1.27L127.8,95.38q-1.29.75-2.55,1.62l-.8.58c-.57.41-1.13.83-1.69,1.27l-.91.76c-.51.43-1,.87-1.51,1.32l-.9.84-.57.53c-.19.19-.38.41-.57.61-.6.61-1.2,1.24-1.78,1.89-.18.21-.38.4-.57.61l-.45.55c-.35.41-.69.84-1,1.26s-.46.55-.68.83-.35.48-.52.72-.5.66-.74,1l-.52.69c-.28.4-.54.81-.81,1.22l-.52.77-.21.32c-.48.75-.94,1.5-1.39,2.27l-.08.15-.26.46c-.31.54-.62,1.09-.91,1.64-.14.25-.26.51-.39.77l-.41.8c-.11.24-.24.47-.35.7-.31.63-.59,1.26-.87,1.9l-.15.33-.05.09c-.34.8-.67,1.6-1,2.4-.05.15-.1.3-.16.45s-.2.58-.31.87-.3.8-.43,1.21-.19.62-.29.94-.23.73-.33,1.09-.15.46-.21.69c-.12.41-.2.82-.3,1.23s-.24.91-.34,1.36c0,.16-.08.32-.12.48-.07.33-.1.65-.16,1-.14.71-.27,1.42-.37,2.13,0,.2-.08.4-.1.59-.06.45-.09.89-.13,1.34s-.07.63-.09.94c-.08,1-.13,2-.12,2.95l.34,152.21c0,8.43,3,14.36,7.81,17.15l10.8,6.39a10.61,10.61,0,0,1-.88-.61c4.92,3.43,12,3.31,19.89-1.25L218,269.88c14.76-8.52,26.7-29.19,26.65-46.17Z" style="fill:#407BFF"></path><path d="M244.3,71.51c0-8.43-3-14.35-7.81-17.14h0L225.7,48l-.15-.08a11.1,11.1,0,0,0-1.34-.66,2.67,2.67,0,0,0-.26-.09l-.46-.16c-.23-.08-.45-.18-.69-.25s-.52-.12-.77-.18l-.48-.1a1.83,1.83,0,0,0-.25-.06,14.33,14.33,0,0,0-1.62-.19h-.49c-.42,0-.84,0-1.28,0l-.44.05-.8.08c-.25,0-.5,0-.75.07l-.67.15c-.36.06-.72.14-1.09.23-.2,0-.39.07-.59.13-.45.12-.9.26-1.36.41l-.14,0c-.55.18-1.09.39-1.65.62l-.66.3-.63.29c-.81.38-1.62.79-2.45,1.27L127.8,95.38q-1.29.75-2.55,1.62l-.8.58c-.57.41-1.13.83-1.69,1.27l-.91.76c-.51.43-1,.87-1.51,1.32l-.9.84-.57.53c-.19.19-.38.41-.57.61-.6.61-1.2,1.24-1.78,1.89-.18.21-.38.4-.57.61l-.45.55c-.35.41-.69.84-1,1.26s-.46.55-.68.83-.35.48-.52.72-.5.66-.74,1l-.52.69c-.28.4-.54.81-.81,1.22l-.52.77-.21.32c-.48.75-.94,1.5-1.39,2.27l-.08.15-.26.46c-.31.54-.62,1.09-.91,1.64-.14.25-.26.51-.39.77l-.41.8c-.11.24-.24.47-.35.7-.31.63-.59,1.26-.87,1.9l-.15.33-.05.09c-.34.8-.67,1.6-1,2.4-.05.15-.1.3-.16.45s-.2.58-.31.87-.3.8-.43,1.21-.19.62-.29.94-.23.73-.33,1.09-.15.46-.21.69c-.12.41-.2.82-.3,1.23s-.24.91-.34,1.36c0,.16-.08.32-.12.48-.07.33-.1.65-.16,1-.14.71-.27,1.42-.37,2.13,0,.2-.08.4-.1.59-.06.45-.09.89-.13,1.34s-.07.63-.09.94c-.08,1-.13,2-.12,2.95l.34,152.21c0,8.43,3,14.36,7.81,17.15l10.8,6.39a10.61,10.61,0,0,1-.88-.61c4.92,3.43,12,3.31,19.89-1.25L218,269.88c14.76-8.52,26.7-29.19,26.65-46.17Z" style="fill:#fff;opacity:0.6000000000000001"></path><path d="M112.3,300.12,112,147.92l-10.8-6.39.34,152.21c0,8.43,3,14.36,7.81,17.15l10.8,6.39C115.31,314.49,112.33,308.56,112.3,300.12Z" style="opacity:0.1"></path><path d="M220.56,54.67a24.11,24.11,0,0,1,2.31-.92l.14,0c.66-.22,1.31-.39,2-.54l1.09-.24c.48-.09.95-.16,1.42-.21l.8-.09a16.6,16.6,0,0,1,1.72,0h.39a15.59,15.59,0,0,1,2,.25l.48.11a13.69,13.69,0,0,1,1.46.43l.46.15a12.78,12.78,0,0,1,1.75.84L225.7,48l-.15-.08a11.1,11.1,0,0,0-1.34-.66,2.67,2.67,0,0,0-.26-.09l-.46-.16c-.23-.08-.45-.18-.69-.25s-.52-.12-.77-.18l-.48-.1a1.83,1.83,0,0,0-.25-.06,14.33,14.33,0,0,0-1.62-.19h-.49c-.42,0-.84,0-1.28,0l-.44.05-.8.08c-.25,0-.5,0-.75.07l-.67.15c-.36.06-.72.14-1.09.23-.2,0-.39.07-.59.13-.45.12-.9.26-1.36.41l-.14,0c-.55.18-1.09.39-1.65.62l-.66.3-.63.29c-.81.38-1.62.79-2.45,1.27L127.8,95.38q-1.29.75-2.55,1.62l-.8.59c-.57.4-1.13.82-1.69,1.26l-.91.76c-.51.43-1,.87-1.51,1.32l-.9.84-.57.53c-.19.19-.38.41-.57.61-.6.61-1.2,1.24-1.78,1.89-.18.21-.38.4-.57.61l-.45.55c-.35.41-.69.84-1,1.26s-.46.55-.68.83-.35.48-.52.72-.5.66-.74,1l-.52.69c-.28.4-.54.81-.81,1.22l-.52.77-.21.32c-.48.75-.94,1.5-1.39,2.27l-.08.15-.26.46c-.31.55-.62,1.09-.91,1.64-.14.25-.26.51-.39.77l-.41.8c-.11.24-.24.47-.35.7-.31.63-.59,1.26-.87,1.9l-.15.33-.05.09c-.34.8-.67,1.6-1,2.4-.05.15-.1.3-.16.45s-.2.58-.31.87-.3.8-.43,1.21-.19.62-.29.94-.23.73-.33,1.09-.15.46-.21.69c-.12.41-.2.82-.3,1.23s-.24.91-.34,1.36c0,.16-.08.32-.12.48-.07.33-.1.65-.16,1-.14.71-.27,1.42-.37,2.13,0,.2-.08.4-.1.59-.06.45-.09.89-.13,1.34s-.07.63-.09.94c-.08,1-.13,2-.12,2.95l10.8,6.39c0-1,0-2,.11-2.95,0-.32.07-.63.1-.95.06-.64.14-1.28.23-1.92s.23-1.42.37-2.13c.09-.49.17-1,.28-1.46s.22-.91.34-1.37c.16-.63.32-1.27.5-1.91.11-.36.23-.73.34-1.1.23-.71.47-1.43.72-2.14.1-.29.2-.59.31-.88.37-1,.76-2,1.19-2.93l.15-.34c.39-.87.79-1.73,1.22-2.59.13-.27.27-.54.41-.8.41-.81.85-1.61,1.3-2.41l.26-.46c.54-.93,1.1-1.84,1.68-2.74l.52-.78c.43-.64.87-1.27,1.32-1.9l.75-1c.39-.52.8-1,1.2-1.54l1-1.27,1-1.15c.58-.65,1.18-1.28,1.78-1.89.38-.39.75-.77,1.14-1.14s.6-.57.9-.84c.5-.46,1-.9,1.51-1.32l.91-.76c.56-.44,1.12-.86,1.69-1.27.27-.19.53-.4.8-.58q1.26-.87,2.55-1.62l78.88-45.54c.83-.48,1.64-.89,2.45-1.27Z" style="fill:#fff;opacity:0.30000000000000004"></path><path d="M125.75,300.08c0,3.31.73,5,1.1,5.52a2,2,0,0,0,.34,0c.61,0,2.33-.18,5.21-1.84l78.88-45.54c10.65-6.15,20-22.26,19.92-34.49l-.08-39.1-105.5,61.57Z" style="fill:#407BFF"></path><path d="M230.86,71.55c0-3.35-.76-5-1.12-5.52h-.45l-.31,0-.44.07-.42.09c-.26.06-.63.16-.9.25l-.13,0c-.27.1-.63.24-1,.43l-.37.17c-.6.28-1.07.52-1.48.76l-78.88,45.54c-.49.29-1,.63-1.61,1l-.6.43c-.39.29-.78.58-1.16.88l-.54.44-.11.1c-.38.31-.74.63-1.1.95l-.67.63-.72.73-.13.13c-.46.46-.91.94-1.34,1.43l-.15.16-.64.72-.81,1c-.32.4-.64.8-.94,1.21l-.59.78c-.35.5-.7,1-1,1.51l-.42.62c-.48.75-.93,1.48-1.32,2.15l-.22.39c-.36.63-.7,1.27-1,1.91l-.32.63c-.34.68-.66,1.36-1,2-.06.13-.11.26-.18.4-.28.66-.57,1.38-.88,2.19l-.24.68c-.2.55-.38,1.1-.55,1.65-.09.28-.18.56-.26.83-.14.48-.26.95-.38,1.45l-.07.27-.18.72-.12.62-.08.44c-.1.51-.19,1-.26,1.52s-.12.88-.16,1.32l-.07.64c-.06.75-.08,1.37-.08,1.92l.21,93.85,105.5-61.57Z" style="fill:#455a64"></path><polygon points="125.61 241.74 125.62 246.22 231.12 184.65 231.1 180.17 125.61 241.74" style="fill:#fff"></polygon><path d="M214.05,124.46,204,130.27l-10.78,6.23L204,130.27c3.62-8,3.12-16-1.5-18.6-2.58-1.47-6-1-9.32,1a26.74,26.74,0,0,0-9.3,9.8l-2.75,4.76-.47-6.08c0-.51-.42-.71-.93-.45a2.1,2.1,0,0,0-.92,1.4l-.86,5.61-1.58-.9c-2.58-1.47-6-1-9.33.95a26.65,26.65,0,0,0-9.29,9.8c-4.6,8-5.05,16.46-1.39,20.27l-10.07,5.81a2,2,0,0,0-.93,1.61c0,.59.42.83.93.54L158,159l3.61,2.06,18.69,10.64,2.13-3.69.09,1.15c0,.52.44.72.93.45a2.11,2.11,0,0,0,.93-1.49l.37-4.13,14.11-24.44,3.59-6.21,11.66-6.73A2.07,2.07,0,0,0,215,125C215,124.4,214.57,124.16,214.05,124.46Z" style="fill:#407BFF"></path><path d="M179.72,120.65c.51-.26.89-.06.93.45l.47,6.08,2.39,30.36,2.89-31.63a2,2,0,0,1,.88-1.46c.48-.28.87-.15.95.32l3.42,18.48.64-5.31a2.06,2.06,0,0,1,.92-1.44L204,130.27l10.06-5.81c.52-.3.94-.06.94.54a2.07,2.07,0,0,1-.93,1.61l-11.66,6.73L194,138.18l-1.33,11a2.05,2.05,0,0,1-.9,1.43c-.47.27-.85.13-.94-.33l-3.27-17.75L184.7,164l-.37,4.13a2.11,2.11,0,0,1-.93,1.49c-.49.27-.89.07-.93-.45l-.09-1.15-3-38.32-5,32.49a2.12,2.12,0,0,1-.91,1.39c-.52.27-.89.07-.93-.44l-2-23-2.27,12.13a2.11,2.11,0,0,1-.91,1.34L158,159l-11.67,6.74c-.51.29-.93,0-.93-.54a2,2,0,0,1,.93-1.61l10.07-5.81,10.26-5.93,3.4-18.13a2.08,2.08,0,0,1,.91-1.35c.52-.26.88-.05.93.44l1.94,22,4.15-27.17.86-5.61A2.1,2.1,0,0,1,179.72,120.65Z" style="fill:#fff"></path><polygon points="167.16 191.19 167.19 204.24 163.36 206.45 163.33 196.72 161.38 197.84 161.38 194.53 167.16 191.19" style="fill:#fff"></polygon><path d="M172.79,187.64c2.69-1.55,4.59-1,4.6,1.44,0,1.28-.28,2.6-1.94,5.28L173.84,197l3.82-2.2v3.41l-9.1,5.26v-2.7l4.1-6.74a4.4,4.4,0,0,0,.89-2.31c0-.62-.38-.8-1.11-.38a4.06,4.06,0,0,0-1.67,2.17h-2.89A11.16,11.16,0,0,1,172.79,187.64Z" style="fill:#fff"></path><path d="M183.56,181.42c3-1.72,5.15-.47,5.16,3.85a11.21,11.21,0,0,1-5.12,9.79c-3,1.74-5.16.48-5.17-3.85A11.23,11.23,0,0,1,183.56,181.42Zm0,10.12c.74-.43,1.29-1.53,1.28-4s-.56-3-1.3-2.54-1.3,1.53-1.29,4,.57,3,1.31,2.55" style="fill:#fff"></path><path d="M193.67,184.77c.93-.54,1.73-.19,1.73,1.12a3.79,3.79,0,0,1-1.72,3.13c-.44.25-.76.31-1,.16v.33l-1.4.81v-5.57l1.47-.85v1.75A2.31,2.31,0,0,1,193.67,184.77Zm-.35,3.14a1.31,1.31,0,0,0,.58-1.15c0-.53-.26-.65-.58-.46a1.26,1.26,0,0,0-.57,1.13c0,.53.25.66.57.48" style="fill:#fff"></path><path d="M198.24,182.12c.93-.53,1.72-.17,1.72,1.15a3.72,3.72,0,0,1-1.71,3.11c-.39.22-.69.29-.91.17v1.74l-1.47.85v-5.55l1.4-.81v.33A2.52,2.52,0,0,1,198.24,182.12Zm-.34,3.15a1.29,1.29,0,0,0,.58-1.14c0-.53-.26-.66-.59-.47a1.3,1.3,0,0,0-.58,1.15c0,.53.26.65.59.46" style="fill:#fff"></path><path d="M205.15,178.13c.81-.46,1.42-.25,1.42,1v2.34l-1.47.85v-2c0-.52-.16-.62-.39-.49a1.08,1.08,0,0,0-.46,1v2l-1.47.85v-2c0-.52-.16-.62-.41-.48a1.08,1.08,0,0,0-.46,1v2l-1.48.85v-4.1l1.4-.8v.37a2.81,2.81,0,0,1,1-1c.47-.27.87-.3,1.12,0A3.25,3.25,0,0,1,205.15,178.13Z" style="fill:#fff"></path><path d="M144.09,247c3.54-2.05,6.42-.4,6.44,3.66a14.07,14.07,0,0,1-6.4,11.08c-3.55,2.05-6.43.41-6.44-3.67A14.08,14.08,0,0,1,144.09,247Z" style="fill:#fff"></path><polygon points="221.34 208.35 221.35 211.12 157.49 247.99 157.48 245.23 221.34 208.35" style="fill:#fff"></polygon><polygon points="221.41 229.86 221.41 232.63 157.55 269.5 157.54 266.73 221.41 229.86" style="fill:#fff"></polygon><polygon points="191.8 252.14 191.81 254.9 157.56 274.67 157.56 271.91 191.8 252.14" style="fill:#fff"></polygon><polygon points="182.67 247.04 182.67 249.81 157.53 264.33 157.53 261.56 182.67 247.04" style="fill:#fff"></polygon><polygon points="214.39 217.55 214.4 220.31 157.5 253.16 157.5 250.4 214.39 217.55" style="fill:#fff"></polygon><polygon points="196.69 217.41 196.7 220.17 157.47 242.82 157.47 240.05 196.69 217.41" style="fill:#fff"></polygon><path d="M144.15,268.47c3.54-2.05,6.43-.41,6.44,3.66a14.1,14.1,0,0,1-6.4,11.08c-3.54,2.05-6.43.4-6.44-3.67A14.08,14.08,0,0,1,144.15,268.47Z" style="fill:#fff"></path></g><g id="freepik--Treadmill--inject-3"><polygon points="303.94 297.61 293.01 291.26 147.36 363.79 158.32 370.12 303.94 297.61" style="fill:#455a64"></polygon><polygon points="374.59 338.67 229.22 411.05 240.98 417.84 386.3 345.47 374.59 338.67" style="fill:#455a64"></polygon><polygon points="303.94 297.61 293.01 291.26 147.36 363.79 158.32 370.12 303.94 297.61" style="fill:#fff;opacity:0.30000000000000004"></polygon><polygon points="229.22 411.05 158.32 370.12 147.36 363.79 126.98 361.11 220.28 415.33 240.98 417.84 229.22 411.05" style="fill:#455a64"></polygon><polygon points="229.22 411.05 158.32 370.12 147.36 363.79 126.98 361.11 220.28 415.33 240.98 417.84 229.22 411.05" style="fill:#fff;opacity:0.5"></polygon><polygon points="374.59 338.67 229.22 411.05 240.98 417.84 386.3 345.47 374.59 338.67" style="fill:#fff;opacity:0.30000000000000004"></polygon><polygon points="220.28 415.33 126.98 361.11 127 385.71 127.02 396.55 220.31 450.77 220.28 415.33" style="fill:#455a64"></polygon><path d="M136,388.47v-8.18a2,2,0,0,1,3-1.74l69.72,40.52a5,5,0,0,1,2.5,4.33v8.18a2,2,0,0,1-3,1.74L138.53,392.8A5,5,0,0,1,136,388.47Z" style="fill:#37474f"></path><polygon points="220.28 415.33 220.31 450.77 386.34 354.91 386.3 345.47 240.98 417.84 220.28 415.33" style="fill:#455a64"></polygon><polygon points="220.28 415.33 220.31 450.77 386.34 354.91 386.3 345.47 240.98 417.84 220.28 415.33" style="fill:#fff;opacity:0.1"></polygon><polygon points="303.94 297.61 303.93 302.08 294.96 302.08 303.94 297.61" style="fill:#455a64"></polygon><path d="M296.41,301.36,158.32,370.12l70.9,40.93,141.22-70.32-67.38-39.16A7,7,0,0,0,296.41,301.36Z" style="fill:#37474f"></path><path d="M222.11,307.19a3,3,0,0,0-3,3v99.69a13.52,13.52,0,0,0,6,2V310.2A3,3,0,0,0,222.11,307.19Z" style="fill:#e0e0e0"></path><path d="M222.11,307.19a3,3,0,0,0-3,3v99.69a13.52,13.52,0,0,0,6,2V310.2A3,3,0,0,0,222.11,307.19Z" style="opacity:0.2"></path><path d="M222.11,307.19a3,3,0,0,0-3,3v8.63a31.08,31.08,0,0,0,5.37.48l.64,0V310.2A3,3,0,0,0,222.11,307.19Z" style="opacity:0.30000000000000004"></path><path d="M143.14,264.55a3,3,0,0,0-3,3v97.72a13.68,13.68,0,0,0,6,1.76V267.56A3,3,0,0,0,143.14,264.55Z" style="fill:#e0e0e0"></path><path d="M143.14,264.55a3,3,0,0,0-3,3v97.72a13.68,13.68,0,0,0,6,1.76V267.56A3,3,0,0,0,143.14,264.55Z" style="opacity:0.2"></path><path d="M143.14,264.55a3,3,0,0,0-3,3v7.83l6,3.48V267.56A3,3,0,0,0,143.14,264.55Z" style="opacity:0.30000000000000004"></path><path d="M165.94,244.24a2.07,2.07,0,0,0-1.78-.86l-19.32,4.4a2,2,0,0,1,1.85.86,6.33,6.33,0,0,1,1,5.67,2,2,0,0,1-1.4,1.48l19.23-4.4a2,2,0,0,0,1.42-1.48A6.4,6.4,0,0,0,165.94,244.24Z" style="fill:#455a64"></path><path d="M144.71,247.81v0l.12-.05Z" style="fill:#455a64"></path><polygon points="146.28 255.8 146.29 255.8 146.28 255.8 146.28 255.8" style="fill:#455a64"></polygon><path d="M147.73,254.31a6.33,6.33,0,0,0-1-5.67,2,2,0,0,0-1.85-.86h0l-.12.05a2.09,2.09,0,0,0-1.3,1.43,6.35,6.35,0,0,0,1,5.67,2,2,0,0,0,1.83.87h.05A2,2,0,0,0,147.73,254.31Z" style="fill:#263238"></path><polygon points="240.12 311 240.13 311 240.12 311 240.12 311" style="fill:#455a64"></polygon><path d="M259.77,299.45a2.05,2.05,0,0,0-1.77-.87L238.68,303a2,2,0,0,1,1.85.87,6.34,6.34,0,0,1,1,5.66,2.06,2.06,0,0,1-1.41,1.48l19.23-4.39a2.07,2.07,0,0,0,1.42-1.48A6.35,6.35,0,0,0,259.77,299.45Z" style="fill:#455a64"></path><path d="M238.54,303v0a.56.56,0,0,1,.12,0Z" style="fill:#455a64"></path><path d="M241.57,309.51a6.34,6.34,0,0,0-1-5.66,2,2,0,0,0-1.85-.87h0a.56.56,0,0,0-.12,0,2.08,2.08,0,0,0-1.29,1.44,6.31,6.31,0,0,0,1,5.66,2,2,0,0,0,1.83.87h0A2.06,2.06,0,0,0,241.57,309.51Z" style="fill:#263238"></path><g style="opacity:0.4"><path d="M165.94,244.24a2.07,2.07,0,0,0-1.78-.86l-19.32,4.4a2,2,0,0,1,1.85.86,6.33,6.33,0,0,1,1,5.67,2,2,0,0,1-1.4,1.48l19.23-4.4a2,2,0,0,0,1.42-1.48A6.4,6.4,0,0,0,165.94,244.24Z" style="fill:#fff"></path><path d="M144.71,247.81v0l.12-.05Z" style="fill:#fff"></path><polygon points="146.28 255.8 146.29 255.8 146.28 255.8 146.28 255.8" style="fill:#fff"></polygon></g><g style="opacity:0.4"><polygon points="240.12 311 240.13 311 240.12 311 240.12 311" style="fill:#fff"></polygon><path d="M259.77,299.45a2.05,2.05,0,0,0-1.77-.87L238.68,303a2,2,0,0,1,1.85.87,6.34,6.34,0,0,1,1,5.66,2.06,2.06,0,0,1-1.41,1.48l19.23-4.39a2.07,2.07,0,0,0,1.42-1.48A6.35,6.35,0,0,0,259.77,299.45Z" style="fill:#fff"></path><path d="M238.54,303v0a.56.56,0,0,1,.12,0Z" style="fill:#fff"></path></g><path d="M238.28,304.52h0l-7.68,1.92A24.93,24.93,0,0,1,212,303.83l-70.36-40.62a4,4,0,0,1,1-7.36l3.08-.76c1.06-.86.94-5.53-1.31-5.87l-3.23.79a10,10,0,0,0-2.58,18.41L209,309a30.93,30.93,0,0,0,15.5,4.18,31.33,31.33,0,0,0,7.6-1l7.52-1.87C240.65,309.54,240.53,304.87,238.28,304.52Z" style="fill:#e0e0e0"></path><polygon points="149.91 275.38 149.91 254.53 195.03 280.59 195.03 301.43 149.91 275.38" style="fill:#455a64"></polygon><polygon points="195.03 280.59 222.11 293.8 222.11 301.43 195.03 301.43 195.03 280.59" style="fill:#455a64"></polygon><polygon points="149.91 254.53 195.03 280.59 222.11 293.8 176.98 267.75 149.91 254.53" style="fill:#455a64"></polygon><polygon points="195.03 280.59 222.11 293.8 222.11 301.43 195.03 301.43 195.03 280.59" style="fill:#fff;opacity:0.1"></polygon><polygon points="149.91 254.53 195.03 280.59 222.11 293.8 176.98 267.75 149.91 254.53" style="fill:#fff;opacity:0.30000000000000004"></polygon></g><g id="freepik--Character--inject-3"><path d="M300.55,337.2c17.27,10,17.36,26.13.21,36.1s-45.06,10-62.33,0-17.35-26.13-.2-36.1S283.29,327.23,300.55,337.2Z" style="opacity:0.2"></path><path d="M267.87,224.53,271.66,208h0A29.76,29.76,0,0,0,257.49,214l-19.84,15.6,13.65,4.21Z" style="fill:#ffa8a7"></path><path d="M277.14,298.86l2.77,6.25a9,9,0,0,0,9.28,5.31l23.4-2.67a15.93,15.93,0,0,1,5.87.43l5.12,1.36v-12l-1.4.41a15.83,15.83,0,0,1-8.28.2l-8.53-2.1a23.36,23.36,0,0,0-12.25.3h0l-.87-7.08Z" style="fill:#f28f8f"></path><path d="M340.73,314.66a11.12,11.12,0,0,0-3.39-7.66c-1.54-1.46-3.48-2.44-4.94-4-1.69-1.81-2.39-3.8-3.83-5.85a2.27,2.27,0,0,0-1-.77,2.17,2.17,0,0,0-.44,0,3.8,3.8,0,0,0-1.46.42h0a2.27,2.27,0,0,1,1.45.9c1.45,2,2.47,4.4,4.17,6.17,1.45,1.51,3.39,2.47,4.93,3.9a10.74,10.74,0,0,1,3.39,7.48c.08,2.81-.95,7.66-3,7.66a2.53,2.53,0,0,0,1.9-.29C340.29,320.85,340.78,316.75,340.73,314.66Z" style="fill:#ebebeb"></path><path d="M328.57,297.15c1.44,2.05,2.14,4,3.83,5.85,1.46,1.56,3.4,2.54,4.94,4a11.12,11.12,0,0,1,3.39,7.66c0,2.09-.44,6.19-2.15,7.93,2.18-1.31,2.78-5.94,2.71-8.2a10.78,10.78,0,0,0-3.38-7.48c-1.54-1.43-3.49-2.39-4.94-3.91-1.7-1.77-2.39-3.72-3.84-5.71a2.27,2.27,0,0,0-1.53-.91A2.27,2.27,0,0,1,328.57,297.15Z" style="fill:#455a64"></path><path d="M321.66,297.64a3,3,0,0,1-1.58.23s-1.58-.16-2.1-.26c-1-.19-1.1.94-1.1.94a8.49,8.49,0,0,0,1.79,0,1.76,1.76,0,0,0,1.21.78,7.27,7.27,0,0,1,1.46.45,1.3,1.3,0,0,1,.76,1.22c-.09.56-.64.89-1,1.36a1.89,1.89,0,0,0-.08,1.83,1.51,1.51,0,0,0-1.84.53,4.48,4.48,0,0,0-.66,2,5,5,0,0,0-.1,1.44,1.79,1.79,0,0,0,.65,1.26,1.09,1.09,0,0,0,1.34,0c1.28,2.08,7.13,2.87,10.06,6.8s3.57,6.72,6.17,6.72c2,0,3-4.85,3-7.66a10.74,10.74,0,0,0-3.39-7.48c-1.54-1.43-3.48-2.39-4.93-3.9-1.7-1.77-2.72-4.17-4.17-6.17a2.27,2.27,0,0,0-1.45-.9,2.33,2.33,0,0,0-.53,0A9.67,9.67,0,0,0,321.66,297.64Z" style="fill:#407BFF"></path><path d="M335.88,322.21l.66-1.81a.69.69,0,0,1,.56-.44c2-.24,2.63-.54,3.5-1.46a8,8,0,0,1-1.06,3.18,2.6,2.6,0,0,1-3.47,1A.37.37,0,0,1,335.88,322.21Z" style="fill:#455a64"></path><path d="M323.22,305.37a.52.52,0,0,1-.17.38,3.93,3.93,0,0,0-.95,4.74.5.5,0,0,1-.89.45,5,5,0,0,1-.43-3.18,4.91,4.91,0,0,1,1.61-2.77.51.51,0,0,1,.71.05A.5.5,0,0,1,323.22,305.37Z" style="fill:#37474f"></path><path d="M326.29,306.78a.51.51,0,0,1-.15.36,5.18,5.18,0,0,0-1.39,4.89.5.5,0,1,1-1,.24,6.23,6.23,0,0,1,1.66-5.85.5.5,0,0,1,.71,0A.49.49,0,0,1,326.29,306.78Z" style="fill:#37474f"></path><path d="M329,309a.49.49,0,0,1-.19.39,4.21,4.21,0,0,0-1.49,3.89.51.51,0,0,1-.41.58.51.51,0,0,1-.58-.41,5.2,5.2,0,0,1,1.86-4.85.5.5,0,0,1,.7.08A.5.5,0,0,1,329,309Z" style="fill:#37474f"></path><path d="M331.23,311.15a.51.51,0,0,1-.17.37,4.15,4.15,0,0,0-1.31,3.53.5.5,0,0,1-.43.56.49.49,0,0,1-.56-.43,5.14,5.14,0,0,1,1.63-4.4.5.5,0,0,1,.71,0A.55.55,0,0,1,331.23,311.15Z" style="fill:#37474f"></path><path d="M267,256.06c-.75,10.62,2.09,23,3,26.66l-1.57,3.76c-.39,9.65,13.83,14.92,20.35,11.16,10.22-16.34,15.4-25.2,13.39-35.48Z" style="fill:#263238"></path><path d="M270.85,281.08l6.29-12.52c-5.26-1.57-9.27-7.84-9.27-7.84.81,5.33,5.89,8.71,5.89,8.71A18.58,18.58,0,0,0,270.85,281.08Z" style="opacity:0.30000000000000004"></path><path d="M289,294.08c-1.34-6-10.45-12.53-18.22-10.44l-7.26,16.05a25.37,25.37,0,0,0-2.18,8.56L258.45,347a37.81,37.81,0,0,1-1.46,8l-.09.3L267,358h0a37.54,37.54,0,0,1,2.48-13.09l7.72-20.14a30.9,30.9,0,0,0,2-12.3l-.12-3.17Z" style="fill:#ffa8a7"></path><path d="M251.22,375a11.12,11.12,0,0,0,7.65-3.39c1.47-1.54,2.45-3.48,4-4.93,1.81-1.7,3.81-2.4,5.85-3.84a2.27,2.27,0,0,0,.77-1,2.12,2.12,0,0,0,0-.44,3.86,3.86,0,0,0-.41-1.46h0a2.23,2.23,0,0,1-.9,1.45c-2,1.45-4.39,2.47-6.16,4.17-1.52,1.45-2.48,3.4-3.91,4.93a10.74,10.74,0,0,1-7.48,3.39c-2.8.08-7.66-.94-7.66-3a2.53,2.53,0,0,0,.29,1.9C245,374.52,249.12,375,251.22,375Z" style="fill:#ebebeb"></path><path d="M268.72,362.8c-2,1.44-4,2.14-5.85,3.84-1.55,1.45-2.53,3.39-4,4.93a11.12,11.12,0,0,1-7.65,3.39c-2.1.06-6.19-.44-7.94-2.15,1.31,2.18,5.95,2.78,8.2,2.71a10.73,10.73,0,0,0,7.48-3.38c1.43-1.54,2.39-3.48,3.91-4.94,1.77-1.69,3.72-2.39,5.72-3.84a2.2,2.2,0,0,0,.9-1.53A2.27,2.27,0,0,1,268.72,362.8Z" style="fill:#455a64"></path><path d="M268.24,355.89a2.92,2.92,0,0,1-.23-1.57s.15-1.59.25-2.1c.19-1-.58-1.05-.58-1.05s-.15.79-.28,1.72a1.94,1.94,0,0,0-.85,1.22,7.27,7.27,0,0,1-.45,1.46,1.29,1.29,0,0,1-1.22.76c-.55-.08-.89-.64-1.35-1a1.91,1.91,0,0,0-1.84-.08,1.48,1.48,0,0,0-.53-1.83,4.45,4.45,0,0,0-2-.67,5.45,5.45,0,0,0-1.45-.1,1.75,1.75,0,0,0-1.25.65,1.08,1.08,0,0,0,0,1.34c-2.09,1.28-2.88,7.13-6.81,10.06s-6.72,3.58-6.72,6.17c0,2,4.86,3,7.66,3a10.74,10.74,0,0,0,7.48-3.39c1.43-1.53,2.39-3.48,3.91-4.93,1.77-1.7,4.16-2.72,6.16-4.17a2.37,2.37,0,0,0,.94-2A10.09,10.09,0,0,0,268.24,355.89Z" style="fill:#407BFF"></path><path d="M243.66,370.11l1.81.66a.68.68,0,0,1,.45.57c.23,2,.53,2.63,1.45,3.49a7.89,7.89,0,0,1-3.17-1.05,2.61,2.61,0,0,1-1-3.48A.38.38,0,0,1,243.66,370.11Z" style="fill:#455a64"></path><path d="M260.51,357.46a.49.49,0,0,1-.38-.18,4,4,0,0,0-2.21-1.29,3.92,3.92,0,0,0-2.54.35.5.5,0,0,1-.45-.9,4.94,4.94,0,0,1,6,1.19.5.5,0,0,1-.05.7A.5.5,0,0,1,260.51,357.46Z" style="fill:#37474f"></path><path d="M259.09,360.52a.51.51,0,0,1-.36-.15,5.17,5.17,0,0,0-4.88-1.39.5.5,0,0,1-.61-.37.49.49,0,0,1,.36-.6,6.21,6.21,0,0,1,5.85,1.66.5.5,0,0,1-.36.85Z" style="fill:#37474f"></path><path d="M256.91,363.19a.53.53,0,0,1-.4-.19,4.2,4.2,0,0,0-3.89-1.5.5.5,0,0,1-.16-1,5.19,5.19,0,0,1,4.84,1.86.5.5,0,0,1-.39.82Z" style="fill:#37474f"></path><path d="M254.73,365.46a.48.48,0,0,1-.37-.17,4.17,4.17,0,0,0-3.54-1.3.52.52,0,0,1-.56-.44.5.5,0,0,1,.44-.56,5.15,5.15,0,0,1,4.4,1.63.51.51,0,0,1-.37.84Z" style="fill:#37474f"></path><path d="M293.5,207.13a115.8,115.8,0,0,0-16.45-.12,16.67,16.67,0,0,0-7.09,1.7,12.51,12.51,0,0,0-5.52,8,37.08,37.08,0,0,0-.62,9.93c.29,10.86,1.1,20.13,2.27,30.93,10.79,6.23,25,9.18,37,5.76.17-14-.52-28.81-3.34-42.53C298.75,215.84,297.3,210.48,293.5,207.13Z" style="fill:#455a64"></path><path d="M293.5,207.13a115.8,115.8,0,0,0-16.45-.12,16.67,16.67,0,0,0-7.09,1.7,12.51,12.51,0,0,0-5.52,8,37.08,37.08,0,0,0-.62,9.93c.29,10.86,1.1,20.13,2.27,30.93,10.79,6.23,25,9.18,37,5.76.17-14-.52-28.81-3.34-42.53C298.75,215.84,297.3,210.48,293.5,207.13Z" style="fill:#fff;opacity:0.30000000000000004"></path><path d="M326.11,235a9,9,0,0,0-3.32-7.84l-19.9-16.07a18.58,18.58,0,0,0-9.39-4l-1.95-.15c-1.78,1.65-2.56,13.4,5.46,18.17l17.3,10.1-.17,22.23-5.92,6.76a1,1,0,0,0,.34,1.59,2,2,0,0,0,2.11-.26l1.92-1.57c-1.19,2.24-2.23,4.79-3.42,7a2.43,2.43,0,0,0-.42,1.48,1.52,1.52,0,0,0,.76,1.06,3.15,3.15,0,0,0,1.27.4,8,8,0,0,0,4.55-.81,11.28,11.28,0,0,0,3.63-2.92,14.3,14.3,0,0,0,3.26-8.08A251.51,251.51,0,0,0,326.11,235Z" style="fill:#ffa8a7"></path><path d="M273.47,202.88v1.8a13.23,13.23,0,0,1-.72,3.87,2.49,2.49,0,0,0,0,1.62,3.18,3.18,0,0,0,2.07,1.83,6.15,6.15,0,0,0,2.8.09,12,12,0,0,0,7.12-4.05l-.41-12.31Z" style="fill:#ffa8a7"></path><path d="M282.15,201.08a13.32,13.32,0,0,0,1.66-5l-10.34,6.79v1.8a10.3,10.3,0,0,1-.15,1.57,17.84,17.84,0,0,0,4.23-1.29A10.49,10.49,0,0,0,282.15,201.08Z" style="opacity:0.2"></path><path d="M262,182.91a6.46,6.46,0,0,1-5.84-3.29.88.88,0,0,1,1-1.27,7.07,7.07,0,0,0,2.47,0,11.65,11.65,0,0,1-2.3-8.71,1.1,1.1,0,0,1,1.57-.82,21.62,21.62,0,0,0,10.94,2.21c2-.14,4-.57,6-.72a11,11,0,0,1,5.9.9A5.61,5.61,0,0,1,285,176a2.76,2.76,0,0,1,2-1.16,3.06,3.06,0,0,1,2.33.69l-3.46,1.92a3,3,0,0,1,3.28,1.62,7.88,7.88,0,0,1,.64,3.7,30.17,30.17,0,0,1-.22,5,9.77,9.77,0,0,1-1.91,4.61,7.31,7.31,0,0,1-3.46,2.34,9.38,9.38,0,0,1-5.62-.18,22.42,22.42,0,0,1-5.09-2.54A79.84,79.84,0,0,1,262,182.91Z" style="fill:#263238"></path><path d="M261.78,179.56A38.67,38.67,0,0,0,264,200.22a7.33,7.33,0,0,0,2.81,3.88c1.48.85,3.32.67,5,.42a25.42,25.42,0,0,0,7.91-2.23,10.8,10.8,0,0,0,5.48-5.9,4.73,4.73,0,0,0,4.79-1.88,8.93,8.93,0,0,0,1.56-5.24c0-1.18-.22-2.58-1.28-3.1a3,3,0,0,0-3,.75,9.09,9.09,0,0,0-3,4.44c-.78-2.89-2-5.68-2.78-8.56a4.86,4.86,0,0,0-1.68-3c-1.21-.78-2.79-.33-4.19,0A27.5,27.5,0,0,1,261.78,179.56Z" style="fill:#ffa8a7"></path><polygon points="270.19 188.32 266.82 194.01 270.84 194.76 270.19 188.32" style="fill:#f28f8f"></polygon><path d="M274.72,196.72l-3.06,1.49a2,2,0,0,0,2.32.66A1.79,1.79,0,0,0,274.72,196.72Z" style="fill:#f28f8f"></path><path d="M274.72,196.72l-3.06,1.49a2,2,0,0,0,2.32.66A1.79,1.79,0,0,0,274.72,196.72Z" style="opacity:0.30000000000000004"></path><path d="M272.92,199a1.88,1.88,0,0,0,1.06-.1,1.63,1.63,0,0,0,.82-1.61,1.87,1.87,0,0,0-1.2.42A1.89,1.89,0,0,0,272.92,199Z" style="fill:#f28f8f"></path><path d="M276,188.55a1.16,1.16,0,1,1-1.26-1A1.14,1.14,0,0,1,276,188.55Z" style="fill:#263238"></path><path d="M266.33,189.15a1.16,1.16,0,1,1-2.3.23,1.16,1.16,0,0,1,2.3-.23Z" style="fill:#263238"></path><path d="M264.75,184.69l-2.38,2a1.66,1.66,0,0,1,.32-1.86A1.94,1.94,0,0,1,264.75,184.69Z" style="fill:#263238"></path><path d="M274.58,183.55l2.73,1.51a1.64,1.64,0,0,0-.68-1.75A2,2,0,0,0,274.58,183.55Z" style="fill:#263238"></path><path d="M275.34,251.08c0-.28,0-.55-.07-.82a12.1,12.1,0,0,0-8.65-9.89l-14.88-9-10-5-4.12,3.25a6,6,0,0,0-2,2.81h0a6,6,0,0,0,3.68,7.51l24,8.46a10.52,10.52,0,0,1,2.84,6,9.77,9.77,0,0,0,.39,1.95,3.82,3.82,0,0,0,4,2.23,5.26,5.26,0,0,0,3.85-2.73A8.61,8.61,0,0,0,275.34,251.08Z" style="fill:#ffa8a7"></path><path d="M267.32,240.37v-1.45h-1.06v.53L264,238.13a1.54,1.54,0,0,0-1.55,0l-3.77,2.18v-.63l-1,.09v1.43a.51.51,0,0,0,.26.44l3.1,1.8a1.58,1.58,0,0,0,1.55,0l4.55-2.63a.49.49,0,0,0,.25-.42h0Z" style="fill:#407BFF"></path><path d="M262.41,236.94l-3.85,2.23a.43.43,0,0,0,0,.76l2.64,1.52a1.3,1.3,0,0,0,1.32,0l3.86-2.23a.44.44,0,0,0,0-.76l-2.65-1.52A1.3,1.3,0,0,0,262.41,236.94Z" style="fill:#407BFF"></path><path d="M267.32,240.37v-1.45h-1.06v.53L264,238.13a1.54,1.54,0,0,0-1.55,0l-3.77,2.18v-.63l-1,.09v1.43a.51.51,0,0,0,.26.44l3.1,1.8a1.58,1.58,0,0,0,1.55,0l4.55-2.63a.49.49,0,0,0,.25-.42h0Z" style="opacity:0.30000000000000004"></path><path d="M262.4,236.7l-4.53,2.62a.51.51,0,0,0,0,.89L261,242a1.58,1.58,0,0,0,1.55,0l4.55-2.63a.52.52,0,0,0,0-.89L264,236.7A1.54,1.54,0,0,0,262.4,236.7Z" style="fill:#407BFF"></path><path d="M262.41,236.94l-3.85,2.23a.43.43,0,0,0,0,.76l2.64,1.52a1.3,1.3,0,0,0,1.32,0l3.86-2.23a.44.44,0,0,0,0-.76l-2.65-1.52A1.3,1.3,0,0,0,262.41,236.94Z" style="fill:#fff;opacity:0.5"></path><path d="M260.7,247.46c-.61-.57-.94-3.68.27-4.69l-3.1-1.79c-1,1.27-.75,4-.19,5.38a1.18,1.18,0,0,0,.73.67c.6.2,1.61.55,2,.68a.86.86,0,0,0,.73-.07Z" style="fill:#455a64"></path></g></svg>