<?xml version="1.0" encoding="utf-8"?>
<!-- Generator: Adobe Illustrator 27.5.0, SVG Export Plug-In . SVG Version: 6.00 Build 0)  -->
<svg version="1.1" xmlns="http://www.w3.org/2000/svg" xmlns:xlink="http://www.w3.org/1999/xlink" x="0px" y="0px"
	 viewBox="0 0 500 500" style="enable-background:new 0 0 500 500;" xml:space="preserve">
<g id="Background_Complete">
	<g>
		<rect y="382.398" style="fill:#EBEBEB;" width="500" height="0.25"/>
		<rect x="416.779" y="398.494" style="fill:#EBEBEB;" width="33.122" height="0.25"/>
		<rect x="322.527" y="401.208" style="fill:#EBEBEB;" width="8.693" height="0.25"/>
		<rect x="396.586" y="389.208" style="fill:#EBEBEB;" width="19.192" height="0.25"/>
		<rect x="52.459" y="390.888" style="fill:#EBEBEB;" width="43.193" height="0.25"/>
		<rect x="104.556" y="390.888" style="fill:#EBEBEB;" width="6.333" height="0.25"/>
		<rect x="131.471" y="395.111" style="fill:#EBEBEB;" width="93.676" height="0.25"/>
		<path style="fill:#EBEBEB;" d="M237.014,337.8H43.915c-3.147,0-5.708-2.561-5.708-5.708V60.66c0-3.147,2.561-5.708,5.708-5.708
			h193.099c3.146,0,5.707,2.561,5.707,5.708v271.432C242.721,335.239,240.16,337.8,237.014,337.8z M43.915,55.203
			c-3.01,0-5.458,2.448-5.458,5.458v271.432c0,3.01,2.448,5.458,5.458,5.458h193.099c3.009,0,5.457-2.448,5.457-5.458V60.66
			c0-3.009-2.448-5.458-5.457-5.458H43.915z"/>
		<path style="fill:#EBEBEB;" d="M453.31,337.8H260.212c-3.147,0-5.707-2.561-5.707-5.708V60.66c0-3.147,2.561-5.708,5.707-5.708
			H453.31c3.148,0,5.708,2.561,5.708,5.708v271.432C459.019,335.239,456.458,337.8,453.31,337.8z M260.212,55.203
			c-3.009,0-5.457,2.448-5.457,5.458v271.432c0,3.01,2.448,5.458,5.457,5.458H453.31c3.01,0,5.458-2.448,5.458-5.458V60.66
			c0-3.009-2.448-5.458-5.458-5.458H260.212z"/>
	</g>
	<g>
		<g>
			<rect x="70.36" y="140.72" style="fill:#F0F0F0;" width="359.28" height="174.32"/>
			<g>
				<path style="fill:#E0E0E0;enable-background:new    ;" d="M362.702,287.71c-0.42-0.05-2.03-0.24-2.46-0.3
					c-0.17-0.02-0.34-0.03-0.52-0.03c-1.61,0.01-3.12,0.99-4.12,2.52c-1.28-0.46-2.31-0.76-2.31-0.76
					c-0.73-1.65-2.06-2.83-3.71-3.03c-0.42-0.05-2.03-0.25-2.46-0.3c-2.63-0.32-5.09,1.97-5.72,5.19c-2.84-1.18-5.9-2.25-8.38-2.65
					l0.94-3.23c0,0,1.52-2.65,0.49-5.08c-1.03-2.43-1.24-5.43-1.24-5.43s2.56-3.92,1.41-7.4c-1.15-3.49-7.52-4.32-7.52-4.32
					s-0.73-0.63-2.11-1.63c-0.02-0.02-0.05-0.04-0.08-0.06c0.07-0.28,0.11-0.45,0.11-0.45l-2.36-1.55c0,0-0.03,0.14-0.09,0.38
					c-1.76-1.17-3.99-2.54-6.66-3.96c-0.45-0.57-0.77-1.13-0.54-1.52c0.24-0.4,0.51-0.81,0.79-1.21c0.14-0.19,0.29-0.39,0.43-0.58
					c0.14,0.04,0.27,0.08,0.41,0.11c1.97,0.35,4.11-0.03,5.94-1.22c0.24-0.15,0.47-0.33,0.7-0.51c0.66-0.53,1.32-1.16,1.95-1.86
					c1.49-1.62,2.87-3.64,3.76-5.77c0.02,0,0.04,0.02,0.06,0.01c0.05,0.01,0.11,0,0.16-0.03c0.12-0.1,0.13-0.28,0.03-0.39
					c0-0.01,0-0.01,0-0.01c-0.02-0.02-0.05-0.03-0.06-0.06c0.25-0.68,0.46-1.37,0.6-2.06c0.39-1.1,0.64-2.15,0.79-2.93
					c2-1.12,3.63-6.35,2.12-8.83c-1.59-2.64-7.29-4.45-7.82-4.62c0.31,0.15,2.32,1.13,3.22,2.12c-0.29-0.14-4.87-2.39-7.92-2.47
					c-3.14-0.08-7.55,3.67-8.48,7.69l0.82-1.24c0,0-1.07,2.59-1.24,4.65c-0.43,0.39-0.76,0.93-0.9,1.58
					c-0.23,1.17-0.06,2.36,0.43,3.42c-0.32,1.72-0.4,3.03-0.4,3.88c-0.03,0.33-0.04,0.67-0.04,1.02c-0.74,2.04-1.78,4.52-2.78,5.64
					c-0.33,0.37-1.01,0.72-1.76,1.01c-0.49-0.15-0.98-0.3-1.45-0.43c-0.01,0-0.03-0.01-0.04-0.01c-2-0.55-3.91-0.94-5.62-1.21
					c0.01-0.24,0.02-0.38,0.02-0.38l-3.85-0.3c0,0,0,0.07,0,0.2c-0.45-0.04-0.85-0.08-1.22-0.1c-1.85-0.76-4.68-1.52-6.98-0.31
					c-3.75,1.98-6.46,9.9-6.46,9.9s-5.91,13.02-7.36,15.13c-1.46,2.1-3.51,24.99-3.51,24.99s-0.44,0.68-1.05,1.66
					c-0.13-0.08-0.27-0.15-0.41-0.2c-0.31-0.13-0.64-0.23-0.99-0.28c-0.42-0.06-2.03-0.28-2.45-0.34c-2.78-0.4-5.43,2.13-5.93,5.63
					c-0.49,3.51,1.35,6.67,4.13,7.06c0.42,0.06,2.02,0.29,2.45,0.35c0.17,0.02,0.35,0.04,0.52,0.04c1.61,0.02,3.14-0.93,4.17-2.44
					c1.27,0.49,2.29,0.81,2.29,0.81c0.7,1.66,2.01,2.86,3.65,3.1c0.43,0.06,2.03,0.29,2.46,0.35c0.17,0.02,0.34,0.03,0.51,0.04
					c2.58,0.03,4.94-2.39,5.41-5.68c0.5-3.51-1.35-6.67-4.12-7.06c-0.43-0.06-2.03-0.29-2.46-0.35c-1.11-0.16-2.2,0.16-3.14,0.81
					c-0.17-1.1-0.29-2.7-0.36-3.78c1.52-3.39,5.92-13.97,4.9-20.62c-0.2-1.33,4.56-1.71,9.55-8.55c-0.25,2.92-0.27,3.99-0.38,6.81
					c-0.21,4.72-0.25,9.03-0.23,12.45c-0.49,0.3-0.81,0.41-0.81,0.41l0.97,7.35v0.02c-0.01,0.04-1.67,9.05-1.81,18.53h74.22
					c-5-2.11-14.73-3.93-18.29-4.55c-0.13-0.56-0.23-0.86-0.23-0.86l-19.92-3.13l-1.71-8.13l0.71-5.26
					c-0.08-0.16-0.15-0.34-0.22-0.53c0.35-3.18,0.8-6.3,1.31-9.27c0.38,1.8,0.83,3.56,1.35,5.19c1.34,4.3,3.09,7.63,5.03,7.92
					c2.51,0.38,9.97,1.12,15.24,1.63c0.46,0.25,0.96,0.42,1.5,0.49c0.43,0.05,2.04,0.25,2.46,0.3c0,0,7.71,1.01,8.9,1.01
					c0.1,0,0.22-0.06,0.34-0.16c0.44,0.23,0.92,0.39,1.42,0.45c0.43,0.05,2.04,0.25,2.46,0.3c2.78,0.34,5.38-2.23,5.81-5.75
					C367.392,291.18,365.482,288.05,362.702,287.71z"/>
				<path style="fill:#E0E0E0;enable-background:new    ;" d="M192.932,294.22h-1.76c-2.35,0-4.5,1.03-6.22,2.73v-9.63
					c1.35,1.61,3.17,2.6,5.18,2.6h1.32c4.18,0,7.56-4.28,7.56-9.56c0-5.28-3.38-9.56-7.56-9.56h-1.32c-2.15,0-4.09,1.14-5.46,2.96
					h-4.01v5.18h-5.28c-0.04-0.16-0.07-0.29-0.11-0.33c-0.85-0.94-4.93-0.78-4.93-0.78s-7.99,0.54-9.52,0.36
					c-1.53-0.18-3.09,0.75-3.09,0.75h-6.93c-0.55-4.6-3.68-8.14-7.47-8.14h-1.32c-4.18,0-7.57,4.28-7.57,9.56
					c0,5.28,3.39,9.56,7.57,9.56h1.32c0.14,0,0.27-0.01,0.41-0.02v4.32h-0.69c-5.57,0-10.08,5.71-10.08,12.75
					c0,3.06,0.85,5.87,2.28,8.07h17.36c1.21-1.85,2-4.14,2.22-6.65h0.95c0.05,3.48,0.17,6.02,0.33,6.65
					c0.02,0.1,0.05,0.15,0.07,0.16c0.16,0.05,0.31-0.02,0.46-0.16c0.47-0.42,1-1.42,2.37-0.82c0.45,0.2,0.82,0.26,1.19,0.25
					c0,0.19,0.01,0.38,0.01,0.57h15.78c0.1-1.59,0.16-3.92,0.19-6.65h4.48v6.65h20.09c1.42-2.2,2.27-5.01,2.27-8.07
					C203.022,299.93,198.512,294.22,192.932,294.22z M155.752,305.54h-0.92c-0.43-4.98-3.15-9.09-6.8-10.65v-7.04
					c1.46-1.48,2.48-3.62,2.77-6.06h6.01C155.992,286.87,155.722,297.61,155.752,305.54z M180.662,305.54h-4.47
					c0.02-8.22-0.2-18.61-0.53-23.75h5V305.54z"/>
			</g>
			<g>
				<polygon style="fill:#F5F5F5;" points="147.63,140.72 70.36,314.11 70.36,259.61 123.34,140.72 				"/>
				<polygon style="fill:#F5F5F5;" points="429.64,217.28 429.64,271.78 410.36,315.04 386.08,315.04 				"/>
				<polygon style="fill:#F5F5F5;" points="178.93,140.72 101.25,315.04 89.11,315.04 166.78,140.72 				"/>
				<polygon style="fill:#F5F5F5;" points="394.09,140.72 316.42,315.04 304.28,315.04 381.95,140.72 				"/>
				<polygon style="fill:#F5F5F5;" points="338.99,140.72 261.31,315.04 257.11,315.04 334.79,140.72 				"/>
			</g>
			<g>
				
					<line style="fill:none;stroke:#E0E0E0;stroke-width:1.8195;stroke-miterlimit:10;enable-background:new    ;" x1="189.959" y1="140.72" x2="189.959" y2="315.043"/>
				
					<line style="fill:none;stroke:#E0E0E0;stroke-width:1.8195;stroke-miterlimit:10;enable-background:new    ;" x1="310.035" y1="140.72" x2="310.035" y2="315.043"/>
			</g>
		</g>
		<g>
			
				<ellipse transform="matrix(0.3827 -0.9239 0.9239 0.3827 55.7152 296.8615)" style="fill:#E0E0E0;" cx="250" cy="106.739" rx="22.212" ry="22.212"/>
			
				<ellipse transform="matrix(0.9571 -0.2898 0.2898 0.9571 -20.2042 77.0258)" style="fill:#F0F0F0;" cx="250" cy="106.739" rx="18.886" ry="18.886"/>
			
				<polyline style="fill:#F0F0F0;stroke:#E0E0E0;stroke-width:1.8861;stroke-linecap:round;stroke-linejoin:round;stroke-miterlimit:10;" points="
				256.462,94.942 250.891,106.985 250.891,98.486 			"/>
		</g>
	</g>
</g>
<g id="Background_Simple" style="display:none;">
	<g style="display:inline;">
		<path style="fill:#407BFF;" d="M299.913,203.27c-66.385-15.904-86.243-155.34-187.066-76.274
			c-71.529,56.093-32.243,187.227,56.067,169.485c53.451-10.739,45.267-11.477,89.657,12.487
			c44.984,24.285,94.93,35.744,144.964-10.75c25.893-24.061,37.357-81.328,13.618-110.177
			C387.465,151.962,340.467,212.986,299.913,203.27z"/>
		<path style="opacity:0.9;fill:#FFFFFF;" d="M299.913,203.27c-66.385-15.904-86.243-155.34-187.066-76.274
			c-71.529,56.093-32.243,187.227,56.067,169.485c53.451-10.739,45.267-11.477,89.657,12.487
			c44.984,24.285,94.93,35.744,144.964-10.75c25.893-24.061,37.357-81.328,13.618-110.177
			C387.465,151.962,340.467,212.986,299.913,203.27z"/>
	</g>
</g>
<g id="Shadow_1_">
	<ellipse id="_x3C_Path_x3E__359_" style="fill:#F5F5F5;" cx="250" cy="416.238" rx="193.889" ry="11.323"/>
</g>
<g id="Bottle">
	<g>
		<g>
			<path style="fill:#263238;" d="M403.709,400.243c0.518,0,2.482,0,3,0c3.391,0,6.14,3.474,6.14,7.76c0,4.286-2.749,7.76-6.14,7.76
				c-0.518,0-2.482,0-3,0c-3.391,0-6.14-3.474-6.14-7.76C397.569,403.717,400.318,400.243,403.709,400.243z"/>
			<path style="opacity:0.1;fill:#FFFFFF;enable-background:new    ;" d="M403.709,400.243c0.518,0,2.482,0,3,0
				c3.391,0,6.14,3.474,6.14,7.76c0,4.286-2.749,7.76-6.14,7.76c-0.518,0-2.482,0-3,0c-3.391,0-6.14-3.474-6.14-7.76
				C397.569,403.717,400.318,400.243,403.709,400.243z"/>
			<path style="opacity:0.2;fill:#FFFFFF;enable-background:new    ;" d="M397.569,408.004c0,4.286,2.749,7.76,6.14,7.76
				c3.391,0,6.14-3.474,6.14-7.76c0-4.286-2.749-7.76-6.14-7.76C400.318,400.243,397.569,403.718,397.569,408.004z"/>
		</g>
		<g>
			<path style="fill:#263238;" d="M391.449,404.988c0.201,0,10.964,0,11.166,0c1.318,0,2.386,1.35,2.386,3.015
				c0,1.665-1.068,3.015-2.386,3.015c-0.201,0-10.964,0-11.166,0c-1.318,0-2.386-1.35-2.386-3.015
				C389.064,406.338,390.132,404.988,391.449,404.988z"/>
		</g>
		<g>
			<path style="fill:#263238;" d="M387.709,400.243c0.518,0,2.482,0,3,0c3.391,0,6.14,3.474,6.14,7.76c0,4.286-2.749,7.76-6.14,7.76
				c-0.518,0-2.482,0-3,0c-3.391,0-6.14-3.474-6.14-7.76C381.569,403.717,384.318,400.243,387.709,400.243z"/>
			<path style="opacity:0.1;fill:#FFFFFF;enable-background:new    ;" d="M387.709,400.243c0.518,0,2.482,0,3,0
				c3.391,0,6.14,3.474,6.14,7.76c0,4.286-2.749,7.76-6.14,7.76c-0.518,0-2.482,0-3,0c-3.391,0-6.14-3.474-6.14-7.76
				C381.569,403.717,384.318,400.243,387.709,400.243z"/>
			<path style="opacity:0.2;fill:#FFFFFF;enable-background:new    ;" d="M381.569,408.004c0,4.286,2.749,7.76,6.14,7.76
				c3.391,0,6.14-3.474,6.14-7.76c0-4.286-2.749-7.76-6.14-7.76C384.318,400.243,381.569,403.718,381.569,408.004z"/>
		</g>
	</g>
	<g>
		<path style="fill:#263238;" d="M382.957,378.476c-0.878,0-1.66-0.553-1.952-1.381c-0.15-0.424-0.551-0.708-1.001-0.708l0,0
			c-0.45,0-0.851,0.284-1,0.708c-0.292,0.828-1.074,1.381-1.952,1.381h-0.081v4.593h6.067v-4.593H382.957z M380.004,378.273
			c-0.369,0-0.668-0.299-0.668-0.668c0-0.369,0.299-0.668,0.668-0.668c0.369,0,0.668,0.299,0.668,0.668
			C380.672,377.974,380.373,378.273,380.004,378.273z"/>
		<path style="fill:#407BFF;" d="M385.578,392.045v-7.832c0-0.864-0.7-1.564-1.564-1.564h-8.02c-0.864,0-1.564,0.7-1.564,1.564
			v7.832c0,0.442,0.359,0.801,0.801,0.801h9.546C385.22,392.846,385.578,392.487,385.578,392.045z"/>
		<path style="fill:#407BFF;" d="M374.43,396.417V414.2c0,0.864,0.7,1.564,1.564,1.564h8.02c0.864,0,1.564-0.7,1.564-1.564v-17.783
			c0-0.443-0.359-0.801-0.801-0.801h-9.546C374.789,395.615,374.43,395.974,374.43,396.417z"/>
		<rect x="375.356" y="391.659" style="fill:#407BFF;" width="9.297" height="4.78"/>
	</g>
	<g>
		<g>
			<path style="fill:#263238;" d="M363.729,415.764c-0.344,0-1.647,0-1.991,0c-2.251,0-4.076-2.306-4.076-5.151
				s1.825-5.151,4.076-5.151c0.344,0,1.647,0,1.991,0c2.251,0,4.076,2.306,4.076,5.151S365.98,415.764,363.729,415.764z"/>
			<path style="opacity:0.1;fill:#FFFFFF;enable-background:new    ;" d="M363.729,415.764c-0.344,0-1.647,0-1.991,0
				c-2.251,0-4.076-2.306-4.076-5.151s1.825-5.151,4.076-5.151c0.344,0,1.647,0,1.991,0c2.251,0,4.076,2.306,4.076,5.151
				S365.98,415.764,363.729,415.764z"/>
			<ellipse style="opacity:0.2;fill:#FFFFFF;enable-background:new    ;" cx="363.729" cy="410.612" rx="4.076" ry="5.151"/>
		</g>
		<g>
			<path style="fill:#263238;" d="M371.867,412.614c-0.134,0-7.278,0-7.412,0c-0.874,0-1.584-0.896-1.584-2.002
				c0-1.105,0.709-2.001,1.584-2.001c0.134,0,7.278,0,7.412,0c0.875,0,1.584,0.896,1.584,2.001
				C373.451,411.718,372.742,412.614,371.867,412.614z"/>
		</g>
		<g>
			<path style="fill:#263238;" d="M374.35,415.764c-0.344,0-1.647,0-1.991,0c-2.251,0-4.076-2.306-4.076-5.151
				s1.825-5.151,4.076-5.151c0.344,0,1.647,0,1.991,0c2.251,0,4.076,2.306,4.076,5.151S376.601,415.764,374.35,415.764z"/>
			<path style="opacity:0.1;fill:#FFFFFF;enable-background:new    ;" d="M374.35,415.764c-0.344,0-1.647,0-1.991,0
				c-2.251,0-4.076-2.306-4.076-5.151s1.825-5.151,4.076-5.151c0.344,0,1.647,0,1.991,0c2.251,0,4.076,2.306,4.076,5.151
				S376.601,415.764,374.35,415.764z"/>
			<ellipse style="opacity:0.2;fill:#FFFFFF;enable-background:new    ;" cx="374.35" cy="410.612" rx="4.076" ry="5.151"/>
		</g>
	</g>
</g>
<g id="Barbells">
	<g>
		<path style="fill:#407BFF;" d="M96.937,295.354c-2.728,1.756-2.596,41.946-1.805,42.196c0.791,0.25,1.187-2.066,3.297-1.143
			c2.11,0.923,2.769-0.659,7.78-0.659s4.483,3.824,5.011,0c0.527-3.824,0-38.765,0-38.765L96.937,295.354z"/>
		<path style="opacity:0.3;fill:#FFFFFF;enable-background:new    ;" d="M96.937,295.354c-2.728,1.756-2.596,41.946-1.805,42.196
			c0.791,0.25,1.187-2.066,3.297-1.143c2.11,0.923,2.769-0.659,7.78-0.659s4.483,3.824,5.011,0c0.527-3.824,0-38.765,0-38.765
			L96.937,295.354z"/>
		<g>
			<g>
				<path style="fill:#263238;" d="M135.852,313.135c0.991,0,1.058,0,2.049,0c6.481,0,11.736,6.641,11.736,14.833
					c0,8.192-5.255,14.833-11.736,14.833c-0.991,0-1.058,0-2.049,0c-6.482,0-11.737-6.641-11.737-14.833
					C124.115,319.776,129.369,313.135,135.852,313.135z"/>
				<path style="opacity:0.2;fill:#FFFFFF;enable-background:new    ;" d="M124.115,327.968c0,8.192,5.255,14.833,11.736,14.833
					c6.482,0,11.736-6.641,11.736-14.833s-5.255-14.833-11.736-14.833C129.37,313.135,124.115,319.776,124.115,327.968z"/>
			</g>
			<g>
				<path style="fill:#263238;" d="M133.901,316.98c0.734,0,0.784,0,1.518,0c4.801,0,8.694,4.919,8.694,10.988
					c0,6.068-3.893,10.988-8.694,10.988c-0.734,0-0.784,0-1.518,0c-4.802,0-8.694-4.919-8.694-10.988
					C125.207,321.899,129.099,316.98,133.901,316.98z"/>
				<path style="opacity:0.1;fill:#FFFFFF;enable-background:new    ;" d="M125.207,327.968c0,6.068,3.892,10.988,8.694,10.988
					c4.801,0,8.694-4.919,8.694-10.988s-3.892-10.988-8.694-10.988C129.1,316.98,125.207,321.899,125.207,327.968z"/>
			</g>
			<g>
				<path style="fill:#263238;" d="M131.953,324.599c0.225,0,0.24,0,0.465,0c1.472,0,2.665,1.508,2.665,3.369
					c0,1.86-1.193,3.368-2.665,3.368c-0.225,0-0.24,0-0.465,0c-1.472,0-2.665-1.508-2.665-3.368
					C129.287,326.107,130.481,324.599,131.953,324.599z"/>
				<path style="opacity:0.2;fill:#FFFFFF;enable-background:new    ;" d="M129.287,327.968c0,1.86,1.193,3.368,2.665,3.368
					s2.665-1.508,2.665-3.368c0-1.86-1.193-3.369-2.665-3.369S129.287,326.107,129.287,327.968z"/>
			</g>
		</g>
		<g>
			<g>
				<path style="fill:#263238;" d="M134.633,285.887c0.743,0,0.794,0,1.537,0c4.861,0,8.802,4.981,8.802,11.125
					c0,6.144-3.941,11.125-8.802,11.125c-0.743,0-0.794,0-1.537,0c-4.862,0-8.802-4.981-8.802-11.125
					C125.831,290.868,129.772,285.887,134.633,285.887z"/>
				<path style="opacity:0.2;fill:#FFFFFF;enable-background:new    ;" d="M125.831,297.012c0,6.144,3.941,11.125,8.802,11.125
					c4.861,0,8.802-4.981,8.802-11.125c0-6.144-3.941-11.125-8.802-11.125C129.772,285.887,125.831,290.868,125.831,297.012z"/>
			</g>
			<g>
				<path style="fill:#263238;" d="M133.171,288.771c0.55,0,0.588,0,1.138,0c3.601,0,6.521,3.69,6.521,8.241
					s-2.92,8.241-6.521,8.241c-0.55,0-0.588,0-1.138,0c-3.601,0-6.521-3.69-6.521-8.241S129.569,288.771,133.171,288.771z"/>
				<path style="opacity:0.1;fill:#FFFFFF;enable-background:new    ;" d="M126.65,297.012c0,4.551,2.919,8.241,6.521,8.241
					c3.601,0,6.521-3.69,6.521-8.241c0-4.551-2.919-8.241-6.521-8.241C129.57,288.771,126.65,292.461,126.65,297.012z"/>
			</g>
			<g>
				<path style="fill:#263238;" d="M131.709,294.486c0.169,0,0.18,0,0.349,0c1.104,0,1.999,1.131,1.999,2.526
					c0,1.395-0.895,2.526-1.999,2.526c-0.169,0-0.18,0-0.349,0c-1.104,0-1.999-1.131-1.999-2.526
					C129.71,295.617,130.605,294.486,131.709,294.486z"/>
				<path style="opacity:0.2;fill:#FFFFFF;enable-background:new    ;" d="M129.71,297.012c0,1.395,0.895,2.526,1.999,2.526
					c1.104,0,1.999-1.131,1.999-2.526c0-1.395-0.895-2.526-1.999-2.526C130.605,294.486,129.71,295.617,129.71,297.012z"/>
			</g>
		</g>
		<g>
			<g>
				<path style="fill:#263238;" d="M136.384,347.021c1.189,0,1.27,0,2.459,0c7.778,0,14.084,7.969,14.084,17.799
					c0,9.83-6.306,17.799-14.084,17.799c-1.189,0-1.27,0-2.459,0c-7.779,0-14.084-7.969-14.084-17.799
					C122.3,354.99,128.605,347.021,136.384,347.021z"/>
				<ellipse style="opacity:0.2;fill:#FFFFFF;enable-background:new    ;" cx="136.384" cy="364.82" rx="14.083" ry="17.799"/>
			</g>
			<g>
				<path style="fill:#263238;" d="M134.043,351.634c0.881,0,0.941,0,1.821,0c5.762,0,10.433,5.903,10.433,13.186
					c0,7.282-4.671,13.185-10.433,13.185c-0.881,0-0.941,0-1.821,0c-5.762,0-10.433-5.903-10.433-13.185
					C123.61,357.538,128.281,351.634,134.043,351.634z"/>
				<path style="opacity:0.1;fill:#FFFFFF;enable-background:new    ;" d="M123.61,364.82c0,7.282,4.671,13.185,10.433,13.185
					c5.762,0,10.433-5.903,10.433-13.185c0-7.282-4.671-13.186-10.433-13.186C128.281,351.634,123.61,357.538,123.61,364.82z"/>
			</g>
			<g>
				<path style="fill:#263238;" d="M131.705,360.778c0.27,0,0.288,0,0.558,0c1.766,0,3.199,1.81,3.199,4.042
					c0,2.233-1.432,4.042-3.199,4.042c-0.27,0-0.288,0-0.558,0c-1.766,0-3.198-1.81-3.198-4.042
					C128.507,362.587,129.939,360.778,131.705,360.778z"/>
				<path style="opacity:0.2;fill:#FFFFFF;enable-background:new    ;" d="M128.507,364.82c0,2.233,1.432,4.042,3.198,4.042
					s3.198-1.81,3.198-4.042c0-2.232-1.432-4.042-3.198-4.042S128.507,362.587,128.507,364.82z"/>
			</g>
		</g>
		<g>
			<g>
				<polygon style="fill:#263238;" points="81.46,410.188 83.62,410.492 85.46,410.188 99.702,412.188 99.702,414.262 
					95.702,414.262 73.328,414.262 69.328,414.262 69.328,412.188 				"/>
				<polygon style="opacity:0.2;fill:#FFFFFF;enable-background:new    ;" points="81.46,410.188 83.62,410.492 85.46,410.188 
					99.702,412.188 99.702,414.262 95.702,414.262 73.328,414.262 69.328,414.262 69.328,412.188 				"/>
				<polygon style="opacity:0.2;fill:#FFFFFF;enable-background:new    ;" points="83.616,410.489 95.706,412.189 95.706,414.259 
					99.706,414.259 99.706,412.189 85.456,410.189 				"/>
				
					<rect x="80.662" y="289.324" transform="matrix(-1 -1.224647e-16 1.224647e-16 -1 166.3136 699.7447)" style="fill:#263238;" width="4.99" height="121.096"/>
				
					<rect x="80.662" y="289.324" transform="matrix(-1 -1.224647e-16 1.224647e-16 -1 166.3136 699.7447)" style="opacity:0.2;fill:#FFFFFF;enable-background:new    ;" width="4.99" height="121.096"/>
				
					<rect x="83.157" y="289.324" transform="matrix(-1 -1.224647e-16 1.224647e-16 -1 168.8087 699.7447)" style="opacity:0.2;fill:#FFFFFF;enable-background:new    ;" width="2.495" height="121.096"/>
			</g>
			<g>
				<polygon style="fill:#263238;" points="124.419,410.188 126.579,410.492 128.419,410.188 142.661,412.188 142.661,414.262 
					138.661,414.262 116.287,414.262 112.287,414.262 112.287,412.188 				"/>
				<polygon style="opacity:0.2;fill:#FFFFFF;enable-background:new    ;" points="124.419,410.188 126.579,410.492 
					128.419,410.188 142.661,412.188 142.661,414.262 138.661,414.262 116.287,414.262 112.287,414.262 112.287,412.188 				"/>
				<polygon style="opacity:0.2;fill:#FFFFFF;enable-background:new    ;" points="126.575,410.489 138.665,412.189 
					138.665,414.259 142.665,414.259 142.665,412.189 128.415,410.189 				"/>
				
					<rect x="123.621" y="289.324" transform="matrix(-1 -1.224647e-16 1.224647e-16 -1 252.2317 699.7447)" style="fill:#263238;" width="4.99" height="121.096"/>
				
					<rect x="123.621" y="289.324" transform="matrix(-1 -1.224647e-16 1.224647e-16 -1 252.2317 699.7447)" style="opacity:0.2;fill:#FFFFFF;enable-background:new    ;" width="4.99" height="121.096"/>
				
					<rect x="126.116" y="289.324" transform="matrix(-1 -1.224647e-16 1.224647e-16 -1 254.7267 699.7447)" style="opacity:0.2;fill:#FFFFFF;enable-background:new    ;" width="2.495" height="121.096"/>
			</g>
		</g>
		<g>
			<path style="fill:#263238;" d="M85.701,364.82c0,0.457,0.133,0.877,0.351,1.172c0.186,0.258,0.425,0.427,0.696,0.472
				c0.048,0.007,0.096,0.015,0.149,0.015h44.349c0.658,0,1.19-0.737,1.19-1.658c0-0.457-0.133-0.87-0.35-1.172
				c-0.212-0.302-0.51-0.486-0.839-0.486H86.896c-0.053,0-0.101,0.007-0.149,0.015C86.158,363.28,85.701,363.98,85.701,364.82z"/>
			<path style="opacity:0.5;fill:#FFFFFF;" d="M85.701,364.82c0,0.457,0.133,0.877,0.351,1.172c0.186,0.258,0.425,0.427,0.696,0.472
				c0.048,0.007,0.096,0.015,0.149,0.015h44.349c0.658,0,1.19-0.737,1.19-1.658c0-0.457-0.133-0.87-0.35-1.172
				c-0.212-0.302-0.51-0.486-0.839-0.486H86.896c-0.053,0-0.101,0.007-0.149,0.015C86.158,363.28,85.701,363.98,85.701,364.82z"/>
			<g>
				<path style="fill:#263238;" d="M80.395,347.021c1.189,0,1.27,0,2.459,0c7.778,0,14.084,7.969,14.084,17.799
					c0,9.83-6.306,17.799-14.084,17.799c-1.189,0-1.27,0-2.459,0c-7.779,0-14.084-7.969-14.084-17.799
					C66.311,354.99,72.616,347.021,80.395,347.021z"/>
				<path style="opacity:0.2;fill:#FFFFFF;enable-background:new    ;" d="M66.311,364.82c0,9.83,6.306,17.799,14.084,17.799
					c7.778,0,14.083-7.969,14.083-17.799s-6.305-17.799-14.083-17.799C72.617,347.021,66.311,354.99,66.311,364.82z"/>
			</g>
			<g>
				<path style="fill:#263238;" d="M78.054,351.634c0.881,0,0.941,0,1.821,0c5.762,0,10.433,5.903,10.433,13.186
					c0,7.282-4.671,13.185-10.433,13.185c-0.881,0-0.941,0-1.821,0c-5.762,0-10.433-5.903-10.433-13.185
					C67.621,357.538,72.292,351.634,78.054,351.634z"/>
				<path style="opacity:0.1;fill:#FFFFFF;enable-background:new    ;" d="M67.621,364.82c0,7.282,4.671,13.185,10.433,13.185
					c5.762,0,10.433-5.903,10.433-13.185c0-7.282-4.671-13.186-10.433-13.186C72.292,351.634,67.621,357.538,67.621,364.82z"/>
			</g>
			<g>
				<path style="fill:#263238;" d="M75.716,360.778c0.27,0,0.288,0,0.558,0c1.766,0,3.199,1.81,3.199,4.042
					c0,2.233-1.432,4.042-3.199,4.042c-0.27,0-0.288,0-0.558,0c-1.767,0-3.199-1.81-3.199-4.042
					C72.518,362.587,73.95,360.778,75.716,360.778z"/>
				<path style="opacity:0.2;fill:#FFFFFF;enable-background:new    ;" d="M72.518,364.82c0,2.233,1.432,4.042,3.198,4.042
					c1.766,0,3.198-1.81,3.198-4.042c0-2.232-1.432-4.042-3.198-4.042C73.95,360.778,72.518,362.587,72.518,364.82z"/>
			</g>
			<g>
				<path style="fill:#263238;" d="M71.697,364.82c0,0.457,0.133,0.877,0.351,1.172c0.186,0.258,0.425,0.427,0.696,0.472
					c0.048,0.007,0.096,0.015,0.149,0.015h2.364c0.659,0,1.19-0.737,1.19-1.658c0-0.457-0.133-0.87-0.35-1.172
					c-0.212-0.302-0.51-0.486-0.839-0.486h-2.364c-0.053,0-0.101,0.007-0.149,0.015C72.154,363.28,71.697,363.98,71.697,364.82z"/>
				<path style="opacity:0.2;fill:#FFFFFF;enable-background:new    ;" d="M71.697,364.82c0,0.457,0.133,0.877,0.351,1.172
					c0.186,0.258,0.425,0.427,0.696,0.472c0.595-0.096,1.046-0.796,1.046-1.644c0-0.457-0.133-0.87-0.351-1.172
					c-0.181-0.258-0.42-0.427-0.696-0.472C72.154,363.28,71.697,363.98,71.697,364.82z"/>
			</g>
		</g>
		<g>
			<path style="fill:#263238;" d="M85.701,327.968c0,0.457,0.133,0.877,0.351,1.172c0.186,0.258,0.425,0.427,0.696,0.472
				c0.048,0.007,0.096,0.015,0.149,0.015h44.349c0.658,0,1.19-0.737,1.19-1.658c0-0.457-0.133-0.87-0.35-1.172
				c-0.212-0.302-0.51-0.486-0.839-0.486H86.896c-0.053,0-0.101,0.007-0.149,0.015C86.158,326.427,85.701,327.128,85.701,327.968z"
				/>
			<path style="opacity:0.5;fill:#FFFFFF;" d="M85.701,327.968c0,0.457,0.133,0.877,0.351,1.172
				c0.186,0.258,0.425,0.427,0.696,0.472c0.048,0.007,0.096,0.015,0.149,0.015h44.349c0.658,0,1.19-0.737,1.19-1.658
				c0-0.457-0.133-0.87-0.35-1.172c-0.212-0.302-0.51-0.486-0.839-0.486H86.896c-0.053,0-0.101,0.007-0.149,0.015
				C86.158,326.427,85.701,327.128,85.701,327.968z"/>
			<g>
				<path style="fill:#263238;" d="M79.863,313.135c0.991,0,1.058,0,2.049,0c6.482,0,11.736,6.641,11.736,14.833
					c0,8.192-5.255,14.833-11.736,14.833c-0.991,0-1.058,0-2.049,0c-6.482,0-11.736-6.641-11.736-14.833
					C68.126,319.776,73.38,313.135,79.863,313.135z"/>
				<ellipse style="opacity:0.2;fill:#FFFFFF;enable-background:new    ;" cx="79.862" cy="327.968" rx="11.736" ry="14.833"/>
			</g>
			<g>
				<path style="fill:#263238;" d="M77.912,316.98c0.734,0,0.784,0,1.518,0c4.801,0,8.694,4.919,8.694,10.988
					c0,6.068-3.893,10.988-8.694,10.988c-0.734,0-0.784,0-1.518,0c-4.802,0-8.694-4.919-8.694-10.988
					C69.218,321.899,73.11,316.98,77.912,316.98z"/>
				<ellipse style="opacity:0.1;fill:#FFFFFF;enable-background:new    ;" cx="77.912" cy="327.968" rx="8.694" ry="10.988"/>
			</g>
			<g>
				<path style="fill:#263238;" d="M75.964,324.599c0.225,0,0.24,0,0.465,0c1.472,0,2.665,1.508,2.665,3.369
					c0,1.86-1.193,3.368-2.665,3.368c-0.225,0-0.24,0-0.465,0c-1.472,0-2.665-1.508-2.665-3.368
					C73.298,326.107,74.492,324.599,75.964,324.599z"/>
				<path style="opacity:0.2;fill:#FFFFFF;enable-background:new    ;" d="M73.298,327.968c0,1.86,1.193,3.368,2.665,3.368
					c1.472,0,2.665-1.508,2.665-3.368c0-1.86-1.193-3.369-2.665-3.369C74.492,324.599,73.298,326.107,73.298,327.968z"/>
			</g>
			<g>
				<path style="fill:#263238;" d="M71.697,327.968c0,0.457,0.133,0.877,0.351,1.172c0.186,0.258,0.425,0.427,0.696,0.472
					c0.048,0.007,0.096,0.015,0.149,0.015h2.364c0.659,0,1.19-0.737,1.19-1.658c0-0.457-0.133-0.87-0.35-1.172
					c-0.212-0.302-0.51-0.486-0.839-0.486h-2.364c-0.053,0-0.101,0.007-0.149,0.015C72.154,326.427,71.697,327.128,71.697,327.968z"
					/>
				<path style="opacity:0.2;fill:#FFFFFF;enable-background:new    ;" d="M71.697,327.968c0,0.457,0.133,0.877,0.351,1.172
					c0.186,0.258,0.425,0.427,0.696,0.472c0.595-0.096,1.046-0.796,1.046-1.643c0-0.457-0.133-0.87-0.351-1.172
					c-0.181-0.258-0.42-0.427-0.696-0.472C72.154,326.427,71.697,327.128,71.697,327.968z"/>
			</g>
		</g>
		<g>
			<path style="fill:#263238;" d="M85.701,297.012c0,0.457,0.133,0.877,0.351,1.172c0.186,0.258,0.425,0.427,0.696,0.472
				c0.048,0.007,0.096,0.015,0.149,0.015h44.349c0.658,0,1.19-0.737,1.19-1.658c0-0.457-0.133-0.87-0.35-1.172
				c-0.212-0.302-0.51-0.486-0.839-0.486H86.896c-0.053,0-0.101,0.007-0.149,0.015C86.158,295.472,85.701,296.172,85.701,297.012z"
				/>
			<path style="opacity:0.5;fill:#FFFFFF;" d="M85.701,297.012c0,0.457,0.133,0.877,0.351,1.172
				c0.186,0.258,0.425,0.427,0.696,0.472c0.048,0.007,0.096,0.015,0.149,0.015h44.349c0.658,0,1.19-0.737,1.19-1.658
				c0-0.457-0.133-0.87-0.35-1.172c-0.212-0.302-0.51-0.486-0.839-0.486H86.896c-0.053,0-0.101,0.007-0.149,0.015
				C86.158,295.472,85.701,296.172,85.701,297.012z"/>
			<g>
				<path style="fill:#263238;" d="M78.645,285.887c0.743,0,0.794,0,1.537,0c4.861,0,8.802,4.981,8.802,11.125
					c0,6.144-3.941,11.125-8.802,11.125c-0.743,0-0.794,0-1.537,0c-4.862,0-8.802-4.981-8.802-11.125
					C69.842,290.868,73.783,285.887,78.645,285.887z"/>
				<path style="opacity:0.2;fill:#FFFFFF;enable-background:new    ;" d="M69.842,297.012c0,6.144,3.941,11.125,8.802,11.125
					c4.861,0,8.802-4.981,8.802-11.125c0-6.144-3.941-11.125-8.802-11.125C73.783,285.887,69.842,290.868,69.842,297.012z"/>
			</g>
			<g>
				<path style="fill:#263238;" d="M77.182,288.771c0.55,0,0.588,0,1.138,0c3.601,0,6.521,3.69,6.521,8.241s-2.92,8.241-6.521,8.241
					c-0.55,0-0.588,0-1.138,0c-3.601,0-6.521-3.69-6.521-8.241S73.58,288.771,77.182,288.771z"/>
				<ellipse style="opacity:0.1;fill:#FFFFFF;enable-background:new    ;" cx="77.182" cy="297.012" rx="6.521" ry="8.241"/>
			</g>
			<g>
				<path style="fill:#263238;" d="M75.72,294.486c0.169,0,0.18,0,0.349,0c1.104,0,1.999,1.131,1.999,2.526
					c0,1.395-0.895,2.526-1.999,2.526c-0.169,0-0.18,0-0.349,0c-1.104,0-1.999-1.131-1.999-2.526
					C73.721,295.617,74.616,294.486,75.72,294.486z"/>
				<path style="opacity:0.2;fill:#FFFFFF;enable-background:new    ;" d="M73.721,297.012c0,1.395,0.895,2.526,1.999,2.526
					c1.104,0,1.999-1.131,1.999-2.526c0-1.395-0.895-2.526-1.999-2.526C74.616,294.486,73.721,295.617,73.721,297.012z"/>
			</g>
			<g>
				<path style="fill:#263238;" d="M71.697,297.012c0,0.457,0.133,0.877,0.351,1.172c0.186,0.258,0.425,0.427,0.696,0.472
					c0.048,0.007,0.096,0.015,0.149,0.015h2.364c0.659,0,1.19-0.737,1.19-1.658c0-0.457-0.133-0.87-0.35-1.172
					c-0.212-0.302-0.51-0.486-0.839-0.486h-2.364c-0.053,0-0.101,0.007-0.149,0.015C72.154,295.472,71.697,296.172,71.697,297.012z"
					/>
				<path style="opacity:0.2;fill:#FFFFFF;enable-background:new    ;" d="M71.697,297.012c0,0.457,0.133,0.877,0.351,1.172
					c0.186,0.258,0.425,0.427,0.696,0.472c0.595-0.096,1.046-0.796,1.046-1.643c0-0.457-0.133-0.87-0.351-1.172
					c-0.181-0.258-0.42-0.427-0.696-0.472C72.154,295.472,71.697,296.172,71.697,297.012z"/>
			</g>
		</g>
		<g>
			<path style="fill:#263238;" d="M127.367,299.212v4.43h0.77l2.62-4.91l-0.44-1.75h-0.75
				C129.567,298.983,127.367,299.212,127.367,299.212z"/>
			<path style="opacity:0.2;fill:#FFFFFF;enable-background:new    ;" d="M127.367,299.212v4.43h0.77l2.62-4.91l-0.44-1.75h-0.75
				C129.567,298.983,127.367,299.212,127.367,299.212z"/>
			<path style="fill:#263238;" d="M127.367,299.212v4.43h0.13l2.62-4.91l-0.44-1.75h-0.11
				C129.567,298.983,127.367,299.212,127.367,299.212z"/>
		</g>
		<g>
			<path style="fill:#263238;" d="M127.367,330.208v4.43h0.77l2.62-4.91l-0.44-1.75h-0.75
				C129.567,329.978,127.367,330.208,127.367,330.208z"/>
			<path style="opacity:0.2;fill:#FFFFFF;enable-background:new    ;" d="M127.367,330.208v4.43h0.77l2.62-4.91l-0.44-1.75h-0.75
				C129.567,329.978,127.367,330.208,127.367,330.208z"/>
			<path style="fill:#263238;" d="M127.367,330.208v4.43h0.13l2.62-4.91l-0.44-1.75h-0.11
				C129.567,329.978,127.367,330.208,127.367,330.208z"/>
		</g>
		<g>
			<path style="fill:#263238;" d="M127.367,367.203v4.43h0.77l2.62-4.91l-0.44-1.75h-0.75
				C129.567,366.973,127.367,367.203,127.367,367.203z"/>
			<path style="opacity:0.2;fill:#FFFFFF;enable-background:new    ;" d="M127.367,367.203v4.43h0.77l2.62-4.91l-0.44-1.75h-0.75
				C129.567,366.973,127.367,367.203,127.367,367.203z"/>
			<path style="fill:#263238;" d="M127.367,367.203v4.43h0.13l2.62-4.91l-0.44-1.75h-0.11
				C129.567,366.973,127.367,367.203,127.367,367.203z"/>
		</g>
		<path style="fill:#407BFF;" d="M96.937,295.354c4.195,0,2.019,19.898,2.613,24.739c0.593,4.841-0.166,21.069,0.72,21.757
			c0.886,0.689,3.259-1.487,5.237-0.894c1.978,0.594,2.817,0.396,5.562-0.198c2.745-0.593,5.515-1.187,6.701-0.791
			s0.57-43.893-0.419-44.99c-0.989-1.098-5.736-0.911-5.736-0.911s-9.297,0.63-11.077,0.419
			C98.758,294.275,96.937,295.354,96.937,295.354z"/>
		<path style="opacity:0.5;fill:#FFFFFF;enable-background:new    ;" d="M96.937,295.354c4.195,0,2.019,19.898,2.613,24.739
			c0.593,4.841-0.166,21.069,0.72,21.757c0.886,0.689,3.259-1.487,5.237-0.894c1.978,0.594,2.817,0.396,5.562-0.198
			c2.745-0.593,5.515-1.187,6.701-0.791s0.57-43.893-0.419-44.99c-0.989-1.098-5.736-0.911-5.736-0.911s-9.297,0.63-11.077,0.419
			C98.758,294.275,96.937,295.354,96.937,295.354z"/>
	</g>
</g>
<g id="Character">
	<g>
		<path style="fill:#263238;" d="M326.069,411.214l-17.648-4.123v-49.849h-5.938v29.432H201.022v4.465h101.461v15.953l-17.648,4.123
			c-0.857,0.2-1.464,0.965-1.464,1.845v3.046h44.162v-3.046C327.533,412.179,326.927,411.414,326.069,411.214z"/>
		<path style="opacity:0.1;fill:#FFFFFF;enable-background:new    ;" d="M326.069,411.214l-17.648-4.123v-49.849h-5.938v29.432
			H201.022v4.465h101.461v15.953l-17.648,4.123c-0.857,0.2-1.464,0.965-1.464,1.845v3.046h44.162v-3.046
			C327.533,412.179,326.927,411.414,326.069,411.214z"/>
		<path style="fill:#263238;" d="M205.356,407.091v-49.849h-5.938v49.849l-17.648,4.123c-0.857,0.2-1.464,0.965-1.464,1.845v3.046
			h44.162v-3.046c0-0.88-0.607-1.645-1.464-1.845L205.356,407.091z"/>
		<path style="opacity:0.2;fill:#FFFFFF;enable-background:new    ;" d="M205.356,407.091v-49.849h-5.938v49.849l-17.648,4.123
			c-0.857,0.2-1.464,0.965-1.464,1.845v3.046h44.162v-3.046c0-0.88-0.607-1.645-1.464-1.845L205.356,407.091z"/>
		<path style="fill:#263238;" d="M324.26,359.569H182.331c-0.743,0-1.346-0.603-1.346-1.346v-7.066h144.621v7.066
			C325.606,358.967,325.004,359.569,324.26,359.569z"/>
		<path style="opacity:0.2;fill:#FFFFFF;enable-background:new    ;" d="M325.61,351.16v7.06c0,0.75-0.61,1.35-1.35,1.35H182.33
			c-0.74,0-1.35-0.6-1.35-1.35v-7.06H325.61z"/>
		<path style="opacity:0.2;enable-background:new    ;" d="M325.61,351.16v7.06c0,0.75-0.61,1.35-1.35,1.35H226.6v-8.41H325.61z"/>
		<path style="fill:#407BFF;" d="M337.28,347.98c0,1.68-0.69,3.22-1.8,4.33c-1.11,1.11-2.64,1.8-4.33,1.8H175.44
			c-3.37,0-6.13-2.76-6.13-6.13c0-1.68,0.69-3.22,1.8-4.33c1.11-1.11,2.65-1.8,4.33-1.8h155.71
			C334.52,341.85,337.28,344.61,337.28,347.98z"/>
		<path style="opacity:0.2;fill:#FFFFFF;enable-background:new    ;" d="M237.22,347.98c0,1.68-0.69,3.22-1.8,4.33
			c-1.12,1.11-2.65,1.8-4.34,1.8h-55.64c-3.37,0-6.13-2.76-6.13-6.13c0-1.68,0.69-3.22,1.8-4.33c1.11-1.11,2.65-1.8,4.33-1.8h55.64
			C234.46,341.85,237.22,344.61,237.22,347.98z"/>
	</g>
	<g id="_x3C_Group_x3E__19_">
		<path style="fill:#EBB376;" d="M286.941,297.342l-0.58,3.99c0,0-19.54-1.79-24.23-2.5c-2.25-0.34-4.29-4.21-5.85-9.22
			c-1.55-4.92-2.64-10.94-3.03-15.77c-0.05-0.5-0.08-0.99-0.11-1.46l-2.17-1.03l9.15-11.54c0,0,7.41,0.97,8.75,5.03
			c1.34,4.05-1.64,8.61-1.64,8.61s0.25,3.49,1.45,6.32c1.19,2.83-0.57,5.91-0.57,5.91l-1.1,3.76
			C274.631,290.672,286.941,297.342,286.941,297.342z"/>
		<g>
			<g>
				<path style="fill:#263238;" d="M296.88,303.158c0.495,0.06,2.368,0.289,2.862,0.349c3.236,0.395,6.263-2.6,6.762-6.69
					c0.499-4.089-1.72-7.724-4.955-8.119c-0.495-0.06-2.368-0.289-2.862-0.349c-3.236-0.395-6.263,2.6-6.762,6.69
					C291.425,299.128,293.644,302.763,296.88,303.158z"/>
				<path style="opacity:0.1;fill:#FFFFFF;enable-background:new    ;" d="M296.88,303.158c0.495,0.06,2.368,0.289,2.862,0.349
					c3.236,0.395,6.263-2.6,6.762-6.69c0.499-4.089-1.72-7.724-4.955-8.119c-0.495-0.06-2.368-0.289-2.862-0.349
					c-3.236-0.395-6.263,2.6-6.762,6.69C291.425,299.128,293.644,302.763,296.88,303.158z"/>
				<path style="opacity:0.2;fill:#FFFFFF;enable-background:new    ;" d="M291.924,295.039c0.499-4.089,3.526-7.084,6.762-6.69
					c3.236,0.395,5.454,4.03,4.955,8.119c-0.499,4.089-3.526,7.084-6.762,6.69C293.644,302.763,291.426,299.128,291.924,295.039z"/>
			</g>
			<g>
				<path style="fill:#263238;" d="M285.734,297.204c0.192,0.023,10.461,1.276,10.653,1.3c1.257,0.153,2.433-1.01,2.627-2.599
					c0.194-1.589-0.668-3.001-1.925-3.154c-0.192-0.023-10.461-1.276-10.653-1.3c-1.257-0.153-2.433,1.01-2.627,2.599
					C283.615,295.638,284.477,297.05,285.734,297.204z"/>
			</g>
		</g>
		<path style="fill:#EBB376;" d="M294.836,302.822c1.121,0,4.154-6.123,4.314-8.019c0.16-1.896-8.553-4.443-8.553-4.443
			l-6.12,11.285C284.476,301.645,293.447,302.822,294.836,302.822z"/>
		<g>
			<path style="fill:#263238;" d="M281.614,301.296c0.494,0.06,2.368,0.289,2.862,0.349c3.236,0.395,6.263-2.6,6.762-6.69
				c0.499-4.089-1.72-7.724-4.955-8.119c-0.495-0.06-2.368-0.289-2.862-0.349c-3.236-0.395-6.263,2.6-6.762,6.69
				C276.159,297.266,278.378,300.901,281.614,301.296z"/>
			<path style="opacity:0.1;fill:#FFFFFF;enable-background:new    ;" d="M281.614,301.296c0.494,0.06,2.368,0.289,2.862,0.349
				c3.236,0.395,6.263-2.6,6.762-6.69c0.499-4.089-1.72-7.724-4.955-8.119c-0.495-0.06-2.368-0.289-2.862-0.349
				c-3.236-0.395-6.263,2.6-6.762,6.69C276.159,297.266,278.378,300.901,281.614,301.296z"/>
			<path style="opacity:0.2;fill:#FFFFFF;enable-background:new    ;" d="M276.659,293.177c0.499-4.089,3.526-7.084,6.762-6.69
				c3.235,0.395,5.454,4.03,4.955,8.119s-3.526,7.084-6.762,6.69C278.378,300.901,276.16,297.266,276.659,293.177z"/>
		</g>
		<path style="opacity:0.2;enable-background:new    ;" d="M256.281,289.612c-1.55-4.92-2.64-10.94-3.03-15.77
			c1.61-1.57,3.04-2.77,3.04-2.77S258.741,281.452,256.281,289.612z"/>
		<path style="fill:#263238;" d="M215.083,298.93l37.531,2.166l1.993,9.462l23.175,3.641c0,0,4.747,14.398-6.198,30.616
			c0,0-33.733,0.933-47.402,0.933C206.395,345.748,215.083,298.93,215.083,298.93z"/>
		<path style="fill:none;stroke:#FFFFFF;stroke-width:0.5;stroke-linecap:round;stroke-linejoin:round;stroke-miterlimit:10;" d="
			M240.432,310.699c-1.194-1.707-2.271-7.22-2.271-7.22s3.892,6.856,5.646,3.874c1.755-2.983-5.646-3.874-5.646-3.874
			c-5.176-0.335-7.677,1.087-5.791,2.819c1.885,1.732,5.791-2.819,5.791-2.819s-1.088,5.338-3.111,6.456"/>
		<path style="fill:#EBB376;" d="M302.625,322.595c-2.661-3.888-26.147-7.663-26.147-7.663c-8.586,11.553-4.762,27.329-4.762,27.329
			c14.905-0.074,35.239-4.574,35.239-4.574S304.024,324.639,302.625,322.595z"/>
		<path style="fill:#EBB376;" d="M283.796,328.743c1.842,4.031,3.102,7.391,3.466,9.638c3.326,20.548,28.898,66.123,28.898,66.123
			l5.543-2.543c0,0-9.009-43.898-14.749-64.274c-1.595-5.664-4.652-11.884-5.437-14.499L283.796,328.743z"/>
		<path style="fill:#263238;" d="M312.974,414.788l1.052-4.752l0.178-8.559h7.166c0.761-2.633,2.854-1.17,2.854-1.17l1.055,5.366
			c1.813,1.626,5.997,5.874,11.659,7.107c1.261,0.28,0.86,3.326-2.224,3.326c-3.083,0-9.819-0.234-12.052-0.234
			c-3.625,0-5.727,0.177-8.614,0.224c-0.08,0.001-0.16-0.007-0.238-0.023C313.225,415.949,312.85,415.374,312.974,414.788z"/>
		<path style="fill:#EBB376;" d="M226.6,325.697c1.19,4.27,1.911,7.785,1.919,10.061c0.077,20.815,18.223,69.824,18.223,69.824
			l5.872-1.647c0,0-2.046-44.766-4.535-65.789c-0.692-5.843-2.74-12.465-3.107-15.17L226.6,325.697z"/>
		<path style="fill:#263238;" d="M242.93,414.788l1.052-4.752l0.178-8.559h7.166c0.76-2.633,2.854-1.17,2.854-1.17l1.055,5.366
			c1.812,1.626,5.998,5.874,11.659,7.107c1.261,0.28,0.86,3.326-2.224,3.326c-3.083,0-9.819-0.234-12.052-0.234
			c-3.625,0-5.727,0.177-8.614,0.224c-0.08,0.001-0.16-0.007-0.238-0.023C243.18,415.949,242.806,415.374,242.93,414.788z"/>
		<path style="fill:#EBB376;" d="M223.848,341.116c-1.781-2.116-0.791-18.852,5.143-24.027c5.934-5.175,14.835-0.544,15.824,3.47
			s2.132,11.2,2.132,11.2S229.782,348.164,223.848,341.116z"/>
		<path style="fill:#EBB376;" d="M260.121,259.812c0,0-6.3,21.04-7.51,41.28l-37.53-2.16c0,0-0.48-10.43,0.08-23.54
			c0.14-3.34,0.34-6.86,0.64-10.43c0.61-7.22,1.6-14.63,3.17-21.17c0,0,1.93-0.02,4.98,0.31c2.68,0.28,6.24,0.82,10.1,1.88
			c0.01,0,0.03,0.01,0.04,0.01c2.58,0.71,5.3,1.65,8,2.89c1.77,0.81,3.44,1.64,4.97,2.45l0.01,0.01c4.8,2.54,8.41,4.98,10.6,6.58
			C259.271,259.082,260.121,259.812,260.121,259.812z"/>
		<g>
			<g>
				<path style="fill:#263238;" d="M190.498,303.116c-0.493-0.07-2.362-0.335-2.855-0.405c-3.227-0.458-6.313,2.478-6.891,6.557
					c-0.579,4.079,1.569,7.756,4.796,8.214c0.493,0.07,2.362,0.335,2.855,0.405c3.228,0.458,6.313-2.478,6.891-6.556
					C195.873,307.251,193.725,303.573,190.498,303.116z"/>
				<path style="opacity:0.1;fill:#FFFFFF;enable-background:new    ;" d="M190.498,303.116c-0.493-0.07-2.362-0.335-2.855-0.405
					c-3.227-0.458-6.313,2.478-6.891,6.557c-0.579,4.079,1.569,7.756,4.796,8.214c0.493,0.07,2.362,0.335,2.855,0.405
					c3.228,0.458,6.313-2.478,6.891-6.556C195.873,307.251,193.725,303.573,190.498,303.116z"/>
				<path style="opacity:0.2;fill:#FFFFFF;enable-background:new    ;" d="M195.294,311.33c-0.579,4.079-3.664,7.014-6.891,6.556
					c-3.227-0.458-5.374-4.135-4.796-8.214c0.579-4.079,3.664-7.014,6.891-6.557C193.725,303.573,195.872,307.251,195.294,311.33z"
					/>
			</g>
			<g>
				<path style="fill:#263238;" d="M201.525,309.286c-0.192-0.027-10.434-1.48-10.626-1.507c-1.254-0.178-2.453,0.963-2.678,2.547
					c-0.225,1.585,0.61,3.014,1.864,3.191c0.192,0.027,10.434,1.48,10.626,1.507c1.254,0.178,2.453-0.963,2.677-2.547
					C203.613,310.893,202.779,309.464,201.525,309.286z"/>
			</g>
		</g>
		<path style="fill:#EBB376;" d="M223.865,245.011c0,0-5.995-3.766-10.353-1.468c-4.358,2.297-7.514,11.514-7.514,11.514
			s-6.878,15.155-8.57,17.604c-1.691,2.448-4.077,29.083-4.077,29.083l4.859,0.942c0,0,7.712-15.955,6.283-25.267
			c-0.284-1.851,7.777-2.107,14.609-15.749c0,0,3.945-5.218,4.864-9.12S223.865,245.011,223.865,245.011z"/>
		<path style="fill:#EBB376;" d="M193.352,301.743c0,0-5.089,7.79-5.286,9.682c-0.197,1.892,8.465,4.609,8.465,4.609
			s3.473-7.807,2.975-8.94c-0.498-1.132-0.79-7.028-0.79-7.028L193.352,301.743z"/>
		<g>
			<path style="fill:#263238;" d="M205.725,305.275c-0.493-0.07-2.362-0.335-2.855-0.405c-3.227-0.458-6.313,2.478-6.891,6.557
				c-0.579,4.079,1.569,7.756,4.796,8.214c0.493,0.07,2.362,0.335,2.855,0.405c3.227,0.458,6.313-2.478,6.891-6.556
				C211.099,309.411,208.952,305.733,205.725,305.275z"/>
			<path style="opacity:0.1;fill:#FFFFFF;enable-background:new    ;" d="M205.725,305.275c-0.493-0.07-2.362-0.335-2.855-0.405
				c-3.227-0.458-6.313,2.478-6.891,6.557c-0.579,4.079,1.569,7.756,4.796,8.214c0.493,0.07,2.362,0.335,2.855,0.405
				c3.227,0.458,6.313-2.478,6.891-6.556C211.099,309.411,208.952,305.733,205.725,305.275z"/>
			<path style="opacity:0.2;fill:#FFFFFF;enable-background:new    ;" d="M210.521,313.49c-0.579,4.079-3.664,7.014-6.891,6.556
				c-3.227-0.458-5.375-4.135-4.796-8.214c0.579-4.079,3.664-7.014,6.891-6.557S211.099,309.411,210.521,313.49z"/>
		</g>
		<path style="opacity:0.1;enable-background:new    ;" d="M257.671,257.922c-4.37-0.07-12.99-1.93-12.99-1.93l-2.59,2.85
			l-1.14-2.85c0,0-15.52-9.81-15.92-10.33c0,0-0.63-0.77-1.08-1.56c2.68,0.28,6.24,0.82,10.1,1.88c0.01,0,0.03,0.01,0.04,0.01
			c2.58,0.71,5.3,1.65,8,2.89c1.77,0.81,3.44,1.64,4.97,2.45l0.01,0.01C251.871,253.882,255.481,256.322,257.671,257.922z"/>
		<g>
			<path style="fill:#EBB376;" d="M246.479,249.589c-0.689,1.156,2.817,3.646,2.226,4.106c-2.374,1.846-6.198,2.571-6.198,2.571
				s-5.538-3.264-9.561-9.033c1.31-0.126,4.053-0.99,4.879-1.912c2.136-2.378,4.438-10.12,4.438-10.12l8.378,9.029
				c0,0-0.187,0.195-0.488,0.531C249.32,245.704,247.579,247.731,246.479,249.589z"/>
			<path style="opacity:0.2;enable-background:new    ;" d="M241.21,241.744c0,0,0.088,5.646,5.269,7.845
				c1.101-1.858,2.842-3.885,3.675-4.828c-0.317-0.321-0.525-0.523-0.525-0.523L241.21,241.744z"/>
		</g>
		<g>
			<path style="fill:#263238;" d="M264.824,228.874c0,0-1.076,10.417-7.226,11.315c-6.15,0.898,2.034-14.741,2.034-14.741
				L264.824,228.874z"/>
			<path style="opacity:0.2;fill:#FFFFFF;enable-background:new    ;" d="M264.824,228.874c0,0-1.076,10.417-7.226,11.315
				c-6.15,0.898,2.034-14.741,2.034-14.741L264.824,228.874z"/>
			<path style="fill:#EBB376;" d="M258.371,243.462c-0.74,0.81-1.51,1.54-2.27,2.16c-0.27,0.21-0.54,0.42-0.82,0.59
				c-2.13,1.39-4.62,1.83-6.91,1.42c-1.76-0.32-3.4-1.13-4.69-2.36c-1.32-1.28-2.25-3.03-2.52-5.18c-0.64-4.86,1.86-8,5.67-13.66
				c0.8-1.23,1.88-2.26,3.15-2.98c4.44-2.6,10.15-1.08,12.74,3.36C265.811,232.062,262.441,239.022,258.371,243.462z"/>
			<path style="opacity:0.1;enable-background:new    ;" d="M258.371,243.462c-0.74,0.81-1.51,1.54-2.27,2.16
				c-0.27,0.21-0.54,0.42-0.82,0.59c-2.13,1.39-4.62,1.83-6.91,1.42c-1.76-0.32-3.4-1.13-4.69-2.36c-0.83-3.28-0.11-7.64,2.95-13.18
				l2.14-1.45c0,0-0.99,4.92,0,5.61c0.99,0.7,2.7-0.64,3.18,4.58c0,0,1.24,1.95,3.28,2.44
				C256.211,243.512,257.401,243.522,258.371,243.462z"/>
			<path style="fill:#263238;" d="M253.905,234.221c-0.364,0.414-0.377,0.973-0.084,1.196c0.293,0.223,0.796,0.036,1.134-0.402
				c0.338-0.437,0.371-0.979,0.084-1.196C254.752,233.602,254.248,233.777,253.905,234.221z"/>
			<path style="fill:#263238;" d="M258.894,238.024c-0.364,0.414-0.371,0.979-0.084,1.196c0.287,0.217,0.796,0.036,1.134-0.402
				c0.338-0.437,0.371-0.979,0.084-1.196C259.741,237.405,259.215,237.606,258.894,238.024z"/>
			<path style="fill:#D58745;" d="M257.143,237.033c-0.503,1.75-0.762,3.561-0.769,5.383c-0.948-0.029-1.835-0.476-2.423-1.221
				L257.143,237.033z"/>
			<path style="fill:#263238;" d="M254.501,231.128c0.028,0.118,0.118,0.213,0.234,0.247c0.803,0.203,1.464,0.773,1.781,1.538
				c0.054,0.171,0.235,0.266,0.406,0.212c0.171-0.054,0.266-0.235,0.212-0.406c0,0,0-0.001-0.001-0.001
				c-0.377-0.977-1.205-1.711-2.22-1.969c-0.171-0.053-0.352,0.042-0.405,0.213c-0.001,0.003-0.001,0.005-0.002,0.008
				C254.496,231.023,254.494,231.076,254.501,231.128z"/>
			<path style="fill:#263238;" d="M262.81,236.757c0.065,0.007,0.131-0.006,0.189-0.038c0.136-0.116,0.152-0.321,0.036-0.456
				c-0.002-0.002-0.003-0.004-0.005-0.006c-0.677-0.804-1.703-1.228-2.751-1.137c-0.177,0.026-0.299,0.191-0.273,0.368l0,0.001
				c0.03,0.175,0.192,0.295,0.368,0.273l0,0c0.829-0.048,1.631,0.299,2.164,0.935C262.615,236.755,262.715,236.778,262.81,236.757z"
				/>
			<path style="fill:#263238;" d="M258.418,220.189c-6.34-3.255-12.791-1.181-15.955,9.282c-1.789,5.914-1.282,9.372-1.282,9.372
				c0.06-3.261,3.085-8.099,3.993-7.788c0.907,0.31,0.336,1.246,0.336,1.246c2.483-0.186,6.233-2.539,6.523-5.23
				c0.682-6.328,7.564-3.656,8.256-0.878c0,0,2.384,3.711,4.535,2.682C266.975,227.845,265.767,219.978,258.418,220.189z"/>
			<path style="fill:none;stroke:#263238;stroke-width:0.5;stroke-linecap:round;stroke-linejoin:round;stroke-miterlimit:10;" d="
				M250.182,238.015c0,0-1.029,3.038,1.768,4.461"/>
			<path style="opacity:0.2;fill:#FFFFFF;enable-background:new    ;" d="M258.418,220.189c-6.34-3.255-12.791-1.181-15.955,9.282
				c-1.789,5.914-1.282,9.372-1.282,9.372c0.06-3.261,3.085-8.099,3.993-7.788c0.907,0.31,0.336,1.246,0.336,1.246
				c2.483-0.186,6.233-2.539,6.523-5.23c0.682-6.328,7.564-3.656,8.256-0.878c0,0,2.384,3.711,4.535,2.682
				C266.975,227.845,265.767,219.978,258.418,220.189z"/>
			<path style="fill:#263238;" d="M254.451,222.185c0,0,6.663,8.542,9.31,8.457c2.647-0.085,5.244-7.31,3.291-10.536
				c-1.952-3.226-9.152-5.389-9.152-5.389s2.672,1.234,3.809,2.486c0,0-5.566-2.789-9.227-2.882
				c-3.661-0.093-8.789,4.272-9.871,8.949l0.958-1.446c0,0-2.362,5.709-1.107,7.646C242.463,229.47,246.952,214.816,254.451,222.185
				z"/>
			<path style="fill:#EBB376;" d="M241.078,229.075c-0.333,1.685,0.015,3.433,0.969,4.861c1.276,1.882,3.379,1.092,4.256-0.877
				c0.763-1.758,1.065-4.898-0.823-6.075C243.591,225.807,241.514,227.013,241.078,229.075z"/>
		</g>
		<path style="opacity:0.2;enable-background:new    ;" d="M260.002,271.072l-2.859-8.543l-7.713-2.717c0,0,3.6,1.872,4.521,2.586
			c1.362,1.055,3.062,5.275,3.062,5.275s-1.749,7.44-3.762,9.098c-2.465,2.03-12.04,1.815-12.04-1.379
			c0-5.346,0.584-12.731,0.584-12.731s-1.381,11.912-3.428,12.462c-4.17,1.119-15.441-4.051-16.562-6.923
			c-0.701-1.795,1.319-12.791,2.901-13.714c1.582-0.923,7.582,0.659,7.582,0.659s-4.487-2.874-6.198-2.901
			c-2.547-0.041-9.36,4.022-9.36,4.022l3.169-0.857c0,0,0.183,3.932-0.073,5.209c-0.198,0.989-1.648,3.099-4.206,6.651
			c-0.3,3.57-0.319,4.784-0.459,8.124c2.187-1.974,3.367-5.449,4.003-8.792c0.57,1.782,0.807,3.661,1.685,4.472
			c3.558,3.284,18.427,5.963,18.427,5.963s9.98,4.495,13.216,2.506c2.077-1.277,5.509-10.022,5.208-10.504
			C257.399,268.555,260.002,271.072,260.002,271.072z"/>
		<g>
			<path style="fill:#407BFF;" d="M227.529,244.137c0,0-1.139,25.909,10.381,30.26c11.52,4.352,17.049-18.871,17.049-18.871
				l2.742,1.797c0,0-7.489,31.463-4.253,37.653l-0.833,6.119l-37.531-2.166l-1.125-8.57c0,0,6.462-2.248,7.78-13.72
				c1.319-11.473,1.312-32.852,1.312-32.852L227.529,244.137z"/>
			<path style="opacity:0.5;fill:#FFFFFF;enable-background:new    ;" d="M227.529,244.137c0,0-1.139,25.909,10.381,30.26
				c11.52,4.352,17.049-18.871,17.049-18.871l2.742,1.797c0,0-7.489,31.463-4.253,37.653l-0.833,6.119l-37.531-2.166l-1.125-8.57
				c0,0,6.462-2.248,7.78-13.72c1.319-11.473,1.312-32.852,1.312-32.852L227.529,244.137z"/>
		</g>
	</g>
</g>
</svg>
