<?xml version="1.0" encoding="utf-8"?>
<!-- Generator: Adobe Illustrator 27.5.0, SVG Export Plug-In . SVG Version: 6.00 Build 0)  -->
<svg version="1.1" xmlns="http://www.w3.org/2000/svg" xmlns:xlink="http://www.w3.org/1999/xlink" x="0px" y="0px"
	 viewBox="0 0 500 500" style="enable-background:new 0 0 500 500;" xml:space="preserve">
<g id="Background_Complete">
	<g>
		<rect y="382.398" style="fill:#EBEBEB;" width="500" height="0.25"/>
		<rect x="416.779" y="398.494" style="fill:#EBEBEB;" width="33.122" height="0.25"/>
		<rect x="322.527" y="401.208" style="fill:#EBEBEB;" width="8.693" height="0.25"/>
		<rect x="396.586" y="389.208" style="fill:#EBEBEB;" width="19.192" height="0.25"/>
		<rect x="52.459" y="390.888" style="fill:#EBEBEB;" width="43.193" height="0.25"/>
		<rect x="104.556" y="390.888" style="fill:#EBEBEB;" width="6.333" height="0.25"/>
		<rect x="131.471" y="395.111" style="fill:#EBEBEB;" width="93.676" height="0.25"/>
		<path style="fill:#EBEBEB;" d="M237.014,337.8H43.915c-3.147,0-5.708-2.561-5.708-5.708V60.66c0-3.147,2.561-5.708,5.708-5.708
			h193.099c3.146,0,5.707,2.561,5.707,5.708v271.432C242.721,335.239,240.16,337.8,237.014,337.8z M43.915,55.203
			c-3.01,0-5.458,2.448-5.458,5.458v271.432c0,3.01,2.448,5.458,5.458,5.458h193.099c3.009,0,5.457-2.448,5.457-5.458V60.66
			c0-3.009-2.448-5.458-5.457-5.458H43.915z"/>
		<path style="fill:#EBEBEB;" d="M453.31,337.8H260.212c-3.147,0-5.707-2.561-5.707-5.708V60.66c0-3.147,2.561-5.708,5.707-5.708
			H453.31c3.148,0,5.708,2.561,5.708,5.708v271.432C459.019,335.239,456.458,337.8,453.31,337.8z M260.212,55.203
			c-3.009,0-5.457,2.448-5.457,5.458v271.432c0,3.01,2.448,5.458,5.457,5.458H453.31c3.01,0,5.458-2.448,5.458-5.458V60.66
			c0-3.009-2.448-5.458-5.458-5.458H260.212z"/>
	</g>
	<g>
		<g>
			<g>
				<rect x="91.253" y="104.673" style="fill:#FAFAFA;" width="71.254" height="241.711"/>
				<g>
					<polygon style="fill:#F5F5F5;" points="151.896,104.673 147.733,104.673 122.881,346.384 127.044,346.384 					"/>
				</g>
				<rect x="90.797" y="105.608" style="fill:#E0E0E0;" width="70.447" height="2.13"/>
				<rect x="90.798" y="344.269" style="fill:#EBEBEB;" width="70.447" height="4.558"/>
				<g>
					<rect x="93.506" y="348.625" style="fill:#EBEBEB;" width="66.567" height="0.202"/>
					<polygon style="fill:#EBEBEB;" points="93.506,105.608 160.073,105.608 160.073,348.625 164.061,348.625 164.061,102.621 
						89.519,102.621 89.519,348.625 93.506,348.625 					"/>
				</g>
			</g>
			<g>
				<rect x="170.54" y="104.673" style="fill:#FAFAFA;" width="71.254" height="241.711"/>
				<g>
					<polygon style="fill:#F5F5F5;" points="222.03,104.673 199.313,104.673 174.461,346.384 197.178,346.384 					"/>
				</g>
				<rect x="170.085" y="105.608" style="fill:#E0E0E0;" width="72.447" height="2.13"/>
				<rect x="170.085" y="344.269" style="fill:#EBEBEB;" width="72.447" height="4.558"/>
				<g>
					<rect x="172.794" y="348.625" style="fill:#EBEBEB;" width="66.567" height="0.202"/>
					<polygon style="fill:#EBEBEB;" points="172.794,105.608 239.361,105.608 239.361,348.625 243.348,348.625 243.348,102.621 
						168.806,102.621 168.806,348.625 172.794,348.625 					"/>
				</g>
			</g>
			<g>
				<rect x="249.828" y="104.673" style="fill:#FAFAFA;" width="69.254" height="241.711"/>
				<g>
					<polygon style="fill:#F5F5F5;" points="289.066,104.673 284.902,104.673 260.05,346.384 264.214,346.384 					"/>
				</g>
				<rect x="249.372" y="105.608" style="fill:#E0E0E0;" width="70.447" height="2.13"/>
				<rect x="249.372" y="344.269" style="fill:#EBEBEB;" width="70.447" height="4.558"/>
				<g>
					<rect x="252.081" y="348.625" style="fill:#EBEBEB;" width="66.567" height="0.202"/>
					<polygon style="fill:#EBEBEB;" points="252.081,105.608 318.648,105.608 318.648,348.625 322.635,348.625 322.635,102.621 
						248.094,102.621 248.094,348.625 252.081,348.625 					"/>
				</g>
			</g>
			<g>
				<rect x="329.115" y="104.673" style="fill:#FAFAFA;" width="71.254" height="241.711"/>
				<g>
					<polygon style="fill:#F5F5F5;" points="393.397,104.673 370.68,104.673 345.828,346.384 368.545,346.384 					"/>
				</g>
				<rect x="328.66" y="105.608" style="fill:#E0E0E0;" width="70.447" height="2.13"/>
				<rect x="328.66" y="344.269" style="fill:#EBEBEB;" width="70.447" height="4.558"/>
				<g>
					<polygon style="fill:#EBEBEB;" points="331.368,105.608 397.935,105.608 397.935,348.625 401.923,348.625 401.923,102.621 
						327.381,102.621 327.381,348.625 331.368,348.625 					"/>
					<rect x="331.368" y="348.625" style="fill:#EBEBEB;" width="66.567" height="0.202"/>
				</g>
			</g>
			<g>
				<rect x="114.527" y="290.786" style="fill:#EBEBEB;" width="30.933" height="53.488"/>
				<polygon style="fill:#EBEBEB;" points="139.52,283.312 139.52,296.727 137.081,296.727 122.907,296.727 120.468,296.727 
					120.468,283.312 				"/>
				
					<rect x="139.52" y="292.767" transform="matrix(-1 -1.224647e-16 1.224647e-16 -1 283.0003 589.4935)" style="fill:#FAFAFA;" width="3.96" height="3.96"/>
				
					<rect x="131.849" y="292.767" transform="matrix(-1 -1.224647e-16 1.224647e-16 -1 267.6585 589.4935)" style="fill:#FAFAFA;" width="3.96" height="3.96"/>
				
					<rect x="124.178" y="292.767" transform="matrix(-1 -1.224647e-16 1.224647e-16 -1 252.3167 589.4935)" style="fill:#FAFAFA;" width="3.96" height="3.96"/>
				
					<rect x="116.507" y="292.767" transform="matrix(-1 -1.224647e-16 1.224647e-16 -1 236.975 589.4935)" style="fill:#F0F0F0;" width="3.96" height="3.96"/>
				
					<rect x="139.52" y="299.962" transform="matrix(-1 -1.224647e-16 1.224647e-16 -1 283.0003 603.885)" style="fill:#F0F0F0;" width="3.96" height="3.96"/>
				
					<rect x="131.849" y="299.962" transform="matrix(-1 -1.224647e-16 1.224647e-16 -1 267.6585 603.885)" style="fill:#F0F0F0;" width="3.96" height="3.96"/>
				
					<rect x="124.178" y="299.962" transform="matrix(-1 -1.224647e-16 1.224647e-16 -1 252.3167 603.885)" style="fill:#FAFAFA;" width="3.96" height="3.96"/>
				
					<rect x="116.507" y="299.962" transform="matrix(-1 -1.224647e-16 1.224647e-16 -1 236.975 603.885)" style="fill:#FAFAFA;" width="3.96" height="3.96"/>
				
					<rect x="139.52" y="307.158" transform="matrix(-1 -1.224647e-16 1.224647e-16 -1 283.0003 618.2765)" style="fill:#F0F0F0;" width="3.96" height="3.96"/>
				
					<rect x="131.849" y="307.158" transform="matrix(-1 -1.224647e-16 1.224647e-16 -1 267.6585 618.2765)" style="fill:#FAFAFA;" width="3.96" height="3.96"/>
				
					<rect x="124.178" y="307.158" transform="matrix(-1 -1.224647e-16 1.224647e-16 -1 252.3167 618.2765)" style="fill:#FAFAFA;" width="3.96" height="3.96"/>
				
					<rect x="131.849" y="286.547" transform="matrix(-1 -1.224647e-16 1.224647e-16 -1 267.6585 577.0544)" style="fill:#FAFAFA;" width="3.96" height="3.96"/>
				
					<rect x="124.178" y="286.547" transform="matrix(-1 -1.224647e-16 1.224647e-16 -1 252.3167 577.0544)" style="fill:#F0F0F0;" width="3.96" height="3.96"/>
				
					<rect x="116.507" y="307.158" transform="matrix(-1 -1.224647e-16 1.224647e-16 -1 236.975 618.2765)" style="fill:#F0F0F0;" width="3.96" height="3.96"/>
				
					<rect x="139.52" y="314.354" transform="matrix(-1 -1.224647e-16 1.224647e-16 -1 283.0003 632.6679)" style="fill:#FAFAFA;" width="3.96" height="3.96"/>
				
					<rect x="131.849" y="314.354" transform="matrix(-1 -1.224647e-16 1.224647e-16 -1 267.6585 632.6679)" style="fill:#F0F0F0;" width="3.96" height="3.96"/>
				
					<rect x="124.178" y="314.354" transform="matrix(-1 -1.224647e-16 1.224647e-16 -1 252.3167 632.6679)" style="fill:#F0F0F0;" width="3.96" height="3.96"/>
				
					<rect x="116.507" y="314.354" transform="matrix(-1 -1.224647e-16 1.224647e-16 -1 236.975 632.6679)" style="fill:#FAFAFA;" width="3.96" height="3.96"/>
				
					<rect x="139.52" y="321.55" transform="matrix(-1 -1.224647e-16 1.224647e-16 -1 283.0003 647.0595)" style="fill:#F0F0F0;" width="3.96" height="3.96"/>
				
					<rect x="131.849" y="321.55" transform="matrix(-1 -1.224647e-16 1.224647e-16 -1 267.6585 647.0595)" style="fill:#FAFAFA;" width="3.96" height="3.96"/>
				
					<rect x="124.178" y="321.55" transform="matrix(-1 -1.224647e-16 1.224647e-16 -1 252.3167 647.0595)" style="fill:#FAFAFA;" width="3.96" height="3.96"/>
				
					<rect x="116.507" y="321.55" transform="matrix(-1 -1.224647e-16 1.224647e-16 -1 236.975 647.0595)" style="fill:#F0F0F0;" width="3.96" height="3.96"/>
				
					<rect x="139.52" y="328.745" transform="matrix(-1 -1.224647e-16 1.224647e-16 -1 283.0003 661.4509)" style="fill:#F0F0F0;" width="3.96" height="3.96"/>
				
					<rect x="131.849" y="328.745" transform="matrix(-1 -1.224647e-16 1.224647e-16 -1 267.6585 661.4509)" style="fill:#FAFAFA;" width="3.96" height="3.96"/>
				
					<rect x="124.178" y="328.745" transform="matrix(-1 -1.224647e-16 1.224647e-16 -1 252.3167 661.4509)" style="fill:#F0F0F0;" width="3.96" height="3.96"/>
				
					<rect x="116.507" y="328.745" transform="matrix(-1 -1.224647e-16 1.224647e-16 -1 236.975 661.4509)" style="fill:#FAFAFA;" width="3.96" height="3.96"/>
				
					<rect x="139.52" y="335.941" transform="matrix(-1 -1.224647e-16 1.224647e-16 -1 283.0003 675.8424)" style="fill:#FAFAFA;" width="3.96" height="3.96"/>
				
					<rect x="131.849" y="335.941" transform="matrix(-1 -1.224647e-16 1.224647e-16 -1 267.6585 675.8424)" style="fill:#FAFAFA;" width="3.96" height="3.96"/>
				
					<rect x="124.178" y="335.941" transform="matrix(-1 -1.224647e-16 1.224647e-16 -1 252.3167 675.8424)" style="fill:#F0F0F0;" width="3.96" height="3.96"/>
				
					<rect x="116.507" y="335.941" transform="matrix(-1 -1.224647e-16 1.224647e-16 -1 236.975 675.8424)" style="fill:#F0F0F0;" width="3.96" height="3.96"/>
			</g>
			<g>
				<rect x="335.64" y="310.271" style="fill:#F0F0F0;" width="27.71" height="34.003"/>
				<polygon style="fill:#E6E6E6;" points="338.052,314.043 344.498,314.043 346.272,314.043 348.046,314.043 348.046,317.59 
					346.272,317.59 344.498,317.59 338.052,317.59 				"/>
				<polygon style="fill:#FAFAFA;" points="338.052,320.914 344.498,320.914 346.272,320.914 348.046,320.914 348.046,324.462 
					346.272,324.462 344.498,324.462 338.052,324.462 				"/>
				<polygon style="fill:#E6E6E6;" points="338.052,327.786 344.498,327.786 346.272,327.786 348.046,327.786 348.046,331.333 
					346.272,331.333 344.498,331.333 338.052,331.333 				"/>
				<polygon style="fill:#FAFAFA;" points="338.052,334.657 344.498,334.657 347.239,334.657 348.046,334.657 348.046,338.205 
					347.239,338.205 344.498,338.205 338.052,338.205 				"/>
				<polygon style="fill:#FAFAFA;" points="350.944,314.043 357.39,314.043 359.164,314.043 360.937,314.043 360.937,317.59 
					359.164,317.59 357.39,317.59 350.944,317.59 				"/>
				<polygon style="fill:#FAFAFA;" points="350.944,320.914 357.39,320.914 359.891,320.914 360.937,320.914 360.937,324.462 
					359.891,324.462 357.39,324.462 350.944,324.462 				"/>
				<polygon style="fill:#E6E6E6;" points="350.944,327.786 357.39,327.786 359.164,327.786 360.937,327.786 360.937,331.333 
					359.164,331.333 357.39,331.333 350.944,331.333 				"/>
				<polygon style="fill:#FAFAFA;" points="350.944,334.657 357.39,334.657 359.164,334.657 360.937,334.657 360.937,338.205 
					359.164,338.205 357.39,338.205 350.944,338.205 				"/>
			</g>
			<g>
				<rect x="204.647" y="323.147" style="fill:#F0F0F0;" width="25.177" height="21.128"/>
				
					<rect x="224.989" y="325.78" transform="matrix(-1 -1.224647e-16 1.224647e-16 -1 453.2018 654.784)" style="fill:#FAFAFA;" width="3.223" height="3.223"/>
				
					<rect x="218.746" y="325.78" transform="matrix(-1 -1.224647e-16 1.224647e-16 -1 440.715 654.784)" style="fill:#FAFAFA;" width="3.223" height="3.223"/>
				
					<rect x="212.502" y="325.78" transform="matrix(-1 -1.224647e-16 1.224647e-16 -1 428.2281 654.784)" style="fill:#FAFAFA;" width="3.223" height="3.223"/>
				
					<rect x="206.259" y="325.78" transform="matrix(-1 -1.224647e-16 1.224647e-16 -1 415.7412 654.784)" style="fill:#FAFAFA;" width="3.223" height="3.223"/>
				
					<rect x="224.989" y="331.637" transform="matrix(-1 -1.224647e-16 1.224647e-16 -1 453.2018 666.4974)" style="fill:#FAFAFA;" width="3.223" height="3.223"/>
				
					<rect x="218.746" y="331.637" transform="matrix(-1 -1.224647e-16 1.224647e-16 -1 440.715 666.4974)" style="fill:#FAFAFA;" width="3.223" height="3.223"/>
				
					<rect x="212.502" y="331.637" transform="matrix(-1 -1.224647e-16 1.224647e-16 -1 428.2281 666.4974)" style="fill:#FAFAFA;" width="3.223" height="3.223"/>
				
					<rect x="206.259" y="331.637" transform="matrix(-1 -1.224647e-16 1.224647e-16 -1 415.7412 666.4974)" style="fill:#E6E6E6;" width="3.223" height="3.223"/>
				
					<rect x="224.989" y="337.494" transform="matrix(-1 -1.224647e-16 1.224647e-16 -1 453.2018 678.2108)" style="fill:#E6E6E6;" width="3.223" height="3.223"/>
				
					<rect x="218.746" y="337.494" transform="matrix(-1 -1.224647e-16 1.224647e-16 -1 440.715 678.2108)" style="fill:#E6E6E6;" width="3.223" height="3.223"/>
				
					<rect x="212.502" y="337.494" transform="matrix(-1 -1.224647e-16 1.224647e-16 -1 428.2281 678.2108)" style="fill:#FAFAFA;" width="3.223" height="3.223"/>
				
					<rect x="206.259" y="337.494" transform="matrix(-1 -1.224647e-16 1.224647e-16 -1 415.7412 678.2108)" style="fill:#E6E6E6;" width="3.223" height="3.223"/>
			</g>
			<g>
				<rect x="176.058" y="307.523" style="fill:#F0F0F0;" width="25.177" height="36.752"/>
				<rect x="190.156" y="309.134" style="fill:#FAFAFA;" width="9.467" height="9.08"/>
				<rect x="177.669" y="309.134" style="fill:#FAFAFA;" width="9.467" height="9.08"/>
				<rect x="190.156" y="320.848" style="fill:#FAFAFA;" width="9.467" height="9.08"/>
				<rect x="177.669" y="320.848" style="fill:#FAFAFA;" width="9.467" height="9.08"/>
				<rect x="190.156" y="332.561" style="fill:#FAFAFA;" width="9.467" height="9.08"/>
				<rect x="177.669" y="332.561" style="fill:#FAFAFA;" width="9.467" height="9.08"/>
			</g>
		</g>
		<g>
			<path style="fill:#F5F5F5;" d="M331.125,375.909h-23.17l12.181-99.206c0.516-4.199,4.338-7.604,8.538-7.604h7.963h93.139
				l-14.821,106.81H331.125z"/>
			<path style="fill:#F0F0F0;" d="M404.612,375.909h23.17l12.181-99.206c0.516-4.199-2.471-7.604-6.67-7.604h-7.963
				c-4.199,0-8.022,3.404-8.537,7.604L404.612,375.909z"/>
			<g>
				<path style="fill:#E6E6E6;" d="M396.076,375.791l4.198-47.984c0.188-2.143,1.843-3.866,3.978-4.138l1.726-0.22
					c2.863-0.365,5.084-2.676,5.336-5.551l0.766-8.749c0.314-3.586-2.512-6.67-6.112-6.67h38.723c3.6,0,6.426,3.084,6.112,6.67
					l-0.766,8.749c-0.251,2.875-2.473,5.186-5.335,5.551l-1.727,0.22c-2.134,0.272-3.79,1.995-3.977,4.138l-4.198,47.984
					c-0.306,3.498-3.235,6.183-6.747,6.183h-38.723C392.84,381.974,395.77,379.29,396.076,375.791z"/>
			</g>
			<path style="fill:#E6E6E6;" d="M289.513,315.795c-0.659-7.535-6.969-13.317-14.533-13.317h18.737h14.975
				c7.564,0,13.874,5.782,14.533,13.317l3.328,38.037h-33.712L289.513,315.795z"/>
			<path style="fill:#F0F0F0;" d="M260.005,302.478h14.975c7.564,0,13.873,5.782,14.533,13.317l3.328,38.037h80.29l3.328-38.037
				c0.659-7.535,6.969-13.317,14.533-13.317h14.975c3.599,0,6.426,3.084,6.112,6.67l-0.766,8.749
				c-0.251,2.875-2.473,5.186-5.336,5.551l-1.726,0.22c-2.134,0.272-3.79,1.995-3.977,4.138l-4.198,47.984
				c-0.306,3.498-3.235,6.183-6.747,6.183H276.643c-3.512,0-6.441-2.684-6.747-6.183l-4.198-47.984
				c-0.188-2.143-1.843-3.866-3.977-4.138l-1.727-0.22c-2.863-0.365-5.084-2.676-5.336-5.552l-0.765-8.749
				C253.579,305.563,256.406,302.478,260.005,302.478z"/>
		</g>
		<g>
			<g>
				<path style="fill:#E0E0E0;" d="M109.151,313.333c-1.8-2.964-4.764-0.387-4.764-0.387c0.423-5.68-4.802-9.565-4.802-9.565
					s6.073,0,6.919-5.794c0.847-5.794-2.117-3.099-4.898-3.138c-2.781-0.04-5.688,8.085-2.021,12.654
					c3.667,4.569,2.685,12.369-5.785,19.87c-2.066,1.83-3.471,4.266-4.42,6.902c0.639-6.891,1-16.602-1.028-23.085
					c-3.445-11.01,3.119-13.974,5.025-19.479c1.906-5.505-5.025-10.163-5.025-10.163s6.507-2.964,3.331-6.352
					c-3.176-3.388-9.74-2.927-9.74,1.501c0,4.427,4.446,6.121,4.446,6.121s5.081,5.293,5.081,8.045c0,2.753-5.081,8.681-5.081,8.681
					s2.329-5.074-2.329-5.289c-4.658-0.216-6.14,5.924-4.235,8.677c1.905,2.753,5.081,0.423,5.081,0.423s0.37,5.928,1.455,9.528
					c0.477,1.583,0.253,7.793-0.148,14.255c-0.938-2.333-2.265-4.471-4.125-6.118c-8.469-7.502-9.452-15.301-5.785-19.87
					c3.667-4.569,0.76-12.694-2.021-12.655c-2.781,0.039-5.745-2.655-4.898,3.138c0.847,5.794,6.919,5.794,6.919,5.794
					s-5.226,3.885-4.802,9.565c0,0-2.964-2.578-4.764,0.386c-3.213,5.293,4.234,8.575,5.486,5.97c0,0,15.793,11.18,11.982,27.271
					l0.885,1.307c-0.114,1.299-0.186,2.081-0.186,2.081l1.235-0.531l1.405,2.074c-0.073,4.022,0.36,6.995,0.36,6.995l3.776-5.574
					c-3.811-16.091,11.981-27.271,11.981-27.271C104.916,321.908,112.364,318.625,109.151,313.333z"/>
				<path style="opacity:0.2;fill:#E0E0E0;enable-background:new    ;" d="M109.151,313.333c-1.8-2.964-4.764-0.387-4.764-0.387
					c0.423-5.68-4.802-9.565-4.802-9.565s6.073,0,6.919-5.794c0.847-5.794-2.117-3.099-4.898-3.138
					c-2.781-0.04-5.688,8.085-2.021,12.654c3.667,4.569,2.685,12.369-5.785,19.87c-2.066,1.83-3.471,4.266-4.42,6.902
					c0.639-6.891,1-16.602-1.028-23.085c-3.445-11.01,3.119-13.974,5.025-19.479c1.906-5.505-5.025-10.163-5.025-10.163
					s6.507-2.964,3.331-6.352c-3.176-3.388-9.74-2.927-9.74,1.501c0,4.427,4.446,6.121,4.446,6.121s5.081,5.293,5.081,8.045
					c0,2.753-5.081,8.681-5.081,8.681s2.329-5.074-2.329-5.289c-4.658-0.216-6.14,5.924-4.235,8.677
					c1.905,2.753,5.081,0.423,5.081,0.423s0.37,5.928,1.455,9.528c0.477,1.583,0.253,7.793-0.148,14.255
					c-0.938-2.333-2.265-4.471-4.125-6.118c-8.469-7.502-9.452-15.301-5.785-19.87c3.667-4.569,0.76-12.694-2.021-12.655
					c-2.781,0.039-5.745-2.655-4.898,3.138c0.847,5.794,6.919,5.794,6.919,5.794s-5.226,3.885-4.802,9.565
					c0,0-2.964-2.578-4.764,0.386c-3.213,5.293,4.234,8.575,5.486,5.97c0,0,15.793,11.18,11.982,27.271l0.885,1.307
					c-0.114,1.299-0.186,2.081-0.186,2.081l1.235-0.531l1.405,2.074c-0.073,4.022,0.36,6.995,0.36,6.995l3.776-5.574
					c-3.811-16.091,11.981-27.271,11.981-27.271C104.916,321.908,112.364,318.625,109.151,313.333z"/>
			</g>
			<polygon style="fill:#E6E6E6;" points="106.061,381.974 69.887,381.974 65.984,342.368 109.964,342.368 			"/>
			<rect x="64.053" y="337.998" style="fill:#F0F0F0;" width="47.843" height="8.74"/>
		</g>
	</g>
</g>
<g id="Background_Simple" style="display:none;">
	<g style="display:inline;">
		<path style="fill:#407BFF;" d="M120.636,104.582c68.811-39.112,102.793,2.148,123.565,61.864
			c20.772,59.715,85.722,29.585,118.195,2.85c32.473-26.735,70.394,14.152,38.604,63.452c-31.79,49.3-93.511,142.18-201.734,129.644
			S31.547,155.22,120.636,104.582z"/>
		<path style="opacity:0.9;fill:#FFFFFF;" d="M120.636,104.582c68.811-39.112,102.793,2.148,123.565,61.864
			c20.772,59.715,85.722,29.585,118.195,2.85c32.473-26.735,70.394,14.152,38.604,63.452c-31.79,49.3-93.511,142.18-201.734,129.644
			S31.547,155.22,120.636,104.582z"/>
	</g>
</g>
<g id="Shadow_1_">
	<ellipse id="_x3C_Path_x3E__359_" style="fill:#F5F5F5;" cx="250" cy="416.238" rx="193.889" ry="11.323"/>
</g>
<g id="Character">
	<g>
		<g>
			<path style="fill:#E4897B;" d="M320.868,207.74c0,0-8.597,14.436-13.749,16.005c-5.153,1.569-28.087-3.974-28.087-3.974
				l-0.714-3.738c0,0,23.449-2.248,24.492-2.854c1.043-0.606,8.906-14.49,8.906-14.49L320.868,207.74z"/>
			<path style="opacity:0.2;enable-background:new    ;" d="M320.868,207.74c0,0-8.597,14.436-13.749,16.005
				c-5.153,1.569-28.087-3.974-28.087-3.974l-0.714-3.738c0,0,23.449-2.248,24.492-2.854c1.043-0.606,8.906-14.49,8.906-14.49
				L320.868,207.74z"/>
			<g>
				<path style="fill:#407BFF;" d="M321.123,188.934c-5.812-2.137-14.856,16.486-14.856,16.486l13.51,9.739
					C319.778,215.16,332.44,193.095,321.123,188.934z"/>
				<path style="opacity:0.2;enable-background:new    ;" d="M321.123,188.934c-5.812-2.137-14.856,16.486-14.856,16.486
					l13.51,9.739C319.778,215.16,332.44,193.095,321.123,188.934z"/>
			</g>
			<polygon style="fill:#E4897B;" points="324.442,348.129 316.978,350.594 310.652,333.505 318.125,331.038 			"/>
			<path style="fill:#263238;" d="M315.658,350.071l9.069-2.994c0.306-0.099,0.641,0.026,0.805,0.303l3.667,6.161
				c0.322,0.553,0.135,1.264-0.419,1.586c-0.074,0.043-0.153,0.078-0.234,0.104c-2.95,0.921-5.146,1.446-8.83,2.663
				c-2.27,0.749-9.038,3.247-12.171,4.282c-3.134,1.035-4.564-1.926-3.376-2.634c5.341-3.153,9.097-6.321,10.394-8.581
				C314.799,350.534,315.192,350.216,315.658,350.071z"/>
			<polygon style="opacity:0.2;enable-background:new    ;" points="318.128,331.047 310.655,333.515 313.922,342.325 
				321.395,339.858 			"/>
			<path style="fill:#263238;" d="M385.111,225.843L331,229.267l-3.64,9.364c0,0-32.106,6.33-42.25,27.692
				c-10.144,21.363,25.908,74.769,25.908,74.769l10.051-5.272c0,0-14.059-37.577-12.872-47.801
				c1.187-10.224,26.904-5.59,47.078-11.665C375.451,270.279,385.111,225.843,385.111,225.843z"/>
		</g>
		<g>
			<g>
				<path style="fill:#263238;" d="M314.88,230.498c-2.69-4.82-8.66-13.51-21.44-29.79c-0.86-1.09-2.43-1.28-3.51-0.43
					c-1.09,0.86-1.28,2.43-0.43,3.51c7.97,10.15,16.33,21.51,20.22,27.72c0.35,0.55,0.66,1.06,0.93,1.52
					c-4.89-0.95-13.2-3.01-18.54-4.42c-0.21-0.06-0.42-0.08-0.64-0.08h-12.78c-0.22-1.22-0.55-2.73-1.03-4.63
					c-1.18-4.66-3.26-11.63-6.81-22.13c-0.44-1.31-1.86-2.01-3.17-1.56c-1.31,0.44-2.01,1.86-1.56,3.17
					c2.4,7.09,4.86,15.02,6.41,20.75c0.46,1.68,0.84,3.17,1.11,4.4h-7.27c-1.25,0-2.31,0.92-2.47,2.17
					c-0.17,1.24,0.61,2.41,1.82,2.74c2.51,0.68,8.61,2.21,11.13,1.66c0.78-0.17,1.43-0.65,1.83-1.36c0.03-0.07,0.07-0.13,0.11-0.21
					h12.36c2.99,0.79,18.77,4.9,22.81,5h0.08c1.11,0,2.1-0.59,2.58-1.56C317,236.208,317.51,235.208,314.88,230.498z"/>
			</g>
			<path style="opacity:0.2;fill:#FFFFFF;" d="M316.62,236.968c-0.48,0.97-1.47,1.56-2.58,1.56h-0.08c-4.04-0.1-19.82-4.21-22.81-5
				h-12.36c-0.04,0.08-0.08,0.14-0.11,0.21c-0.4,0.71-1.05,1.19-1.83,1.36c-2.52,0.55-8.62-0.98-11.13-1.66
				c-1.21-0.33-1.99-1.5-1.82-2.74c0.16-1.25,1.22-2.17,2.47-2.17h7.27c-0.27-1.23-0.65-2.72-1.11-4.4l5.13-0.23
				c0.48,1.9,0.81,3.41,1.03,4.63h12.78c0.22,0,0.43,0.02,0.64,0.08c5.34,1.41,13.65,3.47,18.54,4.42
				c-0.27-0.46-0.58-0.97-0.93-1.52c1.43,0.24,3.59,0.3,5.16-1.01C317.51,235.208,317,236.208,316.62,236.968z"/>
			<g>
				<path style="fill:#407BFF;" d="M291.98,228.588c0,0.02,0,0.04-0.01,0.06c-0.34,2.62-5.53,4.1-5.53,4.1h-16.91
					c0,0-9.95-12.02-12.44-26.39c-0.05-0.29,0.03-0.56,0.19-0.77c0.18-0.27,0.5-0.45,0.85-0.45h20.26c0.53,0,1.02,0.27,1.3,0.72
					C281.98,209.548,292.21,226.228,291.98,228.588z"/>
				<path style="opacity:0.2;enable-background:new    ;" d="M291.97,228.648c-0.34,2.62-5.53,4.1-5.53,4.1h-16.91
					c0,0-9.95-12.02-12.44-26.39c-0.05-0.29,0.03-0.56,0.19-0.77c1.03,2.36,5.82,13.26,6.87,14.32c1.19,1.18,14.17,0.52,14.17,0.52
					s5.35,9.24,6.41,9.76C285.55,230.598,289.43,229.738,291.97,228.648z"/>
			</g>
			<path style="fill:#263238;" d="M279.835,230.893L279.835,230.893l2.648-1.861l-5.011-7.016h-13.319l5.458,7.838l-26.485,76.399
				c-1.852,5.345-2.318,11.114-1.348,16.685l11.227,64.459l9.852-1.717l-11.227-64.458c-0.68-3.905-0.353-7.949,0.945-11.694
				L279.835,230.893z"/>
			<path style="opacity:0.4;fill:#FFFFFF;" d="M252.57,309.528c-1.29,3.75-1.62,7.79-0.94,11.69l4.17,23.94l7.06,40.52l-9.85,1.72
				l-11.23-64.46c-0.97-5.57-0.51-11.34,1.35-16.68l26.48-76.4l-5.46-7.84h13.32l5.01,7.01l-2.64,1.86L252.57,309.528z"/>
			<path style="opacity:0.2;fill:#FFFFFF;" d="M252.57,309.528c-1.29,3.75-1.62,7.79-0.94,11.69l4.17,23.94l-4.04-0.51
				l-3.188-20.134c-1.197-7.557-0.539-15.292,1.915-22.539l24.348-71.981l-4.615-0.264l5.123-1.215l2.127-6.497l5.01,7.01
				l-2.64,1.86L252.57,309.528z"/>
			<path style="fill:#263238;" d="M342.378,281.62l17.563,18.049c1.487,1.528,1.911,3.8,1.074,5.761l-13.326,31.257l21.602,5.639
				l10.156-36.248c0.659-2.352,0.545-4.854-0.326-7.136l-9.829-25.761L342.378,281.62z"/>
			<path style="opacity:0.4;fill:#FFFFFF;" d="M379.45,306.078l-9.66,34.46l-0.5,1.79l-21.6-5.64l13.33-31.26
				c0.83-1.96,0.41-4.23-1.08-5.76l-17.56-18.05l26.91-8.44l0.79,2.06l9.04,23.7C379.99,301.218,380.11,303.728,379.45,306.078z"/>
			<path style="opacity:0.2;fill:#FFFFFF;" d="M379.45,306.078l-9.66,34.46l-14.75-3.85l13.32-31.26c0.84-1.96,0.42-4.23-1.07-5.76
				l-17.56-18.05l20.35-6.38l9.04,23.7C379.99,301.218,380.11,303.728,379.45,306.078z"/>
			<g>
				<g>
					<path style="fill:#263238;" d="M327.36,408.957h-10c-2.01,0-3.64,2.077-3.64,4.639s1.629,4.639,3.64,4.639h10
						c2.01,0,3.64-2.077,3.64-4.639S329.371,408.957,327.36,408.957z"/>
					<path style="opacity:0.2;fill:#FFFFFF;" d="M331,413.596c0,2.562-1.629,4.639-3.64,4.639c-2.01,0-3.64-2.077-3.64-4.639
						s1.629-4.639,3.64-4.639C329.371,408.957,331,411.034,331,413.596z"/>
				</g>
				<g>
					<path style="fill:#263238;" d="M388.266,409.573h-60.671c-1.743,0-3.156,1.801-3.156,4.023c0,2.222,1.413,4.023,3.156,4.023
						h60.671c1.743,0,3.156-1.801,3.156-4.023C391.422,411.374,390.009,409.573,388.266,409.573z"/>
					<path style="opacity:0.2;fill:#FFFFFF;" d="M391.422,413.596c0,2.222-1.413,4.023-3.156,4.023
						c-1.743,0-3.156-1.801-3.156-4.023c0-2.222,1.413-4.023,3.156-4.023C390.009,409.573,391.422,411.374,391.422,413.596z"/>
				</g>
				<g>
					<path style="fill:#263238;" d="M397.36,408.957h-10c-2.01,0-3.64,2.077-3.64,4.639s1.629,4.639,3.64,4.639h10
						c2.01,0,3.64-2.077,3.64-4.639S399.371,408.957,397.36,408.957z"/>
					<path style="opacity:0.2;fill:#FFFFFF;" d="M401,413.596c0,2.562-1.629,4.639-3.64,4.639c-2.01,0-3.64-2.077-3.64-4.639
						s1.629-4.639,3.64-4.639C399.371,408.957,401,411.034,401,413.596z"/>
				</g>
			</g>
			<g>
				<path style="fill:#407BFF;" d="M357.474,329.025h-10c0,0-53.344,11.839-73.119,15.503c-6.341-3.737-15.788-16.013-15.788-16.013
					h-10l-10.652,2.087c-2.451,0.48-4.07,2.83-3.645,5.291l12.019,69.713c1.29,7.484,8.077,12.748,15.646,12.136l5.194-0.42
					c1.533,0.391,3.148,0.554,4.806,0.42l68.023-5.499c18.503-1.332,32.834-16.732,32.834-35.283v-19.629l4.75-13.685
					c0.897-2.584-0.307-5.428-2.788-6.582L357.474,329.025z"/>
				<path style="opacity:0.2;fill:#FFFFFF;" d="M377.54,343.648l-4.75,13.68v19.63c0,18.55-14.33,33.95-32.83,35.29l-66.66,5.38
					l-1.37,0.11c-7.57,0.62-14.35-4.65-15.64-12.13l-12.02-69.71c-0.43-2.46,1.19-4.81,3.64-5.29l10.66-2.09
					c0,0,13.19,17.15,18.86,17.08c5.67-0.07,80.04-16.57,80.04-16.57l13.19,6.14l4.09,1.9
					C377.23,338.218,378.44,341.058,377.54,343.648z"/>
				<path style="fill:#407BFF;" d="M377.539,343.65l-4.749,13.678v19.63c0,18.55-14.33,33.95-32.83,35.29l-66.66,5.38
					c-3.69-2.3-6.25-4.03-6.25-4.03l6.941-35.087c1.336-6.755,6.168-12.289,12.681-14.524l83.988-28.819l4.09,1.9
					C377.231,338.221,378.437,341.065,377.539,343.65z"/>
				<ellipse style="fill:#263238;" cx="342.378" cy="376.398" rx="20.018" ry="22.154"/>
			</g>
			<g>
				<g>
					<path style="fill:#263238;" d="M227.36,408.957h-10c-2.01,0-3.64,2.077-3.64,4.639s1.629,4.639,3.64,4.639h10
						c2.01,0,3.64-2.077,3.64-4.639S229.371,408.957,227.36,408.957z"/>
					<path style="opacity:0.2;fill:#FFFFFF;" d="M231,413.596c0,2.562-1.63,4.639-3.64,4.639c-2.01,0-3.64-2.077-3.64-4.639
						s1.63-4.639,3.64-4.639C229.37,408.957,231,411.034,231,413.596z"/>
				</g>
				<g>
					<path style="fill:#263238;" d="M288.266,409.573h-60.671c-1.743,0-3.156,1.801-3.156,4.023c0,2.222,1.413,4.023,3.156,4.023
						h60.671c1.743,0,3.156-1.801,3.156-4.023C291.422,411.374,290.009,409.573,288.266,409.573z"/>
					<path style="opacity:0.2;fill:#FFFFFF;" d="M291.422,413.596c0,2.222-1.413,4.023-3.156,4.023
						c-1.743,0-3.156-1.801-3.156-4.023c0-2.222,1.413-4.023,3.156-4.023C290.009,409.573,291.422,411.374,291.422,413.596z"/>
				</g>
				<g>
					<path style="fill:#263238;" d="M297.36,408.957h-10c-2.01,0-3.64,2.077-3.64,4.639s1.629,4.639,3.64,4.639h10
						c2.01,0,3.64-2.077,3.64-4.639S299.371,408.957,297.36,408.957z"/>
					<path style="opacity:0.2;fill:#FFFFFF;" d="M301,413.596c0,2.562-1.629,4.639-3.64,4.639c-2.01,0-3.64-2.077-3.64-4.639
						s1.629-4.639,3.64-4.639C299.371,408.957,301,411.034,301,413.596z"/>
				</g>
			</g>
			<g>
				<path style="fill:#407BFF;" d="M369.21,282.048c-17.28-4.52-27.78,10.38-30.56,7.38c-2.63-2.86-7.46-6.55-7.1-9.36
					c0.01-0.15,0.04-0.29,0.09-0.43c4.03-12.17,48.29-18.85,50.03-11.34c0.19,0.81,0.34,1.66,0.43,2.5
					C382.9,277.718,380.31,284.948,369.21,282.048z"/>
				<path style="opacity:0.2;enable-background:new    ;" d="M369.21,282.048c-17.28-4.52-27.78,10.38-30.56,7.38
					c-2.63-2.86-7.46-6.55-7.1-9.36c1.92,4.11,3.95,6.12,7.1,4.98c4.36-1.58,13.49-8.42,21.71-8.69c5.84-0.2,17.66-1.84,21.74-5.56
					C382.9,277.718,380.31,284.948,369.21,282.048z"/>
			</g>
			<g>
				<path style="fill:#263238;" d="M366.747,404.983l-13.848-25.146c0.38-1.066,0.596-2.223,0.596-3.439
					c0-5.181-3.795-9.38-8.476-9.38c-4.681,0-8.476,4.2-8.476,9.38c0,5.181,3.795,9.38,8.476,9.38c0.161,0,0.318-0.017,0.477-0.027
					l15.628,20.22L366.747,404.983z"/>
				<path style="opacity:0.2;fill:#FFFFFF;" d="M366.747,404.983l-13.848-25.146c0.38-1.066,0.596-2.223,0.596-3.439
					c0-5.181-3.795-9.38-8.476-9.38c-4.681,0-8.476,4.2-8.476,9.38c0,5.181,3.795,9.38,8.476,9.38c0.161,0,0.318-0.017,0.477-0.027
					l15.628,20.22L366.747,404.983z"/>
			</g>
			<g>
				<path style="fill:#407BFF;" d="M379.126,409.192h-17.906c-1.07,0-1.945-0.875-1.945-1.945v-0.47c0-1.07,0.875-1.945,1.945-1.945
					h17.906c1.07,0,1.945,0.875,1.945,1.945v0.47C381.071,408.317,380.196,409.192,379.126,409.192z"/>
				<path style="opacity:0.2;enable-background:new    ;" d="M381.07,407.008c0,0.594-0.247,1.143-0.639,1.547
					c-0.392,0.392-0.942,0.639-1.536,0.639h-17.439c-1.199,0-2.186-0.986-2.186-2.185c0-0.594,0.247-1.143,0.639-1.535
					c0.404-0.392,0.953-0.639,1.547-0.639h17.439C380.095,404.834,381.07,405.809,381.07,407.008z"/>
				<path style="opacity:0.2;enable-background:new    ;" d="M381.07,407.008c0,0.594-0.247,1.143-0.639,1.547
					c-0.392,0.392-0.942,0.639-1.536,0.639h-7.688c-1.199,0-2.185-0.986-2.185-2.185c0-0.594,0.247-1.132,0.639-1.535
					c0.404-0.392,0.953-0.639,1.547-0.639h7.688C380.095,404.834,381.07,405.809,381.07,407.008z"/>
			</g>
		</g>
		<g id="_x3C_Group_x3E__62_">
			<polygon style="fill:#E4897B;" points="378.844,399.814 370.731,400.671 369.209,383.174 377.321,382.317 			"/>
			<path style="fill:#263238;" d="M369.873,398.063h9.55c0.322,0.002,0.6,0.226,0.67,0.54l1.55,7
				c0.133,0.627-0.268,1.242-0.895,1.375c-0.084,0.018-0.169,0.026-0.255,0.025c-3.09-0.05-5.34-0.24-9.22-0.24
				c-2.39,0-9.6,0.25-12.9,0.25c-3.3,0-3.73-3.26-2.38-3.56c6.06-1.32,10.62-3.15,12.56-4.89
				C368.913,398.233,369.385,398.054,369.873,398.063z"/>
			<polygon style="opacity:0.2;enable-background:new    ;" points="377.321,382.317 369.209,383.174 370.001,392.199 
				378.113,391.342 			"/>
			<path style="fill:#263238;" d="M385.111,225.843c12.494,21.887,1.506,70.942-2.89,87.953
				c-4.396,17.011-3.376,73.596-3.376,73.596l-12.097,0.614c0,0-11.433-39.792-17.387-70.65
				c-5.954-30.857,5.915-70.978,5.915-70.978l-1.734-17.789L385.111,225.843z"/>
			<path style="fill:#407BFF;" d="M327.36,238.631c0,0,28.574,2.901,58.697-10.975c0,0-13.244-36.964-31.706-46.093
				c-18.461-9.13-39.802,11.192-39.802,11.192s-1.31,15.186,7.774,18.927C322.323,211.681,320.123,231.65,327.36,238.631z"/>
			<g>
				<path style="fill:#407BFF;" d="M333,177.739c-5.221,0.987-12.845,6.679-14.472,16.51c-1.627,9.832-2.322,15.766-2.322,15.766
					l4.324,0.688l0,2.213h4.073c0,0-0.869-7.78,0-16.483c0.869-8.703,14.05-15.79,14.05-15.79S338.163,176.763,333,177.739z"/>
				<path style="opacity:0.5;fill:#FFFFFF;" d="M333,177.739c-5.221,0.987-12.845,6.679-14.472,16.51
					c-1.627,9.832-2.322,15.766-2.322,15.766l4.324,0.688l0,2.213h4.073c0,0-0.869-7.78,0-16.483
					c0.869-8.703,14.05-15.79,14.05-15.79S338.163,176.763,333,177.739z"/>
			</g>
			<g>
				<path style="fill:#E4897B;" d="M342.75,180.408c0,0-3.05,12.8-12.19,13.78c-3.9,0.42-5.65-1.39-6.44-3.15
					c-0.66-1.48-0.63-2.91-0.63-2.91l-2.96-4.3l9.42-8.95c0,0,0.05,0.92,0.69,2.03C331.77,178.888,334.79,181.468,342.75,180.408z"
					/>
				<path style="opacity:0.2;enable-background:new    ;" d="M330.64,176.908c-0.01,2.24-0.47,10.05-6.52,14.13
					c-0.66-1.48-0.63-2.91-0.63-2.91l-2.96-4.3l9.42-8.95C329.95,174.878,330,175.798,330.64,176.908z"/>
			</g>
			<g>
				<path style="fill:#263238;" d="M307.029,160.329c0,0-1.199,9.899,4.551,14.066s4.516-20.066,4.516-20.066L307.029,160.329z"/>
				<path style="fill:#E4897B;" d="M329.317,181.245c-0.28,0.59-0.63,1.18-1.04,1.76c-2.6,3.73-6.72,4.9-10.47,4.04
					c-0.28-0.07-0.55-0.14-0.82-0.23c-2.46-0.77-4.68-2.44-6.1-4.84c-0.05-0.08-0.1-0.17-0.15-0.25c-0.19-0.33-0.36-0.68-0.52-1.04
					c-0.31-0.73-0.6-1.52-0.85-2.35c-2.08-6.73-1.84-17.97,4.4-21.83c4.97-3.13,12.82-2.08,15.95,2.9c0.9,1.41-0.11,5.1,0.05,6.77
					C330.517,172.925,331.277,177.225,329.317,181.245z"/>
				<path style="fill:#263238;" d="M318.479,170.31c0.149,0.612-0.133,1.185-0.548,1.255c-0.415,0.07-0.825-0.386-0.935-1.007
					c-0.11-0.622,0.143-1.188,0.549-1.255C317.95,169.235,318.367,169.679,318.479,170.31z"/>
				<path style="fill:#263238;" d="M311.414,171.516c0.149,0.612-0.143,1.188-0.548,1.255c-0.405,0.068-0.825-0.386-0.935-1.007
					c-0.11-0.622,0.143-1.188,0.548-1.255C310.884,170.441,311.311,170.924,311.414,171.516z"/>
				<path style="fill:#DE5753;" d="M313.711,171.441c-0.418,2.038-1.115,4.009-2.073,5.857c0.975,0.473,2.11,0.49,3.099,0.048
					L313.711,171.441z"/>
				<path style="fill:#263238;" d="M320.28,167.648c-0.132,0.042-0.277,0.011-0.38-0.082c-0.675-0.664-1.623-0.971-2.559-0.828
					c-0.198,0.049-0.399-0.072-0.448-0.271c-0.049-0.198,0.072-0.399,0.271-0.448c0,0,0.001,0,0.002,0
					c1.178-0.211,2.386,0.162,3.239,1.002c0.153,0.136,0.167,0.369,0.032,0.522c-0.002,0.002-0.004,0.005-0.006,0.007
					C320.387,167.59,320.336,167.623,320.28,167.648z"/>
				<path style="fill:#263238;" d="M307.962,169.599c-0.064,0.039-0.139,0.058-0.214,0.052c-0.197-0.054-0.313-0.258-0.259-0.455
					c0.001-0.003,0.001-0.005,0.002-0.008c0.309-1.161,1.163-2.098,2.29-2.513c0.195-0.059,0.402,0.051,0.461,0.247
					c0,0,0,0.001,0,0.001c0.054,0.196-0.055,0.399-0.248,0.462l0,0c-0.88,0.354-1.541,1.102-1.783,2.019
					C308.162,169.502,308.07,169.574,307.962,169.599z"/>
				<path style="fill:#263238;" d="M332.709,161.412c0.042-0.204,0.08-0.42,0.114-0.649c1.088-7.418-9.82-11.775-19.634-10.852
					c-4.275,0.402-3.383,5.988-3.383,5.988s-1.23,0.828-2.329,2.308c-1.935,2.606-0.06,9.23-0.06,9.23
					c-1.493-8.331,2.841-8.824,2.841-8.824s1.005,3.239,2.983,2.942c1.978-0.297,6.819-5.027,9.225-4.457
					c1.967,0.467,2.872,1.778,3.287,2.96c0.105,1.077-0.203,2.448-1.59,4.003c-2.059,2.307,1.418,7.246,3.833,8.75
					c0,0-0.083-1.25,1-1.083c0.669,0.103,1.115,2.618,0.967,5.312c-0.041,0.747,1.001,0.981,1.255,0.277
					c0.544-1.508,1.055-3.418,1.361-5.756C333.101,167.575,333.13,164.062,332.709,161.412z"/>
				<path style="fill:#263238;" d="M316.306,180.408L316.306,180.408c1.862-0.035,3.59-0.975,4.63-2.52
					c0.054-0.094,0.023-0.214-0.07-0.27c-0.088-0.057-0.206-0.031-0.263,0.057c-0.003,0.004-0.005,0.008-0.008,0.013
					c-0.991,1.409-2.588,2.268-4.31,2.32c-0.105,0-0.19,0.084-0.191,0.189c0,0.007,0,0.014,0.001,0.021
					c-0.001,0.105,0.084,0.19,0.189,0.191C316.292,180.409,316.299,180.409,316.306,180.408z"/>
				<path style="fill:#E4897B;" d="M334.19,171.895c-0.555,1.882-1.833,3.467-3.555,4.408c-2.289,1.229-3.999-0.684-3.844-3.142
					c0.159-2.183,1.516-5.522,4.052-5.714C333.378,167.256,334.842,169.577,334.19,171.895z"/>
				<path style="fill:#263238;" d="M313.188,182.958c0,0-0.756-2.556,0-3.96c0.756-1.403,3.018-0.631,3.018-0.631l0.677,0.837
					c0,0-1.784-0.841-2.399,1.205c-0.616,2.046-0.423,4.156,1.722,4.683c2.146,0.527,1.539-3.469,1.539-3.469l1.632-0.619
					c0,0,1.612,4.481,3.458,3.559c1.846-0.922,2.11-5.513,1.187-6.976c-0.923-1.463-4.51-1.123-6.277,1.411v-1.26
					c0,0,2.585-3.317,4.299-2.861c1.714,0.456,5.842,2.519,7.273,6.366c1.43,3.848-8.718,8.595-12.347,7.276
					C313.341,187.202,313.188,182.958,313.188,182.958z"/>
				<g>
					<path style="fill:#407BFF;" d="M333.47,162.168l-0.03,1.37l-0.02,1.08l-0.02,1.24c-0.01,0.4-0.39,0.68-0.78,0.56
						c-2.91-0.91-13.43-4.08-18.14-3.74c-4.08,0.29-6.44,2.43-7.38,3.51c-0.2,0.23-0.57,0.12-0.63-0.18l-0.35-1.98l-0.03-0.17
						c-0.08-0.45-0.1-0.9-0.06-1.34c0.12-1.37,0.78-2.66,1.88-3.53c1.34-1.05,3.46-2.02,6.83-2.18c8.66-0.42,15.44,2.6,17.82,3.83
						C333.13,160.938,333.48,161.528,333.47,162.168z"/>
					<g style="opacity:0.4;">
						<path style="fill:#FFFFFF;" d="M333.44,163.538l-0.02,1.08c-8.05-3.49-16.34-5.19-21.31-4.29c-3.31,0.61-5.1,2.38-5.99,3.7
							l-0.03-0.17c-0.08-0.45-0.1-0.9-0.06-1.34c1.14-1.28,3-2.64,5.9-3.17C317,158.428,325.33,160.088,333.44,163.538z"/>
					</g>
				</g>
			</g>
			<g>
				<path style="fill:#407BFF;" d="M333,177.739c0,0,5.818-1.908,9.75-0.151c3.932,1.757,0.53,14.757,0,20.428
					c-0.53,5.67,0.789,9.099,0.789,9.099l-6.857,2.901l-0.659-2.637l-2.552,0.132c0,0-2.253-6.039,0.874-14.756
					C337.473,184.038,337.709,179.024,333,177.739z"/>
				<path style="opacity:0.6;fill:#FFFFFF;" d="M333,177.739c0,0,5.818-1.908,9.75-0.151c3.932,1.757,0.53,14.757,0,20.428
					c-0.53,5.67,0.789,9.099,0.789,9.099l-6.857,2.901l-0.659-2.637l-2.552,0.132c0,0-2.253-6.039,0.874-14.756
					C337.473,184.038,337.709,179.024,333,177.739z"/>
			</g>
			<path style="fill:#E4897B;" d="M358.044,200.817c0,0-3.415,16.451-7.773,19.616c-4.359,3.165-27.846,5.41-27.846,5.41l-1.895-3.3
				c0,0,21.431-9.778,22.22-10.691c0.789-0.913,3.69-16.603,3.69-16.603L358.044,200.817z"/>
			<g>
				<path style="fill:#407BFF;" d="M352.147,182.958c-6.191-0.123-8.662,20.432-8.662,20.432l15.949,4.797
					C359.434,208.187,364.203,183.197,352.147,182.958z"/>
				<path style="opacity:0.2;enable-background:new    ;" d="M352.147,182.958c-6.191-0.123-8.662,20.432-8.662,20.432l15.949,4.797
					C359.434,208.187,364.203,183.197,352.147,182.958z"/>
			</g>
			<path style="fill:#E4897B;" d="M322.098,222.018l-12.194-3.075l-7.778,1.537l5.349,9.842l8.73-1.385c0,0,6.559-2.882,7.42-3.096
				C324.487,225.629,322.098,222.018,322.098,222.018z"/>
		</g>
	</g>
</g>
<g id="Table">
	<g>
		<g>
			<g>
				<path style="fill:#407BFF;" d="M163.195,293.365v-3.522h-6.162v3.522c0,0.948-0.4,1.851-1.102,2.488l0,0
					c-0.702,0.637-1.102,1.54-1.102,2.488v20.238c0,0.984,0.798,1.781,1.781,1.781h7.008c0.984,0,1.781-0.798,1.781-1.781v-20.238
					c0-0.948-0.4-1.852-1.102-2.488l0,0C163.596,295.216,163.195,294.313,163.195,293.365z"/>
				<path style="opacity:0.2;enable-background:new    ;" d="M163.195,293.365v-3.522h-6.162v3.522c0,0.948-0.4,1.851-1.102,2.488
					l0,0c-0.702,0.637-1.102,1.54-1.102,2.488v20.238c0,0.984,0.798,1.781,1.781,1.781h7.008c0.984,0,1.781-0.798,1.781-1.781
					v-20.238c0-0.948-0.4-1.852-1.102-2.488l0,0C163.596,295.216,163.195,294.313,163.195,293.365z"/>
				<path style="opacity:0.5;fill:#FFFFFF;enable-background:new    ;" d="M165.4,303.206v-4.864c0-0.948-0.4-1.852-1.102-2.488
					c-0.702-0.637-1.103-1.541-1.103-2.488v-3.522h-6.162v3.522c0,0.948-0.4,1.852-1.102,2.488c-0.702,0.637-1.103,1.54-1.103,2.488
					v4.864H165.4z"/>
				<path style="opacity:0.6;fill:#FFFFFF;enable-background:new    ;" d="M154.829,310.282v8.297c0,0.984,0.798,1.781,1.781,1.781
					h7.008c0.984,0,1.781-0.798,1.781-1.781v-8.297H154.829z"/>
				<path style="fill:#407BFF;" d="M163.223,291.645h-6.217c-0.291,0-0.527-0.236-0.527-0.527v-1.714
					c0-0.291,0.236-0.527,0.527-0.527h6.217c0.291,0,0.527,0.236,0.527,0.527v1.714
					C163.751,291.409,163.514,291.645,163.223,291.645z"/>
			</g>
			<g>
				<path style="fill:#407BFF;" d="M173.195,285.365v-3.522h-6.162v3.522c0,0.948-0.4,1.851-1.102,2.488l0,0
					c-0.702,0.637-1.102,1.54-1.102,2.488v28.238c0,0.984,0.798,1.781,1.781,1.781h7.008c0.984,0,1.781-0.798,1.781-1.781v-28.238
					c0-0.948-0.4-1.852-1.102-2.488l0,0C173.596,287.216,173.195,286.313,173.195,285.365z"/>
				<path style="opacity:0.6;fill:#FFFFFF;enable-background:new    ;" d="M175.4,299.206v-8.864c0-0.948-0.4-1.852-1.102-2.488
					c-0.702-0.637-1.103-1.541-1.103-2.488v-3.522h-6.162v3.522c0,0.948-0.4,1.852-1.102,2.488c-0.702,0.637-1.103,1.54-1.103,2.488
					v8.864H175.4z"/>
				<path style="opacity:0.6;fill:#FFFFFF;enable-background:new    ;" d="M164.829,310.282v8.297c0,0.984,0.798,1.781,1.781,1.781
					h7.008c0.984,0,1.781-0.798,1.781-1.781v-8.297H164.829z"/>
				<path style="fill:#407BFF;" d="M173.223,283.645h-6.217c-0.291,0-0.527-0.236-0.527-0.527v-1.714
					c0-0.291,0.236-0.527,0.527-0.527h6.217c0.291,0,0.527,0.236,0.527,0.527v1.714
					C173.751,283.409,173.514,283.645,173.223,283.645z"/>
			</g>
		</g>
		<g>
			<path style="fill:#407BFF;" d="M103.892,310.08h35.022c2.365,0,4.282,1.917,4.282,4.282v1.92c0,2.365-1.917,4.282-4.282,4.282
				H96.513c-2.365,0-4.282-1.917-4.282-4.282l0,0c0-2.365,1.917-4.282,4.282-4.282h6.752v-1.294
				C103.265,310.36,103.546,310.08,103.892,310.08z"/>
			<path style="opacity:0.5;fill:#FFFFFF;enable-background:new    ;" d="M130.892,310.08h8.022c2.365,0,4.282,1.917,4.282,4.282
				v1.92c0,2.365-1.917,4.282-4.282,4.282h-15.401c-2.365,0-4.282-1.917-4.282-4.282l0,0c0-2.365,1.917-4.282,4.282-4.282h6.752
				v-1.294C130.265,310.36,130.546,310.08,130.892,310.08z"/>
			<path style="opacity:0.2;" d="M130.265,312l4.575-0.132l2.287-0.056c0.385-0.005,0.75-0.03,1.165-0.009
				c0.404,0.036,0.803,0.135,1.178,0.298c1.523,0.639,2.464,2.403,2.152,4.054c-0.261,1.657-1.758,3.04-3.471,3.132
				c-3.096,0.083-6.113,0.055-9.173,0.083l-4.575,0.023c-0.384-0.008-0.739,0.031-1.219-0.036c-0.448-0.071-0.883-0.241-1.253-0.505
				c-0.747-0.517-1.245-1.388-1.29-2.303c-0.059-0.911,0.333-1.839,1.021-2.433c0.34-0.301,0.748-0.526,1.188-0.644
				c0.442-0.13,0.915-0.112,1.266-0.11l4.575,0.023c3.05,0.024,6.1,0.01,9.15,0.071c0.415-0.036,1.006,0.164,1.302,0.56
				c0.324,0.388,0.427,0.937,0.275,1.412c-0.148,0.478-0.544,0.861-1.02,0.992c-0.245,0.071-0.492,0.054-0.661,0.052l-0.572-0.009
				l-4.575-0.071c-3.05-0.083-6.1-0.132-9.15-0.245c3.05-0.113,6.1-0.162,9.15-0.245l4.575-0.071
				c0.354-0.018,0.833,0.018,1.045-0.051c0.259-0.08,0.467-0.299,0.537-0.555c0.152-0.536-0.292-1.089-0.907-1.001
				c-3.05,0.061-6.1,0.047-9.15,0.07l-4.575,0.023c-0.409,0.001-0.71-0.005-1.003,0.085c-0.297,0.082-0.572,0.238-0.8,0.445
				c-0.465,0.41-0.716,1.032-0.674,1.646c0.022,0.615,0.351,1.203,0.855,1.561c0.249,0.183,0.542,0.299,0.846,0.35
				c0.275,0.049,0.687,0.028,1.064,0.035l4.575,0.023l9.127,0.061c1.369-0.028,2.639-1.111,2.899-2.483
				c0.303-1.368-0.438-2.89-1.739-3.496c-0.318-0.156-0.662-0.261-1.016-0.311c-0.346-0.035-0.745-0.032-1.122-0.045l-2.287-0.056
				L130.265,312z"/>
			<polygon style="opacity:0.2;" points="103.265,312 130.265,312 103.265,311.003 			"/>
		</g>
		<g>
			<path style="fill:#407BFF;" d="M79.125,319.164L79.125,319.164h120.141l0,0c0,4.411-3.472,8.032-7.878,8.231
				c-12.911,0.582-32.773,2.625-39.072,9.769c-11.741,13.316-10.604,60.095,3.46,70.929c4.41,3.397,17.265,10.142,17.265,10.142
				H105.35c0,0,12.012-6.881,16.186-10.142c13.984-10.923,14.391-57.674,2.595-70.929c-6.052-6.801-24.669-8.998-37.16-9.691
				C82.565,327.229,79.125,323.577,79.125,319.164z"/>
			<path style="opacity:0.2;enable-background:new    ;" d="M184.384,327.831c-12.203,0.979-26.828,3.39-32.068,9.333
				c-1.551,1.759-2.87,4.114-3.972,6.88h-20.178c-1.131-2.769-2.473-5.125-4.035-6.88c-5.26-5.91-20.006-8.342-31.977-9.333H184.384
				z"/>
			<path style="opacity:0.4;fill:#FFFFFF;" d="M79.125,319.164L79.125,319.164h120.141l0,0c0,4.411-3.472,8.032-7.878,8.231
				c-12.911,0.582-32.773,2.625-39.072,9.769c-11.741,13.316-10.604,60.095,3.46,70.929c4.41,3.397,17.265,10.142,17.265,10.142
				H105.35c0,0,12.012-6.881,16.186-10.142c13.984-10.923,14.391-57.674,2.595-70.929c-6.052-6.801-24.669-8.998-37.16-9.691
				C82.565,327.229,79.125,323.577,79.125,319.164z"/>
		</g>
		<g>
			<g>
				<path style="fill:#263238;" d="M180.397,403.547c0.518,0,2.482,0,3,0c3.391,0,6.14,3.474,6.14,7.76
					c0,4.286-2.749,7.76-6.14,7.76c-0.518,0-2.482,0-3,0c-3.391,0-6.14-3.474-6.14-7.76
					C174.257,407.021,177.006,403.547,180.397,403.547z"/>
				<path style="opacity:0.1;fill:#FFFFFF;enable-background:new    ;" d="M180.397,403.547c0.518,0,2.482,0,3,0
					c3.391,0,6.14,3.474,6.14,7.76c0,4.286-2.749,7.76-6.14,7.76c-0.518,0-2.482,0-3,0c-3.391,0-6.14-3.474-6.14-7.76
					C174.257,407.021,177.006,403.547,180.397,403.547z"/>
				<ellipse style="opacity:0.2;fill:#FFFFFF;enable-background:new    ;" cx="180.397" cy="411.307" rx="6.14" ry="7.76"/>
			</g>
			<g>
				<path style="fill:#263238;" d="M168.137,408.292c0.201,0,10.964,0,11.166,0c1.318,0,2.386,1.35,2.386,3.015
					c0,1.665-1.068,3.015-2.386,3.015c-0.201,0-10.964,0-11.166,0c-1.318,0-2.386-1.35-2.386-3.015
					C165.751,409.642,166.82,408.292,168.137,408.292z"/>
			</g>
			<g>
				<path style="fill:#263238;" d="M164.397,403.547c0.518,0,2.482,0,3,0c3.391,0,6.14,3.474,6.14,7.76
					c0,4.286-2.749,7.76-6.14,7.76c-0.518,0-2.482,0-3,0c-3.391,0-6.14-3.474-6.14-7.76
					C158.257,407.021,161.006,403.547,164.397,403.547z"/>
				<path style="opacity:0.1;fill:#FFFFFF;enable-background:new    ;" d="M164.397,403.547c0.518,0,2.482,0,3,0
					c3.391,0,6.14,3.474,6.14,7.76c0,4.286-2.749,7.76-6.14,7.76c-0.518,0-2.482,0-3,0c-3.391,0-6.14-3.474-6.14-7.76
					C158.257,407.021,161.006,403.547,164.397,403.547z"/>
				<ellipse style="opacity:0.2;fill:#FFFFFF;enable-background:new    ;" cx="164.397" cy="411.307" rx="6.14" ry="7.76"/>
			</g>
		</g>
		<g>
			<g>
				<path style="fill:#407BFF;" d="M185.84,408.082c-0.367,0-1.757,0-2.123,0c-2.4,0-4.346,2.459-4.346,5.493
					c0,3.034,1.946,5.493,4.346,5.493c0.367,0,1.757,0,2.123,0c2.4,0,4.346-2.459,4.346-5.493
					C190.187,410.541,188.241,408.082,185.84,408.082z"/>
				<path style="opacity:0.2;fill:#FFFFFF;enable-background:new    ;" d="M190.187,413.575c0,3.034-1.946,5.493-4.346,5.493
					c-2.4,0-4.346-2.459-4.346-5.493c0-3.034,1.946-5.493,4.346-5.493C188.241,408.082,190.187,410.541,190.187,413.575z"/>
			</g>
			<g>
				<path style="fill:#407BFF;" d="M194.518,411.441c-0.143,0-7.76,0-7.903,0c-0.932,0-1.689,0.956-1.689,2.134
					s0.756,2.134,1.689,2.134c0.143,0,7.76,0,7.903,0c0.933,0,1.689-0.956,1.689-2.134S195.451,411.441,194.518,411.441z"/>
				<g style="opacity:0.2;enable-background:new    ;">
					<path d="M194.518,411.441c-0.143,0-7.76,0-7.903,0c-0.932,0-1.689,0.956-1.689,2.134s0.756,2.134,1.689,2.134
						c0.143,0,7.76,0,7.903,0c0.933,0,1.689-0.956,1.689-2.134S195.451,411.441,194.518,411.441z"/>
				</g>
			</g>
			<g>
				<path style="fill:#407BFF;" d="M197.165,408.082c-0.367,0-1.757,0-2.123,0c-2.4,0-4.346,2.459-4.346,5.493
					c0,3.034,1.946,5.493,4.346,5.493c0.367,0,1.757,0,2.123,0c2.4,0,4.346-2.459,4.346-5.493
					C201.511,410.541,199.566,408.082,197.165,408.082z"/>
				<path style="opacity:0.2;fill:#FFFFFF;enable-background:new    ;" d="M201.511,413.575c0,3.034-1.946,5.493-4.346,5.493
					c-2.4,0-4.346-2.459-4.346-5.493c0-3.034,1.946-5.493,4.346-5.493C199.566,408.082,201.511,410.541,201.511,413.575z"/>
			</g>
		</g>
	</g>
</g>
</svg>
